<svg width="145" height="145" viewBox="0 0 145 145" fill="none" xmlns="http://www.w3.org/2000/svg">
<path fill-rule="evenodd" clip-rule="evenodd" d="M72.6828 109.206C72.5611 109.206 72.5611 109.206 72.4393 109.085C72.0741 108.963 71.8306 108.841 71.4653 108.719C65.0128 104.093 58.682 99.2231 52.5946 93.988C49.7945 91.5531 46.9943 88.9964 44.3159 86.318C42.3679 84.2483 40.42 82.1786 38.8373 79.8654C38.1068 78.7697 37.3763 77.674 36.7676 76.4565C36.4024 75.726 36.4024 74.7521 37.0111 74.1433C37.4981 73.5346 38.3503 73.1694 39.0808 73.2911C39.8113 73.4129 40.42 73.7781 40.6635 74.5086C41.5157 76.213 42.4897 77.674 43.5854 79.1349C44.8029 80.5959 46.0203 81.9351 47.2378 83.2743C49.9162 86.0745 52.8381 88.6312 55.7601 91.1878C59.4124 94.2315 63.0648 97.2752 66.839 100.075C68.6652 101.415 70.4914 102.875 72.3176 104.215C72.4393 104.215 72.4393 104.336 72.5611 104.336C72.9263 104.093 73.2915 103.849 73.6568 103.606C77.0657 101.049 80.4746 98.6144 83.7617 95.936C86.8054 93.501 89.7273 91.0661 92.5275 88.5094C94.5972 86.5615 96.6669 84.6135 98.6148 82.5438C100.076 80.9611 101.537 79.3784 102.754 77.5522C104.459 75.1173 105.676 72.3171 106.041 69.3952C106.894 64.1601 105.676 58.8033 102.632 54.5422C98.6148 48.8201 91.9187 45.7764 84.9792 46.6286C80.9616 46.9939 77.0657 48.6983 74.022 51.3768C73.6568 51.6202 73.2915 51.8637 72.9263 51.9855C72.3176 52.1072 71.7088 51.9855 71.2218 51.6202C70.9784 51.3768 70.7349 51.255 70.4914 51.0115C67.813 48.8201 64.5258 47.3591 61.1169 46.8721C59.169 46.5069 57.3428 46.5069 55.3948 46.7504C52.5946 47.1156 49.7945 48.0896 47.4813 49.6723C43.3419 52.3507 40.5417 56.6119 39.3243 61.36C38.959 62.5774 38.8373 63.9166 38.7156 65.2558C38.7156 65.3776 38.7156 65.4993 38.7156 65.6211C38.8373 65.6211 38.8373 65.6211 38.959 65.6211C40.2983 65.6211 41.6375 65.6211 42.8549 65.6211C42.9767 65.6211 43.2202 65.4993 43.3419 65.3776C44.4376 64.2819 45.5334 63.1862 46.6291 62.0904L49.3075 59.5338C49.551 59.2903 49.9162 59.0468 50.2815 58.925C51.3772 58.5598 52.4729 59.1685 52.8381 60.2642C53.0816 60.873 53.3251 61.4817 53.4469 62.2122L57.0993 72.9259C57.0993 73.0476 57.221 73.1694 57.221 73.2911C57.3428 73.1694 57.3428 73.0476 57.4645 72.9259L62.5779 63.4296C63.9171 60.873 65.378 58.1946 66.7172 55.6379C66.9607 55.0291 67.4477 54.6639 68.0564 54.4204C69.1522 54.0552 70.2479 54.6639 70.7349 55.6379C71.1001 56.3684 71.3436 57.2206 71.7088 57.9511L75.2395 66.2298C75.2395 66.3516 75.3612 66.4733 75.3612 66.5951H84.0052C85.3444 63.4297 88.8751 61.9687 92.0405 63.3079C95.2059 64.6471 96.6669 68.1778 95.3276 71.3432C94.4754 73.2911 92.771 74.6303 90.7013 74.9956C87.7794 75.4825 84.8575 73.7781 83.8835 70.9779H74.1438C73.6568 70.9779 73.1698 70.8562 72.8046 70.6127C72.4393 70.3692 72.1958 70.004 71.9523 69.517L68.6652 61.9687C68.6652 61.8469 68.5434 61.7252 68.4217 61.4817C68.2999 61.6035 68.2999 61.7252 68.1782 61.8469L61.8474 73.5346C60.7517 75.4825 59.7777 77.5522 58.682 79.5002C58.195 80.4742 57.0993 80.9611 56.1253 80.5959C55.3948 80.3524 54.9078 79.8654 54.6643 79.1349C54.2991 77.9175 53.8121 76.8218 53.4469 75.6043L49.9162 65.1341C49.9162 65.0124 49.7945 64.8906 49.7945 64.7689C49.6727 64.8906 49.6727 64.8906 49.551 65.0124C48.2118 66.3516 46.9943 67.569 45.6551 68.9082C45.1681 69.3952 44.4376 69.7605 43.8289 69.6387C41.5157 69.6387 39.0808 69.6387 36.7676 69.6387C36.5241 69.6387 36.1589 69.6387 35.9154 69.517C35.1849 69.3952 34.5762 68.7865 34.3327 67.9343C34.3327 67.8125 34.2109 67.6908 34.2109 67.569V65.6211C34.2109 65.2558 34.3327 64.8906 34.3327 64.6471C34.4544 63.1862 34.5762 61.8469 34.9414 60.386C36.5241 55.8814 38.959 51.6202 42.6114 48.3331C44.3159 46.7504 46.2638 45.4112 48.3335 44.4372C51.2554 43.098 54.4208 42.2458 57.5862 42.124C59.169 42.124 60.7517 42.124 62.2126 42.4893C65.4998 42.9763 68.5434 44.1937 71.3436 46.0199C71.8306 46.3851 72.3176 46.7504 72.9263 47.1156C73.048 47.1156 73.048 46.9939 73.1698 46.9939C73.6568 46.7504 74.022 46.3851 74.509 46.0199C78.1614 43.7067 82.3008 42.3675 86.5619 42.2458C88.6316 42.124 90.5795 42.3675 92.5275 42.8545C97.1538 43.9502 101.415 46.3852 104.702 49.9158C107.015 52.4725 108.841 55.6379 109.815 58.925C110.424 60.7512 110.789 62.6992 110.911 64.5254C110.911 64.6471 110.911 64.6471 110.911 64.7689V67.8125C110.911 67.9343 110.911 68.056 110.911 68.1778C110.911 68.4213 110.911 68.6647 110.911 68.7865C110.789 70.004 110.546 71.0997 110.302 72.3171C109.815 74.5086 108.963 76.5783 107.746 78.5262C106.894 79.8654 106.041 81.0829 104.946 82.3003C102.876 84.7353 100.684 87.0485 98.3713 89.2399C95.9364 91.5531 93.5014 93.7445 90.9448 95.936C85.7097 100.197 80.3528 104.336 74.7525 108.354C74.2655 108.719 73.7785 108.963 73.1698 109.085H72.6828V109.206ZM87.9011 68.9082C87.9011 70.1257 88.8751 71.0997 90.0925 71.0997C91.31 71.0997 92.284 70.1257 92.284 68.9082C92.284 67.6908 91.31 66.7168 90.0925 66.7168C88.8751 66.7168 87.9011 67.6908 87.9011 68.9082Z" fill="#FF161F"/>
</svg>
