<svg width="145" height="145" viewBox="0 0 145 145" fill="none" xmlns="http://www.w3.org/2000/svg">
<path fill-rule="evenodd" clip-rule="evenodd" d="M72.3178 39.6895H73.17C73.17 39.6895 73.2918 39.6895 73.2918 39.8112C75.6049 40.5417 77.9181 41.3939 80.2313 42.1244C90.8232 45.7768 101.415 49.3074 112.007 52.9598C116.39 54.4208 120.773 55.8817 125.034 57.3427C126.008 57.5862 126.86 58.3167 127.225 59.1689V60.1429C126.982 60.9951 126.373 61.6038 125.521 61.8473C119.799 63.7953 114.077 65.8649 108.355 67.8129C107.989 67.9346 107.746 68.1781 107.868 68.5434C107.868 75.8481 107.868 83.1529 107.868 90.4577C107.868 90.5795 107.868 90.7012 107.868 90.9447C107.868 92.0404 106.894 93.0144 105.798 93.1361C105.555 93.1361 105.189 93.1361 104.946 93.1361C100.806 93.3796 96.6671 94.2319 92.7712 95.5711C86.8056 97.7625 81.327 100.806 76.3354 104.824C75.4832 105.676 74.5092 106.407 73.4135 106.893H72.4395C72.0743 106.65 71.709 106.528 71.3438 106.285C67.5697 103.241 63.4303 100.684 59.0474 98.493C53.8123 95.9363 48.212 94.1101 42.3682 93.2579C41.3942 93.1361 40.542 93.0144 39.568 92.8927C38.3505 92.7709 37.3766 91.6752 37.4983 90.4577C37.4983 83.1529 37.4983 75.8481 37.4983 68.5434C37.4983 68.2999 37.3766 67.9346 37.0113 67.9346C35.5504 67.4476 33.9677 66.8389 32.5067 66.3519L29.0978 65.1345C29.0978 65.2562 29.0978 65.378 29.0978 65.4997C29.0978 71.1 29.0978 76.7004 29.0978 82.4225C28.9761 82.7877 29.3413 83.2747 29.7065 83.3964C33.4807 84.9791 35.1851 89.362 33.6024 93.1361C32.0197 96.9103 27.6368 98.6147 23.8627 97.032C20.0886 95.4493 18.3841 91.0665 19.9668 87.2923C20.6973 85.4661 22.28 84.0052 24.1062 83.2747C24.3497 83.2747 24.5932 83.0312 24.4714 82.666C24.4714 76.4569 24.4714 70.2478 24.4714 63.917C24.4714 63.6735 24.3497 63.43 24.1062 63.43C22.767 62.943 21.4278 62.456 20.2103 62.0908C19.2363 61.8473 18.3841 61.1168 18.1406 60.2646V59.2906C18.5059 58.4384 19.2363 57.7079 20.0886 57.4644C26.1759 55.3947 32.385 53.3251 38.4723 51.2554L65.5 42.0026C67.8132 41.2722 70.1263 40.4199 72.3178 39.6895ZM27.5151 59.7776C27.8803 59.8994 28.0021 60.0211 28.2456 60.0211C35.1851 62.456 42.2464 64.891 49.186 67.3259C56.9777 70.0043 64.6478 72.6827 72.4395 75.4829C72.683 75.6047 72.9265 75.6047 73.17 75.4829C82.788 72.1958 92.2842 68.7869 101.902 65.4997C107.137 63.6735 112.251 61.8473 117.486 60.0211C117.607 60.0211 117.851 59.8994 118.094 59.7776L117.486 59.6559L95.8148 52.2293C88.2666 49.6727 80.84 47.116 73.2918 44.5593C72.9265 44.4376 72.5613 44.4376 72.196 44.5593C68.7871 45.7768 65.3782 46.8725 61.9693 48.09C52.9601 51.1336 44.0726 54.1773 35.0634 57.2209C32.6284 58.0732 30.1935 58.9254 27.5151 59.7776ZM103.363 69.7608C103.241 69.7608 103.12 69.8826 102.998 69.8826C99.8325 70.9783 96.7888 72.074 93.6234 73.1697C86.9274 75.4829 80.2313 77.7961 73.657 80.1093C73.0483 80.3528 72.4395 80.3528 71.8308 80.1093C62.0911 76.7004 52.3514 73.2915 42.6117 69.8826C42.4899 69.8826 42.2464 69.7608 42.1247 69.7608V88.6315C53.3253 90.2142 63.9173 94.7188 72.9265 101.78C81.9357 94.7188 91.7972 89.7272 103.363 88.7533V69.7608ZM29.7065 90.2142C29.7065 88.6315 28.4891 87.2923 26.9064 87.2923C25.3237 87.2923 23.9845 88.5098 23.9845 90.0925C23.9845 91.6752 25.2019 93.0144 26.7846 93.0144C28.4891 93.1361 29.7065 91.7969 29.7065 90.2142Z" fill="#FF161F"/>
</svg>
