<svg width="145" height="145" viewBox="0 0 145 145" fill="none" xmlns="http://www.w3.org/2000/svg">
<path fill-rule="evenodd" clip-rule="evenodd" d="M100.441 71.343C100.441 80.8392 100.441 90.3354 100.441 99.8316C100.441 100.927 100.197 102.145 99.5886 103.119C99.2234 103.728 98.7364 104.336 98.2494 104.701C97.1537 105.675 95.8145 106.528 94.4753 107.136C92.4056 108.11 90.2142 108.841 88.0227 109.328C85.7096 109.815 83.3964 110.302 81.0832 110.545C79.5005 110.667 77.9178 110.789 76.3351 110.911C74.6306 111.032 72.8044 111.032 71.1 111.032C70.126 111.032 69.0303 110.911 68.0563 110.911C67.0823 110.911 66.1084 110.789 65.1344 110.667C60.7515 110.424 56.3687 109.571 52.2293 108.232C50.6466 107.745 49.0639 107.015 47.6029 106.041C46.6289 105.432 45.8985 104.701 45.168 103.849C44.194 102.754 43.707 101.293 43.707 99.8316C43.707 99.2229 43.707 98.6142 43.707 98.0054C43.707 95.4488 43.707 93.0138 43.707 90.4572C43.707 86.0743 43.707 81.8132 43.707 77.4303C43.707 68.908 43.707 60.3858 43.707 51.7418C43.707 48.8199 43.707 45.898 43.707 42.9761C43.707 41.2716 44.3158 39.5672 45.655 38.3497C46.6289 37.3757 47.8464 36.5235 49.0639 35.9148C51.1336 34.8191 53.325 34.0886 55.5164 33.6016C57.7079 33.1146 59.8993 32.6276 62.0907 32.3841C63.9169 32.1406 65.7431 32.0189 67.5693 31.8971C69.7608 31.7754 71.9522 31.7754 74.2654 31.7754C74.7524 31.7754 75.1176 31.8971 75.6046 31.8971C76.5786 32.0189 77.6743 32.0189 78.6483 32.1406C82.3006 32.3841 86.0748 32.8711 89.6054 33.8451C91.3099 34.3321 93.1361 34.9408 94.7188 35.6713C96.058 36.28 97.2755 37.1322 98.3712 38.1062C99.3452 38.9584 99.9539 40.0541 100.319 41.2716C100.441 41.7586 100.441 42.3673 100.441 42.8543C100.441 46.9937 100.441 51.1331 100.441 55.2724V71.343ZM48.0899 99.4664C48.0899 100.44 48.5769 101.293 49.4291 101.78C49.7943 102.023 50.2813 102.267 50.7683 102.51C51.9858 103.119 53.325 103.728 54.6642 104.093C58.6818 105.31 62.943 106.041 67.0823 106.162C68.4216 106.284 69.7608 106.284 70.9782 106.284C73.7784 106.406 76.7003 106.284 79.5005 105.919C81.4484 105.675 83.5181 105.432 85.4661 105.067C87.414 104.701 89.2402 104.215 91.0664 103.484C92.6491 102.875 94.1101 102.145 95.3275 101.049C95.6928 100.806 95.8145 100.44 95.9363 99.9534C95.9363 99.8316 95.9363 99.5881 95.9363 99.4664C95.9363 97.5184 95.9363 95.5705 95.9363 93.6226V87.7787C95.9363 87.657 95.9363 87.5352 95.9363 87.5352C95.9363 87.2918 95.8145 87.17 95.571 87.17H95.4493C95.3275 87.17 95.3275 87.2918 95.2058 87.2918C92.8926 88.3875 90.5794 89.2397 88.1445 89.8484C85.4661 90.4572 82.6659 90.9441 79.8657 91.1876C77.796 91.4311 75.6046 91.5529 73.5349 91.5529C71.9522 91.5529 70.3695 91.5529 68.7868 91.5529C66.8389 91.5529 64.8909 91.3094 62.943 91.0659C60.7515 90.8224 58.6818 90.4572 56.6122 89.9702C53.9337 89.3614 51.2553 88.5092 48.8204 87.2918C48.6986 87.2918 48.6986 87.17 48.5769 87.17C48.4551 87.0483 48.2116 87.17 48.2116 87.2918V87.4135C48.2116 87.5353 48.2116 87.5352 48.2116 87.657C48.2116 91.4311 48.2116 95.2053 48.2116 98.9794C48.0899 99.2229 48.0899 99.3446 48.0899 99.4664ZM49.1856 82.5436C49.4291 82.7871 49.7944 82.9089 50.1596 83.1524C51.2553 83.7611 52.4728 84.3698 53.5685 84.7351C57.4644 86.0743 61.6038 86.8048 65.7431 87.0483C67.0823 87.17 68.2998 87.17 69.639 87.2918C73.0479 87.4135 76.3351 87.2918 79.744 86.9265C81.8137 86.683 83.8834 86.4395 85.8313 85.9525C88.0227 85.4656 90.2142 84.8568 92.2839 83.8829C93.2578 83.5176 94.2318 82.9089 94.9623 82.3002C95.571 81.8132 95.8145 81.0827 95.8145 80.3522C95.8145 78.4043 95.8145 76.4563 95.8145 74.5084C95.8145 72.5604 95.8145 70.6125 95.8145 68.6646C95.8145 68.5428 95.8145 68.4211 95.8145 68.4211C95.8145 68.2993 95.6928 68.1776 95.571 68.1776C95.4493 68.1776 95.4493 68.1776 95.4493 68.1776C95.3275 68.2993 95.084 68.2993 94.9623 68.4211C92.0404 69.882 88.7532 70.856 85.5878 71.343C84.0051 71.5865 82.4224 71.83 80.9614 72.0735C80.5962 72.0735 80.5962 72.1952 80.5962 72.5604C80.5962 73.1692 80.5962 73.7779 80.4745 74.3866C79.5005 79.013 75.1176 81.9349 70.4912 81.0827C68.1781 80.5957 66.2301 79.2565 65.0127 77.3085C64.1604 76.0911 63.7952 74.6301 63.6734 73.1692C63.6734 72.9257 63.6734 72.6822 63.6734 72.4387C63.6734 72.3169 63.5517 72.0735 63.4299 72.0735C63.4299 72.0735 63.43 72.0735 63.3082 72.0735C63.1865 72.0735 63.0647 72.0735 62.943 72.0735C60.7515 71.83 58.6818 71.4647 56.4904 70.9777C53.812 70.369 51.1336 69.395 48.6986 68.1776C48.6986 68.1776 48.5769 68.1776 48.4551 68.1776C48.3334 68.1776 48.2116 68.1776 48.0899 68.2993C48.0899 68.2993 48.0899 68.2993 48.0899 68.4211C48.0899 68.5428 48.0899 68.6646 48.0899 68.7863C48.0899 71.4647 48.0899 74.1431 48.0899 76.8216C48.0899 78.039 48.0899 79.2565 48.0899 80.3522C48.0899 81.2044 48.4551 82.0567 49.1856 82.5436ZM68.4216 62.4555C69.0303 61.725 69.639 60.9945 70.2478 60.264C71.1 59.2901 72.4392 59.1683 73.4132 60.0206C73.5349 60.1423 73.5349 60.1423 73.6567 60.264C73.7784 60.3858 74.0219 60.6293 74.1436 60.751C75.7263 62.4555 77.0656 64.2817 78.283 66.3514C78.5265 66.7166 78.6483 67.0819 78.8918 67.4471C79.0135 67.6906 79.257 67.8123 79.6222 67.8123C79.744 67.8123 79.744 67.8123 79.8657 67.8123C80.4745 67.6906 81.2049 67.5688 81.8137 67.5688C83.5181 67.3253 85.3443 67.0818 87.0488 66.5949C89.2402 66.1079 91.3099 65.3774 93.3796 64.4034C93.9883 64.0382 94.597 63.673 95.2058 63.186C95.6928 62.699 96.058 62.0902 96.058 61.3598C96.058 59.4118 96.058 57.4639 96.058 55.5159V49.6721C96.058 49.5504 96.058 49.5504 96.058 49.4286C96.058 49.0634 95.9362 49.0634 95.571 49.1851C95.2058 49.3069 94.9623 49.4286 94.597 49.5504C93.3796 50.0374 92.1621 50.6461 90.8229 51.0113C86.8053 52.2288 82.6659 52.9593 78.5265 53.2028C77.309 53.3245 75.9698 53.3245 74.7524 53.4463C70.9782 53.568 67.2041 53.4462 63.4299 53.081C61.1168 52.8375 58.8036 52.4723 56.6122 51.9853C53.9337 51.3766 51.3771 50.5243 48.9421 49.3069C48.8204 49.3069 48.6986 49.1851 48.5769 49.1851C48.4551 49.0634 48.2116 49.1851 48.2116 49.3069C48.2116 49.4286 48.2116 49.4286 48.2116 49.5504C48.2116 49.6721 48.2116 49.7939 48.2116 49.9156C48.2116 52.7158 48.2116 55.5159 48.2116 58.3161C48.2116 59.4118 48.2116 60.5075 48.2116 61.4815C48.2116 62.0902 48.4551 62.8207 48.9421 63.186C49.1856 63.4295 49.5509 63.6729 49.9161 63.9164C50.7683 64.5252 51.7423 65.0122 52.7163 65.3774C56.4904 66.7166 60.508 67.6906 64.5257 67.9341C64.8909 67.9341 65.1344 67.8123 65.2561 67.4471C66.1084 65.4991 67.2041 63.9164 68.4216 62.4555ZM68.1781 73.6562C68.665 75.8476 70.8565 77.1868 73.0479 76.6998C74.8741 76.3346 76.0916 74.6301 76.2133 72.8039C76.2133 72.5604 76.2133 72.4387 76.0916 72.1952C75.8481 71.0995 75.4828 70.1255 74.9959 69.1515C74.2654 67.8123 73.4132 66.5949 72.4392 65.3774C72.3174 65.2557 72.1957 65.1339 72.0739 65.2557C71.9522 65.2557 71.9522 65.3774 71.9522 65.3774C71.1 66.4731 70.2478 67.5688 69.639 68.7863C69.152 69.5168 68.7868 70.369 68.5433 71.2212C68.0563 72.0735 67.9346 72.9257 68.1781 73.6562ZM95.6928 41.8803C95.571 41.6369 95.3275 41.5151 95.2058 41.2716C94.597 40.7846 93.9883 40.2976 93.2578 39.9324C91.9186 39.2019 90.4577 38.7149 88.9967 38.2279C87.0488 37.6192 85.1008 37.254 83.0311 36.8887C81.4484 36.6452 79.8657 36.4018 78.1613 36.28C77.0655 36.1583 75.8481 36.1583 74.7524 36.0365C73.7784 36.0365 72.8044 36.0365 72.0739 35.9148C70.613 36.1583 69.3955 36.1583 68.1781 36.28C66.4736 36.4018 64.8909 36.5235 63.1865 36.6452C60.995 36.8887 58.8036 37.254 56.6122 37.8627C54.9077 38.228 53.325 38.8367 51.7423 39.4454C50.5248 39.9324 49.4291 40.7846 48.4551 41.6369C47.9682 42.0021 47.9682 42.7326 48.3334 43.0978C48.5769 43.3413 48.6986 43.5848 48.9421 43.8283C49.7944 44.437 50.6466 45.0457 51.6205 45.411C52.9598 46.0197 54.4207 46.5067 55.7599 46.8719C58.8036 47.7242 61.969 48.2112 65.0127 48.4546C66.9606 48.5764 68.9085 48.6981 70.9782 48.6981C72.5609 48.6981 74.2654 48.6981 75.8481 48.5764C77.4308 48.4547 79.0135 48.3329 80.5962 48.2112C82.7876 47.9677 84.8573 47.6024 86.927 47.1154C88.6315 46.7502 90.2142 46.1415 91.7969 45.5327C93.0143 45.0458 94.1101 44.3153 95.084 43.463C95.2058 43.3413 95.3275 43.2196 95.4493 42.9761C96.058 42.8543 96.058 42.2456 95.6928 41.8803ZM66.5954 44.0718C65.9866 44.3153 65.4996 44.5588 64.8909 44.6805C63.3082 44.924 61.7255 44.924 60.1428 44.5588C59.6558 44.437 59.2906 44.3153 58.8036 43.95C57.9514 43.463 57.7079 42.3673 58.3166 41.5151C58.3166 41.5151 58.3166 41.5151 58.3166 41.3934C58.4383 41.1499 58.6818 40.9064 58.9253 40.7846C59.5341 40.4194 60.2645 40.2976 60.8733 40.1759C61.482 40.1759 62.0907 40.0541 62.6995 40.0541C63.43 40.0541 64.1604 40.0541 64.8909 40.1759C65.3779 40.2976 65.9866 40.4194 66.3519 40.6629C67.0823 41.0281 67.5693 41.8803 67.3258 42.7326C67.3258 43.463 67.0823 43.8283 66.5954 44.0718Z" fill="#FF161F"/>
</svg>
