<svg width="145" height="145" viewBox="0 0 145 145" fill="none" xmlns="http://www.w3.org/2000/svg">
<path fill-rule="evenodd" clip-rule="evenodd" d="M115.903 105.311C115.903 109.937 112.129 113.59 107.624 113.59H81.5704C80.5964 113.59 79.8659 112.859 79.8659 111.885C79.8659 110.911 80.5964 110.181 81.5704 110.181H90.9448C88.7534 107.259 88.7534 103.119 90.9448 100.197H55.6384C57.8298 103.119 57.8298 107.259 55.6384 110.181H65.0128C65.9868 110.181 66.7173 110.911 66.7173 111.885C66.7173 112.859 65.9868 113.59 65.0128 113.59H38.9591C34.3327 113.59 30.6803 109.937 30.6803 105.311C30.6803 101.05 33.9675 97.3972 38.2286 97.032C37.9851 95.571 37.4981 94.2318 36.8894 92.8926C36.4024 91.9186 35.6719 91.4316 35.6719 89.4837C35.6719 84.0051 40.1766 79.5005 45.6552 79.5005C51.1337 79.5005 55.6384 84.0051 55.6384 89.4837C55.6384 91.4316 54.9079 91.7969 54.4209 92.8926C53.8122 94.2318 53.3252 95.571 53.0817 97.032H65.8651C65.6216 95.571 65.1346 94.2318 64.5259 92.8926C64.0389 91.9186 63.3084 91.4316 63.3084 89.4837C63.3084 84.0051 67.813 79.5005 73.2916 79.5005C78.7702 79.5005 83.2748 84.0051 83.2748 89.4837C83.2748 91.4316 82.5443 91.7969 82.0573 92.8926C81.4486 94.2318 80.9616 95.571 80.7181 97.032H93.5015C93.258 95.571 92.771 94.2318 92.1623 92.8926C91.6753 91.9186 90.9448 91.4316 90.9448 89.4837C90.9448 85.5878 93.1363 82.0572 96.6669 80.4745C95.206 78.1613 95.9364 74.9959 98.2496 73.6567C100.563 72.1957 103.728 72.9262 105.067 75.2394C106.041 76.8221 106.041 78.8918 105.067 80.4745C108.598 82.1789 110.79 85.5878 110.79 89.4837C110.79 91.4316 110.059 91.7969 109.572 92.8926C108.963 94.2318 108.476 95.571 108.233 97.032C112.616 97.3972 115.903 101.05 115.903 105.311ZM33.9675 105.311C33.9675 108.111 36.1589 110.302 38.9591 110.302H42.2463C40.0548 107.38 40.0548 103.241 42.2463 100.319H38.9591C36.1589 100.319 33.9675 102.511 33.9675 105.311ZM43.342 97.032H43.9507V91.1882H39.5678C39.8113 91.5534 40.0548 92.0404 40.1766 92.5274C41.2723 96.3015 41.6375 96.9102 43.342 97.032ZM45.6552 82.9094C42.6115 82.9094 39.9331 84.9791 39.2026 87.901H52.1077C51.2555 84.9791 48.6988 82.9094 45.6552 82.9094ZM47.2379 91.1882V97.032H47.8466C49.551 96.9102 49.7945 96.3015 51.012 92.5274C51.1337 92.0404 51.3772 91.6751 51.6207 91.1882H47.2379ZM48.9423 100.319C46.1421 100.319 43.9507 102.511 43.9507 105.311C43.9507 108.111 46.1421 110.302 48.9423 110.302C51.7425 110.302 53.9339 108.111 53.9339 105.311C53.9339 102.511 51.7425 100.319 48.9423 100.319ZM74.8743 97.032H75.483C77.1875 96.9102 77.431 96.3015 78.6484 92.5274C78.7702 92.0404 79.0137 91.6751 79.2572 91.1882H74.8743V97.032ZM67.813 92.5274C69.0305 96.3015 69.274 96.9102 70.9784 97.032H71.5871V91.1882H67.2043C67.4478 91.5534 67.6913 92.0404 67.813 92.5274ZM73.2916 82.9094C70.2479 82.9094 67.5695 84.9791 66.839 87.901H79.7442C79.0137 84.9791 76.3353 82.9094 73.2916 82.9094ZM106.407 92.5274C106.528 92.0404 106.772 91.6751 107.015 91.1882H102.632V97.032H103.241C104.946 96.9102 105.189 96.3015 106.407 92.5274ZM97.6409 110.302C100.441 110.302 102.632 108.111 102.632 105.311C102.632 102.511 100.441 100.319 97.6409 100.319C94.8407 100.319 92.6493 102.511 92.6493 105.311C92.6493 108.111 94.8407 110.302 97.6409 110.302ZM99.2236 97.032V91.1882H94.8407C95.0842 91.5534 95.3277 92.0404 95.4495 92.5274C96.6669 96.3015 96.9104 96.9102 98.6149 97.032H99.2236ZM100.928 76.2133C99.9541 76.2133 99.2236 76.9438 99.2236 77.9178C99.2236 78.8918 99.9541 79.6222 100.928 79.6222C101.902 79.6222 102.632 78.8918 102.632 77.9178C102.632 76.9438 101.902 76.2133 100.928 76.2133ZM100.928 82.9094C97.8844 82.9094 95.206 84.9791 94.4755 87.901H107.381C106.65 84.9791 103.972 82.9094 100.928 82.9094ZM107.624 100.319H104.337C106.528 103.241 106.528 107.38 104.337 110.302H107.624C110.424 110.181 112.494 107.989 112.494 105.189C112.372 102.511 110.181 100.441 107.624 100.319ZM97.6409 103.606C98.6149 103.606 99.3453 104.337 99.3453 105.311C99.3453 106.285 98.6149 107.015 97.6409 107.015C96.6669 107.015 95.9364 106.285 95.9364 105.311C95.9364 104.459 96.6669 103.606 97.6409 103.606ZM48.9423 107.015C47.9683 107.015 47.2379 106.285 47.2379 105.311C47.2379 104.337 47.9683 103.606 48.9423 103.606C49.9163 103.606 50.6468 104.337 50.6468 105.311C50.6468 106.285 49.7945 107.015 48.9423 107.015ZM84.3705 65.2562L78.1615 72.074C77.6745 74.7524 74.996 76.5786 72.3176 76.0916C70.2479 75.7264 68.6652 74.0219 68.3 71.9522L62.2127 65.2562C61.4822 64.6474 61.4822 63.6735 62.0909 62.943C62.2127 62.8212 62.2127 62.8212 62.3344 62.6995L66.5955 59.0471C63.6736 57.0991 59.2908 54.1772 55.5166 51.6206C51.7425 52.351 47.9683 51.1336 45.1682 48.4552H32.9935C31.6543 48.4552 30.5586 47.3594 30.5586 46.0202V34.0891C30.5586 32.7499 31.6543 31.6541 32.8718 31.6541H45.0464C49.6728 27.1495 56.9776 27.2713 61.4822 31.7759C63.0649 33.3586 64.1606 35.3065 64.5259 37.498C69.3957 40.7851 75.2395 44.5593 77.6745 46.2637C77.7962 46.3855 77.7962 46.3855 77.918 46.5072L78.0397 46.629L78.1615 46.7507C78.1615 46.7507 78.2832 46.8724 78.405 46.8724L78.5267 46.9942C78.6484 47.1159 78.6484 47.1159 78.7702 47.2377L78.8919 47.3594C79.0137 47.4812 79.0137 47.4812 79.1354 47.6029C79.2572 47.7247 79.2572 47.7247 79.3789 47.8464C79.5007 47.9682 79.5007 47.9682 79.6224 48.0899C79.7442 48.2117 79.7442 48.2117 79.8659 48.3334C79.8659 48.3334 79.8659 48.3334 79.8659 48.4552C79.8659 48.5769 79.9876 48.5769 79.9876 48.6986C79.9876 48.6986 79.9877 48.8204 80.1094 48.8204C80.1094 48.9421 80.2311 48.9421 80.2311 49.0639C80.2311 49.1856 80.3529 49.1856 80.3529 49.1856C80.3529 49.1856 80.3529 49.3074 80.4746 49.3074C80.5964 49.3074 80.5964 49.4291 80.5964 49.5509V49.6726C80.5964 49.7944 80.7181 49.7944 80.7181 49.9161V50.0379C80.7181 50.1596 80.8399 50.2813 80.8399 50.2813C80.8399 50.4031 80.9616 50.5248 80.9616 50.6466C80.9616 50.7683 81.0834 50.8901 81.0834 51.0118C81.0834 51.1336 81.0834 51.2553 81.2051 51.3771V51.4988C81.2051 51.6206 81.2051 51.7423 81.2051 51.7423V51.864C81.2051 51.9858 81.2051 51.9858 81.2051 52.1075C81.2051 52.2293 81.2051 52.2293 81.2051 52.351C81.2051 52.4728 81.2051 52.4728 81.2051 52.4728C81.2051 52.5945 81.2051 52.7163 81.2051 52.838C81.2051 53.5685 81.0834 54.1772 80.9616 54.9077V55.0295C80.9616 55.1512 80.9616 55.1512 80.8399 55.273C80.7181 55.3947 80.8399 55.3947 80.7181 55.5164V55.6382C80.4746 56.2469 80.1094 56.8557 79.7442 57.4644C79.6224 57.5861 79.6224 57.5861 79.5007 57.7079L79.3789 57.8296L79.2572 57.9514L83.7618 61.8473C84.4923 62.3342 84.614 63.43 84.127 64.1604C84.4923 65.1344 84.4923 65.2562 84.3705 65.2562ZM73.2916 72.9262C74.2656 72.9262 74.996 72.1957 74.996 71.2217C74.996 70.2478 74.2656 69.5173 73.2916 69.5173C72.3176 69.5173 71.5871 70.2478 71.5871 71.2217C71.5871 72.1957 72.3176 72.9262 73.2916 72.9262ZM42.855 35.3065H33.9675V45.2897H42.855C41.2723 42.1243 41.2723 38.4719 42.855 35.3065ZM53.3252 31.8976C48.6988 31.8976 45.0464 35.6718 45.0464 40.1764C45.0464 44.681 48.8206 48.4552 53.3252 48.4552C57.8298 48.4552 61.6039 44.681 61.6039 40.1764C61.6039 35.6718 57.9515 31.8976 53.3252 31.8976ZM64.8911 42.0026C64.4041 45.4115 62.3344 48.4552 59.4125 50.2813L65.1346 54.0555C65.1346 53.9337 65.1346 53.812 65.1346 53.5685C65.1346 50.0379 67.326 46.8724 70.7349 45.7767L64.8911 42.0026ZM78.2832 53.5685C78.2832 53.4468 78.2832 53.4468 78.2832 53.325V53.2033V53.0815V52.9598C78.2832 52.9598 78.2832 52.9598 78.2832 52.838V52.7163C78.2832 52.5945 78.2832 52.5945 78.2832 52.4728C78.2832 52.351 78.2832 52.351 78.2832 52.2293C78.2832 52.1075 78.2832 52.1075 78.1615 51.9858C78.1615 51.8641 78.1615 51.8641 78.0397 51.7423C78.0397 51.7423 78.0397 51.6206 77.918 51.6206V51.4988C77.918 51.4988 77.918 51.3771 77.7962 51.3771V51.2553V51.1336C77.7962 51.1336 77.7962 51.0118 77.6745 51.0118V50.8901L77.5527 50.7683L77.431 50.6466L77.3092 50.5248L77.1875 50.4031L77.0657 50.2813C76.7005 49.9161 76.7005 49.9161 76.7005 49.9161H76.5788L76.457 49.7944L76.3353 49.6726L76.2135 49.5509L76.0918 49.4291C73.7786 47.8464 70.7349 48.4552 69.1522 50.7683C67.5695 53.0815 68.1782 56.1252 70.4914 57.7079C70.8567 57.9514 71.2219 58.1949 71.5871 58.3166H71.7089H71.8306H71.9524H72.0741C72.4394 58.4384 72.9264 58.4384 73.2916 58.4384C73.4133 58.4384 73.4133 58.4384 73.5351 58.4384H73.6568H73.7786H73.9003H74.0221H74.1438C74.2656 58.4384 74.2656 58.4384 74.3873 58.4384C74.5091 58.4384 74.5091 58.4384 74.6308 58.4384C74.7525 58.4384 74.7526 58.4384 74.8743 58.3166C74.8743 58.3166 74.996 58.3166 75.1178 58.1949C75.1178 58.1949 75.2395 58.1949 75.2395 58.0731H75.3613L75.483 57.9514H75.6048H75.7265C75.7265 57.9514 75.8483 57.9514 75.8483 57.8296H75.97L76.0918 57.7079L76.2135 57.5861L76.3353 57.4644L76.457 57.3426L76.5788 57.2209L76.7005 57.0991V56.9774L76.8222 56.8557L76.944 56.7339C76.944 56.7339 76.944 56.7339 77.0657 56.6122L77.1875 56.4904C77.431 56.1252 77.6745 55.7599 77.7962 55.3947C77.7962 55.3947 77.7962 55.3947 77.7962 55.273V55.1512V55.0295C77.7962 55.0295 77.7962 55.0295 77.7962 54.9077C78.1615 54.4207 78.2832 53.9337 78.2832 53.5685ZM77.0657 60.8733C76.8222 60.995 76.8222 60.995 76.7005 60.995H76.5788C76.457 60.995 76.457 61.1168 76.3353 61.1168H76.2135C76.0918 61.1168 75.97 61.2385 75.97 61.2385C75.8483 61.2385 75.7265 61.3603 75.6048 61.3603C75.483 61.3603 75.3613 61.3603 75.2395 61.482C75.1178 61.482 74.996 61.482 74.8743 61.6038H74.7526C74.6308 61.6038 74.5091 61.6038 74.5091 61.6038H74.3873C74.2656 61.6038 74.2656 61.6038 74.1438 61.6038C74.0221 61.6038 74.0221 61.6038 73.9003 61.6038C73.7786 61.6038 73.7786 61.6038 73.7786 61.6038C73.6568 61.6038 73.5351 61.6038 73.4133 61.6038H73.2916C72.5611 61.6038 71.9524 61.482 71.2219 61.3603H71.1002C70.9784 61.3603 70.9784 61.3603 70.8567 61.2385C70.7349 61.1168 70.7349 61.2385 70.6132 61.1168H70.4914C70.1262 60.995 69.8827 60.8733 69.5175 60.7515L65.7433 64.1604L69.3957 68.1781C71.1002 65.9866 74.2656 65.6214 76.3353 67.3258C76.7005 67.5693 76.944 67.9346 77.3092 68.2998L80.9616 64.2822L77.0657 60.8733ZM73.2916 55.273C72.3176 55.273 71.5871 54.5425 71.5871 53.5685C71.5871 52.5945 72.3176 51.864 73.2916 51.864C74.2656 51.864 74.996 52.5945 74.996 53.5685C74.8743 54.4207 74.1438 55.273 73.2916 55.273ZM53.3252 45.2897C50.525 45.2897 48.3336 43.0983 48.3336 40.2981C48.3336 37.498 50.525 35.3065 53.3252 35.3065C56.1253 35.3065 58.3168 37.498 58.3168 40.2981C58.3168 43.0983 56.1253 45.2897 53.3252 45.2897ZM53.3252 38.5937C52.3512 38.5937 51.6207 39.3242 51.6207 40.2981C51.6207 41.2721 52.3512 42.0026 53.3252 42.0026C54.2991 42.0026 55.0296 41.2721 55.0296 40.2981C55.0296 39.3242 54.2991 38.5937 53.3252 38.5937ZM73.2916 110.302C74.2656 110.302 74.996 111.033 74.996 112.007C74.996 112.981 74.2656 113.711 73.2916 113.711C72.3176 113.711 71.5871 112.981 71.5871 112.007C71.5871 111.033 72.3176 110.302 73.2916 110.302Z" fill="#FF161F"/>
</svg>
