<svg width="145" height="145" viewBox="0 0 145 145" fill="none" xmlns="http://www.w3.org/2000/svg">
<path fill-rule="evenodd" clip-rule="evenodd" d="M103.241 81.5703H41.6374C40.2982 81.5703 39.3242 80.4746 39.3242 79.2571V61.1169C39.3242 59.7777 40.4199 58.8037 41.6374 58.8037H103.119C104.459 58.8037 105.433 59.8995 105.433 61.1169V79.1354C105.554 80.4746 104.459 81.5703 103.241 81.5703ZM100.806 64.5258C100.806 63.9171 100.319 63.3084 99.5887 63.3084H45.168C44.5593 63.3084 43.9506 63.7953 43.9506 64.5258V75.6047C43.9506 76.2135 44.4376 76.8222 45.168 76.8222H99.5887C100.197 76.8222 100.806 76.3352 100.806 75.6047C100.806 75.7265 100.806 64.5258 100.806 64.5258ZM93.6231 72.9263C92.0404 72.9263 90.823 71.5871 90.823 70.1262C90.823 68.6652 92.1622 67.326 93.6231 67.326C95.2058 67.326 96.4233 68.6652 96.4233 70.1262C96.545 71.7089 95.2058 72.9263 93.6231 72.9263ZM62.3343 72.9263C60.7516 72.9263 59.5341 71.5871 59.5341 70.1262C59.5341 68.6652 60.8733 67.326 62.3343 67.326C63.917 67.326 65.1345 68.6652 65.1345 70.1262C65.2562 71.7089 63.917 72.9263 62.3343 72.9263ZM51.2554 72.9263C49.6727 72.9263 48.4552 71.5871 48.4552 70.1262C48.4552 68.6652 49.7944 67.326 51.2554 67.326C52.8381 67.326 54.0555 68.6652 54.0555 70.1262C54.0555 71.5871 52.8381 72.9263 51.2554 72.9263ZM103.241 54.7861H41.6374C40.2982 54.7861 39.3242 53.6904 39.3242 52.4729V34.3327C39.3242 32.9935 40.4199 32.0195 41.6374 32.0195H103.119C104.459 32.0195 105.433 33.1153 105.433 34.3327V52.4729C105.554 53.8121 104.459 54.7861 103.241 54.7861ZM100.806 37.8634C100.806 37.2546 100.319 36.6459 99.5887 36.6459H45.168C44.5593 36.6459 43.9506 37.1329 43.9506 37.8634V48.9423C43.9506 49.551 44.4376 50.1597 45.168 50.1597H99.5887C100.197 50.1597 100.806 49.6728 100.806 48.9423V37.8634ZM93.6231 46.2639C92.0404 46.2639 90.823 44.9247 90.823 43.4637C90.823 42.0027 92.1622 40.6635 93.6231 40.6635C95.2058 40.6635 96.4233 42.0027 96.4233 43.4637C96.545 45.0464 95.2058 46.2639 93.6231 46.2639ZM62.3343 46.2639C60.7516 46.2639 59.5341 44.9247 59.5341 43.4637C59.5341 42.0027 60.8733 40.6635 62.3343 40.6635C63.7953 40.6635 65.1345 42.0027 65.1345 43.4637C65.2562 45.0464 63.917 46.2639 62.3343 46.2639ZM51.2554 46.2639C49.6727 46.2639 48.4552 44.9247 48.4552 43.4637C48.4552 42.0027 49.7944 40.6635 51.2554 40.6635C52.7163 40.6635 54.0555 42.0027 54.0555 43.4637C54.0555 45.0464 52.8381 46.2639 51.2554 46.2639ZM41.6374 101.78H63.7953C64.6475 98.7366 67.0824 96.3016 70.1261 95.4494V87.9011C70.1261 86.5619 71.2218 85.588 72.4392 85.588C73.6567 85.588 74.7524 86.6837 74.7524 87.9011V95.4494C77.7961 96.3016 80.231 98.7366 81.0832 101.78H103.119C104.459 101.78 105.433 102.754 105.554 104.093C105.676 105.433 104.58 106.407 103.241 106.528H103.119H81.205C79.8658 111.276 74.9959 114.077 70.2478 112.859C67.2042 112.007 64.7692 109.572 63.917 106.528H41.6374C40.2982 106.528 39.3242 105.433 39.3242 104.215C39.3242 102.876 40.4199 101.78 41.6374 101.78ZM72.561 108.476C74.8742 108.476 76.8221 106.528 76.8221 104.215C76.8221 101.902 74.8742 99.954 72.561 99.954C70.2478 99.954 68.2999 101.902 68.2999 104.215C68.2999 106.528 70.1261 108.476 72.561 108.476Z" fill="#FF161F"/>
</svg>
