<svg width="145" height="145" viewBox="0 0 145 145" fill="none" xmlns="http://www.w3.org/2000/svg">
<path fill-rule="evenodd" clip-rule="evenodd" d="M104.701 99.3452C95.5704 101.78 86.5612 104.215 77.4302 106.65C75.8475 107.137 74.2648 107.502 72.6821 107.989H71.5864C71.3429 107.867 71.2212 107.867 70.9777 107.746C60.5075 104.946 50.159 102.145 39.6888 99.467C38.5931 99.3452 37.7409 98.6148 37.2539 97.7625V38.3503H39.9323C40.1758 38.472 40.2976 38.472 40.5411 38.5938C50.7678 41.2722 61.1162 44.0723 71.3429 46.7508C71.8299 46.8725 72.1951 46.8725 72.6821 46.7508C82.1783 44.3158 91.5528 41.7592 101.049 39.2025C102.145 38.959 103.119 38.5938 104.093 38.2285H106.771V97.3973C106.528 98.3713 105.675 99.1017 104.701 99.3452ZM41.6368 95.3276L69.882 102.876V98.6148L41.6368 91.0665V95.3276ZM69.2732 50.6467C61.3597 48.577 53.3244 46.3855 45.4109 44.3158C44.1935 43.9506 42.976 43.7071 41.6368 43.3419V86.6836L69.882 94.2319C69.882 93.9884 69.882 93.7449 69.882 93.6231C69.882 79.6223 69.882 65.4997 69.882 51.4989C70.0037 51.1336 69.7602 50.7684 69.2732 50.6467C69.395 50.6467 69.395 50.6467 69.2732 50.6467ZM102.51 43.3419L74.2648 50.8901V94.2319L102.51 86.6836V43.3419ZM102.51 91.1882C93.0138 93.6231 83.6393 96.1798 74.2648 98.6148V102.876L102.51 95.3276V91.1882ZM80.2304 60.1429C82.3001 59.5341 84.4915 58.9254 86.5612 58.3167C89.4831 57.4645 92.405 56.6122 95.4487 55.76C96.5444 55.3948 97.7619 56.0035 98.1271 57.221C98.1271 57.4645 98.2489 57.5862 98.2489 57.8297C98.2489 58.9254 97.5184 59.7776 96.4227 60.0211C93.2573 60.9951 90.0919 61.8473 86.8047 62.6996C84.9785 63.1865 83.2741 63.7953 81.4479 64.1605C80.9609 64.2823 80.4739 64.2823 79.9869 64.0388C79.1347 63.6735 78.6477 62.943 78.6477 61.9691C78.6477 61.2386 79.2564 60.3864 80.2304 60.1429ZM80.3521 68.7869C83.3958 67.9346 86.4395 67.0824 89.4831 66.2302C91.4311 65.6215 93.379 65.1345 95.327 64.5257C96.3009 64.2823 97.2749 64.6475 97.7619 65.4997C98.2489 66.3519 98.1271 67.3259 97.5184 68.0564C97.1532 68.4216 96.7879 68.6651 96.4227 68.7869C91.4311 70.2478 86.4395 71.7088 81.4479 73.048C80.3521 73.4132 79.1347 72.8045 78.6477 71.7088C78.5259 71.4653 78.5259 71.2218 78.5259 70.8566C78.6477 69.8826 79.3782 69.0304 80.3521 68.7869ZM80.2304 77.5526C82.5436 76.8221 84.735 76.2134 87.0482 75.6047C89.7266 74.8742 92.5268 74.022 95.2052 73.2915C96.3009 72.8045 97.5184 73.4132 98.0054 74.509C98.4924 75.6047 97.8836 76.8221 96.7879 77.3091C96.6662 77.3091 96.5444 77.4309 96.4227 77.4309C91.4311 78.8918 86.4395 80.231 81.4479 81.692C81.2044 81.8137 80.9609 81.8137 80.8391 81.8137C79.7434 81.8137 78.7694 81.0833 78.5259 79.9875C78.4042 78.8918 79.1347 77.9179 80.2304 77.5526ZM62.8207 81.692C59.5335 80.718 56.2463 79.8658 52.9592 78.8918C51.133 78.4048 49.4285 77.9179 47.6024 77.3091C46.5066 76.9439 45.7762 75.8482 46.1414 74.6307C46.3849 73.7785 46.9936 73.2915 47.8458 73.048C48.2111 72.9263 48.5763 73.048 48.8198 73.048C53.9332 74.509 58.9248 75.9699 64.0381 77.4309C65.1338 77.7961 65.8643 78.8918 65.4991 80.1093C65.1338 81.3268 63.9164 82.0572 62.8207 81.692ZM48.3328 64.404C48.4546 64.404 48.8198 64.5257 49.1851 64.6475C54.0549 65.9867 58.9248 67.4477 63.6729 68.7869C64.8903 69.0304 65.7426 70.1261 65.4991 71.3435C65.2556 72.4393 64.1599 73.2915 62.9424 73.048C62.8207 73.048 62.8207 73.048 62.6989 72.9263C58.803 71.8305 54.9071 70.7348 51.0113 69.6391C49.7938 69.2739 48.6981 69.0304 47.4806 68.6651C46.5066 68.2999 45.8979 67.3259 46.0196 66.2302C46.2631 65.1345 47.2371 64.404 48.3328 64.404ZM63.1859 64.404C63.0642 64.404 62.6989 64.2823 62.4554 64.2823C57.5856 62.943 52.7157 61.4821 47.8458 60.1429C46.6284 59.8994 45.7762 58.8037 46.0196 57.5862C46.2631 56.3687 47.3589 55.6383 48.4546 55.76C48.5763 55.76 48.6981 55.76 48.6981 55.8818C52.8374 56.9775 56.8551 58.1949 60.9945 59.4124C61.9684 59.6559 63.0641 60.0211 64.0381 60.2646C65.0121 60.6299 65.6208 61.6038 65.4991 62.5778C65.3773 63.6735 64.4034 64.404 63.1859 64.404Z" fill="#FF161F"/>
</svg>
