<svg width="145" height="145" viewBox="0 0 145 145" fill="none" xmlns="http://www.w3.org/2000/svg">
<path fill-rule="evenodd" clip-rule="evenodd" d="M61.3602 68.787H51.9857C51.9857 70.4915 51.9857 72.1959 51.9857 73.9004C51.9857 74.1439 51.9857 74.3873 51.9857 74.6308C51.7422 75.8483 50.5248 76.8223 49.3073 76.5788C48.2116 76.3353 47.3594 75.3613 47.3594 74.2656C47.3594 72.4394 47.3594 70.6132 47.3594 68.787H38.9589V69.274C38.9589 70.9784 38.9589 72.6829 38.9589 74.2656C38.9589 75.6048 37.8631 76.5788 36.5239 76.5788C35.55 76.5788 34.576 75.8483 34.3325 74.8743C34.2108 74.6308 34.2108 74.2656 34.2108 74.0221C34.2108 71.5872 34.2108 69.1523 34.2108 66.7173C34.089 65.4999 34.9412 64.2824 36.2804 64.0389C45.0462 61.7257 53.6902 59.2908 62.4559 56.9776C62.8212 56.9776 63.0647 56.6124 63.0647 56.2471C63.5516 52.5947 64.0386 49.0641 64.5256 45.4117C64.7691 43.7072 65.0126 42.0028 65.2561 40.2983C65.2561 40.1766 65.2561 40.1766 65.2561 40.0549H52.1075C52.1075 40.1766 52.1075 40.2983 52.1075 40.5418C52.1075 42.1245 52.1075 43.829 52.1075 45.4117C52.2292 46.7509 51.1335 47.8466 49.916 47.8466C48.5768 47.9684 47.4811 46.8727 47.4811 45.6552C47.4811 45.5334 47.4811 45.5334 47.4811 45.4117C47.4811 42.9768 47.4811 40.4201 47.4811 37.9852C47.4811 37.0112 47.9681 36.0372 48.9421 35.5502C54.0554 32.9936 59.1688 30.4369 64.2821 27.8802C64.6474 27.6367 65.1344 27.6367 65.4996 27.6367C70.6129 27.6367 75.848 27.6367 80.9614 27.6367C81.4484 27.6367 81.8136 27.7585 82.1789 27.8802C87.2922 30.4369 92.4056 32.9936 97.5189 35.5502C98.4929 35.9155 99.1016 36.8894 98.9799 37.8634C98.9799 40.4201 98.9799 42.9768 98.9799 45.5334C98.9799 46.8727 98.0059 47.8466 96.6667 47.8466C95.571 47.8466 94.597 47.1161 94.3535 46.1422C94.3535 45.8987 94.2318 45.6552 94.2318 45.4117C94.2318 43.829 94.2318 42.2463 94.2318 40.6636V40.1766H81.0831C81.2049 40.6636 81.2049 41.1506 81.3266 41.6376C81.8136 45.6552 82.4223 49.6728 82.9093 53.6905C83.0311 54.5427 83.1528 55.5167 83.2746 56.3689C83.2746 56.6124 83.5181 56.8559 83.7616 56.9776C92.5273 59.2908 101.171 61.7257 109.937 64.0389C111.276 64.1606 112.25 65.3781 112.128 66.7173C112.128 69.1523 112.128 71.7089 112.128 74.1439C112.128 75.4831 111.033 76.457 109.815 76.457C108.841 76.457 107.867 75.7266 107.624 74.7526C107.502 74.5091 107.502 74.1439 107.502 73.9004C107.502 72.1959 107.502 70.4915 107.502 68.6653H99.1016C99.1016 69.1523 99.1016 69.6392 99.1016 70.0045C99.1016 71.3437 99.1016 72.8046 99.1016 74.1439C99.1016 75.3613 98.1276 76.3353 96.9102 76.457C95.8145 76.5788 94.7187 75.8483 94.4752 74.7526C94.4752 74.5091 94.3535 74.2656 94.3535 73.9004C94.3535 72.1959 94.3535 70.4915 94.3535 68.6653H84.979C85.1008 69.3957 85.1008 70.1262 85.2225 70.735C85.7095 74.3873 86.1965 78.0397 86.6835 81.6921C87.1705 85.4663 87.6574 89.3622 88.2662 93.1363C88.7532 96.7887 89.2401 100.319 89.7271 103.972C90.2141 107.624 90.7011 111.155 91.1881 114.807C91.3098 115.294 91.3098 115.659 91.1881 116.146C91.0663 117.12 90.2141 117.851 89.2401 117.973C88.1444 118.094 87.1705 117.486 86.8052 116.512C86.6835 116.268 86.5617 116.146 86.3182 116.025C82.0571 113.711 77.9177 111.398 73.6566 109.085C73.4131 108.963 73.1696 108.963 72.9261 109.085C68.665 111.398 64.5256 113.711 60.2645 116.025C60.021 116.146 59.8993 116.268 59.7775 116.512C59.2905 117.607 58.1948 118.094 57.0991 117.973C56.0034 117.729 55.1511 116.755 55.2729 115.538C55.3946 114.32 55.5164 113.103 55.7599 111.885C56.1251 108.842 56.6121 105.92 56.9773 102.876C57.4643 99.7106 57.8296 96.4235 58.3166 93.258C58.6818 90.0926 59.1688 86.9272 59.534 83.6401C60.021 80.4747 60.3862 77.3093 60.8732 74.0221C61.1167 72.3177 61.3602 70.6132 61.6037 68.9088C61.3602 69.0305 61.3602 68.9088 61.3602 68.787ZM83.1528 100.076C83.0311 99.9541 83.0311 99.9541 83.0311 99.9541C79.8657 97.8844 76.7003 95.693 73.5349 93.6233C73.4131 93.5015 73.1696 93.5015 73.0479 93.6233C69.8825 95.693 66.8388 97.7627 63.6734 99.8324C63.5516 99.9541 63.5516 99.9541 63.4299 100.076C63.5516 100.198 63.5516 100.198 63.6734 100.198C66.8388 101.902 70.0042 103.606 73.1696 105.311C73.2914 105.433 73.5349 105.433 73.7783 105.311C76.9438 103.606 79.9874 101.902 83.1528 100.198C82.9093 100.198 83.0311 100.198 83.1528 100.076ZM80.9614 84.4923L73.1696 77.7962L65.3778 84.4923C65.4996 84.6141 65.4996 84.614 65.4996 84.614C67.9345 86.3185 70.4912 87.9012 72.9261 89.6057C73.0479 89.7274 73.2914 89.7274 73.4131 89.6057C74.3871 88.8752 75.4828 88.2664 76.4568 87.536L80.9614 84.4923ZM59.8993 35.4285L86.5617 35.5502C86.44 35.4285 86.3182 35.4285 86.3182 35.4285C84.492 34.4545 82.5441 33.6023 80.7179 32.6283C80.4744 32.5066 80.3527 32.5066 80.1092 32.5066C75.4828 32.5066 70.8564 32.5066 66.2301 32.5066C65.9866 32.5066 65.7431 32.5066 65.6213 32.6283C63.9169 33.4805 62.0907 34.3328 60.3862 35.3067C60.1427 35.3067 60.021 35.4285 59.8993 35.4285ZM85.953 112.494C85.466 109.207 85.1008 106.041 84.6138 102.754L76.335 107.259L85.953 112.494ZM61.6037 102.876C61.1167 106.163 60.7515 109.329 60.2645 112.616L69.8825 107.381L61.6037 102.876ZM63.6734 87.1707L62.3342 96.7887C65.0126 94.9625 67.5693 93.258 70.2477 91.5536L63.6734 87.1707ZM83.8833 96.7887C83.3963 93.5015 83.0311 90.3361 82.5441 87.1707L75.9698 91.5536L83.8833 96.7887ZM67.4475 68.787C69.3955 70.4915 71.2217 72.0742 73.1696 73.6569L78.8917 68.787H67.4475ZM65.7431 71.4654C65.2561 74.6308 64.8909 77.7962 64.5256 80.9617L70.7347 75.6048L65.7431 71.4654ZM81.8136 81.0834C81.3266 77.7962 80.9614 74.7526 80.5961 71.5872L75.6045 75.8483C77.6742 77.5528 79.6222 79.2572 81.8136 81.0834ZM70.0042 53.447C70.7347 54.4209 71.5869 55.2732 72.3174 56.1254L72.4391 56.2471C72.9261 56.2471 73.4131 56.2471 73.9001 56.2471C74.1436 56.1254 74.2653 56.0036 74.3871 55.7601C74.9958 55.0297 75.7263 54.1774 76.335 53.447L73.1696 49.4293L70.0042 53.447ZM73.1696 44.4377C74.2653 43.0985 75.2393 41.8811 76.2133 40.6636C76.2133 40.5418 76.335 40.4201 76.335 40.2983C76.2133 40.2983 76.0915 40.1766 75.9698 40.1766C74.0218 40.1766 72.1956 40.1766 70.2477 40.1766C70.126 40.1766 70.126 40.1766 69.8825 40.1766C69.8825 40.2983 70.0042 40.4201 70.0042 40.6636C70.126 40.9071 70.3695 41.1506 70.4912 41.3941L73.1696 44.4377ZM84.2485 64.0389H91.7968L84.005 61.8475C84.005 62.6997 84.1268 63.3084 84.2485 64.0389ZM62.3342 61.8475L54.4207 64.0389H62.0907C62.2124 63.4302 62.2124 62.6997 62.3342 61.8475ZM68.665 49.9163C69.5172 48.9423 70.3695 47.9684 71.0999 46.9944L69.3955 44.803C69.152 46.6292 68.9085 48.2119 68.665 49.9163ZM66.8388 64.0389C67.204 64.1606 67.5693 64.0389 67.8128 63.7954C68.4215 62.9432 69.152 62.091 69.8825 61.3605C70.0042 61.2387 70.0042 61.2387 70.126 61.117H67.3258L66.8388 64.0389ZM77.5525 49.9163C77.4307 48.2119 77.1872 46.5074 76.9438 44.803C76.335 45.5334 75.848 46.2639 75.2393 46.8727C75.2393 46.9944 75.2393 47.1161 75.2393 47.1161C75.9698 48.0901 76.822 48.9423 77.5525 49.9163ZM79.1352 60.9952H76.335C77.1872 61.9692 77.9177 62.8214 78.6482 63.7954C78.8917 64.0389 79.2569 64.1606 79.6222 64.0389C79.3787 63.0649 79.2569 62.091 79.1352 60.9952ZM73.1696 62.091C72.5609 62.6997 72.0739 63.3084 71.5869 64.0389H74.8741L73.1696 62.091Z" fill="#FF161F"/>
</svg>
