<svg width="40" height="40" viewBox="0 0 40 40" fill="none" xmlns="http://www.w3.org/2000/svg">
<path fill-rule="evenodd" clip-rule="evenodd" d="M20.1556 4.0089C20.3244 4.06231 20.4844 4.13353 20.6356 4.21365C20.9822 4.4362 21.1422 4.78337 21.1422 5.18396C21.1511 6.31451 21.1511 7.45396 21.1422 8.58451C21.16 9.11863 20.8044 9.59934 20.28 9.73287C19.7822 9.8753 19.2489 9.65275 19 9.19875C18.8933 9.0029 18.84 8.78926 18.84 8.56671C18.8222 7.44506 18.8311 6.32341 18.8311 5.20177C18.8311 4.55192 19.2667 4.10682 19.7822 4.02671C19.8 4.0178 19.8089 4.0089 19.8267 4L20.1556 4.0089ZM5 18.8396C5.05333 18.6793 5.11556 18.5191 5.19556 18.3678C5.41778 18.0117 5.76444 17.8515 6.18222 17.8515C7.32889 17.8426 8.46667 17.8426 9.61333 17.8515C10.2444 17.8515 10.7689 18.3589 10.7689 18.9998C10.7689 19.5339 10.4133 19.9968 9.88889 20.1215C9.75556 20.1482 9.63111 20.166 9.49778 20.166C8.42222 20.166 7.35556 20.1571 6.28889 20.1749C5.62222 20.1838 5.14222 19.8099 5.01778 19.2135C5.01778 19.2046 5.00889 19.1957 5 19.1868V18.8396ZM11.9244 18.9464C11.9422 14.5666 15.5156 10.9257 20.04 10.9257C24.4133 10.9257 28.0667 14.5666 28.0667 18.9553C28.0844 23.4152 24.4844 27.0561 20.0311 27.0739C15.5778 27.0917 11.9422 23.4864 11.9244 19.0265C11.9244 18.9998 11.9244 18.9731 11.9244 18.9464ZM25.7556 19.0265C25.7733 15.8663 23.2044 13.258 20.0667 13.2313C16.8844 13.1957 14.28 15.7417 14.2356 18.9286C14.2 22.1155 16.7422 24.7238 19.9244 24.7683C23.1067 24.8039 25.7111 22.2579 25.7556 19.071C25.7556 19.0532 25.7556 19.0443 25.7556 19.0265ZM32.1022 20.1571C31.5422 20.1571 30.9822 20.166 30.4222 20.1571C29.6756 20.1482 29.1689 19.5873 29.2311 18.8663C29.2756 18.2966 29.7733 17.8515 30.3956 17.8426C31.5422 17.8337 32.6889 17.8337 33.8444 17.8426C34.4756 17.8426 34.9911 18.35 35 18.9909C35 19.5161 34.6444 19.979 34.1378 20.1126C34.0133 20.1482 33.8889 20.1571 33.7644 20.1571C33.1956 20.166 32.6444 20.1571 32.1022 20.1571ZM18.8311 31.0798C18.8311 30.5279 18.8222 29.9848 18.8311 29.4329C18.84 28.5694 19.6044 28.0175 20.3956 28.3024C20.8489 28.4715 21.1511 28.9077 21.1422 29.3973C21.1511 30.5368 21.1511 31.6851 21.1422 32.8246C21.1511 33.4655 20.6444 33.9907 20.0044 33.9996C19.6578 34.0085 19.3378 33.8572 19.1067 33.599C18.9111 33.3765 18.8133 33.0827 18.8222 32.789C18.8311 32.2192 18.8311 31.6495 18.8311 31.0798ZM33.1244 25.8098C33.1244 26.7979 32.1911 27.3677 31.4267 26.9315C30.4133 26.3617 29.4089 25.7742 28.4044 25.1867C27.9689 24.9374 27.7467 24.4389 27.8622 23.9493C27.9689 23.4597 28.3867 23.0858 28.8844 23.0413C29.1156 23.0146 29.3467 23.068 29.5422 23.1837C30.5556 23.7624 31.5689 24.3499 32.5822 24.9374C32.8933 25.1155 33.1067 25.4448 33.1244 25.8098ZM28.0933 7.03557C28.0311 7.22251 27.9956 7.42726 27.8978 7.59639C27.3378 8.59341 26.76 9.59043 26.1822 10.5786C25.8711 11.1038 25.2844 11.3085 24.7511 11.086C24.2089 10.8634 23.8978 10.2937 24.0578 9.75067C24.1378 9.52812 24.2356 9.31447 24.3689 9.10973C24.8667 8.23734 25.3733 7.35604 25.88 6.48365C26.2622 5.8249 27.0622 5.66467 27.64 6.13647C27.9244 6.35902 28.0578 6.66169 28.0933 7.03557ZM26.8311 32.1391C26.4578 32.1302 26.12 31.9166 25.9422 31.5961C25.3467 30.5813 24.76 29.5664 24.1733 28.5427C23.8711 27.9819 24.0756 27.2875 24.6356 26.9849C25.1778 26.6911 25.8533 26.8781 26.1733 27.4033C26.6 28.1154 27.0089 28.8276 27.4178 29.5486C27.5867 29.8424 27.7644 30.1362 27.9333 30.4388C28.3422 31.2133 27.7822 32.1391 26.8311 32.1391ZM33.1244 12.2076C33.0978 12.5726 32.8933 12.902 32.5644 13.0711C31.5511 13.6586 30.5378 14.2462 29.5244 14.8248C28.9644 15.1275 28.2711 14.9227 27.9689 14.3619C27.6756 13.8189 27.8622 13.1423 28.3867 12.8218C29.0889 12.4035 29.8 12.0029 30.5022 11.5934C30.8044 11.4153 31.1067 11.2373 31.4089 11.0682C32.1822 10.6409 33.1244 11.2017 33.1244 12.2076ZM8.03111 27.0739C7.50667 27.0828 7.04444 26.7445 6.90222 26.2371C6.76 25.7119 6.99111 25.16 7.46222 24.9018C8.44 24.341 9.42667 23.7713 10.4044 23.2104C11.16 22.7742 12.0667 23.2193 12.1556 24.0917C12.2089 24.5724 11.9867 24.9552 11.5689 25.2045C11.0889 25.4893 10.6089 25.7564 10.1289 26.0413C9.62222 26.335 9.12444 26.6288 8.60889 26.9048C8.42222 26.9849 8.23556 27.065 8.04 27.1184C8.04 27.1006 8.04 27.0917 8.03111 27.0739ZM13.1778 32.1391C12.2 32.1302 11.64 31.2044 12.0578 30.4477C12.6267 29.424 13.2222 28.4092 13.8178 27.3944C14.1467 26.8513 14.8578 26.6733 15.4 27.0027C15.7556 27.2163 15.9689 27.6169 15.9511 28.0353C15.9333 28.2133 15.8889 28.3914 15.8 28.5516C15.24 29.5486 14.6711 30.5368 14.0933 31.5249C13.8711 31.9255 13.5244 32.1391 13.1778 32.1391ZM6.85778 12.1631C6.86667 11.2017 7.79111 10.6498 8.54667 11.0682C9.56889 11.6379 10.5822 12.2343 11.5956 12.8308C12.1378 13.1601 12.3156 13.8634 11.9956 14.4064C11.6667 14.9494 10.9644 15.1275 10.4222 14.807C9.43556 14.2373 8.44889 13.6764 7.47111 13.1067C7.07111 12.8753 6.86667 12.5281 6.85778 12.1631ZM11.9244 6.99996C11.9333 6.47475 12.2978 6.01184 12.8133 5.89612C13.3022 5.77149 13.8178 6.00294 14.0933 6.48365C14.5467 7.25812 14.9911 8.04149 15.4356 8.81596C15.5511 9.02071 15.6756 9.22545 15.7911 9.4391C16.1111 9.99102 15.9333 10.6943 15.3822 11.0147C14.8311 11.3352 14.1289 11.1572 13.8089 10.6053C13.8089 10.5964 13.8 10.5964 13.8 10.5875C13.2311 9.59934 12.6533 8.61122 12.0933 7.6231C11.9867 7.44506 11.9511 7.22251 11.88 7.02667C11.8889 7.00886 11.9067 6.99996 11.9244 6.99996Z" fill="white"/>
</svg>
