<svg width="40" height="40" viewBox="0 0 40 40" fill="none" xmlns="http://www.w3.org/2000/svg">
<path fill-rule="evenodd" clip-rule="evenodd" d="M25.2071 36.6939C18.3011 36.6939 12.7007 31.1057 12.7007 24.1875C12.7007 17.2816 18.2889 11.6812 25.2071 11.6812C26.1466 11.6812 27.0983 11.791 28.0134 11.9984C25.1705 14.6827 25.0485 19.1606 27.7328 22.0035C30.3683 24.7854 34.7363 24.9684 37.5914 22.4183C37.6768 23.004 37.7134 23.6018 37.7134 24.1875C37.7134 31.0935 32.113 36.6939 25.2071 36.6939ZM32.8329 26.0787C27.9158 26.0787 23.926 22.0889 23.926 17.1717C23.926 15.915 24.1944 14.6705 24.7068 13.5236C18.8136 13.792 14.2625 18.7945 14.5431 24.6878C14.8238 30.581 19.8141 35.1321 25.7073 34.8515C30.8685 34.6074 35.1268 30.703 35.7978 25.5663C34.8461 25.9079 33.8456 26.0787 32.8329 26.0787ZM15.141 11.0711L14.1649 7.65471L10.7485 6.67861L14.1649 5.7025L15.141 2.28613L16.1171 5.7025L19.5335 6.67861L16.1171 7.65471L15.141 11.0711ZM8.79632 16.4397L7.82021 19.856L6.8441 16.4397L3.42773 15.4636L6.8441 14.4875L7.82021 11.0711L8.79632 14.4875L12.2127 15.4636L8.79632 16.4397Z" fill="white"/>
</svg>
