<?xml version="1.0" encoding="utf-8"?>
<!-- Generator: Adobe Illustrator 26.0.1, SVG Export Plug-In . SVG Version: 6.00 Build 0)  -->
<svg version="1.1" id="Слой_1" xmlns="http://www.w3.org/2000/svg" xmlns:xlink="http://www.w3.org/1999/xlink" x="0px" y="0px"
	 viewBox="0 0 499.7 500" style="enable-background:new 0 0 499.7 500;" xml:space="preserve">
<style type="text/css">
	.st0{fill-rule:evenodd;clip-rule:evenodd;fill:#fff;}
</style>
<path id="Фигура_1172" class="st0" d="M432.1,248.9c-0.6,1.6-1.7,3-3.2,3.8c-18.5,12.8-36.9,25.7-55.4,38.5
	c-0.3,0.2-0.6,0.5-1,0.7c1.5,1.5,2.9,2.9,4.3,4.3c2,2,4.1,3.9,5.9,6.1c8.2,9.6,7,24-2.6,32.2c-5.9,5-14,6.7-21.4,4.5
	c-1.1,8.1-5,14.3-12.2,18.1c-7.2,3.8-14.5,3.5-21.8-0.3c-0.1,0.6-0.3,1.1-0.4,1.6c-3.3,12.2-15.8,19.4-28,16.1
	c-0.7-0.2-1.3-0.4-1.9-0.6c-0.4-0.3-0.9-0.2-1.3,0.1c-4.9,4.1-10.9,6.7-17.3,7.5c-5.7,0.8-11.6,0.4-17.1-1.3
	c-0.5-0.1-0.9-0.1-1.4,0.1c-7.1,2.7-14.8,3.8-22.4,3.2c-11.2-0.7-21.6-5.9-29-14.4c-0.9-1.3-2.6-2-4.1-1.7
	c-12.5,1.2-23.6-7.9-24.8-20.3c0-0.1,0-0.2,0-0.3c0-0.2-0.1-0.4-0.1-0.6c-7.2,1.6-13.8,0.4-19.6-4.1c-5.6-4.2-8.9-10.8-8.9-17.8
	c-11.6,1.1-20.3-3.2-25.1-14c-3.6-8.6-1.6-18.5,5.1-25c-0.2-0.2-0.4-0.3-0.6-0.5c-18.9-15.6-37.7-31.3-56.6-46.9
	c-0.3-0.3-0.7-0.5-1-0.8c-2.4-1.8-2.9-5.2-1.2-7.6c0-0.1,0.1-0.1,0.2-0.2c5.1-7.3,10.3-14.7,15.4-22c13-18.5,26-37,39.1-55.6
	c1.1-1.8,3.1-2.8,5.1-2.7c0.7,0.1,1.4,0.3,2.1,0.6c6.9,3.1,14.1,5.4,21.5,6.9c5.9,1.1,12,0.6,17.6-1.7c6.3-2.4,12.7-4.8,19-6.9
	c6.7-2.4,13.6-3.8,20.7-4.3c0.2,0,0.5-0.1,0.7-0.1h6.4c0.3,0.1,0.6,0.1,0.9,0.2c3.5,0.5,7.1,0.9,10.6,1.6c8.8,2,17.2,5.7,24.6,10.9
	c0.4,0.4,0.9,0.4,1.4,0.2c8.3-4.8,17.4-7.9,27-9.1c7-0.9,14-0.7,20.9,0.7c7.5,1.7,14.7,4.2,21.7,7.6c5.4,2.5,10.8,5.1,16.3,7.5
	c3.5,1.6,7.4,2.4,11.3,2.2c8.5-0.5,16.9-2.2,24.8-5.1c3.3-1.2,5.7-0.3,7.5,2.7c12.1,20.7,24.2,41.4,36.2,62.1
	c4.1,7.1,8.2,14.2,12.3,21.3L432.1,248.9L432.1,248.9z M130,161.4c-16.4,23.3-32.9,46.8-49.4,70.3l55.4,45.9
	c6.1-7.2,13.7-10.6,23.1-8.7c9.3,1.9,15.1,7.9,17.8,17c6.9-7.2,15.1-10,24.7-6.8c9.6,3.1,14.6,10.3,15.8,20.2
	c0.3-0.1,0.5-0.1,0.7-0.1c3.2-0.7,6.6-0.8,9.8,0c12.2,2.7,20,14.8,17.4,27c-0.2,0.5,0,1.1,0.5,1.4c1.8,1.5,3.6,3.1,5.3,4.8
	c6.4,6.7,7.4,13.6,3.2,21.9c-0.9,1.9-2,3.7-2.9,5.6c-0.8,1.3-0.5,3,0.7,4c2.4,2.5,5.4,4.4,8.6,5.7c5.6,2.1,11.8,2.3,17.5,0.6
	c2.3-0.6,4.5-1.7,6.5-3.1c-0.4-0.2-0.7-0.5-1-0.7c-5.6-5.6-11.2-11.2-16.8-16.8c-0.3-0.3-0.6-0.6-0.9-0.9c-1.9-2.4-1.5-5.8,0.9-7.7
	c2.3-1.8,5.5-1.5,7.5,0.6c6.5,6.5,12.9,13,19.4,19.5c4.6,4.7,12.2,4.8,16.9,0.2c4.7-4.6,4.8-12.2,0.2-16.9c-0.1-0.1-0.1-0.1-0.2-0.2
	c-10-10-20-20.1-30.1-30.1c-0.8-0.8-1.5-1.5-2.2-2.3c-2-2.2-1.8-5.7,0.4-7.7c2.2-2,5.7-1.8,7.7,0.4c0,0,0,0,0.1,0.1
	c13.5,13.5,26.9,27,40.4,40.5c0.4,0.4,0.8,0.8,1.3,1.2c3.9,3.1,8.2,3.8,12.7,1.7c4.3-1.8,7.1-6.1,7-10.8c0-3.4-1.4-6.6-3.9-8.9
	c-16.1-16.1-32.2-32.2-48.2-48.3c-0.4-0.4-0.8-0.8-1.2-1.3c-1.7-2.4-1.2-5.8,1.3-7.6c2.3-1.6,5.4-1.3,7.3,0.9
	c9.9,9.9,19.8,19.8,29.8,29.8c8,8,16,16,23.9,24c4.6,4.7,12.2,4.8,16.9,0.2c4.7-4.6,4.8-12.2,0.2-16.9c-0.1-0.1-0.3-0.3-0.4-0.4
	c-20.4-20.4-40.8-40.8-61.2-61.2c-11.2-11.2-22.4-22.4-33.6-33.6c-0.3-0.5-1-0.6-1.5-0.4c-1,0.5-2.1,0.9-3.1,1.4
	c-3.6,2.1-6.9,4.9-9.6,8.1c-5.1,5.8-10.1,11.8-15.1,17.7c-4.2,5-8.6,9.8-14,13.7c-5.9,4.3-12.3,6.8-19.7,5.7
	c-3.3-0.3-6.4-1.5-9.1-3.4c-4.2-3.1-5.8-7.6-6.2-12.6c-0.4-6.5,1.1-12.7,3-18.8c3.6-11.2,8.9-21.6,14.7-31.7
	c6.4-11.3,14.8-21.4,24.9-29.7c0.2-0.1,0.4-0.2,0.7-0.4c-3.8-2.4-7.9-4.3-12.1-5.8c-6.8-2.4-14.1-3.5-21.3-3.2
	c-6.5,0.4-12.9,1.8-19,4.1c-6,2.1-11.9,4.4-17.9,6.6c-5.4,1.9-10.9,3.4-16.7,3c-4.8-0.3-9.5-1.2-14-2.5
	C138.6,164.3,134.4,162.8,130,161.4z M364.7,284.1c18.3-12.8,36.6-25.5,54.8-38.1c-14.5-24.9-29-49.6-43.4-74.3
	c-0.2,0.1-0.5,0.1-0.7,0.2c-6.3,2-12.7,3.3-19.2,3.9c-3.8,0.5-7.6,0.5-11.4,0c-4.9-1-9.7-2.6-14.2-4.9c-5.7-2.6-11.3-5.4-17-7.9
	c-6.3-2.9-13.2-4.7-20.1-5.3c-10.4-0.7-20.8,1.3-30.2,6c-10.4,5.1-18.8,12.6-26.1,21.5c-6.4,7.9-11.4,16.6-15.9,25.6
	c-3.9,7.5-6.9,15.3-9,23.5c-0.9,3.1-1.1,6.4-0.8,9.7c0.3,2.5,1.4,4.1,4,4.8c3,0.8,6.3,0.6,9.1-0.8c3.9-1.8,7.4-4.4,10.2-7.6
	c4.6-5,9-10.2,13.5-15.4c4.5-5.3,8.9-10.6,14.2-15.1c4-3.6,8.9-6.2,14.1-7.6c3.2-0.9,6.6,0.1,8.8,2.6c26.2,26.3,52.4,52.6,78.6,78.8
	C364.2,283.7,364.4,283.9,364.7,284.1z M206.4,300.3c-0.2-6.6-5.8-11.8-12.4-11.6c-2.9,0.1-5.7,1.3-7.8,3.3
	c-8,7.9-15.9,15.8-23.7,23.8c-4.6,4.8-4.4,12.3,0.4,16.9c4.5,4.3,11.4,4.4,16.1,0.4c1.1-0.9,2.1-2,3.1-3.1
	c6.9-6.9,13.7-13.7,20.6-20.6C205.1,307,206.4,303.7,206.4,300.3z M234.9,322.9c0-6.3-2.9-10.6-7.4-12.5c-4.4-1.9-9.5-0.9-12.9,2.5
	c-7.9,7.8-15.7,15.7-23.6,23.6c-4.6,4.7-4.6,12.3,0.1,16.9c4.6,4.6,12,4.6,16.7,0.1c7.9-7.8,15.8-15.7,23.6-23.6
	C233.4,327.9,234.6,325.5,234.9,322.9L234.9,322.9z M132.3,300.1c0,6.3,2.8,10.6,7.2,12.5c4.4,1.9,9.6,1,13.1-2.4
	c3.6-3.5,7.1-7.1,10.6-10.6c4.6-4.7,4.5-12.3-0.2-16.9c-4.6-4.5-12-4.5-16.6-0.1c-3.6,3.5-7.2,7.1-10.7,10.7
	C133.7,295.1,132.5,297.5,132.3,300.1L132.3,300.1z M214.3,362.3c3.7,4.2,8.5,7.3,13.8,9.1c5.5,1.7,11.3,2,17,1
	c-0.7-0.8-1.4-1.5-2-2.3c-2.6-3-3.7-7-3-11c0.5-2.5,1.5-4.8,2.8-7c0.8-1.5,1.7-3,2.4-4.6c0.8-1.7,0.7-3.6-0.2-5.2
	c-1.3-2.2-3.1-4.2-5.3-5.7C231.3,345.2,222.8,353.7,214.3,362.3L214.3,362.3z"/>
</svg>
