<?xml version="1.0" encoding="utf-8"?>
<!-- Generator: Adobe Illustrator 26.0.1, SVG Export Plug-In . SVG Version: 6.00 Build 0)  -->
<svg version="1.1" id="Слой_1" xmlns="http://www.w3.org/2000/svg" xmlns:xlink="http://www.w3.org/1999/xlink" x="0px" y="0px"
	 viewBox="0 0 500.2 500.2" style="enable-background:new 0 0 500.2 500.2;" xml:space="preserve">
<style type="text/css">
	.st0{fill-rule:evenodd;clip-rule:evenodd;fill:#fff;}
</style>
<path id="Фигура_1175" class="st0" d="M431.7,219.9c-19.8,19.9-39.7,39.7-59.6,59.5c-2.2,2-3.4,4.9-3.3,7.8
	c0.1,17.8,0.1,35.6,0.1,53.4c-0.1,11.7-5.6,19.6-15.5,22.1c-2,0.4-4,0.7-6.1,0.6c-61.2,0-122.4,0-183.7,0
	c-13.2,0-21.7-8.1-21.8-21.4c-0.1-61.3-0.1-122.6,0-183.9c0-13.2,8.6-21.3,21.9-21.3c60.9,0,121.8,0,182.7,0
	c14.1,0,22.2,8.1,22.4,22.4c0.1,12.8,0,25.5,0,38.3v5.1c0.6,0.3,1.1,0.6,1.7,1c7.4-7.7,14.8-15.4,22.3-23c4.9-4.9,7.3-4.8,12.3,0.1
	c9,8.9,17.9,17.8,26.8,26.8C436.8,212.2,436.8,214.8,431.7,219.9z M355.9,159.8c0-7.6-2.6-10.1-10.2-10.1c-60.2,0-120.5,0-180.7,0
	c-8.1,0-10.1,2-10.1,10c0,18.8,0,37.5,0,56.2c0,41.6,0,83.2,0,124.8c0,7.2,2.1,9.8,8.4,9.8c61.3,0,122.7,0,184,0
	c5.4,0,8.4-2.6,8.5-7.9c0.2-15.1,0.1-30.2,0.1-45.3c-0.4-0.2-0.7-0.4-1.1-0.6c-5.4,5.4-10.6,11.1-16.4,16.2
	c-2.2,1.9-5.4,3.7-8.2,3.8c-8.8,0.5-17.7,0.3-26.5,0.1c-5.7-0.1-8.3-2.9-8.3-8.6c-0.1-8.2,0.2-16.4-0.1-24.6
	c-0.2-4,1.4-7.8,4.4-10.4c17.8-17.6,35.5-35.3,53.1-53.2c1.7-1.9,2.8-4.3,2.9-6.9C356.1,195.4,356,177.6,355.9,159.8L355.9,159.8z
	 M310.2,281.3c-0.9,1-1.5,2.3-1.6,3.7c-0.2,6-0.1,11.9-0.1,18.8c5.9,0,11.3,0.3,16.5-0.1c2.7-0.2,5.3-1.3,7.3-3.1
	c21-20.6,41.9-41.5,62.7-62.2c1-1,1.8-2,2.5-2.8c-7.1-7.1-14-13.9-20.7-20.6C354.9,236.8,332.5,259,310.2,281.3L310.2,281.3z
	 M399.7,194c-4.1,3.7-8.4,7.4-12.5,11.1c6.9,6.8,13.6,13.6,20.5,20.4c3.8-3.9,7.7-7.9,11.4-11.7L399.7,194z M324.1,235.8
	c-1.8,0.4-3.7,0.6-5.6,0.6c-42.4,0-84.8,0-127.2,0c-1.1,0-2.2,0-3.3-0.1c-3.7-0.5-6.2-2.3-6.2-6.4s2.6-5.9,6.3-6.3
	c1.3-0.1,2.5-0.1,3.8-0.1h63.4c21.1,0,42.2,0,63.4,0c1.7,0,3.9-0.5,5.1,0.3c2,1.4,4.1,3.4,4.7,5.6
	C329.2,232.5,327.4,235.1,324.1,235.8L324.1,235.8z M323.3,195.9c-1.4,0.8-3.7,0.4-5.6,0.4c-21,0-42,0-62.9,0c-20.7,0-41.3,0-62,0
	c-1.9,0-4.1,0.5-5.6-0.3c-2.1-1.2-4.8-3.1-5.1-5.1c-0.3-2,1.6-4.8,3.3-6.4c1.1-1.1,3.5-1.1,5.4-1.1c42.9-0.1,85.8-0.1,128.7,0
	c1.7,0,4-0.2,5,0.8c1.8,1.8,3.8,4.5,3.7,6.7C328.1,192.6,325.3,194.7,323.3,195.9L323.3,195.9z M275.4,276.4c-6.5,0-12.9,0-19.4,0
	c-8,0-16.1,0-24.1,0c-14.2,0-28.4,0.2-42.6-0.2c-2.5-0.1-5.5-2.1-7.1-4.1c-0.9-1.2,0-4.9,1.3-6.2c1.6-1.5,4.5-2.2,6.8-2.2
	c10.4-0.2,20.8-0.1,31.2-0.1h50.1c1.4,0,2.8,0,4.2,0.1c4,0.5,6.4,2.7,6.1,6.9C281.8,274.6,279.3,276.4,275.4,276.4L275.4,276.4z
	 M187.2,304c1.4-0.2,2.8-0.3,4.2-0.2c26.8,0,53.6,0,80.4,0c0.3,0,0.6,0,0.9,0c6.1,0.1,9.2,2.3,9.1,6.5s-3.3,6.5-9.3,6.6
	c-13.7,0-27.4,0-41.2,0c-13.2,0-26.5,0-39.7,0c-1.9,0-4.3,0.2-5.5-0.8c-1.9-1.7-3.9-4.1-4.2-6.5C181.4,306.4,184.1,304.5,187.2,304
	L187.2,304z"/>
</svg>
