<?xml version="1.0" encoding="utf-8"?>
<!-- Generator: Adobe Illustrator 26.0.1, SVG Export Plug-In . SVG Version: 6.00 Build 0)  -->
<svg version="1.1" id="Слой_1" xmlns="http://www.w3.org/2000/svg" xmlns:xlink="http://www.w3.org/1999/xlink" x="0px" y="0px"
	 viewBox="0 0 500 500" style="enable-background:new 0 0 500 500;" xml:space="preserve">
<style type="text/css">
	.st0{fill-rule:evenodd;clip-rule:evenodd;fill:#fff;}
</style>
<path id="Фигура_1174" class="st0" d="M363.7,353.9c-0.6,5.7-3.1,8.4-8.8,9.5c-0.7,0.1-1.4,0.2-2.2,0.4H146.6
	c-0.5-0.1-0.9-0.2-1.4-0.2c-5.7-0.6-8.5-3.1-9.4-8.8c-0.3-1.8-0.4-3.7-0.4-5.6c0-56.8,0-113.6,0-170.4c0-1.7,0.1-3.5,0.3-5.2
	c0.6-5.5,3.1-8.3,8.5-9.2c2-0.3,4.1-0.4,6.2-0.4c8.9,0,17.8,0,26.7,0c0.5,0.2,1.1-0.2,1.2-0.7c0.1-0.2,0.1-0.4,0-0.6
	c-0.1-2.9-0.1-5.8,0-8.7c0.1-3.1,0-6.2,0.3-9.3c0.5-5.3,3.2-8,8.4-8.9c0.9-0.2,1.8-0.3,2.7-0.4h163c0.4,0.1,0.9,0.2,1.3,0.2
	c5.7,0.6,8.5,3.2,9.5,8.8c0.1,0.7,0.2,1.4,0.4,2.2v206.1C363.9,353,363.8,353.5,363.7,353.9z M349.7,163.5c0-2.5-0.1-5-0.2-7.4
	c-0.2-4.4-1.9-6-6.3-6.3c-2-0.1-4-0.2-6.1-0.2c-44,0-88,0-132,0c-2.6,0-5.1,0.1-7.7,0.4c-2.7,0.3-4.1,1.6-4.4,4.3
	c-0.3,1.9-0.4,3.9-0.4,5.8c0,53.1,0,106.2,0,159.2v1.5h-14.3V178.1h-1.4c-5.4,0-10.8,0-16.2,0c-2.1,0-4.1,0.1-6.1,0.4
	c-2.8,0.4-4.1,1.8-4.4,4.6s-0.4,5.7-0.4,8.6c0,47.6,0,95.2,0,142.8c0,1.5,0.4,2.9,1,4.2c2.1,4.2,5.5,7.6,9.7,9.7
	c1.3,0.6,2.7,0.9,4.1,0.9c57.5,0,114.9,0.1,172.4,0c2.6,0,5.1-0.1,7.7-0.4c2.7-0.3,4.1-1.7,4.5-4.4c0.3-2,0.4-4.1,0.4-6.2
	C349.7,280.2,349.7,221.8,349.7,163.5L349.7,163.5z M206.9,249.6h128.4v14.1H206.9L206.9,249.6L206.9,249.6z M292.7,221.1h42.7v14.1
	h-42.7V221.1z M335.2,206.6h-42.6v-14.1h42.6V206.6z M292.6,164h42.6v14.1h-42.6V164z M206.9,163.9h71.3v71.2h-71.3L206.9,163.9
	L206.9,163.9z M221.2,220.9h42.7v-42.7h-42.7L221.2,220.9L221.2,220.9z M335.3,292.3H206.9v-14.1h128.4V292.3z M335.3,320.8H206.9
	v-14.1h128.4V320.8z"/>
</svg>
