<svg width="40" height="40" viewBox="0 0 40 40" fill="none" xmlns="http://www.w3.org/2000/svg">
<path fill-rule="evenodd" clip-rule="evenodd" d="M31.6668 22.7495C31.4584 23.4579 30.7918 23.9579 30.0418 23.9579C28.3334 23.9579 26.6668 23.9579 24.9584 23.9579C23.9168 23.9579 23.1251 22.9995 23.2918 21.9995C23.3334 21.7495 23.3751 21.4579 23.4584 21.2079C23.6251 20.4995 24.0418 19.9995 24.6668 19.6662C24.8751 19.5412 25.0418 19.4579 25.2501 19.3329C24.6251 17.9162 25.2918 16.7079 26.0418 16.1662C26.9584 15.5412 28.1251 15.5412 29.0001 16.2079C29.7918 16.7912 30.3334 18.0412 29.7501 19.3329C29.8751 19.4162 30.0001 19.4579 30.1251 19.5412C31.0001 19.9579 31.5001 20.7079 31.6251 21.6662C31.7501 22.0412 31.7918 22.3745 31.6668 22.7495ZM27.5001 16.7079C26.6668 16.7079 26.0001 17.4162 26.0001 18.2495C26.0001 19.0829 26.7084 19.7495 27.5418 19.7495C28.3751 19.7495 29.0418 19.0829 29.0418 18.2495C29.0418 17.3745 28.3334 16.7079 27.5001 16.7079ZM30.6668 21.7495C30.5834 21.1662 30.2501 20.7079 29.7084 20.4579C29.5834 20.4162 29.4584 20.3329 29.3334 20.2495C29.1668 20.1662 29.0834 20.1662 28.9168 20.2912C28.0001 20.9162 26.8334 20.8745 25.9584 20.2079C25.9168 20.1662 25.8751 20.1245 25.7918 20.1662C25.5418 20.2912 25.3334 20.4162 25.0834 20.5412C24.7084 20.7495 24.4584 21.0829 24.3751 21.4995C24.3334 21.7079 24.2918 21.8745 24.2501 22.0829C24.1668 22.5829 24.4584 22.9995 25.0001 22.9995C25.8334 22.9995 26.6668 22.9995 27.4584 22.9995C28.2918 22.9995 29.1251 22.9995 29.9584 22.9995C30.4168 22.9995 30.7501 22.6245 30.6668 22.1662C30.7084 21.9995 30.7084 21.8745 30.6668 21.7495ZM23.9584 19.4579C23.7501 19.5412 23.5834 19.4995 23.4168 19.3745C23.2084 19.2079 23.0418 18.9995 22.8334 18.7912C22.5418 18.4995 22.2501 18.2079 21.9168 17.8745C21.7084 17.6245 21.6668 17.3329 21.8751 17.1245C22.0834 16.9162 22.3751 16.9162 22.6251 17.1662C23.1251 17.6662 23.5834 18.1245 24.0834 18.6245C24.2084 18.7495 24.2501 18.8745 24.2501 19.0412C24.2501 19.2079 24.1668 19.3745 23.9584 19.4579ZM22.4584 16.5829C21.1668 16.5829 19.8751 16.5829 18.6251 16.5829C18.2501 16.5829 17.8751 16.5829 17.5001 16.5829C16.3751 16.5829 15.5834 15.6662 15.7918 14.5412C15.8334 14.2495 15.9168 13.9579 16.0001 13.6662C16.2084 13.0412 16.5834 12.5829 17.1668 12.2912C17.3751 12.1662 17.5418 12.0829 17.7501 11.9579C17.4584 11.3329 17.4168 10.6662 17.6251 10.0412C17.7918 9.54121 18.1251 9.12454 18.5418 8.79121C19.4584 8.16621 20.6251 8.20788 21.5001 8.83288C22.2918 9.45788 22.8334 10.6662 22.2501 11.9579C22.3751 11.9995 22.4584 12.0829 22.5834 12.1245C23.2084 12.4579 23.7084 12.8745 23.9584 13.5412C24.1251 13.9162 24.2084 14.3329 24.2501 14.7495C24.2918 15.1662 24.1668 15.5412 23.9168 15.8745C23.5001 16.3329 23.0418 16.5829 22.4584 16.5829ZM19.9584 9.29121C19.1251 9.29121 18.4168 9.95788 18.4168 10.7912C18.4168 11.6245 19.0834 12.3329 19.9168 12.3329C20.7501 12.3329 21.4168 11.6662 21.4168 10.8329C21.4584 9.95788 20.7918 9.29121 19.9584 9.29121ZM23.1251 14.3745C23.0418 13.7495 22.7084 13.2912 22.1668 13.0412C22.0001 12.9579 21.8751 12.8745 21.7084 12.7912C21.6251 12.7495 21.5418 12.7495 21.4584 12.7912C21.0834 13.0829 20.6668 13.2495 20.1668 13.2912C19.5001 13.3329 18.9168 13.1662 18.4168 12.7495C18.3751 12.7079 18.3334 12.7079 18.2501 12.7495C18.0418 12.8745 17.8334 12.9579 17.6251 13.0829C17.2084 13.3329 16.9168 13.6662 16.8334 14.1662C16.7918 14.3329 16.7501 14.4995 16.7501 14.6245C16.7501 14.7495 16.7084 14.9162 16.7501 15.0412C16.8334 15.3745 17.1251 15.5412 17.5001 15.5412C18.3334 15.5412 19.1251 15.5412 19.9584 15.5412C20.5834 15.5412 21.1668 15.5412 21.7918 15.5412C22.0418 15.5412 22.3334 15.5412 22.5834 15.5412C22.9168 15.5412 23.1668 15.2912 23.2084 14.9579C23.2084 14.7912 23.1668 14.5829 23.1251 14.3745ZM17.3334 17.1245C17.5001 16.9579 17.6668 16.9579 17.8751 17.0412C18.0834 17.1245 18.1668 17.2912 18.1668 17.5829C18.1251 17.6245 18.0834 17.7912 18.0001 17.8745C17.5001 18.3745 17.0001 18.8745 16.5001 19.3745C16.2918 19.5829 16.0001 19.5829 15.7918 19.3745C15.5834 19.1662 15.5834 18.8745 15.7918 18.6662C16.2918 18.1245 16.7918 17.6245 17.3334 17.1245ZM14.8334 19.4579C15.2084 19.6662 15.5834 19.8745 15.8751 20.2079C16.2501 20.6245 16.4168 21.1245 16.5418 21.6245C16.6251 21.9995 16.6668 22.4162 16.5418 22.7912C16.3334 23.4995 15.6668 23.9995 14.9584 23.9995C13.2501 23.9995 11.5418 23.9995 9.83343 23.9995C8.79176 23.9995 8.00009 23.0412 8.16676 21.9579C8.20843 21.6662 8.29176 21.3745 8.37509 21.0829C8.58343 20.4579 8.95843 20.0412 9.50009 19.7079C9.70843 19.5829 9.91676 19.4995 10.1251 19.3745C9.58343 18.1662 9.95843 16.9162 10.8334 16.2495C11.7084 15.5412 12.9584 15.5412 13.8751 16.2079C14.7501 16.8329 15.2501 18.0829 14.6251 19.3745C14.7084 19.3745 14.7918 19.4162 14.8334 19.4579ZM12.4168 16.7079C11.5834 16.7079 10.8751 17.3745 10.8751 18.2079C10.8751 19.0412 11.5418 19.7079 12.3751 19.7495C13.2084 19.7495 13.9168 19.0829 13.9168 18.2495C13.9168 17.4162 13.2501 16.7079 12.4168 16.7079ZM14.1251 20.1662C14.0418 20.1245 14.0001 20.1245 13.9584 20.1662C13.5001 20.5412 12.9584 20.7079 12.3751 20.7079C11.8334 20.7079 11.3334 20.4995 10.8751 20.1662C10.8334 20.1245 10.7501 20.1245 10.7501 20.1245C10.5001 20.2495 10.2918 20.3745 10.0418 20.4995C9.66676 20.7079 9.41676 21.0412 9.33343 21.4162C9.29176 21.6245 9.25009 21.8329 9.20843 22.0412C9.12509 22.5412 9.45843 22.9162 9.95843 22.9162C10.7918 22.9162 11.6251 22.9162 12.4168 22.9162C13.2501 22.9162 14.0834 22.9162 14.9168 22.9162C15.3334 22.9162 15.6668 22.5829 15.6251 22.1662C15.6251 22.0412 15.5834 21.9162 15.5834 21.7495C15.5001 21.1245 15.1668 20.6245 14.5834 20.3745C14.4168 20.3329 14.2501 20.2912 14.1251 20.1662ZM15.2918 24.4579C15.7918 24.9579 16.2918 25.4579 16.7918 25.9579C16.9584 26.1245 17.0001 26.2912 16.9168 26.4995C16.8334 26.7079 16.6668 26.7912 16.4584 26.7912C16.3334 26.7912 16.2084 26.7495 16.0834 26.6245C15.5834 26.1245 15.0834 25.6245 14.5834 25.1245C14.3751 24.9162 14.3751 24.6245 14.5834 24.4162C14.7918 24.2495 15.0834 24.2495 15.2918 24.4579ZM16.0001 28.6662C16.2084 28.0412 16.6668 27.6245 17.2501 27.2912C17.4168 27.2079 17.5418 27.1245 17.7084 27.0412C17.1251 25.8329 17.5834 24.5829 18.4584 23.9162C19.3751 23.2495 20.6251 23.2495 21.5001 23.9579C22.3751 24.6245 22.7501 25.8745 22.2084 27.0412C22.3334 27.1245 22.4584 27.1662 22.6251 27.2495C23.0834 27.4995 23.5001 27.7912 23.7501 28.2495C24.0834 28.8329 24.2084 29.4579 24.2084 30.0829C24.1668 30.9579 23.4168 31.6662 22.5418 31.6662C20.8334 31.6662 19.1251 31.6662 17.4168 31.6662C16.3751 31.6662 15.6251 30.7079 15.7918 29.7079C15.7918 29.3745 15.8751 28.9995 16.0001 28.6662ZM19.9584 24.4162C19.1251 24.4162 18.4584 25.0829 18.4584 25.9162C18.4584 26.7495 19.1251 27.4162 20.0001 27.4162C20.8334 27.4162 21.5001 26.7495 21.5001 25.9162C21.4584 25.0829 20.7918 24.4162 19.9584 24.4162ZM17.4584 30.7079C18.2918 30.7079 19.1251 30.7079 19.9584 30.7079C20.7918 30.7079 21.6251 30.7079 22.4584 30.7079C22.9168 30.7079 23.2501 30.3329 23.2084 29.8745C23.1668 29.6245 23.1251 29.4162 23.0834 29.1662C23.0001 28.7912 22.7501 28.4995 22.4168 28.2912C22.2084 28.1662 22.0001 28.0829 21.8334 27.9579C21.6668 27.8745 21.5834 27.8745 21.4168 27.9995C20.5001 28.6245 19.3334 28.5829 18.4584 27.9162C18.4168 27.8745 18.3334 27.8745 18.3334 27.8745C18.0834 27.9995 17.8334 28.1245 17.6251 28.2495C16.9168 28.6662 16.7918 29.3329 16.7918 30.0412C16.7084 30.4162 17.0418 30.7079 17.4584 30.7079ZM23.4584 26.7912C23.2501 26.7912 23.0834 26.7079 23.0001 26.4995C22.9168 26.2912 22.9584 26.1245 23.0834 25.9579C23.3334 25.7079 23.5418 25.4995 23.7918 25.2495C24.0418 24.9995 24.3334 24.7079 24.5834 24.4579C24.7918 24.2495 25.1251 24.2079 25.2918 24.4162C25.5001 24.6245 25.5001 24.9162 25.2501 25.1662C24.7501 25.6662 24.2918 26.1245 23.7918 26.6245C23.7084 26.7495 23.6251 26.7912 23.4584 26.7912Z" fill="white"/>
</svg>
