<svg width="20" height="20" viewBox="0 0 20 20" fill="none" xmlns="http://www.w3.org/2000/svg">
<path fill-rule="evenodd" clip-rule="evenodd" d="M10 19.6843C8.88618 19.6843 7.81202 19.5041 6.81111 19.1737C5.59048 19.7774 4.10741 20.0327 2.42905 19.9967C1.81874 19.9847 1.54715 19.8555 1.39152 19.6573C1.00397 19.1647 1.39152 18.561 1.39152 18.561L2.78914 16.6629C1.06195 14.8939 0 12.4912 0 9.84216C0 4.40599 4.47666 0 10 0C15.5233 0 20 4.40599 20 9.84216C20 15.2783 15.5233 19.6843 10 19.6843ZM10 0.985117C5.02899 0.985117 1.00092 4.94961 1.00092 9.84216C1.00092 12.326 2.03845 14.5695 3.71071 16.1763C3.79615 16.3055 4.03418 16.5818 3.67409 17.1194C3.29265 17.6871 2.28258 18.9935 2.28258 18.9935C2.28258 18.9935 3.91822 19.1888 5.12359 18.6992C6.02991 18.3298 6.71956 18.0445 7.08575 18.2157C7.0888 18.2187 7.13763 18.2337 7.14373 18.2337C8.07446 18.555 8.95636 18.6992 9.99695 18.6992C14.9649 18.6992 18.993 14.7347 18.993 9.84516C18.993 4.95562 14.968 0.985117 10 0.985117ZM15.0076 9.93827C14.9924 9.95328 14.9741 9.9683 14.9527 9.98632C14.9619 10.0344 14.971 10.0854 14.9802 10.1365C14.9985 10.2326 14.9985 10.3257 14.9771 10.4218C14.9374 10.602 14.8917 10.7792 14.791 10.9384C14.7696 10.9684 14.7666 11.0015 14.7757 11.0375C14.794 11.1096 14.8032 11.1847 14.8154 11.2568C14.8337 11.3499 14.8245 11.44 14.8093 11.5301C14.7696 11.7583 14.6964 11.9716 14.5468 12.1518C14.5377 12.1608 14.5316 12.1728 14.5224 12.1848C14.4706 12.2389 14.4583 12.3019 14.4645 12.377C14.4858 12.6233 14.4339 12.8576 14.3424 13.0828C14.202 13.4282 13.9518 13.6835 13.6161 13.8577C13.5795 13.8757 13.5429 13.8907 13.5063 13.9028C13.2804 13.9718 13.0516 14.0199 12.8135 14.0109C12.4901 13.9989 12.1666 13.9688 11.8431 13.9328C11.1504 13.8547 10.4608 13.7466 9.77113 13.6415C9.52396 13.6054 9.27983 13.5724 9.0296 13.5484C8.86481 13.5333 8.70003 13.5333 8.5383 13.5273C8.42539 13.5243 8.31553 13.5123 8.20873 13.4823C8.06836 13.4432 7.97986 13.3531 7.94019 13.218C7.91578 13.1339 7.90357 13.0468 7.90357 12.9597C7.89747 11.8604 7.88831 10.7642 7.87611 9.66496C7.87305 9.48776 7.88831 9.31656 7.93409 9.14537C7.99207 8.93813 8.12023 8.79097 8.30638 8.68885C8.3491 8.66482 8.39793 8.65581 8.4437 8.6438C8.59933 8.60476 8.75191 8.5597 8.89838 8.49663C9.0296 8.43957 9.15166 8.36448 9.24626 8.25936C9.35917 8.13622 9.47208 8.01308 9.57583 7.88093C9.71926 7.69472 9.87183 7.52053 10.0275 7.34633C10.1739 7.18114 10.3204 7.01595 10.4577 6.84476C10.6378 6.62251 10.7568 6.36722 10.7995 6.0849C10.827 5.9107 10.8392 5.7365 10.8544 5.56231C10.8666 5.42115 10.8941 5.28299 10.9429 5.15384C11.0192 4.94661 11.1688 4.80244 11.3915 4.74238C11.422 4.73337 11.4525 4.73036 11.4831 4.72135C11.6051 4.68832 11.7302 4.67931 11.8523 4.70634C11.9774 4.73337 12.1056 4.75739 12.2246 4.79944C12.487 4.89555 12.7037 5.06074 12.8898 5.26797C13.0943 5.49923 13.1889 5.77254 13.2255 6.06688C13.2377 6.15998 13.2286 6.2591 13.2194 6.3552C13.1736 6.77568 13.0638 7.18114 12.9265 7.57759C12.9112 7.62264 12.8959 7.66769 12.8776 7.71875C12.902 7.72776 12.9112 7.73377 12.9204 7.73076C13.0363 7.72476 13.1523 7.71875 13.2652 7.70974C13.5581 7.68571 13.848 7.65868 14.141 7.63165C14.1532 7.63165 14.1684 7.62865 14.1807 7.62865C14.4217 7.64967 14.6536 7.69472 14.8612 7.83288C15.032 7.94701 15.1633 8.08817 15.2701 8.25936C15.3036 8.31042 15.3311 8.36749 15.3525 8.42455C15.4104 8.58674 15.4471 8.75192 15.4654 8.92312C15.4654 8.93213 15.4684 8.94114 15.4654 8.95015C15.4501 9.1694 15.4104 9.38564 15.2975 9.57786C15.2212 9.71601 15.1266 9.83615 15.0076 9.93827ZM14.44 8.59274C14.3668 8.52366 14.2783 8.48161 14.1746 8.49062C14.0983 8.49663 14.025 8.50564 13.9487 8.51165C13.5185 8.54469 13.0882 8.58073 12.661 8.61377C12.5603 8.62278 12.4565 8.62578 12.3558 8.62578C12.2612 8.62578 12.1697 8.60776 12.0873 8.56271C11.9225 8.47561 11.8523 8.25936 11.8859 8.09718C11.9408 7.83588 12.0079 7.57759 12.1025 7.32831C12.1605 7.17213 12.2154 7.01595 12.2612 6.85677C12.3283 6.63753 12.3589 6.41227 12.365 6.18401C12.368 6.09391 12.3497 6.01282 12.307 5.93172C12.1971 5.7305 12.0171 5.61637 11.8004 5.5533C11.7821 5.54729 11.7577 5.5533 11.7302 5.5563C11.7241 5.59534 11.718 5.62838 11.715 5.66142C11.6967 5.93773 11.654 6.20804 11.5868 6.47834C11.5166 6.75766 11.4007 7.01295 11.2298 7.24722C11.0497 7.4935 10.8544 7.72476 10.65 7.95001C10.4944 8.1182 10.3448 8.2924 10.2075 8.47561C10.1282 8.58073 10.0427 8.68284 9.95423 8.77895C9.68874 9.06728 9.36832 9.27151 8.98383 9.37363C8.93805 9.38564 8.88923 9.39765 8.84345 9.40967C8.81599 9.41868 8.78547 9.43069 8.75191 9.4427C8.76106 10.5029 8.77022 11.5631 8.78242 12.6203C8.78242 12.6353 8.78853 12.6533 8.79463 12.6744C8.82209 12.6774 8.84956 12.6834 8.87397 12.6834C8.95941 12.6894 9.04486 12.6864 9.12725 12.6984C9.5087 12.7525 9.8932 12.8095 10.2746 12.8636C10.5951 12.9086 10.9155 12.9597 11.2359 13.0017C11.5868 13.0468 11.9408 13.0888 12.2948 13.1219C12.5114 13.1429 12.7281 13.1519 12.9478 13.1579C13.3476 13.1669 13.607 12.8185 13.61 12.5212C13.61 12.4161 13.5948 12.311 13.5886 12.2088C13.5856 12.1668 13.5856 12.1217 13.5917 12.0797C13.6039 11.9716 13.6588 11.8815 13.7351 11.8064C13.8145 11.7283 13.8816 11.6412 13.9274 11.5421C13.9426 11.5121 13.9579 11.476 13.9609 11.443C13.967 11.3529 13.9701 11.2598 13.9396 11.1697C13.9243 11.1246 13.9121 11.0766 13.8969 11.0315C13.8541 10.8933 13.8847 10.7642 13.964 10.6471C14.0037 10.59 14.0372 10.5269 14.0738 10.4669C14.1501 10.3407 14.1471 10.2086 14.0952 10.0764C14.0738 10.0194 14.0555 9.95929 14.0403 9.90223C13.9976 9.75506 14.0433 9.62591 14.144 9.51479C14.1837 9.46974 14.2447 9.4427 14.2936 9.40666C14.3515 9.36462 14.4095 9.32557 14.4614 9.28052C14.6811 9.07929 14.6201 8.75793 14.44 8.59274ZM7.13457 11.1006C7.12237 11.6202 7.11016 12.1758 7.10101 12.7314C7.10101 12.7975 7.11016 12.8606 7.11321 12.9267C7.11626 12.9657 7.11627 13.0047 7.11016 13.0438C7.10406 13.0858 7.09185 13.1279 7.07965 13.1699C7.02167 13.3712 6.89045 13.5003 6.68599 13.5574C6.54867 13.5964 6.4083 13.6144 6.26488 13.6054C5.99939 13.5874 5.73085 13.5814 5.46842 13.5574C5.3494 13.5484 5.23039 13.5213 5.11749 13.4793C4.87031 13.3892 4.70247 13.218 4.62618 12.9657C4.57125 12.7795 4.54684 12.5903 4.54684 12.3951C4.54379 11.8454 4.53769 11.2928 4.54684 10.7432C4.55295 10.3107 4.58041 9.8782 4.62008 9.44571C4.63839 9.25349 4.68111 9.06428 4.74214 8.88107C4.80317 8.69185 4.92524 8.54469 5.09918 8.43957C5.12664 8.42455 5.1541 8.40953 5.18462 8.40052C5.3433 8.35547 5.50198 8.32544 5.66982 8.33745C5.88648 8.35547 6.10314 8.37049 6.3198 8.40353C6.42051 8.42155 6.52121 8.43957 6.61886 8.4636C6.71346 8.48462 6.78669 8.54469 6.85383 8.60776C6.94232 8.69185 7.01556 8.79397 7.05218 8.91411C7.10406 9.10032 7.14068 9.28653 7.14068 9.48175C7.13152 10.0164 7.13457 10.542 7.13457 11.1006ZM6.26793 9.47875C6.26793 9.43369 6.26793 9.39165 6.26182 9.3466C6.25877 9.31656 6.24962 9.28953 6.24352 9.2655C5.97498 9.20844 5.65761 9.18742 5.5386 9.21745C5.50809 9.27151 5.50198 9.33158 5.49588 9.39465C5.45316 9.77608 5.43485 10.1605 5.41959 10.545C5.39518 11.1907 5.39823 11.8394 5.41654 12.4852C5.41654 12.5242 5.41959 12.5632 5.42264 12.6023C5.4318 12.6954 5.44095 12.7074 5.5325 12.7164C5.62099 12.7254 5.70949 12.7314 5.79799 12.7344C5.93531 12.7404 6.07263 12.7495 6.22521 12.7404C6.22826 12.6804 6.23436 12.6323 6.23436 12.5843C6.25877 11.5511 6.28319 10.5149 6.26793 9.47875Z" fill="black"/>
</svg>
