<svg width="40" height="40" viewBox="0 0 40 40" fill="none" xmlns="http://www.w3.org/2000/svg">
<path fill-rule="evenodd" clip-rule="evenodd" d="M31.3327 27.7913C31.541 27.9997 31.5827 28.2913 31.416 28.5413C31.2077 28.8747 30.791 28.9163 30.4993 28.6663C30.4577 28.6247 30.4577 28.6247 30.416 28.583C29.7493 27.9163 29.041 27.208 28.3743 26.5413L28.3327 26.4997C27.291 27.208 26.2077 27.458 24.9993 27.208C23.9993 26.9997 23.2077 26.458 22.6243 25.6247C21.4577 23.958 21.666 21.708 23.1243 20.333C24.5827 18.958 26.8743 18.833 28.416 20.083C29.2493 20.7497 29.791 21.6247 29.916 22.708C30.0827 23.7913 29.791 24.7913 29.166 25.6663C29.2077 25.6663 29.2077 25.708 29.2077 25.708C29.916 26.4163 30.6243 27.1247 31.3327 27.7913ZM28.791 22.2913C28.4993 21.5413 28.041 20.958 27.3743 20.583C27.1243 20.458 26.8743 20.333 26.5827 20.2913C26.3743 20.2497 26.1243 20.2497 25.916 20.208C25.4993 20.208 25.1243 20.2913 24.7493 20.458C24.1243 20.7497 23.6243 21.1663 23.291 21.7497C23.1243 21.9997 22.9993 22.2913 22.9577 22.583C22.8743 23.0413 22.8743 23.4997 22.9577 23.958C23.041 24.3747 23.2077 24.7497 23.4577 25.083C23.7493 25.4997 24.166 25.833 24.666 26.0413C24.8743 26.1247 25.0827 26.208 25.291 26.2497C25.6243 26.333 25.916 26.333 26.2493 26.2913C26.416 26.2913 26.541 26.2497 26.7077 26.208C27.041 26.1247 27.3743 25.958 27.666 25.7497C27.791 25.6663 27.9577 25.5413 28.1243 25.5413C28.2493 25.5413 28.2493 25.458 28.291 25.3747C28.291 25.2497 28.3327 25.1663 28.416 25.083C28.666 24.7497 28.8327 24.4163 28.9577 23.9997C28.9993 23.7913 29.041 23.583 29.041 23.3747C28.9577 22.9997 28.916 22.6247 28.791 22.2913ZM21.9993 19.208C21.9577 19.2497 21.9577 19.2497 21.9577 19.333C21.9577 19.6247 21.9577 19.9163 21.9577 20.208C21.9577 20.2497 21.9577 20.2497 21.916 20.2913C21.6243 20.6663 21.3743 21.1247 21.2077 21.583C21.2077 21.583 21.2077 21.583 21.166 21.6247C21.0827 21.4997 21.041 21.4163 20.9993 21.333C20.9577 21.208 20.9577 21.083 20.916 20.9997C20.916 20.958 20.916 20.9163 20.916 20.8747C20.916 20.3747 20.916 19.8747 20.916 19.3747C20.916 19.2497 20.9577 19.083 20.9993 18.958C21.041 18.7497 21.166 18.6247 21.291 18.4997C21.8743 18.0413 22.291 17.4997 22.4993 16.7497C22.541 16.5413 22.5827 16.333 22.5827 16.1247C22.5827 15.4997 22.5827 14.8747 22.5827 14.2497C22.5827 13.6247 22.3743 13.0413 21.9993 12.5413C21.5827 11.958 20.9993 11.583 20.3327 11.4163C20.1243 11.3747 19.916 11.3747 19.7493 11.333C19.4993 11.333 19.2077 11.333 18.9577 11.3747C18.7493 11.4163 18.5827 11.4997 18.3743 11.583C17.4993 11.958 16.9577 12.6247 16.7077 13.5413C16.6243 13.7497 16.6243 13.9997 16.6243 14.208C16.6243 14.833 16.6243 15.4997 16.6243 16.1247C16.6243 16.6663 16.8327 17.1663 17.0827 17.6247C17.291 17.958 17.6243 18.2497 17.916 18.4997C18.041 18.583 18.1243 18.708 18.166 18.8747C18.166 18.9163 18.2077 18.958 18.2077 19.0413C18.2493 19.208 18.2493 19.333 18.2493 19.4997C18.2493 19.958 18.2493 20.4163 18.2493 20.833C18.2493 20.958 18.2077 21.1247 18.166 21.2497C18.1243 21.4163 17.9993 21.583 17.8743 21.708C17.7077 21.8747 17.4993 21.8747 17.291 21.958C17.2493 21.958 17.2077 21.958 17.166 21.958C16.5827 21.958 15.9577 21.958 15.3743 21.958C14.7493 21.958 14.166 22.1663 13.666 22.5413C13.0827 22.958 12.7077 23.5413 12.541 24.2497C12.4993 24.458 12.4577 24.6663 12.4577 24.9163C12.4577 25.4163 12.4577 25.9163 12.4577 26.3747C12.4577 26.4997 12.5827 26.6247 12.7077 26.6247C14.3743 26.6247 15.9993 26.6247 17.666 26.6247C19.166 26.6247 20.666 26.6247 22.166 26.6247C22.2077 26.6247 22.2493 26.6247 22.2493 26.6663C22.6243 27.0413 22.9993 27.3747 23.4577 27.6247C19.8743 27.6247 16.291 27.6247 12.7077 27.6247C12.041 27.6247 11.541 27.1663 11.416 26.5413C11.416 26.4997 11.416 26.458 11.416 26.458C11.416 25.8747 11.416 25.333 11.416 24.7497C11.416 24.6247 11.4577 24.5413 11.4577 24.4163C11.541 23.6247 11.8743 22.958 12.3743 22.3747C12.9993 21.6247 13.8327 21.1663 14.791 20.9997C14.9993 20.958 15.2493 20.958 15.4577 20.958C16.041 20.958 16.5827 20.958 17.166 20.958H17.2077C17.2077 20.9163 17.2077 20.9163 17.2077 20.8747C17.2077 20.3747 17.2077 19.833 17.2077 19.333C17.2077 19.2913 17.2077 19.2497 17.166 19.2497C16.3327 18.583 15.791 17.7497 15.6243 16.708C15.5827 16.4997 15.5827 16.2913 15.5827 16.083C15.5827 15.4997 15.5827 14.9163 15.5827 14.333C15.5827 12.458 16.9577 10.7913 18.8327 10.4163C18.9993 10.3747 19.2077 10.3747 19.3743 10.333C19.416 10.333 19.416 10.333 19.4577 10.333C19.5827 10.333 19.7077 10.333 19.8327 10.333C19.9577 10.333 20.041 10.3747 20.166 10.3747C20.9577 10.4997 21.666 10.7913 22.291 11.333C23.041 11.9997 23.4577 12.7913 23.6243 13.7913C23.666 13.958 23.666 14.1663 23.666 14.333C23.666 14.9163 23.666 15.4997 23.666 16.0413C23.5827 17.333 23.041 18.4163 21.9993 19.208Z" fill="white"/>
</svg>
