<svg width="40" height="40" viewBox="0 0 40 40" fill="none" xmlns="http://www.w3.org/2000/svg">
<path fill-rule="evenodd" clip-rule="evenodd" d="M28.3514 24.9121C27.5754 26.2561 25.8554 26.7201 24.5114 25.9441C23.4314 25.3201 22.8874 24.0561 23.1834 22.8401L19.9594 20.9841L16.7914 22.8081C17.1834 24.3121 16.2794 25.8481 14.7754 26.2401C13.2714 26.6321 11.7354 25.7281 11.3434 24.2241C10.9514 22.7201 11.8554 21.1841 13.3594 20.7921C14.3034 20.5441 15.3114 20.8081 16.0154 21.4801L19.2794 19.6001V15.9441C17.7834 15.5281 16.9034 13.9841 17.3194 12.4801C17.7354 10.9841 19.2794 10.1041 20.7834 10.5201C22.2794 10.9361 23.1594 12.4801 22.7434 13.9841C22.4874 14.9201 21.7594 15.6641 20.8234 15.9361V19.6961L23.9514 21.5041C25.0554 20.4161 26.8394 20.4321 27.9274 21.5361C28.8074 22.4401 28.9834 23.8161 28.3514 24.9121ZM15.5994 22.8001C15.5274 22.7201 15.4714 22.6241 15.4394 22.5281C14.8954 21.7681 13.8394 21.6001 13.0794 22.1441C12.3194 22.6881 12.1514 23.7441 12.6954 24.5041C13.2394 25.2641 14.2954 25.4321 15.0554 24.8881C15.7194 24.4081 15.9434 23.5361 15.5994 22.8001ZM21.7194 13.2321C21.7194 12.2961 20.9674 11.5441 20.0314 11.5441C19.0954 11.5441 18.3434 12.2961 18.3434 13.2321C18.3434 14.1121 19.0154 14.8401 19.8874 14.9121C19.9434 14.9041 19.9994 14.8961 20.0554 14.8961C20.1034 14.8961 20.1594 14.9041 20.2074 14.9121C21.0634 14.8241 21.7194 14.0961 21.7194 13.2321ZM26.7594 22.0481C25.9994 21.6081 25.0314 21.8241 24.5354 22.5441C24.5194 22.6001 24.4954 22.6481 24.4634 22.6961C24.4394 22.7441 24.4074 22.7841 24.3754 22.8241C23.9914 23.6721 24.3754 24.6721 25.2314 25.0561C26.0794 25.4401 27.0794 25.0561 27.4634 24.2001C27.8074 23.4081 27.5114 22.4801 26.7594 22.0481Z" fill="white"/>
</svg>
