<svg width="19" height="19" viewBox="0 0 19 19" fill="none" xmlns="http://www.w3.org/2000/svg">
<path fill-rule="evenodd" clip-rule="evenodd" d="M18.58 8.80029C17.884 8.79229 15.8489 8.79229 15.1529 8.79229H14.3369C14.3129 8.79229 14.2889 8.79229 14.2649 8.79229H13.5769C13.5689 8.79229 13.5529 8.79229 13.5449 8.79229C13.5369 8.79229 13.5288 8.79229 13.5208 8.79229H13.4969C13.4729 8.79229 13.4488 8.79229 13.4088 8.79229H13.2729C13.2569 8.79229 13.2328 8.79229 13.2088 8.79229H13.0969C13.0729 8.79229 13.0489 8.79229 13.0249 8.79229H12.9208C12.9048 8.79229 12.8968 8.79229 12.8808 8.79229H12.7608C12.7208 8.79229 12.6729 8.79229 12.6329 8.79229H12.4888C12.4728 8.79229 12.4568 8.79229 12.4408 8.79229H12.2729C12.2329 8.79229 12.1929 8.79229 12.1529 8.79229H12.0969C12.0329 8.79229 11.9769 8.79229 11.9049 8.79229C11.2809 8.80829 10.6568 8.64029 10.1208 8.31229C9.42485 7.88829 8.91285 7.30429 8.66485 6.50429C8.37685 5.63229 8.48885 4.68829 8.96085 3.90429C9.39285 3.13629 10.1289 2.57629 10.9849 2.36829C11.9529 2.12029 12.8489 2.30429 13.6729 2.85629C14.6249 3.48029 15.1609 4.57629 15.0729 5.70429C15.0809 5.75229 15.0409 5.80029 14.9929 5.80829C14.9849 5.80829 14.9688 5.80829 14.9608 5.80829C14.5208 5.80829 14.0729 5.80829 13.6329 5.80829C13.5449 5.80829 13.5129 5.77629 13.5049 5.68829C13.5049 5.49629 13.4808 5.29629 13.4488 5.10429C13.3368 4.55229 12.9289 4.10429 12.3929 3.93629C11.8889 3.76029 11.3769 3.77629 10.9129 4.07229C10.3129 4.45629 10.0409 5.01629 10.1049 5.73629C10.1769 6.58429 10.9209 7.22429 11.7129 7.26429C11.7689 7.26429 11.8248 7.26429 11.8808 7.26429C15.3288 7.28029 10.9049 7.28829 14.3529 7.30429C15.2969 7.30429 17.5881 7.31229 18.5321 7.31229H18.748V7.47229C18.748 7.85629 18.7401 8.24029 18.7561 8.62429C18.7561 8.75229 18.724 8.80029 18.58 8.80029ZM17.3848 5.80029C16.9528 5.80029 16.5127 5.80029 16.0807 5.80029C16.0327 5.80829 15.9849 5.78429 15.9769 5.73629C15.9769 5.72029 15.9769 5.70429 15.9769 5.69629C15.9849 5.32829 15.9448 4.96029 15.8488 4.60029C15.4808 3.18429 14.4009 2.05629 12.9929 1.63229C12.1529 1.38429 11.3129 1.43229 10.4729 1.68829C9.70485 1.92029 9.02485 2.37629 8.52085 3.00029C8.09685 3.51229 7.80885 4.13629 7.69685 4.79229C7.59285 5.36029 7.60085 5.93629 7.72085 6.50429C7.82485 6.96829 8.01685 7.40829 8.28085 7.80829C8.70485 8.45629 9.30485 8.96829 10.0169 9.27229C10.5929 9.53629 11.2168 9.67229 11.8408 9.66429C14.4008 9.65629 14.7207 9.66429 17.2887 9.66429C19.1207 9.66429 16.668 9.67229 18.5 9.68029H18.6841C18.6841 10.1763 18.6841 10.6483 18.6841 11.1203C18.6681 11.1603 18.6361 11.1843 18.5961 11.2003C18.5641 11.2083 18.532 11.2083 18.5 11.2003C14.068 11.2003 16.1608 11.1923 11.7288 11.1923C10.5208 11.2083 9.34485 10.8083 8.39285 10.0723C7.68085 9.52829 7.08085 8.87229 6.68085 8.05629C6.40885 7.49629 6.20885 6.92029 6.16085 6.29629C6.12085 5.90429 6.11285 5.50429 6.12885 5.11229C6.15285 4.50429 6.30485 3.91229 6.56885 3.36029C6.75285 2.99229 6.96085 2.63229 7.16885 2.28029C7.24085 2.16829 7.33685 2.06429 7.43285 1.97629C7.60885 1.80029 7.78485 1.62429 7.96085 1.44829C8.48085 0.928289 9.11285 0.600289 9.78485 0.344289C10.6649 0.00828859 11.5769 -0.0477107 12.4969 0.0322893C13.0409 0.0882893 13.5768 0.232289 14.0808 0.456289C14.5528 0.656289 14.9929 0.920289 15.3929 1.24029C15.6569 1.46429 15.9048 1.70429 16.1208 1.96829C16.3528 2.24029 16.5609 2.52829 16.7449 2.84029C17.1449 3.52829 17.3927 4.29629 17.4487 5.08829C17.4647 5.28029 17.4728 5.48029 17.4808 5.67229C17.4888 5.76029 17.4728 5.80029 17.3848 5.80029ZM4.91285 11.2003C4.55285 11.1923 4.18485 11.1923 3.81685 11.2003C3.68085 11.2003 3.64085 11.1603 3.64085 11.0243C3.64085 9.46429 3.64085 7.90429 3.63285 6.34429C3.63285 5.87229 3.64085 5.40029 3.63285 4.92829C3.61685 3.80029 3.59285 2.68029 3.58485 1.55229C3.58485 1.43229 3.52885 1.41629 3.43285 1.41629C2.84885 1.41629 2.25685 1.41629 1.67285 1.41629C1.56085 1.41629 1.51285 1.39229 1.52085 1.27229C1.52885 0.896289 1.52885 0.528289 1.52085 0.152289C1.52085 0.0322892 1.56885 0.000288737 1.67285 0.000288737C2.76085 0.000288737 3.84885 0.000288737 4.93685 0.000288737C5.08085 0.000288737 5.08085 0.0722893 5.08085 0.176289C5.08085 1.98429 5.08085 3.79229 5.08085 5.60029C5.08085 7.40829 5.08085 9.21629 5.08085 11.0243C5.08085 11.1523 5.04885 11.2003 4.91285 11.2003ZM2.95285 2.48829C2.94485 4.45629 2.94485 6.43229 2.94485 8.40029C2.94485 9.28029 2.94485 10.1683 2.95285 11.0483C2.95285 11.1603 2.92085 11.1923 2.80885 11.1923C2.45685 11.1843 2.09685 11.1843 1.74485 11.1923C1.60885 11.1923 1.56885 11.1523 1.56885 11.0243C1.56885 9.08829 1.57685 7.14429 1.56885 5.20829C1.56885 4.76029 1.56085 4.31229 1.56885 3.86429C1.56885 3.72829 1.53685 3.68029 1.39285 3.68029C0.984852 3.68829 0.568851 3.68029 0.160851 3.68829C0.0408513 3.68829 -0.0071486 3.66429 0.000851402 3.53629C0.0088514 3.14429 0.000851402 2.74429 0.000851402 2.32029H0.176851C1.04085 2.32029 1.90485 2.32029 2.76885 2.31229C2.90485 2.31229 2.95285 2.34429 2.95285 2.48829Z" fill="#000"/>
<path d="M1.194 16H0.201V12.484H2.181V13.249L1.194 13.189V14.005H2.004V14.749L1.194 14.689V16ZM4.85163 14.83V16H3.85563V12.484H4.25163C4.34763 12.484 4.49063 12.48 4.68063 12.472C4.87063 12.462 5.02763 12.457 5.15163 12.457C5.58363 12.457 5.90563 12.552 6.11763 12.742C6.33163 12.932 6.43863 13.223 6.43863 13.615C6.43863 13.847 6.38763 14.053 6.28563 14.233C6.18563 14.413 6.05263 14.556 5.88663 14.662C5.97663 14.684 6.05363 14.735 6.11763 14.815C6.18363 14.895 6.23463 14.99 6.27063 15.1C6.30663 15.208 6.33763 15.318 6.36363 15.43C6.39163 15.54 6.42263 15.649 6.45663 15.757C6.49263 15.865 6.53163 15.946 6.57363 16H5.46663C5.44463 15.972 5.42763 15.894 5.41563 15.766C5.40363 15.636 5.38663 15.481 5.36463 15.301C5.34463 15.119 5.31563 14.967 5.27763 14.845C5.27363 14.845 5.26863 14.845 5.26263 14.845C5.22463 14.845 5.18363 14.845 5.13963 14.845C5.09763 14.843 5.06063 14.841 5.02863 14.839C4.99663 14.837 4.96263 14.835 4.92663 14.833C4.89263 14.831 4.86763 14.83 4.85163 14.83ZM4.85163 14.272H4.94763C4.99763 14.272 5.03963 14.27 5.07363 14.266C5.10763 14.262 5.14463 14.255 5.18463 14.245C5.22663 14.233 5.26063 14.215 5.28663 14.191C5.31463 14.167 5.34063 14.136 5.36463 14.098C5.38863 14.06 5.40663 14.011 5.41863 13.951C5.43063 13.891 5.43663 13.821 5.43663 13.741V13.504C5.43663 13.33 5.39063 13.209 5.29863 13.141C5.20863 13.071 5.07863 13.036 4.90863 13.036H4.85163V14.272ZM10.332 16H8.20502V12.484H10.287L10.227 13.192L9.19802 13.162V13.84H10.008V14.542L9.19802 14.482V15.28L10.332 15.25V16ZM13.0914 16.063C12.9374 16.063 12.7934 16.049 12.6594 16.021C12.5274 15.995 12.4164 15.96 12.3264 15.916C12.2364 15.872 12.1624 15.83 12.1044 15.79C12.0484 15.75 12.0014 15.71 11.9634 15.67L12.0384 14.941C12.1204 15.051 12.2304 15.147 12.3684 15.229C12.5064 15.309 12.6554 15.349 12.8154 15.349C12.9754 15.349 13.0904 15.332 13.1604 15.298C13.2324 15.264 13.2684 15.202 13.2684 15.112C13.2684 15.016 13.2274 14.934 13.1454 14.866C13.0654 14.798 12.9264 14.716 12.7284 14.62C12.6564 14.584 12.5954 14.552 12.5454 14.524C12.4954 14.494 12.4284 14.446 12.3444 14.38C12.2624 14.312 12.1954 14.242 12.1434 14.17C12.0914 14.096 12.0454 14.002 12.0054 13.888C11.9654 13.772 11.9454 13.648 11.9454 13.516C11.9454 12.802 12.3484 12.445 13.1544 12.445C13.2824 12.445 13.4024 12.459 13.5144 12.487C13.6284 12.513 13.7174 12.542 13.7814 12.574C13.8454 12.606 13.9034 12.644 13.9554 12.688C14.0094 12.73 14.0434 12.76 14.0574 12.778C14.0714 12.794 14.0814 12.807 14.0874 12.817L13.9374 13.396C13.8594 13.304 13.7614 13.236 13.6434 13.192C13.5274 13.146 13.4164 13.123 13.3104 13.123C13.0544 13.123 12.9264 13.203 12.9264 13.363C12.9264 13.405 12.9344 13.443 12.9504 13.477C12.9664 13.511 12.9924 13.542 13.0284 13.57C13.0644 13.598 13.0974 13.622 13.1274 13.642C13.1594 13.662 13.2024 13.687 13.2564 13.717C13.3124 13.745 13.3544 13.768 13.3824 13.786C13.6744 13.91 13.8884 14.057 14.0244 14.227C14.1624 14.397 14.2314 14.604 14.2314 14.848C14.2314 15.244 14.1334 15.546 13.9374 15.754C13.7434 15.96 13.4614 16.063 13.0914 16.063ZM16.9823 16H15.9893V12.484H16.9823V13.876H17.7533V12.484H18.7463V16H17.7533V14.566H16.9823V16Z" fill="#000"/>
</svg>
