<svg width="40" height="40" viewBox="0 0 40 40" fill="none" xmlns="http://www.w3.org/2000/svg">
<path fill-rule="evenodd" clip-rule="evenodd" d="M29.4245 23.4322C28.5205 21.8642 27.6565 20.3682 26.7445 18.7842C27.1765 18.7842 27.5285 18.7842 27.8805 18.7842C28.4805 18.7842 28.6725 18.5442 28.5285 17.9522C28.2165 16.6402 27.6485 15.4402 26.7765 14.4082C24.7365 11.9922 22.1125 10.9282 18.9845 11.2242C17.1205 11.4002 15.4725 12.1442 14.0645 13.4002C13.9365 13.5122 13.8085 13.6322 13.6405 13.7842C13.4085 13.3922 13.2085 13.0322 12.9925 12.6642C14.1445 11.5602 15.5445 10.7522 17.0805 10.3042C22.8725 8.63224 28.7365 12.2402 29.8645 18.1682C29.9605 18.6722 30.0885 18.7762 30.6245 18.7842C31.0885 18.7842 31.5525 18.7842 32.1045 18.7842C31.2005 20.3522 30.3285 21.8562 29.4245 23.4322ZM16.4725 19.9762C16.4805 18.0722 18.0405 16.5362 19.9445 16.5442C21.8485 16.5522 23.3845 18.1122 23.3765 20.0162C23.3685 21.9202 21.8165 23.4562 19.9125 23.4482C18.0005 23.4402 16.4645 21.8882 16.4725 19.9762ZM22.1445 20.0002C22.1365 18.7842 21.1605 17.8002 19.9445 17.7762C18.7365 17.7602 17.6885 18.8162 17.7045 20.0162C17.7205 21.2162 18.7525 22.2322 19.9365 22.2242C21.1605 22.2002 22.1365 21.2162 22.1445 20.0002ZM11.9045 21.2082C11.4005 21.2162 11.2085 21.4562 11.3125 21.9522C12.0405 25.3922 15.0085 28.1842 18.4965 28.7042C21.4325 29.1442 23.9685 28.3122 26.1365 26.3042C26.1845 26.2562 26.2325 26.2162 26.3285 26.1442C26.5445 26.5122 26.7525 26.8642 26.9685 27.2322C26.0405 28.1602 24.9285 28.8882 23.7045 29.3682C17.7685 31.7522 11.1125 28.0722 9.99248 21.7842C9.92048 21.3922 9.72848 21.1922 9.32048 21.2082C8.87248 21.2162 8.42448 21.2082 7.89648 21.2082C8.80848 19.6322 9.67248 18.1282 10.5765 16.5602C11.4805 18.1282 12.3445 19.6322 13.2565 21.2082C12.7525 21.2082 12.3285 21.2082 11.9045 21.2082Z" fill="black"/>
</svg>
