<svg width="40" height="40" viewBox="0 0 40 40" fill="none" xmlns="http://www.w3.org/2000/svg">
<path fill-rule="evenodd" clip-rule="evenodd" d="M31.0555 21.7443C31.0555 22.2163 30.8235 22.4563 30.3515 22.4563C29.4875 22.4563 28.6235 22.4643 27.7595 22.4563C27.6475 22.4403 27.5515 22.5123 27.5275 22.6243C27.3995 22.9683 27.2555 23.2963 27.1195 23.6563C27.3675 23.9043 27.6235 24.1603 27.8795 24.4163C28.2795 24.8163 28.6875 25.2243 29.0875 25.6243C29.3675 25.9123 29.3755 26.2643 29.0955 26.5443C28.2395 27.4003 27.3915 28.2563 26.5275 29.1123C26.2475 29.3923 25.8955 29.3843 25.6075 29.1043C24.9995 28.4963 24.3915 27.8963 23.7915 27.2803C23.7435 27.2323 23.7035 27.1763 23.6635 27.1203C23.2635 27.2803 22.8955 27.4163 22.5435 27.5763C22.4875 27.6243 22.4555 27.6963 22.4555 27.7683C22.4475 28.6243 22.4475 29.4803 22.4475 30.3363C22.4475 30.8323 22.2155 31.0643 21.7195 31.0643C20.5595 31.0643 19.3995 31.0643 18.2475 31.0643C17.7755 31.0643 17.5355 30.8243 17.5355 30.3603C17.5355 29.4963 17.5275 28.6323 17.5435 27.7683C17.5595 27.6563 17.4875 27.5603 17.3755 27.5363C17.0315 27.4083 16.7035 27.2723 16.3435 27.1283C16.0795 27.3923 15.8155 27.6643 15.5435 27.9363C15.1515 28.3283 14.7595 28.7283 14.3595 29.1203C14.0875 29.3843 13.7355 29.3923 13.4715 29.1283C12.6075 28.2643 11.7355 27.4003 10.8795 26.5363C10.6155 26.2643 10.6315 25.9123 10.9035 25.6323C11.5115 25.0163 12.1275 24.4083 12.7355 23.8003C12.7835 23.7603 12.8315 23.7283 12.8795 23.6963C12.7195 23.2883 12.5755 22.9203 12.4235 22.5683C12.3755 22.5123 12.3035 22.4803 12.2315 22.4803C11.3755 22.4723 10.5195 22.4723 9.66355 22.4723C9.16755 22.4723 8.93555 22.2403 8.93555 21.7443C8.93555 20.5843 8.93555 19.4243 8.93555 18.2723C8.93555 17.8003 9.17555 17.5603 9.63955 17.5603C10.5035 17.5603 11.3675 17.5603 12.2315 17.5683C12.3435 17.5843 12.4395 17.5123 12.4635 17.4003C12.5915 17.0643 12.7275 16.7283 12.8715 16.3683C12.6715 16.1683 12.4555 15.9603 12.2395 15.7443C11.7915 15.2963 11.3435 14.8483 10.8955 14.4003C10.6155 14.1123 10.6075 13.7603 10.8875 13.4803C11.7435 12.6243 12.5995 11.7683 13.4555 10.9123C13.7355 10.6323 14.0875 10.6403 14.3755 10.9203C14.9915 11.5283 15.5995 12.1363 16.2075 12.7523C16.2475 12.8003 16.2875 12.8483 16.3195 12.8963C16.7275 12.7363 17.0875 12.5923 17.4475 12.4403C17.5035 12.3923 17.5355 12.3203 17.5355 12.2483C17.5435 11.3923 17.5435 10.5363 17.5435 9.67234C17.5435 9.17634 17.7755 8.94434 18.2715 8.94434H21.7435C22.2155 8.94434 22.4555 9.18434 22.4555 9.64834C22.4555 10.5123 22.4555 11.3763 22.4475 12.2403C22.4475 12.3763 22.4955 12.4243 22.6155 12.4723C22.9515 12.6003 23.2875 12.7363 23.6555 12.8883C23.8235 12.7123 24.0075 12.5283 24.1915 12.3443C24.6715 11.8643 25.1515 11.3843 25.6315 10.9043C25.9035 10.6403 26.2555 10.6323 26.5195 10.8963C27.3915 11.7603 28.2555 12.6243 29.1115 13.4883C29.3835 13.7603 29.3675 14.1123 29.0875 14.3923C28.4795 15.0083 27.8715 15.6163 27.2555 16.2243C27.2075 16.2643 27.1595 16.3043 27.1115 16.3363C27.2715 16.7363 27.4075 17.0963 27.5675 17.4563C27.6155 17.5123 27.6875 17.5443 27.7595 17.5443C28.6155 17.5523 29.4715 17.5443 30.3275 17.5443C30.8235 17.5443 31.0555 17.7763 31.0555 18.2723C31.0555 19.4323 31.0555 20.5843 31.0555 21.7443ZM29.8155 18.7683C28.9355 18.7683 28.0715 18.7683 27.2075 18.7683C26.8315 18.7683 26.6235 18.6163 26.5195 18.2563C26.3595 17.6883 26.1355 17.1443 25.8475 16.6323C25.6555 16.2883 25.6875 16.0483 25.9675 15.7683C26.5355 15.2003 27.0955 14.6323 27.6635 14.0723C27.7115 14.0243 27.7595 13.9763 27.7915 13.9363C27.2075 13.3523 26.6395 12.7843 26.0235 12.1603C25.9915 12.2243 25.9595 12.2803 25.9195 12.3363C25.3595 12.8963 24.7995 13.4643 24.2395 14.0243C23.9435 14.3203 23.7275 14.3283 23.3435 14.1523C22.8315 13.9123 22.3195 13.6963 21.7915 13.5043C21.3755 13.3523 21.2235 13.1923 21.2235 12.7363V10.1923H18.7675C18.7675 11.0723 18.7675 11.9363 18.7675 12.7923C18.7675 13.1763 18.6075 13.3523 18.2395 13.4883C17.7035 13.6883 17.1675 13.9043 16.6475 14.1443C16.2635 14.3203 16.0475 14.3123 15.7515 14.0163C15.1915 13.4563 14.6315 12.8963 14.0635 12.3363C14.0155 12.2883 13.9675 12.2403 13.9355 12.2163C13.3515 12.8003 12.7755 13.3683 12.1755 13.9683C12.2315 14.0003 12.2795 14.0403 12.3275 14.0803C12.8955 14.6403 13.4635 15.2083 14.0235 15.7763C14.2875 16.0403 14.3195 16.2883 14.1435 16.6083C13.8475 17.1283 13.6235 17.6803 13.4635 18.2483C13.3595 18.6083 13.1595 18.7603 12.7835 18.7603H10.1755V21.2163H10.3995C11.1995 21.2163 11.9995 21.2163 12.7995 21.2163C13.1675 21.2163 13.3755 21.3683 13.4715 21.7203C13.6315 22.2963 13.8555 22.8483 14.1515 23.3603C14.3435 23.6883 14.3035 23.9363 14.0315 24.2083C13.4715 24.7763 12.9035 25.3443 12.3355 25.9043C12.2875 25.9443 12.2315 25.9843 12.1755 26.0083C12.7835 26.6163 13.3595 27.1923 13.9355 27.7763C13.9755 27.7363 14.0235 27.6883 14.0795 27.6403C14.6475 27.0723 15.2075 26.5123 15.7755 25.9443C16.0475 25.6723 16.2795 25.6643 16.6235 25.8243C17.1515 26.0643 17.6875 26.2883 18.2315 26.4963C18.6155 26.6403 18.7675 26.8083 18.7675 27.2243V29.8003H21.2235V29.6003C21.2235 28.8003 21.2235 28.0003 21.2235 27.2003C21.2235 26.8243 21.3755 26.6243 21.7435 26.5203C22.3115 26.3603 22.8555 26.1363 23.3675 25.8483C23.7035 25.6563 23.9515 25.6963 24.2315 25.9763C24.7995 26.5443 25.3675 27.1043 25.9275 27.6723C25.9755 27.7203 26.0235 27.7683 26.0555 27.8003C26.6395 27.2163 27.2075 26.6483 27.7835 26.0643C27.7515 26.0323 27.7115 25.9843 27.6635 25.9363C27.0955 25.3683 26.5275 24.7923 25.9515 24.2243C25.6795 23.9523 25.6395 23.7123 25.8315 23.3763C26.1195 22.8643 26.3515 22.3203 26.5035 21.7523C26.6075 21.3763 26.8075 21.2243 27.1995 21.2243C27.9995 21.2243 28.7995 21.2243 29.5995 21.2243H29.7995L29.8155 18.7683ZM19.9915 24.9123C17.2795 24.9043 15.0795 22.7043 15.0875 19.9843C15.0955 17.2643 17.2955 15.0723 20.0155 15.0803C22.7275 15.0883 24.9275 17.2883 24.9195 20.0083V20.0163C24.9035 22.7283 22.6955 24.9203 19.9915 24.9123ZM19.9995 16.3123C17.9675 16.3123 16.3115 17.9603 16.3115 19.9923C16.3115 22.0243 17.9595 23.6803 19.9915 23.6803C22.0235 23.6803 23.6795 22.0323 23.6795 20.0003C23.6875 17.9683 22.0395 16.3123 19.9995 16.3123Z" fill="black"/>
</svg>
