<?xml version="1.0" encoding="utf-8"?>
<!-- Generator: Adobe Illustrator 26.0.1, SVG Export Plug-In . SVG Version: 6.00 Build 0)  -->
<svg version="1.1" id="Слой_1" xmlns="http://www.w3.org/2000/svg" xmlns:xlink="http://www.w3.org/1999/xlink" x="0px" y="0px"
	 viewBox="0 0 500 500" style="enable-background:new 0 0 500 500;" xml:space="preserve">
<style type="text/css">
	.st0{fill-rule:evenodd;clip-rule:evenodd;fill:#FF161F;}
</style>
<path id="Эллипс_1_копия_6" class="st0" d="M354.4,311.4c-9.7,16.8-31.2,22.6-48,12.9c-13.5-7.8-20.3-23.6-16.6-38.8
	l-40.3-23.2l-39.6,22.8c4.9,18.8-6.4,38-25.2,42.9c-18.8,4.9-38-6.4-42.9-25.2c-4.9-18.8,6.4-38,25.2-42.9
	c11.8-3.1,24.4,0.2,33.2,8.6L241,245v-45.7c-18.7-5.2-29.7-24.5-24.5-43.3c5.2-18.7,24.5-29.7,43.3-24.5
	c18.7,5.2,29.7,24.5,24.5,43.3c-3.2,11.7-12.3,21-24,24.4v47l39.1,22.6c13.8-13.6,36.1-13.4,49.7,0.4
	C360.1,280.5,362.3,297.7,354.4,311.4z M195,285c-0.9-1-1.6-2.2-2-3.4c-6.8-9.5-20-11.6-29.5-4.8c-9.5,6.8-11.6,20-4.8,29.5
	c6.8,9.5,20,11.6,29.5,4.8C196.5,305.1,199.3,294.2,195,285L195,285z M271.5,165.4c0-11.7-9.4-21.1-21.1-21.1s-21.1,9.4-21.1,21.1
	c0,11,8.4,20.1,19.3,21c0.7-0.1,1.4-0.2,2.1-0.2c0.6,0,1.3,0.1,1.9,0.2C263.3,185.3,271.5,176.2,271.5,165.4L271.5,165.4z
	 M334.5,275.6c-9.5-5.5-21.6-2.8-27.8,6.2c-0.2,0.7-0.5,1.3-0.9,1.9c-0.3,0.6-0.7,1.1-1.1,1.6c-4.8,10.6,0,23.1,10.7,27.9
	c10.6,4.8,23.1,0,27.9-10.7C347.6,292.6,343.9,281,334.5,275.6L334.5,275.6z"/>
</svg>
