<svg width="40" height="40" viewBox="0 0 40 40" fill="none" xmlns="http://www.w3.org/2000/svg">
<path fill-rule="evenodd" clip-rule="evenodd" d="M28.5833 23.0081C27.8873 23.0001 26.9114 23.0081 26.2154 23.0081H25.3994C25.3754 23.0081 25.3514 23.0081 25.3274 23.0081H24.6394C24.6314 23.0081 24.6154 23.0081 24.6074 23.0081C24.5994 23.0081 24.5913 23.0081 24.5833 23.0081H24.5594C24.5354 23.0081 24.5113 23.0081 24.4713 23.0081H24.3354C24.3194 23.0081 24.2953 23.0081 24.2713 23.0081H24.1594C24.1354 23.0081 24.1114 23.0081 24.0874 23.0081H23.9833C23.9673 23.0081 23.9593 23.0081 23.9433 23.0081H23.8233C23.7833 23.0081 23.7354 23.0081 23.6954 23.0081H23.5513C23.5353 23.0081 23.5193 23.0081 23.5033 23.0081H23.3354C23.2954 23.0081 23.2554 23.0081 23.2154 23.0081H23.1594C23.0954 23.0081 23.0394 23.0081 22.9674 23.0081C22.3434 23.0241 21.7193 22.8561 21.1833 22.5281C20.4874 22.1041 19.9754 21.5201 19.7274 20.7201C19.4394 19.8481 19.5514 18.9041 20.0234 18.1201C20.4554 17.3521 21.1914 16.7921 22.0474 16.5841C23.0154 16.3361 23.9114 16.5201 24.7354 17.0721C25.6874 17.6961 26.2234 18.7921 26.1354 19.9201C26.1434 19.9681 26.1034 20.0161 26.0554 20.0241C26.0474 20.0241 26.0313 20.0241 26.0233 20.0241C25.5833 20.0241 25.1354 20.0241 24.6954 20.0241C24.6074 20.0241 24.5754 19.9921 24.5674 19.9041C24.5674 19.7121 24.5433 19.5121 24.5113 19.3201C24.3993 18.7681 23.9914 18.3201 23.4554 18.1521C22.9514 17.9761 22.4394 17.9921 21.9754 18.2881C21.3754 18.6721 21.1034 19.2321 21.1674 19.9521C21.2394 20.8001 21.9834 21.4401 22.7754 21.4801C22.8314 21.4801 22.8873 21.4801 22.9433 21.4801C26.3913 21.4961 21.9674 21.5041 25.4154 21.5201C26.3594 21.5201 27.5914 21.5201 28.5354 21.5201H28.7513V21.6801C28.7513 22.0641 28.7434 22.4481 28.7594 22.8321C28.7594 22.9601 28.7273 23.0081 28.5833 23.0081ZM28.4474 20.0161C28.0154 20.0161 27.5753 20.0161 27.1433 20.0161C27.0953 20.0241 27.0474 20.0001 27.0394 19.9521C27.0394 19.9361 27.0394 19.9201 27.0394 19.9121C27.0474 19.5441 27.0073 19.1761 26.9113 18.8161C26.5433 17.4001 25.4634 16.2721 24.0554 15.8481C23.2154 15.6001 22.3754 15.6481 21.5354 15.9041C20.7674 16.1361 20.0874 16.5921 19.5834 17.2161C19.1594 17.7281 18.8714 18.3521 18.7594 19.0081C18.6554 19.5761 18.6634 20.1521 18.7834 20.7201C18.8874 21.1841 19.0794 21.6241 19.3434 22.0241C19.7674 22.6721 20.3674 23.1841 21.0794 23.4881C21.6554 23.7521 22.2793 23.8881 22.9033 23.8801C25.4633 23.8721 25.7833 23.8801 28.3513 23.8801C30.1833 23.8801 26.6713 23.8801 28.5033 23.8881H28.6874C28.6874 24.3841 28.6874 24.8561 28.6874 25.3281C28.6714 25.3681 28.6394 25.3921 28.5994 25.4081C28.5674 25.4161 28.5353 25.4161 28.5033 25.4081C24.0713 25.4081 27.2233 25.4081 22.7913 25.4081C21.5833 25.4241 20.4074 25.0241 19.4554 24.2881C18.7434 23.7441 18.1434 23.0881 17.7434 22.2721C17.4714 21.7121 17.2714 21.1361 17.2234 20.5121C17.1834 20.1201 17.1754 19.7201 17.1914 19.3281C17.2154 18.7201 17.3674 18.1281 17.6314 17.5761C17.8154 17.2081 18.0234 16.8481 18.2314 16.4961C18.3034 16.3841 18.3994 16.2801 18.4954 16.1921C18.6714 16.0161 18.8474 15.8401 19.0234 15.6641C19.5434 15.1441 20.1754 14.8161 20.8474 14.5601C21.7274 14.2241 22.6394 14.1681 23.5594 14.2481C24.1034 14.3041 24.6393 14.4481 25.1433 14.6721C25.6153 14.8721 26.0554 15.1361 26.4554 15.4561C26.7194 15.6801 26.9673 15.9201 27.1833 16.1841C27.4153 16.4561 27.6234 16.7441 27.8074 17.0561C28.2074 17.7441 28.4553 18.5121 28.5113 19.3041C28.5273 19.4961 28.5353 19.6961 28.5433 19.8881C28.5513 19.9761 28.5354 20.0161 28.4474 20.0161ZM15.9754 25.4161C15.6154 25.4081 15.2474 25.4081 14.8794 25.4161C14.7434 25.4161 14.7034 25.3761 14.7034 25.2401C14.7034 23.6801 14.7034 22.1201 14.6954 20.5601C14.6954 20.0881 14.7034 19.6161 14.6954 19.1441C14.6794 18.0161 14.6554 16.8961 14.6474 15.7681C14.6474 15.6481 14.5914 15.6321 14.4954 15.6321C13.9114 15.6321 13.3194 15.6321 12.7354 15.6321C12.6234 15.6321 12.5754 15.6081 12.5834 15.4881C12.5914 15.1121 12.5914 14.7441 12.5834 14.3681C12.5834 14.2481 12.6314 14.2161 12.7354 14.2161C13.8234 14.2161 14.9114 14.2161 15.9994 14.2161C16.1434 14.2161 16.1434 14.2881 16.1434 14.3921C16.1434 16.2001 16.1434 18.0081 16.1434 19.8161C16.1434 21.6241 16.1434 23.4321 16.1434 25.2401C16.1434 25.3681 16.1114 25.4161 15.9754 25.4161ZM14.0154 16.7041C14.0074 18.6721 14.0074 20.6481 14.0074 22.6161C14.0074 23.4961 14.0074 24.3841 14.0154 25.2641C14.0154 25.3761 13.9834 25.4081 13.8714 25.4081C13.5194 25.4001 13.1594 25.4001 12.8074 25.4081C12.6714 25.4081 12.6314 25.3681 12.6314 25.2401C12.6314 23.3041 12.6394 21.3601 12.6314 19.4241C12.6314 18.9761 12.6234 18.5281 12.6314 18.0801C12.6314 17.9441 12.5994 17.8961 12.4554 17.8961C12.0474 17.9041 11.6314 17.8961 11.2234 17.9041C11.1034 17.9041 11.0554 17.8801 11.0634 17.7521C11.0714 17.3601 11.0634 16.9601 11.0634 16.5361H11.2394C12.1034 16.5361 12.9674 16.5361 13.8314 16.5281C13.9674 16.5281 14.0154 16.5601 14.0154 16.7041Z" fill="black"/>
</svg>
