<svg width="40" height="34" viewBox="0 0 40 34" fill="none" xmlns="http://www.w3.org/2000/svg">
<path fill-rule="evenodd" clip-rule="evenodd" d="M2.73328 33.5278C2.00837 33.5278 1.31314 33.2399 0.800554 32.7273C0.287965 32.2147 0 31.5195 0 30.7946V21.6836C0 20.9587 0.287965 20.2635 0.800554 19.7509C1.31314 19.2383 2.00837 18.9504 2.73328 18.9504C3.45819 18.9504 4.15341 19.2383 4.666 19.7509C5.17859 20.2635 5.46656 20.9587 5.46656 21.6836V30.7946C5.46656 31.5195 5.17859 32.2147 4.666 32.7273C4.15341 33.2399 3.45819 33.5278 2.73328 33.5278Z" fill="black"/>
<path d="M15.378 32.7273C15.8906 33.2399 16.5858 33.5278 17.3108 33.5278C18.0357 33.5278 18.7309 33.2399 19.2435 32.7273C19.7561 32.2147 20.044 31.5195 20.044 30.7946V3.46179C20.044 2.73688 19.7561 2.04166 19.2435 1.52907C18.7309 1.01648 18.0357 0.728516 17.3108 0.728516C16.5858 0.728516 15.8906 1.01648 15.378 1.52907C14.8654 2.04166 14.5775 2.73688 14.5775 3.46179V30.7946C14.5775 31.5195 14.8654 32.2147 15.378 32.7273Z" fill="black"/>
<path d="M30.32 32.7276C30.8325 33.2402 31.1633 33.4371 31.8882 33.4371C32.6131 33.4371 32.9439 33.2402 33.4565 32.7276C33.9691 32.2151 34.2571 31.5198 34.2571 30.7949V3.46215C34.2571 2.73724 33.9691 2.04201 33.4565 1.52943C32.9439 1.01684 32.6131 0.819981 31.8882 0.819981C31.1633 0.819981 30.8325 1.01684 30.32 1.52943C29.8074 2.04201 29.5194 2.73724 29.5194 3.46215V30.7949C29.5194 31.5198 29.8074 32.2151 30.32 32.7276Z" fill="black"/>
<path fill-rule="evenodd" clip-rule="evenodd" d="M37.9471 13.4936C37.3193 13.856 36.9799 13.9298 36.2797 13.7422C35.5795 13.5546 34.9825 13.0965 34.6201 12.4687L30.0646 4.57842C29.7021 3.95063 29.6039 3.20457 29.7915 2.50436C29.9792 1.80415 30.2127 1.54718 30.8405 1.18472C31.4683 0.822265 31.8077 0.74845 32.5079 0.936071C33.2081 1.12369 33.8051 1.58179 34.1675 2.20958L38.723 10.0999C39.0855 10.7277 39.1837 11.4737 38.9961 12.1739C38.8084 12.8741 38.5749 13.1311 37.9471 13.4936Z" fill="black"/>
<path fill-rule="evenodd" clip-rule="evenodd" d="M25.7418 13.4933C25.114 13.1308 24.8804 12.8739 24.6928 12.1736C24.5052 11.4734 24.6034 10.7274 24.9659 10.0996L29.5213 2.20928C29.8838 1.58149 30.4808 1.12339 31.181 0.935771C31.8812 0.74815 32.2206 0.821965 32.8484 1.18442C33.4761 1.54688 33.7097 1.80385 33.8974 2.50406C34.085 3.20427 33.9868 3.95033 33.6243 4.57812L29.0688 12.4684C28.7064 13.0962 28.1094 13.5543 27.4092 13.7419C26.709 13.9295 26.3696 13.8557 25.7418 13.4933Z" fill="black"/>
</svg>
