<svg width="40" height="34" viewBox="0 0 40 34" fill="none" xmlns="http://www.w3.org/2000/svg">
<path fill-rule="evenodd" clip-rule="evenodd" d="M2.73329 32.7995C2.00838 32.7995 1.31315 32.5115 0.800557 31.9989C0.287966 31.4863 0 30.7911 0 30.0662V20.9552C0 20.2303 0.287966 19.5351 0.800557 19.0225C1.31315 18.5099 2.00838 18.2219 2.73329 18.2219C3.4582 18.2219 4.15343 18.5099 4.66602 19.0225C5.17862 19.5351 5.46658 20.2303 5.46658 20.9552V30.0662C5.46658 30.7911 5.17862 31.4863 4.66602 31.9989C4.15343 32.5115 3.4582 32.7995 2.73329 32.7995Z" fill="white"/>
<path d="M15.3781 31.9989C15.8907 32.5115 16.5859 32.7995 17.3108 32.7995C18.0358 32.7995 18.731 32.5115 19.2436 31.9989C19.7562 31.4863 20.0441 30.7911 20.0441 30.0662V2.73329C20.0441 2.00838 19.7562 1.31315 19.2436 0.800557C18.731 0.287966 18.0358 0 17.3108 0C16.5859 0 15.8907 0.287966 15.3781 0.800557C14.8655 1.31315 14.5776 2.00838 14.5776 2.73329V30.0662C14.5776 30.7911 14.8655 31.4863 15.3781 31.9989Z" fill="white"/>
<path d="M30.3201 31.9993C30.8327 32.5119 31.1635 32.7087 31.8884 32.7087C32.6133 32.7087 32.9441 32.5119 33.4567 31.9993C33.9693 31.4867 34.2572 30.7915 34.2572 30.0666V2.73365C34.2572 2.00873 33.9693 1.3135 33.4567 0.800913C32.9441 0.288322 32.6133 0.0914656 31.8884 0.0914656C31.1635 0.0914656 30.8327 0.288322 30.3201 0.800913C29.8075 1.3135 29.5195 2.00873 29.5195 2.73365V30.0666C29.5195 30.7915 29.8075 31.4867 30.3201 31.9993Z" fill="white"/>
<path fill-rule="evenodd" clip-rule="evenodd" d="M25.7404 20.1333C26.3682 19.7709 26.7075 19.6971 27.4077 19.8847C28.108 20.0723 28.705 20.5304 29.0674 21.1582L33.6229 29.0485C33.9854 29.6763 34.0836 30.4224 33.896 31.1226C33.7083 31.8228 33.4747 32.0798 32.847 32.4422C32.2192 32.8047 31.8798 32.8785 31.1796 32.6909C30.4794 32.5033 29.8824 32.0452 29.5199 31.4174L24.9644 23.527C24.602 22.8992 24.5038 22.1532 24.6914 21.453C24.879 20.7528 25.1126 20.4958 25.7404 20.1333Z" fill="white"/>
<path fill-rule="evenodd" clip-rule="evenodd" d="M37.9496 20.1336C38.5774 20.4961 38.811 20.753 38.9986 21.4533C39.1862 22.1535 39.088 22.8995 38.7256 23.5273L34.1701 31.4177C33.8076 32.0455 33.2106 32.5036 32.5104 32.6912C31.8102 32.8788 31.4708 32.805 30.843 32.4425C30.2153 32.0801 29.9817 31.8231 29.794 31.1229C29.6064 30.4227 29.7046 29.6766 30.0671 29.0488L34.6226 21.1585C34.985 20.5307 35.582 20.0726 36.2823 19.885C36.9825 19.6973 37.3218 19.7712 37.9496 20.1336Z" fill="white"/>
</svg>
