<svg width="109" height="180" viewBox="0 0 109 180" fill="none" xmlns="http://www.w3.org/2000/svg">
<path fill-rule="evenodd" clip-rule="evenodd" d="M94.1364 -1.3228e-05C90.1943 -1.35726e-05 86.4136 1.58031 83.6262 4.39336C80.8387 7.2064 79.2727 11.0217 79.2727 15L79.2727 165C79.2727 168.978 80.8387 172.794 83.6262 175.607C86.4136 178.42 90.1943 180 94.1364 180C98.0784 180 101.859 178.42 104.647 175.607C107.434 172.794 109 168.978 109 165L109 15C109 11.0217 107.434 7.20641 104.647 4.39336C101.859 1.58031 98.0784 -1.28834e-05 94.1364 -1.3228e-05ZM14.8637 -2.01583e-05C10.9216 -2.05029e-05 7.14092 1.58031 4.35345 4.39335C1.56597 7.2064 1.47725e-05 11.0217 1.44248e-05 15L1.00536e-05 65C9.70583e-06 68.9782 1.56597 72.7936 4.35344 75.6066C7.14091 78.4197 10.9216 80 14.8636 80C18.8057 80 22.5864 78.4197 25.3738 75.6066C28.1613 72.7936 29.7273 68.9782 29.7273 65L29.7273 15C29.7273 11.0217 28.1613 7.2064 25.3739 4.39335C22.5864 1.58031 18.8057 -1.98136e-05 14.8637 -2.01583e-05Z" fill="white"/>
</svg>
