<svg width="24" height="24" viewBox="0 0 24 24" fill="none" xmlns="http://www.w3.org/2000/svg">
<path fill-rule="evenodd" clip-rule="evenodd" d="M12 11.2421L16.085 7.15643C16.1893 7.05214 16.3271 7 16.4643 7C16.7529 7 17 7.23143 17 7.535C17 7.67286 16.9479 7.81 16.8436 7.915L12.7579 12L16.8429 16.085C16.9479 16.19 17 16.3271 17 16.4643C17 16.7693 16.7507 17 16.4643 17C16.3271 17 16.1893 16.9479 16.085 16.8436L12 12.7586L7.915 16.8436C7.81071 16.9479 7.67286 17 7.53571 17C7.24929 17 7 16.7693 7 16.4643C7 16.3271 7.05214 16.19 7.15714 16.085L11.2421 12L7.15643 7.915C7.05214 7.81 7 7.67286 7 7.535C7 7.23143 7.24714 7 7.53571 7C7.67286 7 7.81071 7.05214 7.915 7.15643L12 11.2421Z" fill="black"/>
</svg>
