<svg width="480" height="480" viewBox="0 0 480 480" fill="none" xmlns="http://www.w3.org/2000/svg">
<g clip-path="url(#clip0_1081_504)">
<path fill-rule="evenodd" clip-rule="evenodd" d="M465 30C456.7 30 450 23.3 450 15C450 6.7 456.7 0 465 0C473.3 0 480 6.7 480 15C480 23.3 473.3 30 465 30ZM405 40C396.7 40 390 33.3 390 25C390 16.7 396.7 10 405 10C413.3 10 420 16.7 420 25C420 33.3 413.3 40 405 40ZM345 60C336.7 60 330 53.3 330 45C330 36.7 336.7 30 345 30C353.3 30 360 36.7 360 45C360 53.3 353.3 60 345 60ZM285 80C276.7 80 270 73.3 270 65C270 56.7 276.7 50 285 50C293.3 50 300 56.7 300 65C300 73.3 293.3 80 285 80ZM235 110C226.7 110 220 103.3 220 95C220 86.7 226.7 80 235 80C243.3 80 250 86.7 250 95C250 103.3 243.3 110 235 110ZM185 150C176.7 150 170 143.3 170 135C170 126.7 176.7 120 185 120C193.3 120 200 126.7 200 135C200 143.3 193.3 150 185 150ZM135 200C126.7 200 120 193.3 120 185C120 176.7 126.7 170 135 170C143.3 170 150 176.7 150 185C150 193.3 143.3 200 135 200ZM95 250C86.7 250 80 243.3 80 235C80 226.7 86.7 220 95 220C103.3 220 110 226.7 110 235C110 243.3 103.3 250 95 250ZM65 300C56.7 300 50 293.3 50 285C50 276.7 56.7 270 65 270C73.3 270 80 276.7 80 285C80 293.3 73.3 300 65 300ZM60 345C60 353.3 53.3 360 45 360C36.7 360 30 353.3 30 345C30 336.7 36.7 330 45 330C53.3 330 60 336.7 60 345ZM40 405C40 413.3 33.3 420 25 420C16.7 420 10 413.3 10 405C10 396.7 16.7 390 25 390C33.3 390 40 396.7 40 405ZM30 465C30 473.3 23.3 480 15 480C6.7 480 0 473.3 0 465C0 456.7 6.7 450 15 450C23.3 450 30 456.7 30 465Z" fill="#666666"/>
</g>
<defs>
<clipPath id="clip0_1081_504">
<rect width="480" height="480" fill="white"/>
</clipPath>
</defs>
</svg>
