<svg width="25" height="20" viewBox="0 0 25 20" fill="none" xmlns="http://www.w3.org/2000/svg">
<path fill-rule="evenodd" clip-rule="evenodd" d="M24.9551 16.9398C24.9043 17.1015 24.8074 17.2423 24.6779 17.3423C24.5484 17.4423 24.3928 17.4966 24.2329 17.4976C22.9229 17.5012 21.6129 17.5012 20.3031 17.4976C20.0963 17.497 19.8983 17.4087 19.7526 17.2523C19.6069 17.0959 19.5254 16.8841 19.526 16.6635C19.5267 16.443 19.6094 16.2318 19.756 16.0763C19.9026 15.9208 20.1011 15.8339 20.3078 15.8346C21.3004 15.8311 22.2931 15.8335 23.2856 15.8335H23.4263C23.4316 15.8038 23.4352 15.7738 23.437 15.7436C23.437 14.3591 23.451 12.9741 23.4316 11.5903C23.4185 10.6605 23.0414 9.92829 22.2628 9.46661C21.8986 9.25906 21.4903 9.15568 21.0775 9.16654C19.788 9.16719 18.4984 9.16719 17.2088 9.16654C17.1046 9.16988 17.0009 9.15095 16.9037 9.11087C16.8065 9.07078 16.7178 9.01035 16.6428 8.93313C16.5678 8.8559 16.5081 8.76345 16.4671 8.66123C16.4262 8.559 16.4048 8.44906 16.4043 8.33788C16.4037 8.2267 16.4241 8.11653 16.4641 8.01386C16.504 7.91119 16.5629 7.8181 16.6371 7.74007C16.7114 7.66204 16.7995 7.60065 16.8963 7.55951C16.9931 7.51837 17.0967 7.49832 17.2009 7.50054C18.2301 7.49829 19.2593 7.49851 20.2885 7.50119C20.7032 7.50227 21.1192 7.49598 21.5323 7.52897C22.3615 7.60427 23.1442 7.96997 23.7584 8.56914C24.3725 9.16831 24.7838 9.96732 24.9281 10.8418C24.9534 11.0035 24.9761 11.1656 25 11.3279V16.8223C24.9847 16.862 24.9683 16.8999 24.9551 16.9398ZM19.5241 6.66639C18.9059 6.66482 18.3021 6.46766 17.789 6.09986C17.276 5.73206 16.8767 5.21015 16.6417 4.60017C16.4068 3.9902 16.3467 3.31957 16.4691 2.67316C16.5915 2.02674 16.8909 1.43359 17.3294 0.968767C17.7679 0.50394 18.3257 0.188328 18.9324 0.0618685C19.5391 -0.0645914 20.1673 0.00378232 20.7375 0.258342C21.3077 0.512902 21.7944 0.942205 22.1358 1.49193C22.4773 2.04165 22.6582 2.68708 22.6558 3.34655C22.6517 4.22937 22.3198 5.07447 21.7328 5.69673C21.1458 6.31899 20.3515 6.66767 19.5241 6.66639ZM19.5435 1.66731C19.2343 1.66471 18.9313 1.76008 18.673 1.94133C18.4147 2.12258 18.2125 2.38156 18.0923 2.68546C17.972 2.98936 17.939 3.32451 17.9974 3.64844C18.0559 3.97237 18.2031 4.27052 18.4205 4.5051C18.6379 4.73969 18.9156 4.90016 19.2186 4.96619C19.5215 5.03222 19.836 5.00083 20.1222 4.876C20.4084 4.75118 20.6535 4.53853 20.8263 4.265C20.9991 3.99147 21.092 3.66937 21.0931 3.33949C21.0945 2.8988 20.9323 2.47542 20.6419 2.16203C20.3515 1.84863 19.9565 1.67075 19.5435 1.66731ZM12.4919 8.33359C11.8743 8.33172 11.2711 8.13463 10.7585 7.76722C10.2459 7.3998 9.84681 6.87854 9.61172 6.26927C9.37663 5.66001 9.31605 4.99008 9.43765 4.34411C9.55924 3.69814 9.85756 3.10511 10.2949 2.63992C10.7323 2.17473 11.289 1.85827 11.8949 1.73049C12.5007 1.60272 13.1285 1.66936 13.6988 1.92202C14.2692 2.17468 14.7566 2.60201 15.0994 3.15003C15.4422 3.69805 15.6252 4.34217 15.625 5.00104C15.6244 5.43935 15.5429 5.87324 15.3851 6.27793C15.2274 6.68262 14.9964 7.05019 14.7055 7.35965C14.4145 7.66911 14.0693 7.9144 13.6895 8.08151C13.3097 8.24862 12.9027 8.33427 12.4919 8.33359ZM12.5061 3.33331C12.197 3.3321 11.8946 3.42874 11.637 3.61097C11.3794 3.79321 11.1783 4.05286 11.0591 4.35707C10.9399 4.66128 10.908 4.99638 10.9674 5.31996C11.0267 5.64354 11.1747 5.94107 11.3926 6.17488C11.6105 6.4087 11.8886 6.5683 12.1915 6.63349C12.4945 6.69868 12.8087 6.66653 13.0946 6.5411C13.3804 6.41568 13.6249 6.20262 13.7972 5.92889C13.9695 5.65515 14.0618 5.33304 14.0624 5.00332C14.063 4.56186 13.8995 4.13817 13.6078 3.82512C13.316 3.51206 12.9198 3.3352 12.5061 3.33331ZM8.05437 9.12139C7.95296 9.1521 7.84788 9.16672 7.74248 9.1648C6.44468 9.16827 5.14697 9.16252 3.84937 9.17001C3.29819 9.16155 2.76316 9.36863 2.34527 9.75215C2.1007 9.97058 1.90432 10.2439 1.77014 10.5526C1.63596 10.8613 1.56728 11.1978 1.569 11.5381C1.55181 12.9489 1.56331 14.3591 1.563 15.7686C1.563 15.7859 1.56636 15.8021 1.56972 15.8337H1.71467C2.70313 15.8337 3.6918 15.8302 4.68016 15.8348C4.88709 15.8341 5.08579 15.9212 5.23255 16.0768C5.37931 16.2325 5.4621 16.4439 5.46273 16.6647C5.46335 16.8855 5.38174 17.0974 5.23586 17.254C5.08997 17.4106 4.89176 17.4989 4.68484 17.4996C3.38703 17.5002 2.08929 17.5002 0.791621 17.4996C0.621176 17.5024 0.454557 17.4456 0.317266 17.3378C0.179975 17.23 0.079576 17.0771 0.031432 16.9027C0.0229888 16.876 0.0104777 16.8494 0 16.8222V11.3279C0.0481159 11.0521 0.0807686 10.7706 0.147195 10.4995C0.336726 9.7309 0.736491 9.03996 1.29553 8.51473C1.85456 7.98949 2.54754 7.65377 3.28612 7.55035C3.455 7.52289 3.62538 7.50723 3.79617 7.50347C5.13446 7.49949 6.47282 7.49873 7.81125 7.50119C7.99713 7.4999 8.17731 7.56966 8.31915 7.69784C8.461 7.82602 8.55514 8.00415 8.58452 8.19998C8.61391 8.39581 8.5766 8.59639 8.47935 8.7654C8.3821 8.93442 8.23134 9.06071 8.05437 9.12139ZM5.46985 6.66639C4.85171 6.66652 4.24743 6.47103 3.73347 6.10464C3.21951 5.73826 2.81897 5.21745 2.58254 4.60813C2.34611 3.99881 2.28441 3.32835 2.40524 2.68161C2.52608 2.03486 2.82403 1.44089 3.26138 0.974851C3.69873 0.508816 4.25583 0.191665 4.86218 0.0635278C5.46853 -0.0646096 6.09689 0.00202538 6.66774 0.255004C7.23858 0.507982 7.72626 0.935933 8.06906 1.4847C8.41186 2.03347 8.59438 2.6784 8.59351 3.33787C8.59163 4.22076 8.26178 5.06686 7.67623 5.69077C7.09069 6.31467 6.2972 6.66551 5.46964 6.66639H5.46985ZM5.47493 1.66731C5.16642 1.66616 4.86451 1.76252 4.60727 1.94422C4.35003 2.12592 4.14899 2.38483 4.02951 2.68828C3.91003 2.99174 3.87746 3.32614 3.93591 3.64932C3.99436 3.9725 4.14121 4.26998 4.35794 4.50422C4.57467 4.73846 4.85157 4.89898 5.1537 4.96553C5.45584 5.03208 5.76968 5.00168 6.05565 4.87816C6.34161 4.75464 6.58688 4.54354 6.76052 4.27149C6.93416 3.99943 7.02839 3.6786 7.03132 3.34948C7.03326 3.1298 6.99446 2.91189 6.91717 2.70827C6.83987 2.50465 6.72561 2.31935 6.58094 2.16301C6.43628 2.00668 6.26407 1.8824 6.07423 1.79733C5.88438 1.71225 5.68064 1.66807 5.47473 1.66731H5.47493ZM8.24449 10.2643C8.93118 9.56796 9.84146 9.17813 10.7888 9.17468C11.9274 9.15091 13.0675 9.15438 14.206 9.17175C15.1565 9.17949 16.0692 9.56957 16.7618 10.2641C17.4544 10.9585 17.8759 11.9063 17.942 12.9179C17.9884 13.5963 17.9658 14.2793 17.9673 14.961C17.9702 16.3403 17.9682 17.7201 17.9682 19.1006C17.9682 19.6541 17.6426 19.9996 17.1215 19.9996H12.4961C10.9624 20.0001 9.42864 20.0001 7.89476 19.9996C7.3484 19.9996 7.03102 19.6613 7.03102 19.0797C7.03102 17.1697 7.02797 15.2606 7.03203 13.3512C7.03468 12.1452 7.41177 11.0979 8.24429 10.2643H8.24449ZM8.59402 18.2003C8.59402 18.2415 8.59748 18.2832 8.59951 18.3284H16.3984C16.4016 18.3116 16.404 18.2945 16.4054 18.2774C16.4054 16.5853 16.4206 14.8933 16.3992 13.2018C16.3822 11.8642 15.4067 10.8516 14.153 10.8372C13.0509 10.8239 11.9485 10.8291 10.8463 10.8372C10.3953 10.8352 9.95452 10.9799 9.58258 11.252C8.90011 11.7519 8.59849 12.4666 8.59585 13.3321C8.58924 14.9546 8.59351 16.5772 8.59351 18.2003H8.59402Z" fill="white"/>
</svg>
