<svg width="40" height="40" viewBox="0 0 40 40" fill="none" xmlns="http://www.w3.org/2000/svg">
<path fill-rule="evenodd" clip-rule="evenodd" d="M30.9605 25.5518C30.9158 25.6812 30.8305 25.7938 30.7165 25.8738C30.6026 25.9539 30.4656 25.9973 30.3249 25.9981C29.1721 26.0009 28.0194 26.0009 26.8667 25.9981C26.6848 25.9976 26.5105 25.927 26.3823 25.8018C26.2541 25.6767 26.1823 25.5073 26.1829 25.3308C26.1835 25.1544 26.2563 24.9854 26.3853 24.861C26.5143 24.7367 26.689 24.6671 26.8709 24.6676C27.7443 24.6649 28.6179 24.6668 29.4914 24.6668H29.6152C29.6198 24.643 29.623 24.619 29.6246 24.5949C29.6246 23.4873 29.6369 22.3793 29.6198 21.2722C29.6083 20.5284 29.2764 19.9426 28.5913 19.5733C28.2708 19.4072 27.9114 19.3245 27.5482 19.3332C26.4134 19.3338 25.2786 19.3338 24.1437 19.3332C24.0521 19.3359 23.9608 19.3208 23.8752 19.2887C23.7897 19.2566 23.7116 19.2083 23.6457 19.1465C23.5797 19.0847 23.5271 19.0108 23.4911 18.929C23.455 18.8472 23.4362 18.7592 23.4358 18.6703C23.4353 18.5814 23.4532 18.4932 23.4884 18.4111C23.5236 18.329 23.5753 18.2545 23.6407 18.1921C23.706 18.1296 23.7835 18.0805 23.8687 18.0476C23.9539 18.0147 24.0451 17.9987 24.1368 18.0004C25.0425 17.9986 25.9482 17.9988 26.8539 18.001C27.2189 18.0018 27.5849 17.9968 27.9484 18.0232C28.6782 18.0834 29.3669 18.376 29.9074 18.8553C30.4478 19.3346 30.8097 19.9739 30.9367 20.6734C30.959 20.8028 30.979 20.9325 31 21.0623V25.4578C30.9866 25.4896 30.9721 25.5199 30.9605 25.5518ZM26.1812 17.3331C25.6372 17.3319 25.1059 17.1741 24.6543 16.8799C24.2028 16.5856 23.8515 16.1681 23.6447 15.6801C23.438 15.1922 23.3851 14.6557 23.4928 14.1385C23.6005 13.6214 23.864 13.1469 24.2498 12.775C24.6357 12.4032 25.1266 12.1507 25.6605 12.0495C26.1944 11.9483 26.7472 12.003 27.249 12.2067C27.7508 12.4103 28.179 12.7538 28.4795 13.1935C28.78 13.6333 28.9392 14.1497 28.9371 14.6772C28.9335 15.3835 28.6414 16.0596 28.1248 16.5574C27.6083 17.0552 26.9094 17.3341 26.1812 17.3331ZM26.1983 13.3338C25.9262 13.3318 25.6596 13.4081 25.4322 13.5531C25.2049 13.6981 25.027 13.9052 24.9212 14.1484C24.8154 14.3915 24.7863 14.6596 24.8377 14.9188C24.8892 15.1779 25.0187 15.4164 25.21 15.6041C25.4013 15.7918 25.6457 15.9201 25.9123 15.973C26.1789 16.0258 26.4557 16.0007 26.7075 15.9008C26.9594 15.8009 27.175 15.6308 27.3271 15.412C27.4792 15.1932 27.5609 14.9355 27.5619 14.6716C27.5632 14.319 27.4205 13.9803 27.1649 13.7296C26.9093 13.4789 26.5618 13.3366 26.1983 13.3338ZM19.9929 18.6669C19.4494 18.6654 18.9186 18.5077 18.4675 18.2138C18.0164 17.9198 17.6652 17.5028 17.4583 17.0154C17.2514 16.528 17.1981 15.9921 17.3051 15.4753C17.4121 14.9585 17.6747 14.4841 18.0595 14.1119C18.4444 13.7398 18.9343 13.4866 19.4675 13.3844C20.0006 13.2822 20.5531 13.3355 21.055 13.5376C21.5569 13.7397 21.9858 14.0816 22.2875 14.52C22.5892 14.9584 22.7501 15.4737 22.75 16.0008C22.7495 16.3515 22.6778 16.6986 22.5389 17.0223C22.4001 17.3461 22.1968 17.6402 21.9408 17.8877C21.6848 18.1353 21.381 18.3315 21.0467 18.4652C20.7125 18.5989 20.3544 18.6674 19.9929 18.6669ZM20.0053 14.6666C19.7334 14.6657 19.4672 14.743 19.2406 14.8888C19.0139 15.0346 18.8369 15.2423 18.732 15.4857C18.6271 15.729 18.599 15.9971 18.6513 16.256C18.7035 16.5148 18.8338 16.7529 19.0255 16.9399C19.2173 17.127 19.4619 17.2546 19.7285 17.3068C19.9951 17.3589 20.2717 17.3332 20.5232 17.2329C20.7747 17.1325 20.9899 16.9621 21.1415 16.7431C21.2931 16.5241 21.3744 16.2664 21.3749 16.0027C21.3755 15.6495 21.2316 15.3105 20.9749 15.0601C20.7181 14.8097 20.3695 14.6682 20.0053 14.6666ZM16.0878 19.2971C15.9986 19.3217 15.9061 19.3334 15.8134 19.3318C14.6713 19.3346 13.5293 19.33 12.3874 19.336C11.9024 19.3292 11.4316 19.4949 11.0638 19.8017C10.8486 19.9765 10.6758 20.1951 10.5577 20.4421C10.4396 20.689 10.3792 20.9582 10.3807 21.2305C10.3656 22.3591 10.3757 23.4873 10.3754 24.6149C10.3754 24.6288 10.3784 24.6417 10.3814 24.667H10.5089C11.3788 24.667 12.2488 24.6642 13.1185 24.6678C13.3006 24.6673 13.4755 24.7369 13.6046 24.8615C13.7338 24.986 13.8067 25.1551 13.8072 25.3317C13.8077 25.5084 13.7359 25.678 13.6076 25.8032C13.4792 25.9285 13.3048 25.9991 13.1227 25.9997C11.9806 26.0002 10.8386 26.0002 9.69663 25.9997C9.54663 26.0019 9.40001 25.9565 9.27919 25.8702C9.15838 25.784 9.07003 25.6617 9.02766 25.5221C9.02023 25.5008 9.00922 25.4795 9 25.4577V21.0623C9.04234 20.8417 9.07108 20.6165 9.12953 20.3996C9.29632 19.7847 9.64811 19.232 10.1401 18.8118C10.632 18.3916 11.2418 18.123 11.8918 18.0403C12.0404 18.0183 12.1903 18.0058 12.3406 18.0028C13.5183 17.9996 14.6961 17.999 15.8739 18.001C16.0375 17.9999 16.196 18.0557 16.3209 18.1583C16.4457 18.2608 16.5285 18.4033 16.5544 18.56C16.5802 18.7166 16.5474 18.8771 16.4618 19.0123C16.3763 19.1475 16.2436 19.2486 16.0878 19.2971ZM13.8135 17.3331C13.2695 17.3332 12.7377 17.1768 12.2855 16.8837C11.8332 16.5906 11.4807 16.174 11.2726 15.6865C11.0646 15.199 11.0103 14.6627 11.1166 14.1453C11.2229 13.6279 11.4851 13.1527 11.87 12.7799C12.2549 12.4071 12.7451 12.1533 13.2787 12.0508C13.8123 11.9483 14.3653 12.0016 14.8676 12.204C15.37 12.4064 15.7991 12.7487 16.1008 13.1878C16.4024 13.6268 16.5631 14.1427 16.5623 14.6703C16.5606 15.3766 16.2704 16.0535 15.7551 16.5526C15.2398 17.0517 14.5415 17.3324 13.8133 17.3331H13.8135ZM13.8179 13.3338C13.5465 13.3329 13.2808 13.41 13.0544 13.5554C12.828 13.7007 12.6511 13.9079 12.546 14.1506C12.4408 14.3934 12.4122 14.6609 12.4636 14.9195C12.515 15.178 12.6443 15.416 12.835 15.6034C13.0257 15.7908 13.2694 15.9192 13.5353 15.9724C13.8011 16.0257 14.0773 16.0013 14.329 15.9025C14.5806 15.8037 14.7965 15.6348 14.9493 15.4172C15.1021 15.1995 15.185 14.9429 15.1876 14.6796C15.1893 14.5038 15.1551 14.3295 15.0871 14.1666C15.0191 14.0037 14.9185 13.8555 14.7912 13.7304C14.6639 13.6053 14.5124 13.5059 14.3453 13.4379C14.1783 13.3698 13.999 13.3345 13.8178 13.3338H13.8179ZM16.2552 20.2114C16.8594 19.6544 17.6605 19.3425 18.4942 19.3397C19.4961 19.3207 20.4994 19.3235 21.5013 19.3374C22.3377 19.3436 23.1409 19.6557 23.7504 20.2112C24.3599 20.7668 24.7308 21.525 24.789 22.3343C24.8298 22.877 24.8099 23.4234 24.8112 23.9688C24.8138 25.0722 24.812 26.1761 24.812 27.2805C24.812 27.7233 24.5255 27.9997 24.0669 27.9997H19.9966C18.6469 28.0001 17.2972 28.0001 15.9474 27.9997C15.4666 27.9997 15.1873 27.7291 15.1873 27.2638C15.1873 25.7357 15.1846 24.2084 15.1882 22.681C15.1905 21.7161 15.5224 20.8783 16.255 20.2114H16.2552ZM16.5627 26.5603C16.5627 26.5932 16.5658 26.6265 16.5676 26.6627H23.4305C23.4334 26.6492 23.4355 26.6356 23.4367 26.6219C23.4367 25.2683 23.4502 23.9146 23.4313 22.5614C23.4163 21.4914 22.5579 20.6813 21.4546 20.6698C20.4848 20.6591 19.5147 20.6633 18.5448 20.6698C18.1479 20.6682 17.76 20.7839 17.4327 21.0016C16.8321 21.4015 16.5667 21.9733 16.5643 22.6657C16.5585 23.9637 16.5623 25.2618 16.5623 26.5603H16.5627Z" fill="#FF161F"/>
</svg>
