<svg width="3787" height="3787" viewBox="0 0 3787 3787" fill="none" xmlns="http://www.w3.org/2000/svg">
<g clip-path="url(#clip0_42_27)">
<path fill-rule="evenodd" clip-rule="evenodd" d="M1818.4 670.9C1201.6 708.2 708 1201.6 670.7 1818.4H0C38.4 831.5 831.5 38.4 1818.4 0V670.9ZM1978.4 3115.1C2587.2 3073.3 3073.7 2587.1 3115.4 1978.3H3786.4C3743.2 2957.2 2957.3 3743.1 1978.4 3786.3V3115.1Z" fill="black"/>
<path fill-rule="evenodd" clip-rule="evenodd" d="M3116 1818.4C3079 1205 2590.5 713.7 1978.4 671.7V0.400391C2960.7 43.8004 3748.5 834.9 3786.8 1818.4H3116ZM1818.4 3115.9V3786.8C834.8 3748.5 43.7999 2960.7 0.399902 1978.4H671.4C713.3 2590.5 1205 3078.8 1818.4 3115.9Z" fill="#FF161F"/>
</g>
<defs>
<clipPath id="clip0_42_27">
<rect width="3786.8" height="3786.8" fill="white"/>
</clipPath>
</defs>
</svg>
