<svg width="489" height="494" viewBox="0 0 489 494" fill="none" xmlns="http://www.w3.org/2000/svg">
<g clip-path="url(#clip0_42_27)">
<path fill-rule="evenodd" clip-rule="evenodd" d="M384.155 -164.266C253.85 -156.386 149.572 -52.1498 141.692 78.1555H0C8.11239 -130.337 175.663 -297.888 384.155 -306V-164.266ZM417.957 352.097C546.572 343.266 649.35 240.551 658.16 111.936H799.915C790.789 318.739 624.76 484.768 417.957 493.894V352.097Z" fill="black"/>
<path fill-rule="evenodd" clip-rule="evenodd" d="M658.287 78.1555C650.47 -51.4315 547.269 -155.224 417.957 -164.097V-305.916C625.478 -296.747 791.909 -129.619 800 78.1555H658.287ZM384.155 352.266V494C176.36 485.909 9.25316 319.478 0.0844727 111.957H141.84C150.692 241.269 254.568 344.428 384.155 352.266Z" fill="#FF161F"/>
</g>
<defs>
<clipPath id="clip0_42_27">
<rect width="489" height="494" fill="white"/>
</clipPath>
</defs>
</svg>
