<svg width="748" height="800" viewBox="0 0 748 800" fill="none" xmlns="http://www.w3.org/2000/svg">
<g clip-path="url(#clip0_318_12)">
<path fill-rule="evenodd" clip-rule="evenodd" d="M572.279 206.324C474.649 119.82 327.329 119.799 229.7 206.303L129.579 106.183C282.62 -35.3944 519.379 -35.3944 672.42 106.183L572.279 206.324ZM231.325 595.045C328.427 679.671 473.615 679.713 570.717 595.088L670.879 695.249C518.303 834.906 283.697 834.927 131.141 695.249L231.325 595.045Z" fill="#FF161F" fill-opacity="0.07"/>
<path fill-rule="evenodd" clip-rule="evenodd" d="M594.697 571.298C680.717 474.197 681.139 327.954 596.048 230.325L696.253 130.121C836.396 283.203 835.911 518.884 694.817 671.417L594.697 571.298ZM207.324 571.277L107.183 671.417C-33.9106 518.884 -34.3961 283.224 105.747 130.121L205.91 230.283C120.798 327.912 121.305 474.176 207.324 571.277Z" fill="white"/>
</g>
<defs>
<clipPath id="clip0_318_12">
<rect width="748" height="800" fill="white"/>
</clipPath>
</defs>
</svg>
