<svg width="100" height="100" viewBox="0 0 100 100" fill="none" xmlns="http://www.w3.org/2000/svg">
<g opacity="0.06" clip-path="url(#clip0_232_114)">
<path fill-rule="evenodd" clip-rule="evenodd" d="M21.5093 73.2476C-3.08578 71.7603 -22.7683 52.0858 -24.2556 27.4906H-51C-49.4688 66.8436 -17.8436 98.4688 21.5093 100V73.2476ZM27.8894 -24.2157C52.1655 -22.5489 71.5649 -3.16154 73.2277 21.1146H99.984C98.2614 -17.9194 66.9234 -49.2575 27.8894 -50.9801V-24.2157Z" fill="black"/>
<path fill-rule="evenodd" clip-rule="evenodd" d="M73.2517 27.4905C71.7764 51.95 52.2972 71.5408 27.8895 73.2156V99.9839C67.0591 98.2533 98.4729 66.7079 100 27.4905H73.2517ZM21.5095 -24.2478V-51.0001C-17.7119 -49.4729 -49.2533 -18.0591 -50.9839 21.1105H-24.2275C-22.5568 -3.29725 -2.95004 -22.7684 21.5095 -24.2478Z" fill="#FF161F"/>
</g>
<defs>
<clipPath id="clip0_232_114">
<rect width="100" height="100" fill="white" transform="matrix(1 0 0 -1 0 100)"/>
</clipPath>
</defs>
</svg>
