<svg width="800" height="800" viewBox="0 0 800 800" fill="none" xmlns="http://www.w3.org/2000/svg">
<g clip-path="url(#clip0_77_209)">
<path fill-rule="evenodd" clip-rule="evenodd" d="M571.281 206.322C473.65 119.816 326.329 119.795 228.698 206.301L128.577 106.18C281.619 -35.4003 518.381 -35.4003 671.423 106.18L571.281 206.322ZM230.323 595.05C327.426 679.677 472.616 679.719 569.719 595.092L669.882 695.256C517.304 834.915 282.696 834.936 130.139 695.256L230.323 595.05Z" fill="#FF161F"/>
<path fill-rule="evenodd" clip-rule="evenodd" d="M593.699 571.302C679.719 474.199 680.141 327.954 595.05 230.323L695.256 130.118C835.4 283.202 834.915 518.887 693.82 671.423L593.699 571.302ZM206.322 571.281L106.18 671.423C-34.9148 518.887 -35.4003 283.223 104.744 130.118L204.908 230.281C119.795 327.912 120.302 474.178 206.322 571.281Z" fill="white"/>
</g>
<defs>
<clipPath id="clip0_77_209">
<rect width="800" height="800" fill="white"/>
</clipPath>
</defs>
</svg>
