<svg width="492" height="577" viewBox="0 0 492 577" fill="none" xmlns="http://www.w3.org/2000/svg">
<g clip-path="url(#clip0_42_27)">
<path fill-rule="evenodd" clip-rule="evenodd" d="M107.845 658.266C238.15 650.386 342.428 546.15 350.308 415.845L492 415.845C483.888 624.337 316.337 791.888 107.845 800L107.845 658.266ZM74.0429 141.903C-54.5723 150.734 -157.35 253.449 -166.16 382.064L-307.915 382.064C-298.789 175.261 -132.76 9.23205 74.0429 0.105629L74.0429 141.903Z" fill="black" fill-opacity="0.11"/>
<path fill-rule="evenodd" clip-rule="evenodd" d="M-166.287 415.844C-158.47 545.431 -55.2694 649.224 74.0429 658.097L74.0429 799.915C-133.478 790.747 -299.909 623.619 -308 415.844L-166.287 415.844ZM107.845 141.734L107.845 -4.38997e-05C315.64 8.09124 482.747 174.522 491.916 382.043L350.16 382.043C341.308 252.731 237.432 149.572 107.845 141.734Z" fill="#FF161F" fill-opacity="0.11"/>
</g>
<defs>
<clipPath id="clip0_42_27">
<rect width="492" height="577" fill="white" transform="translate(492 577) rotate(-180)"/>
</clipPath>
</defs>
</svg>
