<?xml version="1.0" encoding="utf-8"?>
<!-- Generator: Adobe Illustrator 26.0.1, SVG Export Plug-In . SVG Version: 6.00 Build 0)  -->
<svg version="1.1" id="Слой_1" xmlns="http://www.w3.org/2000/svg" xmlns:xlink="http://www.w3.org/1999/xlink" x="0px" y="0px"
	 viewBox="0 0 500 500" style="enable-background:new 0 0 500 500;" xml:space="preserve">
<style type="text/css">
	.st0{fill-rule:evenodd;clip-rule:evenodd;fill:#ff161f;}
</style>
<path id="Фигура_1179" class="st0" d="M367.8,292.9c-11.3-19.6-22.1-38.3-33.5-58.1c5.4,0,9.8,0,14.2,0c7.5,0,9.9-3,8.1-10.4
	c-3.9-16.4-11-31.4-21.9-44.3c-25.5-30.2-58.3-43.5-97.4-39.8c-23.3,2.2-43.9,11.5-61.5,27.2c-1.6,1.4-3.2,2.9-5.3,4.8
	c-2.9-4.9-5.4-9.4-8.1-14c14.4-13.8,31.9-23.9,51.1-29.5c72.4-20.9,145.7,24.2,159.8,98.3c1.2,6.3,2.8,7.6,9.5,7.7
	c5.8,0,11.6,0,18.5,0C390,254.4,379.1,273.2,367.8,292.9z M205.9,249.7c0.1-23.8,19.6-43,43.4-42.9c23.8,0.1,43,19.6,42.9,43.4
	c-0.1,23.8-19.5,43-43.3,42.9C225,293,205.8,273.6,205.9,249.7z M276.8,250c-0.1-15.2-12.3-27.5-27.5-27.8c-15.1-0.2-28.2,13-28,28
	s13.1,27.7,27.9,27.6C264.5,277.5,276.7,265.2,276.8,250z M148.8,265.1c-6.3,0.1-8.7,3.1-7.4,9.3c9.1,43,46.2,77.9,89.8,84.4
	c36.7,5.5,68.4-4.9,95.5-30c0.6-0.6,1.2-1.1,2.4-2c2.7,4.6,5.3,9,8,13.6c-11.6,11.6-25.5,20.7-40.8,26.7
	c-74.2,29.8-157.4-16.2-171.4-94.8c-0.9-4.9-3.3-7.4-8.4-7.2c-5.6,0.1-11.2,0-17.8,0c11.4-19.7,22.2-38.5,33.5-58.1
	c11.3,19.6,22.1,38.4,33.5,58.1C159.4,265.1,154.1,265.1,148.8,265.1z"/>
</svg>
