<svg width="800" height="800" viewBox="0 0 800 800" fill="none" xmlns="http://www.w3.org/2000/svg">
<g clip-path="url(#clip0_504_64)">
<path fill-rule="evenodd" clip-rule="evenodd" d="M415.837 658.065C546.041 650.199 650.228 546.042 658.094 415.838L799.687 415.838C791.582 624.167 624.166 791.583 415.837 799.688L415.837 658.065ZM382.058 142.1C253.556 150.922 150.861 253.556 142.04 382.059L0.386927 382.059C9.52198 175.416 175.4 9.50783 382.043 0.402665L382.058 142.1Z" fill="#E5E5E5"/>
<path fill-rule="evenodd" clip-rule="evenodd" d="M141.906 415.838C149.742 545.326 252.855 649.035 382.059 657.901L382.059 799.614C174.715 790.464 8.40323 623.466 0.313087 415.838L141.906 415.838ZM415.838 141.936L415.838 0.313522C623.466 8.4037 790.449 174.7 799.613 382.059L657.961 382.059C649.109 252.84 545.325 149.773 415.838 141.936Z" fill="#FFE7E8"/>
</g>
<defs>
<clipPath id="clip0_504_64">
<rect width="800" height="800" fill="white" transform="translate(800) rotate(90)"/>
</clipPath>
</defs>
</svg>
