<svg width="800" height="800" viewBox="0 0 800 800" fill="none" xmlns="http://www.w3.org/2000/svg">
<g clip-path="url(#clip0_829_31)">
<path fill-rule="evenodd" clip-rule="evenodd" d="M415.836 658.061C546.039 650.194 650.225 546.038 658.091 415.836L799.683 415.835C791.577 624.162 624.163 791.576 415.836 799.682L415.836 658.061ZM382.06 142.103C253.559 150.925 150.866 253.558 142.043 382.059L0.393363 382.06C9.52848 175.42 175.405 9.51327 382.046 0.407144L382.06 142.103Z" fill="#291212"/>
<path fill-rule="evenodd" clip-rule="evenodd" d="M142.702 416.631C150.538 546.117 253.649 649.825 382.851 658.69L382.851 800.401C175.509 791.252 9.20056 624.257 1.11196 416.631L142.702 416.631ZM416.631 142.731L416.632 1.11135C624.257 9.20023 791.237 175.494 800.401 382.85L658.75 382.851C649.899 253.633 546.117 150.568 416.631 142.731Z" fill="#292929"/>
</g>
<defs>
<clipPath id="clip0_829_31">
<rect width="800" height="800" fill="white"/>
</clipPath>
</defs>
</svg>
