<svg width="800" height="800" viewBox="0 0 800 800" fill="none" xmlns="http://www.w3.org/2000/svg">
<g clip-path="url(#clip0_829_28)">
<path fill-rule="evenodd" clip-rule="evenodd" d="M383.929 141.704C253.727 149.571 149.541 253.727 141.675 383.929L0.0827495 383.929C8.18874 175.603 175.603 8.18888 383.929 0.0828811L383.929 141.704ZM417.706 657.662C546.207 648.84 648.9 546.206 657.722 417.706L799.372 417.705C790.237 624.345 624.36 790.251 417.72 799.358L417.706 657.662Z" fill="#F6DEDF"/>
<path fill-rule="evenodd" clip-rule="evenodd" d="M657.856 383.927C650.021 254.441 546.91 150.734 417.707 141.868L417.708 0.157295C625.049 9.30655 791.358 176.301 799.447 383.927L657.856 383.927ZM383.927 657.827L383.927 799.447C176.301 791.358 9.32119 625.064 0.157152 417.708L141.808 417.707C150.659 546.925 254.441 649.99 383.927 657.827Z" fill="white"/>
</g>
<defs>
<clipPath id="clip0_829_28">
<rect width="800" height="800" fill="white" transform="translate(0 800) rotate(-90)"/>
</clipPath>
</defs>
</svg>
