<svg width="801" height="800" viewBox="0 0 801 800" fill="none" xmlns="http://www.w3.org/2000/svg">
<g clip-path="url(#clip0_277_32)">
<path fill-rule="evenodd" clip-rule="evenodd" d="M571.477 206.324C473.847 119.82 326.527 119.799 228.898 206.303L128.777 106.183C281.818 -35.3943 518.577 -35.3943 671.618 106.183L571.477 206.324ZM230.523 595.045C327.625 679.671 472.813 679.713 569.915 595.088L670.077 695.249C517.501 834.906 282.895 834.927 130.339 695.249L230.523 595.045Z" fill="#291212"/>
<path fill-rule="evenodd" clip-rule="evenodd" d="M593.896 571.298C679.916 474.197 680.338 327.954 595.247 230.325L695.452 130.121C835.595 283.203 835.11 518.884 694.016 671.417L593.896 571.298ZM206.523 571.277L106.382 671.417C-34.7114 518.884 -35.1969 283.224 104.946 130.121L205.109 230.283C119.997 327.912 120.504 474.175 206.523 571.277Z" fill="#292929"/>
</g>
<defs>
<clipPath id="clip0_277_32">
<rect width="800" height="800" fill="white" transform="translate(0.199219)"/>
</clipPath>
</defs>
</svg>
