<svg width="2048" height="2048" viewBox="0 0 2048 2048" fill="none" xmlns="http://www.w3.org/2000/svg">
<g clip-path="url(#clip0_923_17)">
<path fill-rule="evenodd" clip-rule="evenodd" d="M1816 607.5C1666.2 322.9 1367.6 128.8 1023.6 128.8C679.599 128.8 380.999 322.8 231.199 607.5L117.199 547.6C288.499 222 630.199 0 1023.6 0C1417 0 1758.7 222 1930 547.6L1816 607.5ZM231.199 1439.8C380.999 1724.4 679.599 1918.5 1023.6 1918.5C1367.6 1918.5 1666.2 1724.4 1816 1439.8L1930 1499.7C1758.7 1825.3 1417.1 2047.3 1023.6 2047.3C630.099 2047.3 288.499 1825.3 117.199 1499.7L231.199 1439.8Z" fill="#291212"/>
<path fill-rule="evenodd" clip-rule="evenodd" d="M1980.9 1386.9L1860.5 1341.2C1937.8 1136.5 1937.8 910.701 1860.5 706.001L1980.9 660.301C2069.3 894.401 2069.3 1152.8 1980.9 1386.9ZM1024.4 1778.3C607.201 1778.3 268.901 1440.1 268.901 1022.8C268.901 605.501 607.101 267.301 1024.4 267.301C1441.7 267.301 1779.9 605.501 1779.9 1022.8C1779.9 1440.1 1441.7 1778.3 1024.4 1778.3ZM66.3008 1386.9C-22.1992 1152.8 -22.1992 894.401 66.3008 660.301L186.801 706.001C109.501 910.701 109.501 1136.5 186.801 1341.2L66.3008 1386.9Z" fill="#111111"/>
</g>
<defs>
<clipPath id="clip0_923_17">
<rect width="2047.2" height="2047.2" fill="white"/>
</clipPath>
</defs>
</svg>
