<svg width="40" height="40" viewBox="0 0 40 40" fill="none" xmlns="http://www.w3.org/2000/svg">
<path fill-rule="evenodd" clip-rule="evenodd" d="M28.4446 26.472C28.3086 27.232 27.6926 27.864 26.9406 28.008C26.8526 28.024 26.7566 28.032 26.6686 28.048C25.1086 28.048 23.5486 28.048 21.9886 28.048C21.9006 28.032 21.8126 28.024 21.7326 28.008C20.9726 27.832 20.4846 27.376 20.2526 26.632C20.2046 26.464 20.1806 26.288 20.1806 26.12C20.1806 24 20.1806 21.872 20.1806 19.752C20.1806 18.808 20.8686 18 21.7966 17.848C21.8846 17.832 21.9806 17.824 22.0766 17.824C23.5806 17.824 25.0846 17.816 26.5886 17.824C27.3646 17.824 28.0686 18.328 28.3486 19.048C28.4126 19.208 28.4526 19.368 28.4686 19.544C28.4686 19.56 28.4766 19.568 28.4766 19.584C28.4766 21.816 28.4766 24.056 28.4766 26.288C28.4606 26.352 28.4526 26.416 28.4446 26.472ZM27.1966 19.744C27.1966 19.632 27.1726 19.52 27.1086 19.424C26.9806 19.208 26.7806 19.112 26.5326 19.112C25.0606 19.112 23.5886 19.112 22.1086 19.112C22.0926 19.112 22.0766 19.112 22.0606 19.112C21.9086 19.12 21.7726 19.168 21.6606 19.272C21.5086 19.408 21.4446 19.584 21.4446 19.792C21.4446 20.848 21.4446 21.904 21.4446 22.952C21.4446 23.992 21.4446 25.032 21.4446 26.08C21.4446 26.128 21.4446 26.168 21.4526 26.216C21.4606 26.328 21.5006 26.424 21.5566 26.512C21.6926 26.704 21.8766 26.784 22.1086 26.784C23.3086 26.784 24.5006 26.784 25.7006 26.784C25.9806 26.784 26.2606 26.784 26.5406 26.784C26.9086 26.784 27.1886 26.512 27.1886 26.152C27.1966 24.008 27.1966 21.872 27.1966 19.744ZM24.6446 23.52C24.6446 23.136 24.6446 22.744 24.6446 22.36C24.6446 22.312 24.6526 22.296 24.7086 22.296C25.0926 22.296 25.4846 22.296 25.8686 22.296C25.8846 22.296 25.9006 22.296 25.9246 22.296C25.9246 22.72 25.9246 23.144 25.9246 23.568C25.5006 23.568 25.0766 23.568 24.6526 23.568C24.6446 23.552 24.6446 23.536 24.6446 23.52ZM22.7326 20.392C23.7966 20.392 24.8526 20.392 25.9166 20.392C25.9166 20.816 25.9166 21.24 25.9166 21.664C24.8526 21.664 23.7966 21.664 22.7326 21.664C22.7326 21.232 22.7326 20.816 22.7326 20.392ZM24.0046 23.576C23.5806 23.576 23.1646 23.576 22.7326 23.576C22.7326 23.152 22.7326 22.728 22.7326 22.304C23.1566 22.304 23.5806 22.304 24.0046 22.304C24.0046 22.728 24.0046 23.152 24.0046 23.576ZM24.0046 25.488C23.5806 25.488 23.1566 25.488 22.7326 25.488C22.7326 25.064 22.7326 24.648 22.7326 24.216C23.1566 24.216 23.5806 24.216 24.0046 24.216C24.0046 24.648 24.0046 25.064 24.0046 25.488ZM25.9166 25.488C25.4926 25.488 25.0766 25.488 24.6446 25.488C24.6446 25.064 24.6446 24.64 24.6446 24.216C25.0686 24.216 25.4926 24.216 25.9166 24.216C25.9166 24.64 25.9166 25.064 25.9166 25.488ZM25.2766 16.552C24.7646 16.552 24.2606 16.552 23.7566 16.552V15.2C23.7566 14.976 23.5806 14.8 23.3566 14.8H22.0766C22.0686 14.872 22.0526 14.936 22.0366 15C21.8846 15.528 21.3966 15.896 20.8526 15.912C20.6366 15.92 18.0606 15.912 17.5806 15.912C17.5326 15.912 17.4926 15.904 17.4446 15.904C16.8926 15.84 16.4286 15.368 16.3646 14.816C16.3646 14.808 16.3646 14.808 16.3646 14.8H14.9566C14.7326 14.8 14.5566 14.976 14.5566 15.2V24.88C14.5566 25.104 14.7326 25.28 14.9566 25.28H18.8926C18.8926 25.776 18.8926 26.272 18.8926 26.768C18.8766 26.768 18.8606 26.768 18.8366 26.768C17.5806 26.768 16.3326 26.768 15.0766 26.768C14.5166 26.768 14.0366 26.576 13.6526 26.168C13.3646 25.864 13.2046 25.496 13.1566 25.08C13.1486 24.984 13.1406 24.888 13.1406 24.8C13.1406 21.64 13.1406 18.472 13.1406 15.312C13.1406 14.896 13.2366 14.504 13.4766 14.16C13.7726 13.728 14.1886 13.472 14.7006 13.384C14.8366 13.36 14.9726 13.352 15.1006 13.352C15.4846 13.344 15.8766 13.352 16.2606 13.352C16.2846 13.352 16.3006 13.352 16.3246 13.352C16.3326 13.288 16.3326 13.232 16.3406 13.176C16.4126 12.624 16.8766 12.16 17.4206 12.088C17.4926 12.08 17.5646 12.072 17.6366 12.072C17.8446 12.072 18.0526 12.072 18.2606 12.072C18.2846 12.072 18.3086 12.072 18.3166 12.04C18.4606 11.696 18.7246 11.496 19.0926 11.44C19.1006 11.44 19.1086 11.432 19.1086 11.432C19.1646 11.432 19.2286 11.432 19.2846 11.432C19.3406 11.448 19.4046 11.456 19.4606 11.472C19.7486 11.56 19.9566 11.752 20.0766 12.032C20.0926 12.064 20.1006 12.072 20.1326 12.072C20.3646 12.072 20.5966 12.072 20.8286 12.072C21.3806 12.088 21.8606 12.456 22.0126 12.984C22.0446 13.096 22.0606 13.224 22.0846 13.352C22.0926 13.352 22.1086 13.352 22.1326 13.352C22.5566 13.352 22.9806 13.344 23.4046 13.352C24.2846 13.368 25.0366 13.96 25.2206 14.84C25.2526 14.984 25.2606 15.128 25.2606 15.272C25.2686 15.672 25.2606 16.072 25.2606 16.472C25.2766 16.504 25.2766 16.528 25.2766 16.552ZM20.8126 13.36C19.7486 13.36 18.6846 13.36 17.6206 13.36C17.6206 13.784 17.6206 14.208 17.6206 14.632C18.6846 14.632 19.7486 14.632 20.8126 14.632C20.8126 14.208 20.8126 13.784 20.8126 13.36ZM17.5726 15.912C17.5966 15.912 17.6286 15.912 17.6526 15.912C17.4526 15.912 17.4526 15.912 17.5726 15.912ZM19.5326 19.744C19.1086 19.744 18.6846 19.744 18.2606 19.744C18.2606 19.112 18.2606 18.472 18.2606 17.832C18.6846 17.832 19.1086 17.832 19.5326 17.832C19.5326 18.472 19.5326 19.104 19.5326 19.744ZM16.3406 17.192C16.7646 17.192 17.1886 17.192 17.6126 17.192C17.6126 18.04 17.6126 18.888 17.6126 19.744C17.1886 19.744 16.7646 19.744 16.3406 19.744C16.3406 18.896 16.3406 18.048 16.3406 17.192ZM18.2846 23.392C17.8206 23.68 17.2126 23.632 16.8046 23.288C16.3726 22.92 16.2286 22.344 16.4366 21.824C16.6446 21.312 17.1406 21.024 17.6206 21.032C17.6206 21.456 17.6206 21.872 17.6206 22.304C18.0526 22.304 18.4686 22.304 18.8926 22.304C18.9166 22.624 18.7326 23.12 18.2846 23.392Z" fill="white"/>
</svg>
