<svg width="40" height="40" viewBox="0 0 40 40" fill="none" xmlns="http://www.w3.org/2000/svg">
<path fill-rule="evenodd" clip-rule="evenodd" d="M28.4446 26.4721C28.3086 27.2321 27.6926 27.8641 26.9406 28.0081C26.8526 28.0241 26.7566 28.0321 26.6686 28.0481C25.1086 28.0481 23.5486 28.0481 21.9886 28.0481C21.9006 28.0321 21.8126 28.0241 21.7326 28.0081C20.9726 27.8321 20.4846 27.3761 20.2526 26.6321C20.2046 26.4641 20.1806 26.2881 20.1806 26.1201C20.1806 24.0001 20.1806 21.8721 20.1806 19.7521C20.1806 18.8081 20.8686 18.0001 21.7966 17.8481C21.8846 17.8321 21.9806 17.8241 22.0766 17.8241C23.5806 17.8241 25.0846 17.8161 26.5886 17.8241C27.3646 17.8241 28.0686 18.3281 28.3486 19.0481C28.4126 19.2081 28.4526 19.3681 28.4686 19.5441C28.4686 19.5601 28.4766 19.5681 28.4766 19.5841C28.4766 21.8161 28.4766 24.0561 28.4766 26.2881C28.4606 26.3521 28.4526 26.4161 28.4446 26.4721ZM27.1966 19.7441C27.1966 19.6321 27.1726 19.5201 27.1086 19.4241C26.9806 19.2081 26.7806 19.1121 26.5326 19.1121C25.0606 19.1121 23.5886 19.1121 22.1086 19.1121C22.0926 19.1121 22.0766 19.1121 22.0606 19.1121C21.9086 19.1201 21.7726 19.1681 21.6606 19.2721C21.5086 19.4081 21.4446 19.5841 21.4446 19.7921C21.4446 20.8481 21.4446 21.9041 21.4446 22.9521C21.4446 23.9921 21.4446 25.0321 21.4446 26.0801C21.4446 26.1281 21.4446 26.1681 21.4526 26.2161C21.4606 26.3281 21.5006 26.4241 21.5566 26.5121C21.6926 26.7041 21.8766 26.7841 22.1086 26.7841C23.3086 26.7841 24.5006 26.7841 25.7006 26.7841C25.9806 26.7841 26.2606 26.7841 26.5406 26.7841C26.9086 26.7841 27.1886 26.5121 27.1886 26.1521C27.1966 24.0081 27.1966 21.8721 27.1966 19.7441ZM24.6446 23.5201C24.6446 23.1361 24.6446 22.7441 24.6446 22.3601C24.6446 22.3121 24.6526 22.2961 24.7086 22.2961C25.0926 22.2961 25.4846 22.2961 25.8686 22.2961C25.8846 22.2961 25.9006 22.2961 25.9246 22.2961C25.9246 22.7201 25.9246 23.1441 25.9246 23.5681C25.5006 23.5681 25.0766 23.5681 24.6526 23.5681C24.6446 23.5521 24.6446 23.5361 24.6446 23.5201ZM22.7326 20.3921C23.7966 20.3921 24.8526 20.3921 25.9166 20.3921C25.9166 20.8161 25.9166 21.2401 25.9166 21.6641C24.8526 21.6641 23.7966 21.6641 22.7326 21.6641C22.7326 21.2321 22.7326 20.8161 22.7326 20.3921ZM24.0046 23.5761C23.5806 23.5761 23.1646 23.5761 22.7326 23.5761C22.7326 23.1521 22.7326 22.7281 22.7326 22.3041C23.1566 22.3041 23.5806 22.3041 24.0046 22.3041C24.0046 22.7281 24.0046 23.1521 24.0046 23.5761ZM24.0046 25.4881C23.5806 25.4881 23.1566 25.4881 22.7326 25.4881C22.7326 25.0641 22.7326 24.6481 22.7326 24.2161C23.1566 24.2161 23.5806 24.2161 24.0046 24.2161C24.0046 24.6481 24.0046 25.0641 24.0046 25.4881ZM25.9166 25.4881C25.4926 25.4881 25.0766 25.4881 24.6446 25.4881C24.6446 25.0641 24.6446 24.6401 24.6446 24.2161C25.0686 24.2161 25.4926 24.2161 25.9166 24.2161C25.9166 24.6401 25.9166 25.0641 25.9166 25.4881ZM25.2766 16.5521C24.7646 16.5521 24.2606 16.5521 23.7566 16.5521V15.2001C23.7566 14.9761 23.5806 14.8001 23.3566 14.8001H22.0766C22.0686 14.8721 22.0526 14.9361 22.0366 15.0001C21.8846 15.5281 21.3966 15.8961 20.8526 15.9121C20.6366 15.9201 18.0606 15.9121 17.5806 15.9121C17.5326 15.9121 17.4926 15.9041 17.4446 15.9041C16.8926 15.8401 16.4286 15.3681 16.3646 14.8161C16.3646 14.8081 16.3646 14.8081 16.3646 14.8001H14.9566C14.7326 14.8001 14.5566 14.9761 14.5566 15.2001V24.8801C14.5566 25.1041 14.7326 25.2801 14.9566 25.2801H18.8926C18.8926 25.7761 18.8926 26.2721 18.8926 26.7681C18.8766 26.7681 18.8606 26.7681 18.8366 26.7681C17.5806 26.7681 16.3326 26.7681 15.0766 26.7681C14.5166 26.7681 14.0366 26.5761 13.6526 26.1681C13.3646 25.8641 13.2046 25.4961 13.1566 25.0801C13.1486 24.9841 13.1406 24.8881 13.1406 24.8001C13.1406 21.6401 13.1406 18.4721 13.1406 15.3121C13.1406 14.8961 13.2366 14.5041 13.4766 14.1601C13.7726 13.7281 14.1886 13.4721 14.7006 13.3841C14.8366 13.3601 14.9726 13.3521 15.1006 13.3521C15.4846 13.3441 15.8766 13.3521 16.2606 13.3521C16.2846 13.3521 16.3006 13.3521 16.3246 13.3521C16.3326 13.2881 16.3326 13.2321 16.3406 13.1761C16.4126 12.6241 16.8766 12.1601 17.4206 12.0881C17.4926 12.0801 17.5646 12.0721 17.6366 12.0721C17.8446 12.0721 18.0526 12.0721 18.2606 12.0721C18.2846 12.0721 18.3086 12.0721 18.3166 12.0401C18.4606 11.6961 18.7246 11.4961 19.0926 11.4401C19.1006 11.4401 19.1086 11.4321 19.1086 11.4321C19.1646 11.4321 19.2286 11.4321 19.2846 11.4321C19.3406 11.4481 19.4046 11.4561 19.4606 11.4721C19.7486 11.5601 19.9566 11.7521 20.0766 12.0321C20.0926 12.0641 20.1006 12.0721 20.1326 12.0721C20.3646 12.0721 20.5966 12.0721 20.8286 12.0721C21.3806 12.0881 21.8606 12.4561 22.0126 12.9841C22.0446 13.0961 22.0606 13.2241 22.0846 13.3521C22.0926 13.3521 22.1086 13.3521 22.1326 13.3521C22.5566 13.3521 22.9806 13.3441 23.4046 13.3521C24.2846 13.3681 25.0366 13.9601 25.2206 14.8401C25.2526 14.9841 25.2606 15.1281 25.2606 15.2721C25.2686 15.6721 25.2606 16.0721 25.2606 16.4721C25.2766 16.5041 25.2766 16.5281 25.2766 16.5521ZM20.8126 13.3601C19.7486 13.3601 18.6846 13.3601 17.6206 13.3601C17.6206 13.7841 17.6206 14.2081 17.6206 14.6321C18.6846 14.6321 19.7486 14.6321 20.8126 14.6321C20.8126 14.2081 20.8126 13.7841 20.8126 13.3601ZM17.5726 15.9121C17.5966 15.9121 17.6286 15.9121 17.6526 15.9121C17.4526 15.9121 17.4526 15.9121 17.5726 15.9121ZM19.5326 19.7441C19.1086 19.7441 18.6846 19.7441 18.2606 19.7441C18.2606 19.1121 18.2606 18.4721 18.2606 17.8321C18.6846 17.8321 19.1086 17.8321 19.5326 17.8321C19.5326 18.4721 19.5326 19.1041 19.5326 19.7441ZM16.3406 17.1921C16.7646 17.1921 17.1886 17.1921 17.6126 17.1921C17.6126 18.0401 17.6126 18.8881 17.6126 19.7441C17.1886 19.7441 16.7646 19.7441 16.3406 19.7441C16.3406 18.8961 16.3406 18.0481 16.3406 17.1921ZM18.2846 23.3921C17.8206 23.6801 17.2126 23.6321 16.8046 23.2881C16.3726 22.9201 16.2286 22.3441 16.4366 21.8241C16.6446 21.3121 17.1406 21.0241 17.6206 21.0321C17.6206 21.4561 17.6206 21.8721 17.6206 22.3041C18.0526 22.3041 18.4686 22.3041 18.8926 22.3041C18.9166 22.6241 18.7326 23.1201 18.2846 23.3921Z" fill="#FF161F"/>
</svg>
