<svg width="40" height="40" viewBox="0 0 40 40" fill="none" xmlns="http://www.w3.org/2000/svg">
<path fill-rule="evenodd" clip-rule="evenodd" d="M24.7225 20.72H21.6825C21.2825 20.72 20.9625 20.4 20.9625 20C20.9625 19.6 21.2825 19.28 21.6825 19.28H24.7225C25.1225 19.28 25.4425 19.6 25.4425 20C25.4425 20.4 25.1225 20.72 24.7225 20.72ZM24.7225 16.4H21.6825C21.2825 16.4 20.9625 16.08 20.9625 15.68C20.9625 15.28 21.2825 14.96 21.6825 14.96H24.7225C25.1225 14.96 25.4425 15.28 25.4425 15.68C25.4425 16.08 25.1225 16.4 24.7225 16.4ZM18.3225 25.04H15.2825C14.8825 25.04 14.5625 24.72 14.5625 24.32C14.5625 23.92 14.8825 23.6 15.2825 23.6H18.3225C18.7225 23.6 19.0425 23.92 19.0425 24.32C19.0425 24.72 18.7225 25.04 18.3225 25.04ZM18.3225 20.72H15.2825C14.8825 20.72 14.5625 20.4 14.5625 20C14.5625 19.6 14.8825 19.28 15.2825 19.28H18.3225C18.7225 19.28 19.0425 19.6 19.0425 20C19.0425 20.4 18.7225 20.72 18.3225 20.72ZM18.3225 16.4H15.2825C14.8825 16.4 14.5625 16.08 14.5625 15.68C14.5625 15.28 14.8825 14.96 15.2825 14.96H18.3225C18.7225 14.96 19.0425 15.28 19.0425 15.68C19.0425 16.08 18.7225 16.4 18.3225 16.4ZM21.6825 23.6H24.7225C25.1225 23.6 25.4425 23.92 25.4425 24.32C25.4425 24.72 25.1225 25.04 24.7225 25.04H21.6825C21.2825 25.04 20.9625 24.72 20.9625 24.32C20.9625 23.92 21.2825 23.6 21.6825 23.6Z" fill="black"/>
</svg>
