<svg width="40" height="40" viewBox="0 0 40 40" fill="none" xmlns="http://www.w3.org/2000/svg">
<path fill-rule="evenodd" clip-rule="evenodd" d="M31.9991 22.2918C31.5407 24.7918 30.3741 26.9168 28.5407 28.7085C26.7074 30.5418 24.4991 31.6668 21.9157 32.0835C21.3324 32.1668 20.7074 32.2085 20.1241 32.2502C19.7491 32.2918 19.5824 32.4168 19.5824 32.7918C19.5824 32.9168 19.5824 33.0835 19.5824 33.2502C18.7907 32.7085 18.0407 32.2085 17.2907 31.6668C18.0407 31.1252 18.7907 30.6252 19.5824 30.0835C19.5824 30.2502 19.5824 30.4168 19.5824 30.5418C19.5824 30.9168 19.7074 31.0835 20.1241 31.0835C22.0824 31.0835 23.8741 30.5835 25.5407 29.5835C28.3324 27.9585 30.0824 25.5002 30.8324 22.3752C31.3741 20.0418 31.0824 17.7918 30.2074 15.5835C29.4991 13.9168 28.4157 12.5002 27.0407 11.3335C26.9574 11.2918 26.9157 11.2085 26.8324 11.1668C26.8324 11.1668 26.8324 11.1668 26.8324 11.1252C27.0407 10.8335 27.2491 10.5418 27.4574 10.2502C27.7074 10.4585 27.9157 10.6252 28.1241 10.8335C30.0407 12.5835 31.2907 14.7085 31.8741 17.2085C32.2907 18.9585 32.3324 20.6252 31.9991 22.2918ZM25.9991 16.5418C26.1241 16.8335 26.2907 17.1252 26.4157 17.4168C26.4991 17.6252 26.5824 17.8752 26.6241 18.0835C26.6657 18.2085 26.7074 18.2502 26.8324 18.2502C27.1657 18.2502 27.4574 18.2502 27.7907 18.3335C28.1241 18.4168 28.3324 18.6252 28.4574 18.9585C28.4991 19.1252 28.5407 19.3335 28.5407 19.5002C28.5407 19.8752 28.5407 20.2918 28.5407 20.6668C28.5407 21.0418 28.4157 21.4168 28.0407 21.5835C27.8324 21.6668 27.6241 21.7502 27.4157 21.7502C27.2074 21.7918 27.0407 21.7502 26.8324 21.7502C26.7907 21.7502 26.7074 21.7918 26.7074 21.8335C26.5407 22.3752 26.3324 22.9168 26.0407 23.4585C26.2491 23.6252 26.4574 23.7918 26.6241 24.0002C27.0407 24.5002 26.9991 25.0418 26.5824 25.5002C26.2491 25.8335 25.9157 26.1668 25.5824 26.5002C25.1657 26.9168 24.4991 26.8752 24.0824 26.4585C23.9157 26.2918 23.7491 26.1252 23.5824 25.9585C22.9991 26.2085 22.4574 26.4168 21.8741 26.6668C21.8741 26.8335 21.8741 27.0002 21.8741 27.1668C21.8741 27.3752 21.8324 27.5835 21.7907 27.7502C21.7074 28.0418 21.4991 28.2502 21.2074 28.3335C21.0407 28.3752 20.8324 28.4168 20.6241 28.4168C20.2074 28.4168 19.8324 28.4168 19.4157 28.4168C18.9991 28.4168 18.6657 28.2918 18.4574 27.9168C18.3741 27.7085 18.3324 27.5002 18.2907 27.2502C18.2491 27.0835 18.2907 26.8752 18.2907 26.7085C18.2907 26.6252 18.2907 26.5835 18.1657 26.5418C17.6657 26.4168 17.1657 26.2085 16.7074 25.9585C16.6657 25.9585 16.5824 25.9585 16.5407 26.0002C16.4157 26.1252 16.2907 26.2502 16.1657 26.3752C15.7491 26.8335 15.0824 26.9168 14.5824 26.4585C14.2074 26.0835 13.7907 25.7085 13.4574 25.3335C13.0824 24.9168 13.1241 24.4168 13.4991 24.0002C13.6657 23.7918 13.8741 23.6252 14.0407 23.4585C13.7907 22.8752 13.5824 22.3335 13.3741 21.7502C13.1657 21.7502 12.9574 21.7502 12.7491 21.7502C12.5407 21.7085 12.3324 21.7085 12.1241 21.5835C11.7491 21.4168 11.6241 21.0418 11.5824 20.6668C11.5824 20.2085 11.5407 19.7502 11.5824 19.2918C11.6241 18.6252 11.9574 18.2502 12.6657 18.2085C12.8741 18.2085 13.0824 18.2085 13.2907 18.2085C13.3324 18.2085 13.4157 18.1668 13.4157 18.1252C13.5824 17.5835 13.7907 17.0418 14.0824 16.5002C13.9157 16.3335 13.7907 16.2085 13.6241 16.0418C13.1241 15.5418 13.1241 14.8752 13.6241 14.3752C13.9157 14.0835 14.2074 13.7918 14.4991 13.5002C14.9991 13.0002 15.6241 13.0002 16.1241 13.5002C16.2907 13.6668 16.4574 13.7918 16.5824 13.9585C17.1241 13.7502 17.7074 13.5002 18.2907 13.2502C18.2907 13.0835 18.2491 12.8752 18.2907 12.7085C18.3324 12.4585 18.3741 12.2085 18.4574 11.9585C18.6657 11.5835 19.0407 11.4585 19.4157 11.4585C19.8324 11.4585 20.2907 11.4585 20.7074 11.4585C21.0824 11.4585 21.4574 11.5835 21.6657 11.9585C21.7491 12.1668 21.7907 12.4168 21.8324 12.6252C21.8741 12.8335 21.8324 13.0418 21.8324 13.2085C22.4157 13.4585 22.9574 13.6668 23.5407 13.9168C23.6657 13.7918 23.7907 13.6252 23.9574 13.4585C24.4574 12.9585 25.0824 12.9585 25.5824 13.4585C25.8741 13.7502 26.1657 14.0418 26.4574 14.3335C26.9574 14.8335 26.9574 15.4585 26.4574 15.9585C26.2907 16.2502 26.1241 16.3752 25.9991 16.5418ZM25.7074 18.8335C25.5407 18.0835 25.2491 17.4168 24.8741 16.7918C24.7074 16.5002 24.7491 16.2502 24.9991 16.0002C25.2074 15.7918 25.4157 15.5835 25.6657 15.3335C25.7074 15.2918 25.7074 15.2502 25.7491 15.2502C25.4157 14.9168 25.0824 14.5835 24.7907 14.2918C24.5824 14.5002 24.3324 14.7502 24.0824 15.0002C23.8324 15.2502 23.4991 15.2918 23.2074 15.1252C22.5824 14.7502 21.9574 14.5002 21.2491 14.3335C20.9991 14.2918 20.8741 14.1252 20.8324 13.8752C20.7907 13.6668 20.7907 13.4168 20.7907 13.2085C20.7907 13.0418 20.7907 12.8335 20.7907 12.6668C20.3324 12.6668 19.8741 12.6668 19.4157 12.6668C19.4157 12.7085 19.4157 12.7502 19.4157 12.7918C19.4157 13.0835 19.4157 13.3752 19.4157 13.6668C19.4157 14.0835 19.2491 14.2918 18.8741 14.3752C18.2074 14.5418 17.5824 14.7918 16.9991 15.1668C16.6241 15.3752 16.3741 15.3752 16.0824 15.0418C15.8324 14.7918 15.6241 14.5835 15.3741 14.3752C15.0407 14.7085 14.7491 15.0002 14.4157 15.3335C14.6241 15.5418 14.8324 15.8335 15.0824 16.0418C15.3741 16.2918 15.4157 16.6252 15.2074 16.9168C14.8324 17.5418 14.5407 18.2085 14.3741 18.8752C14.3741 18.9585 14.3324 19.0002 14.2907 19.0418C14.1241 19.2918 13.8741 19.3335 13.6241 19.3335C13.3324 19.3335 12.9991 19.3335 12.7074 19.3335C12.7074 19.7918 12.7074 20.2502 12.7074 20.7085H12.7491C13.0407 20.7085 13.3741 20.7085 13.6657 20.7085C14.0407 20.7085 14.2907 20.8752 14.3741 21.2502C14.5407 21.9585 14.8324 22.5835 15.1657 23.2085C15.3741 23.5835 15.3324 23.7918 15.0407 24.0835C14.8324 24.2918 14.6241 24.5418 14.3741 24.7502C14.6657 25.0418 14.9991 25.3752 15.3324 25.7085C15.3741 25.6668 15.3741 25.6252 15.4157 25.5835C15.6241 25.3752 15.8324 25.1668 16.0407 24.9585C16.2907 24.7502 16.5824 24.7085 16.8324 24.8752C17.4574 25.2918 18.1241 25.5418 18.8741 25.7085C19.1241 25.7502 19.2491 25.9168 19.2907 26.1668C19.3324 26.4168 19.3324 26.6668 19.3324 26.9168C19.3324 27.0835 19.3324 27.2502 19.3324 27.3752C19.7907 27.3752 20.2491 27.3752 20.7074 27.3752C20.7074 27.0418 20.7074 26.7502 20.7074 26.4168C20.7074 26.0418 20.8741 25.7502 21.2907 25.6668C21.9157 25.5418 22.4991 25.2918 23.0824 24.9585C23.4991 24.7085 23.7907 24.7502 24.1241 25.0835C24.3324 25.2918 24.5407 25.5002 24.7491 25.7085C25.0824 25.3752 25.3741 25.0418 25.7491 24.7085C25.7074 24.6668 25.6657 24.6252 25.6241 24.5835C25.4157 24.3752 25.2074 24.1668 24.9991 23.9585C24.7907 23.7085 24.7491 23.4585 24.9157 23.1668C25.3324 22.5418 25.6241 21.8335 25.7907 21.0835C25.8324 20.8752 25.9574 20.7502 26.1657 20.7085C26.3324 20.6668 26.4574 20.6668 26.6241 20.6668C26.9157 20.6668 27.1657 20.6668 27.4574 20.6668C27.4574 20.2085 27.4574 19.7502 27.4574 19.2918C27.1241 19.2918 26.8324 19.2918 26.4991 19.2918C26.0824 19.2918 25.7907 19.1252 25.7074 18.8335ZM19.9574 24.7085C17.2907 24.6668 15.2491 22.5835 15.2491 20.0002C15.2491 17.3752 17.2907 15.2918 19.9574 15.2918C22.6241 15.2918 24.6657 17.3752 24.6657 20.0002C24.6657 22.6252 22.6241 24.6668 19.9574 24.7085ZM19.9574 16.3752C17.9991 16.3752 16.3324 18.0418 16.3324 20.0002C16.3324 21.9168 17.9157 23.6252 19.9574 23.6252C21.9574 23.6668 23.5824 21.9585 23.5824 20.0418C23.5824 18.0002 21.9574 16.3752 19.9574 16.3752ZM19.8324 21.2918C19.6241 21.5002 19.2907 21.5002 19.0824 21.2918C18.8324 21.0418 18.5407 20.7918 18.2907 20.5418C18.0824 20.3752 18.0824 20.0418 18.2491 19.8752C18.4574 19.6252 18.8324 19.6252 19.0824 19.8335C19.2074 19.9585 19.3324 20.0835 19.4991 20.2085C19.9574 19.7085 20.4574 19.2085 20.9574 18.7085C21.1657 18.5002 21.4574 18.5002 21.6657 18.7085L21.7074 18.7502C21.9157 18.9585 21.9157 19.2918 21.7074 19.5002C21.0824 20.0418 20.4574 20.6668 19.8324 21.2918ZM20.3741 9.4585C20.3741 9.00016 20.2491 8.87516 19.7907 8.87516C18.0407 8.87516 16.3741 9.29183 14.8324 10.1252C11.6241 11.8752 9.66574 14.5002 9.04074 18.0835C8.49908 21.0418 9.16574 23.7502 10.8324 26.2502C11.4574 27.1668 12.2074 28.0002 13.1241 28.7085C13.1241 28.7085 13.1657 28.7502 13.2074 28.7502C12.9991 29.0418 12.7907 29.3335 12.5407 29.6252C12.2491 29.3752 11.9991 29.1668 11.7074 28.9168C9.87408 27.2085 8.62408 25.1252 8.08241 22.6668C7.33241 19.2502 7.87408 16.0002 9.87408 13.1252C11.6657 10.5002 14.0824 8.79183 17.2074 8.04183C18.0824 7.8335 18.9991 7.75016 19.9157 7.7085C20.3324 7.7085 20.4574 7.5835 20.4574 7.16683C20.4574 7.04183 20.4574 6.87516 20.4574 6.7085C21.2074 7.25016 21.9574 7.75016 22.7491 8.29183C21.9991 8.8335 21.2491 9.3335 20.4574 9.87516C20.3741 9.7085 20.3741 9.5835 20.3741 9.4585Z" fill="white"/>
</svg>
