<svg width="26" height="26" viewBox="0 0 26 26" fill="none" xmlns="http://www.w3.org/2000/svg">
<path d="M18.0096 6.23157C18.2858 5.95544 18.7335 5.95566 19.0094 6.23206V6.23206C19.2849 6.50807 19.2847 6.95509 19.0089 7.23083L7.23059 19.0092C6.95446 19.2853 6.5067 19.2851 6.23084 19.0087V19.0087C5.95536 18.7326 5.95557 18.2856 6.23132 18.0099L18.0096 6.23157Z" fill="white"/>
<path d="M19.3025 18.0306C19.5788 18.3068 19.5788 18.7547 19.3025 19.031V19.031C19.0263 19.3072 18.5784 19.3072 18.3021 19.031L6.52495 7.25377C6.2487 6.97751 6.2487 6.52962 6.52495 6.25337V6.25337C6.8012 5.97712 7.24909 5.97712 7.52534 6.25337L19.3025 18.0306Z" fill="white"/>
</svg>
