<svg width="26" height="26" viewBox="0 0 26 26" fill="none" xmlns="http://www.w3.org/2000/svg">
<path d="M18.1864 6.40834C18.3649 6.22991 18.6542 6.23005 18.8324 6.40866C19.0105 6.58702 19.0103 6.87587 18.8321 7.05406L7.05381 18.8324C6.87538 19.0108 6.58604 19.0107 6.40778 18.8321C6.22977 18.6537 6.22991 18.3649 6.4081 18.1867L18.1864 6.40834Z" fill="black" stroke="black" stroke-width="0.5"/>
<path d="M19.3025 18.0306C19.5788 18.3068 19.5788 18.7547 19.3025 19.031C19.0263 19.3072 18.5784 19.3072 18.3021 19.031L6.52495 7.25377C6.2487 6.97751 6.2487 6.52962 6.52495 6.25337C6.8012 5.97712 7.24909 5.97712 7.52534 6.25337L19.3025 18.0306Z" fill="black"/>
</svg>
