<svg width="14" height="15" viewBox="0 0 14 15" fill="none" xmlns="http://www.w3.org/2000/svg">
<path d="M13.1017 2.32261L1.32335 14.1009C1.14491 14.2794 0.855574 14.2792 0.677316 14.1006C0.499304 13.9223 0.499445 13.6334 0.677631 13.4552L12.456 1.6769C12.6344 1.49847 12.9237 1.49861 13.102 1.67721C13.28 1.85557 13.2799 2.14443 13.1017 2.32261Z" fill="black" stroke="black" stroke-width="0.5"/>
<path d="M13.2771 12.9998C13.5534 13.2761 13.5534 13.7239 13.2771 14.0002V14.0002C13.0009 14.2764 12.553 14.2764 12.2768 14.0002L0.499558 2.223C0.223306 1.94675 0.223307 1.49886 0.499558 1.22261V1.22261C0.77581 0.946358 1.2237 0.946358 1.49995 1.22261L13.2771 12.9998Z" fill="black"/>
</svg>
