<svg width="40" height="40" viewBox="0 0 40 40" fill="none" xmlns="http://www.w3.org/2000/svg">
<path fill-rule="evenodd" clip-rule="evenodd" d="M30.459 24.375C30.334 24.9583 29.8757 25.2917 29.2923 25.3333C29.0007 25.3333 28.6673 25.3333 28.3756 25.3333C24.459 25.3333 20.584 25.3333 16.6673 25.3333C16.3757 25.3333 16.0423 25.3333 15.7507 25.3333C15.4173 25.3333 15.1673 25.1667 15.0007 24.9167C14.7923 24.6667 15.0007 24.25 15.334 24.2083C15.3757 24.2083 15.459 24.2083 15.5007 24.2083C19.9173 24.2083 24.334 24.2083 28.7507 24.2083C28.7923 24.2083 28.834 24.2083 28.9173 24.2083C27.1673 22.4167 25.459 20.625 23.7507 18.875C23.2923 19.2083 22.834 19.5417 22.3757 19.875C22.2507 19.9583 22.1257 20.0833 22.0007 20.1667C21.5007 20.5417 20.959 20.5 20.459 20.0833C19.959 19.7083 19.459 19.2917 19.0006 18.9167C18.959 18.9167 18.959 18.875 18.959 18.875C18.834 19 18.6673 19.125 18.5423 19.25C17.6257 20.1667 16.7507 21.125 15.834 22.0417C15.4173 22.4583 15.0007 22.9167 14.584 23.3333C14.334 23.5833 14.0006 23.5833 13.7923 23.375C13.5423 23.1667 13.5423 22.7917 13.7923 22.5417C14.5423 21.75 15.2923 21 16.0423 20.2083C16.709 19.5417 17.334 18.875 18.0007 18.2083L18.0423 18.1667C16.4173 16.875 14.7923 15.625 13.1673 14.2917C13.1673 14.375 13.1673 14.375 13.1673 14.4167C13.1673 15.2083 13.1673 16 13.1673 16.7917C13.1673 17.125 12.8757 17.375 12.5423 17.25C12.459 17.2083 12.334 17.125 12.2923 17.0417C12.1257 16.7917 12.0423 16.5 12.0423 16.1667C12.0423 15.3333 12.0423 14.5 12.0423 13.6667C12.0423 13.125 12.2507 12.7083 12.7507 12.5C12.8757 12.4583 13.0007 12.4167 13.1673 12.375C18.584 12.375 24.0006 12.375 29.4173 12.375C29.459 12.375 29.459 12.375 29.5007 12.4167C29.8757 12.4583 30.1673 12.6667 30.334 13C30.4173 13.1667 30.459 13.3333 30.5006 13.5C30.5006 17.0833 30.5006 20.6667 30.5006 24.25C30.459 24.25 30.459 24.3333 30.459 24.375ZM13.959 13.5C14.0007 13.5417 14.0423 13.5833 14.0423 13.5833C15.209 14.5417 16.4173 15.4583 17.584 16.4167C18.7507 17.3333 19.959 18.2917 21.1257 19.2083C21.209 19.2917 21.2923 19.2917 21.3757 19.2083C21.7507 18.9167 22.1257 18.6667 22.5007 18.375C24.6673 16.7917 26.834 15.1667 29.0006 13.5833C29.0423 13.5833 29.0423 13.5417 29.084 13.5C24.0007 13.5 19.0007 13.5 13.959 13.5ZM29.334 14.7083C27.7507 15.875 26.1673 17.0417 24.6256 18.2083C26.209 19.8333 27.7507 21.4583 29.334 23.0833C29.334 20.2917 29.334 17.5 29.334 14.7083ZM13.0423 21.25C12.7923 21.5 12.5423 21.75 12.334 22C12.2507 22.0833 12.209 22.125 12.1257 22.2083C12.334 22.6667 12.6257 23.0833 12.9173 23.4583C13.7923 24.625 14.834 25.7083 16.0423 26.5833C16.459 26.875 16.8757 27.125 17.2923 27.375C17.334 27.4167 17.3757 27.375 17.4173 27.3333C17.709 27.0833 17.959 26.8333 18.2507 26.5417C18.7923 26 19.459 25.9583 20.084 26.375C21.0423 27 21.959 27.625 22.9173 28.25C23.2507 28.4583 23.459 28.75 23.5007 29.1667C23.5423 29.4167 23.459 29.6667 23.334 29.9167C22.9173 30.6667 22.459 31.4583 22.0423 32.2083C22.0007 32.2917 21.9173 32.4167 21.7923 32.4583C21.5007 32.5833 21.3756 32.5833 20.8756 32.5833C20.7923 32.5833 20.6673 32.5833 20.584 32.5833C20.3757 32.5833 20.209 32.5417 20.0007 32.5417C19.084 32.4167 18.1673 32.0833 17.334 31.7083C16.0423 31.0833 14.834 30.2917 13.6673 29.4167C12.834 28.7917 12.0423 28.125 11.3757 27.375C10.7923 26.7083 10.2507 26 9.70898 25.2917C8.91732 24.2083 8.20898 23.0833 7.66732 21.8333C7.37565 21.125 7.12565 20.4167 7.04232 19.625C7.00065 19.375 6.95898 19.125 6.95898 18.875C6.95898 18.2917 7.00065 18.2917 7.08398 17.9583C7.12565 17.7917 7.20898 17.5833 7.37565 17.5C8.12565 17.0833 8.87565 16.625 9.62565 16.2083C10.1673 15.9167 10.834 16.0417 11.209 16.5417C11.9173 17.5417 12.584 18.5833 13.2507 19.625C13.5423 20.1667 13.459 20.8333 13.0423 21.25ZM12.209 20.1667C11.584 19.2083 10.959 18.25 10.334 17.3333C10.2507 17.2083 10.209 17.2083 10.084 17.2917C9.54232 17.5833 9.00065 17.9167 8.50065 18.2083C8.08398 18.4583 8.08398 18.4167 8.08398 18.9167C8.08398 19.5417 8.20898 20.1667 8.41732 20.7917C8.79232 21.875 9.33398 22.8333 9.95898 23.75C10.459 24.5417 11.0423 25.2917 11.6257 26C12.084 26.5833 12.6257 27.125 13.1673 27.625C13.834 28.2083 14.5423 28.75 15.2506 29.25C16.2506 29.9583 17.2923 30.5833 18.4173 31.0417C19.1257 31.3333 19.8756 31.5417 20.6673 31.5417C20.7923 31.5417 20.959 31.5 21.084 31.5C21.1673 31.5 21.209 31.4583 21.2507 31.375C21.584 30.75 21.959 30.125 22.2923 29.5C22.3757 29.375 22.3757 29.3333 22.209 29.25C21.2507 28.625 20.334 28 19.3757 27.375C19.209 27.25 19.1257 27.25 18.959 27.4167C18.5423 27.7917 18.1257 28.2083 17.709 28.5833C17.584 28.7083 17.459 28.75 17.2923 28.6667C16.8757 28.5 16.459 28.2917 16.084 28.0417C14.4173 26.9583 13.0423 25.625 11.8757 24.0417C11.459 23.4583 11.084 22.875 10.834 22.1667C10.7923 22 10.834 21.8333 10.9173 21.7083C11.2923 21.2917 11.6673 20.9167 12.084 20.5C12.334 20.4167 12.334 20.3333 12.209 20.1667Z" fill="black"/>
</svg>
