<svg width="40" height="40" viewBox="0 0 40 40" fill="none" xmlns="http://www.w3.org/2000/svg">
<path fill-rule="evenodd" clip-rule="evenodd" d="M27.5849 26.4324C27.1049 26.9764 26.4809 27.2884 25.8169 27.5444C24.6969 27.9684 23.5289 28.1844 22.3449 28.3124C21.1369 28.4404 19.9209 28.4724 18.7049 28.3924C17.1529 28.2964 15.6169 28.0724 14.1529 27.5044C13.5289 27.2644 12.9369 26.9604 12.4889 26.4404C11.9049 25.7764 11.8969 24.9524 12.4809 24.2804C12.9369 23.7604 13.5289 23.4324 14.1609 23.2084C14.8489 22.9684 15.5609 22.7764 16.3129 22.5524C15.9689 22.2244 15.6249 21.8884 15.2809 21.5524C14.4089 20.6964 13.7929 19.6164 13.4889 18.4324C12.4969 14.6724 15.0089 10.7524 18.8249 10.0964C22.5049 9.47241 25.9129 11.7604 26.6489 15.4164C27.1129 17.7524 26.4649 19.7924 24.8169 21.5204C24.5129 21.8324 24.2009 22.1364 23.8969 22.4484C23.8569 22.4884 23.8169 22.5364 23.7689 22.5844C24.3129 22.7284 24.8409 22.8564 25.3609 23.0164C25.9849 23.2084 26.5849 23.4644 27.1129 23.8564C27.2729 23.9764 27.4249 24.1204 27.5609 24.2724C28.1689 24.9444 28.1689 25.7684 27.5849 26.4324ZM24.0569 20.5364C25.3209 19.2004 25.7929 17.5764 25.4649 15.7764C24.9529 12.8004 22.1209 10.8004 19.1449 11.3124C19.0729 11.3284 19.0009 11.3364 18.9369 11.3524C16.8569 11.7844 15.4249 13.0484 14.7769 15.0804C14.1289 17.0964 14.5369 18.9604 15.9849 20.5124C17.2649 21.8884 18.6329 23.1844 19.9609 24.5204C19.9769 24.5364 20.0009 24.5524 20.0249 24.5764C20.0489 24.5604 20.0649 24.5444 20.0809 24.5284C21.4169 23.1924 22.7689 21.8884 24.0569 20.5364ZM26.5529 24.9844C26.3289 24.8004 26.0889 24.6404 25.8329 24.5204C24.8729 24.0564 23.8409 23.8484 22.7929 23.7044C22.7049 23.7044 22.6249 23.7364 22.5689 23.8004C21.8969 24.4644 21.2249 25.1364 20.5529 25.8004C20.2009 26.1524 19.8809 26.1524 19.5209 25.7924C18.8569 25.1364 18.1929 24.4724 17.5369 23.8084C17.4569 23.7124 17.3209 23.6724 17.2009 23.7044C16.8489 23.7764 16.4969 23.8244 16.1449 23.8964C15.3929 24.0564 14.6569 24.2644 13.9849 24.6484C13.7689 24.7764 13.5689 24.9364 13.3849 25.1204C13.2249 25.2724 13.2329 25.4164 13.3849 25.5764C13.5209 25.7204 13.6729 25.8484 13.8329 25.9604C14.3449 26.2964 14.9209 26.4884 15.5129 26.6484C16.9929 27.0484 18.5049 27.1764 20.3209 27.1924C20.6329 27.1764 21.2409 27.1604 21.8329 27.1124C22.9689 27.0164 24.0889 26.8404 25.1689 26.4644C25.6649 26.2884 26.1529 26.0884 26.5529 25.7364C26.8649 25.4564 26.8729 25.2564 26.5529 24.9844ZM16.9609 16.7444C16.9689 15.0484 18.3449 13.6804 20.0409 13.6884C21.7369 13.6964 23.1049 15.0724 23.0969 16.7684C23.0889 18.4564 21.7209 19.8244 20.0249 19.8244C18.3369 19.8244 16.9609 18.4484 16.9609 16.7444ZM21.8729 16.7604C21.8729 15.7444 21.0489 14.9204 20.0329 14.9124C19.0169 14.9124 18.1929 15.7364 18.1849 16.7524C18.1849 17.7684 19.0089 18.5924 20.0249 18.6004C21.0489 18.6004 21.8729 17.7764 21.8729 16.7604Z" fill="#FF161F"/>
</svg>
