<svg width="35" height="35" viewBox="0 0 35 35" fill="none" xmlns="http://www.w3.org/2000/svg">
<path fill-rule="evenodd" clip-rule="evenodd" d="M18.1556 2.0089C18.3244 2.06231 18.4844 2.13353 18.6356 2.21365C18.9822 2.4362 19.1422 2.78337 19.1422 3.18396C19.1511 4.31451 19.1511 5.45396 19.1422 6.58451C19.16 7.11863 18.8044 7.59934 18.28 7.73287C17.7822 7.8753 17.2489 7.65275 17 7.19875C16.8933 7.0029 16.84 6.78926 16.84 6.56671C16.8222 5.44506 16.8311 4.32341 16.8311 3.20177C16.8311 2.55192 17.2667 2.10682 17.7822 2.02671C17.8 2.0178 17.8089 2.0089 17.8267 2L18.1556 2.0089ZM3 16.8396C3.05333 16.6793 3.11556 16.5191 3.19556 16.3678C3.41778 16.0117 3.76444 15.8515 4.18222 15.8515C5.32889 15.8426 6.46667 15.8426 7.61333 15.8515C8.24444 15.8515 8.76889 16.3589 8.76889 16.9998C8.76889 17.5339 8.41333 17.9968 7.88889 18.1215C7.75556 18.1482 7.63111 18.166 7.49778 18.166C6.42222 18.166 5.35556 18.1571 4.28889 18.1749C3.62222 18.1838 3.14222 17.8099 3.01778 17.2135C3.01778 17.2046 3.00889 17.1957 3 17.1868V16.8396ZM9.92444 16.9464C9.94222 12.5666 13.5156 8.92573 18.04 8.92573C22.4133 8.92573 26.0667 12.5666 26.0667 16.9553C26.0844 21.4152 22.4844 25.0561 18.0311 25.0739C13.5778 25.0917 9.94222 21.4864 9.92444 17.0265C9.92444 16.9998 9.92444 16.9731 9.92444 16.9464ZM23.7556 17.0265C23.7733 13.8663 21.2044 11.258 18.0667 11.2313C14.8844 11.1957 12.28 13.7417 12.2356 16.9286C12.2 20.1155 14.7422 22.7238 17.9244 22.7683C21.1067 22.8039 23.7111 20.2579 23.7556 17.071C23.7556 17.0532 23.7556 17.0443 23.7556 17.0265ZM30.1022 18.1571C29.5422 18.1571 28.9822 18.166 28.4222 18.1571C27.6756 18.1482 27.1689 17.5873 27.2311 16.8663C27.2756 16.2966 27.7733 15.8515 28.3956 15.8426C29.5422 15.8337 30.6889 15.8337 31.8444 15.8426C32.4756 15.8426 32.9911 16.35 33 16.9909C33 17.5161 32.6444 17.979 32.1378 18.1126C32.0133 18.1482 31.8889 18.1571 31.7644 18.1571C31.1956 18.166 30.6444 18.1571 30.1022 18.1571ZM16.8311 29.0798C16.8311 28.5279 16.8222 27.9848 16.8311 27.4329C16.84 26.5694 17.6044 26.0175 18.3956 26.3024C18.8489 26.4715 19.1511 26.9077 19.1422 27.3973C19.1511 28.5368 19.1511 29.6851 19.1422 30.8246C19.1511 31.4655 18.6444 31.9907 18.0044 31.9996C17.6578 32.0085 17.3378 31.8572 17.1067 31.599C16.9111 31.3765 16.8133 31.0827 16.8222 30.789C16.8311 30.2192 16.8311 29.6495 16.8311 29.0798ZM31.1244 23.8098C31.1244 24.7979 30.1911 25.3677 29.4267 24.9315C28.4133 24.3617 27.4089 23.7742 26.4044 23.1867C25.9689 22.9374 25.7467 22.4389 25.8622 21.9493C25.9689 21.4597 26.3867 21.0858 26.8844 21.0413C27.1156 21.0146 27.3467 21.068 27.5422 21.1837C28.5556 21.7624 29.5689 22.3499 30.5822 22.9374C30.8933 23.1155 31.1067 23.4448 31.1244 23.8098ZM26.0933 5.03557C26.0311 5.22251 25.9956 5.42726 25.8978 5.59639C25.3378 6.59341 24.76 7.59043 24.1822 8.57855C23.8711 9.10377 23.2844 9.30851 22.7511 9.08597C22.2089 8.86342 21.8978 8.29369 22.0578 7.75067C22.1378 7.52812 22.2356 7.31447 22.3689 7.10973C22.8667 6.23734 23.3733 5.35604 23.88 4.48365C24.2622 3.8249 25.0622 3.66467 25.64 4.13647C25.9244 4.35902 26.0578 4.66169 26.0933 5.03557ZM24.8311 30.1391C24.4578 30.1302 24.12 29.9166 23.9422 29.5961C23.3467 28.5813 22.76 27.5664 22.1733 26.5427C21.8711 25.9819 22.0756 25.2875 22.6356 24.9849C23.1778 24.6911 23.8533 24.8781 24.1733 25.4033C24.6 26.1154 25.0089 26.8276 25.4178 27.5486C25.5867 27.8424 25.7644 28.1362 25.9333 28.4388C26.3422 29.2133 25.7822 30.1391 24.8311 30.1391ZM31.1244 10.2076C31.0978 10.5726 30.8933 10.902 30.5644 11.0711C29.5511 11.6586 28.5378 12.2462 27.5244 12.8248C26.9644 13.1275 26.2711 12.9227 25.9689 12.3619C25.6756 11.8189 25.8622 11.1423 26.3867 10.8218C27.0889 10.4035 27.8 10.0029 28.5022 9.59338C28.8044 9.41534 29.1067 9.2373 29.4089 9.06816C30.1822 8.64087 31.1244 9.20169 31.1244 10.2076ZM6.03111 25.0739C5.50667 25.0828 5.04444 24.7445 4.90222 24.2371C4.76 23.7119 4.99111 23.16 5.46222 22.9018C6.44 22.341 7.42667 21.7713 8.40444 21.2104C9.16 20.7742 10.0667 21.2193 10.1556 22.0917C10.2089 22.5724 9.98667 22.9552 9.56889 23.2045C9.08889 23.4893 8.60889 23.7564 8.12889 24.0413C7.62222 24.335 7.12444 24.6288 6.60889 24.9048C6.42222 24.9849 6.23556 25.065 6.04 25.1184C6.04 25.1006 6.04 25.0917 6.03111 25.0739ZM11.1778 30.1391C10.2 30.1302 9.64 29.2044 10.0578 28.4477C10.6267 27.424 11.2222 26.4092 11.8178 25.3944C12.1467 24.8513 12.8578 24.6733 13.4 25.0027C13.7556 25.2163 13.9689 25.6169 13.9511 26.0353C13.9333 26.2133 13.8889 26.3914 13.8 26.5516C13.24 27.5486 12.6711 28.5368 12.0933 29.5249C11.8711 29.9255 11.5244 30.1391 11.1778 30.1391ZM4.85778 10.1631C4.86667 9.20169 5.79111 8.64977 6.54667 9.06816C7.56889 9.63789 8.58222 10.2343 9.59556 10.8308C10.1378 11.1601 10.3156 11.8634 9.99556 12.4064C9.66667 12.9494 8.96445 13.1275 8.42222 12.807C7.43556 12.2373 6.44889 11.6764 5.47111 11.1067C5.07111 10.8753 4.86667 10.5281 4.85778 10.1631ZM9.92444 4.99996C9.93333 4.47475 10.2978 4.01184 10.8133 3.89612C11.3022 3.77149 11.8178 4.00294 12.0933 4.48365C12.5467 5.25812 12.9911 6.04149 13.4356 6.81596C13.5511 7.02071 13.6756 7.22545 13.7911 7.4391C14.1111 7.99102 13.9333 8.69428 13.3822 9.01475C12.8311 9.33522 12.1289 9.15718 11.8089 8.60526C11.8089 8.59636 11.8 8.59636 11.8 8.58746C11.2311 7.59934 10.6533 6.61122 10.0933 5.6231C9.98667 5.44506 9.95111 5.22251 9.88 5.02667C9.88889 5.00886 9.90667 4.99996 9.92444 4.99996Z" fill="black"/>
</svg>
