<svg width="39" height="36" viewBox="0 0 39 36" fill="none" xmlns="http://www.w3.org/2000/svg">
<path fill-rule="evenodd" clip-rule="evenodd" d="M35.8754 28.2161C34.6991 28.1736 33.3393 27.3766 33.0372 25.8996C32.9616 25.549 32.9508 25.1771 32.994 24.8158C33.0372 24.4651 32.9077 24.2633 32.6271 24.0614C32.0767 23.6682 31.5479 23.2325 31.0083 22.8181C30.9544 22.7756 30.8896 22.7331 30.8357 22.6906C30.7925 22.7437 30.7493 22.7756 30.7062 22.8181C29.6162 24.1039 28.2672 25.1027 26.7888 25.9103C25.1916 26.7816 23.4433 27.3448 21.6303 27.5785C21.3174 27.621 21.0044 27.6529 20.6915 27.6954C20.454 27.7273 20.3785 27.8017 20.3785 28.0354C20.3785 28.6199 20.3785 29.2149 20.3677 29.7993C20.3569 30.0225 20.4756 30.2244 20.6807 30.3094C20.7994 30.3625 20.9181 30.4263 21.026 30.49C22.0944 31.0957 22.6663 32.2964 22.4613 33.4865C22.2671 34.666 21.3713 35.6223 20.195 35.9092C18.4144 36.3449 16.8604 35.1442 16.5367 33.7628C16.2453 32.5196 16.6985 31.0957 18.0151 30.4475C18.3389 30.3094 18.5439 29.98 18.5007 29.6293C18.4792 29.1405 18.49 28.6517 18.49 28.163C18.49 28.0992 18.49 28.0354 18.49 27.9717C18.5007 27.8335 18.3928 27.7167 18.2525 27.706H18.2417C18.0151 27.6742 17.7885 27.6529 17.5619 27.6317C14.8963 27.3341 12.3603 26.3353 10.2235 24.7308C9.50047 24.1889 8.8206 23.5938 8.19468 22.9456C8.12993 22.8819 8.07597 22.8075 8.01122 22.7225C7.92489 22.7863 7.88172 22.8075 7.83855 22.8394C7.29897 23.2644 6.77017 23.7001 6.20901 24.1039C6.00396 24.242 5.91763 24.4864 5.98238 24.7095C6.04713 25.0708 6.03634 25.4427 5.97159 25.804C5.73417 27.0685 4.67659 28.0354 3.37079 28.1736C1.69808 28.3755 -0.0933442 27.1322 0.00378111 24.9964C0.0469479 23.8913 0.662074 23.1263 1.59016 22.595C2.53983 22.0531 3.50029 22.1381 4.46075 22.6056C4.56867 22.6587 4.67659 22.7225 4.7845 22.7756C4.80609 22.7756 4.81688 22.7863 4.83846 22.7863C5.97159 21.8937 7.1263 21.0011 8.30259 20.0873C8.35655 20.151 8.39972 20.2148 8.45368 20.2679C9.30622 21.4049 10.3206 22.4143 11.4538 23.275C13.1265 24.5395 15.1014 25.3683 17.195 25.6765C19.2022 25.9953 21.2418 25.8784 23.2059 25.3577C25.3643 24.7627 27.2204 23.6363 28.8068 22.0956C29.3896 21.5218 29.9292 20.9161 30.4256 20.2785C30.4687 20.2254 30.5119 20.1723 30.5659 20.0979C30.6198 20.1404 30.6738 20.1723 30.7277 20.2042C31.645 20.9267 32.5623 21.6493 33.4688 22.3718C33.5012 22.3931 33.5336 22.425 33.566 22.4462C33.9221 22.7437 34.3214 22.7863 34.7315 22.5525C36.361 21.6387 38.692 22.7012 38.9726 24.8583C39.2316 26.7391 37.6128 28.2798 35.8754 28.2161ZM3.03625 23.5938C2.12975 23.5938 1.39591 24.3164 1.39591 25.209C1.39591 26.1015 2.12975 26.8241 3.03625 26.8241C3.94275 26.8241 4.67659 26.1015 4.67659 25.209C4.67659 24.3164 3.94275 23.5938 3.03625 23.5938ZM19.4828 31.4145C18.5763 31.4145 17.8425 32.137 17.8425 33.0296C17.8425 33.9222 18.5763 34.6447 19.4828 34.6447C20.3893 34.6447 21.1231 33.9222 21.1231 33.0296C21.1231 32.137 20.3893 31.4145 19.4828 31.4145ZM35.9725 23.5938C35.066 23.5938 34.3322 24.3164 34.3322 25.209C34.3322 26.1015 35.066 26.8241 35.9725 26.8241C36.879 26.8241 37.6128 26.1015 37.6128 25.209C37.6128 24.3164 36.879 23.5938 35.9725 23.5938ZM28.8392 19.6622C27.4794 21.2455 25.8499 22.4781 23.8642 23.2219C22.8066 23.6151 21.6951 23.8595 20.5728 23.9338C19.7418 23.9976 18.9 23.9976 18.0691 23.9126C15.9539 23.7107 13.9359 22.9244 12.2524 21.6387C11.2919 20.8948 10.4286 20.0341 9.69472 19.0672C9.51127 18.8334 9.40335 18.5359 9.40335 18.2384C9.38177 17.3989 9.42493 16.5489 9.53285 15.72C9.80264 13.8393 10.8063 12.4898 12.5437 11.6716C13.2128 11.3528 13.9251 11.1403 14.6265 10.9171C15.1014 10.7684 15.587 10.609 16.0618 10.4602C16.3532 10.3646 16.418 10.3965 16.5367 10.6727C17.2057 12.2241 17.8856 13.7861 18.5547 15.3375C18.5979 15.4438 18.641 15.5394 18.695 15.6457H18.7382C18.7598 15.3481 18.7813 15.04 18.8029 14.7425C18.8353 14.158 18.8785 13.5842 18.7382 13.0104C18.6842 12.7979 18.6087 12.596 18.5331 12.3835C18.5115 12.3304 18.49 12.2772 18.4684 12.2241C18.641 12.1816 20.3245 12.171 20.5943 12.2135C20.5728 12.256 20.5728 12.3091 20.5512 12.3516C20.3461 12.7767 20.249 13.2442 20.249 13.7117C20.2598 14.3493 20.2922 14.9868 20.3138 15.6244C20.3245 15.6563 20.3353 15.6775 20.3461 15.7094C20.4001 15.5819 20.454 15.4756 20.4972 15.3588C21.08 13.8393 21.6519 12.3197 22.2347 10.8002C22.3858 10.3965 22.4397 10.3646 22.8498 10.5027C23.7131 10.779 24.5657 11.1084 25.4074 11.4803C26.1521 11.8097 26.8535 12.2454 27.4794 12.766C28.4831 13.6161 29.1306 14.7956 29.3248 16.0919C29.3788 16.4638 29.3896 16.8358 29.4112 17.2077C29.4327 17.5158 29.4327 17.8346 29.4435 18.1427C29.4651 18.4721 29.4004 18.8015 29.2385 19.0884C29.1198 19.2903 28.9903 19.4816 28.8392 19.6622ZM27.9974 17.1014C27.9866 16.687 27.9759 16.2726 27.8572 15.8794C27.5442 14.7743 26.8104 13.8286 25.7959 13.2548C25.1376 12.8723 24.4362 12.5429 23.7131 12.2772C23.5513 12.2135 23.3894 12.1604 23.2167 12.0966C23.1843 12.171 23.152 12.2347 23.1304 12.2985C22.9253 12.8404 22.7203 13.3823 22.5045 13.9243C22.2023 14.6999 21.9109 15.4756 21.6088 16.2407C21.3713 16.8145 20.9073 17.0695 20.303 17.1439C20.2706 17.1439 20.249 17.1439 20.2166 17.1333C19.9684 17.0695 19.6986 17.0589 19.526 16.9208C19.3101 16.9845 19.1267 17.0376 18.9324 17.0801C18.5763 17.1652 18.2525 17.0589 17.9504 16.8889C17.6914 16.7295 17.4971 16.4851 17.3892 16.2088C16.8172 14.8912 16.2453 13.5736 15.6841 12.2666C15.6517 12.1922 15.6194 12.1285 15.587 12.0647C15.5654 12.0647 15.533 12.0647 15.5007 12.0647C14.6913 12.2985 13.8927 12.5854 13.1049 12.9148C12.5545 13.1592 12.0689 13.5205 11.6912 13.9774C11.3027 14.4449 11.0329 14.9975 10.925 15.5925C10.7739 16.4213 10.7847 17.2608 10.7631 18.0896C10.7631 18.1852 10.7955 18.2809 10.871 18.3553C11.0653 18.5784 11.2595 18.8122 11.4538 19.0353C12.425 20.1085 13.5258 21.0117 14.8639 21.628C15.8352 22.0743 16.8388 22.4143 17.9072 22.51C18.7597 22.6056 19.6123 22.6162 20.4756 22.5419C21.026 22.51 21.5764 22.425 22.116 22.3081C23.6916 21.9256 25.1376 21.1817 26.3679 20.1298C26.8535 19.7154 27.3176 19.2585 27.7384 18.7803C27.8787 18.6103 28.019 18.4403 28.0082 18.1959C28.0082 17.8346 28.0082 17.4733 27.9974 17.1014ZM22.9038 8.79195C22.5368 9.46138 22.0728 10.0777 21.5224 10.609C21.1447 11.0021 20.6591 11.2784 20.1411 11.4378C19.5152 11.6184 18.8461 11.5441 18.2849 11.2253C18.0367 11.0978 17.8101 10.9384 17.605 10.7471C16.5582 9.76953 15.7704 8.62194 15.3496 7.2512C15.1553 6.61365 15.069 5.94421 15.069 5.27478C15.0798 4.36096 15.2632 3.45776 15.6194 2.61831C16.2561 1.15194 17.4 0.29124 18.9864 0.0468444C19.9684 -0.112544 20.8749 0.142478 21.6843 0.695024C22.6879 1.39633 23.3138 2.36329 23.6592 3.51089C23.875 4.2547 23.929 5.01976 23.8318 5.78483C23.7131 6.83679 23.4002 7.85687 22.9038 8.79195ZM22.3534 4.05281C22.1268 3.21336 21.7167 2.46955 21.0152 1.92763C20.5943 1.5876 20.0763 1.38571 19.526 1.37508C19.0511 1.37508 18.5871 1.50259 18.1662 1.73636C17.7022 1.98076 17.3245 2.34204 17.0762 2.78832C16.6446 3.55339 16.4395 4.41409 16.4611 5.28541C16.4503 5.97609 16.5151 6.60302 16.7741 7.19807C16.8928 7.46372 17.0115 7.72936 17.1518 7.98438C17.5079 8.65382 17.9935 9.25949 18.5655 9.76953C18.8245 10.0246 19.1698 10.1627 19.5368 10.1521C19.8281 10.1202 20.0979 10.0033 20.3138 9.82266C20.6915 9.52514 21.0152 9.16386 21.2742 8.7707C22.0404 7.64436 22.4613 6.40113 22.4397 5.03039C22.4613 4.70099 22.4289 4.37158 22.3534 4.05281Z" fill="white"/>
</svg>
