<svg width="40" height="40" viewBox="0 0 40 40" fill="none" xmlns="http://www.w3.org/2000/svg">
<path fill-rule="evenodd" clip-rule="evenodd" d="M26.2406 25.6802H13.7606C13.1446 25.6802 12.6406 25.1762 12.6406 24.5602V15.3602C12.6406 14.7442 13.1446 14.2402 13.7606 14.2402H26.2406C26.8566 14.2402 27.3606 14.7442 27.3606 15.3602V24.5602C27.3606 25.1762 26.8566 25.6802 26.2406 25.6802ZM20.4646 22.7282C20.2086 22.9762 19.8006 22.9762 19.5446 22.7282L18.0806 21.2642L14.9446 24.4002H25.0566L21.9206 21.2642L20.4646 22.7282ZM13.9206 23.6162L17.1766 20.3602L13.9206 17.1042V23.6162ZM14.1446 15.5202L20.0006 21.3762L25.8566 15.5202H14.1446ZM22.8246 20.3602L26.0806 23.6162V17.1042L22.8246 20.3602Z" fill="black"/>
</svg>
