<?xml version="1.0" encoding="utf-8"?>
<!-- Generator: Adobe Illustrator 26.0.1, SVG Export Plug-In . SVG Version: 6.00 Build 0)  -->
<svg version="1.1" id="Слой_1" xmlns="http://www.w3.org/2000/svg" xmlns:xlink="http://www.w3.org/1999/xlink" x="0px" y="0px"
	 viewBox="0 0 500 500" style="enable-background:new 0 0 500 500;" xml:space="preserve">
<style type="text/css">
	.st0{fill-rule:evenodd;clip-rule:evenodd;fill:#000000;}
</style>
<path id="Прямоугольник_2_копия_2" class="st0" d="M328,321H172c-7.7,0-14-6.3-14-14V192c0-7.7,6.3-14,14-14h156
	c7.7,0,14,6.3,14,14v115C342,314.7,335.7,321,328,321z M255.8,284.1c-3.2,3.1-8.3,3.1-11.5,0L226,265.8L186.8,305h126.4L274,265.8
	L255.8,284.1z M174,295.2l40.7-40.7L174,213.8V295.2z M176.8,194l73.2,73.2l73.2-73.2H176.8z M285.3,254.5l40.7,40.7v-81.4
	L285.3,254.5z"/>
</svg>
