<svg width="631" height="631" viewBox="0 0 631 631" fill="none" xmlns="http://www.w3.org/2000/svg">
<g clip-path="url(#clip0_1565_114)">
<path fill-rule="evenodd" clip-rule="evenodd" d="M450.594 162.738C373.588 94.5081 257.389 94.4915 180.385 162.722L101.414 83.7519C222.125 -27.9173 408.869 -27.9173 529.58 83.7519L450.594 162.738ZM181.666 469.342C258.255 536.091 372.772 536.124 449.362 469.376L528.364 548.378C408.02 658.532 222.975 658.549 102.646 548.378L181.666 469.342Z" fill="#1A0203"/>
<path fill-rule="evenodd" clip-rule="evenodd" d="M468.279 450.611C536.127 374.023 536.46 258.674 469.344 181.669L548.381 102.633C658.919 223.376 658.536 409.27 547.248 529.58L468.279 450.611ZM162.738 450.595L83.7518 529.58C-27.5357 409.27 -27.9187 223.393 82.6192 102.633L161.623 181.636C94.4907 258.64 94.8906 374.005 162.738 450.595Z" fill="#1A1A1A"/>
</g>
<defs>
<clipPath id="clip0_1565_114">
<rect width="631" height="631" fill="white"/>
</clipPath>
</defs>
</svg>
