<svg width="24" height="24" viewBox="0 0 24 24" fill="none" xmlns="http://www.w3.org/2000/svg">
<path d="M10.509 19.166C12.5733 19.166 14.4708 18.4408 15.9602 17.2334L20.6129 21.8861C20.7892 22.0624 21.0199 22.15 21.25 22.15C21.3848 22.15 21.6033 22.1011 21.7917 21.9675C21.9875 21.8285 22.15 21.5976 22.15 21.25C22.15 21.0192 22.0625 20.7884 21.8871 20.6129C21.8871 20.6129 21.8871 20.6129 21.8871 20.6129L17.2344 15.9593C18.4418 14.4717 19.167 12.5732 19.167 10.508C19.167 5.72915 15.2868 1.85 10.509 1.85C5.72917 1.85 1.85 5.72915 1.85 10.508C1.85 15.2869 5.72917 19.166 10.509 19.166ZM3.652 10.508C3.652 6.72383 6.72386 3.651 10.509 3.651C14.2922 3.651 17.366 6.72386 17.366 10.508C17.366 14.2921 14.2922 17.365 10.509 17.365C6.72386 17.365 3.652 14.2922 3.652 10.508Z" fill="black" stroke="black" stroke-width="0.3"/>
</svg>
