<svg width="618" height="553" viewBox="0 0 618 553" fill="none" xmlns="http://www.w3.org/2000/svg">
<g clip-path="url(#clip0_793_33)">
<path fill-rule="evenodd" clip-rule="evenodd" d="M188.328 1.01097C224.863 1.01097 254.471 30.6627 254.471 67.2294C254.471 103.796 224.863 133.448 188.328 133.448C151.794 133.448 122.186 103.806 122.186 67.2294C122.186 30.6526 151.794 1.01097 188.328 1.01097ZM430.681 0C467.216 0 496.824 29.6517 496.824 66.2185C496.824 102.785 467.216 132.437 430.681 132.437C394.147 132.437 364.539 102.795 364.539 66.2185C364.539 29.6416 394.147 0 430.681 0ZM551.858 209.271C588.393 209.271 618 238.912 618 275.489C618 312.066 588.393 341.707 551.858 341.707C515.323 341.707 485.716 312.056 485.716 275.489C485.716 238.922 515.323 209.271 551.858 209.271ZM66.1422 209.271C102.677 209.271 132.284 238.912 132.284 275.489C132.284 312.066 102.677 341.707 66.1422 341.707C29.6075 341.707 0 312.056 0 275.489C0 238.922 29.6075 209.271 66.1422 209.271ZM188.328 420.563C224.863 420.563 254.471 450.205 254.471 486.782C254.471 523.358 224.863 553 188.328 553C151.794 553 122.186 523.358 122.186 486.782C122.186 450.205 151.794 420.563 188.328 420.563ZM429.672 420.563C466.206 420.563 495.814 450.205 495.814 486.782C495.814 523.358 466.206 553 429.672 553C393.137 553 363.529 523.358 363.529 486.782C363.529 450.205 393.137 420.563 429.672 420.563Z" fill="#F5F5F5"/>
<path fill-rule="evenodd" clip-rule="evenodd" d="M577.093 272.85C577.093 260.183 566.924 249.871 554.271 249.719L554.433 235.445C574.851 235.687 591.281 252.348 591.281 272.85H577.093ZM557.29 265.763C557.846 266.653 558.139 267.694 558.119 268.756C558.129 269.484 557.947 270.212 557.593 270.849C557.25 271.445 556.786 271.981 556.24 272.406C555.705 272.83 555.13 273.194 554.514 273.477C555.584 273.841 556.452 274.326 557.119 274.953C557.765 275.54 558.27 276.278 558.583 277.086C558.906 277.925 559.058 278.825 559.048 279.725C559.068 280.979 558.714 282.202 558.048 283.253C557.391 284.295 556.473 285.134 555.382 285.71C554.251 286.306 552.999 286.62 551.716 286.61C550.202 286.61 548.859 286.286 547.687 285.659C546.546 285.053 545.597 284.153 544.931 283.051C544.254 281.929 543.911 280.645 543.931 279.331C543.911 278.916 544.062 278.502 544.335 278.198C544.587 277.915 544.941 277.754 545.324 277.754C545.708 277.743 546.072 277.905 546.324 278.198C546.597 278.512 546.738 278.916 546.718 279.331C546.708 280.139 546.93 280.928 547.354 281.615C547.778 282.313 548.374 282.889 549.081 283.284C549.828 283.708 550.676 283.92 551.535 283.9C552.868 283.9 553.938 283.526 554.766 282.798C555.584 282.06 555.998 281.019 555.988 279.685C555.998 278.886 555.816 278.097 555.443 277.4C555.099 276.743 554.584 276.176 553.958 275.772C553.322 275.368 552.585 275.155 551.838 275.166C551.424 275.176 551.02 275.014 550.727 274.711C550.434 274.407 550.272 274.003 550.282 273.588C550.262 272.759 550.909 272.062 551.737 272.042C551.767 272.042 551.797 272.042 551.827 272.042C552.403 272.042 552.969 271.89 553.463 271.597C553.978 271.304 554.433 270.899 554.766 270.414C555.109 269.919 555.291 269.332 555.281 268.736C555.301 267.887 554.948 267.068 554.312 266.491C553.665 265.885 552.837 265.582 551.827 265.582C551.1 265.571 550.383 265.733 549.717 266.036C549.121 266.309 548.596 266.724 548.202 267.25C547.839 267.735 547.637 268.331 547.647 268.948C547.657 269.373 547.526 269.787 547.253 270.121C547.011 270.424 546.637 270.596 546.253 270.586C545.88 270.586 545.516 270.424 545.264 270.141C544.991 269.838 544.84 269.443 544.86 269.039C544.84 267.917 545.163 266.825 545.769 265.885C546.385 264.945 547.243 264.186 548.253 263.681C549.343 263.135 550.545 262.862 551.767 262.882C552.888 262.862 553.999 263.135 554.998 263.651C555.947 264.156 556.725 264.874 557.29 265.763ZM433.095 40.459L433.256 26.1841C453.675 26.4267 470.104 43.0875 470.104 63.5899H455.916C455.916 50.9124 445.748 40.6005 433.095 40.459ZM436.316 57.0186C436.871 58.0903 437.144 59.3641 437.144 60.8401C437.134 61.5174 437.003 62.1847 436.74 62.8115C436.467 63.4787 436.124 64.1257 435.71 64.7222C435.326 65.2884 434.902 65.8444 434.448 66.36L427.51 74.2455H435.993C436.841 74.2253 437.548 74.9027 437.568 75.7519C437.578 76.1765 437.417 76.5809 437.114 76.8842C436.821 77.1875 436.417 77.3492 435.993 77.3391H424.784C424.37 77.3492 423.966 77.1875 423.673 76.8842C423.39 76.591 423.229 76.1967 423.229 75.7923C423.219 75.3879 423.37 74.9937 423.653 74.7005L432.257 64.6312C432.802 64.0145 433.266 63.3473 433.67 62.6295C434.004 62.0027 434.175 61.4062 434.175 60.8401C434.175 59.9504 434.024 59.1821 433.721 58.5351C433.448 57.9184 432.994 57.3927 432.418 57.0389C431.853 56.685 431.176 56.5131 430.388 56.5131C429.651 56.503 428.934 56.7052 428.318 57.0995C427.702 57.4938 427.208 58.0296 426.864 58.6766C426.511 59.3439 426.329 60.092 426.339 60.8401C426.319 61.6893 425.622 62.3667 424.774 62.3565C424.37 62.3464 423.986 62.1847 423.704 61.9016C423.411 61.6287 423.249 61.2445 423.249 60.8401C423.249 59.4652 423.562 58.2318 424.188 57.1602C424.804 56.0885 425.683 55.209 426.753 54.6024C427.834 53.9756 429.045 53.6622 430.399 53.6622C431.772 53.6622 432.963 53.9554 433.973 54.5418C434.973 55.118 435.791 55.9773 436.316 57.0186ZM432.347 474.397C432.56 474.276 432.812 474.215 433.054 474.215C433.448 474.205 433.832 474.367 434.084 474.67C434.347 474.984 434.488 475.378 434.478 475.792V489.744H436.296C436.68 489.734 437.063 489.835 437.386 490.047C437.689 490.249 437.841 490.613 437.841 491.139C437.841 491.523 437.679 491.877 437.386 492.13C437.094 492.402 436.7 492.544 436.296 492.534H434.478V496.355C434.488 496.76 434.337 497.154 434.054 497.447C433.771 497.751 433.377 497.912 432.963 497.902C432.57 497.902 432.196 497.74 431.933 497.447C431.651 497.154 431.499 496.76 431.509 496.355V492.534H421.421C420.957 492.534 420.593 492.392 420.331 492.109C420.078 491.846 419.917 491.493 419.886 491.119C419.856 490.755 419.957 490.391 420.179 490.108L431.782 474.882C431.944 474.69 432.135 474.518 432.347 474.397ZM431.509 479.695L423.885 489.744H431.509V479.695ZM351.149 294.93C347.433 295.779 343.909 295.294 340.718 293.13C337.769 291.119 336.022 288.288 335.467 284.76C334.437 278.31 338.537 273.174 342.909 271.354C344.767 270.586 346.706 270.343 348.705 270.465C351.068 270.596 353.361 271.364 355.33 272.668C355.441 272.739 355.562 272.85 355.683 272.79C355.825 272.719 355.744 272.547 355.744 272.426C355.754 271.88 355.744 271.344 355.734 270.808C355.734 270.566 355.835 270.444 356.067 270.444C356.723 270.444 357.38 270.444 358.036 270.495C358.208 270.566 358.177 270.727 358.177 270.859C358.177 272.77 358.177 274.68 358.198 276.591C358.198 276.904 358.097 277.036 357.784 277.005C357.218 276.965 356.642 277.157 356.077 276.985C356.037 276.965 355.996 276.945 355.956 276.925V276.914C355.572 276.52 355.219 276.096 354.825 275.722C353.31 274.266 351.492 273.427 349.422 273.123C347.271 272.8 345.191 272.982 343.263 274.033C340.385 275.6 338.708 278.016 338.274 281.282C338.244 281.535 338.224 281.787 338.193 282.03C338.143 282.606 338.143 283.193 338.193 283.769C338.193 283.769 338.193 283.769 338.193 283.779C338.456 288.167 342.071 292.18 346.393 292.665C348.574 292.908 350.685 292.696 352.674 291.695C353.845 291.108 354.855 290.229 355.592 289.137C355.754 288.894 355.925 288.662 356.239 288.601C356.279 288.601 356.309 288.601 356.35 288.601H356.239C356.562 288.47 356.895 288.551 357.218 288.551C357.672 288.541 358.117 288.541 358.571 288.541C358.672 288.541 358.814 288.48 358.894 288.621H358.814C358.844 288.621 358.864 288.622 358.894 288.632C358.935 288.753 358.874 288.864 358.824 288.965C357.279 292.261 354.623 294.131 351.149 294.93ZM334.295 295.405C331.983 295.415 329.66 295.446 327.338 295.456C326.712 295.456 326.712 295.456 326.692 294.819C326.682 294.323 326.692 293.828 326.682 293.343C326.682 292.868 326.682 292.857 327.166 292.868C327.217 292.868 327.267 292.868 327.318 292.878C327.328 292.878 327.338 292.878 327.348 292.868C327.853 292.857 328.348 292.857 328.853 292.847C329.337 292.847 329.428 292.756 329.418 292.291C329.398 290.896 329.378 289.491 329.347 288.096C329.347 288.086 329.347 288.076 329.347 288.065C329.347 288.076 329.347 288.096 329.347 288.106C329.307 287.742 329.226 287.378 329.216 287.014C329.206 285.043 329.246 283.071 329.196 281.1C329.125 278.38 329.176 275.671 329.135 272.951C329.135 272.951 329.145 272.951 329.145 272.962C328.55 272.78 327.954 272.921 327.348 272.881C327.085 272.871 326.813 272.941 326.55 272.81C326.55 272.79 326.55 272.78 326.55 272.759V272.81C326.52 272.79 326.49 272.77 326.47 272.739C326.419 272.032 326.268 271.334 326.55 270.646H326.56V270.697C326.56 270.677 326.56 270.667 326.56 270.646C326.621 270.525 326.742 270.505 326.863 270.505H331.66C331.66 270.505 331.66 270.505 331.66 270.515C331.902 270.616 331.872 270.828 331.872 271.031C331.882 272.507 331.882 273.983 331.892 275.469C331.892 277.046 331.872 278.613 331.912 280.19C331.993 283.971 331.943 287.762 331.973 291.543C331.973 291.958 332.013 292.382 332.034 292.797C332.791 292.797 333.538 292.817 334.295 292.807C334.619 292.807 334.76 292.908 334.75 293.232C334.74 293.798 334.75 294.354 334.76 294.93C334.76 295.243 334.659 295.405 334.295 295.405ZM254.541 279.826C254.541 279.836 254.541 279.856 254.541 279.877C254.541 279.856 254.541 279.846 254.541 279.826ZM220.45 296.224V288.905C226.903 288.905 232.154 283.658 232.224 277.137L239.495 277.218C239.384 287.742 230.892 296.224 220.45 296.224ZM190.742 41.4699L190.903 27.1951C211.322 27.4377 227.751 44.0985 227.751 64.6009H213.563C213.563 51.9234 203.395 41.6115 190.742 41.4699ZM190.742 76.8033C190.752 77.2178 190.58 77.6121 190.287 77.8951C189.995 78.1984 189.591 78.3602 189.166 78.3501C188.763 78.3501 188.379 78.1883 188.106 77.8951C187.813 77.6121 187.642 77.2178 187.652 76.8033V58.3026L185.44 59.2428C185.137 59.3742 184.804 59.445 184.471 59.4551C184.057 59.4652 183.663 59.3135 183.37 59.0305C183.077 58.7474 182.916 58.3531 182.926 57.9386C182.926 57.6252 183.007 57.3219 183.168 57.0591C183.35 56.7861 183.613 56.5839 183.926 56.4828L188.651 54.7844C188.752 54.744 188.853 54.7136 188.954 54.6934C189.045 54.6732 189.136 54.6631 189.227 54.6631C189.692 54.6631 190.055 54.8046 190.328 55.0978C190.61 55.4112 190.752 55.8156 190.742 56.2301V76.8033ZM194.104 473.679C194.397 473.973 194.559 474.367 194.559 474.791C194.549 475.631 193.862 476.318 193.024 476.308H193.014H184.441V481.434H187.955C189.429 481.434 190.742 481.777 191.903 482.444C193.044 483.102 194.003 484.062 194.66 485.204C195.336 486.367 195.68 487.691 195.68 489.157C195.68 490.613 195.346 491.927 194.66 493.1C194.003 494.253 193.054 495.213 191.903 495.88C190.742 496.558 189.429 496.891 187.955 496.891C186.501 496.891 185.188 496.558 184.027 495.88C182.875 495.213 181.926 494.263 181.27 493.1C180.593 491.927 180.25 490.613 180.25 489.157C180.24 488.743 180.391 488.349 180.674 488.045C180.957 487.752 181.351 487.59 181.765 487.6C182.179 487.59 182.583 487.752 182.885 488.045C183.188 488.338 183.35 488.733 183.34 489.157C183.33 489.986 183.542 490.805 183.946 491.523C184.34 492.221 184.905 492.797 185.602 493.191C186.319 493.595 187.127 493.808 187.945 493.798C188.773 493.808 189.601 493.606 190.328 493.191C191.014 492.797 191.59 492.221 191.984 491.523C192.792 490.047 192.792 488.258 191.984 486.771C191.59 486.084 191.025 485.518 190.328 485.113C189.601 484.699 188.783 484.497 187.945 484.507H182.885C182.471 484.517 182.078 484.365 181.795 484.062C181.512 483.769 181.361 483.364 181.371 482.95V474.761C181.361 474.347 181.512 473.942 181.795 473.639C182.078 473.336 182.471 473.174 182.885 473.184H193.004C193.428 473.204 193.832 473.376 194.104 473.679ZM68.5555 249.73L68.7171 235.455C89.1353 235.697 105.565 252.358 105.565 272.86H91.3771C91.3771 260.183 81.2083 249.871 68.5555 249.73ZM69.8177 263.216C69.8884 263.6 69.8076 263.984 69.5956 264.308L65.4453 271.203C65.617 271.192 65.7886 271.192 65.9603 271.192C67.3538 271.192 68.5858 271.506 69.6562 272.112C70.7165 272.719 71.5849 273.599 72.1706 274.66C72.7765 275.742 73.0794 276.985 73.0794 278.411C73.0794 279.806 72.7765 281.049 72.1706 282.131C71.5849 283.193 70.7165 284.072 69.6562 284.679C68.5858 285.295 67.3538 285.599 65.9603 285.599C64.5668 285.599 63.3247 285.295 62.2442 284.679C61.1839 284.082 60.3054 283.203 59.7096 282.131C59.1037 281.049 58.8008 279.816 58.8008 278.411C58.8008 276.995 59.1037 275.742 59.7096 274.66C59.8005 274.498 59.9015 274.347 60.0025 274.195L66.8287 262.791C67.1923 262.225 67.6568 261.942 68.2223 261.942C68.9998 261.912 69.6764 262.458 69.8177 263.216ZM62.2442 276.075C61.8908 276.743 61.7191 277.521 61.7191 278.411C61.709 279.219 61.8908 280.008 62.2442 280.726C62.5775 281.383 63.0924 281.929 63.7286 282.303C65.102 283.051 66.7479 283.051 68.1213 282.303C68.7574 281.929 69.2825 281.383 69.6259 280.726C69.9995 280.008 70.1813 279.209 70.1712 278.411C70.1712 277.521 69.9894 276.743 69.6259 276.075C69.2724 275.428 68.7574 274.882 68.1213 274.498C66.758 273.73 65.0919 273.73 63.7286 274.498C63.1025 274.882 62.5875 275.428 62.2442 276.075ZM217.825 288.905L217.734 296.224C207.303 296.103 198.901 287.53 198.901 277.005H206.172C206.182 283.526 211.362 288.824 217.825 288.905ZM218.461 255.775V263.095C212.008 263.095 206.757 268.311 206.687 274.812L199.416 274.731C199.527 264.217 208.019 255.775 218.461 255.775ZM190.903 446.737C211.322 446.98 227.751 463.64 227.751 484.143H213.563C213.563 471.475 203.395 461.164 190.742 461.022L190.903 446.737ZM432.246 446.737C452.665 446.98 469.094 463.64 469.094 484.143H454.906C454.906 471.475 444.738 461.164 432.085 461.022L432.246 446.737Z" fill="#FF161F"/>
<path fill-rule="evenodd" clip-rule="evenodd" d="M554.212 314.078V299.803C566.794 299.803 577.044 289.572 577.195 276.844L591.383 277.006C591.141 297.549 574.58 314.078 554.212 314.078ZM526.321 272.305L512.134 272.143C512.376 251.64 528.937 235.162 549.305 235.162V249.437C536.722 249.437 526.473 259.627 526.321 272.305ZM531.512 201.153L544.861 196.957L541.832 210.615L531.512 201.153ZM536.712 196.795C535.975 196.846 535.329 196.28 535.288 195.532C535.288 195.511 535.288 195.491 535.288 195.471C535.258 194.713 535.844 194.076 536.601 194.046C537.359 194.015 537.995 194.602 538.025 195.36C538.076 196.098 537.51 196.735 536.773 196.785C536.753 196.795 536.732 196.795 536.712 196.795ZM534.491 191.114C533.733 191.083 533.178 190.447 533.218 189.648C533.259 188.869 533.885 188.323 534.672 188.364C535.45 188.404 536.036 189.163 535.965 189.83C535.904 190.588 535.248 191.154 534.491 191.114ZM532.39 185.473C531.633 185.483 530.977 184.876 530.946 184.148C530.926 183.592 531.431 182.733 532.299 182.723C533.037 182.682 533.673 183.248 533.703 183.986C533.703 184.007 533.703 184.027 533.703 184.057C533.713 184.866 533.158 185.462 532.39 185.473ZM529.957 179.892C529.058 179.872 528.563 179.164 528.604 178.497C528.624 177.729 529.26 177.122 530.027 177.132C530.734 177.142 531.36 177.749 531.391 178.558C531.33 179.194 530.896 179.912 529.957 179.892ZM527.584 174.443C526.877 174.514 526.13 173.857 526.079 173.108C526.049 172.562 526.473 171.794 527.261 171.703C528.099 171.602 528.745 172.087 528.816 172.896C528.906 173.766 528.341 174.332 527.584 174.443ZM525.231 168.913C524.968 168.974 524.696 168.963 524.433 168.893C524.039 168.792 523.716 168.488 523.585 168.104C523.443 167.72 523.464 167.295 523.656 166.931C523.888 166.487 524.282 166.254 524.786 166.203C525.413 166.143 526.2 166.729 526.251 167.578C526.271 168.104 525.867 168.781 525.231 168.913ZM521.969 163.605C521.232 163.565 520.687 162.908 520.727 162.109C520.778 161.361 521.434 160.795 522.181 160.855C522.191 160.855 522.201 160.855 522.201 160.855C522.888 160.906 523.534 161.583 523.464 162.352C523.383 163.11 522.726 163.656 521.969 163.605ZM519.081 158.318C518.425 158.298 517.879 157.742 517.829 157.034C517.768 156.235 518.324 155.598 519.091 155.578C519.99 155.518 520.515 156.205 520.576 156.842C520.656 157.62 519.919 158.348 519.081 158.318ZM516.052 153.091C515.335 153.071 514.699 152.363 514.749 151.635C514.8 150.887 515.426 150.321 516.213 150.341C516.981 150.362 517.536 150.988 517.506 151.787C517.475 152.535 516.839 153.122 516.082 153.091C516.062 153.091 516.052 153.091 516.052 153.091ZM512.861 147.905C512.164 147.865 511.598 147.308 511.558 146.611C511.528 145.873 512.184 145.175 512.942 145.155C513.689 145.145 514.305 145.731 514.315 146.479C514.315 146.51 514.315 146.54 514.315 146.581C514.295 147.399 513.689 147.955 512.861 147.905ZM512.618 403.7C513.325 403.71 513.901 404.277 513.901 404.994C513.961 405.742 513.396 406.4 512.649 406.46C512.618 406.46 512.598 406.46 512.568 406.46C511.841 406.47 511.144 405.793 511.154 405.035C511.184 404.266 511.821 403.67 512.588 403.69C512.598 403.7 512.608 403.7 512.618 403.7ZM510.397 142.648C510.175 142.8 509.922 142.88 509.65 142.911C509.054 142.88 508.478 142.446 508.327 141.9C508.185 141.455 508.286 140.96 508.589 140.606C509.044 140.04 510.134 139.959 510.69 140.586C511.164 141.091 511.164 142.193 510.397 142.648ZM509.266 408.725C509.872 408.735 510.629 409.271 510.599 410.15C510.589 410.929 509.983 411.495 509.185 411.485C508.438 411.475 507.832 410.858 507.842 410.11C507.842 410.1 507.842 410.09 507.842 410.079C507.872 409.261 508.62 408.705 509.266 408.725ZM506.196 137.846C505.489 137.856 504.903 137.29 504.883 136.582C504.823 135.824 505.378 135.157 506.135 135.096C506.156 135.096 506.166 135.096 506.186 135.096C506.913 135.076 507.59 135.713 507.64 136.491C507.59 137.168 507.125 137.866 506.196 137.846ZM505.883 413.709C506.59 413.871 507.014 414.164 507.176 415.033C507.186 415.438 507.024 415.822 506.741 416.105C506.499 416.327 506.186 416.479 505.863 416.529C505.802 416.54 505.731 416.54 505.661 416.529C504.984 416.438 504.449 415.893 504.368 415.205C504.358 415.074 504.378 414.942 504.419 414.811C504.54 414.275 504.954 413.861 505.489 413.749C505.62 413.709 505.752 413.689 505.883 413.709ZM502.742 132.953C501.945 132.983 501.339 132.427 501.329 131.638C501.319 130.85 501.894 130.223 502.642 130.193C503.379 130.162 504.045 130.809 504.086 131.527C504.116 132.174 503.601 132.943 502.742 132.953ZM502.227 418.663C502.419 418.683 502.621 418.723 502.803 418.784C503.227 418.936 503.631 419.562 503.621 420.027C503.57 420.776 502.965 421.372 502.207 421.423C501.935 421.433 501.702 421.311 501.47 421.17C500.965 420.867 500.743 420.24 500.905 419.623C501.066 419.037 501.611 418.632 502.227 418.663ZM499.077 128.13C498.663 128.141 498.279 128.05 497.996 127.706C497.613 127.251 497.572 126.725 497.784 126.189C497.976 125.704 498.37 125.472 498.865 125.391C498.996 125.37 499.137 125.381 499.269 125.411C499.673 125.492 500.016 125.745 500.218 126.098C500.481 126.503 500.491 127.018 500.238 127.433C500.006 127.868 499.562 128.141 499.077 128.13ZM498.592 423.404C499.208 423.485 499.663 423.758 499.814 424.324C499.844 424.445 499.875 424.567 499.895 424.698C499.945 425.173 499.733 425.638 499.35 425.911C499.178 426.012 499.006 426.103 498.814 426.174C498.622 426.245 498.421 426.245 498.229 426.184C497.673 426.033 497.3 425.679 497.158 425.123C497.118 425.001 497.098 424.87 497.108 424.728C497.189 424.041 497.714 423.495 498.39 423.404C498.461 423.404 498.521 423.404 498.592 423.404ZM495.341 123.47C495.209 123.49 495.068 123.48 494.947 123.439C494.391 123.278 494.008 122.924 493.856 122.358C493.806 122.166 493.806 121.963 493.856 121.761C494.038 121.013 494.795 120.558 495.532 120.74C495.603 120.76 495.684 120.781 495.755 120.811C496.27 121.013 496.593 121.529 496.562 122.085C496.522 122.823 496.169 123.288 495.341 123.47ZM496.058 429.429C496.098 430.228 495.563 430.845 494.785 430.885C493.987 430.926 493.341 430.37 493.321 429.622C493.301 428.843 493.856 428.196 494.593 428.145C495.25 428.065 496.017 428.631 496.058 429.429ZM492.069 118.587C491.614 118.88 491.039 118.89 490.574 118.607C490.13 118.344 489.958 117.93 489.958 117.444C489.958 116.878 490.211 116.423 490.736 116.171C490.897 116.11 491.059 116.07 491.231 116.049C492.16 116.059 492.705 116.797 492.715 117.434C492.725 117.909 492.473 118.344 492.069 118.587ZM492.089 433.888C492.2 434.676 491.796 435.313 491.009 435.536C490.948 435.546 490.877 435.556 490.807 435.556C490.403 435.556 490.019 435.394 489.756 435.091C489.363 434.717 489.241 434.141 489.453 433.635C489.696 433.109 490.11 432.796 490.675 432.766C491.241 432.735 491.978 433.079 492.089 433.888ZM487.181 114.3C486.444 114.28 485.879 113.613 485.929 112.824C485.96 112.137 486.505 111.581 487.192 111.561C488.04 111.551 488.757 112.268 488.676 113.047C488.595 113.785 487.969 114.321 487.181 114.3ZM483.082 109.872C482.355 109.842 481.678 109.134 481.739 108.437C481.799 107.678 482.445 107.102 483.203 107.122C483.97 107.133 484.546 107.769 484.516 108.568C484.485 109.296 483.95 109.923 483.082 109.872ZM493.695 441.743L480.345 445.939L483.374 432.28L493.695 441.743ZM433.036 104.807V90.5325C445.618 90.5325 455.867 80.3015 456.019 67.5734L470.207 67.7351C469.964 88.278 453.403 104.807 433.036 104.807ZM455.009 488.136L469.197 488.298C468.954 508.841 452.394 525.38 432.026 525.38V511.106C444.608 511.095 454.868 500.864 455.009 488.136ZM405.145 63.0341L390.957 62.8724C391.2 42.3699 407.76 25.8911 428.128 25.8911V40.1761C415.546 40.166 405.296 50.3566 405.145 63.0341ZM392.179 275.752H391.735C391.886 275.762 392.038 275.762 392.189 275.772C394.481 276.035 396.117 277.289 397.349 279.149C397.44 279.28 397.511 279.412 397.602 279.574C398.238 278.633 398.995 277.784 399.874 277.056C403.156 274.377 409.154 275.368 410.719 280.736C410.84 281.141 410.921 281.555 410.951 281.97V281.959C411.103 282.242 411.072 282.556 411.072 282.869C411.083 283.476 411.072 284.082 411.072 284.689C411.072 284.699 411.072 284.709 411.072 284.719C411.093 284.75 411.113 284.79 411.123 284.831V289.188C411.123 290.158 411.143 291.139 411.143 292.11C411.143 292.362 411.204 292.453 411.466 292.443C412.082 292.433 412.708 292.443 413.334 292.433C413.536 292.413 413.738 292.494 413.88 292.645V294.809C413.789 294.839 413.698 294.869 413.607 294.9C413.557 294.92 413.496 294.94 413.435 294.94H408.306C408.296 294.94 408.285 294.94 408.275 294.94C408.275 294.94 408.265 294.94 408.265 294.95C407.589 294.95 406.912 294.95 406.225 294.96C405.963 294.96 405.821 294.869 405.821 294.586C405.832 293.99 405.842 293.383 405.832 292.787C405.832 292.564 405.953 292.494 406.145 292.484H406.821C407.225 292.362 407.649 292.443 408.063 292.433C408.326 292.423 408.417 292.372 408.407 292.089C408.396 290.128 408.427 288.167 408.376 286.205C408.346 284.901 408.356 283.617 408.336 282.313C408.346 282.323 408.346 282.333 408.346 282.333C408.346 282.323 408.346 282.323 408.346 282.323C408.124 280.271 406.286 278.461 404.186 278.219C401.651 277.905 399.278 279.543 398.662 282.03C398.652 282.101 398.632 282.172 398.632 282.242C398.622 282.263 398.622 282.273 398.622 282.293C398.622 283.87 398.622 285.437 398.622 287.014C398.622 288.824 398.632 290.644 398.632 292.453C398.632 292.463 398.642 292.463 398.642 292.473C399.419 292.484 400.187 292.494 400.964 292.484C401.257 292.484 401.388 292.585 401.358 292.848C401.358 292.868 401.368 292.898 401.368 292.918C401.399 293.545 401.399 294.172 401.358 294.789L401.348 294.799C401.348 294.869 401.298 294.93 401.237 294.95C401.227 294.95 401.217 294.95 401.197 294.95C400.732 295.051 400.247 294.981 399.783 294.991C398.955 295.001 398.117 294.991 397.289 294.991H397.279C396.107 294.991 394.936 295.001 393.764 295.001C393.613 295.001 393.411 295.041 393.381 294.789C393.381 294.768 393.381 294.748 393.381 294.728C393.3 294.091 393.3 293.444 393.381 292.807C393.381 292.787 393.381 292.767 393.381 292.746C393.472 292.544 393.643 292.544 393.835 292.544C394.572 292.544 395.299 292.534 396.047 292.524V292.534C396.036 292.544 396.036 292.554 396.026 292.575C396.036 292.564 396.047 292.564 396.057 292.554C396.067 292.544 396.057 292.534 396.067 292.524C396.057 292.524 396.057 292.534 396.047 292.544C396.047 292.382 396.067 292.211 396.067 292.039C396.047 289.319 396.026 286.6 395.996 283.89C395.996 283.9 396.006 283.911 396.006 283.911C396.006 283.911 396.006 283.911 396.006 283.9C395.966 283.294 396.036 282.677 395.895 282.071C395.057 278.502 390.957 277.117 388.009 279.402C386.958 280.21 386.312 281.262 386.14 282.596C386.1 283.83 386.1 285.053 386.14 286.276C386.151 288.106 386.161 289.926 386.161 291.756C386.161 291.786 386.171 291.826 386.171 291.857C386.201 292.059 386.221 292.251 386.211 292.453C386.211 292.484 386.211 292.504 386.221 292.534C386.979 292.534 387.746 292.534 388.503 292.544C388.645 292.544 388.796 292.504 388.857 292.696H388.847C388.857 292.696 388.867 292.706 388.867 292.706L388.887 293.04C388.887 293.05 388.887 293.06 388.887 293.08C388.968 293.626 388.968 294.182 388.887 294.728C388.887 294.748 388.887 294.768 388.887 294.799C388.887 294.819 388.887 294.839 388.877 294.859C388.877 295.031 388.746 295.041 388.614 295.041C386.171 295.051 383.737 295.051 381.303 295.072C381.041 295.072 380.849 295.031 380.879 294.708C380.879 294.677 380.879 294.647 380.879 294.627C380.879 294.657 380.879 294.687 380.879 294.718C380.768 294.192 380.839 293.646 380.839 293.11C380.849 293.161 380.839 293.211 380.849 293.272C380.849 293.222 380.849 293.161 380.849 293.11C380.849 292.746 380.96 292.625 381.324 292.615C381.95 292.605 382.566 292.585 383.192 292.605C383.485 292.615 383.576 292.544 383.576 292.241C383.555 289.936 383.555 287.631 383.555 285.336C383.555 285.316 383.555 285.296 383.555 285.275V285.336C383.525 285.296 383.515 285.255 383.505 285.205V279.543C383.505 279.553 383.505 279.553 383.505 279.553V279.543C383.495 279.341 383.495 279.139 383.505 278.937C383.535 278.755 383.454 278.573 383.293 278.472C383.293 278.472 383.283 278.472 383.283 278.461C382.576 278.472 381.869 278.482 381.172 278.482C380.97 278.482 380.809 278.451 380.829 278.188C380.819 278.077 380.829 277.966 380.819 277.855C380.819 277.956 380.809 278.067 380.809 278.168C380.687 277.744 380.778 277.309 380.758 276.884C380.738 276.632 380.758 276.379 380.768 276.126V276.136C380.799 276.338 380.809 276.541 380.809 276.733C380.809 276.672 380.809 276.611 380.809 276.541C380.829 276.409 380.819 276.278 380.788 276.146C380.748 275.924 380.829 275.762 381.061 275.712C381.112 275.701 381.152 275.702 381.202 275.702H381.051C381.081 275.681 381.112 275.661 381.142 275.651H385.636C385.585 275.661 385.535 275.661 385.494 275.671C385.555 275.671 385.625 275.671 385.686 275.661C386.06 275.691 386.12 275.914 386.11 276.247C386.09 276.925 386.11 277.592 386.12 278.259C386.12 278.34 386.05 278.472 386.171 278.502C386.282 278.532 386.332 278.421 386.383 278.34C387.15 277.228 388.261 276.399 389.543 275.995C389.988 275.843 390.442 275.742 390.907 275.702C391.058 275.681 391.21 275.681 391.361 275.681H390.886C391.301 275.641 391.745 275.641 392.179 275.752ZM385.646 275.712H385.605C385.625 275.701 385.636 275.701 385.646 275.712ZM379.122 289.693L378.244 291.361L377.042 292.817L375.598 294.02L373.942 294.91L372.124 295.476L370.155 295.688L368.186 295.476L366.368 294.91L364.712 294.02L363.268 292.817L362.067 291.361L361.188 289.693L360.633 287.863L360.421 285.882L360.633 283.9L361.188 282.071L362.067 280.403L363.268 278.947L364.712 277.744L366.368 276.854L368.186 276.288L370.155 276.076L372.124 276.288L373.942 276.854L375.598 277.744L377.042 278.947L378.244 280.403L379.122 282.071L379.678 283.9L379.89 285.882L379.678 287.863L379.122 289.693ZM377.052 284.436L376.648 283.102L376.022 281.909L375.154 280.857L374.104 279.978L372.912 279.341L371.579 278.926L370.145 278.775L368.711 278.926L367.378 279.341L366.187 279.978L365.136 280.857L364.268 281.909L363.642 283.102L363.238 284.436L363.087 285.882L363.238 287.328L363.642 288.662L364.268 289.855L365.136 290.906L366.187 291.786L367.378 292.423L368.711 292.837L370.135 292.989L371.569 292.837L372.902 292.423L374.093 291.786L375.144 290.906L376.012 289.855L376.638 288.662L377.042 287.328L377.194 285.882L377.052 284.436ZM360.784 32.3411L371.094 41.8038L357.755 45.9993L360.784 32.3411ZM357.775 40.6614C357.018 40.7018 356.361 40.1256 356.311 39.3673C356.311 39.3673 356.311 39.3673 356.311 39.3572C356.26 38.7405 356.664 37.9419 357.603 37.9115C358.351 37.8408 359.007 38.3968 359.078 39.1449C359.078 39.1651 359.078 39.1752 359.078 39.1955C359.138 39.9133 358.512 40.6108 357.775 40.6614ZM358.603 511.823C358.583 512.582 357.947 513.229 357.22 513.219C356.462 513.188 355.856 512.572 355.826 511.813C355.846 511.045 356.472 510.438 357.24 510.448C357.987 510.469 358.593 511.075 358.603 511.823ZM351.686 39.5089C350.918 39.4785 350.363 38.872 350.383 38.0632C350.403 37.2847 351.019 36.7287 351.807 36.7489C352.564 36.7792 353.16 37.4162 353.13 38.1744C353.1 38.9326 352.463 39.5291 351.706 39.4988C351.706 39.5089 351.696 39.5089 351.686 39.5089ZM351.656 511.581C351.716 511.601 351.777 511.631 351.837 511.662C352.332 511.874 352.665 512.359 352.686 512.905C352.716 513.481 352.292 514.027 351.696 514.229C351.575 514.27 351.444 514.29 351.312 514.32C350.898 514.341 350.454 514.098 350.191 513.744C350.161 513.704 350.131 513.663 350.111 513.623C350.09 513.593 350.07 513.562 350.06 513.522C350.03 513.461 350 513.39 349.989 513.32C349.909 512.996 349.929 512.662 350.04 512.349C350.262 511.753 351.07 511.368 351.656 511.581ZM345.799 38.5484C345.031 38.5586 344.405 37.952 344.385 37.1836C344.385 37.1836 344.385 37.1836 344.385 37.1735C344.385 36.4153 344.971 35.7784 345.728 35.7278C346.445 35.6975 347.122 36.3546 347.132 37.1028C347.172 38.0531 346.405 38.5282 345.799 38.5484ZM345.375 512.531C346.193 512.551 346.728 513.289 346.687 513.967C346.647 514.664 345.991 515.331 345.233 515.281C344.476 515.24 343.89 514.583 343.941 513.825C343.961 513.047 344.577 512.491 345.375 512.531ZM339.71 37.7093C339.104 37.6588 338.589 37.2342 338.417 36.6478C338.286 36.1221 338.478 35.5661 338.912 35.2325C339.023 35.1516 339.134 35.0909 339.255 35.0404C339.619 34.8584 340.043 34.8685 340.386 35.0808C341.063 35.4347 341.335 36.2535 341.002 36.941C340.8 37.3757 340.184 37.7498 339.71 37.7093ZM339.326 513.34C340.073 513.34 340.679 513.946 340.679 514.684C340.679 514.705 340.679 514.715 340.679 514.735C340.669 515.493 340.043 516.1 339.275 516.1C338.518 516.069 337.912 515.443 337.922 514.684C337.932 513.926 338.548 513.33 339.306 513.34C339.316 513.34 339.316 513.34 339.326 513.34ZM333.762 37.0421C333.005 37.032 332.338 36.3546 332.348 35.6166C332.378 34.8483 333.015 34.2518 333.782 34.2822C333.792 34.2822 333.812 34.2822 333.822 34.2822C334.529 34.2923 335.095 34.8685 335.095 35.5762C335.145 36.3243 334.58 36.9814 333.822 37.032C333.812 37.0421 333.792 37.0421 333.762 37.0421ZM334.651 515.352C334.691 516.1 334.115 516.727 333.368 516.767C333.348 516.767 333.318 516.767 333.297 516.767C332.53 516.777 331.904 516.16 331.894 515.392C331.874 514.634 332.469 514.007 333.217 513.977C333.227 513.977 333.247 513.977 333.257 513.977C333.954 513.967 334.661 514.462 334.651 515.352ZM327.663 36.5063C326.895 36.476 326.299 35.8289 326.32 35.0606C326.38 34.3024 327.006 33.716 327.764 33.7059C328.481 33.6958 329.107 34.4035 329.076 35.1617C329.046 36.0716 328.339 36.5467 327.663 36.5063ZM326.754 286.307L326.542 288.288L325.976 290.118L325.098 291.786L323.896 293.242L322.442 294.445L320.746 295.335L318.928 295.901L316.959 296.113L314.99 295.901L313.172 295.335L311.516 294.445L310.072 293.242L308.87 291.786L307.992 290.118L307.436 288.288L307.224 286.307L307.436 284.325L307.992 282.495L308.87 280.827L310.072 279.371L311.516 278.168L313.172 277.279L314.99 276.712L316.959 276.5L318.928 276.712L320.746 277.279L322.442 278.168L323.896 279.371L325.098 280.827L325.976 282.495L326.542 284.325L326.754 286.307ZM323.906 284.871L323.502 283.537L322.866 282.344L321.988 281.282L320.947 280.413L319.736 279.776L318.393 279.361L316.959 279.21L315.525 279.361L314.192 279.776L313 280.413L311.95 281.292L311.082 282.344L310.456 283.537L310.052 284.871L309.9 286.317L310.052 287.762L310.456 289.097L311.082 290.29L311.95 291.341L313 292.221L314.192 292.858L315.525 293.272L316.949 293.424L318.383 293.272L319.726 292.858L320.937 292.221L321.977 291.351L322.856 290.29L323.492 289.097L323.896 287.762L324.048 286.317L323.906 284.871ZM321.846 36.1423C321.786 36.1626 321.715 36.1626 321.644 36.1524C321.17 36.0716 320.766 35.8795 320.503 35.4549C320.241 35.0303 320.19 34.6057 320.422 34.1406C320.655 33.6452 321.149 33.342 321.695 33.3521C322.442 33.3318 323.068 34.0092 323.028 34.7674C322.997 35.556 322.593 35.9401 321.846 36.1423ZM315.757 35.8896C314.899 35.9199 314.162 35.2224 314.232 34.454C314.303 33.6958 314.939 33.1296 315.696 33.1499C316.363 33.1499 317.029 33.716 316.989 34.5956C316.959 35.3032 316.424 35.8593 315.757 35.8896ZM309.708 35.8289C308.88 35.8795 308.133 35.1718 308.184 34.3833C308.234 33.6351 308.85 33.0892 309.648 33.0892C310.496 33.0993 310.981 33.7767 310.94 34.5147C310.93 35.2021 310.395 35.7784 309.708 35.8289ZM304.619 35.8694C303.892 35.9199 303.185 35.374 303.155 34.5956C303.114 33.7969 303.65 33.1499 304.407 33.1195C305.164 33.0791 305.821 33.625 305.911 34.3833C305.962 34.9797 305.417 35.8188 304.619 35.8694ZM303.589 270.687H303.72C303.791 270.707 303.841 270.768 303.862 270.839V270.849C303.942 270.94 303.922 271.041 303.922 271.142V275.964C303.922 276.065 303.963 276.187 303.862 276.268C303.852 276.268 303.831 276.268 303.821 276.278C303.831 276.278 303.852 276.278 303.862 276.278C303.781 276.399 303.65 276.389 303.538 276.389C302.892 276.399 302.256 276.399 301.61 276.399C301.509 276.399 301.388 276.389 301.337 276.278C300.681 274.751 299.57 273.76 297.934 273.447C296.268 273.124 294.723 273.437 293.551 274.761C292.713 275.712 292.471 276.894 292.673 278.138C292.824 279.068 293.39 279.735 294.188 280.231C295.208 280.857 296.349 281.171 297.49 281.494C299.116 281.959 300.751 282.414 302.226 283.294C303.751 284.204 304.801 285.447 305.094 287.257V287.247C305.306 287.621 305.215 288.025 305.215 288.419C305.215 288.419 305.215 288.419 305.215 288.409C305.215 288.419 305.215 288.419 305.215 288.43V288.561C305.215 288.571 305.215 288.571 305.215 288.581C305.255 288.955 305.275 289.329 305.104 289.683C305.104 289.693 305.104 289.714 305.104 289.724C304.76 292.13 303.448 293.808 301.276 294.829C300.6 295.142 299.893 295.415 299.136 295.506C299.116 295.506 299.105 295.506 299.085 295.506C298.197 295.678 297.308 295.84 296.409 295.567C296.399 295.567 296.389 295.567 296.379 295.567C294.965 295.385 293.774 294.809 292.936 293.596H292.925V293.606C292.703 293.727 292.764 293.949 292.754 294.142C292.754 294.495 292.774 294.859 292.764 295.213C292.754 295.426 292.693 295.638 292.441 295.668C291.734 295.749 291.027 295.739 290.32 295.648V295.638C290.179 295.557 290.199 295.425 290.199 295.294C290.199 293.373 290.179 291.452 290.179 289.532C290.179 289.42 290.148 289.289 290.27 289.208C290.27 289.228 290.27 289.248 290.27 289.269C290.27 289.248 290.27 289.228 290.28 289.198H290.27C290.3 289.036 290.421 288.996 290.562 288.996C291.098 288.986 291.633 288.986 292.168 288.986C292.279 288.986 292.38 288.996 292.431 289.127C292.511 289.43 292.572 289.724 292.673 290.027C293.319 291.837 294.652 292.837 296.5 293.08C298.166 293.292 299.731 292.898 301.075 291.826C303.074 290.249 302.943 286.832 300.832 285.387C299.711 284.618 298.439 284.234 297.146 283.86C295.753 283.466 294.349 283.122 293.067 282.435C291.633 281.666 290.482 280.625 290.078 278.987C289.361 275.995 290.552 271.981 294.975 270.96C295.127 270.93 295.278 270.899 295.43 270.869C296.106 270.626 296.843 270.626 297.52 270.859C299.004 271.102 300.287 271.718 301.327 272.83V272.82C301.478 272.527 301.468 272.224 301.438 271.91C301.418 271.617 301.408 271.314 301.418 271.021C301.398 270.879 301.489 270.758 301.62 270.717V270.738V270.728C301.65 270.728 301.67 270.728 301.701 270.717H301.62C301.721 270.606 301.862 270.647 301.983 270.657C302.559 270.697 303.135 270.546 303.7 270.697C303.67 270.687 303.629 270.687 303.589 270.687ZM299.317 35.7683C298.732 36.1929 297.964 36.2333 297.369 35.556C297.136 35.2931 297.076 34.9696 297.086 34.636C297.076 34.1608 297.338 33.7261 297.752 33.5037C297.985 33.3622 298.247 33.2813 298.52 33.2914C299.136 33.4026 299.59 33.7261 299.792 34.363C299.954 34.8281 299.752 35.4549 299.317 35.7683ZM292.744 36.3546C292.612 36.3749 292.481 36.385 292.35 36.3951C291.653 36.3749 291.148 35.9098 291.057 35.2628C291.047 35.1718 291.037 35.0707 291.047 34.9696C291.077 34.1912 291.673 33.7261 292.279 33.6452C292.41 33.625 292.542 33.6351 292.673 33.6655C293.057 33.7565 293.39 34.0092 293.602 34.3428C294.117 35.1718 293.582 36.1929 292.744 36.3546ZM291.279 514.492C291.906 514.604 292.35 515.16 292.32 515.786C292.309 516.524 291.956 517 291.148 517.212C291.077 517.222 291.017 517.232 290.946 517.232C290.058 517.141 289.532 516.393 289.573 515.756C289.623 514.968 290.33 514.3 291.279 514.492ZM286.331 36.9612C285.614 36.9511 285.009 36.2637 285.019 35.4953C285.029 34.6259 285.726 34.1305 286.432 34.1608C287.18 34.1709 287.786 34.7977 287.765 35.5459C287.765 35.5661 287.765 35.5762 287.765 35.5964C287.755 36.4052 286.978 36.9713 286.331 36.9612ZM287.382 276.389C287.392 276.389 287.402 276.389 287.412 276.399C287.462 276.419 287.493 276.48 287.493 276.541C287.493 276.591 287.493 276.652 287.493 276.702C287.563 277.309 287.563 277.916 287.493 278.522C287.493 278.573 287.493 278.613 287.493 278.664C287.462 278.755 287.371 278.815 287.271 278.815C287.21 278.815 287.149 278.825 287.089 278.825H287.26C286.836 278.947 286.412 278.856 285.988 278.876C285.665 278.886 285.342 278.876 285.019 278.866C285.059 278.856 285.089 278.836 285.13 278.836C285.099 278.836 285.059 278.846 285.029 278.856L285.019 278.866C284.817 278.896 284.685 279.028 284.574 279.199C283.08 281.353 281.585 283.516 280.091 285.67C279.889 285.953 279.879 286.195 280.091 286.489C281.696 288.682 283.292 290.886 284.887 293.09C284.887 293.09 284.897 293.09 284.897 293.1H287.18C287.281 293.1 287.402 293.06 287.483 293.161C287.472 293.161 287.452 293.161 287.442 293.161C287.462 293.161 287.472 293.161 287.493 293.161C287.685 293.302 287.634 293.495 287.614 293.677V295.466C287.614 295.476 287.604 295.476 287.604 295.486L287.614 295.476C287.634 295.749 287.452 295.759 287.26 295.759C286.412 295.759 285.564 295.769 284.716 295.769C283.241 295.779 281.767 295.789 280.303 295.789C279.879 295.789 279.778 295.698 279.788 295.264C279.798 294.698 279.717 294.131 279.798 293.565C279.798 293.495 279.818 293.434 279.859 293.373C279.859 293.353 279.869 293.333 279.879 293.323H279.889C280.071 293.171 280.293 293.181 280.505 293.181C280.838 293.181 281.171 293.181 281.505 293.181C281.646 293.181 281.787 293.181 281.868 293.03C281.868 293.03 281.868 293.03 281.868 293.04V293.03C280.687 291.412 279.515 289.805 278.314 288.167C277.152 289.805 276.011 291.422 274.88 293.03V293.04C274.961 293.262 275.173 293.201 275.335 293.211C275.678 293.242 276.011 293.191 276.355 293.201C276.89 293.222 276.94 293.242 276.9 293.798C276.9 293.808 276.9 293.808 276.9 293.818V295.476C276.9 295.486 276.9 295.486 276.9 295.486C276.96 295.8 276.758 295.8 276.536 295.81C275.123 295.82 273.719 295.84 272.305 295.85C271.376 295.85 270.437 295.86 269.508 295.86C269.114 295.86 269.013 295.769 269.013 295.385C269.013 294.839 269.003 294.303 269.013 293.768C269.013 293.343 269.094 293.272 269.518 293.262C270.255 293.252 270.992 293.252 271.73 293.252C271.73 293.252 271.74 293.252 271.74 293.242C273.032 291.564 274.173 289.774 275.415 288.056C275.769 287.57 276.102 287.075 276.456 286.59C276.688 286.276 276.688 285.993 276.456 285.67C274.931 283.557 273.416 281.444 271.911 279.331C271.74 279.068 271.437 278.916 271.124 278.937C270.528 278.957 269.932 278.947 269.326 278.947C269.155 278.947 268.983 278.947 268.922 278.734C268.922 278.724 268.922 278.704 268.922 278.694C268.821 278.279 268.882 277.855 268.882 277.44C268.882 277.188 268.791 276.925 268.932 276.682C268.932 276.662 268.932 276.652 268.932 276.632C268.993 276.531 269.104 276.47 269.215 276.47H269.235C269.256 276.45 269.286 276.45 269.316 276.439C270.77 276.45 272.235 276.379 273.689 276.429C273.689 276.429 273.689 276.429 273.689 276.439V276.429C274.608 276.429 275.527 276.419 276.445 276.419C276.516 276.409 276.577 276.429 276.627 276.47H276.637C276.789 276.561 276.758 276.712 276.758 276.854C276.769 277.4 276.769 277.946 276.769 278.492C276.769 278.664 276.769 278.836 276.546 278.876C275.951 278.977 275.345 278.937 274.749 278.937C275.022 279.483 275.415 279.958 275.759 280.463C276.597 281.697 277.435 282.91 278.303 284.184C279.495 282.435 280.586 280.665 281.747 278.866C281.141 278.866 280.586 278.856 280.03 278.866C279.747 278.876 279.636 278.745 279.636 278.472C279.636 277.916 279.646 277.36 279.636 276.814C279.626 276.49 279.768 276.389 280.061 276.389C280.777 276.399 281.494 276.389 282.221 276.389C282.232 276.389 282.232 276.389 282.242 276.389C282.322 276.349 282.413 276.338 282.494 276.349C284.029 276.349 285.564 276.338 287.109 276.338C287.2 276.328 287.301 276.308 287.382 276.389ZM280.232 37.5476C279.465 37.5071 278.94 36.8702 278.99 36.0615C279.051 35.3032 279.717 34.7472 280.475 34.8079C280.475 34.8079 280.475 34.8079 280.485 34.8079C281.222 34.8786 281.767 35.5358 281.727 36.3142C281.686 37.0623 281.04 37.5981 280.232 37.5476ZM274.385 38.3665C273.628 38.3968 272.992 37.8003 272.972 37.0522V37.0421C272.972 36.2839 273.567 35.6571 274.325 35.6166C275.082 35.6065 275.718 36.2131 275.728 36.9713C275.769 37.7093 275.203 38.3361 274.466 38.3766C274.436 38.3665 274.416 38.3665 274.385 38.3665ZM268.892 39.2359C268.731 39.2966 268.559 39.3471 268.377 39.3875C267.66 39.3168 267.054 38.7607 266.973 38.1238C266.913 37.6487 267.105 37.1836 267.488 36.9006C267.933 36.5568 268.417 36.4456 268.963 36.7186C269.387 36.9208 269.68 37.3353 269.71 37.8003C269.801 38.4473 269.508 38.9528 268.892 39.2359ZM268.367 512.855C268.286 513.613 267.63 514.169 266.883 514.118C266.125 514.098 265.58 513.451 265.62 512.652C265.671 511.864 266.297 511.328 267.074 511.368C267.852 511.419 268.428 512.238 268.367 512.855ZM265.984 295.82L265.974 295.81C266.004 295.779 266.004 295.729 265.974 295.698V295.81C265.974 295.81 265.974 295.81 265.984 295.82C265.883 295.82 265.782 295.82 265.691 295.83C265.58 295.84 265.459 295.84 265.348 295.84H265.701C265.287 295.961 264.873 295.891 264.459 295.891C263.55 295.901 262.641 295.891 261.743 295.891V295.88C261.753 295.88 261.773 295.87 261.783 295.86C261.763 295.86 261.753 295.87 261.733 295.87C260.804 295.88 259.864 295.88 258.935 295.891C258.915 295.901 258.895 295.901 258.885 295.901H258.946C258.875 295.951 258.794 295.971 258.703 295.961C256.966 295.961 255.229 295.971 253.493 295.971C253.432 295.971 253.381 295.961 253.311 295.951L253.321 295.941C253.351 295.931 253.381 295.921 253.412 295.911C253.381 295.911 253.351 295.921 253.321 295.931C252.069 295.941 250.817 295.941 249.564 295.941C249.161 295.941 249.07 295.86 249.07 295.476C249.07 294.869 249.09 294.253 249.1 293.646C249.1 293.646 249.11 293.646 249.11 293.636C249.161 293.464 249.312 293.464 249.443 293.454C250.09 293.444 250.726 293.424 251.372 293.444C251.675 293.454 251.867 293.404 251.887 293.06V291.786C251.867 291.746 251.847 291.705 251.836 291.655V286.003C251.836 285.063 251.826 284.133 251.826 283.193C251.826 283.183 251.826 283.173 251.816 283.162V283.183C251.766 283.112 251.746 283.031 251.756 282.94C251.756 281.161 251.746 279.381 251.746 277.592C251.746 277.541 251.756 277.501 251.766 277.45H251.776C251.766 276.106 251.766 274.771 251.766 273.427C251.766 273.427 251.766 273.427 251.776 273.437C251.776 273.437 251.776 273.437 251.776 273.427C251.725 273.386 251.655 273.356 251.584 273.356V273.366H249.261C249.12 273.366 248.999 273.245 248.999 273.103V271.284C248.999 271.152 249.1 271.041 249.231 271.041C249.231 271.041 249.231 271.041 249.241 271.041H250.302C250.312 271.031 250.332 271.031 250.342 271.021C250.413 271.031 250.483 271.031 250.554 271.031C253.493 271.031 256.421 271.021 259.349 270.99C261.298 270.97 263.247 270.99 265.196 270.97C265.661 270.96 265.822 271.122 265.822 271.587C265.832 273.093 265.832 274.589 265.832 276.096C265.832 276.328 265.762 276.46 265.509 276.46C265.499 276.46 265.479 276.46 265.459 276.46C265.6 276.46 265.752 276.46 265.893 276.46C265.62 276.611 265.307 276.601 265.014 276.611C264.56 276.632 264.106 276.611 263.661 276.561C263.368 276.52 263.308 276.399 263.308 276.146C263.318 275.226 263.308 274.296 263.308 273.376C260.491 273.397 257.663 273.427 254.846 273.437C254.573 273.437 254.543 273.558 254.543 273.781C254.553 275.681 254.553 277.572 254.553 279.472C254.553 279.584 254.543 279.705 254.543 279.816C254.523 279.634 254.512 279.452 254.502 279.27V279.745C254.502 279.786 254.512 279.816 254.533 279.846L254.553 281.788L254.563 281.798C255.139 281.879 255.704 281.818 256.28 281.818C258.431 281.818 260.591 281.818 262.742 281.808C262.894 281.808 263.055 281.798 263.207 281.788C263.368 281.777 263.52 281.777 263.601 281.949H263.591C263.591 281.969 263.591 281.99 263.591 282.02V281.959C263.823 282.758 263.823 283.607 263.591 284.406V284.325C263.591 284.345 263.591 284.376 263.591 284.396V284.406H263.581C263.591 284.406 263.591 284.406 263.601 284.406C263.5 284.578 263.338 284.547 263.187 284.547C260.894 284.558 258.592 284.558 256.29 284.568C255.896 284.568 255.502 284.608 255.108 284.608C254.805 284.608 254.684 284.74 254.684 285.043C254.694 286.721 254.684 288.409 254.694 290.098C254.704 291.058 254.664 292.019 254.735 292.979C254.755 293.292 254.866 293.434 255.179 293.434C257.592 293.424 259.996 293.424 262.399 293.414C262.52 293.404 262.641 293.393 262.752 293.373C263.166 293.333 263.379 293.1 263.379 292.686C263.379 291.695 263.368 290.714 263.368 289.724C263.368 289.572 263.338 289.4 263.51 289.309C263.51 289.319 263.51 289.339 263.52 289.35V289.299H263.591L263.712 289.289C264.459 289.208 265.206 289.168 265.954 289.309L265.964 289.299C265.964 289.309 265.964 289.309 265.974 289.319V289.299C266.186 289.39 266.115 289.582 266.115 289.744C266.125 291.078 266.125 292.413 266.135 293.747C266.135 294.293 266.166 294.829 266.176 295.365C266.186 295.557 266.206 295.749 265.984 295.82ZM254.543 279.877C254.543 279.857 254.543 279.846 254.543 279.826C254.553 279.846 254.543 279.857 254.543 279.877ZM262.46 40.4187C261.722 40.4592 261.086 39.893 261.046 39.1449C261.046 39.1247 261.046 39.1045 261.046 39.0843C261.026 38.3159 261.632 37.679 262.399 37.6588C263.166 37.6386 263.803 38.2452 263.823 39.0135C263.823 39.0236 263.823 39.0236 263.823 39.0337C263.853 39.7717 263.267 40.3985 262.53 40.4187C262.51 40.4187 262.49 40.4187 262.46 40.4187ZM256.552 41.6723C255.805 41.6926 255.159 41.2073 255.149 40.348C255.149 39.5796 255.744 38.9326 256.471 38.9124C257.017 38.8922 257.855 39.3875 257.895 40.2772C257.926 41.0051 257.401 41.6521 256.552 41.6723ZM251.443 42.8451C251.382 42.8855 251.332 42.9259 251.261 42.9563C250.817 43.209 250.372 43.1787 249.948 42.936C249.605 42.7339 249.352 42.4103 249.251 42.0161C249.181 41.7633 249.201 41.4904 249.312 41.2477C249.605 40.6209 250.029 40.348 250.716 40.3682C250.796 40.3682 250.887 40.3783 250.968 40.3985C251.544 40.5299 251.958 41.0455 251.968 41.642C251.988 42.1475 251.826 42.5519 251.443 42.8451ZM220.341 263.085L220.422 255.765C230.883 255.887 239.305 264.429 239.305 274.933H232.034C232.034 268.453 226.824 263.165 220.341 263.085ZM190.683 105.818V91.5434C203.265 91.5434 213.514 81.3124 213.666 68.5843L227.864 68.7461C227.611 89.289 211.051 105.818 190.683 105.818ZM162.792 483.597L148.604 483.435C148.847 462.933 165.407 446.454 185.775 446.454V460.729C173.193 460.729 162.943 470.92 162.792 483.597ZM185.553 91.5434L185.371 105.828C165.014 105.586 148.635 88.8745 148.635 68.3215H162.822C162.832 81.0496 172.951 91.3918 185.553 91.5434ZM162.792 64.0451L148.604 63.8833C148.847 43.3809 165.407 26.9021 185.775 26.9021V41.177C173.193 41.177 162.943 51.3675 162.792 64.0451ZM135.265 443.411C134.588 443.219 134.305 442.542 134.326 442.046C134.346 441.389 134.921 440.783 135.568 440.712C135.901 440.681 136.234 440.783 136.497 440.985C136.911 441.278 137.092 441.682 137.113 442.158C137.113 442.228 137.113 442.289 137.092 442.36C136.86 443.209 136.103 443.644 135.265 443.411ZM131.569 439.044C130.812 439.034 130.347 438.66 130.175 437.851C130.064 437.305 130.529 436.425 131.448 436.294C132.165 436.193 132.872 436.84 132.922 437.618C132.942 438.538 132.346 439.044 131.569 439.044ZM127.53 434.515C126.752 434.494 126.086 433.787 126.156 433.079C126.227 432.301 126.904 431.724 127.681 431.775C128.388 431.815 128.933 432.412 128.913 433.13C128.913 434.029 128.307 434.535 127.53 434.515ZM123.612 429.945C123.097 429.925 122.531 429.52 122.4 429.035C122.339 428.843 122.319 428.641 122.319 428.439C122.339 427.701 122.885 427.185 123.622 427.185C123.753 427.185 123.894 427.195 124.026 427.226C124.591 427.337 125.086 427.974 125.066 428.55C125.035 429.338 124.298 429.965 123.612 429.945ZM119.896 425.183C119.148 425.183 118.482 424.577 118.462 423.849C118.441 423.303 118.936 422.454 119.825 422.434C120.562 422.403 121.188 422.969 121.218 423.707C121.218 423.738 121.218 423.758 121.218 423.788C121.239 424.567 120.703 425.173 119.896 425.183ZM116.291 420.351C115.493 420.361 114.877 419.815 114.806 419.077C114.756 418.481 115.311 417.652 116.109 417.601C116.866 417.561 117.512 418.127 117.553 418.885V418.895C117.593 419.694 117.048 420.341 116.291 420.351ZM112.686 415.468C111.938 415.468 111.252 414.841 111.272 414.103C111.292 413.466 111.767 412.708 112.665 412.708C113.423 412.708 114.049 413.315 114.079 414.073C114.008 414.801 113.534 415.458 112.686 415.468ZM109.353 410.504C108.586 410.595 107.869 409.867 107.879 409.008C107.889 408.452 108.313 407.805 109.151 407.734C109.919 407.673 110.605 408.25 110.626 408.998C110.636 409.786 110.111 410.413 109.353 410.504ZM106.051 405.378C105.263 405.409 104.647 404.873 104.607 404.084C104.577 403.286 105.132 402.669 105.89 402.629C106.728 402.578 107.334 403.296 107.354 403.933C107.414 404.63 106.819 405.348 106.051 405.378ZM68.4965 314.078V299.803C81.0787 299.803 91.3282 289.572 91.4796 276.844L105.667 277.006C105.425 297.549 88.8642 314.078 68.4965 314.078ZM40.6057 272.305L26.418 272.143C26.6603 251.64 43.2211 235.162 63.5889 235.162V249.437C51.0067 249.437 40.7572 259.627 40.6057 272.305ZM63.3667 299.803L63.1849 314.078C42.8374 313.835 26.4584 297.124 26.4584 276.581H40.6461C40.6461 289.309 50.7643 299.651 63.3667 299.803ZM87.8847 349.078L74.5351 353.273L77.5645 339.615L87.8847 349.078ZM82.3207 353.708C83.0781 353.698 83.6941 354.223 83.7142 355.063C83.7344 355.811 83.2295 356.458 82.3813 356.468C81.634 356.468 80.9676 355.851 80.9474 355.123C80.9373 354.577 81.422 353.718 82.3207 353.708ZM84.3908 359.389C85.1583 359.359 85.7541 359.946 85.8348 360.734C85.9055 361.442 85.2289 362.119 84.4817 362.139C83.5527 362.18 83.068 361.462 83.0579 360.815C83.0276 360.057 83.6234 359.42 84.3908 359.389ZM86.7336 365.041C87.4909 365.101 88.0564 365.759 88.016 366.517C87.9756 367.265 87.3495 367.841 86.6023 367.801C86.5821 367.801 86.572 367.801 86.5518 367.801C85.8146 367.77 85.2391 367.154 85.2693 366.416C85.2693 366.396 85.2693 366.365 85.2693 366.345C85.3198 365.577 85.9762 365 86.7336 365.041ZM88.945 370.631C89.7226 370.621 90.3689 371.188 90.389 371.936C90.4294 372.664 89.7933 373.351 89.0662 373.391C88.3089 373.422 87.6727 372.825 87.6424 372.067C87.6121 371.268 88.1675 370.652 88.945 370.631ZM91.52 376.091C92.2572 376.101 92.8631 376.768 92.8631 377.526C92.8631 378.416 92.1259 378.861 91.4594 378.891C90.793 378.81 90.1063 378.386 90.1164 377.456C90.1164 376.546 90.9444 376.081 91.52 376.091ZM94.1253 381.57C95.024 381.58 95.4785 382.288 95.5087 382.965C95.539 383.703 94.8524 384.34 94.095 384.33C93.3377 384.33 92.7217 383.713 92.7217 382.945C92.7217 382.187 93.3377 381.57 94.1051 381.57C94.1051 381.57 94.1152 381.57 94.1253 381.57ZM96.8417 386.918C97.5991 386.908 98.215 387.515 98.2251 388.273C98.2251 388.293 98.2251 388.323 98.2251 388.344C98.2453 389.051 97.6899 389.638 96.9932 389.678C96.2358 389.749 95.5592 389.193 95.4785 388.435C95.4785 388.425 95.4785 388.404 95.4785 388.394C95.428 387.656 96.0843 386.959 96.8417 386.918ZM99.8307 392.216C100.608 392.297 101.184 392.913 101.164 393.671C101.143 394.349 100.628 395.016 99.7196 394.976C98.8209 394.945 98.3463 394.238 98.3968 393.56C98.4271 392.792 99.0633 392.195 99.8307 392.216ZM102.81 397.442C103.355 397.442 104.193 397.948 104.173 398.858C104.183 399.596 103.658 400.212 102.789 400.212C102.052 400.233 101.446 399.656 101.426 398.928C101.426 398.898 101.426 398.868 101.426 398.838C101.426 397.968 102.214 397.442 102.81 397.442ZM185.553 511.095L185.371 525.37C165.014 525.128 148.635 508.416 148.635 487.863H162.822C162.832 500.602 172.951 510.944 185.553 511.095ZM213.666 488.136L227.864 488.298C227.621 508.841 211.061 525.38 190.693 525.38V511.106C203.265 511.095 213.514 500.864 213.666 488.136ZM261.056 518.364L250.746 508.902L264.085 504.706L261.056 518.364ZM272.416 512.47C272.588 512.41 272.76 512.369 272.941 512.329C273.769 512.481 274.133 512.814 274.335 513.593C274.355 513.724 274.345 513.855 274.315 513.987C274.153 514.634 273.739 515.008 273.093 515.139C272.962 515.17 272.83 515.17 272.699 515.139C272.255 514.988 271.871 514.775 271.669 514.29C271.417 513.673 271.669 512.753 272.416 512.47ZM278.061 513.522C278.849 512.956 280.01 513.219 280.273 514.331C280.283 514.371 280.283 514.422 280.283 514.462C280.293 514.755 280.232 515.048 280.101 515.311C279.939 515.665 279.313 516.029 278.94 516.009C278.162 515.968 277.546 515.342 277.526 514.573C277.516 514.502 277.516 514.442 277.536 514.371C277.647 514.048 277.778 513.724 278.061 513.522ZM284.494 513.957C285.039 513.734 285.786 513.977 286.079 514.492C286.372 514.957 286.382 515.554 286.089 516.029C285.827 516.494 285.382 516.615 284.887 516.636C284.14 516.595 283.666 516.14 283.544 515.382C283.524 515.251 283.534 515.109 283.575 514.988C283.706 514.513 284.039 514.138 284.494 513.957ZM297.005 514.826C297.702 514.826 298.388 515.301 298.368 516.211C298.378 516.969 297.783 517.606 297.015 517.616H297.005C296.278 517.616 295.622 516.919 295.611 516.201C295.611 515.443 296.227 514.826 296.995 514.826C296.995 514.826 297.005 514.826 297.005 514.826ZM302.054 515.503C302.438 515.069 303.044 514.917 303.518 515.119C304.064 515.352 304.377 515.746 304.407 516.353C304.407 516.393 304.407 516.433 304.407 516.474C304.366 517.273 303.811 517.788 303.084 517.798C302.529 517.829 302.014 517.505 301.792 517C301.63 516.696 301.61 516.342 301.741 516.019C301.812 515.827 301.923 515.655 302.054 515.503ZM309.012 515.119C309.718 515.038 310.435 515.706 310.466 516.474C310.486 517.283 309.981 517.879 309.102 517.879C308.375 517.879 307.81 517.404 307.729 516.666C307.648 515.908 308.244 515.21 309.012 515.119ZM315.282 515.069C316.04 515.139 316.585 515.807 316.514 516.565C316.514 516.585 316.514 516.605 316.504 516.626C316.434 517.414 315.777 517.899 314.929 517.798C314.212 517.717 313.717 516.989 313.758 516.383C313.828 515.625 314.545 514.998 315.282 515.069ZM321.19 514.897C322.089 514.897 322.563 515.513 322.573 516.241C322.573 517.141 321.866 517.626 321.22 517.657C320.503 517.657 319.837 517 319.817 516.272C319.796 515.524 320.392 514.917 321.129 514.897C321.149 514.897 321.17 514.897 321.19 514.897ZM327.138 514.543C327.269 514.533 327.4 514.543 327.531 514.553C327.683 514.573 327.824 514.624 327.945 514.695C328.339 514.917 328.592 515.331 328.612 515.776C328.642 516.282 328.481 516.686 328.097 516.979C328.036 517.02 327.986 517.06 327.925 517.101C327.531 517.353 327.016 517.353 326.612 517.111C326.441 517.01 326.289 516.878 326.168 516.727C325.855 516.373 325.774 515.867 325.946 515.433C326.158 514.897 326.542 514.573 327.138 514.543ZM363.177 509.154C363.894 509.175 364.541 509.69 364.5 510.58C364.48 511.318 363.773 512.005 363.087 511.955C362.329 511.894 361.744 511.257 361.744 510.499C361.754 509.751 362.37 509.144 363.117 509.154C363.147 509.154 363.167 509.154 363.177 509.154ZM427.128 446.454V460.729C414.546 460.729 404.287 470.909 404.145 483.597L389.957 483.435C390.19 462.933 406.75 446.454 427.128 446.454ZM426.896 511.095L426.714 525.37C406.357 525.128 389.978 508.416 389.978 487.863H404.165C404.176 500.602 414.294 510.944 426.896 511.095ZM413.021 273.275L413.637 273.134L414.253 273.275L414.758 273.599L415.081 274.114L415.192 274.721L415.081 275.327L414.758 275.843L414.253 276.177L413.647 276.288L413.042 276.177L412.567 275.853L412.203 275.348L412.092 274.731L412.203 274.114L412.567 273.609L413.021 273.275ZM412.648 275.145L412.89 275.489L413.213 275.712L413.637 275.782L414.061 275.712L414.405 275.489L414.617 275.156L414.698 274.721L414.617 274.286L414.405 273.942L414.061 273.72L413.637 273.619L413.223 273.72L412.9 273.953L412.658 274.286L412.577 274.711L412.648 275.145ZM390.998 67.3105H405.185C405.185 80.0386 415.304 90.3808 427.906 90.5325L427.724 104.807C407.377 104.565 390.998 87.8534 390.998 67.3105ZM515.789 398.534C516.516 398.534 517.132 399.09 517.112 399.95C517.102 400.708 516.486 401.304 515.729 401.294C515.718 401.294 515.708 401.294 515.698 401.294C514.941 401.244 514.355 400.617 514.355 399.859C514.396 399.1 515.032 398.514 515.789 398.534ZM518.768 393.287C519.546 393.277 520.182 393.853 520.212 394.602C520.252 395.269 519.657 396.007 518.879 396.047C518.122 396.078 517.486 395.491 517.455 394.733V394.723C517.445 393.914 518.001 393.297 518.768 393.287ZM521.747 387.99C522.615 387.99 523.13 388.627 523.13 389.345C523.13 390.254 522.363 390.74 521.767 390.75C521.131 390.75 520.384 390.184 520.374 389.355C520.364 388.607 520.949 388 521.686 387.98C521.707 387.99 521.727 387.99 521.747 387.99ZM524.605 382.541C525.362 382.601 525.938 383.248 525.928 384.007C525.917 384.856 525.211 385.331 524.504 385.341C523.767 385.27 523.151 384.775 523.181 383.905C523.211 383.157 523.908 382.49 524.605 382.541ZM526.927 377.152C527.765 377.021 528.442 377.456 528.624 378.396C528.705 379.093 528.078 379.811 527.331 379.872C526.564 379.932 525.938 379.397 525.867 378.598C525.817 377.91 526.291 377.253 526.927 377.152ZM529.704 371.562C530.3 371.521 531.108 372.067 531.138 372.906C531.168 373.654 530.583 374.291 529.836 374.322C529.825 374.322 529.815 374.322 529.805 374.322C528.937 374.342 528.392 373.735 528.392 373.007C528.381 372.229 528.957 371.602 529.704 371.562ZM530.835 366.952C530.956 366.436 531.653 365.92 532.168 365.961C532.774 366.021 533.289 366.436 533.481 367.012C533.653 367.558 533.37 368.276 532.865 368.549C532.441 368.781 531.996 368.842 531.542 368.61C531.179 368.448 530.906 368.124 530.815 367.73C530.765 367.477 530.775 367.214 530.835 366.952ZM532.976 361.796C532.926 361.24 533.36 360.441 534.309 360.33C534.874 360.259 535.702 360.734 535.743 361.654C535.763 362.544 535.177 363.069 534.44 363.1C533.673 363.15 533.047 362.594 532.976 361.796ZM535.107 355.952C535.117 355.214 535.864 354.547 536.541 354.608C537.298 354.668 537.884 355.305 537.874 356.063C537.853 356.812 537.227 357.398 536.48 357.378C536.46 357.378 536.44 357.378 536.419 357.378C535.531 357.337 535.097 356.67 535.107 355.952ZM537.025 350.331C536.975 349.624 537.621 348.916 538.348 348.875C539.085 348.815 539.742 349.381 539.792 350.119C539.792 350.139 539.792 350.159 539.792 350.19C539.833 350.918 539.328 351.615 538.5 351.635C537.752 351.666 537.096 351.089 537.025 350.331ZM538.883 344.437C538.883 343.669 539.499 343.103 540.297 343.123C541.054 343.133 541.65 343.76 541.64 344.518C541.64 344.528 541.64 344.528 541.64 344.538C541.61 345.327 540.873 345.923 540.206 345.883C539.459 345.853 538.873 345.216 538.883 344.437ZM512.174 276.581H526.362C526.362 289.309 536.48 299.651 549.082 299.803L548.901 314.078C528.553 313.835 512.174 297.124 512.174 276.581Z" fill="black"/>
</g>
<defs>
<clipPath id="clip0_793_33">
<rect width="618" height="553" fill="white"/>
</clipPath>
</defs>
</svg>
