<svg width="84" height="84" viewBox="0 0 84 84" fill="none" xmlns="http://www.w3.org/2000/svg">
<path d="M84 42C84 18.807 65.1994 0 42 0C18.8006 0 0 18.8006 0 42C0 65.1994 18.8006 84 42 84C65.1994 84 84 65.193 84 42Z" fill="#F5F5F5"/>
<path d="M43.583 57.6716V66.7256C56.5164 66.7256 67.0325 56.2416 67.1928 43.212L58.1772 43.1094C58.081 51.1824 51.5726 57.6716 43.583 57.6716Z" fill="black"/>
<path d="M40.2102 66.732L40.3256 57.6716C32.3231 57.5754 25.8981 51.0157 25.8917 42.9427H16.8825C16.8825 55.9787 27.2831 66.5781 40.2102 66.732Z" fill="black"/>
<path d="M16.8633 40.1278L25.8724 40.2303C25.9686 32.1894 32.477 25.7259 40.4666 25.7259V16.6719C27.5332 16.6719 17.0172 27.1238 16.8633 40.1278Z" fill="black"/>
<path d="M43.7964 16.6719L43.6938 25.7259C51.7283 25.8157 58.1854 32.3562 58.1854 40.3971H67.1946C67.1946 27.3931 56.7619 16.8258 43.7964 16.6719Z" fill="#FF161F"/>
<path d="M43.4053 48.8291C43.5912 48.6496 43.7002 48.3995 43.6938 48.1366V35.0878C43.7002 34.8249 43.6105 34.5684 43.4309 34.3696C43.2578 34.1836 43.0269 34.0939 42.732 34.0939C42.6743 34.0939 42.6166 34.1003 42.5588 34.1131C42.4947 34.1259 42.4306 34.1452 42.3665 34.1708L39.3656 35.2481C39.1668 35.3122 39.0001 35.4404 38.8847 35.6136C38.7821 35.7803 38.7308 35.9726 38.7308 36.1714C38.7243 36.4343 38.8269 36.6844 39.0129 36.8639C39.1989 37.0435 39.4489 37.1397 39.7118 37.1333C39.9234 37.1268 40.135 37.082 40.3274 36.9986L41.7317 36.4023V48.1366C41.7253 48.3995 41.8343 48.6496 42.0202 48.8291C42.1934 49.0151 42.437 49.1177 42.6935 49.1177C42.9628 49.1241 43.2193 49.0215 43.4053 48.8291Z" fill="#FF161F"/>
</svg>
