<svg width="618" height="553" viewBox="0 0 618 553" fill="none" xmlns="http://www.w3.org/2000/svg">
<g clip-path="url(#clip0_945_69)">
<path fill-rule="evenodd" clip-rule="evenodd" d="M188.328 1.01097C224.863 1.01097 254.471 30.6627 254.471 67.2294C254.471 103.796 224.863 133.448 188.328 133.448C151.794 133.448 122.186 103.806 122.186 67.2294C122.186 30.6526 151.794 1.01097 188.328 1.01097ZM430.681 0C467.216 0 496.824 29.6517 496.824 66.2185C496.824 102.785 467.216 132.437 430.681 132.437C394.147 132.437 364.539 102.795 364.539 66.2185C364.539 29.6416 394.147 0 430.681 0ZM551.858 209.271C588.393 209.271 618 238.912 618 275.489C618 312.066 588.393 341.707 551.858 341.707C515.323 341.707 485.716 312.056 485.716 275.489C485.716 238.922 515.323 209.271 551.858 209.271ZM66.1422 209.271C102.677 209.271 132.284 238.912 132.284 275.489C132.284 312.066 102.677 341.707 66.1422 341.707C29.6075 341.707 0 312.056 0 275.489C0 238.922 29.6075 209.271 66.1422 209.271ZM188.328 420.563C224.863 420.563 254.471 450.205 254.471 486.782C254.471 523.358 224.863 553 188.328 553C151.794 553 122.186 523.358 122.186 486.782C122.186 450.205 151.794 420.563 188.328 420.563ZM429.672 420.563C466.206 420.563 495.814 450.205 495.814 486.782C495.814 523.358 466.206 553 429.672 553C393.137 553 363.529 523.358 363.529 486.782C363.529 450.205 393.137 420.563 429.672 420.563Z" fill="#E1E1E1"/>
<path fill-rule="evenodd" clip-rule="evenodd" d="M577.097 272.85C577.097 260.182 566.928 249.871 554.275 249.719L554.437 235.444C574.855 235.687 591.284 252.347 591.284 272.85H577.097ZM557.294 265.763C557.85 266.653 558.143 267.694 558.122 268.755C558.133 269.483 557.951 270.211 557.597 270.848C557.254 271.445 556.79 271.98 556.244 272.405C555.709 272.83 555.133 273.194 554.517 273.477C555.588 273.841 556.456 274.326 557.123 274.953C557.769 275.539 558.274 276.277 558.587 277.086C558.91 277.925 559.062 278.825 559.051 279.724C559.072 280.978 558.718 282.201 558.052 283.253C557.395 284.294 556.476 285.133 555.386 285.709C554.255 286.306 553.003 286.619 551.72 286.609C550.206 286.609 548.863 286.286 547.691 285.659C546.55 285.052 545.601 284.153 544.934 283.051C544.258 281.928 543.915 280.644 543.935 279.33C543.915 278.916 544.066 278.501 544.339 278.198C544.591 277.915 544.944 277.753 545.328 277.753C545.712 277.743 546.076 277.905 546.328 278.198C546.601 278.511 546.742 278.916 546.722 279.33C546.712 280.139 546.934 280.928 547.358 281.615C547.782 282.313 548.378 282.889 549.085 283.283C549.832 283.708 550.68 283.92 551.539 283.9C552.871 283.9 553.942 283.526 554.77 282.798C555.588 282.06 556.002 281.019 555.992 279.684C556.002 278.885 555.82 278.097 555.446 277.399C555.103 276.742 554.588 276.176 553.962 275.772C553.326 275.367 552.589 275.155 551.841 275.165C551.427 275.175 551.024 275.013 550.731 274.71C550.438 274.407 550.276 274.002 550.286 273.588C550.266 272.759 550.912 272.061 551.74 272.041C551.771 272.041 551.801 272.041 551.831 272.041C552.407 272.041 552.972 271.889 553.467 271.596C553.982 271.303 554.437 270.899 554.77 270.413C555.113 269.918 555.295 269.332 555.285 268.735C555.305 267.886 554.952 267.067 554.315 266.491C553.669 265.884 552.841 265.581 551.831 265.581C551.104 265.571 550.387 265.733 549.721 266.036C549.125 266.309 548.6 266.723 548.206 267.249C547.843 267.734 547.641 268.331 547.651 268.948C547.661 269.372 547.53 269.787 547.257 270.12C547.015 270.424 546.641 270.595 546.257 270.585C545.884 270.585 545.52 270.424 545.268 270.141C544.995 269.837 544.844 269.443 544.864 269.039C544.844 267.916 545.167 266.825 545.773 265.884C546.389 264.944 547.247 264.186 548.257 263.68C549.347 263.134 550.549 262.862 551.771 262.882C552.892 262.862 554.002 263.134 555.002 263.65C555.951 264.156 556.729 264.873 557.294 265.763ZM433.099 40.4585L433.26 26.1836C453.678 26.4262 470.108 43.087 470.108 63.5894H455.92C455.92 50.9119 445.751 40.6 433.099 40.4585ZM436.32 57.0181C436.875 58.0898 437.148 59.3636 437.148 60.8396C437.138 61.517 437.007 62.1842 436.744 62.811C436.471 63.4782 436.128 64.1253 435.714 64.7217C435.33 65.2879 434.906 65.8439 434.452 66.3595L427.514 74.2451H435.997C436.845 74.2248 437.552 74.9022 437.572 75.7514C437.582 76.176 437.421 76.5804 437.118 76.8837C436.825 77.187 436.421 77.3487 435.997 77.3386H424.788C424.374 77.3487 423.97 77.187 423.677 76.8837C423.394 76.5905 423.233 76.1962 423.233 75.7918C423.223 75.3875 423.374 74.9932 423.657 74.7L432.26 64.6307C432.806 64.0141 433.27 63.3468 433.674 62.629C434.007 62.0022 434.179 61.4058 434.179 60.8396C434.179 59.95 434.028 59.1816 433.725 58.5346C433.452 57.9179 432.998 57.3922 432.422 57.0384C431.857 56.6845 431.18 56.5127 430.392 56.5127C429.655 56.5026 428.938 56.7047 428.322 57.099C427.706 57.4933 427.211 58.0291 426.868 58.6761C426.515 59.3434 426.333 60.0915 426.343 60.8396C426.323 61.6888 425.626 62.3662 424.778 62.3561C424.374 62.346 423.99 62.1842 423.707 61.9011C423.415 61.6282 423.253 61.244 423.253 60.8396C423.253 59.4647 423.566 58.2313 424.192 57.1597C424.808 56.0881 425.687 55.2085 426.757 54.6019C427.838 53.9751 429.049 53.6617 430.402 53.6617C431.776 53.6617 432.967 53.9549 433.977 54.5413C434.977 55.1175 435.795 55.9768 436.32 57.0181ZM432.351 474.397C432.563 474.275 432.816 474.215 433.058 474.215C433.452 474.205 433.836 474.366 434.088 474.67C434.351 474.983 434.492 475.377 434.482 475.792V489.743H436.3C436.683 489.733 437.067 489.834 437.39 490.046C437.693 490.249 437.845 490.613 437.845 491.138C437.845 491.523 437.683 491.876 437.39 492.129C437.097 492.402 436.704 492.544 436.3 492.533H434.482V496.355C434.492 496.759 434.341 497.154 434.058 497.447C433.775 497.75 433.381 497.912 432.967 497.902C432.574 497.902 432.2 497.74 431.937 497.447C431.655 497.154 431.503 496.759 431.513 496.355V492.533H421.425C420.961 492.533 420.597 492.392 420.335 492.109C420.082 491.846 419.921 491.492 419.89 491.118C419.86 490.754 419.961 490.39 420.183 490.107L431.786 474.882C431.947 474.69 432.139 474.518 432.351 474.397ZM431.513 479.694L423.889 489.743H431.513V479.694ZM351.153 294.929C347.437 295.779 343.913 295.293 340.722 293.13C337.773 291.118 336.026 288.287 335.471 284.759C334.441 278.309 338.541 273.173 342.913 271.354C344.771 270.585 346.71 270.343 348.709 270.464C351.072 270.595 353.364 271.364 355.334 272.668C355.445 272.739 355.566 272.85 355.687 272.789C355.828 272.718 355.748 272.547 355.748 272.425C355.758 271.879 355.748 271.344 355.738 270.808C355.738 270.565 355.839 270.444 356.071 270.444C356.727 270.444 357.384 270.444 358.04 270.494C358.212 270.565 358.181 270.727 358.181 270.858C358.181 272.769 358.181 274.68 358.201 276.59C358.201 276.904 358.1 277.035 357.787 277.005C357.222 276.965 356.646 277.157 356.081 276.985C356.04 276.965 356 276.944 355.96 276.924V276.914C355.576 276.52 355.223 276.095 354.829 275.721C353.314 274.265 351.496 273.426 349.426 273.123C347.275 272.799 345.195 272.981 343.266 274.033C340.389 275.6 338.712 278.016 338.278 281.281C338.248 281.534 338.228 281.787 338.197 282.03C338.147 282.606 338.147 283.192 338.197 283.768C338.197 283.768 338.197 283.768 338.197 283.778C338.46 288.166 342.075 292.18 346.397 292.665C348.578 292.908 350.689 292.695 352.678 291.694C353.849 291.108 354.859 290.228 355.596 289.137C355.758 288.894 355.929 288.661 356.242 288.601C356.283 288.601 356.313 288.601 356.354 288.601H356.242C356.566 288.469 356.899 288.55 357.222 288.55C357.676 288.54 358.121 288.54 358.575 288.54C358.676 288.54 358.817 288.479 358.898 288.621H358.817C358.848 288.621 358.868 288.621 358.898 288.631C358.939 288.752 358.878 288.864 358.828 288.965C357.283 292.261 354.627 294.131 351.153 294.929ZM334.299 295.405C331.987 295.415 329.664 295.445 327.342 295.455C326.716 295.455 326.716 295.455 326.696 294.818C326.685 294.323 326.696 293.828 326.685 293.342C326.685 292.867 326.685 292.857 327.17 292.867C327.221 292.867 327.271 292.867 327.322 292.877C327.332 292.877 327.342 292.877 327.352 292.867C327.857 292.857 328.352 292.857 328.857 292.847C329.341 292.847 329.432 292.756 329.422 292.291C329.402 290.896 329.382 289.49 329.351 288.095C329.351 288.085 329.351 288.075 329.351 288.065C329.351 288.075 329.351 288.095 329.351 288.105C329.311 287.741 329.23 287.378 329.22 287.014C329.21 285.042 329.25 283.071 329.2 281.099C329.129 278.38 329.18 275.671 329.139 272.951C329.139 272.951 329.149 272.951 329.149 272.961C328.554 272.779 327.958 272.921 327.352 272.88C327.089 272.87 326.817 272.941 326.554 272.809C326.554 272.789 326.554 272.779 326.554 272.759V272.809C326.524 272.789 326.494 272.769 326.473 272.739C326.423 272.031 326.271 271.333 326.554 270.646H326.564V270.697C326.564 270.676 326.564 270.666 326.564 270.646C326.625 270.525 326.746 270.504 326.867 270.504H331.664C331.664 270.504 331.664 270.504 331.664 270.515C331.906 270.616 331.876 270.828 331.876 271.03C331.886 272.506 331.886 273.982 331.896 275.468C331.896 277.045 331.876 278.612 331.916 280.19C331.997 283.971 331.947 287.762 331.977 291.543C331.977 291.957 332.017 292.382 332.037 292.796C332.795 292.796 333.542 292.817 334.299 292.806C334.623 292.806 334.764 292.908 334.754 293.231C334.744 293.797 334.754 294.353 334.764 294.929C334.764 295.243 334.663 295.405 334.299 295.405ZM254.545 279.826C254.545 279.836 254.545 279.856 254.545 279.876C254.545 279.856 254.545 279.846 254.545 279.826ZM220.454 296.224V288.904C226.907 288.904 232.158 283.657 232.228 277.136L239.499 277.217C239.388 287.741 230.895 296.224 220.454 296.224ZM190.746 41.4694L190.907 27.1946C211.325 27.4372 227.755 44.098 227.755 64.6004H213.567C213.567 51.9229 203.399 41.611 190.746 41.4694ZM190.746 76.8028C190.756 77.2173 190.584 77.6116 190.291 77.8947C189.998 78.1979 189.594 78.3597 189.17 78.3496C188.766 78.3496 188.383 78.1878 188.11 77.8947C187.817 77.6116 187.646 77.2173 187.656 76.8028V58.3021L185.444 59.2423C185.141 59.3737 184.808 59.4445 184.475 59.4546C184.061 59.4647 183.667 59.313 183.374 59.03C183.081 58.7469 182.92 58.3526 182.93 57.9381C182.93 57.6247 183.011 57.3214 183.172 57.0586C183.354 56.7856 183.616 56.5834 183.93 56.4823L188.655 54.7839C188.756 54.7435 188.857 54.7131 188.958 54.6929C189.049 54.6727 189.14 54.6626 189.231 54.6626C189.695 54.6626 190.059 54.8041 190.332 55.0973C190.614 55.4107 190.756 55.8151 190.746 56.2296V76.8028ZM194.108 473.679C194.401 473.972 194.563 474.366 194.563 474.791C194.553 475.63 193.866 476.318 193.028 476.307H193.018H184.444V481.433H187.959C189.433 481.433 190.746 481.777 191.907 482.444C193.048 483.101 194.007 484.062 194.664 485.204C195.34 486.367 195.684 487.691 195.684 489.157C195.684 490.613 195.35 491.927 194.664 493.1C194.007 494.252 193.058 495.213 191.907 495.88C190.746 496.557 189.433 496.891 187.959 496.891C186.504 496.891 185.192 496.557 184.03 495.88C182.879 495.213 181.93 494.262 181.274 493.1C180.597 491.927 180.254 490.613 180.254 489.157C180.244 488.742 180.395 488.348 180.678 488.045C180.961 487.752 181.354 487.59 181.769 487.6C182.183 487.59 182.586 487.752 182.889 488.045C183.192 488.338 183.354 488.732 183.344 489.157C183.334 489.986 183.546 490.805 183.95 491.522C184.344 492.22 184.909 492.796 185.606 493.191C186.323 493.595 187.131 493.807 187.949 493.797C188.777 493.807 189.605 493.605 190.332 493.191C191.018 492.796 191.594 492.22 191.988 491.522C192.796 490.046 192.796 488.257 191.988 486.771C191.594 486.083 191.028 485.517 190.332 485.113C189.605 484.698 188.787 484.496 187.949 484.506H182.889C182.475 484.516 182.082 484.365 181.799 484.062C181.516 483.768 181.365 483.364 181.375 482.949V474.761C181.365 474.346 181.516 473.942 181.799 473.638C182.082 473.335 182.475 473.173 182.889 473.184H193.008C193.432 473.204 193.836 473.376 194.108 473.679ZM68.5594 249.729L68.721 235.454C89.1392 235.697 105.569 252.358 105.569 272.86H91.381C91.381 260.182 81.2122 249.871 68.5594 249.729ZM69.8217 263.215C69.8923 263.6 69.8116 263.984 69.5995 264.307L65.4492 271.202C65.6209 271.192 65.7925 271.192 65.9642 271.192C67.3577 271.192 68.5897 271.505 69.6601 272.112C70.7204 272.718 71.5888 273.598 72.1745 274.66C72.7804 275.741 73.0833 276.985 73.0833 278.41C73.0833 279.805 72.7804 281.049 72.1745 282.131C71.5888 283.192 70.7204 284.072 69.6601 284.678C68.5897 285.295 67.3577 285.598 65.9642 285.598C64.5707 285.598 63.3286 285.295 62.2481 284.678C61.1878 284.082 60.3093 283.202 59.7135 282.131C59.1076 281.049 58.8047 279.815 58.8047 278.41C58.8047 276.995 59.1076 275.741 59.7135 274.66C59.8044 274.498 59.9054 274.346 60.0064 274.194L66.8326 262.791C67.1962 262.225 67.6607 261.942 68.2262 261.942C69.0037 261.911 69.6803 262.457 69.8217 263.215ZM62.2481 276.075C61.8947 276.742 61.723 277.521 61.723 278.41C61.7129 279.219 61.8947 280.008 62.2481 280.725C62.5814 281.382 63.0964 281.928 63.7325 282.302C65.1059 283.051 66.7518 283.051 68.1252 282.302C68.7614 281.928 69.2865 281.382 69.6298 280.725C70.0034 280.008 70.1852 279.209 70.1751 278.41C70.1751 277.521 69.9933 276.742 69.6298 276.075C69.2764 275.428 68.7614 274.882 68.1252 274.498C66.7619 273.729 65.0958 273.729 63.7325 274.498C63.1065 274.882 62.5915 275.428 62.2481 276.075ZM217.829 288.904L217.738 296.224C207.306 296.102 198.905 287.529 198.905 277.005H206.175C206.186 283.526 211.366 288.823 217.829 288.904ZM218.465 255.775V263.094C212.012 263.094 206.761 268.311 206.69 274.811L199.42 274.73C199.531 264.216 208.023 255.775 218.465 255.775ZM190.907 446.737C211.325 446.979 227.755 463.64 227.755 484.142H213.567C213.567 471.475 203.399 461.163 190.746 461.022L190.907 446.737ZM432.25 446.737C452.669 446.979 469.098 463.64 469.098 484.142H454.91C454.91 471.475 444.742 461.163 432.089 461.022L432.25 446.737Z" fill="#FF161F"/>
<path fill-rule="evenodd" clip-rule="evenodd" d="M554.208 314.077V299.803C566.79 299.803 577.04 289.572 577.191 276.843L591.379 277.005C591.137 297.548 574.576 314.077 554.208 314.077ZM526.318 272.304L512.13 272.142C512.372 251.64 528.933 235.161 549.301 235.161V249.436C536.718 249.436 526.469 259.627 526.318 272.304ZM433.032 104.807V90.532C445.614 90.532 455.863 80.301 456.015 67.5729L470.203 67.7346C469.96 88.2775 453.4 104.807 433.032 104.807ZM455.005 488.136L469.193 488.298C468.951 508.841 452.39 525.38 432.022 525.38V511.105C444.604 511.095 454.864 500.864 455.005 488.136ZM405.141 63.0336L390.953 62.8719C391.196 42.3694 407.756 25.8906 428.124 25.8906V40.1756C415.542 40.1655 405.292 50.3561 405.141 63.0336ZM190.679 105.818V91.5429C203.261 91.5429 213.511 81.3119 213.662 68.5838L227.86 68.7456C227.607 89.2885 211.047 105.818 190.679 105.818ZM162.788 483.597L148.6 483.435C148.843 462.932 165.403 446.454 185.771 446.454V460.729C173.189 460.729 162.94 470.919 162.788 483.597ZM185.549 91.5429L185.367 105.828C165.01 105.585 148.631 88.874 148.631 68.321H162.818C162.828 81.0491 172.947 91.3913 185.549 91.5429ZM162.788 64.0446L148.6 63.8828C148.843 43.3804 165.403 26.9016 185.771 26.9016V41.1765C173.189 41.1765 162.94 51.367 162.788 64.0446ZM68.4926 314.077V299.803C81.0747 299.803 91.3243 289.572 91.4757 276.843L105.663 277.005C105.421 297.548 88.8603 314.077 68.4926 314.077ZM40.6018 272.304L26.4141 272.142C26.6564 251.64 43.2172 235.161 63.5849 235.161V249.436C51.0028 249.436 40.7533 259.627 40.6018 272.304ZM63.3628 299.803L63.181 314.077C42.8335 313.835 26.4545 297.123 26.4545 276.581H40.6422C40.6422 289.309 50.7604 299.651 63.3628 299.803ZM185.549 511.095L185.367 525.37C165.01 525.127 148.631 508.416 148.631 487.863H162.818C162.828 500.601 172.947 510.943 185.549 511.095ZM213.662 488.136L227.86 488.298C227.617 508.841 211.057 525.38 190.689 525.38V511.105C203.261 511.095 213.511 500.864 213.662 488.136ZM427.124 446.454V460.729C414.542 460.729 404.283 470.909 404.141 483.597L389.954 483.435C390.186 462.932 406.747 446.454 427.124 446.454ZM426.892 511.095L426.71 525.37C406.353 525.127 389.974 508.416 389.974 487.863H404.161C404.172 500.601 414.29 510.943 426.892 511.095ZM390.994 67.31H405.181C405.181 80.0381 415.3 90.3803 427.902 90.532L427.72 104.807C407.373 104.564 390.994 87.8529 390.994 67.31ZM512.17 276.581H526.358C526.358 289.309 536.476 299.651 549.078 299.803L548.897 314.077C528.549 313.835 512.17 297.123 512.17 276.581Z" fill="black"/>
<path fill-rule="evenodd" clip-rule="evenodd" d="M392.174 275.753H391.73C391.881 275.763 392.033 275.763 392.184 275.773C394.477 276.036 396.112 277.289 397.344 279.149C397.435 279.281 397.506 279.412 397.597 279.574C398.233 278.634 398.99 277.785 399.869 277.057C403.151 274.378 409.149 275.368 410.714 280.737C410.835 281.141 410.916 281.555 410.947 281.97V281.96C411.098 282.243 411.068 282.556 411.068 282.87C411.078 283.476 411.068 284.083 411.068 284.689C411.068 284.7 411.068 284.71 411.068 284.72C411.088 284.75 411.108 284.791 411.118 284.831V289.188C411.118 290.159 411.138 291.139 411.138 292.11C411.138 292.363 411.199 292.454 411.462 292.444C412.078 292.433 412.704 292.444 413.33 292.433C413.532 292.413 413.734 292.494 413.875 292.646V294.809C413.784 294.84 413.693 294.87 413.602 294.9C413.552 294.92 413.491 294.941 413.431 294.941H408.301C408.291 294.941 408.281 294.941 408.271 294.941C408.271 294.941 408.26 294.941 408.26 294.951C407.584 294.951 406.907 294.951 406.221 294.961C405.958 294.961 405.817 294.87 405.817 294.587C405.827 293.99 405.837 293.384 405.827 292.787C405.827 292.565 405.948 292.494 406.14 292.484H406.816C407.22 292.363 407.644 292.444 408.058 292.433C408.321 292.423 408.412 292.373 408.402 292.09C408.392 290.128 408.422 288.167 408.372 286.206C408.341 284.902 408.351 283.618 408.331 282.314C408.341 282.324 408.341 282.334 408.341 282.334C408.341 282.324 408.341 282.324 408.341 282.324C408.119 280.272 406.281 278.462 404.181 278.219C401.646 277.906 399.273 279.544 398.657 282.031C398.647 282.101 398.627 282.172 398.627 282.243C398.617 282.263 398.617 282.273 398.617 282.293C398.617 283.871 398.617 285.438 398.617 287.015C398.617 288.824 398.627 290.644 398.627 292.454C398.627 292.464 398.637 292.464 398.637 292.474C399.415 292.484 400.182 292.494 400.96 292.484C401.252 292.484 401.384 292.585 401.353 292.848C401.353 292.868 401.363 292.899 401.363 292.919C401.394 293.546 401.394 294.172 401.353 294.789L401.343 294.799C401.343 294.87 401.293 294.931 401.232 294.951C401.222 294.951 401.212 294.951 401.192 294.951C400.727 295.052 400.243 294.981 399.778 294.991C398.95 295.001 398.112 294.991 397.284 294.991H397.274C396.102 294.991 394.931 295.001 393.76 295.001C393.608 295.001 393.406 295.042 393.376 294.789C393.376 294.769 393.376 294.749 393.376 294.728C393.295 294.091 393.295 293.444 393.376 292.808C393.376 292.787 393.376 292.767 393.376 292.747C393.467 292.545 393.638 292.545 393.83 292.545C394.568 292.545 395.295 292.535 396.042 292.524V292.535C396.032 292.545 396.032 292.555 396.022 292.575C396.032 292.565 396.042 292.565 396.052 292.555C396.062 292.545 396.052 292.535 396.062 292.524C396.052 292.524 396.052 292.535 396.042 292.545C396.042 292.383 396.062 292.211 396.062 292.039C396.042 289.32 396.022 286.6 395.991 283.891C395.991 283.901 396.001 283.911 396.001 283.911C396.001 283.911 396.001 283.911 396.001 283.901C395.961 283.294 396.032 282.678 395.89 282.071C395.052 278.502 390.952 277.117 388.004 279.402C386.954 280.211 386.307 281.262 386.136 282.597C386.095 283.83 386.095 285.053 386.136 286.277C386.146 288.107 386.156 289.926 386.156 291.756C386.156 291.786 386.166 291.827 386.166 291.857C386.196 292.059 386.216 292.252 386.206 292.454C386.206 292.484 386.206 292.504 386.216 292.535C386.974 292.535 387.741 292.535 388.499 292.545C388.64 292.545 388.791 292.504 388.852 292.696H388.842C388.852 292.696 388.862 292.706 388.862 292.706L388.882 293.04C388.882 293.05 388.882 293.06 388.882 293.081C388.963 293.626 388.963 294.182 388.882 294.728C388.882 294.749 388.882 294.769 388.882 294.799C388.882 294.819 388.882 294.84 388.872 294.86C388.872 295.032 388.741 295.042 388.61 295.042C386.166 295.052 383.732 295.052 381.299 295.072C381.036 295.072 380.844 295.032 380.875 294.708C380.875 294.678 380.875 294.648 380.875 294.627C380.875 294.658 380.875 294.688 380.875 294.718C380.763 294.193 380.834 293.647 380.834 293.111C380.844 293.161 380.834 293.212 380.844 293.273C380.844 293.222 380.844 293.161 380.844 293.111C380.844 292.747 380.955 292.626 381.319 292.615C381.945 292.605 382.561 292.585 383.187 292.605C383.48 292.615 383.571 292.545 383.571 292.241C383.551 289.936 383.551 287.631 383.551 285.336C383.551 285.316 383.551 285.296 383.551 285.276V285.336C383.52 285.296 383.51 285.256 383.5 285.205V279.544C383.5 279.554 383.5 279.554 383.5 279.554V279.544C383.49 279.341 383.49 279.139 383.5 278.937C383.53 278.755 383.45 278.573 383.288 278.472C383.288 278.472 383.278 278.472 383.278 278.462C382.571 278.472 381.864 278.482 381.167 278.482C380.965 278.482 380.804 278.452 380.824 278.189C380.814 278.078 380.824 277.967 380.814 277.855C380.814 277.956 380.804 278.068 380.804 278.169C380.683 277.744 380.774 277.309 380.753 276.885C380.733 276.632 380.753 276.379 380.763 276.127V276.137C380.794 276.339 380.804 276.541 380.804 276.733C380.804 276.672 380.804 276.612 380.804 276.541C380.824 276.41 380.814 276.278 380.784 276.147C380.743 275.924 380.824 275.763 381.056 275.712C381.107 275.702 381.147 275.702 381.198 275.702H381.046C381.077 275.682 381.107 275.662 381.137 275.651H385.631C385.58 275.662 385.53 275.662 385.489 275.672C385.55 275.672 385.621 275.672 385.681 275.661C386.055 275.692 386.115 275.914 386.105 276.248C386.085 276.925 386.105 277.592 386.115 278.26C386.115 278.341 386.045 278.472 386.166 278.502C386.277 278.533 386.328 278.421 386.378 278.341C387.145 277.229 388.256 276.4 389.539 275.995C389.983 275.843 390.437 275.742 390.902 275.702C391.053 275.682 391.205 275.682 391.356 275.682H390.882C391.296 275.641 391.74 275.641 392.174 275.753ZM385.641 275.712H385.6C385.621 275.702 385.631 275.702 385.641 275.712ZM379.117 289.694L378.239 291.362L377.037 292.818L375.593 294.021L373.937 294.91L372.12 295.476L370.15 295.689L368.181 295.476L366.364 294.91L364.708 294.021L363.264 292.818L362.062 291.362L361.183 289.694L360.628 287.864L360.416 285.882L360.628 283.901L361.183 282.071L362.062 280.403L363.264 278.947L364.708 277.744L366.364 276.854L368.181 276.288L370.15 276.076L372.12 276.288L373.937 276.854L375.593 277.744L377.037 278.947L378.239 280.403L379.117 282.071L379.673 283.901L379.885 285.882L379.673 287.864L379.117 289.694ZM377.047 284.437L376.643 283.102L376.017 281.909L375.149 280.858L374.099 279.978L372.907 279.341L371.574 278.927L370.14 278.775L368.706 278.927L367.373 279.341L366.182 279.978L365.132 280.858L364.263 281.909L363.637 283.102L363.233 284.437L363.082 285.882L363.233 287.328L363.637 288.663L364.263 289.856L365.132 290.907L366.182 291.786L367.373 292.423L368.706 292.838L370.13 292.99L371.564 292.838L372.897 292.423L374.089 291.786L375.139 290.907L376.007 289.856L376.633 288.663L377.037 287.328L377.189 285.882L377.047 284.437ZM326.749 286.307L326.537 288.289L325.972 290.118L325.093 291.786L323.891 293.242L322.437 294.445L320.741 295.335L318.923 295.901L316.954 296.113L314.985 295.901L313.167 295.335L311.511 294.445L310.067 293.242L308.865 291.786L307.987 290.118L307.432 288.289L307.219 286.307L307.432 284.325L307.987 282.496L308.865 280.828L310.067 279.372L311.511 278.169L313.167 277.279L314.985 276.713L316.954 276.501L318.923 276.713L320.741 277.279L322.437 278.169L323.891 279.372L325.093 280.828L325.972 282.496L326.537 284.325L326.749 286.307ZM323.901 284.871L323.498 283.537L322.861 282.344L321.983 281.282L320.943 280.413L319.731 279.776L318.388 279.362L316.954 279.21L315.52 279.362L314.187 279.776L312.996 280.413L311.945 281.293L311.077 282.344L310.451 283.537L310.047 284.871L309.895 286.317L310.047 287.763L310.451 289.097L311.077 290.29L311.945 291.342L312.996 292.221L314.187 292.858L315.52 293.273L316.944 293.424L318.378 293.273L319.721 292.858L320.933 292.221L321.973 291.352L322.851 290.29L323.487 289.097L323.891 287.763L324.043 286.317L323.901 284.871ZM303.584 270.688H303.715C303.786 270.708 303.837 270.768 303.857 270.839V270.849C303.938 270.94 303.917 271.041 303.917 271.142V275.965C303.917 276.066 303.958 276.187 303.857 276.268C303.847 276.268 303.827 276.268 303.816 276.278C303.827 276.278 303.847 276.278 303.857 276.278C303.776 276.4 303.645 276.389 303.534 276.389C302.887 276.4 302.251 276.4 301.605 276.4C301.504 276.4 301.383 276.389 301.332 276.278C300.676 274.752 299.565 273.761 297.929 273.447C296.263 273.124 294.718 273.437 293.547 274.762C292.709 275.712 292.466 276.895 292.668 278.138C292.82 279.068 293.385 279.736 294.183 280.231C295.203 280.858 296.344 281.171 297.485 281.495C299.111 281.96 300.747 282.415 302.221 283.294C303.746 284.204 304.796 285.448 305.089 287.257V287.247C305.301 287.621 305.21 288.026 305.21 288.42C305.21 288.42 305.21 288.42 305.21 288.41C305.21 288.42 305.21 288.42 305.21 288.43V288.561C305.21 288.572 305.21 288.572 305.21 288.582C305.25 288.956 305.271 289.33 305.099 289.684C305.099 289.694 305.099 289.714 305.099 289.724C304.756 292.13 303.443 293.808 301.272 294.829C300.595 295.143 299.888 295.416 299.131 295.507C299.111 295.507 299.101 295.507 299.08 295.507C298.192 295.679 297.303 295.84 296.404 295.567C296.394 295.567 296.384 295.567 296.374 295.567C294.96 295.386 293.769 294.809 292.931 293.596H292.921V293.606C292.698 293.728 292.759 293.95 292.749 294.142C292.749 294.496 292.769 294.86 292.759 295.214C292.749 295.426 292.688 295.638 292.436 295.669C291.729 295.749 291.022 295.739 290.315 295.648V295.638C290.174 295.557 290.194 295.426 290.194 295.295C290.194 293.374 290.174 291.453 290.174 289.532C290.174 289.421 290.144 289.289 290.265 289.208C290.265 289.229 290.265 289.249 290.265 289.269C290.265 289.249 290.265 289.229 290.275 289.198H290.265C290.295 289.037 290.416 288.996 290.558 288.996C291.093 288.986 291.628 288.986 292.163 288.986C292.274 288.986 292.375 288.996 292.426 289.128C292.507 289.431 292.567 289.724 292.668 290.027C293.314 291.837 294.647 292.838 296.495 293.081C298.162 293.293 299.727 292.899 301.07 291.827C303.069 290.25 302.938 286.833 300.827 285.387C299.707 284.619 298.434 284.235 297.142 283.86C295.748 283.466 294.344 283.122 293.062 282.435C291.628 281.667 290.477 280.625 290.073 278.988C289.356 275.995 290.548 271.982 294.971 270.96C295.122 270.93 295.273 270.9 295.425 270.87C296.102 270.627 296.839 270.627 297.515 270.859C299 271.102 300.282 271.719 301.322 272.831V272.821C301.474 272.528 301.464 272.224 301.433 271.911C301.413 271.618 301.403 271.314 301.413 271.021C301.393 270.88 301.484 270.758 301.615 270.718V270.738V270.728C301.645 270.728 301.666 270.728 301.696 270.718H301.615C301.716 270.607 301.857 270.647 301.979 270.657C302.554 270.698 303.13 270.546 303.695 270.698C303.665 270.688 303.625 270.688 303.584 270.688ZM287.377 276.389C287.387 276.389 287.397 276.389 287.407 276.4C287.458 276.42 287.488 276.48 287.488 276.541C287.488 276.592 287.488 276.652 287.488 276.703C287.559 277.309 287.559 277.916 287.488 278.523C287.488 278.573 287.488 278.614 287.488 278.664C287.458 278.755 287.367 278.816 287.266 278.816C287.205 278.816 287.145 278.826 287.084 278.826H287.256C286.832 278.947 286.407 278.856 285.983 278.876C285.66 278.886 285.337 278.876 285.014 278.866C285.054 278.856 285.085 278.836 285.125 278.836C285.095 278.836 285.054 278.846 285.024 278.856L285.014 278.866C284.812 278.897 284.681 279.028 284.57 279.2C283.075 281.353 281.581 283.517 280.086 285.67C279.884 285.953 279.874 286.196 280.086 286.489C281.692 288.683 283.287 290.887 284.883 293.091C284.883 293.091 284.893 293.091 284.893 293.101H287.175C287.276 293.101 287.397 293.06 287.478 293.161C287.468 293.161 287.448 293.161 287.437 293.161C287.458 293.161 287.468 293.161 287.488 293.161C287.68 293.303 287.629 293.495 287.609 293.677V295.466C287.609 295.477 287.599 295.477 287.599 295.487L287.609 295.476C287.629 295.749 287.448 295.76 287.256 295.76C286.407 295.76 285.559 295.77 284.711 295.77C283.237 295.78 281.762 295.79 280.298 295.79C279.874 295.79 279.773 295.699 279.783 295.264C279.793 294.698 279.712 294.132 279.793 293.566C279.793 293.495 279.813 293.434 279.854 293.374C279.854 293.353 279.864 293.333 279.874 293.323H279.884C280.066 293.171 280.288 293.182 280.5 293.182C280.833 293.182 281.167 293.182 281.5 293.182C281.641 293.182 281.783 293.182 281.863 293.03C281.863 293.03 281.863 293.03 281.863 293.04V293.03C280.682 291.412 279.51 289.805 278.309 288.167C277.148 289.805 276.006 291.423 274.875 293.03V293.04C274.956 293.262 275.168 293.202 275.33 293.212C275.673 293.242 276.006 293.192 276.35 293.202C276.885 293.222 276.935 293.242 276.895 293.798C276.895 293.808 276.895 293.808 276.895 293.819V295.476C276.895 295.487 276.895 295.487 276.895 295.487C276.956 295.8 276.754 295.8 276.532 295.81C275.118 295.82 273.714 295.84 272.3 295.851C271.371 295.851 270.432 295.861 269.503 295.861C269.109 295.861 269.008 295.77 269.008 295.386C269.008 294.84 268.998 294.304 269.008 293.768C269.008 293.343 269.089 293.273 269.513 293.262C270.251 293.252 270.988 293.252 271.725 293.252C271.725 293.252 271.735 293.252 271.735 293.242C273.028 291.564 274.169 289.775 275.411 288.056C275.764 287.571 276.097 287.075 276.451 286.59C276.683 286.277 276.683 285.994 276.451 285.67C274.926 283.557 273.411 281.444 271.907 279.331C271.735 279.068 271.432 278.917 271.119 278.937C270.523 278.957 269.927 278.947 269.322 278.947C269.15 278.947 268.978 278.947 268.918 278.735C268.918 278.725 268.918 278.705 268.918 278.694C268.817 278.28 268.877 277.855 268.877 277.441C268.877 277.188 268.786 276.925 268.928 276.683C268.928 276.662 268.928 276.652 268.928 276.632C268.988 276.531 269.099 276.47 269.21 276.47H269.231C269.251 276.45 269.281 276.45 269.311 276.44C270.766 276.45 272.23 276.379 273.684 276.43C273.684 276.43 273.684 276.43 273.684 276.44V276.43C274.603 276.43 275.522 276.42 276.441 276.42C276.511 276.41 276.572 276.43 276.622 276.47H276.633C276.784 276.561 276.754 276.713 276.754 276.854C276.764 277.4 276.764 277.946 276.764 278.492C276.764 278.664 276.764 278.836 276.542 278.876C275.946 278.977 275.34 278.937 274.744 278.937C275.017 279.483 275.411 279.958 275.754 280.464C276.592 281.697 277.43 282.91 278.299 284.184C279.49 282.435 280.581 280.666 281.742 278.866C281.136 278.866 280.581 278.856 280.025 278.866C279.743 278.876 279.632 278.745 279.632 278.472C279.632 277.916 279.642 277.36 279.632 276.814C279.622 276.491 279.763 276.389 280.056 276.389C280.773 276.4 281.49 276.389 282.217 276.389C282.227 276.389 282.227 276.389 282.237 276.389C282.318 276.349 282.409 276.339 282.489 276.349C284.024 276.349 285.559 276.339 287.104 276.339C287.195 276.329 287.296 276.309 287.377 276.389ZM265.979 295.82L265.969 295.81C265.999 295.78 265.999 295.729 265.969 295.699V295.81C265.969 295.81 265.969 295.81 265.979 295.82C265.878 295.82 265.777 295.82 265.686 295.83C265.575 295.84 265.454 295.84 265.343 295.84H265.696C265.282 295.962 264.868 295.891 264.454 295.891C263.545 295.901 262.637 295.891 261.738 295.891V295.881C261.748 295.881 261.768 295.871 261.778 295.861C261.758 295.861 261.748 295.871 261.728 295.871C260.799 295.881 259.86 295.881 258.931 295.891C258.91 295.901 258.89 295.901 258.88 295.901H258.941C258.87 295.952 258.789 295.972 258.698 295.962C256.962 295.962 255.225 295.972 253.488 295.972C253.427 295.972 253.377 295.962 253.306 295.952L253.316 295.942C253.346 295.931 253.377 295.921 253.407 295.911C253.377 295.911 253.346 295.921 253.316 295.931C252.064 295.942 250.812 295.942 249.56 295.942C249.156 295.942 249.065 295.861 249.065 295.476C249.065 294.87 249.085 294.253 249.095 293.647C249.095 293.647 249.105 293.647 249.105 293.637C249.156 293.465 249.307 293.465 249.438 293.455C250.085 293.444 250.721 293.424 251.367 293.444C251.67 293.455 251.862 293.404 251.882 293.06V291.786C251.862 291.746 251.842 291.706 251.832 291.655V286.004C251.832 285.064 251.822 284.133 251.822 283.193C251.822 283.183 251.822 283.173 251.812 283.163V283.183C251.761 283.112 251.741 283.031 251.751 282.94C251.751 281.161 251.741 279.382 251.741 277.592C251.741 277.542 251.751 277.501 251.761 277.451H251.771C251.761 276.106 251.761 274.772 251.761 273.427C251.761 273.427 251.761 273.427 251.771 273.437C251.771 273.437 251.771 273.437 251.771 273.427C251.721 273.387 251.65 273.356 251.579 273.356V273.367H249.257C249.115 273.367 248.994 273.245 248.994 273.104V271.284C248.994 271.153 249.095 271.041 249.226 271.041C249.226 271.041 249.226 271.041 249.237 271.041H250.297C250.307 271.031 250.327 271.031 250.337 271.021C250.408 271.031 250.479 271.031 250.549 271.031C253.488 271.031 256.416 271.021 259.345 270.991C261.294 270.971 263.243 270.991 265.191 270.971C265.656 270.961 265.817 271.122 265.817 271.587C265.828 273.094 265.828 274.59 265.828 276.096C265.828 276.329 265.757 276.46 265.504 276.46C265.494 276.46 265.474 276.46 265.454 276.46C265.595 276.46 265.747 276.46 265.888 276.46C265.616 276.612 265.302 276.602 265.01 276.612C264.555 276.632 264.101 276.612 263.657 276.561C263.364 276.521 263.303 276.4 263.303 276.147C263.313 275.227 263.303 274.297 263.303 273.377C260.486 273.397 257.658 273.427 254.841 273.437C254.568 273.437 254.538 273.559 254.538 273.781C254.548 275.682 254.548 277.572 254.548 279.473C254.548 279.584 254.538 279.705 254.538 279.817C254.518 279.635 254.508 279.453 254.498 279.271V279.746C254.498 279.786 254.508 279.817 254.528 279.847L254.548 281.788L254.558 281.798C255.134 281.879 255.699 281.818 256.275 281.818C258.426 281.818 260.587 281.818 262.738 281.808C262.889 281.808 263.051 281.798 263.202 281.788C263.364 281.778 263.515 281.778 263.596 281.95H263.586C263.586 281.97 263.586 281.99 263.586 282.021V281.96C263.818 282.759 263.818 283.608 263.586 284.406V284.325C263.586 284.346 263.586 284.376 263.586 284.396V284.406H263.576C263.586 284.406 263.586 284.406 263.596 284.406C263.495 284.578 263.333 284.548 263.182 284.548C260.89 284.558 258.587 284.558 256.285 284.568C255.891 284.568 255.497 284.609 255.103 284.609C254.801 284.609 254.679 284.74 254.679 285.043C254.689 286.722 254.679 288.41 254.689 290.098C254.7 291.059 254.659 292.019 254.73 292.979C254.75 293.293 254.861 293.434 255.174 293.434C257.588 293.424 259.991 293.424 262.394 293.414C262.515 293.404 262.637 293.394 262.748 293.374C263.162 293.333 263.374 293.101 263.374 292.686C263.374 291.695 263.364 290.715 263.364 289.724C263.364 289.572 263.333 289.401 263.505 289.31C263.505 289.32 263.505 289.34 263.515 289.35V289.299H263.586L263.707 289.289C264.454 289.208 265.202 289.168 265.949 289.31L265.959 289.299C265.959 289.31 265.959 289.31 265.969 289.32V289.299C266.181 289.39 266.11 289.583 266.11 289.744C266.12 291.079 266.12 292.413 266.131 293.748C266.131 294.294 266.161 294.829 266.171 295.365C266.181 295.557 266.201 295.749 265.979 295.82ZM254.538 279.877C254.538 279.857 254.538 279.847 254.538 279.827C254.548 279.847 254.538 279.857 254.538 279.877ZM220.336 263.085L220.417 255.766C230.878 255.887 239.3 264.43 239.3 274.934H232.029C232.029 268.453 226.819 263.166 220.336 263.085ZM413.017 273.276L413.633 273.134L414.249 273.276L414.753 273.599L415.077 274.115L415.188 274.721L415.077 275.328L414.753 275.843L414.249 276.177L413.643 276.288L413.037 276.177L412.562 275.854L412.199 275.348L412.088 274.731L412.199 274.115L412.562 273.609L413.017 273.276ZM412.643 275.146L412.885 275.49L413.208 275.712L413.633 275.783L414.057 275.712L414.4 275.49L414.612 275.156L414.693 274.721L414.612 274.287L414.4 273.943L414.057 273.72L413.633 273.619L413.219 273.72L412.895 273.953L412.653 274.287L412.572 274.711L412.643 275.146Z" fill="white"/>
<path fill-rule="evenodd" clip-rule="evenodd" d="M531.508 201.151L544.858 196.956L541.828 210.614L531.508 201.151ZM536.708 196.794C535.971 196.845 535.325 196.279 535.285 195.53C535.285 195.51 535.285 195.49 535.285 195.47C535.254 194.712 535.84 194.075 536.597 194.044C537.355 194.014 537.991 194.6 538.021 195.359C538.072 196.097 537.506 196.733 536.769 196.784C536.749 196.794 536.729 196.794 536.708 196.794ZM534.487 191.113C533.729 191.082 533.174 190.445 533.214 189.647C533.255 188.868 533.881 188.322 534.669 188.363C535.446 188.403 536.032 189.161 535.961 189.829C535.901 190.587 535.244 191.153 534.487 191.113ZM532.386 185.471C531.629 185.481 530.973 184.875 530.942 184.147C530.922 183.591 531.427 182.732 532.296 182.721C533.033 182.681 533.669 183.247 533.699 183.985C533.699 184.005 533.699 184.026 533.699 184.056C533.709 184.865 533.154 185.461 532.386 185.471ZM529.953 179.891C529.054 179.871 528.559 179.163 528.6 178.496C528.62 177.727 529.256 177.121 530.023 177.131C530.73 177.141 531.356 177.747 531.387 178.556C531.326 179.193 530.892 179.911 529.953 179.891ZM527.58 174.442C526.873 174.512 526.126 173.855 526.075 173.107C526.045 172.561 526.469 171.793 527.257 171.702C528.095 171.601 528.741 172.086 528.812 172.895C528.903 173.764 528.337 174.33 527.58 174.442ZM525.227 168.912C524.964 168.972 524.692 168.962 524.429 168.891C524.035 168.79 523.712 168.487 523.581 168.103C523.44 167.719 523.46 167.294 523.652 166.93C523.884 166.485 524.278 166.253 524.783 166.202C525.409 166.142 526.196 166.728 526.247 167.577C526.267 168.103 525.863 168.78 525.227 168.912ZM521.965 163.604C521.228 163.564 520.683 162.906 520.723 162.108C520.774 161.36 521.43 160.794 522.177 160.854C522.187 160.854 522.198 160.854 522.198 160.854C522.884 160.905 523.53 161.582 523.46 162.35C523.379 163.109 522.723 163.655 521.965 163.604ZM519.077 158.317C518.421 158.296 517.876 157.74 517.825 157.033C517.764 156.234 518.32 155.597 519.087 155.577C519.986 155.516 520.511 156.204 520.572 156.841C520.653 157.619 519.915 158.347 519.077 158.317ZM516.048 153.09C515.331 153.07 514.695 152.362 514.745 151.634C514.796 150.886 515.422 150.32 516.209 150.34C516.977 150.36 517.532 150.987 517.502 151.786C517.472 152.534 516.835 153.12 516.078 153.09C516.058 153.09 516.048 153.09 516.048 153.09ZM512.857 147.904C512.16 147.863 511.595 147.307 511.554 146.61C511.524 145.872 512.18 145.174 512.938 145.154C513.685 145.144 514.301 145.73 514.311 146.478C514.311 146.509 514.311 146.539 514.311 146.579C514.291 147.398 513.685 147.954 512.857 147.904ZM512.614 403.699C513.321 403.709 513.897 404.275 513.897 404.993C513.958 405.741 513.392 406.398 512.645 406.459C512.615 406.459 512.594 406.459 512.564 406.459C511.837 406.469 511.14 405.792 511.15 405.034C511.181 404.265 511.817 403.669 512.584 403.689C512.594 403.699 512.604 403.699 512.614 403.699ZM510.393 142.647C510.171 142.798 509.918 142.879 509.646 142.91C509.05 142.879 508.474 142.444 508.323 141.899C508.181 141.454 508.282 140.958 508.585 140.605C509.04 140.038 510.13 139.957 510.686 140.584C511.16 141.09 511.16 142.192 510.393 142.647ZM509.262 408.724C509.868 408.734 510.625 409.27 510.595 410.149C510.585 410.927 509.979 411.494 509.181 411.484C508.434 411.473 507.828 410.857 507.838 410.109C507.838 410.099 507.838 410.088 507.838 410.078C507.868 409.259 508.616 408.703 509.262 408.724ZM506.192 137.845C505.485 137.855 504.9 137.289 504.879 136.581C504.819 135.823 505.374 135.155 506.132 135.095C506.152 135.095 506.162 135.095 506.182 135.095C506.909 135.075 507.586 135.711 507.636 136.49C507.586 137.167 507.121 137.865 506.192 137.845ZM505.879 413.708C506.586 413.869 507.01 414.163 507.172 415.032C507.182 415.436 507.02 415.821 506.737 416.104C506.495 416.326 506.182 416.478 505.859 416.528C505.798 416.538 505.728 416.538 505.657 416.528C504.98 416.437 504.445 415.891 504.364 415.204C504.354 415.072 504.375 414.941 504.415 414.81C504.536 414.274 504.95 413.859 505.485 413.748C505.617 413.708 505.748 413.687 505.879 413.708ZM502.739 132.951C501.941 132.982 501.335 132.426 501.325 131.637C501.315 130.849 501.89 130.222 502.638 130.192C503.375 130.161 504.041 130.808 504.082 131.526C504.112 132.173 503.597 132.941 502.739 132.951ZM502.224 418.661C502.415 418.682 502.617 418.722 502.799 418.783C503.223 418.934 503.627 419.561 503.617 420.026C503.567 420.774 502.961 421.371 502.203 421.421C501.931 421.431 501.699 421.31 501.466 421.169C500.961 420.865 500.739 420.239 500.901 419.622C501.062 419.035 501.608 418.631 502.224 418.661ZM499.073 128.129C498.659 128.139 498.275 128.048 497.993 127.705C497.609 127.25 497.568 126.724 497.78 126.188C497.972 125.703 498.366 125.47 498.861 125.389C498.992 125.369 499.134 125.379 499.265 125.41C499.669 125.491 500.012 125.743 500.214 126.097C500.477 126.501 500.487 127.017 500.234 127.432C500.002 127.866 499.558 128.139 499.073 128.129ZM498.588 423.403C499.204 423.484 499.659 423.757 499.81 424.323C499.84 424.444 499.871 424.565 499.891 424.697C499.941 425.172 499.729 425.637 499.346 425.91C499.174 426.011 499.002 426.102 498.81 426.173C498.619 426.244 498.417 426.244 498.225 426.183C497.669 426.031 497.296 425.678 497.154 425.122C497.114 425 497.094 424.869 497.104 424.727C497.185 424.04 497.71 423.494 498.386 423.403C498.457 423.403 498.518 423.403 498.588 423.403ZM495.337 123.469C495.205 123.489 495.064 123.479 494.943 123.438C494.388 123.276 494.004 122.923 493.852 122.357C493.802 122.164 493.802 121.962 493.852 121.76C494.034 121.012 494.791 120.557 495.529 120.739C495.599 120.759 495.68 120.779 495.751 120.81C496.266 121.012 496.589 121.528 496.559 122.084C496.518 122.822 496.165 123.287 495.337 123.469ZM496.054 429.428C496.094 430.227 495.559 430.844 494.781 430.884C493.984 430.924 493.337 430.368 493.317 429.62C493.297 428.842 493.852 428.195 494.589 428.144C495.246 428.063 496.013 428.63 496.054 429.428ZM492.065 118.586C491.611 118.879 491.035 118.889 490.57 118.606C490.126 118.343 489.954 117.928 489.954 117.443C489.954 116.877 490.207 116.422 490.732 116.169C490.894 116.109 491.055 116.068 491.227 116.048C492.156 116.058 492.701 116.796 492.711 117.433C492.721 117.908 492.469 118.343 492.065 118.586ZM492.085 433.887C492.196 434.675 491.792 435.312 491.005 435.534C490.944 435.545 490.873 435.555 490.803 435.555C490.399 435.555 490.015 435.393 489.753 435.09C489.359 434.716 489.238 434.139 489.45 433.634C489.692 433.108 490.106 432.795 490.671 432.764C491.237 432.734 491.974 433.078 492.085 433.887ZM487.178 114.299C486.44 114.279 485.875 113.612 485.925 112.823C485.956 112.136 486.501 111.58 487.188 111.559C488.036 111.549 488.753 112.267 488.672 113.045C488.591 113.783 487.965 114.319 487.178 114.299ZM483.078 109.871C482.351 109.841 481.674 109.133 481.735 108.435C481.795 107.677 482.442 107.101 483.199 107.121C483.966 107.131 484.542 107.768 484.512 108.567C484.481 109.295 483.946 109.922 483.078 109.871ZM493.691 441.742L480.341 445.937L483.371 432.279L493.691 441.742ZM360.78 32.3398L371.09 41.8025L357.751 45.998L360.78 32.3398ZM357.771 40.6601C357.014 40.7006 356.357 40.1243 356.307 39.3661C356.307 39.3661 356.307 39.3661 356.307 39.356C356.256 38.7393 356.66 37.9406 357.6 37.9103C358.347 37.8395 359.003 38.3955 359.074 39.1437C359.074 39.1639 359.074 39.174 359.074 39.1942C359.134 39.912 358.508 40.6096 357.771 40.6601ZM358.599 511.822C358.579 512.58 357.943 513.227 357.216 513.217C356.458 513.187 355.853 512.57 355.822 511.812C355.842 511.044 356.469 510.437 357.236 510.447C357.983 510.467 358.589 511.074 358.599 511.822ZM351.682 39.5076C350.915 39.4773 350.359 38.8707 350.379 38.0619C350.4 37.2835 351.016 36.7274 351.803 36.7477C352.561 36.778 353.156 37.4149 353.126 38.1731C353.096 38.9314 352.46 39.5278 351.702 39.4975C351.702 39.5076 351.692 39.5076 351.682 39.5076ZM351.652 511.58C351.712 511.6 351.773 511.63 351.834 511.66C352.328 511.873 352.662 512.358 352.682 512.904C352.712 513.48 352.288 514.026 351.692 514.228C351.571 514.269 351.44 514.289 351.308 514.319C350.894 514.339 350.45 514.097 350.188 513.743C350.157 513.703 350.127 513.662 350.107 513.622C350.087 513.591 350.066 513.561 350.056 513.521C350.026 513.46 349.996 513.389 349.986 513.318C349.905 512.995 349.925 512.661 350.036 512.348C350.258 511.751 351.066 511.367 351.652 511.58ZM345.795 38.5472C345.027 38.5573 344.401 37.9507 344.381 37.1824C344.381 37.1824 344.381 37.1824 344.381 37.1723C344.381 36.4141 344.967 35.7771 345.724 35.7266C346.441 35.6963 347.118 36.3534 347.128 37.1015C347.168 38.0518 346.401 38.527 345.795 38.5472ZM345.371 512.53C346.189 512.55 346.724 513.288 346.684 513.965C346.643 514.663 345.987 515.33 345.229 515.28C344.472 515.239 343.886 514.582 343.937 513.824C343.957 513.045 344.573 512.489 345.371 512.53ZM339.706 37.7081C339.1 37.6575 338.585 37.2329 338.413 36.6466C338.282 36.1209 338.474 35.5648 338.908 35.2312C339.019 35.1503 339.13 35.0897 339.251 35.0391C339.615 34.8572 340.039 34.8673 340.382 35.0796C341.059 35.4334 341.332 36.2523 340.998 36.9398C340.796 37.3745 340.18 37.7485 339.706 37.7081ZM339.322 513.339C340.069 513.339 340.675 513.945 340.675 514.683C340.675 514.703 340.675 514.714 340.675 514.734C340.665 515.492 340.039 516.099 339.272 516.099C338.514 516.068 337.908 515.441 337.918 514.683C337.928 513.925 338.544 513.329 339.302 513.339C339.312 513.339 339.312 513.339 339.322 513.339ZM333.758 37.0408C333.001 37.0307 332.334 36.3534 332.344 35.6154C332.375 34.847 333.011 34.2506 333.778 34.2809C333.788 34.2809 333.809 34.2809 333.819 34.2809C334.525 34.291 335.091 34.8673 335.091 35.5749C335.141 36.3231 334.576 36.9802 333.819 37.0307C333.809 37.0408 333.788 37.0408 333.758 37.0408ZM334.647 515.35C334.687 516.099 334.111 516.725 333.364 516.766C333.344 516.766 333.314 516.766 333.294 516.766C332.526 516.776 331.9 516.159 331.89 515.391C331.87 514.633 332.465 514.006 333.213 513.976C333.223 513.976 333.243 513.976 333.253 513.976C333.95 513.965 334.657 514.461 334.647 515.35ZM327.659 36.505C326.891 36.4747 326.296 35.8277 326.316 35.0593C326.376 34.3011 327.002 33.7148 327.76 33.7047C328.477 33.6945 329.103 34.4022 329.073 35.1604C329.042 36.0703 328.335 36.5455 327.659 36.505ZM321.842 36.1411C321.782 36.1613 321.711 36.1613 321.64 36.1512C321.166 36.0703 320.762 35.8782 320.499 35.4536C320.237 35.029 320.186 34.6044 320.419 34.1394C320.651 33.644 321.146 33.3407 321.691 33.3508C322.438 33.3306 323.064 34.0079 323.024 34.7662C322.993 35.5547 322.59 35.9389 321.842 36.1411ZM315.753 35.8883C314.895 35.9187 314.158 35.2211 314.228 34.4528C314.299 33.6945 314.935 33.1284 315.693 33.1486C316.359 33.1486 317.026 33.7148 316.985 34.5943C316.955 35.302 316.42 35.858 315.753 35.8883ZM309.704 35.8277C308.876 35.8782 308.129 35.1706 308.18 34.382C308.23 33.6339 308.846 33.088 309.644 33.088C310.492 33.0981 310.977 33.7754 310.936 34.5134C310.926 35.2009 310.391 35.7771 309.704 35.8277ZM304.615 35.8681C303.888 35.9187 303.181 35.3728 303.151 34.5943C303.11 33.7956 303.646 33.1486 304.403 33.1183C305.16 33.0779 305.817 33.6238 305.908 34.382C305.958 34.9785 305.413 35.8176 304.615 35.8681ZM299.314 35.767C298.728 36.1916 297.96 36.2321 297.365 35.5547C297.132 35.2919 297.072 34.9684 297.082 34.6347C297.072 34.1596 297.334 33.7249 297.748 33.5025C297.981 33.3609 298.243 33.28 298.516 33.2902C299.132 33.4014 299.586 33.7249 299.788 34.3618C299.95 34.8268 299.748 35.4536 299.314 35.767ZM292.74 36.3534C292.608 36.3736 292.477 36.3837 292.346 36.3938C291.649 36.3736 291.144 35.9086 291.053 35.2615C291.043 35.1706 291.033 35.0695 291.043 34.9684C291.074 34.1899 291.669 33.7249 292.275 33.644C292.407 33.6238 292.538 33.6339 292.669 33.6642C293.053 33.7552 293.386 34.0079 293.598 34.3416C294.113 35.1706 293.578 36.1916 292.74 36.3534ZM291.276 514.491C291.902 514.602 292.346 515.158 292.316 515.785C292.306 516.523 291.952 516.998 291.144 517.211C291.074 517.221 291.013 517.231 290.942 517.231C290.054 517.14 289.529 516.392 289.569 515.755C289.619 514.966 290.326 514.299 291.276 514.491ZM286.328 36.96C285.611 36.9499 285.005 36.2624 285.015 35.4941C285.025 34.6246 285.722 34.1293 286.428 34.1596C287.176 34.1697 287.782 34.7965 287.761 35.5446C287.761 35.5648 287.761 35.5749 287.761 35.5952C287.751 36.4039 286.974 36.9701 286.328 36.96ZM280.228 37.5463C279.461 37.5059 278.936 36.869 278.986 36.0602C279.047 35.302 279.713 34.7459 280.471 34.8066C280.471 34.8066 280.471 34.8066 280.481 34.8066C281.218 34.8774 281.763 35.5345 281.723 36.313C281.682 37.0611 281.036 37.5969 280.228 37.5463ZM274.382 38.3652C273.624 38.3955 272.988 37.7991 272.968 37.051V37.0408C272.968 36.2826 273.564 35.6558 274.321 35.6154C275.078 35.6053 275.714 36.2119 275.725 36.9701C275.765 37.7081 275.199 38.3349 274.462 38.3753C274.432 38.3652 274.412 38.3652 274.382 38.3652ZM268.888 39.2347C268.727 39.2953 268.555 39.3459 268.373 39.3863C267.656 39.3155 267.05 38.7595 266.97 38.1226C266.909 37.6474 267.101 37.1824 267.485 36.8993C267.929 36.5556 268.414 36.4444 268.959 36.7173C269.383 36.9195 269.676 37.334 269.706 37.7991C269.797 38.4461 269.504 38.9516 268.888 39.2347ZM268.363 512.853C268.282 513.612 267.626 514.168 266.879 514.117C266.121 514.097 265.576 513.45 265.616 512.651C265.667 511.863 266.293 511.327 267.071 511.367C267.848 511.418 268.424 512.237 268.363 512.853ZM262.456 40.4175C261.719 40.4579 261.082 39.8918 261.042 39.1437C261.042 39.1234 261.042 39.1032 261.042 39.083C261.022 38.3147 261.628 37.6778 262.395 37.6575C263.163 37.6373 263.799 38.2439 263.819 39.0122C263.819 39.0223 263.819 39.0223 263.819 39.0325C263.849 39.7705 263.264 40.3973 262.526 40.4175C262.506 40.4175 262.486 40.4175 262.456 40.4175ZM256.548 41.6711C255.801 41.6913 255.155 41.206 255.145 40.3467C255.145 39.5784 255.741 38.9314 256.468 38.9111C257.013 38.8909 257.851 39.3863 257.891 40.2759C257.922 41.0038 257.397 41.6509 256.548 41.6711ZM251.439 42.8438C251.378 42.8842 251.328 42.9247 251.257 42.955C250.813 43.2078 250.368 43.1774 249.944 42.9348C249.601 42.7326 249.349 42.4091 249.248 42.0148C249.177 41.7621 249.197 41.4891 249.308 41.2465C249.601 40.6197 250.025 40.3467 250.712 40.3669C250.793 40.3669 250.883 40.377 250.964 40.3973C251.54 40.5287 251.954 41.0443 251.964 41.6408C251.984 42.1462 251.823 42.5506 251.439 42.8438ZM135.261 443.41C134.584 443.218 134.302 442.54 134.322 442.045C134.342 441.388 134.918 440.781 135.564 440.711C135.897 440.68 136.23 440.781 136.493 440.984C136.907 441.277 137.089 441.681 137.109 442.156C137.109 442.227 137.109 442.288 137.089 442.359C136.856 443.208 136.099 443.642 135.261 443.41ZM131.565 439.043C130.808 439.032 130.343 438.658 130.171 437.85C130.06 437.304 130.525 436.424 131.444 436.293C132.161 436.192 132.868 436.839 132.918 437.617C132.938 438.537 132.343 439.043 131.565 439.043ZM127.526 434.513C126.748 434.493 126.082 433.785 126.152 433.078C126.223 432.299 126.9 431.723 127.677 431.774C128.384 431.814 128.929 432.411 128.909 433.128C128.909 434.028 128.303 434.534 127.526 434.513ZM123.608 429.944C123.093 429.924 122.527 429.519 122.396 429.034C122.335 428.842 122.315 428.64 122.315 428.437C122.335 427.699 122.881 427.184 123.618 427.184C123.749 427.184 123.89 427.194 124.022 427.224C124.587 427.336 125.082 427.972 125.062 428.549C125.032 429.337 124.294 429.964 123.608 429.944ZM119.892 425.182C119.144 425.182 118.478 424.576 118.458 423.848C118.438 423.302 118.932 422.453 119.821 422.432C120.558 422.402 121.184 422.968 121.214 423.706C121.214 423.736 121.214 423.757 121.214 423.787C121.235 424.565 120.699 425.172 119.892 425.182ZM116.287 420.35C115.489 420.36 114.873 419.814 114.802 419.076C114.752 418.479 115.307 417.65 116.105 417.6C116.862 417.559 117.509 418.126 117.549 418.884V418.894C117.589 419.693 117.044 420.34 116.287 420.35ZM112.682 415.467C111.934 415.467 111.248 414.84 111.268 414.102C111.288 413.465 111.763 412.707 112.661 412.707C113.419 412.707 114.045 413.313 114.075 414.072C114.004 414.8 113.53 415.457 112.682 415.467ZM109.349 410.503C108.582 410.594 107.865 409.866 107.875 409.007C107.885 408.451 108.309 407.804 109.147 407.733C109.915 407.672 110.601 408.248 110.622 408.997C110.632 409.785 110.107 410.412 109.349 410.503ZM106.047 405.377C105.26 405.408 104.644 404.872 104.603 404.083C104.573 403.285 105.128 402.668 105.886 402.627C106.724 402.577 107.33 403.295 107.35 403.932C107.41 404.629 106.815 405.347 106.047 405.377ZM87.8809 349.076L74.5312 353.272L77.5607 339.614L87.8809 349.076ZM82.3168 353.707C83.0742 353.697 83.6902 354.222 83.7104 355.061C83.7306 355.809 83.2257 356.456 82.3774 356.467C81.6302 356.467 80.9637 355.85 80.9435 355.122C80.9334 354.576 81.4181 353.717 82.3168 353.707ZM84.3869 359.388C85.1544 359.358 85.7502 359.944 85.831 360.733C85.9016 361.441 85.2251 362.118 84.4778 362.138C83.5488 362.179 83.0641 361.461 83.054 360.814C83.0237 360.056 83.6195 359.419 84.3869 359.388ZM86.7297 365.04C87.487 365.1 88.0525 365.757 88.0121 366.516C87.9717 367.264 87.3457 367.84 86.5984 367.8C86.5782 367.8 86.5681 367.8 86.5479 367.8C85.8108 367.769 85.2352 367.153 85.2655 366.415C85.2655 366.394 85.2655 366.364 85.2655 366.344C85.316 365.575 85.9723 364.999 86.7297 365.04ZM88.9412 370.63C89.7187 370.62 90.365 371.186 90.3852 371.934C90.4256 372.662 89.7894 373.35 89.0623 373.39C88.305 373.421 87.6688 372.824 87.6385 372.066C87.6082 371.267 88.1636 370.65 88.9412 370.63ZM91.5162 376.09C92.2533 376.1 92.8592 376.767 92.8592 377.525C92.8592 378.415 92.122 378.86 91.4556 378.89C90.7891 378.809 90.1024 378.384 90.1125 377.454C90.1125 376.544 90.9406 376.079 91.5162 376.09ZM94.1214 381.569C95.0202 381.579 95.4746 382.287 95.5049 382.964C95.5352 383.702 94.8485 384.339 94.0912 384.329C93.3338 384.329 92.7178 383.712 92.7178 382.944C92.7178 382.186 93.3338 381.569 94.1013 381.569C94.1013 381.569 94.1113 381.569 94.1214 381.569ZM96.8378 386.917C97.5952 386.907 98.2112 387.513 98.2213 388.272C98.2213 388.292 98.2213 388.322 98.2213 388.342C98.2415 389.05 97.6861 389.636 96.9893 389.677C96.2319 389.748 95.5554 389.192 95.4746 388.433C95.4746 388.423 95.4746 388.403 95.4746 388.393C95.4241 387.655 96.0805 386.957 96.8378 386.917ZM99.8268 392.214C100.604 392.295 101.18 392.912 101.16 393.67C101.14 394.348 100.625 395.015 99.7158 394.974C98.817 394.944 98.3424 394.236 98.3929 393.559C98.4232 392.791 99.0594 392.194 99.8268 392.214ZM102.806 397.441C103.351 397.441 104.189 397.947 104.169 398.857C104.179 399.595 103.654 400.211 102.786 400.211C102.048 400.231 101.443 399.655 101.422 398.927C101.422 398.897 101.422 398.867 101.422 398.836C101.422 397.967 102.21 397.441 102.806 397.441ZM261.052 518.363L250.742 508.9L264.082 504.705L261.052 518.363ZM272.412 512.469C272.584 512.409 272.756 512.368 272.938 512.328C273.766 512.479 274.129 512.813 274.331 513.591C274.351 513.723 274.341 513.854 274.311 513.986C274.149 514.633 273.735 515.007 273.089 515.138C272.958 515.168 272.826 515.168 272.695 515.138C272.251 514.987 271.867 514.774 271.665 514.289C271.413 513.672 271.665 512.752 272.412 512.469ZM278.057 513.521C278.845 512.954 280.006 513.217 280.269 514.329C280.279 514.37 280.279 514.42 280.279 514.461C280.289 514.754 280.228 515.047 280.097 515.31C279.935 515.664 279.309 516.028 278.936 516.008C278.158 515.967 277.542 515.34 277.522 514.572C277.512 514.501 277.512 514.441 277.532 514.37C277.643 514.046 277.775 513.723 278.057 513.521ZM284.49 513.955C285.035 513.733 285.782 513.976 286.075 514.491C286.368 514.956 286.378 515.553 286.085 516.028C285.823 516.493 285.378 516.614 284.884 516.634C284.136 516.594 283.662 516.139 283.54 515.381C283.52 515.249 283.53 515.108 283.571 514.987C283.702 514.511 284.035 514.137 284.49 513.955ZM297.001 514.825C297.698 514.825 298.385 515.3 298.364 516.21C298.374 516.968 297.779 517.605 297.011 517.615H297.001C296.274 517.615 295.618 516.917 295.608 516.2C295.608 515.441 296.224 514.825 296.991 514.825H297.001ZM302.05 515.502C302.434 515.067 303.04 514.916 303.514 515.118C304.06 515.35 304.373 515.745 304.403 516.351C304.403 516.392 304.403 516.432 304.403 516.473C304.363 517.271 303.807 517.787 303.08 517.797C302.525 517.827 302.01 517.504 301.788 516.998C301.626 516.695 301.606 516.341 301.737 516.018C301.808 515.826 301.919 515.654 302.05 515.502ZM309.008 515.118C309.715 515.037 310.432 515.704 310.462 516.473C310.482 517.281 309.977 517.878 309.099 517.878C308.372 517.878 307.806 517.403 307.725 516.665C307.644 515.907 308.24 515.209 309.008 515.118ZM315.279 515.067C316.036 515.138 316.581 515.805 316.511 516.564C316.511 516.584 316.511 516.604 316.5 516.624C316.43 517.413 315.773 517.898 314.925 517.797C314.208 517.716 313.713 516.988 313.754 516.382C313.824 515.623 314.541 514.997 315.279 515.067ZM321.186 514.896C322.085 514.896 322.559 515.512 322.569 516.24C322.569 517.14 321.863 517.625 321.216 517.655C320.499 517.655 319.833 516.998 319.813 516.27C319.792 515.522 320.388 514.916 321.125 514.896C321.146 514.896 321.166 514.896 321.186 514.896ZM327.134 514.542C327.265 514.532 327.396 514.542 327.528 514.552C327.679 514.572 327.82 514.623 327.942 514.693C328.335 514.916 328.588 515.33 328.608 515.775C328.638 516.281 328.477 516.685 328.093 516.978C328.032 517.019 327.982 517.059 327.921 517.099C327.528 517.352 327.013 517.352 326.609 517.11C326.437 517.008 326.285 516.877 326.164 516.725C325.851 516.372 325.77 515.866 325.942 515.431C326.154 514.896 326.538 514.572 327.134 514.542ZM363.174 509.153C363.891 509.173 364.537 509.689 364.496 510.579C364.476 511.317 363.769 512.004 363.083 511.954C362.325 511.893 361.74 511.256 361.74 510.498C361.75 509.75 362.366 509.143 363.113 509.153C363.143 509.153 363.163 509.153 363.174 509.153ZM515.785 398.533C516.512 398.533 517.128 399.089 517.108 399.948C517.098 400.707 516.482 401.303 515.725 401.293C515.715 401.293 515.704 401.293 515.694 401.293C514.937 401.242 514.351 400.616 514.351 399.857C514.392 399.099 515.028 398.513 515.785 398.533ZM518.764 393.286C519.542 393.276 520.178 393.852 520.208 394.6C520.249 395.268 519.653 396.006 518.875 396.046C518.118 396.076 517.482 395.49 517.451 394.732V394.722C517.441 393.913 517.997 393.296 518.764 393.286ZM521.743 387.989C522.612 387.989 523.127 388.626 523.127 389.343C523.127 390.253 522.359 390.738 521.763 390.749C521.127 390.749 520.38 390.182 520.37 389.353C520.36 388.605 520.945 387.999 521.683 387.978C521.703 387.989 521.723 387.989 521.743 387.989ZM524.601 382.539C525.358 382.6 525.934 383.247 525.924 384.005C525.914 384.855 525.207 385.33 524.5 385.34C523.763 385.269 523.147 384.774 523.177 383.904C523.207 383.156 523.904 382.489 524.601 382.539ZM526.923 377.151C527.762 377.02 528.438 377.454 528.62 378.395C528.701 379.092 528.075 379.81 527.327 379.871C526.56 379.931 525.934 379.395 525.863 378.597C525.813 377.909 526.287 377.252 526.923 377.151ZM529.7 371.56C530.296 371.52 531.104 372.066 531.134 372.905C531.165 373.653 530.579 374.29 529.832 374.32C529.822 374.32 529.811 374.32 529.801 374.32C528.933 374.341 528.388 373.734 528.388 373.006C528.378 372.228 528.953 371.601 529.7 371.56ZM530.831 366.95C530.953 366.435 531.649 365.919 532.164 365.96C532.77 366.02 533.285 366.435 533.477 367.011C533.649 367.557 533.366 368.275 532.861 368.548C532.437 368.78 531.993 368.841 531.538 368.608C531.175 368.447 530.902 368.123 530.811 367.729C530.761 367.476 530.771 367.213 530.831 366.95ZM532.972 361.794C532.922 361.238 533.356 360.44 534.305 360.328C534.871 360.258 535.699 360.733 535.739 361.653C535.759 362.543 535.174 363.068 534.436 363.099C533.669 363.149 533.043 362.593 532.972 361.794ZM535.103 355.951C535.113 355.213 535.86 354.546 536.537 354.606C537.294 354.667 537.88 355.304 537.87 356.062C537.849 356.81 537.223 357.397 536.476 357.376C536.456 357.376 536.436 357.376 536.416 357.376C535.527 357.336 535.093 356.669 535.103 355.951ZM537.021 350.33C536.971 349.622 537.617 348.915 538.344 348.874C539.081 348.814 539.738 349.38 539.788 350.118C539.788 350.138 539.788 350.158 539.788 350.188C539.829 350.916 539.324 351.614 538.496 351.634C537.749 351.664 537.092 351.088 537.021 350.33ZM538.879 344.436C538.879 343.668 539.495 343.102 540.293 343.122C541.051 343.132 541.646 343.759 541.636 344.517C541.636 344.527 541.636 344.527 541.636 344.537C541.606 345.326 540.869 345.922 540.202 345.882C539.455 345.851 538.869 345.215 538.879 344.436Z" fill="#747474"/>
</g>
<defs>
<clipPath id="clip0_945_69">
<rect width="618" height="553" fill="white"/>
</clipPath>
</defs>
</svg>
