<svg width="84" height="84" viewBox="0 0 84 84" fill="none" xmlns="http://www.w3.org/2000/svg">
<path d="M84 42C84 18.807 65.1994 0 42 0C18.8006 0 0 18.8006 0 42C0 65.1994 18.8006 84 42 84C65.1994 84 84 65.193 84 42Z" fill="#F5F5F5"/>
<path d="M43.583 57.6716V66.7256C56.5164 66.7256 67.0325 56.2416 67.1928 43.212L58.1772 43.1094C58.081 51.1824 51.5726 57.6716 43.583 57.6716Z" fill="black"/>
<path d="M40.2102 66.732L40.3256 57.6716C32.3231 57.5754 25.8981 51.0157 25.8917 42.9427H16.8825C16.8825 55.9787 27.2831 66.5781 40.2102 66.732Z" fill="black"/>
<path d="M16.8633 40.1278L25.8724 40.2303C25.9686 32.1894 32.477 25.7259 40.4666 25.7259V16.6719C27.5332 16.6719 17.0172 27.1238 16.8633 40.1278Z" fill="black"/>
<path d="M43.6922 25.7259C51.7267 25.8221 58.1838 32.3626 58.1838 40.3971H67.193C67.193 27.3931 56.7603 16.8258 43.7948 16.6719L43.6922 25.7259Z" fill="#FF161F"/>
<path d="M46.1353 37.8001C46.1481 37.1268 45.9622 36.4664 45.6095 35.9021C45.2504 35.3378 44.7567 34.8826 44.1539 34.562C43.5191 34.2349 42.8138 34.0618 42.102 34.0746C41.3261 34.0618 40.5631 34.235 39.8706 34.5812C39.2293 34.9018 38.6843 35.3827 38.2932 35.9791C37.9084 36.5754 37.7033 37.2679 37.7161 37.9797C37.7033 38.2362 37.7994 38.4862 37.9726 38.6786C38.1329 38.8581 38.3637 38.9607 38.6009 38.9607C38.8446 38.9672 39.0819 38.8581 39.2358 38.6658C39.4089 38.4542 39.4922 38.1913 39.4858 37.9219C39.4794 37.5308 39.6077 37.1525 39.8385 36.8447C40.0886 36.5113 40.422 36.2484 40.8003 36.0752C41.2235 35.8829 41.6788 35.7803 42.1405 35.7867C42.7817 35.7867 43.3075 35.9791 43.7179 36.3638C44.1219 36.7293 44.3463 37.2487 44.3335 37.7873C44.3399 38.1656 44.2244 38.5375 44.0064 38.8517C43.7948 39.1595 43.5063 39.416 43.1793 39.602C42.8651 39.7879 42.506 39.8841 42.1405 39.8841H42.0828C41.557 39.8969 41.1466 40.3394 41.1594 40.8652C41.153 41.1281 41.2556 41.3845 41.4415 41.5769C41.6275 41.7693 41.884 41.8719 42.1469 41.8655C42.6214 41.859 43.0895 41.9937 43.4935 42.2502C43.891 42.5067 44.218 42.8658 44.4361 43.2826C44.6733 43.725 44.7887 44.2252 44.7823 44.7317C44.7887 45.5781 44.5258 46.2386 44.0064 46.7067C43.4806 47.1684 42.8009 47.4056 41.9545 47.4056C41.4095 47.4185 40.8709 47.2838 40.3964 47.0145C39.9475 46.7644 39.5692 46.3989 39.2999 45.9565C39.0306 45.5204 38.8895 45.0203 38.8959 44.5073C38.9087 44.2444 38.819 43.9879 38.6458 43.7891C38.4855 43.6032 38.2547 43.5006 38.011 43.507C37.7673 43.507 37.5429 43.6096 37.3826 43.7891C37.2095 43.9815 37.1133 44.2444 37.1261 44.5073C37.1133 45.3409 37.3313 46.1552 37.7609 46.867C38.1841 47.5659 38.7869 48.1366 39.5115 48.5214C40.2553 48.9189 41.1081 49.1241 42.07 49.1241C42.8843 49.1305 43.6794 48.9317 44.3976 48.5534C45.0901 48.1879 45.6736 47.6557 46.0904 46.9952C46.5136 46.3284 46.7381 45.5525 46.7252 44.7574C46.7316 44.1867 46.6355 43.616 46.4303 43.0838C46.2315 42.5708 45.9109 42.1027 45.5005 41.7308C45.0773 41.3333 44.5258 41.0255 43.8461 40.7946C44.2373 40.6151 44.6028 40.3843 44.9426 40.1149C45.2889 39.8456 45.5838 39.5058 45.8019 39.1275C46.0263 38.7235 46.1417 38.2618 46.1353 37.8001Z" fill="#FF161F"/>
</svg>
