<svg width="84" height="84" viewBox="0 0 84 84" fill="none" xmlns="http://www.w3.org/2000/svg">
<path d="M84 42C84 18.807 65.1994 0 42 0C18.8006 0 0 18.8006 0 42C0 65.1994 18.8006 84 42 84C65.1994 84 84 65.193 84 42Z" fill="#F5F5F5"/>
<path d="M43.583 57.6716V66.7256C56.5164 66.7256 67.0325 56.2416 67.1928 43.212L58.1772 43.1094C58.081 51.1824 51.5726 57.6716 43.583 57.6716Z" fill="black"/>
<path d="M40.2102 66.732L40.3256 57.6716C32.3231 57.5754 25.8981 51.0157 25.8917 42.9427H16.8825C16.8825 55.9787 27.2831 66.5781 40.2102 66.732Z" fill="black"/>
<path d="M16.8633 40.1278L25.8724 40.2303C25.9686 32.1894 32.477 25.7259 40.4666 25.7259V16.6719C27.5332 16.6719 17.0172 27.1238 16.8633 40.1278Z" fill="black"/>
<path d="M43.8168 16.6719L43.7142 25.7259C51.7487 25.8157 58.2058 32.3562 58.2058 40.3971H67.215C67.215 27.3931 56.7823 16.8258 43.8168 16.6719Z" fill="#FF161F"/>
<path d="M46.2855 38.653C46.2855 37.7168 46.1124 36.9088 45.7597 36.2291C45.4263 35.5687 44.9069 35.0236 44.2721 34.6581C43.6309 34.2862 42.8743 34.1003 42.0022 34.1003C41.143 34.1003 40.3735 34.2991 39.6874 34.6966C39.0077 35.0813 38.4498 35.6392 38.0587 36.3189C37.6611 36.9986 37.4623 37.7809 37.4623 38.653C37.4623 38.9094 37.5649 39.1531 37.7509 39.3262C37.9304 39.5058 38.1741 39.6084 38.4306 39.6148C38.9692 39.6212 39.4116 39.1916 39.4245 38.653C39.4181 38.1784 39.5335 37.7039 39.7579 37.2807C39.9759 36.8703 40.2901 36.5305 40.6813 36.2804C41.0724 36.0304 41.5277 35.9021 41.9958 35.9085C42.4959 35.9085 42.9256 36.0175 43.2846 36.242C43.6501 36.4664 43.9387 36.7998 44.1118 37.191C44.3042 37.6013 44.4004 38.0887 44.4004 38.653C44.4004 39.012 44.2913 39.3904 44.0797 39.7879C43.8233 40.2432 43.5283 40.6664 43.182 41.0575L37.7188 47.4441C37.5393 47.63 37.4431 47.8801 37.4495 48.1366C37.4495 48.3931 37.5521 48.6432 37.7317 48.8291C37.9176 49.0215 38.1741 49.1241 38.437 49.1177H45.5546C45.8239 49.1241 46.0804 49.0215 46.2663 48.8291C46.4587 48.6368 46.5613 48.3803 46.5549 48.111C46.542 47.5723 46.0932 47.1427 45.5546 47.1555H40.1683L44.5735 42.154C44.862 41.827 45.1313 41.4743 45.375 41.1152C45.6379 40.7369 45.8559 40.3265 46.029 39.9033C46.1958 39.5058 46.2791 39.0826 46.2855 38.653Z" fill="#FF161F"/>
</svg>
