<svg width="84" height="84" viewBox="0 0 84 84" fill="none" xmlns="http://www.w3.org/2000/svg">
<path d="M84 42C84 18.807 65.1994 0 42 0C18.8006 0 0 18.8006 0 42C0 65.1994 18.8006 84 42 84C65.1994 84 84 65.193 84 42Z" fill="#F5F5F5"/>
<path d="M43.583 57.6716V66.7256C56.5164 66.7256 67.0325 56.2416 67.1928 43.212L58.1772 43.1094C58.081 51.1824 51.5726 57.6716 43.583 57.6716Z" fill="black"/>
<path d="M40.2102 66.732L40.3256 57.6716C32.3231 57.5754 25.8981 51.0157 25.8917 42.9427H16.8825C16.8825 55.9787 27.2831 66.5781 40.2102 66.732Z" fill="black"/>
<path d="M16.8633 40.1278L25.8724 40.2303C25.9686 32.1894 32.477 25.7259 40.4666 25.7259V16.6719C27.5332 16.6719 17.0172 27.1238 16.8633 40.1278Z" fill="black"/>
<path d="M44.3336 34.1003C44.1797 34.1003 44.0194 34.1387 43.8848 34.2157C43.7501 34.2926 43.6283 34.4016 43.5257 34.5234L36.158 44.1803C36.017 44.3598 35.9529 44.5907 35.9721 44.8215C35.9913 45.0587 36.0939 45.2832 36.2542 45.4499C36.4209 45.6294 36.6518 45.7192 36.9467 45.7192H43.3526V48.143C43.3461 48.3995 43.4423 48.6496 43.6219 48.8355C43.7886 49.0215 44.0258 49.1241 44.2759 49.1241C44.5388 49.1305 44.7889 49.0279 44.9684 48.8355C45.148 48.6496 45.2442 48.3995 45.2377 48.143V45.7192H46.3919C46.6484 45.7256 46.8985 45.6358 47.0844 45.4627C47.2704 45.3024 47.373 45.078 47.373 44.8343C47.373 44.5009 47.2768 44.27 47.0844 44.1418C46.8793 44.0071 46.6356 43.943 46.3919 43.9494H45.2377V35.1005C45.2442 34.8376 45.1544 34.5876 44.9877 34.3888C44.8274 34.1964 44.5837 34.0938 44.3336 34.1003Z" fill="#FF161F"/>
<path d="M67.2188 40.3971C67.2188 27.3931 56.7861 16.8258 43.8206 16.6719L43.718 25.7323C51.7525 25.8221 58.2096 32.3626 58.2096 40.3971H67.2188Z" fill="#FF161F"/>
<path d="M43.342 37.5781V43.9262H38.4688L43.342 37.5781Z" fill="#F5F5F5"/>
</svg>
