<svg width="84" height="84" viewBox="0 0 84 84" fill="none" xmlns="http://www.w3.org/2000/svg">
<path d="M84 42C84 18.807 65.1994 0 42 0C18.8006 0 0 18.8006 0 42C0 65.1994 18.8006 84 42 84C65.1994 84 84 65.193 84 42Z" fill="#F5F5F5"/>
<path d="M43.583 57.6716V66.7256C56.5164 66.7256 67.0325 56.2416 67.1928 43.212L58.1772 43.1094C58.081 51.1824 51.5726 57.6716 43.583 57.6716Z" fill="black"/>
<path d="M40.2102 66.732L40.3256 57.6716C32.3231 57.5754 25.8981 51.0157 25.8917 42.9427H16.8825C16.8825 55.9787 27.2831 66.5781 40.2102 66.732Z" fill="black"/>
<path d="M16.8633 40.1278L25.8724 40.2303C25.9686 32.1894 32.477 25.7259 40.4666 25.7259V16.6719C27.5332 16.6719 17.0172 27.1238 16.8633 40.1278Z" fill="black"/>
<path d="M46.1489 34.4658C46.1489 34.1965 46.0463 33.9464 45.8604 33.7604C45.6872 33.5681 45.4307 33.459 45.1614 33.4462H38.7364C38.4735 33.4398 38.2234 33.5424 38.0439 33.7348C37.8643 33.9271 37.7682 34.1836 37.7746 34.4465V39.6404C37.7682 39.9033 37.8643 40.1598 38.0439 40.3458C38.2234 40.5382 38.4735 40.6343 38.7364 40.6279H41.9489C42.4811 40.6215 43.0005 40.7497 43.4622 41.0126C43.9046 41.2691 44.2637 41.6282 44.5138 42.0642C45.0268 43.0068 45.0268 44.1418 44.5138 45.078C44.2637 45.5204 43.8982 45.8859 43.4622 46.136C43.0005 46.3989 42.4747 46.5271 41.9489 46.5207C41.4295 46.5271 40.9165 46.3925 40.4613 46.136C40.0188 45.8859 39.6598 45.5204 39.4097 45.078C39.1532 44.6227 39.0185 44.1033 39.0249 43.5775C39.0314 43.3082 38.9288 43.0581 38.7364 42.8722C38.544 42.6862 38.2875 42.5836 38.0246 42.5901C37.7617 42.5836 37.5117 42.6862 37.3321 42.8722C37.1526 43.0645 37.0564 43.3146 37.0628 43.5775C37.0628 44.5009 37.2808 45.3344 37.7104 46.0783C38.1272 46.8157 38.73 47.4184 39.461 47.8416C40.1984 48.2712 41.032 48.4828 41.9553 48.4828C42.8915 48.4828 43.7251 48.2712 44.4625 47.8416C45.1935 47.4184 45.7962 46.8093 46.213 46.0783C46.6491 45.3344 46.8607 44.5009 46.8607 43.5775C46.8607 42.6477 46.6426 41.8078 46.213 41.0704C45.7962 40.3458 45.1871 39.7366 44.4625 39.3198C43.7251 38.8966 42.8915 38.6786 41.9553 38.6786H39.7239V35.4276H45.1678H45.1743C45.7065 35.434 46.1425 34.998 46.1489 34.4658Z" fill="#FF161F"/>
<path d="M67.2258 40.3971C67.2258 27.3931 56.7932 16.8258 43.8277 16.6719L43.7251 25.7323C51.7596 25.8221 58.2167 32.3626 58.2167 40.3971H67.2258Z" fill="#FF161F"/>
</svg>
