<svg width="84" height="84" viewBox="0 0 84 84" fill="none" xmlns="http://www.w3.org/2000/svg">
<path d="M84 42C84 18.807 65.1994 0 42 0C18.8006 0 0 18.8006 0 42C0 65.1994 18.8006 84 42 84C65.1994 84 84 65.193 84 42Z" fill="#F5F5F5"/>
<path d="M43.583 57.6716V66.7256C56.5164 66.7256 67.0325 56.2416 67.1928 43.212L58.1772 43.1094C58.081 51.1824 51.5726 57.6716 43.583 57.6716Z" fill="black"/>
<path d="M40.2102 66.732L40.3256 57.6716C32.3231 57.5754 25.8981 51.0157 25.8917 42.9427H16.8825C16.8825 55.9787 27.2831 66.5781 40.2102 66.732Z" fill="black"/>
<path d="M16.8633 40.1278L25.8724 40.2303C25.9686 32.1894 32.477 25.7259 40.4666 25.7259V16.6719C27.5332 16.6719 17.0172 27.1238 16.8633 40.1278Z" fill="black"/>
<path d="M43.8085 16.6719L43.7059 25.7259C51.7404 25.8157 58.1975 32.3562 58.1975 40.3971H67.2067C67.2067 27.3931 56.774 16.8258 43.8085 16.6719Z" fill="#FF161F"/>
<path d="M44.3664 34.9723C44.501 34.7671 44.5523 34.5235 44.5074 34.2798C44.4177 33.7989 43.9881 33.4526 43.4943 33.4719C43.1352 33.4719 42.8403 33.6514 42.6094 34.0105L38.2748 41.2435L38.2744 41.244C38.2104 41.34 38.1464 41.436 38.0888 41.5384C37.7041 42.2245 37.5117 43.0197 37.5117 43.9174C37.5117 44.8087 37.7041 45.591 38.0888 46.2771C38.4671 46.9568 39.025 47.5146 39.6983 47.8929C40.3844 48.2841 41.1731 48.4765 42.058 48.4765C42.9429 48.4765 43.7252 48.2841 44.4048 47.8929C45.0781 47.5082 45.6296 46.9504 46.0015 46.2771C46.3862 45.591 46.5786 44.8023 46.5786 43.9174C46.5786 43.0132 46.3862 42.2245 46.0015 41.5384C45.6296 40.8651 45.0781 40.3073 44.4048 39.9226C43.7252 39.5378 42.9429 39.3391 42.058 39.3391C41.949 39.3391 41.84 39.3391 41.731 39.3455L44.3664 34.9723Z" fill="#FF161F"/>
<path d="M39.3674 43.8861C39.3674 43.3218 39.4765 42.828 39.7009 42.4048C39.9189 41.9945 40.2459 41.6482 40.6435 41.4046C41.5091 40.9172 42.5671 40.9172 43.4328 41.4046C43.8368 41.6482 44.1638 41.9945 44.3882 42.4048C44.619 42.828 44.7345 43.3218 44.7345 43.8861C44.7409 44.3926 44.6255 44.8992 44.3882 45.3545C44.1702 45.7713 43.8368 46.1175 43.4328 46.3548C42.5607 46.8293 41.5155 46.8293 40.6435 46.3548C40.2395 46.1175 39.9125 45.7713 39.7009 45.3545C39.4765 44.8992 39.361 44.399 39.3674 43.8861Z" fill="#F5F5F5"/>
</svg>
