<svg width="40" height="40" viewBox="0 0 40 40" fill="none" xmlns="http://www.w3.org/2000/svg">
<g clip-path="url(#clip0_1134_57)">
<path fill-rule="evenodd" clip-rule="evenodd" d="M21.2263 40V32.7603C27.5794 32.7603 32.7546 27.5753 32.8311 21.1246L39.9949 21.2066C39.8776 31.6178 31.5156 40 21.2263 40ZM7.19949 18.8241L0.0305928 18.7422C0.158062 8.35148 8.51498 0 18.8043 0V7.23453C12.4461 7.23453 7.27087 12.3991 7.19949 18.8241ZM18.6412 32.7603L18.5494 39.9949C8.27024 39.8719 0 31.4026 0 20.9914H7.1689C7.1689 27.442 12.2779 32.6886 18.6412 32.7603Z" fill="#FF161F"/>
<path fill-rule="evenodd" clip-rule="evenodd" d="M21.1143 7.23453L21.1958 0C31.5056 0.122967 39.8013 8.56667 39.8013 18.9573H32.6375C32.6375 12.5375 27.503 7.31139 21.1143 7.23453Z" fill="black"/>
</g>
<defs>
<clipPath id="clip0_1134_57">
<rect width="40" height="40" fill="white"/>
</clipPath>
</defs>
</svg>
