<svg width="40" height="41" viewBox="0 0 40 41" fill="none" xmlns="http://www.w3.org/2000/svg">
<path d="M32.761 18.9474L40 18.9474C40 8.56275 31.6186 0.123324 21.2083 0.0049658L21.1264 7.23508C27.5764 7.31227 32.761 12.5355 32.761 18.9474Z" fill="#FF161F"/>
<path d="M18.5392 40.3392L18.6212 33.104C12.1968 33.0319 7.0314 27.8088 7.23633 20.9286L0.00369172 20.9286C-0.201233 31.7763 8.14948 40.2106 18.5392 40.3392Z" fill="#FF161F"/>
<path d="M39.9949 21.649L32.761 21.5564C32.6893 27.9786 27.4432 33.1349 20.9932 33.1349L20.9932 40.3701C31.4034 40.3701 39.8719 32.0233 39.9949 21.649Z" fill="#FF161F"/>
<path d="M0.00390625 18.7775L7.23777 18.8599C7.31462 12.4119 12.5402 7.22993 18.9595 7.22993L18.9595 -0.00018966C8.56979 -0.000189204 0.126861 8.37234 0.00390625 18.7775Z" fill="black"/>
</svg>
