<svg width="40" height="40" viewBox="0 0 40 40" fill="none" xmlns="http://www.w3.org/2000/svg">
<path fill-rule="evenodd" clip-rule="evenodd" d="M27.0319 27.0397C26.7839 27.2877 26.3759 27.2877 26.1279 27.0397L22.2559 23.1677C19.8959 25.0237 16.4799 24.6237 14.6159 22.2637C12.7599 19.9037 13.1599 16.4877 15.5199 14.6237C17.8799 12.7677 21.2959 13.1677 23.1599 15.5277C24.7119 17.5037 24.7119 20.2877 23.1599 22.2637L27.0319 26.1357C27.2879 26.3837 27.2879 26.7837 27.0319 27.0397C27.0399 27.0317 27.0399 27.0317 27.0319 27.0397ZM21.8879 15.8957C20.2319 14.2397 17.5439 14.2397 15.8879 15.8957C14.2319 17.5517 14.2319 20.2397 15.8879 21.8957C17.5439 23.5517 20.2319 23.5517 21.8879 21.8957C23.5439 20.2317 23.5439 17.5517 21.8879 15.8957Z" fill="#FF161F"/>
</svg>
