<?xml version="1.0" encoding="utf-8"?>
<!-- Generator: Adobe Illustrator 26.0.1, SVG Export Plug-In . SVG Version: 6.00 Build 0)  -->
<svg version="1.1" id="Слой_1" xmlns="http://www.w3.org/2000/svg" xmlns:xlink="http://www.w3.org/1999/xlink" x="0px" y="0px"
	 viewBox="0 0 500 500" style="enable-background:new 0 0 500 500;" xml:space="preserve">
<style type="text/css">
	.st0{fill-rule:evenodd;clip-rule:evenodd;fill:#000000;}
</style>
<path id="Эллипс_3" class="st0" d="M337.9,338c-3.1,3.1-8.2,3.1-11.3,0l-48.4-48.4c-29.5,23.2-72.2,18.2-95.5-11.3
	c-23.2-29.5-18.2-72.2,11.3-95.5c29.5-23.2,72.2-18.2,95.5,11.3c19.4,24.7,19.4,59.5,0,84.2l48.4,48.4
	C341.1,329.8,341.1,334.8,337.9,338C338,337.9,338,337.9,337.9,338z M273.6,198.7c-20.7-20.7-54.3-20.7-75,0
	c-20.7,20.7-20.7,54.3,0,75s54.3,20.7,75,0c0,0,0,0,0,0C294.3,252.9,294.3,219.4,273.6,198.7z"/>
</svg>
