<svg width="14" height="13" viewBox="0 0 14 13" fill="none" xmlns="http://www.w3.org/2000/svg">
<path fill-rule="evenodd" clip-rule="evenodd" d="M13.0734 7.42822H9.1617V5.57116H13.0734C13.3191 5.57116 13.5548 5.66899 13.7285 5.84312C13.9023 6.01726 13.9999 6.25343 13.9999 6.49969C13.9999 6.74595 13.9023 6.98213 13.7285 7.15626C13.5548 7.33039 13.3191 7.42822 13.0734 7.42822ZM13.0734 1.85705H9.1617V0H13.0734C13.3192 0 13.5548 0.0978397 13.7286 0.271992C13.9024 0.446144 14 0.68234 14 0.928628C14 1.17492 13.9024 1.41112 13.7286 1.58527C13.5548 1.75942 13.3192 1.85726 13.0734 1.85726V1.85705ZM4.8382 12.9994H0.926464C0.68075 12.9994 0.4451 12.9016 0.271354 12.7274C0.0976086 12.5533 0 12.3171 0 12.0709C0 11.8246 0.0976086 11.5884 0.271354 11.4143C0.4451 11.2402 0.68075 11.1423 0.926464 11.1423H4.8382C5.08398 11.1423 5.3197 11.2402 5.49349 11.4144C5.66728 11.5885 5.76492 11.8248 5.76492 12.0711C5.76492 12.3174 5.66728 12.5537 5.49349 12.7279C5.3197 12.902 5.08398 12.9999 4.8382 12.9999V12.9994ZM4.8382 7.42822H0.926464C0.68075 7.42822 0.4451 7.33039 0.271354 7.15626C0.0976086 6.98213 0 6.74595 0 6.49969C0 6.25343 0.0976086 6.01726 0.271354 5.84312C0.4451 5.66899 0.68075 5.57116 0.926464 5.57116H4.8382C5.08391 5.57116 5.31956 5.66899 5.49331 5.84312C5.66705 6.01726 5.76466 6.25343 5.76466 6.49969C5.76466 6.74595 5.66705 6.98213 5.49331 7.15626C5.31956 7.33039 5.08391 7.42822 4.8382 7.42822ZM4.8382 1.85705H0.926464C0.68075 1.85705 0.4451 1.75923 0.271354 1.58509C0.0976086 1.41096 0 1.17479 0 0.928527C0 0.682267 0.0976086 0.446093 0.271354 0.27196C0.4451 0.0978276 0.68075 0 0.926464 0H4.8382C5.08394 0 5.31961 0.0978397 5.49338 0.271992C5.66714 0.446144 5.76477 0.68234 5.76477 0.928628C5.76477 1.17492 5.66714 1.41112 5.49338 1.58527C5.31961 1.75942 5.08394 1.85726 4.8382 1.85726V1.85705ZM13.9999 12.0709C13.9999 12.3172 13.9023 12.5534 13.7286 12.7276C13.5549 12.9019 13.3192 12.9998 13.0734 13H9.1617V11.1429H13.0734C13.319 11.1429 13.5546 11.2407 13.7283 11.4147C13.902 11.5886 13.9997 11.8247 13.9999 12.0709Z" fill="white"/>
</svg>
