<?xml version="1.0" encoding="utf-8"?>
<!-- Generator: Adobe Illustrator 26.0.1, SVG Export Plug-In . SVG Version: 6.00 Build 0)  -->
<svg version="1.1" id="Слой_1" xmlns="http://www.w3.org/2000/svg" xmlns:xlink="http://www.w3.org/1999/xlink" x="0px" y="0px"
	 viewBox="0 0 500 500" style="enable-background:new 0 0 500 500;" xml:space="preserve">
<style type="text/css">
	.st0{fill-rule:evenodd;clip-rule:evenodd;fill:#000000;}
</style>
<path id="Прямоугольник_8_копия_3" class="st0" d="M305,258H196c-4.4,0-8-3.6-8-8s3.6-8,8-8h109c4.4,0,8,3.6,8,8
	S309.4,258,305,258z M305,204H196c-4.4,0-8-3.6-8-8s3.6-8,8-8h109c4.4,0,8,3.6,8,8S309.4,204,305,204z M196,296h109c4.4,0,8,3.6,8,8
	s-3.6,8-8,8H196c-4.4,0-8-3.6-8-8S191.6,296,196,296z"/>
</svg>
