<svg width="35" height="35" viewBox="0 0 35 35" fill="none" xmlns="http://www.w3.org/2000/svg">
<path fill-rule="evenodd" clip-rule="evenodd" d="M22.0569 32.1068C16.0142 32.1068 11.1139 27.2171 11.1139 21.1637C11.1139 15.121 16.0036 10.2206 22.0569 10.2206C22.879 10.2206 23.7117 10.3167 24.5125 10.4982C22.0249 12.847 21.9182 16.7651 24.2669 19.2527C26.573 21.6868 30.395 21.847 32.8932 19.6157C32.968 20.1281 33 20.6512 33 21.1637C33 27.2064 28.0996 32.1068 22.0569 32.1068ZM28.7295 22.8185C24.427 22.8185 20.9359 19.3274 20.9359 15.0249C20.9359 13.9253 21.1708 12.8363 21.6192 11.8327C16.4626 12.0676 12.4804 16.4448 12.726 21.6014C12.9715 26.758 17.3381 30.7402 22.4947 30.4947C27.0107 30.2811 30.7367 26.8648 31.3238 22.3701C30.4911 22.669 29.6157 22.8185 28.7295 22.8185ZM13.2491 9.68683L12.395 6.69751L9.40569 5.84342L12.395 4.98932L13.2491 2L14.1032 4.98932L17.0925 5.84342L14.1032 6.69751L13.2491 9.68683ZM7.69751 14.3843L6.84342 17.3737L5.98932 14.3843L3 13.5302L5.98932 12.6762L6.84342 9.68683L7.69751 12.6762L10.6868 13.5302L7.69751 14.3843Z" fill="black"/>
</svg>
