<svg width="145" height="145" viewBox="0 0 145 145" fill="none" xmlns="http://www.w3.org/2000/svg">
<path fill-rule="evenodd" clip-rule="evenodd" d="M110.059 101.78C109.937 102.511 109.328 102.998 108.72 103.241C108.598 103.241 108.476 103.363 108.354 103.363C108.233 103.363 108.111 103.485 107.989 103.485H38.472C38.3503 103.485 38.3503 103.363 38.2285 103.363C37.3763 103.241 36.7676 102.632 36.5241 101.78C36.5241 101.659 36.4023 101.659 36.4023 101.537V100.685C36.5241 100.563 36.5241 100.441 36.6458 100.319C37.0111 99.3453 37.8633 98.8583 38.8373 98.8583H41.2722C41.3939 98.8583 41.5157 98.8583 41.6374 98.8583V98.3714C41.6374 81.3269 41.6374 64.2824 41.6374 47.1161C41.6374 46.6291 41.6374 46.1421 41.7592 45.6552C42.1244 42.855 44.0724 40.4201 46.8725 39.6896C47.9683 39.3243 49.064 38.9591 50.1597 38.7156L78.1614 30.3151C78.7701 30.0716 79.3788 29.9499 79.9876 29.8281H80.3528C80.4746 29.8281 80.4745 29.8281 80.5963 29.8281C81.4485 29.9499 82.0573 30.5586 82.3007 31.4108C82.4225 31.7761 82.4225 32.0196 82.4225 32.3848C82.4225 34.0893 82.4225 35.672 82.4225 37.3764V37.7416C82.5442 37.7416 82.666 37.8634 82.7877 37.8634L99.1018 43.342C100.928 43.9507 102.389 45.1682 103.363 46.8726C103.972 48.0901 104.337 49.4293 104.337 50.7685C104.337 66.7173 104.337 82.5443 104.337 98.4931C104.337 98.6149 104.337 98.7366 104.337 98.7366C104.337 98.8584 104.337 98.8584 104.337 98.9801H107.137C107.381 98.9801 107.624 98.9801 107.746 98.9801C108.72 98.9801 109.45 99.4671 109.815 100.319C109.815 100.441 109.937 100.563 109.937 100.685L110.059 101.78C110.059 101.659 110.059 101.659 110.059 101.78ZM77.7961 35.0632C77.6744 35.0632 77.5526 35.0632 77.5526 35.185L53.8121 42.368L48.2117 44.0725C47.3595 44.316 46.629 45.0464 46.2638 45.8987C46.1421 46.2639 46.0203 46.7509 46.1421 47.1161V98.4931C46.1421 98.6149 46.1421 98.6149 46.1421 98.7366C46.1421 98.8584 46.1421 98.8584 46.1421 98.9801H77.9179C77.9179 98.2496 77.9179 35.3067 77.7961 35.0632ZM99.7105 50.038C99.467 48.8206 98.6148 47.7249 97.3973 47.3596C96.4233 46.9944 95.4494 46.7509 94.4754 46.3856L82.7877 42.6115C82.666 42.6115 82.5442 42.4898 82.4225 42.4898C82.3007 42.9767 82.4225 98.6149 82.4225 98.8583H99.5887V98.4931C99.5887 96.0582 99.5887 93.6233 99.5887 91.1883C99.5887 77.6745 99.5887 64.1606 99.5887 50.6468C99.7105 50.4033 99.7105 50.2815 99.7105 50.038ZM92.6492 63.4301C91.5535 63.4301 90.4578 63.4301 89.4838 63.4301C89.362 63.4301 89.362 63.4301 89.2403 63.4301C89.1186 63.4301 88.8751 63.3084 88.8751 63.0649C88.8751 62.9432 88.8751 62.8214 88.8751 62.8214C88.8751 61.7257 88.8751 60.7517 88.8751 59.656V59.5343C88.8751 59.2908 89.1185 59.0473 89.362 59.0473C89.4838 59.0473 89.4838 59.0473 89.6055 59.0473H92.7709C93.0144 59.0473 93.3797 59.169 93.3797 59.4125C93.3797 59.5343 93.3797 59.5343 93.3797 59.656C93.3797 60.2647 93.3797 60.7517 93.3797 61.3605C93.3797 61.8474 93.3797 62.4562 93.3797 62.9432C93.5014 63.1866 93.2579 63.5519 93.0144 63.5519C92.8927 63.4301 92.7709 63.4301 92.6492 63.4301ZM93.2579 55.7601C93.2579 55.8819 93.1362 56.1254 92.8927 56.1254C92.7709 56.1254 92.6492 56.1254 92.5274 56.1254C91.4317 56.1254 90.4578 56.1254 89.362 56.1254H89.2403C88.9968 56.1254 88.7533 56.0036 88.6316 55.6384V55.5166C88.6316 55.0296 88.6316 54.4209 88.6316 53.9339C88.6316 53.4469 88.6316 52.8382 88.6316 52.2295C88.5098 51.986 88.7533 51.6207 88.9968 51.6207C89.1185 51.6207 89.1186 51.6207 89.2403 51.6207C90.336 51.6207 91.4317 51.6207 92.4057 51.6207H92.5274C92.7709 51.6207 93.0144 51.8642 93.0144 52.1077C93.0144 52.1077 93.0144 52.1077 93.0144 52.2295C93.0144 52.7165 93.0144 53.0817 93.0144 53.5687V53.9339C93.0144 54.4209 93.0144 55.0296 93.0144 55.5166C93.3797 55.5166 93.3797 55.6384 93.2579 55.7601ZM89.362 66.1086C89.4838 66.1086 89.4838 66.1086 89.6055 66.1086H92.6492C92.7709 66.1086 92.7709 66.1086 92.7709 66.1086C93.0144 66.1086 93.2579 66.2303 93.2579 66.5955V66.7173C93.2579 67.326 93.2579 67.813 93.2579 68.4217C93.2579 68.9087 93.2579 69.5175 93.2579 70.0044C93.2579 70.1262 93.2579 70.2479 93.2579 70.2479C93.2579 70.3697 93.1362 70.6132 92.8927 70.6132C92.7709 70.6132 92.6492 70.6132 92.5274 70.6132C91.4317 70.6132 90.4578 70.6132 89.362 70.6132H89.2403C88.9968 70.6132 88.7533 70.4914 88.7533 70.1262V70.0044C88.7533 70.0044 88.7533 69.8827 88.7533 69.761C88.7533 68.787 88.7533 67.6913 88.7533 66.7173V66.5955C88.7533 66.3521 88.9968 66.2303 89.362 66.1086ZM89.4838 73.4133C90.0925 73.4133 90.5795 73.4133 91.1882 73.4133C91.6752 73.4133 92.1622 73.4133 92.7709 73.4133C92.8927 73.4133 93.0144 73.4133 93.1362 73.4133C93.2579 73.4133 93.5014 73.5351 93.5014 73.7786C93.5014 73.9003 93.5014 74.0221 93.5014 74.0221C93.5014 75.1178 93.5014 76.0918 93.5014 77.1875C93.5014 77.1875 93.5014 77.1875 93.5014 77.3092C93.5014 77.5527 93.3797 77.7962 93.1362 77.918H93.0144C92.7709 77.918 92.4057 77.918 92.1622 77.918H89.849C89.7273 77.918 89.7273 77.918 89.7273 77.918C89.4838 77.918 89.2403 77.7962 89.1185 77.5527V77.431C89.1185 76.7005 89.1185 75.97 89.1185 75.3613C89.1185 74.9961 89.1185 74.6308 89.1185 74.1438C89.1185 73.9003 89.2403 73.6568 89.4838 73.5351C89.2403 73.4133 89.362 73.4133 89.4838 73.4133ZM93.0144 85.2228C92.8927 85.2228 92.7709 85.2228 92.6492 85.2228C91.5535 85.2228 90.4578 85.2228 89.4838 85.2228C89.2403 85.2228 88.8751 85.101 88.8751 84.8575C88.8751 84.7358 88.8751 84.7358 88.8751 84.614C88.8751 83.5183 88.8751 82.4226 88.8751 81.3269C88.8751 81.0834 88.9968 80.8399 89.2403 80.7181C89.362 80.7181 89.362 80.7181 89.4838 80.7181C90.5795 80.7181 91.6752 80.7181 92.7709 80.7181C93.0144 80.7181 93.2579 80.8399 93.3797 81.0834C93.3797 81.2051 93.3797 81.2051 93.3797 81.3269C93.3797 81.9356 93.3797 82.4226 93.3797 83.0313C93.3797 83.5183 93.3797 84.127 93.3797 84.614C93.3797 84.7358 93.3797 84.8575 93.3797 84.8575C93.2579 84.9793 93.1362 85.101 93.0144 85.2228ZM88.8751 88.3882C88.8751 88.1447 89.1186 88.0229 89.2403 88.0229C89.362 88.0229 89.4838 88.0229 89.4838 88.0229C90.4578 88.0229 91.5535 88.0229 92.5274 88.0229C92.6492 88.0229 92.6492 88.0229 92.6492 88.0229C92.8927 88.0229 93.1362 88.1447 93.1362 88.3882V88.5099C93.1362 89.1186 93.1362 89.6056 93.1362 90.2144C93.1362 90.7013 93.1362 91.3101 93.1362 91.7971C93.2579 92.0406 93.0144 92.4058 92.7709 92.4058C92.6492 92.4058 92.6492 92.4058 92.5274 92.4058C91.4317 92.4058 90.336 92.4058 89.362 92.4058C89.2403 92.5275 88.8751 92.4058 88.8751 92.0406C88.8751 91.9188 88.8751 91.9188 88.8751 91.7971C88.8751 90.7013 88.8751 89.7274 88.8751 88.6317C88.8751 88.5099 88.8751 88.3882 88.8751 88.3882ZM71.4653 77.5527C71.4653 77.6745 71.3436 77.7962 71.2218 77.918C71.1001 77.918 70.9783 77.918 70.8566 77.918C69.7609 77.918 68.7869 77.918 67.6912 77.918C67.5694 77.918 67.5694 77.918 67.4477 77.918C67.2042 77.918 67.0824 77.6745 67.0824 77.5527V77.431C67.0824 76.3353 67.0824 75.2395 67.0824 74.1438C67.0824 74.0221 67.0824 74.0221 67.0824 73.9003C67.0824 73.6568 67.3259 73.5351 67.4477 73.5351C67.5694 73.5351 67.6912 73.5351 67.6912 73.5351H70.8566H70.9783C71.2218 73.5351 71.4653 73.6568 71.4653 73.9003V74.0221C71.4653 74.6308 71.4653 75.1178 71.4653 75.7265C71.4653 76.2135 71.4653 76.7005 71.4653 77.3092C71.4653 77.3092 71.4653 77.431 71.4653 77.5527ZM71.4653 70.3697C71.4653 70.4914 71.3436 70.6132 71.2218 70.6132C71.1001 70.6132 70.9783 70.6132 70.8566 70.6132C69.7609 70.6132 68.7869 70.6132 67.6912 70.6132H67.5694C67.3259 70.6132 67.0824 70.4914 66.9607 70.1262V70.0044C66.9607 69.5175 66.9607 68.9087 66.9607 68.4217C66.9607 67.813 66.9607 67.326 66.9607 66.7173C66.839 66.4738 67.0824 66.1086 67.3259 66.1086C67.4477 66.1086 67.4477 66.1086 67.5694 66.1086C68.6651 66.1086 69.7609 66.1086 70.8566 66.1086H70.9783C71.2218 66.1086 71.4653 66.3521 71.4653 66.5955C71.4653 66.9608 71.4653 67.2043 71.4653 67.5695C71.4653 67.813 71.4653 68.0565 71.4653 68.3C71.4653 68.787 71.4653 69.3957 71.4653 69.8827C71.4653 70.1262 71.4653 70.2479 71.4653 70.3697ZM71.4653 62.9432C71.4653 63.0649 71.3436 63.3084 71.1001 63.3084C70.9783 63.3084 70.8566 63.3084 70.7348 63.3084C69.6391 63.3084 68.6651 63.3084 67.5694 63.3084C67.4477 63.3084 67.4477 63.3084 67.3259 63.3084C67.0824 63.3084 66.9607 63.0649 66.9607 62.8214C66.9607 62.6997 66.9607 62.6997 66.9607 62.5779C66.9607 61.4822 66.9607 60.5082 66.9607 59.4125C66.9607 59.2908 66.9607 59.2908 66.9607 59.169C66.9607 58.9255 67.2042 58.682 67.4477 58.682C67.5694 58.682 67.5694 58.682 67.6912 58.682H70.7348H70.8566C71.1001 58.682 71.3436 58.8038 71.3436 59.169V59.2908C71.3436 59.8995 71.3436 60.3865 71.3436 60.9952C71.3436 61.4822 71.3436 62.0909 71.3436 62.5779C71.4653 62.8214 71.4653 62.9432 71.4653 62.9432ZM71.1001 56.1254C70.9783 56.1254 70.8566 56.1254 70.7348 56.1254H67.6912C67.0824 56.1254 66.9607 56.0036 66.9607 55.3949C66.9607 54.9079 66.9607 54.4209 66.9607 53.8122C66.9607 53.3252 66.9607 52.7165 66.9607 52.2295C66.839 51.986 67.0824 51.6207 67.3259 51.6207C67.4477 51.6207 67.4477 51.6207 67.5694 51.6207C68.6651 51.6207 69.7609 51.6207 70.7348 51.6207C70.9783 51.499 71.3436 51.7425 71.3436 51.986C71.3436 52.1077 71.3436 52.1077 71.3436 52.2295C71.3436 53.3252 71.3436 54.4209 71.3436 55.5166C71.3436 55.6384 71.3436 55.6384 71.3436 55.7601C71.4653 55.8819 71.3436 56.1254 71.1001 56.1254ZM63.5518 70.6132C62.5778 70.6132 61.4821 70.6132 60.5081 70.6132H60.3864C60.1429 70.6132 59.8994 70.4914 59.8994 70.1262V70.0044C59.8994 68.9087 59.8994 67.813 59.8994 66.7173C59.8994 66.4738 60.0212 66.2303 60.2646 66.1086C60.3864 66.1086 60.3864 66.1086 60.5081 66.1086C61.1169 66.1086 61.6039 66.1086 62.2126 66.1086C62.6996 66.1086 63.1866 66.1086 63.6735 66.1086C63.7953 66.1086 63.7953 66.1086 63.917 66.1086C64.1605 66.1086 64.404 66.3521 64.404 66.5955C64.404 66.7173 64.404 66.7173 64.404 66.839C64.404 67.813 64.404 68.9087 64.404 69.8827C64.2823 70.4914 64.1605 70.6132 63.5518 70.6132ZM60.3864 58.8038C61.4821 58.8038 62.4561 58.8038 63.5518 58.8038C63.6735 58.8038 63.7953 58.8038 63.7953 58.8038C64.0388 58.8038 64.1605 59.0473 64.1605 59.169C64.1605 59.2908 64.1605 59.2908 64.1605 59.4125C64.1605 60.5082 64.1605 61.4822 64.1605 62.5779C64.1605 62.6997 64.1605 62.6997 64.1605 62.8214C64.1605 63.0649 64.0388 63.1866 63.7953 63.1866C63.6735 63.1866 63.5518 63.1866 63.4301 63.1866C62.4561 63.1866 61.3604 63.1866 60.3864 63.1866C60.3864 63.1866 60.3864 63.1866 60.2646 63.1866C60.0212 63.3084 59.6559 63.0649 59.6559 62.8214C59.6559 62.6997 59.6559 62.6997 59.6559 62.5779C59.6559 62.0909 59.6559 61.4822 59.6559 60.9952C59.6559 60.5082 59.6559 59.8995 59.6559 59.4125C59.5342 59.169 59.7777 58.8038 60.0212 58.8038C60.2646 58.8038 60.2646 58.8038 60.3864 58.8038ZM63.6735 56.1254C62.5778 56.1254 61.4821 56.1254 60.3864 56.1254C60.1429 56.2471 59.7777 56.0036 59.7777 55.7601C59.7777 55.6384 59.7777 55.6384 59.7777 55.5166C59.7777 54.4209 59.7777 53.3252 59.7777 52.2295C59.7777 52.1077 59.7777 51.986 59.7777 51.986C59.7777 51.8642 59.8994 51.7425 60.0212 51.7425C60.1429 51.7425 60.2646 51.7425 60.3864 51.7425C61.4821 51.7425 62.4561 51.7425 63.5518 51.7425H63.6735C63.917 51.7425 64.1605 51.8642 64.2823 52.2295V52.3512C64.2823 52.8382 64.2823 53.2034 64.2823 53.6904V54.0557C64.2823 54.5427 64.2823 55.1514 64.2823 55.6384C64.2823 55.8819 64.1605 56.1254 63.917 56.2471C63.7953 56.1254 63.6735 56.1254 63.6735 56.1254ZM56.9775 62.9432C56.9775 63.1866 56.8557 63.3084 56.6123 63.3084C56.4905 63.3084 56.3688 63.3084 56.247 63.3084C55.273 63.3084 54.1773 63.3084 53.2034 63.3084C52.5946 63.3084 52.4729 63.1866 52.4729 62.5779C52.4729 61.6039 52.4729 60.5082 52.4729 59.5343C52.4729 59.4125 52.4729 59.2908 52.4729 59.2908C52.4729 59.0473 52.5946 58.9255 52.8381 58.9255C52.9599 58.9255 53.0816 58.9255 53.0816 58.9255H56.247H56.3688C56.6123 58.9255 56.8557 59.0473 56.9775 59.2908V59.4125C56.9775 60.0212 56.9775 60.5082 56.9775 61.117C56.9775 61.6039 56.9775 62.0909 56.9775 62.6997C56.9775 62.8214 56.9775 62.8214 56.9775 62.9432ZM56.3688 56.1254C56.247 56.1254 56.247 56.1254 56.1253 56.1254H53.0816H52.9599C52.7164 56.1254 52.4729 56.0036 52.3511 55.7601C52.3511 55.6384 52.3511 55.6384 52.3511 55.5166C52.3511 54.9079 52.3511 54.4209 52.3511 53.8122C52.3511 53.3252 52.3511 52.8382 52.3511 52.2295C52.3511 52.1077 52.3511 51.986 52.3511 51.986C52.3511 51.7425 52.4729 51.6207 52.7164 51.6207C52.8381 51.6207 52.9599 51.6207 53.0816 51.6207C54.0556 51.6207 55.1513 51.6207 56.1253 51.6207H56.247C56.4905 51.6207 56.734 51.7425 56.8557 52.1077V52.2295C56.8557 53.3252 56.8557 54.5427 56.8557 55.6384C56.9775 55.8819 56.734 56.0036 56.3688 56.1254C56.4905 56.1254 56.4905 56.1254 56.3688 56.1254ZM56.3688 70.6132C55.273 70.6132 54.1773 70.6132 53.0816 70.6132C52.8381 70.6132 52.4729 70.4914 52.4729 70.2479C52.4729 70.1262 52.4729 70.1262 52.4729 70.0044C52.4729 68.9087 52.4729 67.813 52.4729 66.7173C52.3511 66.4738 52.5946 66.1086 52.8381 66.1086C52.9599 66.1086 52.9599 66.1086 53.0816 66.1086C54.1773 66.1086 55.273 66.1086 56.3688 66.1086C56.6123 66.1086 56.9775 66.2303 56.9775 66.4738C56.9775 66.5955 56.9775 66.5955 56.9775 66.7173C56.9775 67.2043 56.9775 67.813 56.9775 68.3C56.9775 68.787 56.9775 69.3957 56.9775 69.8827C57.0992 70.1262 56.8557 70.4914 56.6123 70.4914C56.4905 70.6132 56.3688 70.6132 56.3688 70.6132ZM52.9599 73.4133C54.0556 73.4133 55.273 73.4133 56.3688 73.4133C56.6123 73.4133 56.8557 73.5351 56.9775 73.7786V73.9003C56.9775 74.9961 56.9775 76.0918 56.9775 77.3092C56.9775 77.5527 56.8557 77.7962 56.6123 77.918C56.4905 77.918 56.4905 77.918 56.3688 77.918C55.3948 77.918 54.5426 77.918 53.5686 77.918C53.3251 77.918 53.2034 77.918 52.9599 77.918C52.7164 77.918 52.4729 77.7962 52.4729 77.5527V77.431C52.4729 76.8222 52.4729 76.3353 52.4729 75.7265C52.4729 75.1178 52.4729 74.6308 52.4729 74.0221C52.3511 73.7786 52.5946 73.5351 52.8381 73.4133H52.9599ZM53.0816 80.7181C54.1773 80.7181 55.273 80.7181 56.3688 80.7181C56.6123 80.7181 56.8557 80.8399 56.9775 81.0834C56.9775 81.2051 56.9775 81.2051 56.9775 81.3269C56.9775 82.4226 56.9775 83.5183 56.9775 84.614C57.0992 84.8575 56.8557 85.2228 56.6123 85.2228C56.4905 85.2228 56.4905 85.2228 56.3688 85.2228C55.273 85.2228 54.1773 85.2228 53.0816 85.2228C52.8381 85.2228 52.4729 85.101 52.4729 84.8575C52.4729 84.7358 52.4729 84.7358 52.4729 84.614C52.4729 84.127 52.4729 83.5183 52.4729 83.0313C52.4729 82.5443 52.4729 81.9356 52.4729 81.4486C52.3511 81.2051 52.5946 80.9616 52.8381 80.8399C52.9599 80.7181 52.9599 80.7181 53.0816 80.7181ZM52.4729 88.2664C52.5946 88.1447 52.8381 88.0229 52.9599 88.0229C53.4468 88.0229 53.9338 88.0229 54.2991 88.0229C54.9078 88.0229 55.5165 88.0229 56.1253 88.0229C56.247 88.0229 56.247 88.0229 56.3688 88.0229C56.6123 88.0229 56.8557 88.2664 56.8557 88.5099V88.6317C56.8557 89.7274 56.8557 90.7013 56.8557 91.7971C56.8557 91.9188 56.8557 91.9188 56.8557 92.0406C56.8557 92.284 56.6123 92.5275 56.3688 92.5275C56.247 92.5275 56.247 92.5275 56.1253 92.5275C55.1513 92.5275 54.0556 92.5275 53.0816 92.5275H52.9599C52.7164 92.5275 52.4729 92.4058 52.3511 92.0406V91.9188C52.3511 91.3101 52.3511 90.8231 52.3511 90.2144C52.3511 89.7274 52.3511 89.1186 52.3511 88.6317C52.4729 88.5099 52.4729 88.3882 52.4729 88.2664ZM63.5518 77.918C62.4561 77.918 61.3604 77.918 60.2646 77.918C60.0212 78.0397 59.6559 77.7962 59.6559 77.5527C59.6559 77.431 59.6559 77.431 59.6559 77.3092C59.6559 76.2135 59.6559 75.1178 59.6559 74.0221C59.5342 73.7786 59.7777 73.4133 60.0212 73.4133C60.1429 73.4133 60.1429 73.4133 60.2646 73.4133C61.3604 73.4133 62.4561 73.4133 63.5518 73.4133C63.7953 73.4133 64.0388 73.5351 64.1605 73.7786C64.1605 73.9003 64.1605 73.9003 64.1605 74.0221C64.1605 74.5091 64.1605 75.1178 64.1605 75.6048C64.1605 76.0918 64.1605 76.7005 64.1605 77.1875C64.2823 77.431 64.0388 77.7962 63.7953 77.7962C63.7953 77.918 63.6735 77.918 63.5518 77.918ZM60.3864 80.7181C61.4821 80.7181 62.5778 80.7181 63.6735 80.7181H63.7953C64.0388 80.7181 64.2823 80.8399 64.2823 81.0834C64.2823 81.0834 64.2823 81.0834 64.2823 81.2051C64.2823 81.4486 64.2823 81.5704 64.2823 81.8138V82.9096C64.2823 83.3966 64.2823 84.0053 64.2823 84.4923C64.2823 84.614 64.2823 84.7358 64.2823 84.7358C64.2823 84.8575 64.1605 85.101 63.917 85.101C63.7953 85.101 63.6735 85.101 63.5518 85.101C62.4561 85.101 61.4821 85.101 60.3864 85.101H60.2646C60.0212 85.101 59.7777 84.9793 59.6559 84.614V84.4923C59.6559 84.0053 59.6559 83.5183 59.6559 83.0313C59.6559 82.4226 59.6559 81.8138 59.6559 81.2051C59.5342 80.9616 59.7777 80.5964 60.0212 80.5964C60.1429 80.7181 60.2646 80.7181 60.3864 80.7181ZM60.3864 88.0229C61.4821 88.0229 62.4561 88.0229 63.5518 88.0229C63.6735 88.0229 63.6735 88.0229 63.7953 88.0229C64.0388 88.0229 64.2823 88.1447 64.2823 88.3882V88.5099C64.2823 88.8751 64.2823 89.2404 64.2823 89.7274V90.2144C64.2823 90.7013 64.2823 91.3101 64.2823 91.7971C64.2823 92.0406 64.1605 92.284 63.917 92.4058C63.7953 92.4058 63.7953 92.4058 63.6735 92.4058C62.5778 92.4058 61.4821 92.4058 60.3864 92.4058C60.1429 92.4058 59.8994 92.284 59.7777 92.0406C59.7777 91.9188 59.7777 91.9188 59.7777 91.7971C59.7777 90.7013 59.7777 89.6056 59.7777 88.5099C59.7777 88.2664 59.8994 88.0229 60.1429 87.9012C60.1429 88.0229 60.2646 88.0229 60.3864 88.0229ZM66.9607 81.0834C66.9607 80.8399 67.2042 80.7181 67.3259 80.7181C67.4477 80.7181 67.4477 80.7181 67.5694 80.7181H70.7348H70.8566C71.1001 80.7181 71.3436 80.8399 71.3436 81.0834V81.2051C71.3436 81.8138 71.3436 82.3008 71.3436 82.9096C71.3436 83.3966 71.3436 84.0053 71.3436 84.4923C71.3436 84.614 71.3436 84.7358 71.3436 84.7358C71.3436 84.8575 71.2218 84.9793 70.9783 85.101C70.8566 85.101 70.7348 85.101 70.7348 85.101C69.6391 85.101 68.5434 85.101 67.5694 85.101H67.4477C67.2042 85.101 66.9607 84.8575 66.9607 84.614C66.9607 84.3705 66.9607 84.2488 66.9607 84.0053C66.9607 83.1531 66.9607 82.1791 66.9607 81.3269C66.9607 81.3269 66.9607 81.2051 66.9607 81.0834ZM67.5694 88.0229C68.6651 88.0229 69.7609 88.0229 70.9783 88.0229C71.2218 88.0229 71.4653 88.1447 71.5871 88.3882C71.5871 88.5099 71.5871 88.5099 71.5871 88.6317C71.5871 89.2404 71.5871 89.7274 71.5871 90.3361C71.5871 90.9448 71.5871 91.4318 71.5871 91.9188C71.7088 92.1623 71.4653 92.4058 71.2218 92.5275C71.1001 92.5275 71.1001 92.5275 70.9783 92.5275C69.8826 92.5275 68.7869 92.5275 67.6912 92.5275C67.4477 92.5275 67.0824 92.4058 67.0824 92.1623C67.0824 92.0405 67.0824 92.0406 67.0824 91.9188C67.0824 90.8231 67.0824 89.7274 67.0824 88.6317C66.9607 88.3882 67.2042 88.1447 67.4477 88.0229H67.5694Z" fill="#FF161F"/>
</svg>
