<svg width="40" height="40" viewBox="0 0 40 40" fill="none" xmlns="http://www.w3.org/2000/svg">
<path fill-rule="evenodd" clip-rule="evenodd" d="M31.5178 23.1087C29.7814 25.1091 28.0291 27.0935 26.2847 29.0939C25.4125 30.0941 24.3003 30.5422 22.9881 30.5422C20.6036 30.5422 18.2191 30.5422 15.8266 30.5342C15.5866 30.5182 15.3545 30.6142 15.2025 30.7982C14.9465 31.0863 14.6584 31.3503 14.3863 31.6224C14.0583 31.9424 13.7782 31.9504 13.4502 31.6384C11.9058 30.1421 10.3695 28.6458 8.83323 27.1495C8.44115 26.7654 8.47316 26.5494 8.86524 26.1573C9.94545 25.1091 11.0097 24.0449 12.0739 22.9726C13.3621 21.6764 14.9224 21.0843 16.7388 21.2043C17.1869 21.2363 17.619 21.3883 18.0671 21.4683C18.6512 21.5724 19.2433 21.7164 19.8274 21.7404C21.0437 21.7804 22.2519 21.7404 23.4682 21.7564C24.6204 21.7644 25.4766 22.6046 25.4766 23.7008C25.4686 24.789 24.6124 25.6532 23.4842 25.6772C22.628 25.6932 21.7798 25.6852 20.9237 25.6852C20.8116 25.6852 20.6996 25.7012 20.5796 25.7092C20.5796 25.7492 20.5716 25.7892 20.5716 25.8212C20.6676 25.8452 20.7636 25.8532 20.8596 25.8612C21.7798 25.8612 22.7 25.8692 23.6202 25.8452C24.5644 25.8292 25.4366 25.1251 25.6126 24.1889C25.7006 23.7088 25.9327 23.2607 26.2767 22.9086C27.0209 22.1085 27.733 21.2763 28.4532 20.4601C29.1413 19.676 30.4776 19.572 31.2777 20.2441C32.1179 20.9482 32.2539 22.2685 31.5178 23.1087ZM30.6936 21.0123C30.2215 20.5962 29.5494 20.6682 29.0933 21.1803C28.3491 22.0285 27.589 22.8686 26.8448 23.7248C26.7088 23.8848 26.6208 24.0769 26.5728 24.2769C26.2607 25.5812 25.4926 26.5174 24.1723 26.7014C22.9321 26.8694 21.6518 26.7974 20.3875 26.7814C19.9715 26.7734 19.7074 26.4373 19.6114 26.0213C19.4434 25.3171 19.9154 24.741 20.6836 24.725C21.6038 24.709 22.524 24.725 23.4442 24.717C24.0683 24.709 24.5004 24.2849 24.5004 23.7008C24.5004 23.1167 24.0763 22.7166 23.4362 22.7166C22.2119 22.7086 20.9797 22.7486 19.7554 22.7006C19.0913 22.6686 18.4352 22.5566 17.803 22.3725C16.1947 21.9084 14.6664 22.0445 13.3861 23.1247C12.0979 24.2129 10.9377 25.4531 9.70541 26.6454L13.9142 30.7582C14.1303 30.5502 14.3383 30.3341 14.5304 30.1021C14.8664 29.67 15.2985 29.558 15.8266 29.566C18.1071 29.59 20.3875 29.542 22.668 29.59C23.9883 29.622 24.9965 29.1579 25.8446 28.1497C27.437 26.2693 29.0773 24.4289 30.7016 22.5726C31.1657 22.0605 31.1577 21.4283 30.6936 21.0123ZM28.0051 15.8352C27.613 15.8992 27.2369 16.2913 27.2369 16.6834C27.2369 16.7954 27.3409 16.9234 27.4129 17.0275C28.1811 18.1397 27.573 19.628 26.2207 19.908C25.7806 19.996 25.4205 19.82 25.0765 19.564C24.5084 19.1399 23.8842 19.4039 23.7642 20.1001C23.6042 21.0363 23.2041 21.3803 22.2519 21.3883C22.1319 21.3883 22.0119 21.3883 21.8918 21.3883C20.8836 21.3803 20.4996 21.0523 20.3315 20.0601C20.2275 19.4359 19.6034 19.1719 19.0913 19.524C18.2271 20.1161 17.739 20.0681 16.9869 19.3239C16.8988 19.2359 16.8188 19.1559 16.7308 19.0679C16.1387 18.4597 16.0747 17.8996 16.5708 17.2115C16.8028 16.8914 16.8908 16.6354 16.6988 16.2513C16.5628 15.9872 16.4268 15.8752 16.1547 15.8352C15.6586 15.7712 15.1465 15.6592 14.9465 15.1231C14.6904 14.4749 14.6904 13.7468 14.9545 13.0987C15.1545 12.5866 15.6426 12.4745 16.1307 12.3945C16.7388 12.2985 17.0109 11.6584 16.6588 11.1543C16.0667 10.3061 16.1147 9.79401 16.8588 9.04986C17.2189 8.68979 17.547 8.28971 18.1631 8.2337C18.4912 8.40173 18.8272 8.54576 19.1313 8.7378C19.5874 9.02586 20.2435 8.77781 20.3315 8.2497C20.5076 7.16148 20.8596 6.85742 21.9479 6.85742C22.0839 6.85742 22.2119 6.85742 22.3479 6.85742C23.1721 6.86542 23.6282 7.19349 23.7322 7.98565C23.7962 8.48175 24.0043 8.7618 24.4684 8.84982C24.6124 8.87383 24.7564 8.84982 24.8924 8.79381C25.1165 8.68179 25.3085 8.49775 25.5406 8.40973C26.3407 8.08967 26.8368 8.60177 27.3409 9.09787C27.781 9.53796 28.0051 10.0341 27.757 10.6502C27.701 10.8022 27.621 10.9382 27.509 11.0583C27.2369 11.3463 27.2289 11.6184 27.4049 11.9864C27.533 12.2585 27.669 12.3625 27.9491 12.4025C28.9973 12.5626 29.3093 12.9386 29.3093 14.0029V14.2829C29.2933 15.2751 28.9733 15.6672 28.0051 15.8352ZM27.653 13.3227C27.0449 13.2587 26.7888 12.9706 26.5168 12.4185C26.1407 11.6504 26.1727 11.0743 26.7408 10.4821C26.8288 10.3861 26.9088 10.1541 26.8608 10.0981C26.6288 9.81001 26.3807 9.51395 26.0687 9.32992C25.9567 9.2659 25.6286 9.44994 25.4606 9.58597C24.9965 9.97805 24.5484 10.0901 24.0203 9.71399C23.9082 9.63398 23.7882 9.58597 23.6522 9.56196C23.1481 9.47395 22.9561 9.15388 22.884 8.68179C22.74 7.7296 22.844 7.84162 21.8838 7.81761C21.4918 7.80961 21.2757 7.91363 21.2597 8.33772C21.2277 9.01785 20.9877 9.55396 20.2115 9.65798C20.1235 9.68199 20.0355 9.72199 19.9555 9.77801C19.5314 10.0581 19.1553 9.97805 18.7552 9.68199C17.9951 9.11387 18.1551 9.14588 17.467 9.78601C17.1709 10.0581 17.1069 10.2981 17.3949 10.5862C17.907 11.1143 18.0271 11.6664 17.571 12.2905C17.515 12.3705 17.483 12.4585 17.475 12.5466C17.3949 13.0267 17.0829 13.2187 16.6188 13.2907C15.6426 13.4427 15.7546 13.3067 15.7306 14.3069C15.7226 14.683 15.8346 14.875 16.2347 14.907C16.8428 14.963 17.2829 15.1311 17.571 15.8432C17.891 16.6274 17.899 17.1875 17.3309 17.7796C17.1149 18.0037 17.1709 18.2037 17.3949 18.3877C17.491 18.4597 17.563 18.5558 17.651 18.6438C18.0751 19.0679 18.0991 19.0999 18.5632 18.7078C19.0753 18.2757 19.5234 18.2997 20.1555 18.5318C20.9397 18.8198 21.2517 19.2679 21.2837 20.0361C21.2917 20.1561 21.3797 20.3641 21.4518 20.3641C21.8278 20.4041 22.2279 20.4441 22.596 20.3721C22.716 20.3481 22.828 20.0041 22.844 19.804C22.884 19.1719 23.1081 18.7318 23.7882 18.6278C23.9162 18.5958 24.0443 18.5398 24.1483 18.4597C24.5484 18.1957 24.9004 18.2597 25.2845 18.5398C26.0847 19.1239 25.9086 19.1799 26.7248 18.3717C26.9168 18.1797 26.9569 17.9716 26.7648 17.7796C26.1727 17.1795 26.1407 16.5874 26.5168 15.8112C26.7728 15.2751 27.0369 14.995 27.621 14.923C28.3251 14.843 28.3251 14.811 28.3251 14.1069C28.3411 13.4347 28.3411 13.3947 27.653 13.3227ZM22.0119 17.5076C20.1395 17.4595 18.6272 15.9152 18.6592 14.0829C18.6912 12.2185 20.2435 10.7062 22.0839 10.7382C23.9403 10.7622 25.4686 12.3305 25.4286 14.1629C25.3965 16.0113 23.8282 17.5476 22.0119 17.5076ZM22.0919 11.6984C20.7556 11.6744 19.6434 12.7386 19.6194 14.0749C19.5954 15.4111 20.6596 16.5234 21.9959 16.5474C22.0119 16.5474 22.0279 16.5474 22.0439 16.5474C23.3561 16.5634 24.4604 15.4671 24.4764 14.1469C24.4844 12.8106 23.4202 11.7224 22.0919 11.6984ZM22.0359 16.1553C20.9317 16.1473 19.9955 15.1871 20.0115 14.0909C20.0355 12.9946 20.9637 12.0825 22.0519 12.0905C23.1561 12.0985 24.0923 13.0507 24.0683 14.1469C24.0523 15.2431 23.1241 16.1553 22.0359 16.1553ZM22.0519 13.0507C21.4598 13.0507 20.9877 13.5228 20.9797 14.1149C20.9797 14.707 21.4518 15.1871 22.0439 15.1871C22.636 15.1871 23.1161 14.715 23.1161 14.1229C23.1161 13.5388 22.644 13.0587 22.0519 13.0507Z" fill="black"/>
</svg>
