<svg width="145" height="145" viewBox="0 0 145 145" fill="none" xmlns="http://www.w3.org/2000/svg">
<path fill-rule="evenodd" clip-rule="evenodd" d="M111.276 86.9268C111.276 87.0485 111.276 87.292 111.276 87.4138C110.91 89.3617 109.693 90.9444 107.988 91.7966C105.432 93.1358 102.875 94.3533 100.197 95.3273C95.205 97.1535 90.0917 98.4927 84.8566 99.3449C82.6651 99.7102 80.4737 99.9536 78.1605 100.075C76.6996 100.197 75.2386 100.197 73.7776 100.319C73.6559 100.319 73.4124 100.319 73.2907 100.319H68.9078C68.786 100.319 68.6643 100.319 68.5426 100.319C67.0816 100.197 65.6206 100.075 64.2814 99.9536C62.2117 99.8319 60.142 99.4667 58.1941 99.1014C54.2982 98.3709 50.4023 97.397 46.6282 96.0578C43.0975 94.8403 39.6886 93.3793 36.5232 91.6749C33.6013 90.0922 32.5056 86.4398 33.9666 83.5179C34.0883 83.1526 34.3318 82.9091 34.5753 82.6657C34.8188 82.3004 34.9405 81.9352 34.9405 81.5699C35.0623 79.2568 35.3058 76.9436 35.7928 74.6304C36.8885 69.517 39.0799 64.6472 42.1236 60.5078C43.5845 58.4381 45.289 56.6119 47.2369 54.9075C48.0892 54.0552 48.9414 53.3248 49.9153 52.5943C51.6198 51.3768 53.3242 50.2811 55.1504 49.3071C55.3939 49.1854 55.6374 48.9419 55.7592 48.6984C56.0027 47.9679 56.3679 47.3592 56.7331 46.6287C57.5854 44.9243 58.8028 43.3416 60.2638 42.0023C61.9682 40.4196 63.9162 39.2022 65.9859 38.35C67.5686 37.7412 69.1513 37.376 70.8557 37.1325C71.221 37.1325 71.5862 37.0107 71.8297 37.0107H72.9254C73.0472 37.0107 73.1689 37.0107 73.1689 37.0107C74.9951 37.1325 76.8213 37.4977 78.6475 38.1065C80.9607 38.9587 83.0304 40.1762 84.7348 41.8806C86.6828 43.7068 88.1437 45.8982 89.1177 48.3332C89.2394 48.5767 89.4829 48.8201 89.7264 49.0636C90.4569 49.5506 91.3091 49.9159 92.0396 50.4029C95.205 52.3508 98.1269 54.7857 100.562 57.4641C102.632 59.7773 104.336 62.334 105.797 65.1342C108.475 70.2475 109.815 75.8479 109.936 81.4482C109.936 81.6917 110.058 82.0569 110.18 82.3004C111.032 83.2744 111.397 84.4919 111.519 85.7093C111.519 85.8311 111.519 85.9528 111.519 85.9528V86.1963C111.276 86.6833 111.276 86.805 111.276 86.9268ZM72.1949 41.5154C64.7684 41.5154 58.6811 47.4809 58.6811 55.0292C58.6811 62.4557 64.6467 68.5431 72.1949 68.5431C79.6215 68.5431 85.7088 62.5775 85.7088 55.0292C85.7088 47.6027 79.7432 41.5154 72.1949 41.5154ZM103.849 72.6824C103.119 70.2475 102.023 67.9343 100.684 65.6212C99.3444 63.4297 97.7617 61.36 96.0572 59.5338C94.2311 57.7076 92.2831 56.1249 90.0917 54.664C90.0917 54.7857 90.0917 54.7857 90.0917 54.9075C90.0917 56.0032 89.9699 57.0989 89.7264 58.1946C89.3612 59.8991 88.8742 61.4818 88.022 63.0645C87.048 64.8907 85.7088 66.5951 84.2478 67.9343C82.7869 69.2735 81.0824 70.3693 79.2562 71.2215C77.1865 72.0737 74.9951 72.5607 72.8037 72.6824C70.4905 72.8042 68.0556 72.439 65.8641 71.5867C63.1857 70.491 60.629 68.7866 58.8028 66.5951C56.9766 64.5254 55.6374 62.0905 55.0287 59.5338C54.6635 58.0729 54.42 56.6119 54.42 55.0292C54.42 54.7857 54.42 54.664 54.42 54.5422C54.2982 54.5422 54.2982 54.664 54.2982 54.664C51.8633 56.3684 49.5501 58.3164 47.6022 60.5078C44.6802 63.795 42.4888 67.5691 41.1496 71.7085C40.4191 73.7782 39.9321 75.9696 39.6886 78.0393C39.5669 78.648 39.5669 79.3785 39.4452 79.9872H39.5669C40.1756 80.109 40.7844 80.2307 41.3931 80.3525C43.7063 80.7177 46.0195 81.2047 48.3326 81.5699C49.7936 81.8134 51.3763 82.0569 52.8373 82.3004C54.2982 82.5439 55.6374 82.6657 57.0984 82.9091C58.4376 83.0309 59.7768 83.2744 61.116 83.3961C62.577 83.5179 64.0379 83.6396 65.4989 83.7614C67.3251 83.8831 69.1513 84.0049 70.9775 84.0049C73.0472 84.0049 75.2386 84.0049 77.3083 83.8831C78.2823 83.8831 79.2562 83.7614 80.2302 83.6396C81.5694 83.5179 82.9086 83.3961 84.2478 83.2744C85.7088 83.1526 87.1698 82.9091 88.6307 82.7874C90.2134 82.5439 91.6744 82.4222 93.2571 82.1787C94.9615 81.9352 96.7877 81.6917 98.4922 81.3264C100.318 80.9612 102.266 80.7177 104.093 80.3525L105.553 80.109C105.066 77.6741 104.58 75.2391 103.849 72.6824ZM105.066 84.7353C104.945 84.7353 104.945 84.7353 104.823 84.7353C104.214 84.8571 103.484 84.9788 102.875 85.1006C101.292 85.3441 99.7096 85.7093 98.0052 85.9528C96.5442 86.1963 95.0833 86.4398 93.6223 86.5615C92.2831 86.805 90.8222 86.9268 89.4829 87.1703C88.2655 87.292 87.1698 87.5355 85.9523 87.6573C84.8566 87.779 83.6391 87.9008 82.5434 88.0225C81.4477 88.1442 80.2302 88.266 79.1345 88.266C77.3083 88.3877 75.4821 88.5095 73.6559 88.5095C71.8297 88.6312 69.8818 88.5095 68.0556 88.5095C66.7164 88.3877 65.4989 88.3877 64.1597 88.266C62.6987 88.1442 61.2378 88.0225 59.7768 87.779C57.9506 87.5355 56.2462 87.4138 54.42 87.1703C52.472 86.9268 50.6458 86.6833 48.6979 86.318C46.5064 85.9528 44.315 85.5876 42.1236 85.2223L39.2017 84.7353C38.8364 84.6136 38.3494 84.7353 38.1059 85.1006C37.8625 85.3441 37.7407 85.5876 37.619 85.8311C37.2537 86.6833 37.619 87.5355 38.4712 87.9007C40.5409 88.9965 42.6106 89.8487 44.802 90.7009C51.7415 93.5011 59.0463 95.0838 66.4729 95.6925C68.2991 95.8143 70.1253 95.936 71.3427 95.936C74.3864 95.936 77.43 95.8143 80.352 95.449C82.6651 95.2055 84.9783 94.8403 87.1698 94.3533C91.9179 93.3793 96.5442 92.0401 101.049 90.2139C102.753 89.4835 104.458 88.753 106.162 87.779C106.527 87.5355 106.893 87.292 107.014 86.805C107.258 85.9528 106.771 84.9788 105.919 84.6136C105.553 84.7353 105.31 84.7353 105.066 84.7353ZM72.1949 65.0124C66.7164 65.0124 62.2117 60.5078 62.2117 54.9075C62.2117 49.4289 66.7164 44.9243 72.3167 44.9243C77.7953 44.9243 82.2999 49.4289 82.2999 55.0292C82.1782 60.6296 77.6735 65.0124 72.1949 65.0124ZM72.1949 49.4289C69.0295 49.4289 66.5946 51.9856 66.5946 55.151C66.5946 58.3164 69.1513 60.7513 72.3167 60.7513C75.4821 60.7513 77.917 58.1946 77.917 55.0292C77.917 51.8638 75.3604 49.4289 72.1949 49.4289Z" fill="#FF161F"/>
</svg>
