<svg width="120" height="120" viewBox="0 0 120 120" fill="none" xmlns="http://www.w3.org/2000/svg">
<path fill-rule="evenodd" clip-rule="evenodd" d="M82.5004 58.6001C82.5004 66.4001 82.5004 74.2001 82.5004 82.0001C82.5004 82.9001 82.3004 83.9001 81.8004 84.7001C81.5004 85.2001 81.1004 85.7001 80.7004 86.0001C79.8004 86.8001 78.7004 87.5001 77.6004 88.0001C75.9004 88.8001 74.1004 89.4001 72.3004 89.8001C70.4004 90.2001 68.5004 90.6001 66.6004 90.8001C65.3004 90.9001 64.0004 91.0001 62.7004 91.1001C61.3004 91.2001 59.8004 91.2001 58.4004 91.2001C57.6004 91.2001 56.7004 91.1001 55.9004 91.1001C55.1004 91.1001 54.3004 91.0001 53.5004 90.9001C49.9004 90.7001 46.3004 90.0001 42.9004 88.9001C41.6004 88.5001 40.3004 87.9001 39.1004 87.1001C38.3004 86.6001 37.7004 86.0001 37.1004 85.3001C36.3004 84.4001 35.9004 83.2001 35.9004 82.0001C35.9004 81.5001 35.9004 81.0001 35.9004 80.5001C35.9004 78.4001 35.9004 76.4001 35.9004 74.3001C35.9004 70.7001 35.9004 67.2001 35.9004 63.6001C35.9004 56.6001 35.9004 49.6001 35.9004 42.5001C35.9004 40.1001 35.9004 37.7001 35.9004 35.3001C35.9004 33.9001 36.4004 32.5001 37.5004 31.5001C38.3004 30.7001 39.3004 30.0001 40.3004 29.5001C42.0004 28.6001 43.8004 28.0001 45.6004 27.6001C47.4004 27.2001 49.2004 26.8001 51.0004 26.6001C52.5004 26.4001 54.0004 26.3001 55.5004 26.2001C57.3004 26.1001 59.1004 26.1001 61.0004 26.1001C61.4004 26.1001 61.7004 26.2001 62.1004 26.2001C62.9004 26.3001 63.8004 26.3001 64.6004 26.4001C67.6004 26.6001 70.7004 27.0001 73.6004 27.8001C75.0004 28.2001 76.5004 28.7001 77.8004 29.3001C78.9004 29.8001 79.9004 30.5001 80.8004 31.3001C81.6004 32.0001 82.1004 32.9001 82.4004 33.9001C82.5004 34.3001 82.5004 34.8001 82.5004 35.2001C82.5004 38.6001 82.5004 42.0001 82.5004 45.4001V58.6001ZM39.5004 81.7001C39.5004 82.5001 39.9004 83.2001 40.6004 83.6001C40.9004 83.8001 41.3004 84.0001 41.7004 84.2001C42.7004 84.7001 43.8004 85.2001 44.9004 85.5001C48.2004 86.5001 51.7004 87.1001 55.1004 87.2001C56.2004 87.3001 57.3004 87.3001 58.3004 87.3001C60.6004 87.4001 63.0004 87.3001 65.3004 87.0001C66.9004 86.8001 68.6004 86.6001 70.2004 86.3001C71.8004 86.0001 73.3004 85.6001 74.8004 85.0001C76.1004 84.5001 77.3004 83.9001 78.3004 83.0001C78.6004 82.8001 78.7004 82.5001 78.8004 82.1001C78.8004 82.0001 78.8004 81.8001 78.8004 81.7001C78.8004 80.1001 78.8004 78.5001 78.8004 76.9001V72.1001C78.8004 72.0001 78.8004 71.9001 78.8004 71.9001C78.8004 71.7001 78.7004 71.6001 78.5004 71.6001H78.4004C78.3004 71.6001 78.3004 71.7001 78.2004 71.7001C76.3004 72.6001 74.4004 73.3001 72.4004 73.8001C70.2004 74.3001 67.9004 74.7001 65.6004 74.9001C63.9004 75.1001 62.1004 75.2001 60.4004 75.2001C59.1004 75.2001 57.8004 75.2001 56.5004 75.2001C54.9004 75.2001 53.3004 75.0001 51.7004 74.8001C49.9004 74.6001 48.2004 74.3001 46.5004 73.9001C44.3004 73.4001 42.1004 72.7001 40.1004 71.7001C40.0004 71.7001 40.0004 71.6001 39.9004 71.6001C39.8004 71.5001 39.6004 71.6001 39.6004 71.7001V71.8001C39.6004 71.9001 39.6004 71.9001 39.6004 72.0001C39.6004 75.1001 39.6004 78.2001 39.6004 81.3001C39.5004 81.5001 39.5004 81.6001 39.5004 81.7001ZM40.4004 67.8001C40.6004 68.0001 40.9004 68.1001 41.2004 68.3001C42.1004 68.8001 43.1004 69.3001 44.0004 69.6001C47.2004 70.7001 50.6004 71.3001 54.0004 71.5001C55.1004 71.6001 56.1004 71.6001 57.2004 71.7001C60.0004 71.8001 62.7004 71.7001 65.5004 71.4001C67.2004 71.2001 68.9004 71.0001 70.5004 70.6001C72.3004 70.2001 74.1004 69.7001 75.8004 68.9001C76.6004 68.6001 77.4004 68.1001 78.0004 67.6001C78.5004 67.2001 78.7004 66.6001 78.7004 66.0001C78.7004 64.4001 78.7004 62.8001 78.7004 61.2001C78.7004 59.6001 78.7004 58.0001 78.7004 56.4001C78.7004 56.3001 78.7004 56.2001 78.7004 56.2001C78.7004 56.1001 78.6004 56.0001 78.5004 56.0001C78.4004 56.0001 78.4004 56.0001 78.4004 56.0001C78.3004 56.1001 78.1004 56.1001 78.0004 56.2001C75.6004 57.4001 72.9004 58.2001 70.3004 58.6001C69.0004 58.8001 67.7004 59.0001 66.5004 59.2001C66.2004 59.2001 66.2004 59.3001 66.2004 59.6001C66.2004 60.1001 66.2004 60.6001 66.1004 61.1001C65.3004 64.9001 61.7004 67.3001 57.9004 66.6001C56.0004 66.2001 54.4004 65.1001 53.4004 63.5001C52.7004 62.5001 52.4004 61.3001 52.3004 60.1001C52.3004 59.9001 52.3004 59.7001 52.3004 59.5001C52.3004 59.4001 52.2004 59.2001 52.1004 59.2001C52.1004 59.2001 52.1004 59.2001 52.0004 59.2001C51.9004 59.2001 51.8004 59.2001 51.7004 59.2001C49.9004 59.0001 48.2004 58.7001 46.4004 58.3001C44.2004 57.8001 42.0004 57.0001 40.0004 56.0001C40.0004 56.0001 39.9004 56.0001 39.8004 56.0001C39.7004 56.0001 39.6004 56.0001 39.5004 56.1001C39.5004 56.1001 39.5004 56.1001 39.5004 56.2001C39.5004 56.3001 39.5004 56.4001 39.5004 56.5001C39.5004 58.7001 39.5004 60.9001 39.5004 63.1001C39.5004 64.1001 39.5004 65.1001 39.5004 66.0001C39.5004 66.7001 39.8004 67.4001 40.4004 67.8001ZM56.2004 51.3001C56.7004 50.7001 57.2004 50.1001 57.7004 49.5001C58.4004 48.7001 59.5004 48.6001 60.3004 49.3001C60.4004 49.4001 60.4004 49.4001 60.5004 49.5001C60.6004 49.6001 60.8004 49.8001 60.9004 49.9001C62.2004 51.3001 63.3004 52.8001 64.3004 54.5001C64.5004 54.8001 64.6004 55.1001 64.8004 55.4001C64.9004 55.6001 65.1004 55.7001 65.4004 55.7001C65.5004 55.7001 65.5004 55.7001 65.6004 55.7001C66.1004 55.6001 66.7004 55.5001 67.2004 55.5001C68.6004 55.3001 70.1004 55.1001 71.5004 54.7001C73.3004 54.3001 75.0004 53.7001 76.7004 52.9001C77.2004 52.6001 77.7004 52.3001 78.2004 51.9001C78.6004 51.5001 78.9004 51.0001 78.9004 50.4001C78.9004 48.8001 78.9004 47.2001 78.9004 45.6001V40.8001C78.9004 40.7001 78.9004 40.7001 78.9004 40.6001C78.9004 40.3001 78.8004 40.3001 78.5004 40.4001C78.2004 40.5001 78.0004 40.6001 77.7004 40.7001C76.7004 41.1001 75.7004 41.6001 74.6004 41.9001C71.3004 42.9001 67.9004 43.5001 64.5004 43.7001C63.5004 43.8001 62.4004 43.8001 61.4004 43.9001C58.3004 44.0001 55.2004 43.9001 52.1004 43.6001C50.2004 43.4001 48.3004 43.1001 46.5004 42.7001C44.3004 42.2001 42.2004 41.5001 40.2004 40.5001C40.1004 40.5001 40.0004 40.4001 39.9004 40.4001C39.8004 40.3001 39.6004 40.4001 39.6004 40.5001C39.6004 40.6001 39.6004 40.6001 39.6004 40.7001C39.6004 40.8001 39.6004 40.9001 39.6004 41.0001C39.6004 43.3001 39.6004 45.6001 39.6004 47.9001C39.6004 48.8001 39.6004 49.7001 39.6004 50.5001C39.6004 51.0001 39.8004 51.6001 40.2004 51.9001C40.4004 52.1001 40.7004 52.3001 41.0004 52.5001C41.7004 53.0001 42.5004 53.4001 43.3004 53.7001C46.4004 54.8001 49.7004 55.6001 53.0004 55.8001C53.3004 55.8001 53.5004 55.7001 53.6004 55.4001C54.3004 53.8001 55.2004 52.5001 56.2004 51.3001ZM56.0004 60.5001C56.4004 62.3001 58.2004 63.4001 60.0004 63.0001C61.5004 62.7001 62.5004 61.3001 62.6004 59.8001C62.6004 59.6001 62.6004 59.5001 62.5004 59.3001C62.3004 58.4001 62.0004 57.6001 61.6004 56.8001C61.0004 55.7001 60.3004 54.7001 59.5004 53.7001C59.4004 53.6001 59.3004 53.5001 59.2004 53.6001C59.1004 53.6001 59.1004 53.7001 59.1004 53.7001C58.4004 54.6001 57.7004 55.5001 57.2004 56.5001C56.8004 57.1001 56.5004 57.8001 56.3004 58.5001C55.9004 59.2001 55.8004 59.9001 56.0004 60.5001ZM78.6004 34.4001C78.5004 34.2001 78.3004 34.1001 78.2004 33.9001C77.7004 33.5001 77.2004 33.1001 76.6004 32.8001C75.5004 32.2001 74.3004 31.8001 73.1004 31.4001C71.5004 30.9001 69.9004 30.6001 68.2004 30.3001C66.9004 30.1001 65.6004 29.9001 64.2004 29.8001C63.3004 29.7001 62.3004 29.7001 61.4004 29.6001C60.6004 29.6001 59.8004 29.6001 59.2004 29.5001C58.0004 29.7001 57.0004 29.7001 56.0004 29.8001C54.6004 29.9001 53.3004 30.0001 51.9004 30.1001C50.1004 30.3001 48.3004 30.6001 46.5004 31.1001C45.1004 31.4001 43.8004 31.9001 42.5004 32.4001C41.5004 32.8001 40.6004 33.5001 39.8004 34.2001C39.4004 34.5001 39.4004 35.1001 39.7004 35.4001C39.9004 35.6001 40.0004 35.8001 40.2004 36.0001C40.9004 36.5001 41.6004 37.0001 42.4004 37.3001C43.5004 37.8001 44.7004 38.2001 45.8004 38.5001C48.3004 39.2001 50.9004 39.6001 53.4004 39.8001C55.0004 39.9001 56.6004 40.0001 58.3004 40.0001C59.6004 40.0001 61.0004 40.0001 62.3004 39.9001C63.6004 39.8001 64.9004 39.7001 66.2004 39.6001C68.0004 39.4001 69.7004 39.1001 71.4004 38.7001C72.8004 38.4001 74.1004 37.9001 75.4004 37.4001C76.4004 37.0001 77.3004 36.4001 78.1004 35.7001C78.2004 35.6001 78.3004 35.5001 78.4004 35.3001C78.9004 35.2001 78.9004 34.7001 78.6004 34.4001ZM54.7004 36.2001C54.2004 36.4001 53.8004 36.6001 53.3004 36.7001C52.0004 36.9001 50.7004 36.9001 49.4004 36.6001C49.0004 36.5001 48.7004 36.4001 48.3004 36.1001C47.6004 35.7001 47.4004 34.8001 47.9004 34.1001C47.9004 34.1001 47.9004 34.1001 47.9004 34.0001C48.0004 33.8001 48.2004 33.6001 48.4004 33.5001C48.9004 33.2001 49.5004 33.1001 50.0004 33.0001C50.5004 33.0001 51.0004 32.9001 51.5004 32.9001C52.1004 32.9001 52.7004 32.9001 53.3004 33.0001C53.7004 33.1001 54.2004 33.2001 54.5004 33.4001C55.1004 33.7001 55.5004 34.4001 55.3004 35.1001C55.3004 35.7001 55.1004 36.0001 54.7004 36.2001Z" fill="#FF161F"/>
</svg>
