<svg width="145" height="145" viewBox="0 0 145 145" fill="none" xmlns="http://www.w3.org/2000/svg">
<path fill-rule="evenodd" clip-rule="evenodd" d="M31.168 111.642V72.6827C31.2897 72.561 31.4115 72.561 31.5332 72.561H31.655C59.6566 72.561 84.2494 72.561 112.251 72.561C112.373 72.561 112.616 72.561 112.738 72.561C112.738 85.5878 112.982 98.6147 112.982 111.642H31.168ZM108.964 76.3351H35.0639C34.9421 76.8221 35.0639 107.624 35.0639 107.867C35.5508 107.867 108.72 107.867 108.964 107.867V76.3351ZM62.4568 97.8842C62.5786 97.8842 62.5786 97.8842 62.7003 97.8842H68.5441C68.6659 97.8842 68.7876 98.006 68.7876 98.006V98.1277C68.7876 99.5887 68.7876 101.171 68.7876 102.632V102.754C68.7876 102.876 68.6659 102.998 68.5441 102.998C68.4224 102.998 68.4224 102.998 68.3006 102.998H62.5786C62.5786 102.998 62.4568 102.998 62.3351 102.998C62.2133 102.998 62.0916 102.998 62.0916 102.876V102.754C62.0916 102.389 62.0916 101.902 62.0916 101.537C62.0916 100.441 62.0916 99.3452 62.0916 98.2495C62.0916 98.1277 62.0916 98.1277 62.0916 98.006C62.2133 98.006 62.2133 97.8842 62.4568 97.8842ZM68.5441 94.8406C68.4224 94.8406 68.4224 94.8406 68.3006 94.8406H62.4568C62.2133 94.8406 62.0916 94.8406 62.0916 94.4753C62.0916 92.8926 62.0916 91.1882 62.0916 89.6055C62.0916 89.362 62.0916 89.2402 62.4568 89.2402H68.1789C68.3006 89.2402 68.3006 89.2402 68.4224 89.2402C68.6659 89.2402 68.6659 89.2402 68.6659 89.4837V89.6055V94.2318V94.3536C68.7876 94.7188 68.7876 94.8406 68.5441 94.8406C68.6659 94.8406 68.6659 94.8406 68.5441 94.8406ZM73.901 80.9615H79.8665C80.11 80.9615 80.2318 80.9615 80.2318 81.3267C80.2318 82.9094 80.2318 84.4921 80.2318 86.1966C80.2318 86.5618 80.2318 86.5618 79.8665 86.5618C78.7708 86.5618 78.2838 86.5618 77.1881 86.5618C76.0924 86.5618 75.1184 86.5618 74.0227 86.5618C73.6575 86.5618 73.6575 86.5618 73.6575 86.1966C73.6575 84.6139 73.6575 83.0312 73.6575 81.4485C73.5357 80.9615 73.5357 80.9615 73.901 80.9615ZM73.7792 89.362C73.901 89.362 73.901 89.362 74.0227 89.362H79.7448C79.8665 89.362 79.8665 89.362 79.9883 89.362C80.11 89.362 80.2318 89.4837 80.2318 89.4837C80.2318 89.4837 80.2318 89.4837 80.2318 89.6055C80.2318 91.1882 80.2318 92.8926 80.2318 94.4753C80.2318 94.7188 80.2318 94.8406 79.8665 94.8406C78.7708 94.8406 78.2838 94.8406 77.1881 94.8406H74.0227C73.5357 94.8406 73.5357 94.8406 73.5357 94.3536V89.7272C73.5357 89.6055 73.5357 89.6055 73.5357 89.4837C73.5357 89.4837 73.6575 89.362 73.7792 89.362ZM73.901 97.8842H79.8665C79.9883 97.8842 80.11 97.8842 80.11 98.006V98.1277V102.632V102.754C80.11 102.876 79.9883 102.998 79.8665 102.998C79.7448 102.998 79.7448 102.998 79.6231 102.998H73.7792C73.5357 102.998 73.414 102.998 73.414 102.632C73.414 101.05 73.414 99.5887 73.414 98.006C73.5357 97.8842 73.6575 97.8842 73.901 97.8842ZM84.7364 98.1277C84.7364 98.006 84.7364 97.8842 84.8581 97.8842C84.9799 97.8842 84.9799 97.8842 85.1016 97.8842H90.9455C91.189 97.8842 91.3107 97.8842 91.3107 98.2495C91.3107 99.8322 91.3107 101.415 91.3107 102.876C91.3107 103.119 91.3107 103.241 90.9455 103.241C89.8498 103.241 89.3628 103.241 88.2671 103.241H85.2234C85.1016 103.241 85.1016 103.241 84.9799 103.241C84.7364 103.241 84.7364 103.241 84.7364 102.998V102.876C84.7364 101.415 84.7364 99.9539 84.7364 98.3712C84.7364 98.3712 84.7364 98.2495 84.7364 98.1277ZM90.9455 94.8406H85.2234C84.7364 94.8406 84.7364 94.8406 84.7364 94.3536C84.7364 92.7709 84.7364 91.3099 84.7364 89.7272C84.7364 89.6055 84.7364 89.6055 84.7364 89.4837C84.7364 89.362 84.8582 89.2402 84.9799 89.2402H85.2234H90.9455C91.0672 89.2402 91.0672 89.2402 91.189 89.2402C91.3107 89.2402 91.4325 89.362 91.4325 89.4837C91.4325 89.6055 91.4325 89.6055 91.4325 89.7272C91.4325 91.3099 91.4325 92.7709 91.4325 94.3536C91.3107 94.8406 91.3107 94.8406 90.9455 94.8406ZM91.189 86.4401C91.0672 86.4401 91.0672 86.4401 90.9455 86.4401H85.2234C85.1016 86.4401 85.1016 86.4401 84.9799 86.4401C84.8582 86.4401 84.7364 86.3183 84.7364 86.3183C84.7364 86.3183 84.7364 86.3183 84.7364 86.1966V86.0748V81.4485C84.7364 81.3267 84.7364 81.3267 84.7364 81.205C84.7364 81.0832 84.8582 80.9615 84.9799 80.9615C85.1016 80.9615 85.1016 80.9615 85.2234 80.9615H90.9455C91.0672 80.9615 91.0672 80.9615 91.189 80.9615C91.3107 80.9615 91.4325 81.0832 91.4325 81.205C91.4325 81.205 91.4325 81.205 91.4325 81.3267V81.4485V86.0748C91.4325 86.1966 91.4325 86.1966 91.4325 86.3183C91.4325 86.3183 91.3107 86.4401 91.189 86.4401ZM96.0588 81.205C96.0588 81.0832 96.1806 80.9615 96.3023 80.9615C96.4241 80.9615 96.4241 80.9615 96.5458 80.9615H102.268C102.39 80.9615 102.39 80.9615 102.511 80.9615C102.633 80.9615 102.755 81.0832 102.755 81.205V81.3267V86.0748V86.1966C102.755 86.3183 102.633 86.4401 102.511 86.4401C102.39 86.4401 102.39 86.4401 102.268 86.4401H96.6676C96.5458 86.4401 96.5458 86.4401 96.4241 86.4401C96.1806 86.4401 96.1806 86.4401 96.1806 86.1966V86.0748C96.1806 84.4921 96.1806 83.0312 96.1806 81.4485C96.0588 81.3267 96.0588 81.205 96.0588 81.205ZM96.4241 89.362C97.5198 89.362 98.372 89.362 99.346 89.362C100.32 89.362 101.172 89.362 102.146 89.362H102.39C102.511 89.362 102.633 89.362 102.633 89.4837C102.633 89.6055 102.633 89.6055 102.633 89.7272V94.3536V94.4753C102.633 94.7188 102.633 94.8406 102.268 94.8406H96.3023C96.0588 94.8406 95.9371 94.8406 95.9371 94.4753C95.9371 92.8926 95.9371 91.3099 95.9371 89.6055C96.1806 89.362 96.1806 89.362 96.4241 89.362ZM96.5458 97.8842C98.7373 97.8842 100.32 97.8842 102.39 97.8842C102.755 97.8842 102.755 97.8842 102.755 98.2495C102.755 99.8322 102.755 101.293 102.755 102.876C102.755 103.241 102.755 103.241 102.39 103.241C101.294 103.241 100.563 103.241 99.4677 103.241H96.5458C96.1806 103.241 96.1806 103.241 96.1806 102.876C96.1806 101.293 96.1806 99.8322 96.1806 98.2495C96.1806 98.006 96.1806 97.8842 96.5458 97.8842ZM68.4224 86.4401H62.5786C62.2133 86.4401 62.2133 86.4401 62.2133 86.0748C62.2133 84.4921 62.2133 82.9094 62.2133 81.3267C62.2133 80.9615 62.2133 80.9615 62.5786 80.9615H68.3006C68.6659 80.9615 68.6659 80.9615 68.6659 81.3267C68.6659 82.9094 68.6659 84.4921 68.6659 86.0748C68.7876 86.4401 68.7876 86.4401 68.4224 86.4401ZM57.3435 103.241C57.2217 103.241 57.2217 103.241 57.1 103.241H51.3779C51.2561 103.241 51.2561 103.241 51.1344 103.241C50.8909 103.241 50.8909 103.241 50.8909 102.998V102.876V98.3712V98.2495C50.8909 98.006 50.8909 98.006 51.1344 98.006C51.2561 98.006 51.2561 98.006 51.3779 98.006H57.1C57.5869 98.006 57.5869 98.006 57.5869 98.493C57.5869 99.9539 57.5869 101.415 57.5869 102.998C57.5869 103.119 57.5869 103.119 57.5869 103.241C57.4652 103.241 57.3435 103.241 57.3435 103.241C57.2217 103.241 57.2217 103.241 57.3435 103.241ZM57.2217 86.4401C57.1 86.4401 57.1 86.4401 56.9782 86.4401H51.2561C51.1344 86.4401 51.1344 86.4401 51.0126 86.4401C50.8909 86.4401 50.7691 86.3183 50.7691 86.1966C50.7691 86.1966 50.7691 86.1966 50.7691 86.0748C50.7691 84.4921 50.7691 82.7877 50.7691 81.205C50.7691 80.9615 50.7691 80.9615 51.1344 80.9615C51.7431 80.9615 52.1084 80.9615 52.7171 80.9615H53.8128C54.7868 80.9615 55.8825 80.9615 56.8565 80.9615C56.9782 80.9615 56.9782 80.9615 57.1 80.9615C57.2217 80.9615 57.3435 81.0832 57.3435 81.0832C57.3435 81.205 57.3435 81.205 57.3435 81.3267C57.3435 82.9094 57.3435 84.3704 57.3435 85.9531C57.3435 86.0748 57.3435 86.0748 57.3435 86.1966C57.4652 86.3183 57.3435 86.4401 57.2217 86.4401ZM51.2561 89.362C52.3518 89.362 52.8388 89.362 53.9346 89.362C55.0303 89.362 56.0042 89.362 57.1 89.362C57.4652 89.362 57.4652 89.362 57.4652 89.7272C57.4652 91.3099 57.4652 92.8926 57.4652 94.4753C57.4652 94.8406 57.4652 94.8406 57.1 94.8406C54.9085 94.8406 53.3258 94.8406 51.2561 94.8406C50.8909 94.8406 50.8909 94.8406 50.8909 94.4753C50.8909 92.8926 50.8909 91.3099 50.8909 89.7272C50.8909 89.362 50.8909 89.362 51.2561 89.362ZM45.8993 103.241H40.0555C39.6902 103.241 39.6902 103.241 39.6902 102.876C39.6902 101.415 39.6902 99.8322 39.6902 98.3712C39.6902 98.006 39.6902 98.006 40.0555 98.006C42.2469 98.006 43.8296 98.006 45.8993 98.006C46.2645 98.006 46.2645 98.006 46.2645 98.3712C46.2645 99.9539 46.2645 101.415 46.2645 102.998C46.2645 103.241 46.2645 103.241 45.8993 103.241ZM46.021 86.4401H39.9337C39.6902 86.4401 39.5685 86.4401 39.5685 86.0748C39.5685 84.4921 39.5685 82.7877 39.5685 81.205C39.5685 80.9615 39.5685 80.9615 39.812 80.9615C40.9077 80.9615 42.0034 80.9615 43.0991 80.9615H45.6558C45.7775 80.9615 45.7775 80.9615 45.8993 80.9615C46.1428 80.9615 46.1428 80.9615 46.1428 81.205V81.3267V85.9531C46.1428 86.0748 46.1428 86.0748 46.1428 86.1966C46.2645 86.3183 46.1428 86.4401 46.021 86.4401ZM40.0555 89.362C41.1512 89.362 42.2469 89.362 43.3426 89.362H46.1428C46.2645 89.362 46.3863 89.362 46.3863 89.4837C46.3863 89.6055 46.3863 89.6055 46.3863 89.7272V94.3536V94.4753C46.3863 94.7188 46.3863 94.8406 46.021 94.8406C43.8296 94.8406 42.2469 94.8406 40.0555 94.8406C39.6902 94.8406 39.6902 94.8406 39.6902 94.4753C39.6902 92.8926 39.6902 91.3099 39.6902 89.6055C39.6902 89.362 39.6902 89.362 40.0555 89.362ZM94.7196 61.1168L94.2326 61.3603V69.3956C94.2326 69.8825 94.2326 69.8825 93.7456 69.8825H90.702C90.5802 69.8825 90.5802 69.8825 90.4585 69.8825C90.3367 69.8825 90.215 69.7608 90.215 69.7608C90.215 69.6391 90.215 69.639 90.215 69.5173V61.7255H87.4148C87.4148 61.8473 87.4148 61.969 87.4148 62.0908C87.4148 64.5257 87.4148 67.0824 87.4148 69.5173C87.4148 70.0043 87.4148 70.0043 86.9278 70.0043C85.9539 70.0043 84.9799 70.0043 84.0059 70.0043C83.8842 70.0043 83.8842 70.0043 83.7624 70.0043C83.5189 70.0043 83.5189 70.0043 83.5189 69.7608C83.5189 69.6391 83.5189 69.639 83.5189 69.5173V61.7255H80.7188V69.5173C80.7188 70.0043 80.7188 70.0043 80.2318 70.0043H77.1881C77.0664 70.0043 77.0664 70.0043 76.9446 70.0043C76.8229 70.0043 76.7011 69.8825 76.7011 69.8825C76.7011 69.7608 76.7011 69.7608 76.7011 69.6391V61.8473H73.901C73.901 61.969 73.901 62.0908 73.901 62.2125C73.901 64.6474 73.901 67.2041 73.901 69.6391C73.901 70.126 73.901 70.126 73.414 70.126H70.3703C70.2486 70.126 70.2486 70.126 70.1268 70.126C70.0051 70.126 69.8833 70.0043 69.8833 70.0043C69.8833 69.8825 69.8833 69.8825 69.8833 69.7608V61.969C68.9094 61.8473 68.0571 61.8473 67.0832 61.969V69.7608C67.0832 70.2478 67.0832 70.2478 66.5962 70.2478H63.5525C63.4308 70.2478 63.4308 70.2478 63.309 70.2478C63.1873 70.2478 63.1873 70.126 63.1873 70.126C63.1873 70.0043 63.1873 69.8825 63.1873 69.8825C63.1873 67.4476 63.1873 64.8909 63.1873 62.456V62.0908H60.3871V69.8825C60.3871 70.3695 60.3871 70.3695 59.9001 70.3695H56.8565C56.4912 70.3695 56.4912 70.3695 56.4912 70.0043C56.4912 67.4476 56.4912 65.0127 56.4912 62.456V62.0908H53.6911V69.8825C53.6911 70.3695 53.6911 70.3695 53.2041 70.3695H50.1604C50.0387 70.3695 50.0387 70.3695 49.9169 70.3695C49.7952 70.3695 49.6734 70.2478 49.6734 70.126C49.6734 70.0043 49.6734 70.0043 49.6734 69.8825V61.969C49.5517 61.8473 49.3082 61.8473 49.1864 61.7255C48.5777 61.482 48.2125 60.9951 48.0907 60.3863C47.969 59.7776 48.2125 59.0471 48.5777 58.5601C48.6995 58.4384 48.8212 58.3166 49.0647 58.3166C49.4299 58.3166 49.7952 58.0731 49.9169 57.7079V57.5862C50.0387 56.3687 50.2822 55.0295 50.6474 53.812C51.4996 50.8901 52.9606 48.2117 54.9085 45.8985C56.9782 43.4636 59.4131 41.5156 62.3351 40.1764C64.1613 39.3242 66.1092 38.7155 68.1789 38.472C69.0311 38.3502 70.0051 38.2285 70.8573 38.1067C71.8313 37.985 72.8053 37.985 73.7792 38.1067C75.8489 38.3502 77.9186 38.8372 79.8665 39.4459C82.058 40.2982 84.0059 41.3939 85.8321 42.8548C89.3628 45.655 91.9194 49.4291 93.2587 53.6903C93.6239 54.9077 93.8674 56.1252 93.9891 57.3427C93.9891 57.4644 93.9891 57.5862 93.9891 57.7079C93.9891 58.0731 94.3544 58.4384 94.8414 58.5601C95.4501 58.6819 95.8153 59.1689 95.8153 59.6558C96.1806 59.8993 95.6936 60.7516 94.7196 61.1168ZM90.215 56.9774C89.9715 55.0295 89.3628 53.2033 88.5105 51.4988C86.9278 48.0899 84.2494 45.2898 80.9623 43.4636C76.9446 41.1504 72.1965 40.4199 67.8136 41.5156C60.7524 43.2201 55.3955 48.8204 53.9346 55.8817C53.8128 56.3687 53.8128 56.8557 53.6911 57.3427H90.215C90.215 57.2209 90.215 57.0992 90.215 56.9774ZM92.2847 32.9934C92.2847 32.9934 92.1629 32.9934 92.0412 32.9934C90.3367 32.9934 88.5105 32.9934 86.8061 32.9934C85.7104 32.9934 84.6147 32.8716 83.6407 32.6281C82.545 32.3846 81.4493 32.0194 80.4753 31.4107C79.9883 31.1672 79.5013 30.8019 79.0143 30.5584C77.5534 29.7062 75.9707 29.341 74.2662 29.341C73.6575 29.341 73.0487 29.341 72.44 29.2192C72.0748 29.2192 71.953 29.0975 71.953 28.7323V28.6105C71.953 25.0799 71.953 21.4275 71.953 17.8968C71.953 17.6533 71.953 17.4098 72.0748 17.2881H75.7272C75.7272 17.2881 75.8489 17.2881 75.8489 17.4098C77.5534 18.0186 79.2578 18.8708 80.597 20.0883C80.8405 20.3317 81.084 20.4535 81.3275 20.697C82.3015 21.5492 83.5189 22.0362 84.8581 22.1579C85.8321 22.2797 86.9278 22.2797 87.9018 22.2797C89.241 22.2797 90.5802 22.2797 91.9194 22.2797C92.0412 22.2797 92.1629 22.2797 92.2847 22.2797C92.4064 22.2797 92.5282 22.4014 92.5282 22.5232C92.5282 22.6449 92.5282 22.7667 92.5282 22.8884V32.5064C92.5282 32.6281 92.5282 32.6281 92.5282 32.7499C92.6499 32.7499 92.5282 32.8716 92.2847 32.9934Z" fill="#FF161F"/>
</svg>
