<svg width="120" height="120" viewBox="0 0 120 120" fill="none" xmlns="http://www.w3.org/2000/svg">
<path fill-rule="evenodd" clip-rule="evenodd" d="M100.701 43.0001C100.701 45.1001 100.701 47.1001 100.701 49.2001C100.701 49.5001 100.601 49.8001 100.501 50.1001C100.401 50.3001 100.301 50.5001 100.101 50.6001C99.8006 50.8001 99.4006 51.0001 99.1006 51.0001H99.0006C98.8006 51.0001 98.6006 50.9001 98.5006 50.9001C98.3006 50.8001 98.1006 50.7001 97.9006 50.5001C97.7006 50.3001 97.6006 50.0001 97.5006 49.8001C97.4006 49.4001 97.4006 49.0001 97.4006 48.7001C97.4006 47.8001 97.4006 47.0001 97.4006 46.1001V46.0001H97.3006C97.3006 46.0001 97.3006 46.1001 97.2006 46.1001C93.7006 49.6001 90.2006 53.2001 86.6006 56.7001C86.3006 57.0001 86.0006 57.2001 85.6006 57.2001C85.5006 57.2001 85.4006 57.2001 85.3006 57.3001H85.2006C85.1006 57.3001 84.9006 57.2001 84.8006 57.2001C84.5006 57.1001 84.2006 57.0001 84.0006 56.8001C82.2006 55.0001 80.4006 53.2001 78.7006 51.4001L78.6006 51.3001H78.5006L78.4006 51.4001L74.3006 55.4001C74.0006 55.7001 73.7006 55.8001 73.4006 55.9001C73.0006 56.0001 72.7006 55.9001 72.3006 55.8001C72.1006 55.7001 71.9006 55.6001 71.8006 55.4001C71.6006 55.1001 71.4006 54.8001 71.4006 54.4001V54.3001C71.4006 54.2001 71.4006 54.1001 71.5006 54.0001C71.6006 53.6001 71.8006 53.3001 72.1006 53.0001C73.8006 51.3001 75.6006 49.6001 77.3006 47.9001C77.6006 47.6001 77.9006 47.4001 78.3006 47.4001C78.6006 47.4001 78.8006 47.4001 79.1006 47.4001C79.4006 47.5001 79.7006 47.6001 79.9006 47.9001C81.7006 49.7001 83.4006 51.5001 85.2006 53.3001L85.3006 53.4001L94.8006 43.8001H94.6006C93.5006 43.8001 92.4006 43.9001 91.3006 43.9001C90.8006 43.9001 90.3006 43.8001 90.0006 43.4001C89.8006 43.2001 89.7006 43.0001 89.6006 42.8001C89.5006 42.4001 89.5006 42.0001 89.6006 41.6001C89.7006 41.3001 89.8006 41.1001 90.1006 40.9001C90.4006 40.6001 90.9006 40.5001 91.3006 40.5001C93.7006 40.4001 96.1006 40.4001 98.5006 40.3001C98.9006 40.3001 99.2006 40.4001 99.5006 40.5001C99.7006 40.6001 99.8006 40.7001 99.9006 40.8001C100.101 41.0001 100.201 41.2001 100.301 41.4001C100.701 41.8001 100.801 42.4001 100.701 43.0001ZM64.4006 55.3001C60.3006 57.0001 55.7006 56.6001 51.9006 54.3001C49.6006 52.8001 47.8006 50.5001 46.9006 47.9001C45.6006 44.5001 45.1006 40.8001 45.3006 37.2001C45.3006 35.2001 45.6006 33.2001 46.1006 31.2001C47.4006 26.1001 51.8006 22.3001 57.1006 21.8001C60.3006 21.3001 63.6006 21.9001 66.5006 23.5001C69.6006 25.2001 71.8006 28.2001 72.6006 31.6001C73.1006 33.8001 73.3006 36.0001 73.3006 38.2001C73.4006 41.5001 72.8006 44.9001 71.7006 48.0001C70.4006 51.2001 67.8006 54.0001 64.4006 55.3001ZM68.5006 31.6001C67.7006 28.9001 65.7006 26.7001 63.0006 25.8001C61.5006 25.3001 59.9006 25.1001 58.4006 25.3001C54.3006 25.3001 50.8006 28.1001 49.7006 32.0001C49.2006 34.2001 48.9006 36.4001 49.0006 38.6001C49.0006 39.1001 49.1006 39.8001 49.1006 40.4001C49.2006 42.7001 49.8006 45.0001 50.7006 47.1001C51.6006 49.4001 53.5006 51.2001 55.8006 52.0001C57.6006 52.5001 59.4006 52.7001 61.3006 52.3001C62.9006 52.0001 64.4006 51.3001 65.5006 50.1001C66.5006 49.0001 67.3006 47.8001 67.9006 46.4001C68.9006 43.9001 69.3006 41.2001 69.3006 38.5001C69.4006 36.1001 69.1006 33.8001 68.5006 31.6001ZM51.5006 56.9001C52.1006 57.8001 51.8006 59.0001 51.0006 59.6001C49.3006 60.8001 47.5006 61.8001 45.7006 62.6001C43.6006 63.6001 41.4006 64.4001 39.2006 65.0001C37.3006 65.4001 35.9006 67.0001 35.7006 69.0001C35.5006 70.7001 35.4006 72.4001 35.6006 74.1001C35.6006 75.3001 35.8006 76.5001 36.1006 77.7001C36.3006 78.5001 35.8006 79.4001 35.1006 79.7001C34.3006 80.1001 33.4006 79.8001 32.9006 79.1001C32.5006 78.5001 32.3006 77.7001 32.2006 77.0001C31.8006 74.4001 31.7006 71.7001 32.0006 69.1001C32.2006 66.8001 33.2006 64.7001 34.8006 63.1001C35.0006 62.9001 35.3006 62.7001 35.5006 62.5001C37.0006 61.7001 38.5006 61.1001 40.1006 60.7001C43.2006 59.7001 46.2006 58.2001 49.0006 56.4001C49.7006 55.8001 50.9006 56.0001 51.5006 56.9001ZM54.8006 57.1001C55.9006 57.1001 56.8006 57.9001 56.8006 58.9001V59.0001C56.8006 60.3001 57.8006 61.3001 59.1006 61.3001C60.4006 61.4001 61.5006 60.4001 61.6006 59.0001C61.6006 57.9001 62.4006 57.0001 63.5006 57.0001C63.7006 57.0001 64.0006 57.0001 64.2006 57.1001C64.9006 57.3001 65.3006 58.0001 65.3006 58.7001C65.3006 60.2001 64.8006 61.6001 63.9006 62.8001C63.8006 62.9001 63.8006 63.1001 63.8006 63.2001C64.0006 66.8001 64.1006 70.5001 64.3006 74.1001C64.5006 77.5001 64.6006 80.9001 64.8006 84.2001C64.9006 86.8001 65.0006 89.3001 65.1006 91.9001C65.2006 92.7001 64.8006 93.4001 64.3006 93.9001C63.0006 95.0001 61.8006 96.1001 60.5006 97.3001C59.7006 98.1001 58.5006 98.2001 57.6006 97.4001L57.5006 97.3001C56.2006 96.2001 55.0006 95.0001 53.7006 93.9001C53.2006 93.4001 52.9006 92.8001 53.0006 92.1001C53.2006 88.5001 53.3006 85.0001 53.5006 81.4001C53.6006 80.1001 53.6006 78.9001 53.7006 77.6001C53.9006 72.9001 54.1006 68.1001 54.4006 63.4001C54.4006 63.0001 54.3006 62.5001 54.1006 62.1001C53.5006 61.2001 53.1006 60.1001 53.1006 59.0001C53.0006 58.0001 53.7006 57.1001 54.8006 56.9001C54.6006 57.1001 54.7006 57.1001 54.8006 57.1001ZM57.1006 91.8001C57.7006 92.4001 58.4006 93.0001 59.1006 93.6001C59.8006 92.9001 60.5006 92.3001 61.1006 91.7001C61.2006 91.6001 61.2006 91.4001 61.2006 91.3001C61.1006 88.2001 60.9006 85.2001 60.8006 82.1001C60.6006 77.3001 60.4006 72.6001 60.1006 67.8001C60.1006 66.9001 60.0006 66.0001 60.0006 65.1001H58.1006C58.1006 65.3001 58.1006 65.6001 58.1006 65.8001C58.0006 68.2001 57.9006 70.5001 57.8006 72.9001C57.5006 79.0001 57.3006 85.2001 57.0006 91.3001C57.0006 91.6001 57.0006 91.7001 57.1006 91.8001ZM69.5006 56.5001C72.1006 58.2001 74.9006 59.6001 77.8006 60.6001C78.1006 60.7001 83.0006 62.0001 84.0006 63.2001C85.4006 64.6001 86.3006 66.4001 86.6006 68.3001C86.9006 70.4001 87.0006 72.5001 86.8006 74.6001C86.7006 75.7001 86.5006 76.9001 86.4006 78.0001C86.4006 78.2001 86.3006 78.5001 86.2006 78.7001C85.8006 79.7001 84.8006 80.1001 83.8006 79.8001C82.8006 79.4001 82.3006 78.4001 82.6006 77.4001C82.8006 76.4001 83.0006 75.5001 83.0006 74.5001C83.1006 73.0001 83.1006 71.4001 83.0006 69.9001C83.0006 68.8001 82.6006 67.7001 82.0006 66.8001C81.5006 66.0001 80.7006 65.5001 79.8006 65.3001C75.7006 64.2001 71.8006 62.5001 68.3006 60.2001C68.0006 60.0001 67.7006 59.8001 67.4006 59.6001C66.6006 59.0001 66.4006 57.9001 67.0006 57.0001C67.0006 57.0001 67.0006 57.0001 67.0006 56.9001C67.5006 56.1001 68.6006 55.9001 69.5006 56.5001Z" fill="#FF161F"/>
</svg>
