<svg width="120" height="120" viewBox="0 0 120 120" fill="none" xmlns="http://www.w3.org/2000/svg">
<path fill-rule="evenodd" clip-rule="evenodd" d="M59.6996 89.7001C59.5996 89.7001 59.5996 89.7001 59.4996 89.6001C59.1996 89.5001 58.9996 89.4001 58.6996 89.3001C53.3996 85.5001 48.1996 81.5001 43.1996 77.2001C40.8996 75.2001 38.5996 73.1001 36.3996 70.9001C34.7996 69.2001 33.1996 67.5001 31.8996 65.6001C31.2996 64.7001 30.6996 63.8001 30.1996 62.8001C29.8996 62.2001 29.8996 61.4001 30.3996 60.9001C30.7996 60.4001 31.4996 60.1001 32.0996 60.2001C32.6996 60.3001 33.1996 60.6001 33.3996 61.2001C34.0996 62.6001 34.8996 63.8001 35.7996 65.0001C36.7996 66.2001 37.7996 67.3001 38.7996 68.4001C40.9996 70.7001 43.3996 72.8001 45.7996 74.9001C48.7996 77.4001 51.7996 79.9001 54.8996 82.2001C56.3996 83.3001 57.8996 84.5001 59.3996 85.6001C59.4996 85.6001 59.4996 85.7001 59.5996 85.7001C59.8996 85.5001 60.1996 85.3001 60.4996 85.1001C63.2996 83.0001 66.0996 81.0001 68.7996 78.8001C71.2996 76.8001 73.6996 74.8001 75.9996 72.7001C77.6996 71.1001 79.3996 69.5001 80.9996 67.8001C82.1996 66.5001 83.3996 65.2001 84.3996 63.7001C85.7996 61.7001 86.7996 59.4001 87.0996 57.0001C87.7996 52.7001 86.7996 48.3001 84.2996 44.8001C80.9996 40.1001 75.4996 37.6001 69.7996 38.3001C66.4996 38.6001 63.2996 40.0001 60.7996 42.2001C60.4996 42.4001 60.1996 42.6001 59.8996 42.7001C59.3996 42.8001 58.8996 42.7001 58.4996 42.4001C58.2996 42.2001 58.0996 42.1001 57.8996 41.9001C55.6996 40.1001 52.9996 38.9001 50.1996 38.5001C48.5996 38.2001 47.0996 38.2001 45.4996 38.4001C43.1996 38.7001 40.8996 39.5001 38.9996 40.8001C35.5996 43.0001 33.2996 46.5001 32.2996 50.4001C31.9996 51.4001 31.8996 52.5001 31.7996 53.6001C31.7996 53.7001 31.7996 53.8001 31.7996 53.9001C31.8996 53.9001 31.8996 53.9001 31.9996 53.9001C33.0996 53.9001 34.1996 53.9001 35.1996 53.9001C35.2996 53.9001 35.4996 53.8001 35.5996 53.7001C36.4996 52.8001 37.3996 51.9001 38.2996 51.0001L40.4996 48.9001C40.6996 48.7001 40.9996 48.5001 41.2996 48.4001C42.1996 48.1001 43.0996 48.6001 43.3996 49.5001C43.5996 50.0001 43.7996 50.5001 43.8996 51.1001L46.8996 59.9001C46.8996 60.0001 46.9996 60.1001 46.9996 60.2001C47.0996 60.1001 47.0996 60.0001 47.1996 59.9001L51.3996 52.1001C52.4996 50.0001 53.6996 47.8001 54.7996 45.7001C54.9996 45.2001 55.3996 44.9001 55.8996 44.7001C56.7996 44.4001 57.6996 44.9001 58.0996 45.7001C58.3996 46.3001 58.5996 47.0001 58.8996 47.6001L61.7996 54.4001C61.7996 54.5001 61.8996 54.6001 61.8996 54.7001H68.9996C70.0996 52.1001 72.9996 50.9001 75.5996 52.0001C78.1996 53.1001 79.3996 56.0001 78.2996 58.6001C77.5996 60.2001 76.1996 61.3001 74.4996 61.6001C72.0996 62.0001 69.6996 60.6001 68.8996 58.3001H60.8996C60.4996 58.3001 60.0996 58.2001 59.7996 58.0001C59.4996 57.8001 59.2996 57.5001 59.0996 57.1001L56.3996 50.9001C56.3996 50.8001 56.2996 50.7001 56.1996 50.5001C56.0996 50.6001 56.0996 50.7001 55.9996 50.8001L50.7996 60.4001C49.8996 62.0001 49.0996 63.7001 48.1996 65.3001C47.7996 66.1001 46.8996 66.5001 46.0996 66.2001C45.4996 66.0001 45.0996 65.6001 44.8996 65.0001C44.5996 64.0001 44.1996 63.1001 43.8996 62.1001L40.9996 53.5001C40.9996 53.4001 40.8996 53.3001 40.8996 53.2001C40.7996 53.3001 40.7996 53.3001 40.6996 53.4001C39.5996 54.5001 38.5996 55.5001 37.4996 56.6001C37.0996 57.0001 36.4996 57.3001 35.9996 57.2001C34.0996 57.2001 32.0996 57.2001 30.1996 57.2001C29.9996 57.2001 29.6996 57.2001 29.4996 57.1001C28.8996 57.0001 28.3996 56.5001 28.1996 55.8001C28.1996 55.7001 28.0996 55.6001 28.0996 55.5001V53.9001C28.0996 53.6001 28.1996 53.3001 28.1996 53.1001C28.2996 51.9001 28.3996 50.8001 28.6996 49.6001C29.9996 45.9001 31.9996 42.4001 34.9996 39.7001C36.3996 38.4001 37.9996 37.3001 39.6996 36.5001C42.0996 35.4001 44.6996 34.7001 47.2996 34.6001C48.5996 34.6001 49.8996 34.6001 51.0996 34.9001C53.7996 35.3001 56.2996 36.3001 58.5996 37.8001C58.9996 38.1001 59.3996 38.4001 59.8996 38.7001C59.9996 38.7001 59.9996 38.6001 60.0996 38.6001C60.4996 38.4001 60.7996 38.1001 61.1996 37.8001C64.1996 35.9001 67.5996 34.8001 71.0996 34.7001C72.7996 34.6001 74.3996 34.8001 75.9996 35.2001C79.7996 36.1001 83.2996 38.1001 85.9996 41.0001C87.8996 43.1001 89.3996 45.7001 90.1996 48.4001C90.6996 49.9001 90.9996 51.5001 91.0996 53.0001C91.0996 53.1001 91.0996 53.1001 91.0996 53.2001V55.7001C91.0996 55.8001 91.0996 55.9001 91.0996 56.0001C91.0996 56.2001 91.0996 56.4001 91.0996 56.5001C90.9996 57.5001 90.7996 58.4001 90.5996 59.4001C90.1996 61.2001 89.4996 62.9001 88.4996 64.5001C87.7996 65.6001 87.0996 66.6001 86.1996 67.6001C84.4996 69.6001 82.6996 71.5001 80.7996 73.3001C78.7996 75.2001 76.7996 77.0001 74.6996 78.8001C70.3996 82.3001 65.9996 85.7001 61.3996 89.0001C60.9996 89.3001 60.5996 89.5001 60.0996 89.6001H59.6996V89.7001ZM72.1996 56.6001C72.1996 57.6001 72.9996 58.4001 73.9996 58.4001C74.9996 58.4001 75.7996 57.6001 75.7996 56.6001C75.7996 55.6001 74.9996 54.8001 73.9996 54.8001C72.9996 54.8001 72.1996 55.6001 72.1996 56.6001Z" fill="#FF161F"/>
</svg>
