<svg width="40" height="40" viewBox="0 0 40 40" fill="none" xmlns="http://www.w3.org/2000/svg">
<path fill-rule="evenodd" clip-rule="evenodd" d="M31.9991 22.2913C31.5407 24.7913 30.3741 26.9163 28.5407 28.708C26.7074 30.5413 24.4991 31.6663 21.9157 32.083C21.3324 32.1663 20.7074 32.208 20.1241 32.2497C19.7491 32.2913 19.5824 32.4163 19.5824 32.7913C19.5824 32.9163 19.5824 33.083 19.5824 33.2497C18.7907 32.708 18.0407 32.208 17.2907 31.6663C18.0407 31.1247 18.7907 30.6247 19.5824 30.083C19.5824 30.2497 19.5824 30.4163 19.5824 30.5413C19.5824 30.9163 19.7074 31.083 20.1241 31.083C22.0824 31.083 23.8741 30.583 25.5407 29.583C28.3324 27.958 30.0824 25.4997 30.8324 22.3747C31.3741 20.0413 31.0824 17.7913 30.2074 15.583C29.4991 13.9163 28.4157 12.4997 27.0407 11.333C26.9574 11.2913 26.9157 11.208 26.8324 11.1663C26.8324 11.1663 26.8324 11.1663 26.8324 11.1247C27.0407 10.833 27.2491 10.5413 27.4574 10.2497C27.7074 10.458 27.9157 10.6247 28.1241 10.833C30.0407 12.583 31.2907 14.708 31.8741 17.208C32.2907 18.958 32.3324 20.6247 31.9991 22.2913ZM25.9991 16.5413C26.1241 16.833 26.2907 17.1247 26.4157 17.4163C26.4991 17.6247 26.5824 17.8747 26.6241 18.083C26.6657 18.208 26.7074 18.2497 26.8324 18.2497C27.1657 18.2497 27.4574 18.2497 27.7907 18.333C28.1241 18.4163 28.3324 18.6247 28.4574 18.958C28.4991 19.1247 28.5407 19.333 28.5407 19.4997C28.5407 19.8747 28.5407 20.2913 28.5407 20.6663C28.5407 21.0413 28.4157 21.4163 28.0407 21.583C27.8324 21.6663 27.6241 21.7497 27.4157 21.7497C27.2074 21.7913 27.0407 21.7497 26.8324 21.7497C26.7907 21.7497 26.7074 21.7913 26.7074 21.833C26.5407 22.3747 26.3324 22.9163 26.0407 23.458C26.2491 23.6247 26.4574 23.7913 26.6241 23.9997C27.0407 24.4997 26.9991 25.0413 26.5824 25.4997C26.2491 25.833 25.9157 26.1663 25.5824 26.4997C25.1657 26.9163 24.4991 26.8747 24.0824 26.458C23.9157 26.2913 23.7491 26.1247 23.5824 25.958C22.9991 26.208 22.4574 26.4163 21.8741 26.6663C21.8741 26.833 21.8741 26.9997 21.8741 27.1663C21.8741 27.3747 21.8324 27.583 21.7907 27.7497C21.7074 28.0413 21.4991 28.2497 21.2074 28.333C21.0407 28.3747 20.8324 28.4163 20.6241 28.4163C20.2074 28.4163 19.8324 28.4163 19.4157 28.4163C18.9991 28.4163 18.6657 28.2913 18.4574 27.9163C18.3741 27.708 18.3324 27.4997 18.2907 27.2497C18.2491 27.083 18.2907 26.8747 18.2907 26.708C18.2907 26.6247 18.2907 26.583 18.1657 26.5413C17.6657 26.4163 17.1657 26.208 16.7074 25.958C16.6657 25.958 16.5824 25.958 16.5407 25.9997C16.4157 26.1247 16.2907 26.2497 16.1657 26.3747C15.7491 26.833 15.0824 26.9163 14.5824 26.458C14.2074 26.083 13.7907 25.708 13.4574 25.333C13.0824 24.9163 13.1241 24.4163 13.4991 23.9997C13.6657 23.7913 13.8741 23.6247 14.0407 23.458C13.7907 22.8747 13.5824 22.333 13.3741 21.7497C13.1657 21.7497 12.9574 21.7497 12.7491 21.7497C12.5407 21.708 12.3324 21.708 12.1241 21.583C11.7491 21.4163 11.6241 21.0413 11.5824 20.6663C11.5824 20.208 11.5407 19.7497 11.5824 19.2913C11.6241 18.6247 11.9574 18.2497 12.6657 18.208C12.8741 18.208 13.0824 18.208 13.2907 18.208C13.3324 18.208 13.4157 18.1663 13.4157 18.1247C13.5824 17.583 13.7907 17.0413 14.0824 16.4997C13.9157 16.333 13.7907 16.208 13.6241 16.0413C13.1241 15.5413 13.1241 14.8747 13.6241 14.3747C13.9157 14.083 14.2074 13.7913 14.4991 13.4997C14.9991 12.9997 15.6241 12.9997 16.1241 13.4997C16.2907 13.6663 16.4574 13.7913 16.5824 13.958C17.1241 13.7497 17.7074 13.4997 18.2907 13.2497C18.2907 13.083 18.2491 12.8747 18.2907 12.708C18.3324 12.458 18.3741 12.208 18.4574 11.958C18.6657 11.583 19.0407 11.458 19.4157 11.458C19.8324 11.458 20.2907 11.458 20.7074 11.458C21.0824 11.458 21.4574 11.583 21.6657 11.958C21.7491 12.1663 21.7907 12.4163 21.8324 12.6247C21.8741 12.833 21.8324 13.0413 21.8324 13.208C22.4157 13.458 22.9574 13.6663 23.5407 13.9163C23.6657 13.7913 23.7907 13.6247 23.9574 13.458C24.4574 12.958 25.0824 12.958 25.5824 13.458C25.8741 13.7497 26.1657 14.0413 26.4574 14.333C26.9574 14.833 26.9574 15.458 26.4574 15.958C26.2907 16.2497 26.1241 16.3747 25.9991 16.5413ZM25.7074 18.833C25.5407 18.083 25.2491 17.4163 24.8741 16.7913C24.7074 16.4997 24.7491 16.2497 24.9991 15.9997C25.2074 15.7913 25.4157 15.583 25.6657 15.333C25.7074 15.2913 25.7074 15.2497 25.7491 15.2497C25.4157 14.9163 25.0824 14.583 24.7907 14.2913C24.5824 14.4997 24.3324 14.7497 24.0824 14.9997C23.8324 15.2497 23.4991 15.2913 23.2074 15.1247C22.5824 14.7497 21.9574 14.4997 21.2491 14.333C20.9991 14.2913 20.8741 14.1247 20.8324 13.8747C20.7907 13.6663 20.7907 13.4163 20.7907 13.208C20.7907 13.0413 20.7907 12.833 20.7907 12.6663C20.3324 12.6663 19.8741 12.6663 19.4157 12.6663C19.4157 12.708 19.4157 12.7497 19.4157 12.7913C19.4157 13.083 19.4157 13.3747 19.4157 13.6663C19.4157 14.083 19.2491 14.2913 18.8741 14.3747C18.2074 14.5413 17.5824 14.7913 16.9991 15.1663C16.6241 15.3747 16.3741 15.3747 16.0824 15.0413C15.8324 14.7913 15.6241 14.583 15.3741 14.3747C15.0407 14.708 14.7491 14.9997 14.4157 15.333C14.6241 15.5413 14.8324 15.833 15.0824 16.0413C15.3741 16.2913 15.4157 16.6247 15.2074 16.9163C14.8324 17.5413 14.5407 18.208 14.3741 18.8747C14.3741 18.958 14.3324 18.9997 14.2907 19.0413C14.1241 19.2913 13.8741 19.333 13.6241 19.333C13.3324 19.333 12.9991 19.333 12.7074 19.333C12.7074 19.7913 12.7074 20.2497 12.7074 20.708H12.7491C13.0407 20.708 13.3741 20.708 13.6657 20.708C14.0407 20.708 14.2907 20.8747 14.3741 21.2497C14.5407 21.958 14.8324 22.583 15.1657 23.208C15.3741 23.583 15.3324 23.7913 15.0407 24.083C14.8324 24.2913 14.6241 24.5413 14.3741 24.7497C14.6657 25.0413 14.9991 25.3747 15.3324 25.708C15.3741 25.6663 15.3741 25.6247 15.4157 25.583C15.6241 25.3747 15.8324 25.1663 16.0407 24.958C16.2907 24.7497 16.5824 24.708 16.8324 24.8747C17.4574 25.2913 18.1241 25.5413 18.8741 25.708C19.1241 25.7497 19.2491 25.9163 19.2907 26.1663C19.3324 26.4163 19.3324 26.6663 19.3324 26.9163C19.3324 27.083 19.3324 27.2497 19.3324 27.3747C19.7907 27.3747 20.2491 27.3747 20.7074 27.3747C20.7074 27.0413 20.7074 26.7497 20.7074 26.4163C20.7074 26.0413 20.8741 25.7497 21.2907 25.6663C21.9157 25.5413 22.4991 25.2913 23.0824 24.958C23.4991 24.708 23.7907 24.7497 24.1241 25.083C24.3324 25.2913 24.5407 25.4997 24.7491 25.708C25.0824 25.3747 25.3741 25.0413 25.7491 24.708C25.7074 24.6663 25.6657 24.6247 25.6241 24.583C25.4157 24.3747 25.2074 24.1663 24.9991 23.958C24.7907 23.708 24.7491 23.458 24.9157 23.1663C25.3324 22.5413 25.6241 21.833 25.7907 21.083C25.8324 20.8747 25.9574 20.7497 26.1657 20.708C26.3324 20.6663 26.4574 20.6663 26.6241 20.6663C26.9157 20.6663 27.1657 20.6663 27.4574 20.6663C27.4574 20.208 27.4574 19.7497 27.4574 19.2913C27.1241 19.2913 26.8324 19.2913 26.4991 19.2913C26.0824 19.2913 25.7907 19.1247 25.7074 18.833ZM19.9574 24.708C17.2907 24.6663 15.2491 22.583 15.2491 19.9997C15.2491 17.3747 17.2907 15.2913 19.9574 15.2913C22.6241 15.2913 24.6657 17.3747 24.6657 19.9997C24.6657 22.6247 22.6241 24.6663 19.9574 24.708ZM19.9574 16.3747C17.9991 16.3747 16.3324 18.0413 16.3324 19.9997C16.3324 21.9163 17.9157 23.6247 19.9574 23.6247C21.9574 23.6663 23.5824 21.958 23.5824 20.0413C23.5824 17.9997 21.9574 16.3747 19.9574 16.3747ZM19.8324 21.2913C19.6241 21.4997 19.2907 21.4997 19.0824 21.2913C18.8324 21.0413 18.5407 20.7913 18.2907 20.5413C18.0824 20.3747 18.0824 20.0413 18.2491 19.8747C18.4574 19.6247 18.8324 19.6247 19.0824 19.833C19.2074 19.958 19.3324 20.083 19.4991 20.208C19.9574 19.708 20.4574 19.208 20.9574 18.708C21.1657 18.4997 21.4574 18.4997 21.6657 18.708L21.7074 18.7497C21.9157 18.958 21.9157 19.2913 21.7074 19.4997C21.0824 20.0413 20.4574 20.6663 19.8324 21.2913ZM20.3741 9.45801C20.3741 8.99967 20.2491 8.87467 19.7907 8.87467C18.0407 8.87467 16.3741 9.29134 14.8324 10.1247C11.6241 11.8747 9.66574 14.4997 9.04074 18.083C8.49908 21.0413 9.16574 23.7497 10.8324 26.2497C11.4574 27.1663 12.2074 27.9997 13.1241 28.708C13.1241 28.708 13.1657 28.7497 13.2074 28.7497C12.9991 29.0413 12.7907 29.333 12.5407 29.6247C12.2491 29.3747 11.9991 29.1663 11.7074 28.9163C9.87408 27.208 8.62408 25.1247 8.08241 22.6663C7.33241 19.2497 7.87408 15.9997 9.87408 13.1247C11.6657 10.4997 14.0824 8.79134 17.2074 8.04134C18.0824 7.83301 18.9991 7.74967 19.9157 7.70801C20.3324 7.70801 20.4574 7.58301 20.4574 7.16634C20.4574 7.04134 20.4574 6.87467 20.4574 6.70801C21.2074 7.24967 21.9574 7.74967 22.7491 8.29134C21.9991 8.83301 21.2491 9.33301 20.4574 9.87467C20.3741 9.70801 20.3741 9.58301 20.3741 9.45801Z" fill="#FF161F"/>
</svg>
