<svg width="120" height="120" viewBox="0 0 120 120" fill="none" xmlns="http://www.w3.org/2000/svg">
<path fill-rule="evenodd" clip-rule="evenodd" d="M86.6004 51.4001C86.5004 54.6001 85.7004 57.7001 84.3004 60.6001C84.0004 61.2001 83.7004 61.8001 83.4004 62.4001C83.4004 62.5001 83.3004 62.5001 83.3004 62.6001C83.2004 62.7001 83.1004 62.7001 83.0004 62.7001C82.1004 62.4001 81.2004 62.0001 80.4004 61.7001C80.3004 61.7001 80.2004 61.6001 80.2004 61.5001C80.2004 61.5001 80.2004 61.5001 80.2004 61.4001C80.2004 61.3001 80.3004 61.2001 80.3004 61.1001C81.6004 58.8001 82.4004 56.4001 82.9004 53.8001C83.2004 52.1001 83.3004 50.3001 83.2004 48.6001C83.0004 44.9001 81.8004 41.4001 80.0004 38.2001C78.4004 35.5001 76.1004 33.1001 73.5004 31.3001C71.3004 29.8001 68.9004 28.7001 66.4004 28.0001C65.1004 27.6001 63.7004 27.4001 62.4004 27.3001C57.3004 26.9001 52.2004 28.2001 47.9004 31.1001C45.4004 32.7001 43.3004 34.8001 41.6004 37.2001C40.4004 38.9001 39.5004 40.8001 38.9004 42.8001C38.4004 44.4001 38.0004 46.0001 37.8004 47.6001C37.6004 49.1001 37.6004 50.7001 37.8004 52.2001C38.0004 54.7001 38.7004 57.2001 39.7004 59.5001C40.7004 61.6001 42.0004 63.5001 43.5004 65.2001C43.7004 65.4001 43.8004 65.6001 44.0004 65.8001C44.1004 65.9001 44.1004 66.0001 44.0004 66.1001C43.8004 66.2001 43.6004 66.3001 43.4004 66.4001C42.7004 66.7001 42.0004 67.0001 41.3004 67.3001C41.0004 67.4001 41.0004 67.4001 40.8004 67.2001C38.4004 64.6001 36.6004 61.6001 35.5004 58.3001C34.9004 56.6001 34.5004 54.8001 34.3004 53.1001C33.6004 47.1001 34.9004 41.1001 38.2004 36.1001C39.6004 33.9001 41.4004 31.8001 43.4004 30.1001C45.8004 28.0001 48.6004 26.4001 51.6004 25.4001C53.3004 24.8001 55.0004 24.4001 56.8004 24.1001C58.5004 23.9001 60.2004 23.8001 61.9004 23.9001C63.6004 24.0001 65.4004 24.3001 67.1004 24.7001C70.7004 25.6001 74.1004 27.4001 77.0004 29.8001C79.1004 31.5001 80.9004 33.5001 82.4004 35.8001C84.0004 38.2001 85.1004 40.8001 85.8004 43.5001C86.2004 45.0001 86.4004 46.4001 86.5004 47.9001C86.5004 48.1001 86.5004 48.3001 86.5004 48.5001C86.5004 48.6001 86.5004 48.7001 86.5004 48.8001V51.2001C86.6004 51.2001 86.6004 51.3001 86.6004 51.4001ZM69.6004 42.2001H51.2004C50.2004 42.2001 49.4004 41.4001 49.4004 40.4001C49.4004 39.4001 50.2004 38.6001 51.2004 38.6001H69.6004C70.6004 38.6001 71.4004 39.4001 71.4004 40.4001C71.4004 41.4001 70.5004 42.2001 69.6004 42.2001ZM69.6004 48.7001H62.2004V61.1001C62.2004 62.1001 61.4004 62.9001 60.4004 62.9001C59.4004 62.9001 58.6004 62.1001 58.6004 61.1001V48.7001H51.2004C50.2004 48.7001 49.4004 47.9001 49.4004 46.9001C49.4004 45.9001 50.2004 45.1001 51.2004 45.1001H69.6004C70.6004 45.1001 71.4004 45.9001 71.4004 46.9001C71.4004 47.9001 70.5004 48.7001 69.6004 48.7001ZM36.8004 72.3001C36.9004 72.5001 37.0004 72.7001 37.2004 72.9001C37.3004 72.8001 37.4004 72.8001 37.5004 72.7001C38.6004 71.8001 39.7004 71.0001 40.9004 70.1001C42.0004 69.3001 43.2004 68.6001 44.5004 68.3001C46.0004 67.9001 47.5004 67.8001 49.0004 68.0001C50.2004 68.2001 51.5004 68.5001 52.7004 68.9001C53.9004 69.3001 55.1004 69.6001 56.3004 69.8001C57.6004 70.1001 58.9004 70.1001 60.2004 70.0001C61.8004 69.8001 63.4004 69.7001 65.0004 69.8001C65.6004 69.8001 66.2004 69.9001 66.8004 70.0001C67.7004 70.2001 68.5004 70.6001 69.2004 71.3001C69.3004 71.4001 69.5004 71.6001 69.6004 71.7001C69.7004 71.6001 69.7004 71.6001 69.8004 71.5001C70.8004 70.1001 72.0004 68.7001 73.2004 67.5001C73.9004 66.8001 74.6004 66.1001 75.4004 65.4001C76.1004 64.8001 76.9004 64.4001 77.8004 64.1001C79.2004 63.7001 80.6004 64.0001 81.9004 64.7001C82.7004 65.1001 83.2004 66.0001 83.2004 67.0001C83.2004 67.7001 83.1004 68.4001 82.9004 69.0001C82.6004 70.0001 82.1004 71.0001 81.6004 72.0001C79.8004 75.1001 77.7004 78.1001 75.3004 80.8001C73.3004 83.0001 71.1004 85.0001 68.8004 86.7001C68.0004 87.3001 67.2004 87.7001 66.4004 88.1001C65.3004 88.6001 64.1004 88.9001 62.9004 88.9001C58.3004 88.9001 53.8004 88.9001 49.2004 88.9001H46.6004C46.6004 89.0001 46.6004 89.1001 46.6004 89.2001C46.6004 89.5001 46.7004 89.7001 46.7004 90.0001C46.9004 91.1001 46.4004 92.1001 45.4004 92.7001C44.9004 93.0001 44.3004 93.3001 43.8004 93.6001C42.7004 94.2001 41.5004 94.9001 40.4004 95.5001C40.0004 95.8001 39.5004 95.9001 39.0004 96.0001C39.0004 96.0001 39.0004 96.0001 38.9004 96.0001H38.2004C38.1004 96.0001 38.1004 96.0001 38.0004 95.9001C37.4004 95.8001 36.9004 95.5001 36.5004 95.1001C36.2004 94.8001 36.0004 94.5001 35.8004 94.1001C34.0004 91.0001 32.3004 87.9001 30.5004 84.8001C29.2004 82.5001 27.9004 80.2001 26.5004 77.8001C26.3004 77.4001 26.1004 77.0001 26.0004 76.5001C26.0004 76.4001 26.0004 76.4001 25.9004 76.3001V75.8001C25.9004 75.7001 26.0004 75.6001 26.0004 75.6001C26.1004 74.7001 26.7004 73.9001 27.5004 73.5001C28.4004 73.0001 29.3004 72.5001 30.1004 72.0001C30.8004 71.6001 31.5004 71.2001 32.2004 70.8001C32.7004 70.5001 33.2004 70.3001 33.8004 70.3001C34.6004 70.2001 35.5004 70.5001 36.1004 71.1001C36.4004 71.6001 36.6004 72.0001 36.8004 72.3001ZM43.7004 84.4001C43.8004 84.6001 43.9004 84.8001 44.0004 85.0001C44.2004 85.3001 44.5004 85.5001 44.8004 85.5001C45.0004 85.5001 45.3004 85.5001 45.5004 85.5001C47.3004 85.5001 49.2004 85.5001 51.0004 85.5001C54.6004 85.5001 58.2004 85.5001 61.7004 85.5001C62.2004 85.5001 62.7004 85.5001 63.2004 85.5001C64.3004 85.4001 65.3004 85.0001 66.1004 84.4001C66.5004 84.1001 66.8004 83.8001 67.2004 83.5001C69.1004 82.1001 70.8004 80.5001 72.5004 78.8001C74.5004 76.7001 76.3004 74.3001 77.8004 71.8001C78.5004 70.6001 79.1004 69.4001 79.6004 68.2001C79.6004 68.1001 79.7004 68.0001 79.7004 67.8001C79.1004 67.6001 78.4004 67.7001 77.8004 68.2001C76.7004 69.0001 75.7004 69.9001 74.9004 70.9001C73.4004 72.7001 71.9004 74.5001 70.4004 76.3001C69.6004 77.3001 68.7004 78.1001 67.6004 78.8001C66.5004 79.5001 65.2004 80.0001 63.8004 80.3001C62.7004 80.5001 61.6004 80.6001 60.5004 80.6001C58.2004 80.6001 55.9004 80.7001 53.6004 80.6001C53.5004 80.6001 53.4004 80.6001 53.3004 80.6001C53.1004 80.6001 53.0004 80.5001 53.0004 80.3001C53.0004 79.9001 53.0004 79.5001 53.0004 79.0001C53.0004 78.5001 53.0004 78.0001 53.0004 77.5001C53.0004 77.3001 53.0004 77.2001 53.3004 77.2001C53.5004 77.2001 53.7004 77.2001 54.0004 77.2001H61.3004C62.8004 77.2001 64.2004 76.8001 65.4004 76.0001C65.9004 75.7001 66.4004 75.3001 66.8004 74.8001C67.0004 74.6001 67.0004 74.5001 66.8004 74.3001C66.6004 74.1001 66.3004 73.9001 66.0004 73.7001C65.8004 73.5001 65.5004 73.5001 65.3004 73.5001C64.6004 73.5001 63.8004 73.5001 63.1004 73.5001C62.0004 73.6001 60.9004 73.7001 59.7004 73.7001C58.4004 73.8001 57.0004 73.7001 55.7004 73.4001C53.6004 72.9001 51.6004 72.3001 49.6004 71.8001C48.5004 71.5001 47.5004 71.4001 46.4004 71.6001C45.2004 71.8001 44.1004 72.3001 43.2004 73.0001C42.0004 73.9001 40.8004 74.9001 39.5004 75.8001C39.4004 75.9001 39.3004 75.9001 39.2004 76.0001C39.0004 76.1001 39.0004 76.4001 39.1004 76.5001C39.2004 76.7001 39.3004 76.8001 39.4004 77.0001C40.8004 79.4001 42.3004 81.9001 43.7004 84.4001ZM29.6004 76.5001C29.6004 76.6001 29.7004 76.6001 29.7004 76.7001C32.7004 81.9001 35.7004 87.2001 38.7004 92.4001C40.2004 91.7001 41.6004 90.9001 43.0004 89.9001L34.0004 74.0001L29.6004 76.5001ZM41.0004 90.1001C40.7004 90.6001 40.1004 90.9001 39.5004 90.9001C39.2004 90.9001 38.9004 90.8001 38.6004 90.6001C38.4004 90.4001 38.2004 90.2001 38.1004 90.0001C37.5004 89.1001 37.0004 88.2001 36.5004 87.3001C36.2004 86.8001 36.2004 86.1001 36.5004 85.6001C36.9004 85.0001 37.5004 84.7001 38.1004 84.7001C38.2004 84.7001 38.3004 84.7001 38.5004 84.8001C39.0004 85.0001 39.4004 85.4001 39.7004 85.9001C40.2004 86.7001 40.6004 87.5001 41.1004 88.2001C41.4004 88.8001 41.4004 89.6001 41.0004 90.1001Z" fill="#FF161F"/>
</svg>
