<svg width="145" height="145" viewBox="0 0 145 145" fill="none" xmlns="http://www.w3.org/2000/svg">
<path fill-rule="evenodd" clip-rule="evenodd" d="M39.6895 103.363V36.5244H60.8733V65.0131C63.3083 62.6999 65.8649 60.265 68.2999 57.83C71.587 54.5429 74.7524 51.2557 78.0396 47.9686C78.2831 47.7251 78.5266 47.6033 78.8918 47.6033C80.3528 47.6033 81.692 47.6033 83.1529 47.6033V65.5001L83.2747 65.6218C83.5182 65.3783 83.6399 65.1348 83.8834 65.0131C89.6055 59.4127 95.3276 53.6907 101.05 48.0903C101.293 47.8468 101.658 47.6033 102.024 47.7251C103.485 47.7251 105.067 47.7251 106.528 47.7251V103.363H39.6895ZM101.902 53.4472L101.78 53.3254C101.658 53.5689 101.537 53.6907 101.415 53.9342C95.6928 59.5345 90.0925 65.1348 84.3704 70.8569C84.1269 70.9787 83.8834 71.1004 83.6399 71.2222C82.179 71.2222 80.5963 71.2222 79.1353 71.2222C79.0136 71.2222 78.8918 71.2222 78.6483 71.2222V53.8124L78.5266 53.6907C78.4048 53.8124 78.2831 54.0559 78.1613 54.1776C73.048 59.4127 67.9346 64.5261 62.943 69.6394C62.2125 70.6134 60.8733 71.2222 59.6559 71.1004C58.8036 70.9787 57.8297 70.9787 56.9774 71.1004C56.8557 71.1004 56.6122 71.1004 56.4905 71.1004V41.029H44.3158V98.8586H102.145L101.902 53.4472ZM60.7516 81.0836H56.3687V76.7007H60.7516V81.0836ZM60.7516 91.0668H56.3687V86.6839H60.7516V91.0668ZM71.9523 91.0668H67.5694V86.6839H71.9523V91.0668ZM67.5694 76.7007H71.9523V81.0836H67.5694V76.7007ZM83.0312 81.0836H78.6483V76.7007H83.0312V81.0836ZM83.0312 91.0668H78.6483V86.6839H83.0312V91.0668ZM94.1101 81.0836H89.7272V76.7007H94.1101V81.0836ZM94.1101 91.0668H89.7272V86.6839H94.1101V91.0668Z" fill="#FF161F"/>
</svg>
