<svg width="120" height="120" viewBox="0 0 120 120" fill="none" xmlns="http://www.w3.org/2000/svg">
<path fill-rule="evenodd" clip-rule="evenodd" d="M95.1996 86.4999C95.1996 90.2999 92.0996 93.2999 88.3996 93.2999H66.9996C66.1996 93.2999 65.5996 92.6999 65.5996 91.8999C65.5996 91.0999 66.1996 90.4999 66.9996 90.4999H74.6996C72.8996 88.0999 72.8996 84.6999 74.6996 82.2999H45.6996C47.4996 84.6999 47.4996 88.0999 45.6996 90.4999H53.3996C54.1996 90.4999 54.7996 91.0999 54.7996 91.8999C54.7996 92.6999 54.1996 93.2999 53.3996 93.2999H31.9996C28.1996 93.2999 25.1996 90.2999 25.1996 86.4999C25.1996 82.9999 27.8996 79.9999 31.3996 79.6999C31.1996 78.4999 30.7996 77.3999 30.2996 76.2999C29.8996 75.4999 29.2996 75.0999 29.2996 73.4999C29.2996 68.9999 32.9996 65.2999 37.4996 65.2999C41.9996 65.2999 45.6996 68.9999 45.6996 73.4999C45.6996 75.0999 45.0996 75.3999 44.6996 76.2999C44.1996 77.3999 43.7996 78.4999 43.5996 79.6999H54.0996C53.8996 78.4999 53.4996 77.3999 52.9996 76.2999C52.5996 75.4999 51.9996 75.0999 51.9996 73.4999C51.9996 68.9999 55.6996 65.2999 60.1996 65.2999C64.6996 65.2999 68.3996 68.9999 68.3996 73.4999C68.3996 75.0999 67.7996 75.3999 67.3996 76.2999C66.8996 77.3999 66.4996 78.4999 66.2996 79.6999H76.7996C76.5996 78.4999 76.1996 77.3999 75.6996 76.2999C75.2996 75.4999 74.6996 75.0999 74.6996 73.4999C74.6996 70.2999 76.4996 67.3999 79.3996 66.0999C78.1996 64.1999 78.7996 61.5999 80.6996 60.4999C82.5996 59.2999 85.1996 59.8999 86.2996 61.7999C87.0996 63.0999 87.0996 64.7999 86.2996 66.0999C89.1996 67.4999 90.9996 70.2999 90.9996 73.4999C90.9996 75.0999 90.3996 75.3999 89.9996 76.2999C89.4996 77.3999 89.0996 78.4999 88.8996 79.6999C92.4996 79.9999 95.1996 82.9999 95.1996 86.4999ZM27.8996 86.4999C27.8996 88.7999 29.6996 90.5999 31.9996 90.5999H34.6996C32.8996 88.1999 32.8996 84.7999 34.6996 82.3999H31.9996C29.6996 82.3999 27.8996 84.1999 27.8996 86.4999ZM35.5996 79.6999H36.0996V74.8999H32.4996C32.6996 75.1999 32.8996 75.5999 32.9996 75.9999C33.8996 79.0999 34.1996 79.5999 35.5996 79.6999ZM37.4996 68.0999C34.9996 68.0999 32.7996 69.7999 32.1996 72.1999H42.7996C42.0996 69.7999 39.9996 68.0999 37.4996 68.0999ZM38.7996 74.8999V79.6999H39.2996C40.6996 79.5999 40.8996 79.0999 41.8996 75.9999C41.9996 75.5999 42.1996 75.2999 42.3996 74.8999H38.7996ZM40.1996 82.3999C37.8996 82.3999 36.0996 84.1999 36.0996 86.4999C36.0996 88.7999 37.8996 90.5999 40.1996 90.5999C42.4996 90.5999 44.2996 88.7999 44.2996 86.4999C44.2996 84.1999 42.4996 82.3999 40.1996 82.3999ZM61.4996 79.6999H61.9996C63.3996 79.5999 63.5996 79.0999 64.5996 75.9999C64.6996 75.5999 64.8996 75.2999 65.0996 74.8999H61.4996V79.6999ZM55.6996 75.9999C56.6996 79.0999 56.8996 79.5999 58.2996 79.6999H58.7996V74.8999H55.1996C55.3996 75.1999 55.5996 75.5999 55.6996 75.9999ZM60.1996 68.0999C57.6996 68.0999 55.4996 69.7999 54.8996 72.1999H65.4996C64.8996 69.7999 62.6996 68.0999 60.1996 68.0999ZM87.3996 75.9999C87.4996 75.5999 87.6996 75.2999 87.8996 74.8999H84.2996V79.6999H84.7996C86.1996 79.5999 86.3996 79.0999 87.3996 75.9999ZM80.1996 90.5999C82.4996 90.5999 84.2996 88.7999 84.2996 86.4999C84.2996 84.1999 82.4996 82.3999 80.1996 82.3999C77.8996 82.3999 76.0996 84.1999 76.0996 86.4999C76.0996 88.7999 77.8996 90.5999 80.1996 90.5999ZM81.4996 79.6999V74.8999H77.8996C78.0996 75.1999 78.2996 75.5999 78.3996 75.9999C79.3996 79.0999 79.5996 79.5999 80.9996 79.6999H81.4996ZM82.8996 62.5999C82.0996 62.5999 81.4996 63.1999 81.4996 63.9999C81.4996 64.7999 82.0996 65.3999 82.8996 65.3999C83.6996 65.3999 84.2996 64.7999 84.2996 63.9999C84.2996 63.1999 83.6996 62.5999 82.8996 62.5999ZM82.8996 68.0999C80.3996 68.0999 78.1996 69.7999 77.5996 72.1999H88.1996C87.5996 69.7999 85.3996 68.0999 82.8996 68.0999ZM88.3996 82.3999H85.6996C87.4996 84.7999 87.4996 88.1999 85.6996 90.5999H88.3996C90.6996 90.4999 92.3996 88.6999 92.3996 86.3999C92.2996 84.1999 90.4996 82.4999 88.3996 82.3999ZM80.1996 85.0999C80.9996 85.0999 81.5996 85.6999 81.5996 86.4999C81.5996 87.2999 80.9996 87.8999 80.1996 87.8999C79.3996 87.8999 78.7996 87.2999 78.7996 86.4999C78.7996 85.7999 79.3996 85.0999 80.1996 85.0999ZM40.1996 87.8999C39.3996 87.8999 38.7996 87.2999 38.7996 86.4999C38.7996 85.6999 39.3996 85.0999 40.1996 85.0999C40.9996 85.0999 41.5996 85.6999 41.5996 86.4999C41.5996 87.2999 40.8996 87.8999 40.1996 87.8999ZM69.2996 53.5999L64.1996 59.1999C63.7996 61.3999 61.5996 62.8999 59.3996 62.4999C57.6996 62.1999 56.3996 60.7999 56.0996 59.0999L51.0996 53.5999C50.4996 53.0999 50.4996 52.2999 50.9996 51.6999C51.0996 51.5999 51.0996 51.5999 51.1996 51.4999L54.6996 48.4999C52.2996 46.8999 48.6996 44.4999 45.5996 42.3999C42.4996 42.9999 39.3996 41.9999 37.0996 39.7999H27.0996C25.9996 39.7999 25.0996 38.8999 25.0996 37.7999V27.9999C25.0996 26.8999 25.9996 25.9999 26.9996 25.9999H36.9996C40.7996 22.2999 46.7996 22.3999 50.4996 26.0999C51.7996 27.3999 52.6996 28.9999 52.9996 30.7999C56.9996 33.4999 61.7996 36.5999 63.7996 37.9999C63.8996 38.0999 63.8996 38.0999 63.9996 38.1999L64.0996 38.2999L64.1996 38.3999C64.1996 38.3999 64.2996 38.4999 64.3996 38.4999L64.4996 38.5999C64.5996 38.6999 64.5996 38.6999 64.6996 38.7999L64.7996 38.8999C64.8996 38.9999 64.8996 38.9999 64.9996 39.0999C65.0996 39.1999 65.0996 39.1999 65.1996 39.2999C65.2996 39.3999 65.2996 39.3999 65.3996 39.4999C65.4996 39.5999 65.4996 39.5999 65.5996 39.6999C65.5996 39.6999 65.5996 39.6999 65.5996 39.7999C65.5996 39.8999 65.6996 39.8999 65.6996 39.9999C65.6996 39.9999 65.6996 40.0999 65.7996 40.0999C65.7996 40.1999 65.8996 40.1999 65.8996 40.2999C65.8996 40.3999 65.9996 40.3999 65.9996 40.3999C65.9996 40.3999 65.9996 40.4999 66.0996 40.4999C66.1996 40.4999 66.1996 40.5999 66.1996 40.6999V40.7999C66.1996 40.8999 66.2996 40.8999 66.2996 40.9999V41.0999C66.2996 41.1999 66.3996 41.2999 66.3996 41.2999C66.3996 41.3999 66.4996 41.4999 66.4996 41.5999C66.4996 41.6999 66.5996 41.7999 66.5996 41.8999C66.5996 41.9999 66.5996 42.0999 66.6996 42.1999V42.2999C66.6996 42.3999 66.6996 42.4999 66.6996 42.4999V42.5999C66.6996 42.6999 66.6996 42.6999 66.6996 42.7999C66.6996 42.8999 66.6996 42.8999 66.6996 42.9999C66.6996 43.0999 66.6996 43.0999 66.6996 43.0999C66.6996 43.1999 66.6996 43.2999 66.6996 43.3999C66.6996 43.9999 66.5996 44.4999 66.4996 45.0999V45.1999C66.4996 45.2999 66.4996 45.2999 66.3996 45.3999C66.2996 45.4999 66.3996 45.4999 66.2996 45.5999V45.6999C66.0996 46.1999 65.7996 46.6999 65.4996 47.1999C65.3996 47.2999 65.3996 47.2999 65.2996 47.3999L65.1996 47.4999L65.0996 47.5999L68.7996 50.7999C69.3996 51.1999 69.4996 52.0999 69.0996 52.6999C69.3996 53.4999 69.3996 53.5999 69.2996 53.5999ZM60.1996 59.8999C60.9996 59.8999 61.5996 59.2999 61.5996 58.4999C61.5996 57.6999 60.9996 57.0999 60.1996 57.0999C59.3996 57.0999 58.7996 57.6999 58.7996 58.4999C58.7996 59.2999 59.3996 59.8999 60.1996 59.8999ZM35.1996 28.9999H27.8996V37.1999H35.1996C33.8996 34.5999 33.8996 31.5999 35.1996 28.9999ZM43.7996 26.1999C39.9996 26.1999 36.9996 29.2999 36.9996 32.9999C36.9996 36.6999 40.0996 39.7999 43.7996 39.7999C47.4996 39.7999 50.5996 36.6999 50.5996 32.9999C50.5996 29.2999 47.5996 26.1999 43.7996 26.1999ZM53.2996 34.4999C52.8996 37.2999 51.1996 39.7999 48.7996 41.2999L53.4996 44.3999C53.4996 44.2999 53.4996 44.1999 53.4996 43.9999C53.4996 41.0999 55.2996 38.4999 58.0996 37.5999L53.2996 34.4999ZM64.2996 43.9999C64.2996 43.8999 64.2996 43.8999 64.2996 43.7999V43.6999V43.5999V43.4999C64.2996 43.4999 64.2996 43.4999 64.2996 43.3999V43.2999C64.2996 43.1999 64.2996 43.1999 64.2996 43.0999C64.2996 42.9999 64.2996 42.9999 64.2996 42.8999C64.2996 42.7999 64.2996 42.7999 64.1996 42.6999C64.1996 42.5999 64.1996 42.5999 64.0996 42.4999C64.0996 42.4999 64.0996 42.3999 63.9996 42.3999V42.2999C63.9996 42.2999 63.9996 42.1999 63.8996 42.1999V42.0999V41.9999C63.8996 41.9999 63.8996 41.8999 63.7996 41.8999V41.7999L63.6996 41.6999L63.5996 41.5999L63.4996 41.4999L63.3996 41.3999L63.2996 41.2999C62.9996 40.9999 62.9996 40.9999 62.9996 40.9999H62.8996L62.7996 40.8999L62.6996 40.7999L62.5996 40.6999L62.4996 40.5999C60.5996 39.2999 58.0996 39.7999 56.7996 41.6999C55.4996 43.5999 55.9996 46.0999 57.8996 47.3999C58.1996 47.5999 58.4996 47.7999 58.7996 47.8999H58.8996H58.9996H59.0996H59.1996C59.4996 47.9999 59.8996 47.9999 60.1996 47.9999C60.2996 47.9999 60.2996 47.9999 60.3996 47.9999H60.4996H60.5996H60.6996H60.7996H60.8996C60.9996 47.9999 60.9996 47.9999 61.0996 47.9999C61.1996 47.9999 61.1996 47.9999 61.2996 47.9999C61.3996 47.9999 61.3996 47.9999 61.4996 47.8999C61.4996 47.8999 61.5996 47.8999 61.6996 47.7999C61.6996 47.7999 61.7996 47.7999 61.7996 47.6999H61.8996L61.9996 47.5999H62.0996H62.1996C62.1996 47.5999 62.2996 47.5999 62.2996 47.4999H62.3996L62.4996 47.3999L62.5996 47.2999L62.6996 47.1999L62.7996 47.0999L62.8996 46.9999L62.9996 46.8999V46.7999L63.0996 46.6999L63.1996 46.5999C63.1996 46.5999 63.1996 46.5999 63.2996 46.4999L63.3996 46.3999C63.5996 46.0999 63.7996 45.7999 63.8996 45.4999C63.8996 45.4999 63.8996 45.4999 63.8996 45.3999V45.2999V45.1999C63.8996 45.1999 63.8996 45.1999 63.8996 45.0999C64.1996 44.6999 64.2996 44.2999 64.2996 43.9999ZM63.2996 49.9999C63.0996 50.0999 63.0996 50.0999 62.9996 50.0999H62.8996C62.7996 50.0999 62.7996 50.1999 62.6996 50.1999H62.5996C62.4996 50.1999 62.3996 50.2999 62.3996 50.2999C62.2996 50.2999 62.1996 50.3999 62.0996 50.3999C61.9996 50.3999 61.8996 50.3999 61.7996 50.4999C61.6996 50.4999 61.5996 50.4999 61.4996 50.5999H61.3996C61.2996 50.5999 61.1996 50.5999 61.1996 50.5999H61.0996C60.9996 50.5999 60.9996 50.5999 60.8996 50.5999C60.7996 50.5999 60.7996 50.5999 60.6996 50.5999C60.5996 50.5999 60.5996 50.5999 60.5996 50.5999C60.4996 50.5999 60.3996 50.5999 60.2996 50.5999H60.1996C59.5996 50.5999 59.0996 50.4999 58.4996 50.3999H58.3996C58.2996 50.3999 58.2996 50.3999 58.1996 50.2999C58.0996 50.1999 58.0996 50.2999 57.9996 50.1999H57.8996C57.5996 50.0999 57.3996 49.9999 57.0996 49.8999L53.9996 52.6999L56.9996 55.9999C58.3996 54.1999 60.9996 53.8999 62.6996 55.2999C62.9996 55.4999 63.1996 55.7999 63.4996 56.0999L66.4996 52.7999L63.2996 49.9999ZM60.1996 45.3999C59.3996 45.3999 58.7996 44.7999 58.7996 43.9999C58.7996 43.1999 59.3996 42.5999 60.1996 42.5999C60.9996 42.5999 61.5996 43.1999 61.5996 43.9999C61.4996 44.6999 60.8996 45.3999 60.1996 45.3999ZM43.7996 37.1999C41.4996 37.1999 39.6996 35.3999 39.6996 33.0999C39.6996 30.7999 41.4996 28.9999 43.7996 28.9999C46.0996 28.9999 47.8996 30.7999 47.8996 33.0999C47.8996 35.3999 46.0996 37.1999 43.7996 37.1999ZM43.7996 31.6999C42.9996 31.6999 42.3996 32.2999 42.3996 33.0999C42.3996 33.8999 42.9996 34.4999 43.7996 34.4999C44.5996 34.4999 45.1996 33.8999 45.1996 33.0999C45.1996 32.2999 44.5996 31.6999 43.7996 31.6999ZM60.1996 90.5999C60.9996 90.5999 61.5996 91.1999 61.5996 91.9999C61.5996 92.7999 60.9996 93.3999 60.1996 93.3999C59.3996 93.3999 58.7996 92.7999 58.7996 91.9999C58.7996 91.1999 59.3996 90.5999 60.1996 90.5999Z" fill="#FF161F"/>
</svg>
