<svg width="120" height="120" viewBox="0 0 120 120" fill="none" xmlns="http://www.w3.org/2000/svg">
<path fill-rule="evenodd" clip-rule="evenodd" d="M50.3993 56.5002H42.6993C42.6993 57.9002 42.6993 59.3002 42.6993 60.7002C42.6993 60.9002 42.6993 61.1002 42.6993 61.3002C42.4993 62.3002 41.4993 63.1002 40.4993 62.9002C39.5993 62.7002 38.8993 61.9002 38.8993 61.0002C38.8993 59.5002 38.8993 58.0002 38.8993 56.5002H31.9993V56.9002C31.9993 58.3002 31.9993 59.7002 31.9993 61.0002C31.9993 62.1002 31.0993 62.9002 29.9993 62.9002C29.1993 62.9002 28.3993 62.3002 28.1993 61.5002C28.0993 61.3002 28.0993 61.0002 28.0993 60.8002C28.0993 58.8002 28.0993 56.8002 28.0993 54.8002C27.9993 53.8002 28.6993 52.8002 29.7993 52.6002C36.9993 50.7002 44.0993 48.7002 51.2993 46.8002C51.5993 46.8002 51.7993 46.5002 51.7993 46.2002C52.1993 43.2002 52.5993 40.3002 52.9993 37.3002C53.1993 35.9002 53.3993 34.5002 53.5993 33.1002C53.5993 33.0002 53.5993 33.0002 53.5993 32.9002H42.7993C42.7993 33.0002 42.7993 33.1002 42.7993 33.3002C42.7993 34.6002 42.7993 36.0002 42.7993 37.3002C42.8993 38.4002 41.9993 39.3002 40.9993 39.3002C39.8993 39.4002 38.9993 38.5002 38.9993 37.5002C38.9993 37.4002 38.9993 37.4002 38.9993 37.3002C38.9993 35.3002 38.9993 33.2002 38.9993 31.2002C38.9993 30.4002 39.3993 29.6002 40.1993 29.2002C44.3993 27.1002 48.5993 25.0002 52.7993 22.9002C53.0993 22.7002 53.4993 22.7002 53.7993 22.7002C57.9993 22.7002 62.2993 22.7002 66.4993 22.7002C66.8993 22.7002 67.1993 22.8002 67.4993 22.9002C71.6993 25.0002 75.8993 27.1002 80.0993 29.2002C80.8993 29.5002 81.3993 30.3002 81.2993 31.1002C81.2993 33.2002 81.2993 35.3002 81.2993 37.4002C81.2993 38.5002 80.4993 39.3002 79.3993 39.3002C78.4993 39.3002 77.6993 38.7002 77.4993 37.9002C77.4993 37.7002 77.3993 37.5002 77.3993 37.3002C77.3993 36.0002 77.3993 34.7002 77.3993 33.4002V33.0002H66.5993C66.6993 33.4002 66.6993 33.8002 66.7993 34.2002C67.1993 37.5002 67.6993 40.8002 68.0993 44.1002C68.1993 44.8002 68.2993 45.6002 68.3993 46.3002C68.3993 46.5002 68.5993 46.7002 68.7993 46.8002C75.9993 48.7002 83.0993 50.7002 90.2993 52.6002C91.3993 52.7002 92.1993 53.7002 92.0993 54.8002C92.0993 56.8002 92.0993 58.9002 92.0993 60.9002C92.0993 62.0002 91.1993 62.8002 90.1993 62.8002C89.3993 62.8002 88.5993 62.2002 88.3993 61.4002C88.2993 61.2002 88.2993 60.9002 88.2993 60.7002C88.2993 59.3002 88.2993 57.9002 88.2993 56.4002H81.3993C81.3993 56.8002 81.3993 57.2002 81.3993 57.5002C81.3993 58.6002 81.3993 59.8002 81.3993 60.9002C81.3993 61.9002 80.5993 62.7002 79.5993 62.8002C78.6993 62.9002 77.7993 62.3002 77.5993 61.4002C77.5993 61.2002 77.4993 61.0002 77.4993 60.7002C77.4993 59.3002 77.4993 57.9002 77.4993 56.4002H69.7993C69.8993 57.0002 69.8993 57.6002 69.9993 58.1002C70.3993 61.1002 70.7993 64.1002 71.1993 67.1002C71.5993 70.2002 71.9993 73.4002 72.4993 76.5002C72.8993 79.5002 73.2993 82.4002 73.6993 85.4002C74.0993 88.4002 74.4993 91.3002 74.8993 94.3002C74.9993 94.7002 74.9993 95.0002 74.8993 95.4002C74.7993 96.2002 74.0993 96.8002 73.2993 96.9002C72.3993 97.0002 71.5993 96.5002 71.2993 95.7002C71.1993 95.5002 71.0993 95.4002 70.8993 95.3002C67.3993 93.4002 63.9993 91.5002 60.4993 89.6002C60.2993 89.5002 60.0993 89.5002 59.8993 89.6002C56.3993 91.5002 52.9993 93.4002 49.4993 95.3002C49.2993 95.4002 49.1993 95.5002 49.0993 95.7002C48.6993 96.6002 47.7993 97.0002 46.8993 96.9002C45.9993 96.7002 45.2993 95.9002 45.3993 94.9002C45.4993 93.9002 45.5993 92.9002 45.7993 91.9002C46.0993 89.4002 46.4993 87.0002 46.7993 84.5002C47.1993 81.9002 47.4993 79.2002 47.8993 76.6002C48.1993 74.0002 48.5993 71.4002 48.8993 68.7002C49.2993 66.1002 49.5993 63.5002 49.9993 60.8002C50.1993 59.4002 50.3993 58.0002 50.5993 56.6002C50.3993 56.7002 50.3993 56.6002 50.3993 56.5002ZM68.2993 82.2002C68.1993 82.1002 68.1993 82.1002 68.1993 82.1002C65.5993 80.4002 62.9993 78.6002 60.3993 76.9002C60.2993 76.8002 60.0993 76.8002 59.9993 76.9002C57.3993 78.6002 54.8993 80.3002 52.2993 82.0002C52.1993 82.1002 52.1993 82.1002 52.0993 82.2002C52.1993 82.3002 52.1993 82.3002 52.2993 82.3002C54.8993 83.7002 57.4993 85.1002 60.0993 86.5002C60.1993 86.6002 60.3993 86.6002 60.5993 86.5002C63.1993 85.1002 65.6993 83.7002 68.2993 82.3002C68.0993 82.3002 68.1993 82.3002 68.2993 82.2002ZM66.4993 69.4002L60.0993 63.9002L53.6993 69.4002C53.7993 69.5002 53.7993 69.5002 53.7993 69.5002C55.7993 70.9002 57.8993 72.2002 59.8993 73.6002C59.9993 73.7002 60.1993 73.7002 60.2993 73.6002C61.0993 73.0002 61.9993 72.5002 62.7993 71.9002L66.4993 69.4002ZM49.1993 29.1002L71.0993 29.2002C70.9993 29.1002 70.8993 29.1002 70.8993 29.1002C69.3993 28.3002 67.7993 27.6002 66.2993 26.8002C66.0993 26.7002 65.9993 26.7002 65.7993 26.7002C61.9993 26.7002 58.1993 26.7002 54.3993 26.7002C54.1993 26.7002 53.9993 26.7002 53.8993 26.8002C52.4993 27.5002 50.9993 28.2002 49.5993 29.0002C49.3993 29.0002 49.2993 29.1002 49.1993 29.1002ZM70.5993 92.4002C70.1993 89.7002 69.8993 87.1002 69.4993 84.4002L62.6993 88.1002L70.5993 92.4002ZM50.5993 84.5002C50.1993 87.2002 49.8993 89.8002 49.4993 92.5002L57.3993 88.2002L50.5993 84.5002ZM52.2993 71.6002L51.1993 79.5002C53.3993 78.0002 55.4993 76.6002 57.6993 75.2002L52.2993 71.6002ZM68.8993 79.5002C68.4993 76.8002 68.1993 74.2002 67.7993 71.6002L62.3993 75.2002L68.8993 79.5002ZM55.3993 56.5002C56.9993 57.9002 58.4993 59.2002 60.0993 60.5002L64.7993 56.5002H55.3993ZM53.9993 58.7002C53.5993 61.3002 53.2993 63.9002 52.9993 66.5002L58.0993 62.1002L53.9993 58.7002ZM67.1993 66.6002C66.7993 63.9002 66.4993 61.4002 66.1993 58.8002L62.0993 62.3002C63.7993 63.7002 65.3993 65.1002 67.1993 66.6002ZM57.4993 43.9002C58.0993 44.7002 58.7993 45.4002 59.3993 46.1002L59.4993 46.2002C59.8993 46.2002 60.2993 46.2002 60.6993 46.2002C60.8993 46.1002 60.9993 46.0002 61.0993 45.8002C61.5993 45.2002 62.1993 44.5002 62.6993 43.9002L60.0993 40.6002L57.4993 43.9002ZM60.0993 36.5002C60.9993 35.4002 61.7993 34.4002 62.5993 33.4002C62.5993 33.3002 62.6993 33.2002 62.6993 33.1002C62.5993 33.1002 62.4993 33.0002 62.3993 33.0002C60.7993 33.0002 59.2993 33.0002 57.6993 33.0002C57.5993 33.0002 57.5993 33.0002 57.3993 33.0002C57.3993 33.1002 57.4993 33.2002 57.4993 33.4002C57.5993 33.6002 57.7993 33.8002 57.8993 34.0002L60.0993 36.5002ZM69.1993 52.6002H75.3993L68.9993 50.8002C68.9993 51.5002 69.0993 52.0002 69.1993 52.6002ZM51.1993 50.8002L44.6993 52.6002H50.9993C51.0993 52.1002 51.0993 51.5002 51.1993 50.8002ZM56.3993 41.0002C57.0993 40.2002 57.7993 39.4002 58.3993 38.6002L56.9993 36.8002C56.7993 38.3002 56.5993 39.6002 56.3993 41.0002ZM54.8993 52.6002C55.1993 52.7002 55.4993 52.6002 55.6993 52.4002C56.1993 51.7002 56.7993 51.0002 57.3993 50.4002C57.4993 50.3002 57.4993 50.3002 57.5993 50.2002H55.2993L54.8993 52.6002ZM63.6993 41.0002C63.5993 39.6002 63.3993 38.2002 63.1993 36.8002C62.6993 37.4002 62.2993 38.0002 61.7993 38.5002C61.7993 38.6002 61.7993 38.7002 61.7993 38.7002C62.3993 39.5002 63.0993 40.2002 63.6993 41.0002ZM64.9993 50.1002H62.6993C63.3993 50.9002 63.9993 51.6002 64.5993 52.4002C64.7993 52.6002 65.0993 52.7002 65.3993 52.6002C65.1993 51.8002 65.0993 51.0002 64.9993 50.1002ZM60.0993 51.0002C59.5993 51.5002 59.1993 52.0002 58.7993 52.6002H61.4993L60.0993 51.0002Z" fill="#FF161F"/>
</svg>
