<svg width="145" height="145" viewBox="0 0 145 145" fill="none" xmlns="http://www.w3.org/2000/svg">
<path fill-rule="evenodd" clip-rule="evenodd" d="M112.738 91.4319C112.129 94.4756 110.79 97.3975 108.72 99.7107C106.407 102.389 103.363 104.215 99.9546 104.946C98.6154 105.189 97.2762 105.311 95.8152 105.189C94.1108 105.068 92.528 105.068 90.8236 105.189C89.1191 105.189 87.4147 105.311 85.7103 105.189C82.5448 105.068 79.5012 104.215 76.701 102.876C75.3618 102.146 74.1443 101.293 72.9269 100.319L72.8051 100.198C72.6834 100.076 72.4399 100.076 72.3181 100.198C72.3181 100.198 72.3181 100.198 72.3181 100.319C72.0747 100.563 71.7094 100.928 71.3442 101.172C69.7615 102.389 67.9353 103.363 65.9873 103.972C63.7959 104.702 61.6045 105.068 59.413 105.311C57.3433 105.433 55.2737 105.433 53.204 105.189C51.4995 105.068 49.7951 104.702 48.0906 104.215C46.0209 103.607 44.1947 102.633 42.4903 101.293C41.8815 100.806 41.2728 100.198 40.7858 99.589C39.6901 98.2498 39.2031 96.667 39.2031 95.0843C39.2031 91.7972 39.2031 88.3883 39.2031 85.1011C39.2031 80.353 39.2031 75.6049 39.2031 70.8568C39.2031 62.8215 39.2031 54.7863 39.2031 46.8728C39.2031 45.1683 39.8119 43.4639 40.9076 42.1246C41.3946 41.5159 41.8815 41.0289 42.4903 40.5419C43.7077 39.568 45.1687 38.7157 46.6297 38.2288C48.6993 37.4983 50.769 36.8895 52.9605 36.6461C54.7867 36.4026 56.6129 36.4026 58.4391 36.5243C60.7522 36.6461 62.9437 37.0113 65.1351 37.62C67.3265 38.2288 69.3962 39.2027 71.2224 40.5419C72.5616 41.5159 73.5356 42.8551 74.1443 44.4378C74.5096 45.29 74.6313 46.264 74.6313 47.238C74.6313 50.4034 74.6313 53.6906 74.6313 56.856C74.6313 57.4647 74.6313 58.1952 74.6313 58.8039C74.6313 58.9256 74.6313 58.9256 74.6313 59.0474C74.6313 59.1691 74.7531 59.2909 74.8748 59.2909C74.8748 59.2909 74.8748 59.2909 74.9966 59.2909C75.1183 59.2909 75.1183 59.2909 75.2401 59.1691L77.0663 58.3169C79.0142 57.3429 81.0839 56.7342 83.2753 56.369C85.345 56.0037 87.5364 55.882 89.7279 56.0037C92.6498 56.1255 95.5717 56.6125 98.3719 57.5864C100.32 58.3169 102.146 59.2909 103.607 60.6301C105.311 62.0911 106.285 64.1607 106.285 66.4739C106.285 69.1523 106.285 71.8308 106.285 74.3874C106.285 74.9962 106.529 75.6049 107.016 75.9702C108.842 77.4311 110.425 79.2573 111.399 81.4487C112.129 82.9097 112.616 84.4924 112.86 86.0751C112.981 86.8056 113.103 87.5361 113.103 88.3883C113.103 89.2405 112.981 90.3362 112.738 91.4319ZM43.099 95.3278C43.2208 96.1801 43.7077 97.0323 44.4382 97.641C45.4122 98.615 46.6297 99.3455 47.9689 99.8325C50.8908 100.928 53.9344 101.537 56.9781 101.537C58.6825 101.537 60.387 101.415 62.0914 101.05C63.5524 100.806 65.0134 100.441 66.4743 99.8325C67.6918 99.3455 68.7875 98.615 69.7615 97.7628C70.492 97.154 70.9789 96.3018 70.9789 95.3278C70.9789 94.5974 70.9789 93.9886 70.9789 93.2581C70.9789 93.0146 70.9789 92.8929 70.9789 92.6494C70.9789 92.5277 70.8572 92.4059 70.7354 92.4059H70.6137C70.492 92.4059 70.3702 92.5277 70.2485 92.5277C66.7178 94.2321 62.9437 95.2061 59.0478 95.5713C56.4911 95.6931 54.0562 95.5713 51.4995 95.0843C48.9428 94.4756 46.3862 93.6234 44.073 92.5277C43.9512 92.5277 43.8295 92.4059 43.8295 92.4059C43.7077 92.2842 43.4642 92.4059 43.4642 92.5277C43.4642 92.5277 43.4642 92.5277 43.4642 92.6494C43.4642 92.7712 43.4642 92.7712 43.4642 92.8929C43.4642 93.6234 43.4642 94.2321 43.4642 94.9626C43.099 94.9626 43.099 95.2061 43.099 95.3278ZM70.8572 84.3707C70.8572 83.8837 70.7354 83.3967 70.7354 82.9097C70.7354 82.4227 70.6137 82.301 70.1267 82.5445C69.031 83.0314 67.8135 83.5184 66.7178 84.0054C62.8219 85.4664 58.5608 85.9534 54.4214 85.5881C52.1082 85.3446 49.9168 84.8576 47.7254 84.1272C46.3862 83.6402 44.9252 83.0314 43.586 82.4227C43.2208 82.1792 42.9773 82.301 42.9773 82.7879C42.9773 83.5184 42.9773 84.3707 42.9773 85.1011C42.9773 86.0751 43.4642 87.0491 44.1947 87.6578C45.6557 88.8753 47.3601 89.8492 49.0646 90.458C51.4995 91.1885 54.0562 91.6754 56.6129 91.5537C58.0738 91.5537 59.413 91.4319 60.7522 91.3102C62.3349 91.0667 63.7959 90.7015 65.2569 90.2145C66.8396 89.6057 68.1788 88.8753 69.3962 87.7796C70.005 87.2926 70.3702 86.5621 70.492 85.7099C70.8572 85.3446 70.8572 84.8576 70.8572 84.3707ZM43.099 65.9869C43.2208 66.8392 43.7077 67.6914 44.3165 68.3001C45.2904 69.1523 46.3862 69.8828 47.6036 70.3698C50.5255 71.4655 53.5692 72.0743 56.7346 72.196C58.926 72.196 60.9957 71.9525 63.0654 71.4655C64.2829 71.222 65.5003 70.8568 66.7178 70.2481C67.9353 69.7611 68.9092 68.9089 69.8832 68.0566C70.3702 67.5696 70.7354 66.9609 70.7354 66.3522C70.7354 65.3782 70.7354 64.4042 70.7354 63.4303C70.7354 63.4303 70.7354 63.4303 70.7354 63.3085C70.7354 63.1868 70.6137 63.065 70.492 63.065H70.3702C70.2485 63.065 70.2485 63.1868 70.1267 63.1868C69.1527 63.552 68.1788 64.039 67.2048 64.4042C64.6481 65.3782 61.9697 65.9869 59.2913 66.2304C56.3694 66.4739 53.3257 66.2304 50.4038 65.6217C48.0906 65.013 45.7774 64.2825 43.586 63.1868C43.099 62.9433 42.9773 63.065 42.9773 63.552C42.9773 64.2825 42.9773 65.013 42.9773 65.6217C43.099 65.6217 43.099 65.8652 43.099 65.9869ZM70.005 44.3161C69.2745 43.4639 68.4223 42.8551 67.4483 42.3681C64.2829 40.7854 60.7522 39.9332 57.0998 39.9332C55.8824 39.9332 54.7867 40.055 53.5692 40.1767C51.4995 40.4202 49.5516 41.0289 47.6036 41.6377C46.7514 42.0029 45.8992 42.3681 45.1687 42.9769C44.4382 43.4639 43.8295 44.0726 43.3425 44.9248C43.099 45.2901 42.9773 45.777 42.9773 46.1423C42.9773 46.8728 43.2208 47.6032 43.7077 48.0902C44.56 49.0642 45.5339 49.7947 46.6297 50.4034C48.3341 51.2556 50.1603 51.8644 52.1082 52.2296C53.9344 52.5948 55.8824 52.7166 57.8303 52.5948C59.5348 52.5948 61.1175 52.3513 62.7002 51.9861C64.4046 51.6209 65.9873 51.0121 67.4483 50.1599C68.3005 49.6729 69.031 49.0642 69.7615 48.3337C70.3702 47.725 70.7354 46.8728 70.6137 46.0205C70.7354 45.4118 70.492 44.8031 70.005 44.3161ZM70.8572 54.1775C70.8572 54.0558 70.8572 53.8123 70.8572 53.6906C70.8572 53.2036 70.6137 53.2036 70.2485 53.3253H70.1267C66.4743 55.1515 62.5784 56.1255 58.5608 56.369C56.7346 56.4907 54.9084 56.369 53.0822 56.1255C50.8908 55.882 48.8211 55.2733 46.7514 54.5428C45.6557 54.1775 44.6817 53.6906 43.586 53.2036C43.2208 53.0818 43.099 53.2036 43.099 53.5688C43.099 54.421 43.099 55.2733 43.099 56.1255C43.099 57.0995 43.4642 57.9517 44.1947 58.5604C45.5339 59.7779 47.1166 60.6301 48.9428 61.2388C51.4995 62.0911 54.2997 62.578 56.9781 62.4563C58.3173 62.4563 59.6565 62.3345 60.9957 62.2128C62.5784 61.9693 64.0394 61.6041 65.6221 61.1171C66.9613 60.6301 68.3005 59.7779 69.518 58.9257C70.3702 58.3169 70.9789 57.2212 70.9789 56.1255C70.8572 55.2733 70.8572 54.6645 70.8572 54.1775ZM70.8572 73.2917C70.7354 72.8047 70.6137 72.683 70.005 72.9265C66.4743 74.6309 62.5784 75.7267 58.5608 75.9702C56.7346 76.0919 54.9084 75.9702 53.0822 75.7267C50.6473 75.3614 48.3341 74.7527 46.1427 73.9005C45.2904 73.5352 44.4382 73.17 43.586 72.8047C43.2208 72.683 43.099 72.8047 43.099 73.0482C43.099 73.9005 43.099 74.7527 43.099 75.6049C43.099 76.5789 43.586 77.5528 44.4382 78.1616C44.6817 78.4051 44.9252 78.5268 45.1687 78.6486C46.1427 79.379 47.2384 79.9878 48.4559 80.4748C51.1343 81.4487 54.0562 81.9357 56.9781 81.9357C58.3173 81.9357 59.6565 81.814 60.9957 81.5705C62.3349 81.327 63.7959 81.0835 65.1351 80.5965C66.5961 80.1095 67.9353 79.5008 69.031 78.5268C70.7354 77.3094 71.3442 75.2397 70.8572 73.2917ZM74.6313 94.5974C74.6313 94.8408 74.6313 95.0843 74.6313 95.4496C74.7531 96.4236 75.3618 97.3975 76.0923 98.0063C77.0663 98.7367 78.162 99.4672 79.2577 99.9542C80.4752 100.441 81.6926 100.806 83.0318 101.05C83.3971 101.172 83.8841 101.172 84.2493 101.293C84.371 101.415 84.6145 101.293 84.6145 101.172C84.6145 101.05 84.6145 100.928 84.6145 100.928C84.6145 100.806 84.4928 100.685 84.371 100.685C82.9101 99.102 81.6926 97.3975 80.8404 95.3278C80.7187 94.9626 80.4752 94.7191 80.1099 94.5974C78.4055 93.8669 76.701 93.1364 74.9966 92.5277C74.6313 92.4059 74.5096 92.5277 74.5096 92.8929C74.5096 93.2581 74.5096 93.7451 74.5096 94.1104C74.6313 94.1104 74.6313 94.3539 74.6313 94.5974ZM75.1183 86.3186C75.8488 88.023 77.4315 89.2405 79.2577 89.7275C79.3794 89.7275 79.5012 89.7275 79.6229 89.6057V89.484C79.6229 89.2405 79.6229 89.1188 79.6229 88.8753C79.7447 87.5361 79.8664 86.3186 79.9882 84.9794C80.1099 84.7359 79.9882 84.4924 79.7447 84.4924C79.7447 84.4924 79.7447 84.4924 79.6229 84.4924C78.8925 84.1272 78.162 83.7619 77.3098 83.3967C76.5793 83.0314 75.8488 82.7879 75.1183 82.4227C74.7531 82.301 74.6313 82.4227 74.6313 82.6662C74.6313 82.9097 74.5096 83.3967 74.5096 83.7619C74.6313 84.7359 74.7531 85.5881 75.1183 86.3186ZM74.6313 74.0222C74.6313 74.6309 74.6313 75.1179 74.7531 75.7267C74.8748 76.4571 75.1183 77.1876 75.6053 77.7963C76.0923 78.4051 76.701 78.8921 77.3098 79.2573C78.4055 79.9878 79.7447 80.4748 80.9621 80.84C81.0839 80.9618 81.3274 80.84 81.4491 80.5965C82.5448 79.1356 83.6406 77.6746 84.858 76.2136C85.2233 75.8484 85.1015 75.6049 84.6145 75.6049C84.0058 75.4832 83.2753 75.3614 82.6666 75.2397C80.1099 74.7527 77.5532 73.7787 75.3618 72.4395C75.2401 72.4395 75.2401 72.3178 75.1183 72.3178C74.9966 72.3178 74.8748 72.3178 74.7531 72.4395C74.7531 72.4395 74.7531 72.4395 74.7531 72.5612C74.7531 72.683 74.7531 72.683 74.7531 72.8047C74.6313 73.17 74.6313 73.5352 74.6313 74.0222ZM101.781 64.039C101.294 63.4303 100.685 62.9433 100.076 62.4563C98.6154 61.4823 97.0327 60.7518 95.3282 60.3866C92.2846 59.6561 89.1191 59.4126 85.9537 59.6561C84.4928 59.7779 82.9101 60.1431 81.4491 60.5084C80.1099 60.8736 78.8925 61.3606 77.675 61.9693C76.701 62.4563 75.9705 63.1868 75.2401 64.039C74.8748 64.526 74.6313 65.1347 74.6313 65.6217C74.6313 66.3522 74.8748 67.2044 75.4836 67.6914C76.4575 68.7871 77.7967 69.5176 79.1359 70.1263C82.0579 71.3438 85.2233 71.9525 88.5104 72.0743C89.4844 71.9525 90.4584 71.9525 91.5541 71.8308C93.3803 71.5873 95.0847 71.222 96.9109 70.6133C98.3719 70.1263 99.7111 69.5176 100.929 68.5436C101.416 68.1784 101.781 67.6914 102.146 67.2044C102.633 66.2304 102.633 64.8912 101.781 64.039ZM108.842 85.4664C107.99 81.9357 105.677 78.8921 102.39 77.1876C99.5893 75.7267 96.4239 75.3614 93.2585 76.0919C90.5801 76.7006 88.1452 78.1616 86.4407 80.2313C84.4928 82.5445 83.3971 85.5881 83.3971 88.6318C83.3971 89.8492 83.5188 91.0667 83.8841 92.2842C84.7363 95.3278 86.806 98.0063 89.4844 99.589C92.0411 101.293 95.2065 101.902 98.1284 101.415C101.172 100.928 104.094 99.3455 106.042 97.0323C107.868 94.9626 108.842 92.4059 109.086 89.7275C109.329 88.1448 109.207 86.8056 108.842 85.4664ZM96.3022 98.3715C90.9453 98.4932 86.5625 94.1104 86.4407 88.7535C86.4407 88.6318 86.4407 88.51 86.4407 88.3883C86.5625 82.9097 91.0671 78.5268 96.5457 78.6486C102.024 78.7703 106.285 83.1532 106.285 88.6318C106.285 93.9886 102.024 98.4932 96.5457 98.4932C96.5457 98.3715 96.4239 98.3715 96.3022 98.3715ZM96.3022 82.4227C93.015 82.4227 90.2149 84.9794 90.2149 88.3883C90.2149 88.51 90.2149 88.6318 90.2149 88.7535C90.2149 92.1624 93.015 94.8408 96.4239 94.8408C99.8328 94.8408 102.511 92.0407 102.511 88.6318C102.511 85.1011 99.7111 82.4227 96.3022 82.4227Z" fill="#FF161F"/>
</svg>
