<svg width="120" height="120" viewBox="0 0 120 120" fill="none" xmlns="http://www.w3.org/2000/svg">
<path fill-rule="evenodd" clip-rule="evenodd" d="M85.9996 81.5999C78.4996 83.5999 71.0996 85.5999 63.5996 87.5999C62.2996 87.9999 60.9996 88.2999 59.6996 88.6999H58.7996C58.5996 88.5999 58.4996 88.5999 58.2996 88.4999C49.6996 86.1999 41.1996 83.8999 32.5996 81.6999C31.6996 81.5999 30.9996 80.9999 30.5996 80.2999V31.4999H32.7996C32.9996 31.5999 33.0996 31.5999 33.2996 31.6999C41.6996 33.8999 50.1996 36.1999 58.5996 38.3999C58.9996 38.4999 59.2996 38.4999 59.6996 38.3999C67.4996 36.3999 75.1996 34.2999 82.9996 32.1999C83.8996 31.9999 84.6996 31.6999 85.4996 31.3999H87.6996V79.9999C87.4996 80.7999 86.7996 81.3999 85.9996 81.5999ZM34.1996 78.2999L57.3996 84.4999V80.9999L34.1996 74.7999V78.2999ZM56.8996 41.5999C50.3996 39.8999 43.7996 38.0999 37.2996 36.3999C36.2996 36.0999 35.2996 35.8999 34.1996 35.5999V71.1999L57.3996 77.3999C57.3996 77.1999 57.3996 76.9999 57.3996 76.8999C57.3996 65.3999 57.3996 53.7999 57.3996 42.2999C57.4996 41.9999 57.2996 41.6999 56.8996 41.5999C56.9996 41.5999 56.9996 41.5999 56.8996 41.5999ZM84.1996 35.5999L60.9996 41.7999V77.3999L84.1996 71.1999V35.5999ZM84.1996 74.8999C76.3996 76.8999 68.6996 78.9999 60.9996 80.9999V84.4999L84.1996 78.2999V74.8999ZM65.8996 49.3999C67.5996 48.8999 69.3996 48.3999 71.0996 47.8999C73.4996 47.1999 75.8996 46.4999 78.3996 45.7999C79.2996 45.4999 80.2996 45.9999 80.5996 46.9999C80.5996 47.1999 80.6996 47.2999 80.6996 47.4999C80.6996 48.3999 80.0996 49.0999 79.1996 49.2999C76.5996 50.0999 73.9996 50.7999 71.2996 51.4999C69.7996 51.8999 68.3996 52.3999 66.8996 52.6999C66.4996 52.7999 66.0996 52.7999 65.6996 52.5999C64.9996 52.2999 64.5996 51.6999 64.5996 50.8999C64.5996 50.2999 65.0996 49.5999 65.8996 49.3999ZM65.9996 56.4999C68.4996 55.7999 70.9996 55.0999 73.4996 54.3999C75.0996 53.8999 76.6996 53.4999 78.2996 52.9999C79.0996 52.7999 79.8996 53.0999 80.2996 53.7999C80.6996 54.4999 80.5996 55.2999 80.0996 55.8999C79.7996 56.1999 79.4996 56.3999 79.1996 56.4999C75.0996 57.6999 70.9996 58.8999 66.8996 59.9999C65.9996 60.2999 64.9996 59.7999 64.5996 58.8999C64.4996 58.6999 64.4996 58.4999 64.4996 58.1999C64.5996 57.3999 65.1996 56.6999 65.9996 56.4999ZM65.8996 63.6999C67.7996 63.0999 69.5996 62.5999 71.4996 62.0999C73.6996 61.4999 75.9996 60.7999 78.1996 60.1999C79.0996 59.7999 80.0996 60.2999 80.4996 61.1999C80.8996 62.0999 80.3996 63.0999 79.4996 63.4999C79.3996 63.4999 79.2996 63.5999 79.1996 63.5999C75.0996 64.7999 70.9996 65.8999 66.8996 67.0999C66.6996 67.1999 66.4996 67.1999 66.3996 67.1999C65.4996 67.1999 64.6996 66.5999 64.4996 65.6999C64.3996 64.7999 64.9996 63.9999 65.8996 63.6999ZM51.5996 67.0999C48.8996 66.2999 46.1996 65.5999 43.4996 64.7999C41.9996 64.3999 40.5996 63.9999 39.0996 63.4999C38.1996 63.1999 37.5996 62.2999 37.8996 61.2999C38.0996 60.5999 38.5996 60.1999 39.2996 59.9999C39.5996 59.8999 39.8996 59.9999 40.0996 59.9999C44.2996 61.1999 48.3996 62.3999 52.5996 63.5999C53.4996 63.8999 54.0996 64.7999 53.7996 65.7999C53.4996 66.7999 52.4996 67.3999 51.5996 67.0999ZM39.6996 52.8999C39.7996 52.8999 40.0996 52.9999 40.3996 53.0999C44.3996 54.1999 48.3996 55.3999 52.2996 56.4999C53.2996 56.6999 53.9996 57.5999 53.7996 58.5999C53.5996 59.4999 52.6996 60.1999 51.6996 59.9999C51.5996 59.9999 51.5996 59.9999 51.4996 59.8999C48.2996 58.9999 45.0996 58.0999 41.8996 57.1999C40.8996 56.8999 39.9996 56.6999 38.9996 56.3999C38.1996 56.0999 37.6996 55.2999 37.7996 54.3999C37.9996 53.4999 38.7996 52.8999 39.6996 52.8999ZM51.8996 52.8999C51.7996 52.8999 51.4996 52.7999 51.2996 52.7999C47.2996 51.6999 43.2996 50.4999 39.2996 49.3999C38.2996 49.1999 37.5996 48.2999 37.7996 47.2999C37.9996 46.2999 38.8996 45.6999 39.7996 45.7999C39.8996 45.7999 39.9996 45.7999 39.9996 45.8999C43.3996 46.7999 46.6996 47.7999 50.0996 48.7999C50.8996 48.9999 51.7996 49.2999 52.5996 49.4999C53.3996 49.7999 53.8996 50.5999 53.7996 51.3999C53.6996 52.2999 52.8996 52.8999 51.8996 52.8999Z" fill="#FF161F"/>
</svg>
