<svg width="120" height="120" viewBox="0 0 120 120" fill="none" xmlns="http://www.w3.org/2000/svg">
<path fill-rule="evenodd" clip-rule="evenodd" d="M91.4003 71.3999C91.4003 71.4999 91.4003 71.6999 91.4003 71.7999C91.1003 73.3999 90.1003 74.6999 88.7003 75.3999C86.6003 76.4999 84.5003 77.4999 82.3003 78.2999C78.2003 79.7999 74.0003 80.8999 69.7003 81.5999C67.9003 81.8999 66.1003 82.0999 64.2003 82.1999C63.0003 82.2999 61.8003 82.2999 60.6003 82.3999C60.5003 82.3999 60.3003 82.3999 60.2003 82.3999H56.6003C56.5003 82.3999 56.4003 82.3999 56.3003 82.3999C55.1003 82.2999 53.9003 82.1999 52.8003 82.0999C51.1003 81.9999 49.4003 81.6999 47.8003 81.3999C44.6003 80.7999 41.4003 79.9999 38.3003 78.8999C35.4003 77.8999 32.6003 76.6999 30.0003 75.2999C27.6003 73.9999 26.7003 70.9999 27.9003 68.5999C28.0003 68.2999 28.2003 68.0999 28.4003 67.8999C28.6003 67.5999 28.7003 67.2999 28.7003 66.9999C28.8003 65.0999 29.0003 63.1999 29.4003 61.2999C30.3003 57.0999 32.1003 53.0999 34.6003 49.6999C35.8003 47.9999 37.2003 46.4999 38.8003 45.0999C39.5003 44.3999 40.2003 43.7999 41.0003 43.1999C42.4003 42.1999 43.8003 41.2999 45.3003 40.4999C45.5003 40.3999 45.7003 40.1999 45.8003 39.9999C46.0003 39.3999 46.3003 38.8999 46.6003 38.2999C47.3003 36.8999 48.3003 35.5999 49.5003 34.4999C50.9003 33.1999 52.5003 32.1999 54.2003 31.4999C55.5003 30.9999 56.8003 30.6999 58.2003 30.4999C58.5003 30.4999 58.8003 30.3999 59.0003 30.3999H59.9003C60.0003 30.3999 60.1003 30.3999 60.1003 30.3999C61.6003 30.4999 63.1003 30.7999 64.6003 31.2999C66.5003 31.9999 68.2003 32.9999 69.6003 34.3999C71.2003 35.8999 72.4003 37.6999 73.2003 39.6999C73.3003 39.8999 73.5003 40.0999 73.7003 40.2999C74.3003 40.6999 75.0003 40.9999 75.6003 41.3999C78.2003 42.9999 80.6003 44.9999 82.6003 47.1999C84.3003 49.0999 85.7003 51.1999 86.9003 53.4999C89.1003 57.6999 90.2003 62.2999 90.3003 66.8999C90.3003 67.0999 90.4003 67.3999 90.5003 67.5999C91.2003 68.3999 91.5003 69.3999 91.6003 70.3999C91.6003 70.4999 91.6003 70.5999 91.6003 70.5999V70.7999C91.4003 71.1999 91.4003 71.2999 91.4003 71.3999ZM59.3003 34.0999C53.2003 34.0999 48.2003 38.9999 48.2003 45.1999C48.2003 51.2999 53.1003 56.2999 59.3003 56.2999C65.4003 56.2999 70.4003 51.3999 70.4003 45.1999C70.4003 39.0999 65.5003 34.0999 59.3003 34.0999ZM85.3003 59.6999C84.7003 57.6999 83.8003 55.7999 82.7003 53.8999C81.6003 52.0999 80.3003 50.3999 78.9003 48.8999C77.4003 47.3999 75.8003 46.0999 74.0003 44.8999C74.0003 44.9999 74.0003 44.9999 74.0003 45.0999C74.0003 45.9999 73.9003 46.8999 73.7003 47.7999C73.4003 49.1999 73.0003 50.4999 72.3003 51.7999C71.5003 53.2999 70.4003 54.6999 69.2003 55.7999C68.0003 56.8999 66.6003 57.7999 65.1003 58.4999C63.4003 59.1999 61.6003 59.5999 59.8003 59.6999C57.9003 59.7999 55.9003 59.4999 54.1003 58.7999C51.9003 57.8999 49.8003 56.4999 48.3003 54.6999C46.8003 52.9999 45.7003 50.9999 45.2003 48.8999C44.9003 47.6999 44.7003 46.4999 44.7003 45.1999C44.7003 44.9999 44.7003 44.8999 44.7003 44.7999C44.6003 44.7999 44.6003 44.8999 44.6003 44.8999C42.6003 46.2999 40.7003 47.8999 39.1003 49.6999C36.7003 52.3999 34.9003 55.4999 33.8003 58.8999C33.2003 60.5999 32.8003 62.3999 32.6003 64.0999C32.5003 64.5999 32.5003 65.1999 32.4003 65.6999H32.5003C33.0003 65.7999 33.5003 65.8999 34.0003 65.9999C35.9003 66.2999 37.8003 66.6999 39.7003 66.9999C40.9003 67.1999 42.2003 67.3999 43.4003 67.5999C44.6003 67.7999 45.7003 67.8999 46.9003 68.0999C48.0003 68.1999 49.1003 68.3999 50.2003 68.4999C51.4003 68.5999 52.6003 68.6999 53.8003 68.7999C55.3003 68.8999 56.8003 68.9999 58.3003 68.9999C60.0003 68.9999 61.8003 68.9999 63.5003 68.8999C64.3003 68.8999 65.1003 68.7999 65.9003 68.6999C67.0003 68.5999 68.1003 68.4999 69.2003 68.3999C70.4003 68.2999 71.6003 68.0999 72.8003 67.9999C74.1003 67.7999 75.3003 67.6999 76.6003 67.4999C78.0003 67.2999 79.5003 67.0999 80.9003 66.7999C82.4003 66.4999 84.0003 66.2999 85.5003 65.9999L86.7003 65.7999C86.3003 63.7999 85.9003 61.7999 85.3003 59.6999ZM86.3003 69.5999C86.2003 69.5999 86.2003 69.5999 86.1003 69.5999C85.6003 69.6999 85.0003 69.7999 84.5003 69.8999C83.2003 70.0999 81.9003 70.3999 80.5003 70.5999C79.3003 70.7999 78.1003 70.9999 76.9003 71.0999C75.8003 71.2999 74.6003 71.3999 73.5003 71.5999C72.5003 71.6999 71.6003 71.8999 70.6003 71.9999C69.7003 72.0999 68.7003 72.1999 67.8003 72.2999C66.9003 72.3999 65.9003 72.4999 65.0003 72.4999C63.5003 72.5999 62.0003 72.6999 60.5003 72.6999C59.0003 72.7999 57.4003 72.6999 55.9003 72.6999C54.8003 72.5999 53.8003 72.5999 52.7003 72.4999C51.5003 72.3999 50.3003 72.2999 49.1003 72.0999C47.6003 71.8999 46.2003 71.7999 44.7003 71.5999C43.1003 71.3999 41.6003 71.1999 40.0003 70.8999C38.2003 70.5999 36.4003 70.2999 34.6003 69.9999L32.2003 69.5999C31.9003 69.4999 31.5003 69.5999 31.3003 69.8999C31.1003 70.0999 31.0003 70.2999 30.9003 70.4999C30.6003 71.1999 30.9003 71.8999 31.6003 72.1999C33.3003 73.0999 35.0003 73.7999 36.8003 74.4999C42.5003 76.7999 48.5003 78.0999 54.6003 78.5999C56.1003 78.6999 57.6003 78.7999 58.6003 78.7999C61.1003 78.7999 63.6003 78.6999 66.0003 78.3999C67.9003 78.1999 69.8003 77.8999 71.6003 77.4999C75.5003 76.6999 79.3003 75.5999 83.0003 74.0999C84.4003 73.4999 85.8003 72.8999 87.2003 72.0999C87.5003 71.8999 87.8003 71.6999 87.9003 71.2999C88.1003 70.5999 87.7003 69.7999 87.0003 69.4999C86.7003 69.5999 86.5003 69.5999 86.3003 69.5999ZM59.3003 53.3999C54.8003 53.3999 51.1003 49.6999 51.1003 45.0999C51.1003 40.5999 54.8003 36.8999 59.4003 36.8999C63.9003 36.8999 67.6003 40.5999 67.6003 45.1999C67.5003 49.7999 63.8003 53.3999 59.3003 53.3999ZM59.3003 40.5999C56.7003 40.5999 54.7003 42.6999 54.7003 45.2999C54.7003 47.8999 56.8003 49.8999 59.4003 49.8999C62.0003 49.8999 64.0003 47.7999 64.0003 45.1999C64.0003 42.5999 61.9003 40.5999 59.3003 40.5999Z" fill="#FF161F"/>
</svg>
