<svg width="145" height="145" viewBox="0 0 145 145" fill="none" xmlns="http://www.w3.org/2000/svg">
<path fill-rule="evenodd" clip-rule="evenodd" d="M122.598 52.3512C122.598 54.9079 122.598 57.3429 122.598 59.8995C122.598 60.2648 122.477 60.63 122.355 60.9952C122.233 61.2387 122.111 61.4822 121.868 61.604C121.503 61.8475 121.016 62.091 120.65 62.091H120.529C120.285 62.091 120.042 61.9692 119.92 61.9692C119.676 61.8475 119.433 61.7257 119.189 61.4822C118.946 61.2387 118.824 60.8735 118.702 60.63C118.581 60.143 118.581 59.656 118.581 59.2908C118.581 58.1951 118.581 57.2211 118.581 56.1254V56.0036H118.459C118.459 56.0036 118.459 56.1254 118.337 56.1254C114.076 60.3865 109.815 64.7694 105.432 69.0305C105.067 69.3958 104.702 69.6392 104.215 69.6392C104.093 69.6392 103.971 69.6392 103.849 69.761H103.728C103.606 69.761 103.362 69.6392 103.241 69.6392C102.875 69.5175 102.51 69.3957 102.267 69.1523C100.075 66.9608 97.8837 64.7694 95.814 62.578L95.6923 62.4562H95.5706L95.4488 62.578L90.4572 67.4478C90.092 67.813 89.7267 67.9348 89.3615 68.0565C88.8745 68.1783 88.5093 68.0565 88.0223 67.9348C87.7788 67.813 87.5353 67.6913 87.4136 67.4478C87.1701 67.0826 86.9266 66.7173 86.9266 66.2303V66.1086C86.9266 65.9868 86.9266 65.8651 87.0483 65.7434C87.1701 65.2564 87.4135 64.8911 87.7788 64.5259C89.8485 62.4562 92.0399 60.3865 94.1096 58.3168C94.4748 57.9516 94.8401 57.7081 95.3271 57.7081C95.6923 57.7081 95.9358 57.7081 96.301 57.7081C96.6663 57.8298 97.0315 57.9516 97.275 58.3168C99.4664 60.5083 101.536 62.6997 103.728 64.8911L103.849 65.0129L115.415 53.3252H115.172C113.833 53.3252 112.493 53.447 111.154 53.447C110.545 53.447 109.937 53.3252 109.571 52.8382C109.328 52.5947 109.206 52.3512 109.084 52.1078C108.963 51.6208 108.963 51.1338 109.084 50.6468C109.206 50.2816 109.328 50.0381 109.693 49.7946C110.058 49.4293 110.667 49.3076 111.154 49.3076C114.076 49.1858 116.998 49.1858 119.92 49.0641C120.407 49.0641 120.772 49.1858 121.137 49.3076C121.381 49.4293 121.503 49.5511 121.624 49.6728C121.868 49.9163 121.99 50.1598 122.111 50.4033C122.598 50.8903 122.72 51.6208 122.598 52.3512ZM78.4043 67.3261C73.4127 69.3957 67.8124 68.9088 63.186 66.1086C60.3858 64.2824 58.1944 61.4822 57.0987 58.3168C55.516 54.1774 54.9072 49.6728 55.1507 45.29C55.1507 42.855 55.516 40.4201 56.1247 37.9852C57.7074 31.7761 63.0643 27.1497 69.5168 26.541C73.4127 25.9323 77.4303 26.6628 80.961 28.6107C84.7351 30.6804 87.4135 34.3328 88.3875 38.4722C88.9962 41.1506 89.2397 43.829 89.2397 46.5074C89.3615 50.5251 88.631 54.6644 87.2918 58.4386C85.7091 62.3345 82.5437 65.7434 78.4043 67.3261ZM83.3959 38.4722C82.4219 35.185 79.987 32.5066 76.6999 31.4109C74.8737 30.8021 72.9257 30.5586 71.0995 30.8021C66.1079 30.8021 61.8468 34.211 60.5076 38.9591C59.8988 41.6376 59.5336 44.316 59.6554 46.9944C59.6554 47.6031 59.7771 48.4554 59.7771 49.1858C59.8988 51.986 60.6293 54.7862 61.725 57.3429C62.8208 60.143 65.1339 62.3345 67.9341 63.3084C70.1255 63.9172 72.317 64.1607 74.6302 63.6737C76.5781 63.3084 78.4043 62.4562 79.7435 60.9952C80.961 59.656 81.935 58.1951 82.6654 56.4906C83.8829 53.447 84.3699 50.1598 84.3699 46.8727C84.4916 43.9507 84.1264 41.1506 83.3959 38.4722ZM62.699 69.274C63.4295 70.3697 63.0643 71.8307 62.0903 72.5612C60.0206 74.0221 57.8292 75.2396 55.6377 76.2135C53.081 77.431 50.4026 78.405 47.7242 79.1355C45.411 79.6224 43.7066 81.5704 43.4631 84.0053C43.2196 86.075 43.0978 88.1447 43.3413 90.2144C43.3413 91.6753 43.5848 93.1363 43.9501 94.5973C44.1936 95.5712 43.5848 96.6669 42.7326 97.0322C41.7586 97.5192 40.6629 97.1539 40.0542 96.3017C39.5672 95.5712 39.3237 94.5973 39.202 93.745C38.715 90.5796 38.5932 87.2925 38.9585 84.1271C39.202 81.3269 40.4194 78.7702 42.3674 76.8223C42.6109 76.5788 42.9761 76.3353 43.2196 76.0918C45.0458 75.1178 46.872 74.3874 48.8199 73.9004C52.5941 72.6829 56.2465 70.8567 59.6554 68.6653C60.5076 67.9348 61.9685 68.1783 62.699 69.274ZM66.7166 69.5175C68.0559 69.5175 69.1516 70.4915 69.1516 71.7089V71.8307C69.1516 73.4134 70.369 74.6308 71.9517 74.6308C73.5344 74.7526 74.8737 73.5351 74.9954 71.8307C74.9954 70.4915 75.9694 69.3957 77.3086 69.3957C77.5521 69.3957 77.9173 69.3957 78.1608 69.5175C79.013 69.761 79.5 70.6132 79.5 71.4654C79.5 73.2916 78.8913 74.9961 77.7956 76.457C77.6738 76.5788 77.6738 76.8223 77.6738 76.944C77.9173 81.3269 78.0391 85.8315 78.2826 90.2144C78.5261 94.3538 78.6478 98.4931 78.8913 102.511C79.013 105.676 79.1348 108.72 79.2565 111.885C79.3783 112.859 78.8913 113.711 78.2826 114.32C76.6999 115.659 75.2389 116.999 73.6562 118.46C72.6822 119.434 71.2213 119.555 70.1255 118.581L70.0038 118.46C68.4211 117.12 66.9601 115.659 65.3774 114.32C64.7687 113.711 64.4035 112.981 64.5252 112.129C64.7687 107.746 64.8905 103.485 65.1339 99.1019C65.2557 97.5192 65.2557 96.0582 65.3774 94.4755C65.6209 88.7534 65.8644 82.9096 66.2297 77.1875C66.2297 76.7005 66.1079 76.0918 65.8644 75.6048C65.1339 74.5091 64.647 73.1699 64.647 71.8307C64.5252 70.6132 65.3774 69.5175 66.7166 69.274C66.4732 69.5175 66.5949 69.5175 66.7166 69.5175ZM69.5168 111.764C70.2473 112.494 71.0995 113.224 71.9517 113.955C72.804 113.103 73.6562 112.372 74.3867 111.642C74.5084 111.52 74.5084 111.277 74.5084 111.155C74.3867 107.381 74.1432 103.728 74.0214 99.9541C73.7779 94.1103 73.5344 88.3882 73.1692 82.5444C73.1692 81.4487 73.0475 80.3529 73.0475 79.2572H70.7343C70.7343 79.5007 70.7343 79.8659 70.7343 80.1094C70.6125 83.0314 70.4908 85.8315 70.369 88.7534C70.0038 96.18 69.7603 103.728 69.3951 111.155C69.3951 111.52 69.3951 111.642 69.5168 111.764ZM84.6134 68.787C87.7788 70.8567 91.1877 72.5612 94.7183 73.7786C95.0836 73.9004 101.049 75.4831 102.267 76.944C103.971 78.6485 105.067 80.8399 105.432 83.1531C105.797 85.7098 105.919 88.2664 105.676 90.8231C105.554 92.1623 105.31 93.6233 105.189 94.9625C105.189 95.206 105.067 95.5712 104.945 95.8147C104.458 97.0322 103.241 97.5192 102.023 97.1539C100.806 96.667 100.197 95.4495 100.562 94.232C100.806 93.0146 101.049 91.9188 101.049 90.7014C101.171 88.8752 101.171 86.9272 101.049 85.101C101.049 83.7618 100.562 82.4226 99.8317 81.3269C99.223 80.3529 98.249 79.7442 97.1533 79.5007C92.1617 78.1615 87.4136 76.0918 83.1524 73.2916C82.7872 73.0481 82.4219 72.8046 82.0567 72.5612C81.0827 71.8307 80.8392 70.4915 81.5697 69.3957C81.5697 69.3957 81.5697 69.3958 81.5697 69.274C82.1784 68.3 83.5177 68.0565 84.6134 68.787Z" fill="#FF161F"/>
</svg>
