<svg width="120" height="120" viewBox="0 0 120 120" fill="none" xmlns="http://www.w3.org/2000/svg">
<path fill-rule="evenodd" clip-rule="evenodd" d="M80.1993 79.3C76.8993 81.6 73.4993 83.8 70.1993 86.1C69.1993 86.9 68.0993 87.5 66.8993 87.7H45.8993C45.7993 87.7 45.6993 87.6 45.4993 87.6C43.2993 87.3 41.5993 85.7 41.1993 83.5C41.0993 82.5 40.9993 81.5 40.9993 80.6C40.9993 80.4 40.9993 80.3 40.9993 80.1C40.7993 80.2 40.5993 80.4 40.3993 80.6C38.3993 82.7 36.3993 84.7 34.3993 86.8C33.4993 87.8 31.9993 87.8 30.9993 86.9C29.9993 86 29.9993 84.5 30.8993 83.5L30.9993 83.4C33.0993 81.2 35.1993 79.1 37.2993 76.9C37.4993 76.8 37.5993 76.5 37.3993 76.3C37.1993 75.9 36.8993 75.5 36.6993 75C34.4993 70.5 36.1993 65.1 40.3993 62.6C40.6993 62.5 40.8993 62.1 40.8993 61.8C40.8993 53.6 40.8993 45.4 40.8993 37.3C40.8993 36.9 40.8993 36.5 40.9993 36.1C41.1993 33.9 42.7993 32.1 44.9993 31.7C45.4993 31.6 46.0993 31.6 46.5993 31.5H76.5993C76.7993 31.5 76.8993 31.6 77.0993 31.6C79.1993 31.7 80.9993 33.3 81.3993 35.4C81.4993 35.6 81.4993 35.9 81.5993 36.1V77.4C81.4993 78.2 80.8993 78.9 80.1993 79.3ZM75.7993 78.4L70.7993 77.5C70.4993 79.2 70.0993 80.8 69.7993 82.5L75.7993 78.4ZM39.0993 70.9C38.9993 74.5 41.8993 77.4 45.4993 77.5C49.0993 77.6 51.9993 74.7 52.0993 71.1C52.1993 67.5 49.2993 64.6 45.6993 64.5C42.0993 64.5 39.0993 67.3 39.0993 70.9ZM76.0993 34.8C66.2993 34.8 56.5993 34.8 46.7993 34.8C45.5993 34.6 44.3993 35.5 44.1993 36.7C44.1993 36.9 44.1993 37.1 44.1993 37.3C44.1993 45.1 44.1993 53 44.1993 60.8V61.3C46.9993 61 49.6993 61.8 51.7993 63.6C53.8993 65.4 55.1993 68.1 55.1993 70.9C55.2993 73.5 54.1993 76 52.3993 77.8C50.2993 80 47.2993 81 44.2993 80.6C44.2993 81.4 44.1993 82.1 44.2993 82.8C44.3993 83.6 44.9993 84.3 45.7993 84.4C46.0993 84.5 46.3993 84.5 46.6993 84.5C52.9993 84.5 59.2993 84.5 65.4993 84.5H65.9993C65.9993 84.3 66.0993 84.2 66.0993 84.1C66.6993 81.2 67.2993 78.4 67.8993 75.5C67.9993 74.6 68.6993 74 69.5993 74C69.6993 74 69.7993 74 69.7993 74C71.5993 74.3 73.4993 74.6 75.2993 75C76.2993 75.2 77.2993 75.3 78.3993 75.5V73.5C78.3993 61.3 78.3993 49.2 78.3993 37C78.3993 35.5 77.8993 34.8 76.0993 34.8ZM73.4993 43.4C73.0993 43.5 72.6993 43.5 72.2993 43.5C68.6993 43.5 65.0993 43.5 61.4993 43.5C57.7993 43.5 54.0993 43.5 50.3993 43.5C50.0993 43.5 49.7993 43.5 49.4993 43.4C48.6993 43.3 48.1993 42.7 48.1993 41.9C48.1993 41.1 48.7993 40.4 49.5993 40.3C49.7993 40.3 50.0993 40.2 50.2993 40.2C57.7993 40.2 65.1993 40.2 72.6993 40.2C73.1993 40.1 73.7993 40.3 74.1993 40.6C74.5993 41 74.7993 41.6 74.6993 42.1C74.4993 42.9 74.0993 43.3 73.4993 43.4ZM49.6993 48.2C49.8993 48.2 49.9993 48.2 50.1993 48.2C57.5993 48.2 65.0993 48.2 72.4993 48.2C72.6993 48.2 72.9993 48.2 73.1993 48.2C73.9993 48.3 74.6993 49 74.5993 49.9C74.5993 50.8 73.8993 51.4 72.9993 51.4C72.7993 51.4 72.6993 51.4 72.4993 51.4H61.2993C57.5993 51.4 53.8993 51.4 50.1993 51.4C49.9993 51.4 49.6993 51.4 49.4993 51.4C48.6993 51.4 48.0993 50.7 48.0993 49.9V49.8C48.0993 48.9 48.7993 48.2 49.6993 48.2ZM48.9993 56.2C49.2993 56.1 49.5993 56.1 49.9993 56.1C57.4993 56.1 64.9993 56.1 72.5993 56.1C73.3993 56 74.1993 56.4 74.3993 57.2C74.6993 58 74.2993 58.9 73.4993 59.2C73.2993 59.3 73.0993 59.3 72.8993 59.3C72.6993 59.3 72.5993 59.3 72.3993 59.3H61.1993H49.6993H49.5993C48.6993 59.3 47.9993 58.6 47.9993 57.8C47.9993 57.6 47.9993 57.4 48.0993 57.2C48.1993 56.7 48.4993 56.4 48.9993 56.2ZM46.9993 66.8C47.4993 66.2 48.2993 66.1 48.8993 66.5C49.4993 66.8 49.7993 67.6 49.6993 68.3C49.6993 68.5 49.5993 68.6 49.5993 68.7C48.4993 70.8 47.4993 72.9 46.3993 75C46.0993 75.8 45.1993 76.2 44.3993 75.8C44.0993 75.7 43.8993 75.6 43.6993 75.3C42.8993 74.3 41.9993 73.2 41.1993 72.2C40.5993 71.5 40.6993 70.5 41.2993 69.9C41.9993 69.3 42.9993 69.5 43.5993 70.2C43.8993 70.6 44.1993 71 44.5993 71.4C45.1993 70.2 45.5993 69.2 46.1993 68.1C46.3993 67.6 46.6993 67.2 46.9993 66.8Z" fill="#FF161F"/>
</svg>
