<svg width="30" height="23" viewBox="0 0 30 23" fill="none" xmlns="http://www.w3.org/2000/svg">
<g clip-path="url(#clip0_277_46)">
<path fill-rule="evenodd" clip-rule="evenodd" d="M29.6069 8.49484C27.5853 10.5267 25.5534 12.5483 23.5216 14.5699C23.297 14.7741 23.1745 15.0702 23.1847 15.3663C23.1949 17.1837 23.1949 19.0011 23.1949 20.8185C23.1847 22.0131 22.6231 22.8197 21.6123 23.0749C21.4081 23.1158 21.2039 23.1464 20.9895 23.1362C14.7409 23.1362 8.49229 23.1362 2.23347 23.1362C0.885731 23.1362 0.0178678 22.3092 0.00765761 20.9512C-0.00255254 14.6924 -0.00255254 8.43358 0.00765761 2.17476C0.00765761 0.827022 0.88573 0 2.24368 0C8.46166 0 14.6796 0 20.8976 0C22.3372 0 23.1643 0.827023 23.1847 2.28707C23.1949 3.59397 23.1847 4.89066 23.1847 6.19756V6.71828C23.2459 6.74891 23.297 6.77954 23.3583 6.82038C24.1138 6.0342 24.8694 5.24802 25.6351 4.47204C26.1354 3.97175 26.3805 3.98196 26.891 4.48226C27.8099 5.39096 28.7186 6.29966 29.6273 7.21857C30.1276 7.70866 30.1276 7.97412 29.6069 8.49484ZM21.8676 2.35854C21.8676 1.58257 21.6021 1.32732 20.8261 1.32732C14.6796 1.32732 8.52292 1.32732 2.37641 1.32732C1.54939 1.32732 1.34519 1.53152 1.34519 2.34833C1.34519 4.26784 1.34519 6.17714 1.34519 8.08644C1.34519 12.3339 1.34519 16.5813 1.34519 20.8287C1.34519 21.5638 1.5596 21.8293 2.20284 21.8293C8.46166 21.8293 14.7307 21.8293 20.9895 21.8293C21.5409 21.8293 21.8472 21.5638 21.8574 21.0227C21.8778 19.481 21.8676 17.9392 21.8676 16.3975C21.8267 16.3771 21.7961 16.3567 21.7553 16.3362C21.2039 16.8876 20.673 17.4696 20.0808 17.9903C19.8562 18.1843 19.5295 18.3681 19.2436 18.3783C18.3451 18.4293 17.4364 18.4089 16.5379 18.3885C15.9559 18.3783 15.6904 18.0924 15.6904 17.5104C15.6802 16.6732 15.7109 15.8359 15.6802 14.9987C15.6598 14.5903 15.8232 14.2023 16.1295 13.9369C17.9469 12.1399 19.7541 10.3327 21.5511 8.50505C21.7246 8.31106 21.837 8.06602 21.8472 7.80055C21.888 5.99336 21.8778 4.17595 21.8676 2.35854ZM17.2015 14.7639C17.1097 14.866 17.0484 14.9987 17.0382 15.1416C17.0178 15.7543 17.028 16.3567 17.028 17.0612C17.6304 17.0612 18.1817 17.0918 18.7126 17.0509C18.9883 17.0305 19.2538 16.9182 19.458 16.7344C21.6021 14.6311 23.736 12.4972 25.8597 10.3837C25.9618 10.2816 26.0435 10.1795 26.115 10.0978C25.3901 9.37291 24.6856 8.67862 24.0015 7.99454C21.7655 10.2204 19.4784 12.487 17.2015 14.7639ZM26.3396 5.85041C25.921 6.22819 25.482 6.60597 25.0634 6.98374C25.7679 7.67803 26.4519 8.37232 27.1564 9.06661C27.5444 8.66841 27.9426 8.26001 28.3204 7.87202L26.3396 5.85041ZM18.6208 10.1183C18.437 10.1591 18.243 10.1795 18.049 10.1795C13.7199 10.1795 9.39078 10.1795 5.06168 10.1795C4.94937 10.1795 4.83706 10.1795 4.72474 10.1693C4.34697 10.1183 4.09172 9.93447 4.09172 9.51586C4.09172 9.09724 4.35718 8.91346 4.73496 8.87262C4.86769 8.86241 4.99021 8.86241 5.12294 8.86241H11.5962C13.7505 8.86241 15.9049 8.86241 18.0694 8.86241C18.243 8.86241 18.4676 8.81136 18.5901 8.89304C18.7943 9.03598 19.0087 9.24018 19.07 9.46481C19.1415 9.78132 18.9577 10.0468 18.6208 10.1183ZM18.5391 6.04441C18.3961 6.12609 18.1613 6.08525 17.9673 6.08525C15.8232 6.08525 13.679 6.08525 11.5451 6.08525C9.43162 6.08525 7.32833 6.08525 5.21483 6.08525C5.02084 6.08525 4.79622 6.1363 4.64306 6.05462C4.42865 5.9321 4.15298 5.7381 4.12235 5.5339C4.09172 5.3297 4.28571 5.04381 4.45928 4.88045C4.57159 4.76814 4.81664 4.76814 5.01063 4.76814C9.39078 4.75793 13.7709 4.75793 18.1511 4.76814C18.3247 4.76814 18.5595 4.74772 18.6616 4.84982C18.8454 5.0336 19.0496 5.30928 19.0394 5.5339C19.0292 5.70747 18.7433 5.92188 18.5391 6.04441ZM13.6484 14.2636C12.9848 14.2636 12.3313 14.2636 11.6676 14.2636C10.8508 14.2636 10.0238 14.2636 9.207 14.2636C7.75716 14.2636 6.30732 14.284 4.85748 14.2432C4.60222 14.2329 4.29592 14.0287 4.13256 13.8245C4.04066 13.702 4.13256 13.3242 4.26529 13.1915C4.42865 13.0384 4.72475 12.9669 4.95958 12.9669C6.02143 12.9465 7.08329 12.9567 8.14514 12.9567H13.2604C13.4034 12.9567 13.5463 12.9567 13.6893 12.9669C14.0977 13.0179 14.3427 13.2426 14.3121 13.6714C14.3019 14.0798 14.0466 14.2636 13.6484 14.2636ZM4.64306 17.0816C4.78601 17.0612 4.92895 17.0509 5.07189 17.0612C7.80821 17.0612 10.5445 17.0612 13.2808 17.0612C13.3115 17.0612 13.3421 17.0612 13.3727 17.0612C13.9956 17.0714 14.3121 17.296 14.3019 17.7248C14.2917 18.1536 13.9649 18.3885 13.3523 18.3987C11.9535 18.3987 10.5547 18.3987 9.14574 18.3987C7.798 18.3987 6.44005 18.3987 5.09231 18.3987C4.89832 18.3987 4.65327 18.4191 4.53075 18.317C4.33676 18.1434 4.13256 17.8984 4.10193 17.6533C4.05087 17.3266 4.32655 17.1326 4.64306 17.0816Z" fill="black"/>
</g>
<defs>
<clipPath id="clip0_277_46">
<rect width="30" height="23" fill="white"/>
</clipPath>
</defs>
</svg>
