<svg width="145" height="145" viewBox="0 0 145 145" fill="none" xmlns="http://www.w3.org/2000/svg">
<path fill-rule="evenodd" clip-rule="evenodd" d="M105.433 62.5778C105.312 66.4737 104.338 70.2479 102.633 73.7785C102.268 74.509 101.903 75.2395 101.537 75.9699C101.537 76.0917 101.416 76.0917 101.416 76.2134C101.294 76.3352 101.172 76.3352 101.05 76.3352C99.9547 75.9699 98.859 75.483 97.885 75.1177C97.7633 75.1177 97.6415 74.996 97.6415 74.8742C97.6415 74.8742 97.6415 74.8742 97.6415 74.7525C97.6415 74.6307 97.7633 74.509 97.7633 74.3872C99.346 71.5871 100.32 68.6652 100.929 65.4997C101.294 63.4301 101.416 61.2386 101.294 59.1689C101.05 54.6643 99.5895 50.4032 97.398 46.5073C95.4501 43.2202 92.6499 40.2982 89.4845 38.1068C86.8061 36.2806 83.8842 34.9414 80.8405 34.0892C79.2578 33.6022 77.5534 33.3587 75.9706 33.2369C69.7616 32.75 63.5525 34.3327 58.3174 37.8633C55.2738 39.8113 52.7171 42.3679 50.6474 45.2898C49.1864 47.3595 48.0907 49.6727 47.3602 52.1076C46.7515 54.0556 46.2645 56.0035 46.021 57.9515C45.7775 59.7777 45.7775 61.7256 46.021 63.5518C46.2645 66.5955 47.1167 69.6391 48.3342 72.4393C49.5517 74.996 51.1344 77.3091 52.9606 79.3788C53.2041 79.6223 53.3258 79.8658 53.5693 80.1093C53.6911 80.2311 53.6911 80.3528 53.5693 80.4746C53.3258 80.5963 53.0823 80.7181 52.8388 80.8398C51.9866 81.205 51.1344 81.5703 50.2822 81.9355C49.9169 82.0573 49.9169 82.0573 49.6734 81.8138C46.7515 78.6484 44.5601 74.996 43.2209 70.9783C42.4904 68.9086 42.0034 66.7172 41.7599 64.6475C40.9077 57.3427 42.4904 50.0379 46.508 43.9506C48.2125 41.2722 50.4039 38.7155 52.8388 36.6458C55.7607 34.0892 59.1696 32.1412 62.822 30.9238C64.8917 30.1933 66.9614 29.7063 69.1528 29.3411C71.2225 29.0976 73.2922 28.9758 75.3619 29.0976C77.4316 29.2193 79.623 29.5846 81.6927 30.0715C86.0756 31.1673 90.215 33.3587 93.7456 36.2806C96.3023 38.3503 98.4937 40.7852 100.32 43.5854C102.268 46.5073 103.607 49.6727 104.459 52.9599C104.946 54.7861 105.19 56.4905 105.312 58.3167C105.312 58.5602 105.312 58.8037 105.312 59.0472C105.312 59.1689 105.312 59.2907 105.312 59.4124V62.3343C105.433 62.3343 105.433 62.4561 105.433 62.5778ZM84.7364 51.3772H62.335C61.1176 51.3772 60.1436 50.4032 60.1436 49.1857C60.1436 47.9683 61.1176 46.9943 62.335 46.9943H84.7364C85.9538 46.9943 86.9278 47.9683 86.9278 49.1857C86.9278 50.4032 85.8321 51.3772 84.7364 51.3772ZM84.7364 59.2907H75.7272V74.3872C75.7272 75.6047 74.7532 76.5787 73.5357 76.5787C72.3183 76.5787 71.3443 75.6047 71.3443 74.3872V59.2907H62.335C61.1176 59.2907 60.1436 58.3167 60.1436 57.0992C60.1436 55.8818 61.1176 54.9078 62.335 54.9078H84.7364C85.9538 54.9078 86.9278 55.8818 86.9278 57.0992C86.9278 58.3167 85.8321 59.2907 84.7364 59.2907ZM44.8036 88.0228C44.9253 88.2663 45.0471 88.5098 45.2906 88.7533C45.4123 88.6316 45.534 88.6316 45.6558 88.5098C46.995 87.4141 48.3342 86.4401 49.7952 85.3444C51.1344 84.3704 52.5953 83.5182 54.178 83.153C56.0042 82.666 57.8304 82.5442 59.6566 82.7877C61.1176 83.0312 62.7003 83.3965 64.1612 83.8835C65.6222 84.3704 67.0832 84.7357 68.5441 84.9792C70.1268 85.3444 71.7095 85.3444 73.2922 85.2227C75.2402 84.9792 77.1881 84.8574 79.1361 84.9792C79.8665 84.9792 80.597 85.1009 81.3275 85.2227C82.4232 85.4662 83.3972 85.9532 84.2494 86.8054C84.3711 86.9271 84.6146 87.1706 84.7364 87.2924C84.8581 87.1706 84.8581 87.1706 84.9799 87.0489C86.1973 85.3444 87.6583 83.64 89.1193 82.179C89.9715 81.3268 90.8237 80.4746 91.7977 79.6223C92.6499 78.8919 93.6239 78.4049 94.7196 78.0396C96.424 77.5526 98.1285 77.9179 99.7112 78.7701C100.685 79.2571 101.294 80.3528 101.294 81.5703C101.294 82.4225 101.172 83.2747 100.929 84.0052C100.563 85.2227 99.9547 86.4401 99.346 87.6576C97.1545 91.4317 94.5979 95.0841 91.6759 98.3713C89.241 101.05 86.5626 103.485 83.7624 105.554C82.7884 106.285 81.8145 106.772 80.8405 107.259C79.5013 107.867 78.0403 108.233 76.5794 108.233C70.979 108.233 65.5005 108.233 59.9001 108.233H56.7347C56.7347 108.354 56.7347 108.476 56.7347 108.598C56.7347 108.963 56.8565 109.207 56.8565 109.572C57.1 110.911 56.4912 112.129 55.2738 112.859C54.665 113.224 53.9345 113.59 53.3258 113.955C51.9866 114.685 50.5256 115.538 49.1864 116.268C48.6995 116.633 48.0907 116.755 47.482 116.877C47.482 116.877 47.482 116.877 47.3602 116.877H46.508C46.3863 116.877 46.3863 116.877 46.2645 116.755C45.534 116.633 44.9253 116.268 44.4383 115.781C44.0731 115.416 43.8296 115.051 43.5861 114.564C41.3947 110.789 39.325 107.015 37.1335 103.241C35.5508 100.441 33.9681 97.6408 32.2637 94.7189C32.0202 94.2319 31.7767 93.7449 31.655 93.1362C31.655 93.0144 31.6549 93.0144 31.5332 92.8927V92.284C31.5332 92.1622 31.655 92.0405 31.655 92.0405C31.7767 90.9447 32.5072 89.9708 33.4811 89.4838C34.5769 88.8751 35.6726 88.2663 36.6466 87.6576C37.4988 87.1706 38.351 86.6836 39.2032 86.1966C39.812 85.8314 40.4207 85.5879 41.1512 85.5879C42.1251 85.4662 43.2209 85.8314 43.9513 86.5619C44.3166 87.1706 44.5601 87.6576 44.8036 88.0228ZM53.2041 102.754C53.3258 102.998 53.4476 103.241 53.5693 103.485C53.8128 103.85 54.178 104.093 54.5433 104.093C54.7868 104.093 55.152 104.093 55.3955 104.093C57.5869 104.093 59.9001 104.093 62.0916 104.093C66.4744 104.093 70.8573 104.093 75.1184 104.093C75.7272 104.093 76.3359 104.093 76.9446 104.093C78.2838 103.972 79.5013 103.485 80.4753 102.754C80.9622 102.389 81.3275 102.024 81.8145 101.658C84.1277 99.954 86.1973 98.006 88.267 95.9364C90.702 93.3797 92.8934 90.4578 94.7196 87.4141C95.5718 85.9532 96.3023 84.4922 96.911 83.0312C96.911 82.9095 97.0328 82.7877 97.0328 82.5443C96.3023 82.3008 95.4501 82.4225 94.7196 83.0312C93.3804 84.0052 92.1629 85.1009 91.1889 86.3184C89.3628 88.5098 87.5366 90.7013 85.7104 92.8927C84.7364 94.1102 83.6407 95.0841 82.3015 95.9364C80.9622 96.7886 79.3795 97.3973 77.6751 97.7626C76.3359 98.006 74.9967 98.1278 73.6575 98.1278C70.8573 98.1278 68.0571 98.2495 65.257 98.1278C65.1352 98.1278 65.0135 98.1278 64.8917 98.1278C64.6482 98.1278 64.5265 98.006 64.5265 97.7626C64.5265 97.2756 64.5265 96.7886 64.5265 96.1798C64.5265 95.5711 64.5265 94.9624 64.5265 94.3537C64.5265 94.1102 64.5265 93.9884 64.8917 93.9884C65.1352 93.9884 65.3787 93.9884 65.7439 93.9884H74.6314C76.4576 93.9884 78.1621 93.5014 79.623 92.5275C80.2318 92.1622 80.8405 91.6752 81.3275 91.0665C81.571 90.823 81.571 90.7013 81.3275 90.4578C81.084 90.2143 80.7188 89.9708 80.3535 89.7273C80.11 89.4838 79.7448 89.4838 79.5013 89.4838C78.6491 89.4838 77.6751 89.4838 76.8229 89.4838C75.4837 89.6055 74.1445 89.7273 72.6835 89.7273C71.1008 89.849 69.3963 89.7273 67.8136 89.362C65.257 88.7533 62.822 88.0228 60.3871 87.4141C59.0479 87.0489 57.8304 86.9271 56.4912 87.1706C55.0303 87.4141 53.6911 88.0228 52.5953 88.8751C51.1344 89.9708 49.6734 91.1882 48.0907 92.284C47.969 92.4057 47.8472 92.4057 47.7255 92.5275C47.482 92.6492 47.482 93.0144 47.6037 93.1362C47.7255 93.3797 47.8472 93.5014 47.969 93.7449C49.6734 96.6668 51.4996 99.7105 53.2041 102.754ZM36.0378 93.1362C36.0378 93.2579 36.1596 93.2579 36.1596 93.3797C39.812 99.7105 43.4644 106.163 47.1167 112.494C48.9429 111.642 50.6474 110.668 52.3518 109.45L41.3947 90.0925L36.0378 93.1362ZM49.9169 109.694C49.5517 110.302 48.8212 110.668 48.0907 110.668C47.7255 110.668 47.3602 110.546 46.995 110.302C46.7515 110.059 46.508 109.815 46.3863 109.572C45.6558 108.476 45.0471 107.381 44.4383 106.285C44.0731 105.676 44.0731 104.824 44.4383 104.215C44.9253 103.485 45.6558 103.119 46.3863 103.119C46.508 103.119 46.6298 103.119 46.8733 103.241C47.482 103.485 47.969 103.972 48.3342 104.58C48.9429 105.554 49.4299 106.528 50.0387 107.381C50.4039 108.111 50.4039 109.085 49.9169 109.694Z" fill="#FF161F"/>
</svg>
