<svg width="120" height="120" viewBox="0 0 120 120" fill="none" xmlns="http://www.w3.org/2000/svg">
<path fill-rule="evenodd" clip-rule="evenodd" d="M32.5996 84.9V30H49.9996V53.4C51.9996 51.5 54.0996 49.5 56.0996 47.5C58.7996 44.8 61.3996 42.1 64.0996 39.4C64.2996 39.2 64.4996 39.1 64.7996 39.1C65.9996 39.1 67.0996 39.1 68.2996 39.1V53.8L68.3996 53.9C68.5996 53.7 68.6996 53.5 68.8996 53.4C73.5996 48.8 78.2996 44.1 82.9996 39.5C83.1996 39.3 83.4996 39.1 83.7996 39.2C84.9996 39.2 86.2996 39.2 87.4996 39.2V84.9H32.5996ZM83.6996 43.9L83.5996 43.8C83.4996 44 83.3996 44.1 83.2996 44.3C78.5996 48.9 73.9996 53.5 69.2996 58.2C69.0996 58.3 68.8996 58.4 68.6996 58.5C67.4996 58.5 66.1996 58.5 64.9996 58.5C64.8996 58.5 64.7996 58.5 64.5996 58.5V44.2L64.4996 44.1C64.3996 44.2 64.2996 44.4 64.1996 44.5C59.9996 48.8 55.7996 53 51.6996 57.2C51.0996 58 49.9996 58.5 48.9996 58.4C48.2996 58.3 47.4996 58.3 46.7996 58.4C46.6996 58.4 46.4996 58.4 46.3996 58.4V33.7H36.3996V81.2H83.8996L83.6996 43.9ZM49.8996 66.6H46.2996V63H49.8996V66.6ZM49.8996 74.8H46.2996V71.2H49.8996V74.8ZM59.0996 74.8H55.4996V71.2H59.0996V74.8ZM55.4996 63H59.0996V66.6H55.4996V63ZM68.1996 66.6H64.5996V63H68.1996V66.6ZM68.1996 74.8H64.5996V71.2H68.1996V74.8ZM77.2996 66.6H73.6996V63H77.2996V66.6ZM77.2996 74.8H73.6996V71.2H77.2996V74.8Z" fill="#FF161F"/>
</svg>
