<svg width="120" height="120" viewBox="0 0 120 120" fill="none" xmlns="http://www.w3.org/2000/svg">
<path fill-rule="evenodd" clip-rule="evenodd" d="M25.5996 91.7002V59.7002C25.6996 59.6002 25.7996 59.6002 25.8996 59.6002H25.9996C48.9996 59.6002 69.1996 59.6002 92.1996 59.6002C92.2996 59.6002 92.4996 59.6002 92.5996 59.6002C92.5996 70.3002 92.7996 81.0002 92.7996 91.7002H25.5996ZM89.4996 62.7002H28.7996C28.6996 63.1002 28.7996 88.4002 28.7996 88.6002C29.1996 88.6002 89.2996 88.6002 89.4996 88.6002V62.7002ZM51.2996 80.4002C51.3996 80.4002 51.3996 80.4002 51.4996 80.4002H56.2996C56.3996 80.4002 56.4996 80.5002 56.4996 80.5002V80.6002C56.4996 81.8002 56.4996 83.1002 56.4996 84.3002V84.4002C56.4996 84.5002 56.3996 84.6002 56.2996 84.6002C56.1996 84.6002 56.1996 84.6002 56.0996 84.6002H51.3996C51.3996 84.6002 51.2996 84.6002 51.1996 84.6002C51.0996 84.6002 50.9996 84.6002 50.9996 84.5002V84.4002C50.9996 84.1002 50.9996 83.7002 50.9996 83.4002C50.9996 82.5002 50.9996 81.6002 50.9996 80.7002C50.9996 80.6002 50.9996 80.6002 50.9996 80.5002C51.0996 80.5002 51.0996 80.4002 51.2996 80.4002ZM56.2996 77.9002C56.1996 77.9002 56.1996 77.9002 56.0996 77.9002H51.2996C51.0996 77.9002 50.9996 77.9002 50.9996 77.6002C50.9996 76.3002 50.9996 74.9002 50.9996 73.6002C50.9996 73.4002 50.9996 73.3002 51.2996 73.3002H55.9996C56.0996 73.3002 56.0996 73.3002 56.1996 73.3002C56.3996 73.3002 56.3996 73.3002 56.3996 73.5002V73.6002V77.4002V77.5002C56.4996 77.8002 56.4996 77.9002 56.2996 77.9002C56.3996 77.9002 56.3996 77.9002 56.2996 77.9002ZM60.6996 66.5002H65.5996C65.7996 66.5002 65.8996 66.5002 65.8996 66.8002C65.8996 68.1002 65.8996 69.4002 65.8996 70.8002C65.8996 71.1002 65.8996 71.1002 65.5996 71.1002C64.6996 71.1002 64.2996 71.1002 63.3996 71.1002C62.4996 71.1002 61.6996 71.1002 60.7996 71.1002C60.4996 71.1002 60.4996 71.1002 60.4996 70.8002C60.4996 69.5002 60.4996 68.2002 60.4996 66.9002C60.3996 66.5002 60.3996 66.5002 60.6996 66.5002ZM60.5996 73.4002C60.6996 73.4002 60.6996 73.4002 60.7996 73.4002H65.4996C65.5996 73.4002 65.5996 73.4002 65.6996 73.4002C65.7996 73.4002 65.8996 73.5002 65.8996 73.5002C65.8996 73.5002 65.8996 73.5002 65.8996 73.6002C65.8996 74.9002 65.8996 76.3002 65.8996 77.6002C65.8996 77.8002 65.8996 77.9002 65.5996 77.9002C64.6996 77.9002 64.2996 77.9002 63.3996 77.9002H60.7996C60.3996 77.9002 60.3996 77.9002 60.3996 77.5002V73.7002C60.3996 73.6002 60.3996 73.6002 60.3996 73.5002C60.3996 73.5002 60.4996 73.4002 60.5996 73.4002ZM60.6996 80.4002H65.5996C65.6996 80.4002 65.7996 80.4002 65.7996 80.5002V80.6002V84.3002V84.4002C65.7996 84.5002 65.6996 84.6002 65.5996 84.6002C65.4996 84.6002 65.4996 84.6002 65.3996 84.6002H60.5996C60.3996 84.6002 60.2996 84.6002 60.2996 84.3002C60.2996 83.0002 60.2996 81.8002 60.2996 80.5002C60.3996 80.4002 60.4996 80.4002 60.6996 80.4002ZM69.5996 80.6002C69.5996 80.5002 69.5996 80.4002 69.6996 80.4002C69.7996 80.4002 69.7996 80.4002 69.8996 80.4002H74.6996C74.8996 80.4002 74.9996 80.4002 74.9996 80.7002C74.9996 82.0002 74.9996 83.3002 74.9996 84.5002C74.9996 84.7002 74.9996 84.8002 74.6996 84.8002C73.7996 84.8002 73.3996 84.8002 72.4996 84.8002H69.9996C69.8996 84.8002 69.8996 84.8002 69.7996 84.8002C69.5996 84.8002 69.5996 84.8002 69.5996 84.6002V84.5002C69.5996 83.3002 69.5996 82.1002 69.5996 80.8002C69.5996 80.8002 69.5996 80.7002 69.5996 80.6002ZM74.6996 77.9002H69.9996C69.5996 77.9002 69.5996 77.9002 69.5996 77.5002C69.5996 76.2002 69.5996 75.0002 69.5996 73.7002C69.5996 73.6002 69.5996 73.6002 69.5996 73.5002C69.5996 73.4002 69.6996 73.3002 69.7996 73.3002H69.9996H74.6996C74.7996 73.3002 74.7996 73.3002 74.8996 73.3002C74.9996 73.3002 75.0996 73.4002 75.0996 73.5002C75.0996 73.6002 75.0996 73.6002 75.0996 73.7002C75.0996 75.0002 75.0996 76.2002 75.0996 77.5002C74.9996 77.9002 74.9996 77.9002 74.6996 77.9002ZM74.8996 71.0002C74.7996 71.0002 74.7996 71.0002 74.6996 71.0002H69.9996C69.8996 71.0002 69.8996 71.0002 69.7996 71.0002C69.6996 71.0002 69.5996 70.9002 69.5996 70.9002C69.5996 70.9002 69.5996 70.9002 69.5996 70.8002V70.7002V66.9002C69.5996 66.8002 69.5996 66.8002 69.5996 66.7002C69.5996 66.6002 69.6996 66.5002 69.7996 66.5002C69.8996 66.5002 69.8996 66.5002 69.9996 66.5002H74.6996C74.7996 66.5002 74.7996 66.5002 74.8996 66.5002C74.9996 66.5002 75.0996 66.6002 75.0996 66.7002C75.0996 66.7002 75.0996 66.7002 75.0996 66.8002V66.9002V70.7002C75.0996 70.8002 75.0996 70.8002 75.0996 70.9002C75.0996 70.9002 74.9996 71.0002 74.8996 71.0002ZM78.8996 66.7002C78.8996 66.6002 78.9996 66.5002 79.0996 66.5002C79.1996 66.5002 79.1996 66.5002 79.2996 66.5002H83.9996C84.0996 66.5002 84.0996 66.5002 84.1996 66.5002C84.2996 66.5002 84.3996 66.6002 84.3996 66.7002V66.8002V70.7002V70.8002C84.3996 70.9002 84.2996 71.0002 84.1996 71.0002C84.0996 71.0002 84.0996 71.0002 83.9996 71.0002H79.3996C79.2996 71.0002 79.2996 71.0002 79.1996 71.0002C78.9996 71.0002 78.9996 71.0002 78.9996 70.8002V70.7002C78.9996 69.4002 78.9996 68.2002 78.9996 66.9002C78.8996 66.8002 78.8996 66.7002 78.8996 66.7002ZM79.1996 73.4002C80.0996 73.4002 80.7996 73.4002 81.5996 73.4002C82.3996 73.4002 83.0996 73.4002 83.8996 73.4002H84.0996C84.1996 73.4002 84.2996 73.4002 84.2996 73.5002C84.2996 73.6002 84.2996 73.6002 84.2996 73.7002V77.5002V77.6002C84.2996 77.8002 84.2996 77.9002 83.9996 77.9002H79.0996C78.8996 77.9002 78.7996 77.9002 78.7996 77.6002C78.7996 76.3002 78.7996 75.0002 78.7996 73.6002C78.9996 73.4002 78.9996 73.4002 79.1996 73.4002ZM79.2996 80.4002C81.0996 80.4002 82.3996 80.4002 84.0996 80.4002C84.3996 80.4002 84.3996 80.4002 84.3996 80.7002C84.3996 82.0002 84.3996 83.2002 84.3996 84.5002C84.3996 84.8002 84.3996 84.8002 84.0996 84.8002C83.1996 84.8002 82.5996 84.8002 81.6996 84.8002H79.2996C78.9996 84.8002 78.9996 84.8002 78.9996 84.5002C78.9996 83.2002 78.9996 82.0002 78.9996 80.7002C78.9996 80.5002 78.9996 80.4002 79.2996 80.4002ZM56.1996 71.0002H51.3996C51.0996 71.0002 51.0996 71.0002 51.0996 70.7002C51.0996 69.4002 51.0996 68.1002 51.0996 66.8002C51.0996 66.5002 51.0996 66.5002 51.3996 66.5002H56.0996C56.3996 66.5002 56.3996 66.5002 56.3996 66.8002C56.3996 68.1002 56.3996 69.4002 56.3996 70.7002C56.4996 71.0002 56.4996 71.0002 56.1996 71.0002ZM47.0996 84.8002C46.9996 84.8002 46.9996 84.8002 46.8996 84.8002H42.1996C42.0996 84.8002 42.0996 84.8002 41.9996 84.8002C41.7996 84.8002 41.7996 84.8002 41.7996 84.6002V84.5002V80.8002V80.7002C41.7996 80.5002 41.7996 80.5002 41.9996 80.5002C42.0996 80.5002 42.0996 80.5002 42.1996 80.5002H46.8996C47.2996 80.5002 47.2996 80.5002 47.2996 80.9002C47.2996 82.1002 47.2996 83.3002 47.2996 84.6002C47.2996 84.7002 47.2996 84.7002 47.2996 84.8002C47.1996 84.8002 47.0996 84.8002 47.0996 84.8002C46.9996 84.8002 46.9996 84.8002 47.0996 84.8002ZM46.9996 71.0002C46.8996 71.0002 46.8996 71.0002 46.7996 71.0002H42.0996C41.9996 71.0002 41.9996 71.0002 41.8996 71.0002C41.7996 71.0002 41.6996 70.9002 41.6996 70.8002C41.6996 70.8002 41.6996 70.8002 41.6996 70.7002C41.6996 69.4002 41.6996 68.0002 41.6996 66.7002C41.6996 66.5002 41.6996 66.5002 41.9996 66.5002C42.4996 66.5002 42.7996 66.5002 43.2996 66.5002H44.1996C44.9996 66.5002 45.8996 66.5002 46.6996 66.5002C46.7996 66.5002 46.7996 66.5002 46.8996 66.5002C46.9996 66.5002 47.0996 66.6002 47.0996 66.6002C47.0996 66.7002 47.0996 66.7002 47.0996 66.8002C47.0996 68.1002 47.0996 69.3002 47.0996 70.6002C47.0996 70.7002 47.0996 70.7002 47.0996 70.8002C47.1996 70.9002 47.0996 71.0002 46.9996 71.0002ZM42.0996 73.4002C42.9996 73.4002 43.3996 73.4002 44.2996 73.4002C45.1996 73.4002 45.9996 73.4002 46.8996 73.4002C47.1996 73.4002 47.1996 73.4002 47.1996 73.7002C47.1996 75.0002 47.1996 76.3002 47.1996 77.6002C47.1996 77.9002 47.1996 77.9002 46.8996 77.9002C45.0996 77.9002 43.7996 77.9002 42.0996 77.9002C41.7996 77.9002 41.7996 77.9002 41.7996 77.6002C41.7996 76.3002 41.7996 75.0002 41.7996 73.7002C41.7996 73.4002 41.7996 73.4002 42.0996 73.4002ZM37.6996 84.8002H32.8996C32.5996 84.8002 32.5996 84.8002 32.5996 84.5002C32.5996 83.3002 32.5996 82.0002 32.5996 80.8002C32.5996 80.5002 32.5996 80.5002 32.8996 80.5002C34.6996 80.5002 35.9996 80.5002 37.6996 80.5002C37.9996 80.5002 37.9996 80.5002 37.9996 80.8002C37.9996 82.1002 37.9996 83.3002 37.9996 84.6002C37.9996 84.8002 37.9996 84.8002 37.6996 84.8002ZM37.7996 71.0002H32.7996C32.5996 71.0002 32.4996 71.0002 32.4996 70.7002C32.4996 69.4002 32.4996 68.0002 32.4996 66.7002C32.4996 66.5002 32.4996 66.5002 32.6996 66.5002C33.5996 66.5002 34.4996 66.5002 35.3996 66.5002H37.4996C37.5996 66.5002 37.5996 66.5002 37.6996 66.5002C37.8996 66.5002 37.8996 66.5002 37.8996 66.7002V66.8002V70.6002C37.8996 70.7002 37.8996 70.7002 37.8996 70.8002C37.9996 70.9002 37.8996 71.0002 37.7996 71.0002ZM32.8996 73.4002C33.7996 73.4002 34.6996 73.4002 35.5996 73.4002H37.8996C37.9996 73.4002 38.0996 73.4002 38.0996 73.5002C38.0996 73.6002 38.0996 73.6002 38.0996 73.7002V77.5002V77.6002C38.0996 77.8002 38.0996 77.9002 37.7996 77.9002C35.9996 77.9002 34.6996 77.9002 32.8996 77.9002C32.5996 77.9002 32.5996 77.9002 32.5996 77.6002C32.5996 76.3002 32.5996 75.0002 32.5996 73.6002C32.5996 73.4002 32.5996 73.4002 32.8996 73.4002ZM77.7996 50.2002L77.3996 50.4002V57.0002C77.3996 57.4002 77.3996 57.4002 76.9996 57.4002H74.4996C74.3996 57.4002 74.3996 57.4002 74.2996 57.4002C74.1996 57.4002 74.0996 57.3002 74.0996 57.3002C74.0996 57.2002 74.0996 57.2002 74.0996 57.1002V50.7002H71.7996C71.7996 50.8002 71.7996 50.9002 71.7996 51.0002C71.7996 53.0002 71.7996 55.1002 71.7996 57.1002C71.7996 57.5002 71.7996 57.5002 71.3996 57.5002C70.5996 57.5002 69.7996 57.5002 68.9996 57.5002C68.8996 57.5002 68.8996 57.5002 68.7996 57.5002C68.5996 57.5002 68.5996 57.5002 68.5996 57.3002C68.5996 57.2002 68.5996 57.2002 68.5996 57.1002V50.7002H66.2996V57.1002C66.2996 57.5002 66.2996 57.5002 65.8996 57.5002H63.3996C63.2996 57.5002 63.2996 57.5002 63.1996 57.5002C63.0996 57.5002 62.9996 57.4002 62.9996 57.4002C62.9996 57.3002 62.9996 57.3002 62.9996 57.2002V50.8002H60.6996C60.6996 50.9002 60.6996 51.0002 60.6996 51.1002C60.6996 53.1002 60.6996 55.2002 60.6996 57.2002C60.6996 57.6002 60.6996 57.6002 60.2996 57.6002H57.7996C57.6996 57.6002 57.6996 57.6002 57.5996 57.6002C57.4996 57.6002 57.3996 57.5002 57.3996 57.5002C57.3996 57.4002 57.3996 57.4002 57.3996 57.3002V50.9002C56.5996 50.8002 55.8996 50.8002 55.0996 50.9002V57.3002C55.0996 57.7002 55.0996 57.7002 54.6996 57.7002H52.1996C52.0996 57.7002 52.0996 57.7002 51.9996 57.7002C51.8996 57.7002 51.8996 57.6002 51.8996 57.6002C51.8996 57.5002 51.8996 57.4002 51.8996 57.4002C51.8996 55.4002 51.8996 53.3002 51.8996 51.3002V51.0002H49.5996V57.4002C49.5996 57.8002 49.5996 57.8002 49.1996 57.8002H46.6996C46.3996 57.8002 46.3996 57.8002 46.3996 57.5002C46.3996 55.4002 46.3996 53.4002 46.3996 51.3002V51.0002H44.0996V57.4002C44.0996 57.8002 44.0996 57.8002 43.6996 57.8002H41.1996C41.0996 57.8002 41.0996 57.8002 40.9996 57.8002C40.8996 57.8002 40.7996 57.7002 40.7996 57.6002C40.7996 57.5002 40.7996 57.5002 40.7996 57.4002V50.9002C40.6996 50.8002 40.4996 50.8002 40.3996 50.7002C39.8996 50.5002 39.5996 50.1002 39.4996 49.6002C39.3996 49.1002 39.5996 48.5002 39.8996 48.1002C39.9996 48.0002 40.0996 47.9002 40.2996 47.9002C40.5996 47.9002 40.8996 47.7002 40.9996 47.4002V47.3002C41.0996 46.3002 41.2996 45.2002 41.5996 44.2002C42.2996 41.8002 43.4996 39.6002 45.0996 37.7002C46.7996 35.7002 48.7996 34.1002 51.1996 33.0002C52.6996 32.3002 54.2996 31.8002 55.9996 31.6002C56.6996 31.5002 57.4996 31.4002 58.1996 31.3002C58.9996 31.2002 59.7996 31.2002 60.5996 31.3002C62.2996 31.5002 63.9996 31.9002 65.5996 32.4002C67.3996 33.1002 68.9996 34.0002 70.4996 35.2002C73.3996 37.5002 75.4996 40.6002 76.5996 44.1002C76.8996 45.1002 77.0996 46.1002 77.1996 47.1002C77.1996 47.2002 77.1996 47.3002 77.1996 47.4002C77.1996 47.7002 77.4996 48.0002 77.8996 48.1002C78.3996 48.2002 78.6996 48.6002 78.6996 49.0002C78.9996 49.2002 78.5996 49.9002 77.7996 50.2002ZM74.0996 46.8002C73.8996 45.2002 73.3996 43.7002 72.6996 42.3002C71.3996 39.5002 69.1996 37.2002 66.4996 35.7002C63.1996 33.8002 59.2996 33.2002 55.6996 34.1002C49.8996 35.5002 45.4996 40.1002 44.2996 45.9002C44.1996 46.3002 44.1996 46.7002 44.0996 47.1002H74.0996C74.0996 47.0002 74.0996 46.9002 74.0996 46.8002ZM75.7996 27.1002C75.7996 27.1002 75.6996 27.1002 75.5996 27.1002C74.1996 27.1002 72.6996 27.1002 71.2996 27.1002C70.3996 27.1002 69.4996 27.0002 68.6996 26.8002C67.7996 26.6002 66.8996 26.3002 66.0996 25.8002C65.6996 25.6002 65.2996 25.3002 64.8996 25.1002C63.6996 24.4002 62.3996 24.1002 60.9996 24.1002C60.4996 24.1002 59.9996 24.1002 59.4996 24.0002C59.1996 24.0002 59.0996 23.9002 59.0996 23.6002V23.5002C59.0996 20.6002 59.0996 17.6002 59.0996 14.7002C59.0996 14.5002 59.0996 14.3002 59.1996 14.2002H62.1996C62.1996 14.2002 62.2996 14.2002 62.2996 14.3002C63.6996 14.8002 65.0996 15.5002 66.1996 16.5002C66.3996 16.7002 66.5996 16.8002 66.7996 17.0002C67.5996 17.7002 68.5996 18.1002 69.6996 18.2002C70.4996 18.3002 71.3996 18.3002 72.1996 18.3002C73.2996 18.3002 74.3996 18.3002 75.4996 18.3002C75.5996 18.3002 75.6996 18.3002 75.7996 18.3002C75.8996 18.3002 75.9996 18.4002 75.9996 18.5002C75.9996 18.6002 75.9996 18.7002 75.9996 18.8002V26.7002C75.9996 26.8002 75.9996 26.8002 75.9996 26.9002C76.0996 26.9002 75.9996 27.0002 75.7996 27.1002Z" fill="#FF161F"/>
</svg>
