<svg width="120" height="120" viewBox="0 0 120 120" fill="none" xmlns="http://www.w3.org/2000/svg">
<path fill-rule="evenodd" clip-rule="evenodd" d="M92.5992 75.0998C92.0992 77.5998 90.9992 79.9998 89.2992 81.8998C87.3992 84.0998 84.8992 85.5998 82.0992 86.1998C80.9992 86.3998 79.8992 86.4998 78.6992 86.3998C77.2992 86.2998 75.9992 86.2998 74.5992 86.3998C73.1992 86.3998 71.7992 86.4998 70.3992 86.3998C67.7992 86.2998 65.2992 85.5998 62.9992 84.4998C61.8992 83.8998 60.8992 83.1998 59.8992 82.3998L59.7992 82.2998C59.6992 82.1998 59.4992 82.1998 59.3992 82.2998C59.3992 82.2998 59.3992 82.2998 59.3992 82.3998C59.1992 82.5998 58.8992 82.8998 58.5992 83.0998C57.2992 84.0998 55.7992 84.8998 54.1992 85.3998C52.3992 85.9998 50.5992 86.2998 48.7992 86.4998C47.0992 86.5998 45.3992 86.5998 43.6992 86.3998C42.2992 86.2998 40.8992 85.9998 39.4992 85.5998C37.7992 85.0998 36.2992 84.2998 34.8992 83.1998C34.3992 82.7998 33.8992 82.2998 33.4992 81.7998C32.5992 80.6998 32.1992 79.3998 32.1992 78.0998C32.1992 75.3998 32.1992 72.5998 32.1992 69.8998C32.1992 65.9998 32.1992 62.0998 32.1992 58.1998C32.1992 51.5998 32.1992 44.9998 32.1992 38.4998C32.1992 37.0998 32.6992 35.6998 33.5992 34.5998C33.9992 34.0998 34.3992 33.6998 34.8992 33.2998C35.8992 32.4998 37.0992 31.7998 38.2992 31.3998C39.9992 30.7998 41.6992 30.2998 43.4992 30.0998C44.9992 29.8998 46.4992 29.8998 47.9992 29.9998C49.8992 30.0998 51.6992 30.3998 53.4992 30.8998C55.2992 31.3998 56.9992 32.1998 58.4992 33.2998C59.5992 34.0998 60.3992 35.1998 60.8992 36.4998C61.1992 37.1998 61.2992 37.9998 61.2992 38.7998C61.2992 41.3998 61.2992 44.0998 61.2992 46.6998C61.2992 47.1998 61.2992 47.7998 61.2992 48.2998C61.2992 48.3998 61.2992 48.3998 61.2992 48.4998C61.2992 48.5998 61.3992 48.6998 61.4992 48.6998C61.4992 48.6998 61.4992 48.6998 61.5992 48.6998C61.6992 48.6998 61.6992 48.6998 61.7992 48.5998L63.2992 47.8998C64.8992 47.0998 66.5992 46.5998 68.3992 46.2998C70.0992 45.9998 71.8992 45.8998 73.6992 45.9998C76.0992 46.0998 78.4992 46.4998 80.7992 47.2998C82.3992 47.8998 83.8992 48.6998 85.0992 49.7998C86.4992 50.9998 87.2992 52.6998 87.2992 54.5998C87.2992 56.7998 87.2992 58.9998 87.2992 61.0998C87.2992 61.5998 87.4992 62.0998 87.8992 62.3998C89.3992 63.5998 90.6992 65.0998 91.4992 66.8998C92.0992 68.0998 92.4992 69.3998 92.6992 70.6998C92.7992 71.2998 92.8992 71.8998 92.8992 72.5998C92.8992 73.2998 92.7992 74.1998 92.5992 75.0998ZM35.3992 78.2998C35.4992 78.9998 35.8992 79.6998 36.4992 80.1998C37.2992 80.9998 38.2992 81.5998 39.3992 81.9998C41.7992 82.8998 44.2992 83.3998 46.7992 83.3998C48.1992 83.3998 49.5992 83.2998 50.9992 82.9998C52.1992 82.7998 53.3992 82.4998 54.5992 81.9998C55.5992 81.5998 56.4992 80.9998 57.2992 80.2998C57.8992 79.7998 58.2992 79.0998 58.2992 78.2998C58.2992 77.6998 58.2992 77.1998 58.2992 76.5998C58.2992 76.3998 58.2992 76.2998 58.2992 76.0998C58.2992 75.9998 58.1992 75.8998 58.0992 75.8998H57.9992C57.8992 75.8998 57.7992 75.9998 57.6992 75.9998C54.7992 77.3998 51.6992 78.1998 48.4992 78.4998C46.3992 78.5998 44.3992 78.4998 42.2992 78.0998C40.1992 77.5998 38.0992 76.8998 36.1992 75.9998C36.0992 75.9998 35.9992 75.8998 35.9992 75.8998C35.8992 75.7998 35.6992 75.8998 35.6992 75.9998C35.6992 75.9998 35.6992 75.9998 35.6992 76.0998C35.6992 76.1998 35.6992 76.1998 35.6992 76.2998C35.6992 76.8998 35.6992 77.3998 35.6992 77.9998C35.3992 77.9998 35.3992 78.1998 35.3992 78.2998ZM58.1992 69.2998C58.1992 68.8998 58.0992 68.4998 58.0992 68.0998C58.0992 67.6998 57.9992 67.5998 57.5992 67.7998C56.6992 68.1998 55.6992 68.5998 54.7992 68.9998C51.5992 70.1998 48.0992 70.5998 44.6992 70.2998C42.7992 70.0998 40.9992 69.6998 39.1992 69.0998C38.0992 68.6998 36.8992 68.1998 35.7992 67.6998C35.4992 67.4998 35.2992 67.5998 35.2992 67.9998C35.2992 68.5998 35.2992 69.2998 35.2992 69.8998C35.2992 70.6998 35.6992 71.4998 36.2992 71.9998C37.4992 72.9998 38.8992 73.7998 40.2992 74.2998C42.2992 74.8998 44.3992 75.2998 46.4992 75.1998C47.6992 75.1998 48.7992 75.0998 49.8992 74.9998C51.1992 74.7998 52.3992 74.4998 53.5992 74.0998C54.8992 73.5998 55.9992 72.9998 56.9992 72.0998C57.4992 71.6998 57.7992 71.0998 57.8992 70.3998C58.1992 70.0998 58.1992 69.6998 58.1992 69.2998ZM35.3992 54.1998C35.4992 54.8998 35.8992 55.5998 36.3992 56.0998C37.1992 56.7998 38.0992 57.3998 39.0992 57.7998C41.4992 58.6998 43.9992 59.1998 46.5992 59.2998C48.3992 59.2998 50.0992 59.0998 51.7992 58.6998C52.7992 58.4998 53.7992 58.1998 54.7992 57.6998C55.7992 57.2998 56.5992 56.5998 57.3992 55.8998C57.7992 55.4998 58.0992 54.9998 58.0992 54.4998C58.0992 53.6998 58.0992 52.8998 58.0992 52.0998C58.0992 52.0998 58.0992 52.0998 58.0992 51.9998C58.0992 51.8998 57.9992 51.7998 57.8992 51.7998H57.7992C57.6992 51.7998 57.6992 51.8998 57.5992 51.8998C56.7992 52.1998 55.9992 52.5998 55.1992 52.8998C53.0992 53.6998 50.8992 54.1998 48.6992 54.3998C46.2992 54.5998 43.7992 54.3998 41.3992 53.8998C39.4992 53.3998 37.5992 52.7998 35.7992 51.8998C35.3992 51.6998 35.2992 51.7998 35.2992 52.1998C35.2992 52.7998 35.2992 53.3998 35.2992 53.8998C35.3992 53.8998 35.3992 54.0998 35.3992 54.1998ZM57.4992 36.3998C56.8992 35.6998 56.1992 35.1998 55.3992 34.7998C52.7992 33.4998 49.8992 32.7998 46.8992 32.7998C45.8992 32.7998 44.9992 32.8998 43.9992 32.9998C42.2992 33.1998 40.6992 33.6998 39.0992 34.1998C38.3992 34.4998 37.6992 34.7998 37.0992 35.2998C36.4992 35.6998 35.9992 36.1998 35.5992 36.8998C35.3992 37.1998 35.2992 37.5998 35.2992 37.8998C35.2992 38.4998 35.4992 39.0998 35.8992 39.4998C36.5992 40.2998 37.3992 40.8998 38.2992 41.3998C39.6992 42.0998 41.1992 42.5998 42.7992 42.8998C44.2992 43.1998 45.8992 43.2998 47.4992 43.1998C48.8992 43.1998 50.1992 42.9998 51.4992 42.6998C52.8992 42.3998 54.1992 41.8998 55.3992 41.1998C56.0992 40.7998 56.6992 40.2998 57.2992 39.6998C57.7992 39.1998 58.0992 38.4998 57.9992 37.7998C58.0992 37.2998 57.8992 36.7998 57.4992 36.3998ZM58.1992 44.4998C58.1992 44.3998 58.1992 44.1998 58.1992 44.0998C58.1992 43.6998 57.9992 43.6998 57.6992 43.7998H57.5992C54.5992 45.2998 51.3992 46.0998 48.0992 46.2998C46.5992 46.3998 45.0992 46.2998 43.5992 46.0998C41.7992 45.8998 40.0992 45.3998 38.3992 44.7998C37.4992 44.4998 36.6992 44.0998 35.7992 43.6998C35.4992 43.5998 35.3992 43.6998 35.3992 43.9998C35.3992 44.6998 35.3992 45.3998 35.3992 46.0998C35.3992 46.8998 35.6992 47.5998 36.2992 48.0998C37.3992 49.0998 38.6992 49.7998 40.1992 50.2998C42.2992 50.9998 44.5992 51.3998 46.7992 51.2998C47.8992 51.2998 48.9992 51.1998 50.0992 51.0998C51.3992 50.8998 52.5992 50.5998 53.8992 50.1998C54.9992 49.7998 56.0992 49.0998 57.0992 48.3998C57.7992 47.8998 58.2992 46.9998 58.2992 46.0998C58.1992 45.3998 58.1992 44.8998 58.1992 44.4998ZM58.1992 60.1998C58.0992 59.7998 57.9992 59.6998 57.4992 59.8998C54.5992 61.2998 51.3992 62.1998 48.0992 62.3998C46.5992 62.4998 45.0992 62.3998 43.5992 62.1998C41.5992 61.8998 39.6992 61.3998 37.8992 60.6998C37.1992 60.3998 36.4992 60.0998 35.7992 59.7998C35.4992 59.6998 35.3992 59.7998 35.3992 59.9998C35.3992 60.6998 35.3992 61.3998 35.3992 62.0998C35.3992 62.8998 35.7992 63.6998 36.4992 64.1998C36.6992 64.3998 36.8992 64.4998 37.0992 64.5998C37.8992 65.1998 38.7992 65.6998 39.7992 66.0998C41.9992 66.8998 44.3992 67.2998 46.7992 67.2998C47.8992 67.2998 48.9992 67.1998 50.0992 66.9998C51.1992 66.7998 52.3992 66.5998 53.4992 66.1998C54.6992 65.7998 55.7992 65.2998 56.6992 64.4998C58.0992 63.4998 58.5992 61.7998 58.1992 60.1998ZM61.2992 77.6998C61.2992 77.8998 61.2992 78.0998 61.2992 78.3998C61.3992 79.1998 61.8992 79.9998 62.4992 80.4998C63.2992 81.0998 64.1992 81.6998 65.0992 82.0998C66.0992 82.4998 67.0992 82.7998 68.1992 82.9998C68.4992 83.0998 68.8992 83.0998 69.1992 83.1998C69.2992 83.2998 69.4992 83.1998 69.4992 83.0998C69.4992 82.9998 69.4992 82.8998 69.4992 82.8998C69.4992 82.7998 69.3992 82.6998 69.2992 82.6998C68.0992 81.3998 67.0992 79.9998 66.3992 78.2998C66.2992 77.9998 66.0992 77.7998 65.7992 77.6998C64.3992 77.0998 62.9992 76.4998 61.5992 75.9998C61.2992 75.8998 61.1992 75.9998 61.1992 76.2998C61.1992 76.5998 61.1992 76.9998 61.1992 77.2998C61.2992 77.2998 61.2992 77.4998 61.2992 77.6998ZM61.6992 70.8998C62.2992 72.2998 63.5992 73.2998 65.0992 73.6998C65.1992 73.6998 65.2992 73.6998 65.3992 73.5998V73.4998C65.3992 73.2998 65.3992 73.1998 65.3992 72.9998C65.4992 71.8998 65.5992 70.8998 65.6992 69.7998C65.7992 69.5998 65.6992 69.3998 65.4992 69.3998C65.4992 69.3998 65.4992 69.3998 65.3992 69.3998C64.7992 69.0998 64.1992 68.7998 63.4992 68.4998C62.8992 68.1998 62.2992 67.9998 61.6992 67.6998C61.3992 67.5998 61.2992 67.6998 61.2992 67.8998C61.2992 68.0998 61.1992 68.4998 61.1992 68.7998C61.2992 69.5998 61.3992 70.2998 61.6992 70.8998ZM61.2992 60.7998C61.2992 61.2998 61.2992 61.6998 61.3992 62.1998C61.4992 62.7998 61.6992 63.3998 62.0992 63.8998C62.4992 64.3998 62.9992 64.7998 63.4992 65.0998C64.3992 65.6998 65.4992 66.0998 66.4992 66.3998C66.5992 66.4998 66.7992 66.3998 66.8992 66.1998C67.7992 64.9998 68.6992 63.7998 69.6992 62.5998C69.9992 62.2998 69.8992 62.0998 69.4992 62.0998C68.9992 61.9998 68.3992 61.8998 67.8992 61.7998C65.7992 61.3998 63.6992 60.5998 61.8992 59.4998C61.7992 59.4998 61.7992 59.3998 61.6992 59.3998C61.5992 59.3998 61.4992 59.3998 61.3992 59.4998C61.3992 59.4998 61.3992 59.4998 61.3992 59.5998C61.3992 59.6998 61.3992 59.6998 61.3992 59.7998C61.2992 60.0998 61.2992 60.3998 61.2992 60.7998ZM83.5992 52.5998C83.1992 52.0998 82.6992 51.6998 82.1992 51.2998C80.9992 50.4998 79.6992 49.8998 78.2992 49.5998C75.7992 48.9998 73.1992 48.7998 70.5992 48.9998C69.3992 49.0998 68.0992 49.3998 66.8992 49.6998C65.7992 49.9998 64.7992 50.3998 63.7992 50.8998C62.9992 51.2998 62.3992 51.8998 61.7992 52.5998C61.4992 52.9998 61.2992 53.4998 61.2992 53.8998C61.2992 54.4998 61.4992 55.1998 61.9992 55.5998C62.7992 56.4998 63.8992 57.0998 64.9992 57.5998C67.3992 58.5998 69.9992 59.0998 72.6992 59.1998C73.4992 59.0998 74.2992 59.0998 75.1992 58.9998C76.6992 58.7998 78.0992 58.4998 79.5992 57.9998C80.7992 57.5998 81.8992 57.0998 82.8992 56.2998C83.2992 55.9998 83.5992 55.5998 83.8992 55.1998C84.2992 54.3998 84.2992 53.2998 83.5992 52.5998ZM89.3992 70.1998C88.6992 67.2998 86.7992 64.7998 84.0992 63.3998C81.7992 62.1998 79.1992 61.8998 76.5992 62.4998C74.3992 62.9998 72.3992 64.1998 70.9992 65.8998C69.3992 67.7998 68.4992 70.2998 68.4992 72.7998C68.4992 73.7998 68.5992 74.7998 68.8992 75.7998C69.5992 78.2998 71.2992 80.4998 73.4992 81.7998C75.5992 83.1998 78.1992 83.6998 80.5992 83.2998C83.0992 82.8998 85.4992 81.5998 87.0992 79.6998C88.5992 77.9998 89.3992 75.8998 89.5992 73.6998C89.7992 72.3998 89.6992 71.2998 89.3992 70.1998ZM79.0992 80.7998C74.6992 80.8998 71.0992 77.2998 70.9992 72.8998C70.9992 72.7998 70.9992 72.6998 70.9992 72.5998C71.0992 68.0998 74.7992 64.4998 79.2992 64.5998C83.7992 64.6998 87.2992 68.2998 87.2992 72.7998C87.2992 77.1998 83.7992 80.8998 79.2992 80.8998C79.2992 80.7998 79.1992 80.7998 79.0992 80.7998ZM79.0992 67.6998C76.3992 67.6998 74.0992 69.7998 74.0992 72.5998C74.0992 72.6998 74.0992 72.7998 74.0992 72.8998C74.0992 75.6998 76.3992 77.8998 79.1992 77.8998C81.9992 77.8998 84.1992 75.5998 84.1992 72.7998C84.1992 69.8998 81.8992 67.6998 79.0992 67.6998Z" fill="#FF161F"/>
</svg>
