<svg width="120" height="120" viewBox="0 0 120 120" fill="none" xmlns="http://www.w3.org/2000/svg">
<path fill-rule="evenodd" clip-rule="evenodd" d="M84.8008 66.9998H34.2008C33.1008 66.9998 32.3008 66.0998 32.3008 65.0998V50.1998C32.3008 49.0998 33.2008 48.2998 34.2008 48.2998H84.7008C85.8008 48.2998 86.6008 49.1998 86.6008 50.1998V64.9998C86.7008 66.0998 85.8008 66.9998 84.8008 66.9998ZM82.8008 52.9998C82.8008 52.4998 82.4008 51.9998 81.8008 51.9998H37.1008C36.6008 51.9998 36.1008 52.3998 36.1008 52.9998V62.0998C36.1008 62.5998 36.5008 63.0998 37.1008 63.0998H81.8008C82.3008 63.0998 82.8008 62.6998 82.8008 62.0998C82.8008 62.1998 82.8008 52.9998 82.8008 52.9998ZM76.9008 59.8998C75.6008 59.8998 74.6008 58.7998 74.6008 57.5998C74.6008 56.3998 75.7008 55.2998 76.9008 55.2998C78.2008 55.2998 79.2008 56.3998 79.2008 57.5998C79.3008 58.8998 78.2008 59.8998 76.9008 59.8998ZM51.2008 59.8998C49.9008 59.8998 48.9008 58.7998 48.9008 57.5998C48.9008 56.3998 50.0008 55.2998 51.2008 55.2998C52.5008 55.2998 53.5008 56.3998 53.5008 57.5998C53.6008 58.8998 52.5008 59.8998 51.2008 59.8998ZM42.1008 59.8998C40.8008 59.8998 39.8008 58.7998 39.8008 57.5998C39.8008 56.3998 40.9008 55.2998 42.1008 55.2998C43.4008 55.2998 44.4008 56.3998 44.4008 57.5998C44.4008 58.7998 43.4008 59.8998 42.1008 59.8998ZM84.8008 44.9998H34.2008C33.1008 44.9998 32.3008 44.0998 32.3008 43.0998V28.1998C32.3008 27.0998 33.2008 26.2998 34.2008 26.2998H84.7008C85.8008 26.2998 86.6008 27.1998 86.6008 28.1998V43.0998C86.7008 44.1998 85.8008 44.9998 84.8008 44.9998ZM82.8008 31.0998C82.8008 30.5998 82.4008 30.0998 81.8008 30.0998H37.1008C36.6008 30.0998 36.1008 30.4998 36.1008 31.0998V40.1998C36.1008 40.6998 36.5008 41.1998 37.1008 41.1998H81.8008C82.3008 41.1998 82.8008 40.7998 82.8008 40.1998V31.0998ZM76.9008 37.9998C75.6008 37.9998 74.6008 36.8998 74.6008 35.6998C74.6008 34.4998 75.7008 33.3998 76.9008 33.3998C78.2008 33.3998 79.2008 34.4998 79.2008 35.6998C79.3008 36.9998 78.2008 37.9998 76.9008 37.9998ZM51.2008 37.9998C49.9008 37.9998 48.9008 36.8998 48.9008 35.6998C48.9008 34.4998 50.0008 33.3998 51.2008 33.3998C52.4008 33.3998 53.5008 34.4998 53.5008 35.6998C53.6008 36.9998 52.5008 37.9998 51.2008 37.9998ZM42.1008 37.9998C40.8008 37.9998 39.8008 36.8998 39.8008 35.6998C39.8008 34.4998 40.9008 33.3998 42.1008 33.3998C43.3008 33.3998 44.4008 34.4998 44.4008 35.6998C44.4008 36.9998 43.4008 37.9998 42.1008 37.9998ZM34.2008 83.5998H52.4008C53.1008 81.0998 55.1008 79.0998 57.6008 78.3998V72.1998C57.6008 71.0998 58.5008 70.2998 59.5008 70.2998C60.5008 70.2998 61.4008 71.1998 61.4008 72.1998V78.3998C63.9008 79.0998 65.9008 81.0998 66.6008 83.5998H84.7008C85.8008 83.5998 86.6008 84.3998 86.7008 85.4998C86.8008 86.5998 85.9008 87.3998 84.8008 87.4998H84.7008H66.7008C65.6008 91.3998 61.6008 93.6998 57.7008 92.6998C55.2008 91.9998 53.2008 89.9998 52.5008 87.4998H34.2008C33.1008 87.4998 32.3008 86.5998 32.3008 85.5998C32.3008 84.4998 33.2008 83.5998 34.2008 83.5998ZM59.6008 89.0998C61.5008 89.0998 63.1008 87.4998 63.1008 85.5998C63.1008 83.6998 61.5008 82.0998 59.6008 82.0998C57.7008 82.0998 56.1008 83.6998 56.1008 85.5998C56.1008 87.4998 57.6008 89.0998 59.6008 89.0998Z" fill="#FF161F"/>
</svg>
