<svg width="145" height="145" viewBox="0 0 145 145" fill="none" xmlns="http://www.w3.org/2000/svg">
<path fill-rule="evenodd" clip-rule="evenodd" d="M116.267 88.6314C116.267 92.4056 113.345 95.571 109.571 96.058C108.719 96.1797 107.989 96.1797 107.136 96.1797C106.649 96.1797 106.162 96.1797 105.797 96.1797C105.675 96.1797 105.432 96.3015 105.432 96.4232C103.849 100.319 99.4664 102.267 95.5705 100.684C94.2313 100.076 93.0138 99.2234 92.1616 97.8842C91.7963 97.3972 91.5528 96.9102 91.3093 96.3015C91.3093 96.1797 91.1876 96.058 91.0659 96.1797H90.9441C80.7174 96.1797 70.4907 96.1797 60.264 96.1797C60.0205 96.1797 59.8988 96.3015 59.777 96.4232C58.8031 98.8581 56.6116 100.684 54.0549 101.05C50.646 101.658 47.2371 99.8321 45.8979 96.545C45.7762 96.1797 45.5327 96.058 45.1675 96.058C44.0717 96.058 42.976 96.058 42.002 96.058C38.7149 95.8145 36.0365 93.5013 35.306 90.3359C35.1842 89.6054 35.0625 88.9967 35.0625 88.2662C35.0625 87.5357 35.0625 86.8052 35.0625 86.0748H40.1759C40.1759 86.3182 40.1759 86.5617 40.1759 86.6835C40.1759 87.414 40.1759 88.2662 40.1759 88.9967C40.2976 90.2141 41.3933 91.0664 42.6108 91.0664C43.5848 91.0664 44.5587 91.0664 45.5327 91.0664C45.6544 91.0664 45.7762 90.9446 45.7762 90.8229C46.7502 88.3879 48.6981 86.6835 51.2548 86.1965C54.9072 85.466 58.5596 87.414 59.8988 90.8229C59.8988 90.9446 60.0205 91.0664 60.264 91.0664C67.0818 91.0664 73.7779 91.0664 80.5957 91.0664H80.8392V90.7011C80.8392 78.283 80.8392 65.8649 80.8392 53.5685C80.8392 52.1075 79.7434 50.89 78.2825 50.89C78.1607 50.89 78.1607 50.89 78.039 50.89C63.7947 50.89 49.6721 50.89 35.4277 50.89H35.0625V45.8984H35.306C49.5503 45.8984 63.7947 45.8984 78.039 45.8984C81.5696 45.8984 84.735 48.2116 85.5873 51.6205C85.709 52.2293 85.8308 52.9597 85.8308 53.5685C85.8308 55.8816 85.8308 58.3166 85.8308 60.6298V60.8732H86.196C91.0659 60.8732 95.814 60.8732 100.684 60.8732C102.875 60.7515 105.067 61.7255 106.528 63.4299C107.136 64.1604 107.623 64.8909 108.232 65.7431C110.545 69.152 112.858 72.4392 115.172 75.8481C116.024 77.0655 116.389 78.4047 116.389 79.8657C116.267 82.7876 116.389 85.7095 116.267 88.6314ZM52.8375 91.0664C51.4983 91.0664 50.2808 92.1621 50.4026 93.623C50.5243 95.084 51.4983 96.1797 52.9592 96.058C54.2984 96.058 55.3942 94.9623 55.3942 93.5013C55.3942 92.1621 54.2984 91.0664 52.8375 91.0664ZM98.3706 96.058C99.7099 96.058 100.927 94.8405 100.806 93.5013C100.684 92.1621 99.5881 90.9446 98.2489 91.0664C96.9097 91.0664 95.814 92.1621 95.814 93.5013C95.814 94.8405 96.9097 96.058 98.3706 96.058ZM110.667 78.4047C108.11 74.6306 105.554 70.8565 102.997 67.2041C102.51 66.3518 101.536 65.8649 100.562 65.9866C95.814 65.9866 90.9441 65.9866 86.196 65.9866H85.8308V91.0664H86.0742C87.657 91.0664 89.2397 91.0664 90.8224 91.0664C91.0659 91.0664 91.1876 90.9446 91.3093 90.8229C92.6486 87.414 96.3009 85.466 99.9533 86.3183C102.388 86.8052 104.458 88.5097 105.432 90.9446C105.432 91.0664 105.675 91.1881 105.797 91.1881C106.771 91.1881 107.745 91.1881 108.597 91.1881C108.841 91.1881 109.206 91.1881 109.45 91.0664C110.545 90.7011 111.276 89.7272 111.154 88.6314C111.154 85.8313 111.154 83.1528 111.154 80.3527C111.276 79.6222 111.032 78.8917 110.667 78.4047ZM35.0625 55.8816H70.6125V60.8732H35.0625V55.8816ZM35.0625 80.9614V75.9698H50.2808V80.9614H35.0625ZM35.0625 65.9866H60.3858V70.9782H35.0625V65.9866Z" fill="#FF161F"/>
</svg>
