<svg width="120" height="120" viewBox="0 0 120 120" fill="none" xmlns="http://www.w3.org/2000/svg">
<path fill-rule="evenodd" clip-rule="evenodd" d="M59.4004 32.6001H60.1004C60.1004 32.6001 60.2004 32.6001 60.2004 32.7001C62.1004 33.3001 64.0004 34.0001 65.9004 34.6001C74.6004 37.6001 83.3004 40.5001 92.0004 43.5001C95.6004 44.7001 99.2004 45.9001 102.7 47.1001C103.5 47.3001 104.2 47.9001 104.5 48.6001V49.4001C104.3 50.1001 103.8 50.6001 103.1 50.8001C98.4004 52.4001 93.7004 54.1001 89.0004 55.7001C88.7004 55.8001 88.5004 56.0001 88.6004 56.3001C88.6004 62.3001 88.6004 68.3001 88.6004 74.3001C88.6004 74.4001 88.6004 74.5001 88.6004 74.7001C88.6004 75.6001 87.8004 76.4001 86.9004 76.5001C86.7004 76.5001 86.4004 76.5001 86.2004 76.5001C82.8004 76.7001 79.4004 77.4001 76.2004 78.5001C71.3004 80.3001 66.8004 82.8001 62.7004 86.1001C62.0004 86.8001 61.2004 87.4001 60.3004 87.8001H59.5004C59.2004 87.6001 58.9004 87.5001 58.6004 87.3001C55.5004 84.8001 52.1004 82.7001 48.5004 80.9001C44.2004 78.8001 39.6004 77.3001 34.8004 76.6001C34.0004 76.5001 33.3004 76.4001 32.5004 76.3001C31.5004 76.2001 30.7004 75.3001 30.8004 74.3001C30.8004 68.3001 30.8004 62.3001 30.8004 56.3001C30.8004 56.1001 30.7004 55.8001 30.4004 55.8001C29.2004 55.4001 27.9004 54.9001 26.7004 54.5001L23.9004 53.5001C23.9004 53.6001 23.9004 53.7001 23.9004 53.8001C23.9004 58.4001 23.9004 63.0001 23.9004 67.7001C23.8004 68.0001 24.1004 68.4001 24.4004 68.5001C27.5004 69.8001 28.9004 73.4001 27.6004 76.5001C26.3004 79.6001 22.7004 81.0001 19.6004 79.7001C16.5004 78.4001 15.1004 74.8001 16.4004 71.7001C17.0004 70.2001 18.3004 69.0001 19.8004 68.4001C20.0004 68.4001 20.2004 68.2001 20.1004 67.9001C20.1004 62.8001 20.1004 57.7001 20.1004 52.5001C20.1004 52.3001 20.0004 52.1001 19.8004 52.1001C18.7004 51.7001 17.6004 51.3001 16.6004 51.0001C15.8004 50.8001 15.1004 50.2001 14.9004 49.5001V48.7001C15.2004 48.0001 15.8004 47.4001 16.5004 47.2001C21.5004 45.5001 26.6004 43.8001 31.6004 42.1001L53.8004 34.5001C55.7004 33.9001 57.6004 33.2001 59.4004 32.6001ZM22.6004 49.1001C22.9004 49.2001 23.0004 49.3001 23.2004 49.3001C28.9004 51.3001 34.7004 53.3001 40.4004 55.3001C46.8004 57.5001 53.1004 59.7001 59.5004 62.0001C59.7004 62.1001 59.9004 62.1001 60.1004 62.0001C68.0004 59.3001 75.8004 56.5001 83.7004 53.8001C88.0004 52.3001 92.2004 50.8001 96.5004 49.3001C96.6004 49.3001 96.8004 49.2001 97.0004 49.1001L96.5004 49.0001L78.7004 42.9001C72.5004 40.8001 66.4004 38.7001 60.2004 36.6001C59.9004 36.5001 59.6004 36.5001 59.3004 36.6001C56.5004 37.6001 53.7004 38.5001 50.9004 39.5001C43.5004 42.0001 36.2004 44.5001 28.8004 47.0001C26.8004 47.7001 24.8004 48.4001 22.6004 49.1001ZM84.9004 57.3001C84.8004 57.3001 84.7004 57.4001 84.6004 57.4001C82.0004 58.3001 79.5004 59.2001 76.9004 60.1001C71.4004 62.0001 65.9004 63.9001 60.5004 65.8001C60.0004 66.0001 59.5004 66.0001 59.0004 65.8001C51.0004 63.0001 43.0004 60.2001 35.0004 57.4001C34.9004 57.4001 34.7004 57.3001 34.6004 57.3001V72.8001C43.8004 74.1001 52.5004 77.8001 59.9004 83.6001C67.3004 77.8001 75.4004 73.7001 84.9004 72.9001V57.3001ZM24.4004 74.1001C24.4004 72.8001 23.4004 71.7001 22.1004 71.7001C20.8004 71.7001 19.7004 72.7001 19.7004 74.0001C19.7004 75.3001 20.7004 76.4001 22.0004 76.4001C23.4004 76.5001 24.4004 75.4001 24.4004 74.1001Z" fill="#FF161F"/>
</svg>
