<svg width="145" height="145" viewBox="0 0 145 145" fill="none" xmlns="http://www.w3.org/2000/svg">
<path fill-rule="evenodd" clip-rule="evenodd" d="M97.6407 96.5454C93.623 99.3455 89.4837 102.024 85.466 104.824C84.2486 105.798 82.9093 106.529 81.4484 106.772H55.8816C55.7599 106.772 55.6381 106.65 55.3947 106.65C52.7162 106.285 50.6465 104.337 50.1596 101.659C50.0378 100.441 49.9161 99.2238 49.9161 98.1281C49.9161 97.8846 49.9161 97.7628 49.9161 97.5193C49.6726 97.6411 49.4291 97.8846 49.1856 98.1281C46.7507 100.685 44.3157 103.12 41.8808 105.676C40.7851 106.894 38.9589 106.894 37.7414 105.798C36.524 104.702 36.524 102.876 37.6197 101.659L37.7414 101.537C40.2981 98.8586 42.8548 96.3019 45.4114 93.6235C45.6549 93.5017 45.7767 93.1365 45.5332 92.893C45.2897 92.406 44.9245 91.919 44.681 91.3103C42.0025 85.8317 44.0722 79.2574 49.1856 76.2137C49.5508 76.092 49.7943 75.605 49.7943 75.2398C49.7943 65.2565 49.7943 55.2733 49.7943 45.4119C49.7943 44.9249 49.7943 44.4379 49.9161 43.9509C50.1596 41.2725 52.1075 39.0811 54.7859 38.5941C55.3947 38.4723 56.1251 38.4723 56.7339 38.3506H93.2578C93.5013 38.3506 93.623 38.4723 93.8665 38.4723C96.4232 38.5941 98.6146 40.542 99.1016 43.0987C99.2234 43.3422 99.2234 43.7074 99.3451 43.9509V94.2322C99.2234 95.2062 98.4929 96.0584 97.6407 96.5454ZM92.2838 95.4497L86.1965 94.3539C85.8313 96.4236 85.3443 98.3716 84.979 100.441L92.2838 95.4497ZM47.6029 86.3187C47.4811 90.7015 51.0118 94.2322 55.3947 94.3539C59.7775 94.4757 63.3082 90.945 63.4299 86.5622C63.5517 82.1793 60.021 78.6487 55.6381 78.5269C51.2553 78.5269 47.6029 81.9358 47.6029 86.3187ZM92.6491 42.3682C80.7179 42.3682 68.9085 42.3682 56.9774 42.3682C55.5164 42.1247 54.0554 43.2204 53.8119 44.6814C53.8119 44.9249 53.8119 45.1684 53.8119 45.4119C53.8119 54.9081 53.8119 64.5261 53.8119 74.0223V74.631C57.2208 74.2658 60.508 75.2397 63.0647 77.4312C65.6214 79.6226 67.2041 82.9098 67.2041 86.3187C67.3258 89.4841 65.9866 92.5277 63.7952 94.7192C61.2385 97.3976 57.5861 98.6151 53.9337 98.1281C53.9337 99.102 53.8119 99.9543 53.9337 100.807C54.0554 101.78 54.7859 102.633 55.7599 102.754C56.1251 102.876 56.4904 102.876 56.8556 102.876C64.5256 102.876 72.1957 102.876 79.7439 102.876H80.3527C80.3527 102.633 80.4744 102.511 80.4744 102.389C81.2049 98.8586 81.9354 95.4497 82.6659 91.919C82.7876 90.8233 83.6398 90.0928 84.7355 90.0928C84.8573 90.0928 84.979 90.0928 84.979 90.0928C87.1705 90.4581 89.4837 90.8233 91.6751 91.3103C92.8926 91.5538 94.11 91.6755 95.4492 91.919V89.4841C95.4492 74.631 95.4492 59.8997 95.4492 45.0466C95.4492 43.2204 94.8405 42.3682 92.6491 42.3682ZM89.4837 52.8384C88.9967 52.9602 88.5097 52.9602 88.0227 52.9602C83.6398 52.9602 79.257 52.9602 74.8741 52.9602C70.3695 52.9602 65.8648 52.9602 61.3602 52.9602C60.995 52.9602 60.6298 52.9602 60.2645 52.8384C59.2905 52.7167 58.6818 51.9862 58.6818 51.0122C58.6818 50.0382 59.4123 49.186 60.3863 49.0643C60.6297 49.0643 60.995 48.9425 61.2385 48.9425C70.3695 48.9425 79.3787 48.9425 88.5097 48.9425C89.1184 48.8208 89.8489 49.0643 90.3359 49.4295C90.8229 49.9165 91.0664 50.647 90.9446 51.2557C90.7011 52.2297 90.2141 52.7167 89.4837 52.8384ZM60.508 58.6822C60.7515 58.6822 60.8732 58.6822 61.1167 58.6822C70.126 58.6822 79.257 58.6822 88.2662 58.6822C88.5097 58.6822 88.8749 58.6822 89.1184 58.6822C90.0924 58.804 90.9446 59.6562 90.8229 60.7519C90.8229 61.8476 89.9706 62.5781 88.8749 62.5781C88.6314 62.5781 88.5097 62.5781 88.2662 62.5781H74.6306C70.126 62.5781 65.6214 62.5781 61.1167 62.5781C60.8732 62.5781 60.508 62.5781 60.2645 62.5781C59.2905 62.5781 58.5601 61.7259 58.5601 60.7519V60.6302C58.5601 59.5345 59.4123 58.6822 60.508 58.6822ZM59.6558 68.422C60.021 68.3002 60.3863 68.3002 60.8732 68.3002C70.0042 68.3002 79.1352 68.3002 88.3879 68.3002C89.3619 68.1785 90.3359 68.6654 90.5794 69.6394C90.9446 70.6134 90.4576 71.7091 89.4837 72.0743C89.2402 72.1961 88.9967 72.1961 88.7532 72.1961C88.5097 72.1961 88.3879 72.1961 88.1444 72.1961H74.5088H60.508H60.3863C59.2905 72.1961 58.4383 71.3439 58.4383 70.3699C58.4383 70.1264 58.4383 69.8829 58.5601 69.6394C58.6818 69.0307 59.047 68.6654 59.6558 68.422ZM57.2209 81.3271C57.8296 80.5966 58.8036 80.4748 59.534 80.9618C60.2645 81.3271 60.6298 82.301 60.508 83.1533C60.508 83.3968 60.3863 83.5185 60.3863 83.6403C59.047 86.1969 57.8296 88.7536 56.4904 91.3103C56.1251 92.2843 55.0294 92.7712 54.0554 92.2843C53.6902 92.1625 53.4467 92.0408 53.2032 91.6755C52.2292 90.4581 51.1335 89.1188 50.1596 87.9014C49.4291 87.0492 49.5508 85.8317 50.2813 85.1012C51.1335 84.3707 52.351 84.6142 53.0815 85.4664C53.4467 85.9534 53.8119 86.4404 54.2989 86.9274C55.0294 85.4665 55.5164 84.249 56.2469 82.9098C56.4904 82.301 56.8556 81.8141 57.2209 81.3271Z" fill="#FF161F"/>
</svg>
