<svg width="120" height="120" viewBox="0 0 120 120" fill="none" xmlns="http://www.w3.org/2000/svg">
<path fill-rule="evenodd" clip-rule="evenodd" d="M90.4004 83.6C90.3004 84.2 89.8004 84.6 89.3004 84.8C89.2004 84.8 89.1004 84.9 89.0004 84.9C88.9004 84.9 88.8004 85 88.7004 85H31.6004C31.5004 85 31.5004 84.9 31.4004 84.9C30.7004 84.8 30.2004 84.3 30.0004 83.6C30.0004 83.5 29.9004 83.5 29.9004 83.4V82.7C30.0004 82.6 30.0004 82.5 30.1004 82.4C30.4004 81.6 31.1004 81.2 31.9004 81.2H33.9004C34.0004 81.2 34.1004 81.2 34.2004 81.2V80.8C34.2004 66.8 34.2004 52.8 34.2004 38.7C34.2004 38.3 34.2004 37.9 34.3004 37.5C34.6004 35.2 36.2004 33.2 38.5004 32.6C39.4004 32.3 40.3004 32 41.2004 31.8L64.2004 24.9C64.7004 24.7 65.2004 24.6 65.7004 24.5H66.0004C66.1004 24.5 66.1004 24.5 66.2004 24.5C66.9004 24.6 67.4004 25.1 67.6004 25.8C67.7004 26.1 67.7004 26.3 67.7004 26.6C67.7004 28 67.7004 29.3 67.7004 30.7V31C67.8004 31 67.9004 31.1 68.0004 31.1L81.4004 35.6C82.9004 36.1 84.1004 37.1 84.9004 38.5C85.4004 39.5 85.7004 40.6 85.7004 41.7C85.7004 54.8 85.7004 67.8 85.7004 80.9C85.7004 81 85.7004 81.1 85.7004 81.1C85.7004 81.2 85.7004 81.2 85.7004 81.3H88.0004C88.2004 81.3 88.4004 81.3 88.5004 81.3C89.3004 81.3 89.9004 81.7 90.2004 82.4C90.2004 82.5 90.3004 82.6 90.3004 82.7L90.4004 83.6C90.4004 83.5 90.4004 83.5 90.4004 83.6ZM63.9004 28.8C63.8004 28.8 63.7004 28.8 63.7004 28.9L44.2004 34.8L39.6004 36.2C38.9004 36.4 38.3004 37 38.0004 37.7C37.9004 38 37.8004 38.4 37.9004 38.7V80.9C37.9004 81 37.9004 81 37.9004 81.1C37.9004 81.2 37.9004 81.2 37.9004 81.3H64.0004C64.0004 80.7 64.0004 29 63.9004 28.8ZM81.9004 41.1C81.7004 40.1 81.0004 39.2 80.0004 38.9C79.2004 38.6 78.4004 38.4 77.6004 38.1L68.0004 35C67.9004 35 67.8004 34.9 67.7004 34.9C67.6004 35.3 67.7004 81 67.7004 81.2H81.8004V80.9C81.8004 78.9 81.8004 76.9 81.8004 74.9C81.8004 63.8 81.8004 52.7 81.8004 41.6C81.9004 41.4 81.9004 41.3 81.9004 41.1ZM76.1004 52.1C75.2004 52.1 74.3004 52.1 73.5004 52.1C73.4004 52.1 73.4004 52.1 73.3004 52.1C73.2004 52.1 73.0004 52 73.0004 51.8C73.0004 51.7 73.0004 51.6 73.0004 51.6C73.0004 50.7 73.0004 49.9 73.0004 49V48.9C73.0004 48.7 73.2004 48.5 73.4004 48.5C73.5004 48.5 73.5004 48.5 73.6004 48.5H76.2004C76.4004 48.5 76.7004 48.6 76.7004 48.8C76.7004 48.9 76.7004 48.9 76.7004 49C76.7004 49.5 76.7004 49.9 76.7004 50.4C76.7004 50.8 76.7004 51.3 76.7004 51.7C76.8004 51.9 76.6004 52.2 76.4004 52.2C76.3004 52.1 76.2004 52.1 76.1004 52.1ZM76.6004 45.8C76.6004 45.9 76.5004 46.1 76.3004 46.1C76.2004 46.1 76.1004 46.1 76.0004 46.1C75.1004 46.1 74.3004 46.1 73.4004 46.1H73.3004C73.1004 46.1 72.9004 46 72.8004 45.7V45.6C72.8004 45.2 72.8004 44.7 72.8004 44.3C72.8004 43.9 72.8004 43.4 72.8004 42.9C72.7004 42.7 72.9004 42.4 73.1004 42.4C73.2004 42.4 73.2004 42.4 73.3004 42.4C74.2004 42.4 75.1004 42.4 75.9004 42.4H76.0004C76.2004 42.4 76.4004 42.6 76.4004 42.8C76.4004 42.8 76.4004 42.8 76.4004 42.9C76.4004 43.3 76.4004 43.6 76.4004 44V44.3C76.4004 44.7 76.4004 45.2 76.4004 45.6C76.7004 45.6 76.7004 45.7 76.6004 45.8ZM73.4004 54.3C73.5004 54.3 73.5004 54.3 73.6004 54.3H76.1004C76.2004 54.3 76.2004 54.3 76.2004 54.3C76.4004 54.3 76.6004 54.4 76.6004 54.7V54.8C76.6004 55.3 76.6004 55.7 76.6004 56.2C76.6004 56.6 76.6004 57.1 76.6004 57.5C76.6004 57.6 76.6004 57.7 76.6004 57.7C76.6004 57.8 76.5004 58 76.3004 58C76.2004 58 76.1004 58 76.0004 58C75.1004 58 74.3004 58 73.4004 58H73.3004C73.1004 58 72.9004 57.9 72.9004 57.6V57.5C72.9004 57.5 72.9004 57.4 72.9004 57.3C72.9004 56.5 72.9004 55.6 72.9004 54.8V54.7C72.9004 54.5 73.1004 54.4 73.4004 54.3ZM73.5004 60.3C74.0004 60.3 74.4004 60.3 74.9004 60.3C75.3004 60.3 75.7004 60.3 76.2004 60.3C76.3004 60.3 76.4004 60.3 76.5004 60.3C76.6004 60.3 76.8004 60.4 76.8004 60.6C76.8004 60.7 76.8004 60.8 76.8004 60.8C76.8004 61.7 76.8004 62.5 76.8004 63.4C76.8004 63.4 76.8004 63.4 76.8004 63.5C76.8004 63.7 76.7004 63.9 76.5004 64H76.4004C76.2004 64 75.9004 64 75.7004 64H73.8004C73.7004 64 73.7004 64 73.7004 64C73.5004 64 73.3004 63.9 73.2004 63.7V63.6C73.2004 63 73.2004 62.4 73.2004 61.9C73.2004 61.6 73.2004 61.3 73.2004 60.9C73.2004 60.7 73.3004 60.5 73.5004 60.4C73.3004 60.3 73.4004 60.3 73.5004 60.3ZM76.4004 70C76.3004 70 76.2004 70 76.1004 70C75.2004 70 74.3004 70 73.5004 70C73.3004 70 73.0004 69.9 73.0004 69.7C73.0004 69.6 73.0004 69.6 73.0004 69.5C73.0004 68.6 73.0004 67.7 73.0004 66.8C73.0004 66.6 73.1004 66.4 73.3004 66.3C73.4004 66.3 73.4004 66.3 73.5004 66.3C74.4004 66.3 75.3004 66.3 76.2004 66.3C76.4004 66.3 76.6004 66.4 76.7004 66.6C76.7004 66.7 76.7004 66.7 76.7004 66.8C76.7004 67.3 76.7004 67.7 76.7004 68.2C76.7004 68.6 76.7004 69.1 76.7004 69.5C76.7004 69.6 76.7004 69.7 76.7004 69.7C76.6004 69.8 76.5004 69.9 76.4004 70ZM73.0004 72.6C73.0004 72.4 73.2004 72.3 73.3004 72.3C73.4004 72.3 73.5004 72.3 73.5004 72.3C74.3004 72.3 75.2004 72.3 76.0004 72.3C76.1004 72.3 76.1004 72.3 76.1004 72.3C76.3004 72.3 76.5004 72.4 76.5004 72.6V72.7C76.5004 73.2 76.5004 73.6 76.5004 74.1C76.5004 74.5 76.5004 75 76.5004 75.4C76.6004 75.6 76.4004 75.9 76.2004 75.9C76.1004 75.9 76.1004 75.9 76.0004 75.9C75.1004 75.9 74.2004 75.9 73.4004 75.9C73.3004 76 73.0004 75.9 73.0004 75.6C73.0004 75.5 73.0004 75.5 73.0004 75.4C73.0004 74.5 73.0004 73.7 73.0004 72.8C73.0004 72.7 73.0004 72.6 73.0004 72.6ZM58.7004 63.7C58.7004 63.8 58.6004 63.9 58.5004 64C58.4004 64 58.3004 64 58.2004 64C57.3004 64 56.5004 64 55.6004 64C55.5004 64 55.5004 64 55.4004 64C55.2004 64 55.1004 63.8 55.1004 63.7V63.6C55.1004 62.7 55.1004 61.8 55.1004 60.9C55.1004 60.8 55.1004 60.8 55.1004 60.7C55.1004 60.5 55.3004 60.4 55.4004 60.4C55.5004 60.4 55.6004 60.4 55.6004 60.4H58.2004H58.3004C58.5004 60.4 58.7004 60.5 58.7004 60.7V60.8C58.7004 61.3 58.7004 61.7 58.7004 62.2C58.7004 62.6 58.7004 63 58.7004 63.5C58.7004 63.5 58.7004 63.6 58.7004 63.7ZM58.7004 57.8C58.7004 57.9 58.6004 58 58.5004 58C58.4004 58 58.3004 58 58.2004 58C57.3004 58 56.5004 58 55.6004 58H55.5004C55.3004 58 55.1004 57.9 55.0004 57.6V57.5C55.0004 57.1 55.0004 56.6 55.0004 56.2C55.0004 55.7 55.0004 55.3 55.0004 54.8C54.9004 54.6 55.1004 54.3 55.3004 54.3C55.4004 54.3 55.4004 54.3 55.5004 54.3C56.4004 54.3 57.3004 54.3 58.2004 54.3H58.3004C58.5004 54.3 58.7004 54.5 58.7004 54.7C58.7004 55 58.7004 55.2 58.7004 55.5C58.7004 55.7 58.7004 55.9 58.7004 56.1C58.7004 56.5 58.7004 57 58.7004 57.4C58.7004 57.6 58.7004 57.7 58.7004 57.8ZM58.7004 51.7C58.7004 51.8 58.6004 52 58.4004 52C58.3004 52 58.2004 52 58.1004 52C57.2004 52 56.4004 52 55.5004 52C55.4004 52 55.4004 52 55.3004 52C55.1004 52 55.0004 51.8 55.0004 51.6C55.0004 51.5 55.0004 51.5 55.0004 51.4C55.0004 50.5 55.0004 49.7 55.0004 48.8C55.0004 48.7 55.0004 48.7 55.0004 48.6C55.0004 48.4 55.2004 48.2 55.4004 48.2C55.5004 48.2 55.5004 48.2 55.6004 48.2H58.1004H58.2004C58.4004 48.2 58.6004 48.3 58.6004 48.6V48.7C58.6004 49.2 58.6004 49.6 58.6004 50.1C58.6004 50.5 58.6004 51 58.6004 51.4C58.7004 51.6 58.7004 51.7 58.7004 51.7ZM58.4004 46.1C58.3004 46.1 58.2004 46.1 58.1004 46.1H55.6004C55.1004 46.1 55.0004 46 55.0004 45.5C55.0004 45.1 55.0004 44.7 55.0004 44.2C55.0004 43.8 55.0004 43.3 55.0004 42.9C54.9004 42.7 55.1004 42.4 55.3004 42.4C55.4004 42.4 55.4004 42.4 55.5004 42.4C56.4004 42.4 57.3004 42.4 58.1004 42.4C58.3004 42.3 58.6004 42.5 58.6004 42.7C58.6004 42.8 58.6004 42.8 58.6004 42.9C58.6004 43.8 58.6004 44.7 58.6004 45.6C58.6004 45.7 58.6004 45.7 58.6004 45.8C58.7004 45.9 58.6004 46.1 58.4004 46.1ZM52.2004 58C51.4004 58 50.5004 58 49.7004 58H49.6004C49.4004 58 49.2004 57.9 49.2004 57.6V57.5C49.2004 56.6 49.2004 55.7 49.2004 54.8C49.2004 54.6 49.3004 54.4 49.5004 54.3C49.6004 54.3 49.6004 54.3 49.7004 54.3C50.2004 54.3 50.6004 54.3 51.1004 54.3C51.5004 54.3 51.9004 54.3 52.3004 54.3C52.4004 54.3 52.4004 54.3 52.5004 54.3C52.7004 54.3 52.9004 54.5 52.9004 54.7C52.9004 54.8 52.9004 54.8 52.9004 54.9C52.9004 55.7 52.9004 56.6 52.9004 57.4C52.8004 57.9 52.7004 58 52.2004 58ZM49.6004 48.3C50.5004 48.3 51.3004 48.3 52.2004 48.3C52.3004 48.3 52.4004 48.3 52.4004 48.3C52.6004 48.3 52.7004 48.5 52.7004 48.6C52.7004 48.7 52.7004 48.7 52.7004 48.8C52.7004 49.7 52.7004 50.5 52.7004 51.4C52.7004 51.5 52.7004 51.5 52.7004 51.6C52.7004 51.8 52.6004 51.9 52.4004 51.9C52.3004 51.9 52.2004 51.9 52.1004 51.9C51.3004 51.9 50.4004 51.9 49.6004 51.9C49.6004 51.9 49.6004 51.9 49.5004 51.9C49.3004 52 49.0004 51.8 49.0004 51.6C49.0004 51.5 49.0004 51.5 49.0004 51.4C49.0004 51 49.0004 50.5 49.0004 50.1C49.0004 49.7 49.0004 49.2 49.0004 48.8C48.9004 48.6 49.1004 48.3 49.3004 48.3C49.5004 48.3 49.5004 48.3 49.6004 48.3ZM52.3004 46.1C51.4004 46.1 50.5004 46.1 49.6004 46.1C49.4004 46.2 49.1004 46 49.1004 45.8C49.1004 45.7 49.1004 45.7 49.1004 45.6C49.1004 44.7 49.1004 43.8 49.1004 42.9C49.1004 42.8 49.1004 42.7 49.1004 42.7C49.1004 42.6 49.2004 42.5 49.3004 42.5C49.4004 42.5 49.5004 42.5 49.6004 42.5C50.5004 42.5 51.3004 42.5 52.2004 42.5H52.3004C52.5004 42.5 52.7004 42.6 52.8004 42.9V43C52.8004 43.4 52.8004 43.7 52.8004 44.1V44.4C52.8004 44.8 52.8004 45.3 52.8004 45.7C52.8004 45.9 52.7004 46.1 52.5004 46.2C52.4004 46.1 52.3004 46.1 52.3004 46.1ZM46.8004 51.7C46.8004 51.9 46.7004 52 46.5004 52C46.4004 52 46.3004 52 46.2004 52C45.4004 52 44.5004 52 43.7004 52C43.2004 52 43.1004 51.9 43.1004 51.4C43.1004 50.6 43.1004 49.7 43.1004 48.9C43.1004 48.8 43.1004 48.7 43.1004 48.7C43.1004 48.5 43.2004 48.4 43.4004 48.4C43.5004 48.4 43.6004 48.4 43.6004 48.4H46.2004H46.3004C46.5004 48.4 46.7004 48.5 46.8004 48.7V48.8C46.8004 49.3 46.8004 49.7 46.8004 50.2C46.8004 50.6 46.8004 51 46.8004 51.5C46.8004 51.6 46.8004 51.6 46.8004 51.7ZM46.3004 46.1C46.2004 46.1 46.2004 46.1 46.1004 46.1H43.6004H43.5004C43.3004 46.1 43.1004 46 43.0004 45.8C43.0004 45.7 43.0004 45.7 43.0004 45.6C43.0004 45.1 43.0004 44.7 43.0004 44.2C43.0004 43.8 43.0004 43.4 43.0004 42.9C43.0004 42.8 43.0004 42.7 43.0004 42.7C43.0004 42.5 43.1004 42.4 43.3004 42.4C43.4004 42.4 43.5004 42.4 43.6004 42.4C44.4004 42.4 45.3004 42.4 46.1004 42.4H46.2004C46.4004 42.4 46.6004 42.5 46.7004 42.8V42.9C46.7004 43.8 46.7004 44.8 46.7004 45.7C46.8004 45.9 46.6004 46 46.3004 46.1C46.4004 46.1 46.4004 46.1 46.3004 46.1ZM46.3004 58C45.4004 58 44.5004 58 43.6004 58C43.4004 58 43.1004 57.9 43.1004 57.7C43.1004 57.6 43.1004 57.6 43.1004 57.5C43.1004 56.6 43.1004 55.7 43.1004 54.8C43.0004 54.6 43.2004 54.3 43.4004 54.3C43.5004 54.3 43.5004 54.3 43.6004 54.3C44.5004 54.3 45.4004 54.3 46.3004 54.3C46.5004 54.3 46.8004 54.4 46.8004 54.6C46.8004 54.7 46.8004 54.7 46.8004 54.8C46.8004 55.2 46.8004 55.7 46.8004 56.1C46.8004 56.5 46.8004 57 46.8004 57.4C46.9004 57.6 46.7004 57.9 46.5004 57.9C46.4004 58 46.3004 58 46.3004 58ZM43.5004 60.3C44.4004 60.3 45.4004 60.3 46.3004 60.3C46.5004 60.3 46.7004 60.4 46.8004 60.6V60.7C46.8004 61.6 46.8004 62.5 46.8004 63.5C46.8004 63.7 46.7004 63.9 46.5004 64C46.4004 64 46.4004 64 46.3004 64C45.5004 64 44.8004 64 44.0004 64C43.8004 64 43.7004 64 43.5004 64C43.3004 64 43.1004 63.9 43.1004 63.7V63.6C43.1004 63.1 43.1004 62.7 43.1004 62.2C43.1004 61.7 43.1004 61.3 43.1004 60.8C43.0004 60.6 43.2004 60.4 43.4004 60.3H43.5004ZM43.6004 66.3C44.5004 66.3 45.4004 66.3 46.3004 66.3C46.5004 66.3 46.7004 66.4 46.8004 66.6C46.8004 66.7 46.8004 66.7 46.8004 66.8C46.8004 67.7 46.8004 68.6 46.8004 69.5C46.9004 69.7 46.7004 70 46.5004 70C46.4004 70 46.4004 70 46.3004 70C45.4004 70 44.5004 70 43.6004 70C43.4004 70 43.1004 69.9 43.1004 69.7C43.1004 69.6 43.1004 69.6 43.1004 69.5C43.1004 69.1 43.1004 68.6 43.1004 68.2C43.1004 67.8 43.1004 67.3 43.1004 66.9C43.0004 66.7 43.2004 66.5 43.4004 66.4C43.5004 66.3 43.5004 66.3 43.6004 66.3ZM43.1004 72.5C43.2004 72.4 43.4004 72.3 43.5004 72.3C43.9004 72.3 44.3004 72.3 44.6004 72.3C45.1004 72.3 45.6004 72.3 46.1004 72.3C46.2004 72.3 46.2004 72.3 46.3004 72.3C46.5004 72.3 46.7004 72.5 46.7004 72.7V72.8C46.7004 73.7 46.7004 74.5 46.7004 75.4C46.7004 75.5 46.7004 75.5 46.7004 75.6C46.7004 75.8 46.5004 76 46.3004 76C46.2004 76 46.2004 76 46.1004 76C45.3004 76 44.4004 76 43.6004 76H43.5004C43.3004 76 43.1004 75.9 43.0004 75.6V75.5C43.0004 75 43.0004 74.6 43.0004 74.1C43.0004 73.7 43.0004 73.2 43.0004 72.8C43.1004 72.7 43.1004 72.6 43.1004 72.5ZM52.2004 64C51.3004 64 50.4004 64 49.5004 64C49.3004 64.1 49.0004 63.9 49.0004 63.7C49.0004 63.6 49.0004 63.6 49.0004 63.5C49.0004 62.6 49.0004 61.7 49.0004 60.8C48.9004 60.6 49.1004 60.3 49.3004 60.3C49.4004 60.3 49.4004 60.3 49.5004 60.3C50.4004 60.3 51.3004 60.3 52.2004 60.3C52.4004 60.3 52.6004 60.4 52.7004 60.6C52.7004 60.7 52.7004 60.7 52.7004 60.8C52.7004 61.2 52.7004 61.7 52.7004 62.1C52.7004 62.5 52.7004 63 52.7004 63.4C52.8004 63.6 52.6004 63.9 52.4004 63.9C52.4004 64 52.3004 64 52.2004 64ZM49.6004 66.3C50.5004 66.3 51.4004 66.3 52.3004 66.3H52.4004C52.6004 66.3 52.8004 66.4 52.8004 66.6C52.8004 66.6 52.8004 66.6 52.8004 66.7C52.8004 66.9 52.8004 67 52.8004 67.2V68.1C52.8004 68.5 52.8004 69 52.8004 69.4C52.8004 69.5 52.8004 69.6 52.8004 69.6C52.8004 69.7 52.7004 69.9 52.5004 69.9C52.4004 69.9 52.3004 69.9 52.2004 69.9C51.3004 69.9 50.5004 69.9 49.6004 69.9H49.5004C49.3004 69.9 49.1004 69.8 49.0004 69.5V69.4C49.0004 69 49.0004 68.6 49.0004 68.2C49.0004 67.7 49.0004 67.2 49.0004 66.7C48.9004 66.5 49.1004 66.2 49.3004 66.2C49.4004 66.3 49.5004 66.3 49.6004 66.3ZM49.6004 72.3C50.5004 72.3 51.3004 72.3 52.2004 72.3C52.3004 72.3 52.3004 72.3 52.4004 72.3C52.6004 72.3 52.8004 72.4 52.8004 72.6V72.7C52.8004 73 52.8004 73.3 52.8004 73.7V74.1C52.8004 74.5 52.8004 75 52.8004 75.4C52.8004 75.6 52.7004 75.8 52.5004 75.9C52.4004 75.9 52.4004 75.9 52.3004 75.9C51.4004 75.9 50.5004 75.9 49.6004 75.9C49.4004 75.9 49.2004 75.8 49.1004 75.6C49.1004 75.5 49.1004 75.5 49.1004 75.4C49.1004 74.5 49.1004 73.6 49.1004 72.7C49.1004 72.5 49.2004 72.3 49.4004 72.2C49.4004 72.3 49.5004 72.3 49.6004 72.3ZM55.0004 66.6C55.0004 66.4 55.2004 66.3 55.3004 66.3C55.4004 66.3 55.4004 66.3 55.5004 66.3H58.1004H58.2004C58.4004 66.3 58.6004 66.4 58.6004 66.6V66.7C58.6004 67.2 58.6004 67.6 58.6004 68.1C58.6004 68.5 58.6004 69 58.6004 69.4C58.6004 69.5 58.6004 69.6 58.6004 69.6C58.6004 69.7 58.5004 69.8 58.3004 69.9C58.2004 69.9 58.1004 69.9 58.1004 69.9C57.2004 69.9 56.3004 69.9 55.5004 69.9H55.4004C55.2004 69.9 55.0004 69.7 55.0004 69.5C55.0004 69.3 55.0004 69.2 55.0004 69C55.0004 68.3 55.0004 67.5 55.0004 66.8C55.0004 66.8 55.0004 66.7 55.0004 66.6ZM55.5004 72.3C56.4004 72.3 57.3004 72.3 58.3004 72.3C58.5004 72.3 58.7004 72.4 58.8004 72.6C58.8004 72.7 58.8004 72.7 58.8004 72.8C58.8004 73.3 58.8004 73.7 58.8004 74.2C58.8004 74.7 58.8004 75.1 58.8004 75.5C58.9004 75.7 58.7004 75.9 58.5004 76C58.4004 76 58.4004 76 58.3004 76C57.4004 76 56.5004 76 55.6004 76C55.4004 76 55.1004 75.9 55.1004 75.7C55.1004 75.6 55.1004 75.6 55.1004 75.5C55.1004 74.6 55.1004 73.7 55.1004 72.8C55.0004 72.6 55.2004 72.4 55.4004 72.3H55.5004Z" fill="#FF161F"/>
</svg>
