<svg width="120" height="120" viewBox="0 0 120 120" fill="none" xmlns="http://www.w3.org/2000/svg">
<path fill-rule="evenodd" clip-rule="evenodd" d="M95.5008 72.8002C95.5008 75.9002 93.1008 78.5002 90.0008 78.9002C89.3008 79.0002 88.7008 79.0002 88.0008 79.0002C87.6008 79.0002 87.2008 79.0002 86.9008 79.0002C86.8008 79.0002 86.6008 79.1002 86.6008 79.2002C85.3008 82.4002 81.7008 84.0002 78.5008 82.7002C77.4008 82.2002 76.4008 81.5002 75.7008 80.4002C75.4008 80.0002 75.2008 79.6002 75.0008 79.1002C75.0008 79.0002 74.9008 78.9002 74.8008 79.0002H74.7008C66.3008 79.0002 57.9008 79.0002 49.5008 79.0002C49.3008 79.0002 49.2008 79.1002 49.1008 79.2002C48.3008 81.2002 46.5008 82.7002 44.4008 83.0002C41.6008 83.5002 38.8008 82.0002 37.7008 79.3002C37.6008 79.0002 37.4008 78.9002 37.1008 78.9002C36.2008 78.9002 35.3008 78.9002 34.5008 78.9002C31.8008 78.7002 29.6008 76.8002 29.0008 74.2002C28.9008 73.6002 28.8008 73.1002 28.8008 72.5002C28.8008 71.9002 28.8008 71.3002 28.8008 70.7002H33.0008C33.0008 70.9002 33.0008 71.1002 33.0008 71.2002C33.0008 71.8002 33.0008 72.5002 33.0008 73.1002C33.1008 74.1002 34.0008 74.8002 35.0008 74.8002C35.8008 74.8002 36.6008 74.8002 37.4008 74.8002C37.5008 74.8002 37.6008 74.7002 37.6008 74.6002C38.4008 72.6002 40.0008 71.2002 42.1008 70.8002C45.1008 70.2002 48.1008 71.8002 49.2008 74.6002C49.2008 74.7002 49.3008 74.8002 49.5008 74.8002C55.1008 74.8002 60.6008 74.8002 66.2008 74.8002H66.4008V74.5002C66.4008 64.3002 66.4008 54.1002 66.4008 44.0002C66.4008 42.8002 65.5008 41.8002 64.3008 41.8002C64.2008 41.8002 64.2008 41.8002 64.1008 41.8002C52.4008 41.8002 40.8008 41.8002 29.1008 41.8002H28.8008V37.7002H29.0008C40.7008 37.7002 52.4008 37.7002 64.1008 37.7002C67.0008 37.7002 69.6008 39.6002 70.3008 42.4002C70.4008 42.9002 70.5008 43.5002 70.5008 44.0002C70.5008 45.9002 70.5008 47.9002 70.5008 49.8002V50.0002H70.8008C74.8008 50.0002 78.7008 50.0002 82.7008 50.0002C84.5008 49.9002 86.3008 50.7002 87.5008 52.1002C88.0008 52.7002 88.4008 53.3002 88.9008 54.0002C90.8008 56.8002 92.7008 59.5002 94.6008 62.3002C95.3008 63.3002 95.6008 64.4002 95.6008 65.6002C95.5008 68.0002 95.6008 70.4002 95.5008 72.8002ZM43.4008 74.8002C42.3008 74.8002 41.3008 75.7002 41.4008 76.9002C41.5008 78.1002 42.3008 79.0002 43.5008 78.9002C44.6008 78.9002 45.5008 78.0002 45.5008 76.8002C45.5008 75.7002 44.6008 74.8002 43.4008 74.8002ZM80.8008 78.9002C81.9008 78.9002 82.9008 77.9002 82.8008 76.8002C82.7008 75.7002 81.8008 74.7002 80.7008 74.8002C79.6008 74.8002 78.7008 75.7002 78.7008 76.8002C78.7008 77.9002 79.6008 78.9002 80.8008 78.9002ZM90.9008 64.4002C88.8008 61.3002 86.7008 58.2002 84.6008 55.2002C84.2008 54.5002 83.4008 54.1002 82.6008 54.2002C78.7008 54.2002 74.7008 54.2002 70.8008 54.2002H70.5008V74.8002H70.7008C72.0008 74.8002 73.3008 74.8002 74.6008 74.8002C74.8008 74.8002 74.9008 74.7002 75.0008 74.6002C76.1008 71.8002 79.1008 70.2002 82.1008 70.9002C84.1008 71.3002 85.8008 72.7002 86.6008 74.7002C86.6008 74.8002 86.8008 74.9002 86.9008 74.9002C87.7008 74.9002 88.5008 74.9002 89.2008 74.9002C89.4008 74.9002 89.7008 74.9002 89.9008 74.8002C90.8008 74.5002 91.4008 73.7002 91.3008 72.8002C91.3008 70.5002 91.3008 68.3002 91.3008 66.0002C91.4008 65.4002 91.2008 64.8002 90.9008 64.4002ZM28.8008 45.9002H58.0008V50.0002H28.8008V45.9002ZM28.8008 66.5002V62.4002H41.3008V66.5002H28.8008ZM28.8008 54.2002H49.6008V58.3002H28.8008V54.2002Z" fill="#FF161F"/>
</svg>
