<svg width="40" height="40" viewBox="0 0 40 40" fill="none" xmlns="http://www.w3.org/2000/svg">
<path fill-rule="evenodd" clip-rule="evenodd" d="M11.9265 20.84C11.7505 20.664 11.5745 20.488 11.3985 20.312C10.4305 19.328 9.83847 18.152 9.72647 16.768C9.48647 13.656 11.5025 11.48 13.9185 10.904C15.9265 10.432 17.6865 10.952 19.1745 12.376C19.4865 12.672 19.7985 12.968 20.1185 13.28C20.1665 13.24 20.2065 13.2 20.2465 13.152C20.6705 12.736 21.0785 12.288 21.5665 11.944C24.0705 10.2 27.5185 10.816 29.2625 13.328C29.4145 13.544 29.5505 13.768 29.6625 14C30.7905 16.2 30.3585 18.88 28.5985 20.616C28.4065 20.808 28.2225 21 28.0225 21.192C27.9505 21.248 27.9265 21.344 27.9665 21.416C28.1585 21.928 28.1505 22.432 27.8545 22.904C27.5185 23.448 27.0305 23.76 26.3825 23.776C26.3505 23.776 26.3185 23.776 26.2945 23.784C26.2865 23.784 26.2865 23.784 26.2865 23.792C26.1745 24.92 25.6145 25.592 24.4225 25.648C24.4305 26.392 24.1025 26.96 23.4385 27.296C22.7665 27.64 22.1345 27.496 21.5985 27.064C21.3745 27.272 21.1505 27.464 20.9425 27.664C20.5745 28.024 20.2145 28.4 19.8465 28.76C19.3425 29.24 18.7505 29.424 18.0865 29.2C17.4145 28.976 17.0065 28.488 16.8785 27.784C16.8705 27.728 16.8625 27.672 16.8625 27.616C16.8625 27.568 16.8625 27.512 16.8625 27.448C16.3745 27.456 15.9105 27.264 15.5665 26.92C15.1905 26.56 15.0545 26.12 15.0625 25.6C14.5745 25.608 14.1025 25.416 13.7665 25.064C13.4145 24.728 13.2305 24.248 13.2625 23.76C11.7185 23.736 10.8785 22.032 11.9265 20.84ZM22.5745 16.864C22.5425 16.896 22.5185 16.912 22.4945 16.936C21.7825 17.656 21.0625 18.368 20.3505 19.088C20.2625 19.184 20.1665 19.272 20.0625 19.36C19.1905 20.024 17.9825 19.888 17.1985 19.04C16.4625 18.24 16.4705 17.008 17.2145 16.216C17.9425 15.448 18.7025 14.712 19.4465 13.96C19.4865 13.92 19.5185 13.88 19.5585 13.84C19.2465 13.544 18.9505 13.256 18.6465 12.968C17.4305 11.792 15.9905 11.344 14.3265 11.664C11.6305 12.176 9.95047 15.048 10.7665 17.68C11.0945 18.728 11.8705 19.392 12.6305 20.112C12.9425 19.8 13.2465 19.48 13.5665 19.176C14.0545 18.712 14.6385 18.536 15.2865 18.736C15.9425 18.944 16.3505 19.4 16.5105 20.072C16.5345 20.216 16.5505 20.36 16.5505 20.512C17.0625 20.488 17.4785 20.696 17.8385 21.04C18.2145 21.4 18.3425 21.84 18.3345 22.344C19.3265 22.32 20.1905 23.184 20.1505 24.208C20.1905 24.208 20.2305 24.208 20.2705 24.208C21.0465 24.224 21.7985 24.864 21.9025 25.632C21.9185 25.848 22.0225 26.048 22.1985 26.184C22.2225 26.208 22.2465 26.232 22.2785 26.256C22.4225 26.392 22.6065 26.464 22.8065 26.472C23.1585 26.48 23.4785 26.272 23.6225 25.944C23.7665 25.624 23.6865 25.248 23.4305 25.016C22.3185 23.896 21.1985 22.776 20.0785 21.656C20.0225 21.6 19.9585 21.544 19.9025 21.48C19.7425 21.304 19.7505 21.032 19.9265 20.872C20.0865 20.72 20.3425 20.72 20.5105 20.872C20.5505 20.904 20.5825 20.944 20.6225 20.976C21.7665 22.12 22.9105 23.272 24.0545 24.424C24.1825 24.568 24.3665 24.648 24.5505 24.664C24.9185 24.688 25.2625 24.488 25.4145 24.144C25.5585 23.816 25.4865 23.472 25.2065 23.192C24.1665 22.152 23.1345 21.112 22.0945 20.072C21.8785 19.856 21.8705 19.608 22.0545 19.424C22.2385 19.24 22.4945 19.256 22.7025 19.464C23.7505 20.512 24.7985 21.568 25.8465 22.616C26.0465 22.84 26.3665 22.92 26.6465 22.824C27.3025 22.632 27.5025 21.8 27.0065 21.304C25.5585 19.848 24.1025 18.392 22.6465 16.936C22.6305 16.92 22.6065 16.896 22.5745 16.864ZM27.3985 20.56C27.6225 20.336 27.8305 20.128 28.0305 19.928C29.9425 17.984 29.9025 14.952 27.9345 13.088C26.9665 12.168 25.7905 11.76 24.4625 11.832C23.2945 11.896 22.2945 12.368 21.4625 13.192C20.2865 14.368 19.1185 15.552 17.9425 16.72C17.3345 17.32 17.3905 18.208 18.0785 18.712C18.5665 19.072 19.2465 19.008 19.7025 18.552C20.5265 17.728 21.3505 16.904 22.1745 16.072C22.4785 15.768 22.6705 15.76 22.9745 16.064C24.4145 17.504 25.8545 18.944 27.2865 20.392C27.3265 20.456 27.3665 20.504 27.3985 20.56ZM15.0145 24.664C15.2545 24.664 15.4785 24.568 15.6385 24.392C15.9825 24.048 16.3345 23.696 16.6785 23.352C16.8545 23.176 17.0385 23 17.2065 22.816C17.5105 22.48 17.4865 21.96 17.1505 21.656L17.1425 21.648C16.8225 21.336 16.3105 21.336 15.9985 21.656L15.9905 21.664C15.4625 22.184 14.9425 22.712 14.4225 23.24C14.1745 23.464 14.1025 23.824 14.2385 24.128C14.3585 24.44 14.6705 24.656 15.0145 24.664ZM19.2225 24.072C19.2065 23.744 19.0065 23.456 18.7025 23.328C18.3825 23.184 18.0705 23.224 17.8225 23.472C17.2785 24.008 16.7425 24.544 16.2065 25.088C15.8945 25.432 15.9185 25.968 16.2625 26.28C16.5905 26.576 17.0945 26.576 17.4145 26.264C17.9425 25.744 18.4625 25.216 18.9905 24.688C19.1425 24.536 19.2305 24.312 19.2225 24.072ZM15.5745 20.456C15.5665 20.112 15.3585 19.808 15.0465 19.68C14.7425 19.536 14.3745 19.6 14.1425 19.848C13.6225 20.368 13.1025 20.888 12.5825 21.408C12.5585 21.432 12.5345 21.464 12.5105 21.488C12.2305 21.832 12.2705 22.344 12.6065 22.632C12.9265 22.944 13.4385 22.936 13.7505 22.616C14.2785 22.088 14.8065 21.56 15.3345 21.032C15.4945 20.88 15.5825 20.672 15.5745 20.456ZM17.7745 27.552C17.7825 27.856 17.9665 28.12 18.2465 28.24C18.5745 28.384 18.9185 28.392 19.1905 28.128C19.7425 27.6 20.2865 27.056 20.8145 26.496C21.1345 26.152 21.0945 25.664 20.7585 25.344C20.4465 25.024 19.9345 25.016 19.6145 25.328C19.6065 25.336 19.6065 25.336 19.5985 25.344C19.0705 25.864 18.5505 26.392 18.0225 26.912C17.8545 27.088 17.7665 27.32 17.7745 27.552Z" fill="black"/>
</svg>
