<svg width="40" height="40" viewBox="0 0 40 40" fill="none" xmlns="http://www.w3.org/2000/svg">
<path fill-rule="evenodd" clip-rule="evenodd" d="M31.6668 22.75C31.4584 23.4584 30.7918 23.9584 30.0418 23.9584C28.3334 23.9584 26.6668 23.9584 24.9584 23.9584C23.9168 23.9584 23.1251 23 23.2918 22C23.3334 21.75 23.3751 21.4584 23.4584 21.2084C23.6251 20.5 24.0418 20 24.6668 19.6667C24.8751 19.5417 25.0418 19.4584 25.2501 19.3334C24.6251 17.9167 25.2918 16.7084 26.0418 16.1667C26.9584 15.5417 28.1251 15.5417 29.0001 16.2084C29.7918 16.7917 30.3334 18.0417 29.7501 19.3334C29.8751 19.4167 30.0001 19.4584 30.1251 19.5417C31.0001 19.9584 31.5001 20.7084 31.6251 21.6667C31.7501 22.0417 31.7918 22.375 31.6668 22.75ZM27.5001 16.7084C26.6668 16.7084 26.0001 17.4167 26.0001 18.25C26.0001 19.0834 26.7084 19.75 27.5418 19.75C28.3751 19.75 29.0418 19.0834 29.0418 18.25C29.0418 17.375 28.3334 16.7084 27.5001 16.7084ZM30.6668 21.75C30.5834 21.1667 30.2501 20.7084 29.7084 20.4584C29.5834 20.4167 29.4584 20.3334 29.3334 20.25C29.1668 20.1667 29.0834 20.1667 28.9168 20.2917C28.0001 20.9167 26.8334 20.875 25.9584 20.2084C25.9168 20.1667 25.8751 20.125 25.7918 20.1667C25.5418 20.2917 25.3334 20.4167 25.0834 20.5417C24.7084 20.75 24.4584 21.0834 24.3751 21.5C24.3334 21.7084 24.2918 21.875 24.2501 22.0834C24.1668 22.5834 24.4584 23 25.0001 23C25.8334 23 26.6668 23 27.4584 23C28.2918 23 29.1251 23 29.9584 23C30.4168 23 30.7501 22.625 30.6668 22.1667C30.7084 22 30.7084 21.875 30.6668 21.75ZM23.9584 19.4584C23.7501 19.5417 23.5834 19.5 23.4168 19.375C23.2084 19.2084 23.0418 19 22.8334 18.7917C22.5418 18.5 22.2501 18.2084 21.9168 17.875C21.7084 17.625 21.6668 17.3334 21.8751 17.125C22.0834 16.9167 22.3751 16.9167 22.6251 17.1667C23.1251 17.6667 23.5834 18.125 24.0834 18.625C24.2084 18.75 24.2501 18.875 24.2501 19.0417C24.2501 19.2084 24.1668 19.375 23.9584 19.4584ZM22.4584 16.5834C21.1668 16.5834 19.8751 16.5834 18.6251 16.5834C18.2501 16.5834 17.8751 16.5834 17.5001 16.5834C16.3751 16.5834 15.5834 15.6667 15.7918 14.5417C15.8334 14.25 15.9168 13.9584 16.0001 13.6667C16.2084 13.0417 16.5834 12.5834 17.1668 12.2917C17.3751 12.1667 17.5418 12.0834 17.7501 11.9584C17.4584 11.3334 17.4168 10.6667 17.6251 10.0417C17.7918 9.5417 18.1251 9.12503 18.5418 8.7917C19.4584 8.1667 20.6251 8.20837 21.5001 8.83337C22.2918 9.45837 22.8334 10.6667 22.2501 11.9584C22.3751 12 22.4584 12.0834 22.5834 12.125C23.2084 12.4584 23.7084 12.875 23.9584 13.5417C24.1251 13.9167 24.2084 14.3334 24.2501 14.75C24.2918 15.1667 24.1668 15.5417 23.9168 15.875C23.5001 16.3334 23.0418 16.5834 22.4584 16.5834ZM19.9584 9.2917C19.1251 9.2917 18.4168 9.95837 18.4168 10.7917C18.4168 11.625 19.0834 12.3334 19.9168 12.3334C20.7501 12.3334 21.4168 11.6667 21.4168 10.8334C21.4584 9.95837 20.7918 9.2917 19.9584 9.2917ZM23.1251 14.375C23.0418 13.75 22.7084 13.2917 22.1668 13.0417C22.0001 12.9584 21.8751 12.875 21.7084 12.7917C21.6251 12.75 21.5418 12.75 21.4584 12.7917C21.0834 13.0834 20.6668 13.25 20.1668 13.2917C19.5001 13.3334 18.9168 13.1667 18.4168 12.75C18.3751 12.7084 18.3334 12.7084 18.2501 12.75C18.0418 12.875 17.8334 12.9584 17.6251 13.0834C17.2084 13.3334 16.9168 13.6667 16.8334 14.1667C16.7918 14.3334 16.7501 14.5 16.7501 14.625C16.7501 14.75 16.7084 14.9167 16.7501 15.0417C16.8334 15.375 17.1251 15.5417 17.5001 15.5417C18.3334 15.5417 19.1251 15.5417 19.9584 15.5417C20.5834 15.5417 21.1668 15.5417 21.7918 15.5417C22.0418 15.5417 22.3334 15.5417 22.5834 15.5417C22.9168 15.5417 23.1668 15.2917 23.2084 14.9584C23.2084 14.7917 23.1668 14.5834 23.1251 14.375ZM17.3334 17.125C17.5001 16.9584 17.6668 16.9584 17.8751 17.0417C18.0834 17.125 18.1668 17.2917 18.1668 17.5834C18.1251 17.625 18.0834 17.7917 18.0001 17.875C17.5001 18.375 17.0001 18.875 16.5001 19.375C16.2918 19.5834 16.0001 19.5834 15.7918 19.375C15.5834 19.1667 15.5834 18.875 15.7918 18.6667C16.2918 18.125 16.7918 17.625 17.3334 17.125ZM14.8334 19.4584C15.2084 19.6667 15.5834 19.875 15.8751 20.2084C16.2501 20.625 16.4168 21.125 16.5418 21.625C16.6251 22 16.6668 22.4167 16.5418 22.7917C16.3334 23.5 15.6668 24 14.9584 24C13.2501 24 11.5418 24 9.83343 24C8.79176 24 8.00009 23.0417 8.16676 21.9584C8.20843 21.6667 8.29176 21.375 8.37509 21.0834C8.58343 20.4584 8.95843 20.0417 9.50009 19.7084C9.70843 19.5834 9.91676 19.5 10.1251 19.375C9.58343 18.1667 9.95843 16.9167 10.8334 16.25C11.7084 15.5417 12.9584 15.5417 13.8751 16.2084C14.7501 16.8334 15.2501 18.0834 14.6251 19.375C14.7084 19.375 14.7918 19.4167 14.8334 19.4584ZM12.4168 16.7084C11.5834 16.7084 10.8751 17.375 10.8751 18.2084C10.8751 19.0417 11.5418 19.7084 12.3751 19.75C13.2084 19.75 13.9168 19.0834 13.9168 18.25C13.9168 17.4167 13.2501 16.7084 12.4168 16.7084ZM14.1251 20.1667C14.0418 20.125 14.0001 20.125 13.9584 20.1667C13.5001 20.5417 12.9584 20.7084 12.3751 20.7084C11.8334 20.7084 11.3334 20.5 10.8751 20.1667C10.8334 20.125 10.7501 20.125 10.7501 20.125C10.5001 20.25 10.2918 20.375 10.0418 20.5C9.66676 20.7084 9.41676 21.0417 9.33343 21.4167C9.29176 21.625 9.25009 21.8334 9.20843 22.0417C9.12509 22.5417 9.45843 22.9167 9.95843 22.9167C10.7918 22.9167 11.6251 22.9167 12.4168 22.9167C13.2501 22.9167 14.0834 22.9167 14.9168 22.9167C15.3334 22.9167 15.6668 22.5834 15.6251 22.1667C15.6251 22.0417 15.5834 21.9167 15.5834 21.75C15.5001 21.125 15.1668 20.625 14.5834 20.375C14.4168 20.3334 14.2501 20.2917 14.1251 20.1667ZM15.2918 24.4584C15.7918 24.9584 16.2918 25.4584 16.7918 25.9584C16.9584 26.125 17.0001 26.2917 16.9168 26.5C16.8334 26.7084 16.6668 26.7917 16.4584 26.7917C16.3334 26.7917 16.2084 26.75 16.0834 26.625C15.5834 26.125 15.0834 25.625 14.5834 25.125C14.3751 24.9167 14.3751 24.625 14.5834 24.4167C14.7918 24.25 15.0834 24.25 15.2918 24.4584ZM16.0001 28.6667C16.2084 28.0417 16.6668 27.625 17.2501 27.2917C17.4168 27.2084 17.5418 27.125 17.7084 27.0417C17.1251 25.8334 17.5834 24.5834 18.4584 23.9167C19.3751 23.25 20.6251 23.25 21.5001 23.9584C22.3751 24.625 22.7501 25.875 22.2084 27.0417C22.3334 27.125 22.4584 27.1667 22.6251 27.25C23.0834 27.5 23.5001 27.7917 23.7501 28.25C24.0834 28.8334 24.2084 29.4584 24.2084 30.0834C24.1668 30.9584 23.4168 31.6667 22.5418 31.6667C20.8334 31.6667 19.1251 31.6667 17.4168 31.6667C16.3751 31.6667 15.6251 30.7084 15.7918 29.7084C15.7918 29.375 15.8751 29 16.0001 28.6667ZM19.9584 24.4167C19.1251 24.4167 18.4584 25.0834 18.4584 25.9167C18.4584 26.75 19.1251 27.4167 20.0001 27.4167C20.8334 27.4167 21.5001 26.75 21.5001 25.9167C21.4584 25.0834 20.7918 24.4167 19.9584 24.4167ZM17.4584 30.7084C18.2918 30.7084 19.1251 30.7084 19.9584 30.7084C20.7918 30.7084 21.6251 30.7084 22.4584 30.7084C22.9168 30.7084 23.2501 30.3334 23.2084 29.875C23.1668 29.625 23.1251 29.4167 23.0834 29.1667C23.0001 28.7917 22.7501 28.5 22.4168 28.2917C22.2084 28.1667 22.0001 28.0834 21.8334 27.9584C21.6668 27.875 21.5834 27.875 21.4168 28C20.5001 28.625 19.3334 28.5834 18.4584 27.9167C18.4168 27.875 18.3334 27.875 18.3334 27.875C18.0834 28 17.8334 28.125 17.6251 28.25C16.9168 28.6667 16.7918 29.3334 16.7918 30.0417C16.7084 30.4167 17.0418 30.7084 17.4584 30.7084ZM23.4584 26.7917C23.2501 26.7917 23.0834 26.7084 23.0001 26.5C22.9168 26.2917 22.9584 26.125 23.0834 25.9584C23.3334 25.7084 23.5418 25.5 23.7918 25.25C24.0418 25 24.3334 24.7084 24.5834 24.4584C24.7918 24.25 25.1251 24.2084 25.2918 24.4167C25.5001 24.625 25.5001 24.9167 25.2501 25.1667C24.7501 25.6667 24.2918 26.125 23.7918 26.625C23.7084 26.75 23.6251 26.7917 23.4584 26.7917Z" fill="white"/>
</svg>
