<?xml version="1.0" encoding="utf-8"?>
<!-- Generator: Adobe Illustrator 26.0.1, SVG Export Plug-In . SVG Version: 6.00 Build 0)  -->
<svg version="1.1" id="Слой_1" xmlns="http://www.w3.org/2000/svg" xmlns:xlink="http://www.w3.org/1999/xlink" x="0px" y="0px"
	 viewBox="0 0 500 500" style="enable-background:new 0 0 500 500;" xml:space="preserve">
<style type="text/css">
	.st0{fill-rule:evenodd;clip-rule:evenodd;fill:#000000;}
</style>
<path id="Фигура_1173" class="st0" d="M379.6,325.5c0,12.1-9.2,21.3-21.4,21.3c-30,0-60.9,0-90.9,0h-1.6v16.7h1.4
	c10.6,0,20.3,0,30.9,0c10.2,0,20.6,10,22.6,20c0.2,1.1,0.3,2.2,0.4,3.4c0.1,3-3.6,7.7-6.6,7.7c-10.7,0-23.4,0-34.1,0h-95.8
	c-3.7,0-6.3-4.6-6.1-8.4c0.5-10.7,11.6-22.6,22.3-22.7c10.8-0.1,21.6,0,32.4,0h1.5v-16.7h-1.7c-30,0-61,0-91,0
	c-10.1,0.1-18.8-7-20.7-16.9c-0.3-1.5-0.4-2.9-0.4-4.4c0-55.6,0-123.1,0-178.7c-0.1-11.5,9.1-20.9,20.7-21c0.1,0,0.2,0,0.3,0
	c69.6,0,147.2,0,216.8,0c11.5-0.2,20.9,9,21.1,20.6c0,0.2,0,0.4,0,0.6C379.6,202.4,379.6,269.9,379.6,325.5z M204.3,374.9
	c-5.5,0-10.5,3.6-11.8,8.3h115.5c-0.3-0.6-0.5-1.1-0.8-1.6c-2.2-4.2-6.7-6.8-11.5-6.6h-58.8C226.1,374.9,215.2,374.8,204.3,374.9
	L204.3,374.9z M254.2,363.4v-16.6H246v16.6H254.2z M367.2,303.3c0-50.6,0-101.2,0-151.8c0-8.1-5.3-13.4-13.4-13.4
	c-69.1,0-138.2,0-207.3,0c-8.1,0-13.4,5.3-13.4,13.4c0,50.3,0,100.6,0,150.9v2.8h234.1V303.3z M367,317.7H133.1
	c-0.1,1.5-0.1,3,0,4.5c0.1,1.6,0.5,3.3,1.1,4.8c2.3,5,6.4,7.4,11.9,7.4c27,0,53.9,0,80.9,0c42.4,0,84.7,0,127.1,0
	C362.3,334.4,368.8,327.9,367,317.7z M185.3,217.7c6.7,0,12.1,5.5,12.1,12.2c0,6.7-5.5,12.1-12.2,12.1c-6.7,0-12.1-5.5-12.1-12.2
	C173.1,223,178.6,217.6,185.3,217.7z M185.3,233.9c2.2,0,4-1.9,4-4.1c0-2.2-1.9-4-4.1-4c-2.2,0-4,1.8-4,4.1
	C181.2,232.1,183,233.9,185.3,233.9C185.3,233.9,185.3,233.9,185.3,233.9L185.3,233.9z M187.5,250.5c4.4-2.6,8.8-5.1,13.3-7.6
	c2.8-1.6,4.9-1,6.4,1.8c6.1,11.5,16.6,20.1,29.2,23.7c4.3,1.3,8.7,1.9,13.1,2c3.1,0,4.7,1.6,4.7,4.7c0,2.5,0,5,0,7.5
	c0,2.6,0,5.2,0,7.8c0.2,2.2-1.5,4.1-3.7,4.3c-0.2,0-0.5,0-0.7,0c-28.4-0.9-49.7-13.7-63.9-38.3c-1.2-1.8-0.7-4.3,1.1-5.6
	C187.1,250.7,187.3,250.6,187.5,250.5z M246,286.5v-8.1c-19.1-1.9-33.8-10.8-44.3-26.8c-2.3,1.3-4.6,2.6-7,4
	C206.9,274.3,223.9,284.5,246,286.5L246,286.5z M238,257.7c0-1.3-0.3-2-1.6-2.2c-0.2,0-0.4-0.1-0.6-0.2c-1-0.7-1.7-0.4-2.6,0.4
	c-2.1,2.2-4.4,2.2-6.5,0c-3.6-3.6-7.1-7.1-10.7-10.7c-2.2-2.2-2.2-4.4,0-6.5c0.9-0.8,1.2-1.5,0.5-2.6c-0.3-0.4-0.3-1-0.6-1.4
	c-0.3-0.4-0.7-0.6-1.1-0.7c-0.5-0.1-1-0.1-1.5,0c-2.1-0.1-3.7-1.8-3.8-3.9c-0.1-5.5-0.1-11.1,0-16.6c0.1-2.1,1.8-3.8,3.9-3.9
	c0.3,0,0.6,0,0.9,0c1,0.2,1.4-0.3,1.9-1.2c0.9-1.7,0.8-2.8-0.7-4.2c-1.4-1.4-1.4-3.8,0-5.2c0,0,0,0,0,0c3.9-3.9,7.8-7.9,11.7-11.7
	c1.7-1.6,4-1.4,5.8,0.3c0.5,0.4,1.1,1.2,1.5,1.1c1.1-0.2,2.2-0.7,3.1-1.3c0.3-0.2,0.2-1.3,0.2-1.9c-0.1-1.9,1.3-3.6,3.1-4.1
	c0.5-0.1,0.9-0.1,1.4-0.1h15.2c3,0,4.7,1.6,4.6,4.6c0,1.2,0.3,1.9,1.5,2.1c0.2,0.1,0.5,0.2,0.7,0.3c1,0.7,1.7,0.4,2.6-0.5
	c2.1-2.2,4.3-2.2,6.4-0.1c3.6,3.6,7.2,7.2,10.8,10.8c0.9,0.8,1.5,2,1.4,3.2c0,1.4-0.7,2.7-1.8,3.4c-0.6,0.3-0.8,1.1-0.5,1.7
	c0,0.1,0.1,0.1,0.1,0.2c0.1,0.1,0.1,0.2,0.1,0.3c0.3,1.7,1.3,2.3,3.1,2.2c2.1,0,3.9,1.6,3.9,3.8c0,0.1,0,0.1,0,0.2
	c0,5.4,0,10.8,0,16.2c0,2.2-1.7,4.1-4,4.1c-0.1,0-0.1,0-0.2,0c-0.7,0-1.7-0.1-2,0.2c-0.6,1-1.1,2-1.4,3.1c0,0.2,0.1,0.5,0.3,0.6
	c0.3,0.4,0.7,0.7,1,1c1.6,1.5,1.7,4,0.2,5.7c-0.1,0.1-0.2,0.2-0.2,0.2c-3.7,3.8-7.5,7.6-11.3,11.3c-1.8,1.8-4.3,1.6-6.2-0.2
	c-0.4-0.4-1-1.1-1.3-1c-1.1,0.3-2.2,0.8-3.2,1.4c-0.2,0.4-0.2,0.8-0.1,1.2c0,3.4-1.5,4.9-4.9,4.9h-14.8
	C239.5,262.3,237.9,260.7,238,257.7L238,257.7z M246,253.1c0,0.3,0,0.6,0,1h8.1c-0.1-2.3,0.7-4,2.9-4.9c2.5-1,5.1-2,7.6-3.1
	c1.5-0.8,3.4-0.6,4.7,0.6c0.3,0.2,0.6,0.5,0.8,0.7c1.9-1.9,3.7-3.7,5.6-5.6c-2.2-2.8-2.2-3.5-0.6-6.8c0.9-1.9,1.7-3.9,2.3-5.9
	c0.5-2,2.2-3.3,4.3-3.3c0.2,0,0.5,0,0.7-0.1v-8.1c-2.3,0.1-3.9-0.6-4.8-2.8c-1-2.6-2.1-5.2-3.2-7.8c-0.8-1.5-0.5-3.3,0.7-4.6
	c0.2-0.3,0.5-0.6,0.6-0.7c-1.9-1.9-3.8-3.8-5.6-5.7c-1.3,1.7-3.6,2.2-5.5,1.2c-2.4-1.1-4.9-2.1-7.5-3.1c-1.7-0.5-2.9-2.1-2.9-3.9
	c0-0.3,0-0.7,0-1h-8.1c0.1,2.3-0.7,4-2.9,4.9c-2.6,1-5.1,2.1-7.7,3.2c-1.5,0.8-3.3,0.5-4.6-0.7c-0.3-0.2-0.6-0.5-0.7-0.6
	c-1.9,1.9-3.8,3.8-5.7,5.7c1.7,1.3,2.2,3.6,1.2,5.5c-1.1,2.4-2.1,4.9-3,7.3c-0.5,1.8-2.2,3-4.1,3c-0.3,0-0.6,0-0.9,0v8.1
	c2.4-0.1,4,0.7,4.9,3c1,2.5,2,5,3.1,7.4c0.8,1.5,0.6,3.4-0.6,4.7c-0.2,0.3-0.5,0.6-0.6,0.7c1.9,1.9,3.8,3.8,5.6,5.7
	c1.4-1.5,3.1-2.2,5.2-1.3c2.6,1.1,5.2,2.2,7.8,3.2C244.9,249.8,246,251.3,246,253.1L246,253.1z M250.2,201.4
	c11.2,0,20.2,9.2,20.2,20.4c0,11.2-9.2,20.2-20.4,20.2c-11.2,0-20.2-9.1-20.2-20.3C229.8,210.5,239,201.4,250.2,201.4
	C250.2,201.4,250.2,201.4,250.2,201.4L250.2,201.4z M250.1,233.9c6.7,0,12.2-5.4,12.2-12.1c0-6.7-5.4-12.2-12.1-12.2
	c-6.7,0-12.2,5.4-12.2,12.1c0,0,0,0,0,0C237.9,228.4,243.3,233.8,250.1,233.9L250.1,233.9z M274.4,262.3c6.7,0,12.2,5.4,12.2,12.1
	c0,6.7-5.4,12.2-12.1,12.2c-6.7,0-12.2-5.4-12.2-12.1C262.3,267.7,267.7,262.3,274.4,262.3L274.4,262.3z M274.4,278.5
	c2.2,0,4.1-1.8,4.1-4c0-2.2-1.8-4.1-4-4.1c-2.2,0-4,1.7-4.1,3.9C270.3,276.6,272.1,278.4,274.4,278.5
	C274.4,278.5,274.4,278.5,274.4,278.5L274.4,278.5z M285.5,255.1c12.8-13.6,16.7-33.2,10.1-50.6c-0.2-0.6-0.5-1.2-0.7-1.8
	c-0.7-1.8,0.1-3.8,1.7-4.7c4.8-2.8,9.6-5.5,14.4-8.2c1.9-1.1,4.3-0.4,5.4,1.5c0.1,0.2,0.2,0.4,0.3,0.6c2.6,5.6,4.4,11.5,5.3,17.6
	c0.6,4,0.9,8.1,1.1,10.5c-0.3,21.4-7.1,38.5-20.8,52.7c-2.3,2.4-4.7,2.4-6.9-0.1c-3.3-3.8-6.7-7.5-10-11.3
	C283.6,259.2,283.6,257.2,285.5,255.1L285.5,255.1z M299,264.3c17.2-19.2,19.5-46.2,11.9-65.1c-2,1.1-3.9,2.2-5.9,3.4
	c-0.4,0.2-0.7,0.4-1.1,0.7c6.4,18.9,2.5,39.7-10.2,55C295.4,260.3,297.2,262.3,299,264.3L299,264.3z M294.7,189.3
	c-6.7,0-12.2-5.4-12.2-12.1c0-6.7,5.4-12.2,12.1-12.2c6.7,0,12.2,5.4,12.2,12.1C306.8,183.8,301.4,189.2,294.7,189.3L294.7,189.3z
	 M294.7,173.1c-2.2,0-4.1,1.8-4.1,4c0,2.2,1.8,4.1,4,4.1c0,0,0.1,0,0.1,0c2.2,0,4-1.8,4-4.1C298.7,174.9,296.9,173.1,294.7,173.1
	L294.7,173.1z M274.3,174.4c-1.6,2.7-3.2,3.3-6.1,2.1c-7.1-2.9-14.7-4-22.3-3.2c-19.1,2.1-32.6,12-40.5,29.4c-1,2.3-1.8,4.7-2.4,7.2
	c-0.9,3-2.7,4.2-5.8,3.4c-4.9-1.3-9.8-2.5-14.7-3.8c-2.2-0.4-3.7-2.5-3.3-4.7c0-0.2,0.1-0.4,0.2-0.7c6.4-23.8,20.8-40.8,43.6-50.1
	c18.9-7.7,38-7.2,56.9,0.9c1.8,0.7,2.9,2.4,2.9,4.3c-0.2,0.7-0.5,1.5-0.9,2.2C279.2,165.8,276.8,170.1,274.3,174.4L274.3,174.4z
	 M188.2,202.6c2.5,0.7,5,1.3,7.7,2c5.1-15.1,14.5-26.5,28.6-33.6c14.2-7.1,28.9-7.9,44.1-3c1.3-2.3,2.7-4.7,4-7
	C238.8,147.9,198.4,166.8,188.2,202.6L188.2,202.6z"/>
</svg>
