<svg width="40" height="40" viewBox="0 0 40 40" fill="none" xmlns="http://www.w3.org/2000/svg">
<path fill-rule="evenodd" clip-rule="evenodd" d="M30.3681 26.0397C30.3681 27.0077 29.6321 27.7437 28.6561 27.7437C26.2561 27.7437 23.7841 27.7437 21.3841 27.7437H21.2561V29.0797H21.3681C22.2161 29.0797 22.9921 29.0797 23.8401 29.0797C24.6561 29.0797 25.4881 29.8797 25.6481 30.6797C25.6641 30.7677 25.6721 30.8557 25.6801 30.9517C25.6881 31.1917 25.3921 31.5677 25.1521 31.5677C24.2961 31.5677 23.2801 31.5677 22.4241 31.5677H14.7601C14.4641 31.5677 14.2561 31.1997 14.2721 30.8957C14.3121 30.0397 15.2001 29.0877 16.0561 29.0797C16.9201 29.0717 17.7841 29.0797 18.6481 29.0797H18.7681V27.7437H18.6321C16.2321 27.7437 13.7521 27.7437 11.3521 27.7437C10.5441 27.7517 9.84813 27.1837 9.69613 26.3917C9.67213 26.2717 9.66413 26.1597 9.66413 26.0397C9.66413 21.5917 9.66413 16.1917 9.66413 11.7437C9.65613 10.8237 10.3921 10.0717 11.3201 10.0637C11.3281 10.0637 11.3361 10.0637 11.3441 10.0637C16.9121 10.0637 23.1201 10.0637 28.6881 10.0637C29.6081 10.0477 30.3601 10.7837 30.3761 11.7117C30.3761 11.7277 30.3761 11.7437 30.3761 11.7597C30.3681 16.1917 30.3681 21.5917 30.3681 26.0397ZM16.3441 29.9917C15.9041 29.9917 15.5041 30.2797 15.4001 30.6557H24.6401C24.6161 30.6077 24.6001 30.5677 24.5761 30.5277C24.4001 30.1917 24.0401 29.9837 23.6561 29.9997H18.9521C18.0881 29.9917 17.2161 29.9837 16.3441 29.9917ZM20.3361 29.0717V27.7437H19.6801V29.0717H20.3361ZM29.3761 24.2637C29.3761 20.2157 29.3761 16.1677 29.3761 12.1197C29.3761 11.4717 28.9521 11.0477 28.3041 11.0477C22.7761 11.0477 17.2481 11.0477 11.7201 11.0477C11.0721 11.0477 10.6481 11.4717 10.6481 12.1197C10.6481 16.1437 10.6481 20.1677 10.6481 24.1917V24.4157H29.3761V24.2637ZM29.3601 25.4157H10.6481C10.6401 25.5357 10.6401 25.6557 10.6481 25.7757C10.6561 25.9037 10.6881 26.0397 10.7361 26.1597C10.9201 26.5597 11.2481 26.7517 11.6881 26.7517C13.8481 26.7517 16.0001 26.7517 18.1601 26.7517C21.5521 26.7517 24.9361 26.7517 28.3281 26.7517C28.9841 26.7517 29.5041 26.2317 29.3601 25.4157ZM14.8241 17.4157C15.3601 17.4157 15.7921 17.8557 15.7921 18.3917C15.7921 18.9277 15.3521 19.3597 14.8161 19.3597C14.2801 19.3597 13.8481 18.9197 13.8481 18.3837C13.8481 17.8397 14.2881 17.4077 14.8241 17.4157ZM14.8241 18.7117C15.0001 18.7117 15.1441 18.5597 15.1441 18.3837C15.1441 18.2077 14.9921 18.0637 14.8161 18.0637C14.6401 18.0637 14.4961 18.2077 14.4961 18.3917C14.4961 18.5677 14.6401 18.7117 14.8241 18.7117ZM15.0001 20.0397C15.3521 19.8317 15.7041 19.6317 16.0641 19.4317C16.2881 19.3037 16.4561 19.3517 16.5761 19.5757C17.0641 20.4957 17.9041 21.1837 18.9121 21.4717C19.2561 21.5757 19.6081 21.6237 19.9601 21.6317C20.2081 21.6317 20.3361 21.7597 20.3361 22.0077C20.3361 22.2077 20.3361 22.4077 20.3361 22.6077C20.3361 22.8157 20.3361 23.0237 20.3361 23.2317C20.3521 23.4077 20.2161 23.5597 20.0401 23.5757C20.0241 23.5757 20.0001 23.5757 19.9841 23.5757C17.7121 23.5037 16.0081 22.4797 14.8721 20.5117C14.7761 20.3677 14.8161 20.1677 14.9601 20.0637C14.9681 20.0557 14.9841 20.0477 15.0001 20.0397ZM19.6801 22.9197V22.2717C18.1521 22.1197 16.9761 21.4077 16.1361 20.1277C15.9521 20.2317 15.7681 20.3357 15.5761 20.4477C16.5521 21.9437 17.9121 22.7597 19.6801 22.9197ZM19.0401 20.6157C19.0401 20.5117 19.0161 20.4557 18.9121 20.4397C18.8961 20.4397 18.8801 20.4317 18.8641 20.4237C18.7841 20.3677 18.7281 20.3917 18.6561 20.4557C18.4881 20.6317 18.3041 20.6317 18.1361 20.4557C17.8481 20.1677 17.5681 19.8877 17.2801 19.5997C17.1041 19.4237 17.1041 19.2477 17.2801 19.0797C17.3521 19.0157 17.3761 18.9597 17.3201 18.8717C17.2961 18.8397 17.2961 18.7917 17.2721 18.7597C17.2481 18.7277 17.2161 18.7117 17.1841 18.7037C17.1441 18.6957 17.1041 18.6957 17.0641 18.7037C16.8961 18.6957 16.7681 18.5597 16.7601 18.3917C16.7521 17.9517 16.7521 17.5037 16.7601 17.0637C16.7681 16.8957 16.9041 16.7597 17.0721 16.7517C17.0961 16.7517 17.1201 16.7517 17.1441 16.7517C17.2241 16.7677 17.2561 16.7277 17.2961 16.6557C17.3681 16.5197 17.3601 16.4317 17.2401 16.3197C17.1281 16.2077 17.1281 16.0157 17.2401 15.9037C17.5521 15.5917 17.8641 15.2717 18.1761 14.9677C18.3121 14.8397 18.4961 14.8557 18.6401 14.9917C18.6801 15.0237 18.7281 15.0877 18.7601 15.0797C18.8481 15.0637 18.9361 15.0237 19.0081 14.9757C19.0321 14.9597 19.0241 14.8717 19.0241 14.8237C19.0161 14.6717 19.1281 14.5357 19.2721 14.4957C19.3121 14.4877 19.3441 14.4877 19.3841 14.4877H20.6001C20.8401 14.4877 20.9761 14.6157 20.9681 14.8557C20.9681 14.9517 20.9921 15.0077 21.0881 15.0237C21.1041 15.0317 21.1281 15.0397 21.1441 15.0477C21.2241 15.1037 21.2801 15.0797 21.3521 15.0077C21.5201 14.8317 21.6961 14.8317 21.8641 14.9997C22.1521 15.2877 22.4401 15.5757 22.7281 15.8637C22.8001 15.9277 22.8481 16.0237 22.8401 16.1197C22.8401 16.2317 22.7841 16.3357 22.6961 16.3917C22.6481 16.4157 22.6321 16.4797 22.6561 16.5277C22.6561 16.5357 22.6641 16.5357 22.6641 16.5437C22.6721 16.5517 22.6721 16.5597 22.6721 16.5677C22.6961 16.7037 22.7761 16.7517 22.9201 16.7437C23.0881 16.7437 23.2321 16.8717 23.2321 17.0477C23.2321 17.0557 23.2321 17.0557 23.2321 17.0637C23.2321 17.4957 23.2321 17.9277 23.2321 18.3597C23.2321 18.5357 23.0961 18.6877 22.9121 18.6877C22.9041 18.6877 22.9041 18.6877 22.8961 18.6877C22.8401 18.6877 22.7601 18.6797 22.7361 18.7037C22.6881 18.7837 22.6481 18.8637 22.6241 18.9517C22.6241 18.9677 22.6321 18.9917 22.6481 18.9997C22.6721 19.0317 22.7041 19.0557 22.7281 19.0797C22.8561 19.1997 22.8641 19.3997 22.7441 19.5357C22.7361 19.5437 22.7281 19.5517 22.7281 19.5517C22.4321 19.8557 22.1281 20.1597 21.8241 20.4557C21.6801 20.5997 21.4801 20.5837 21.3281 20.4397C21.2961 20.4077 21.2481 20.3517 21.2241 20.3597C21.1361 20.3837 21.0481 20.4237 20.9681 20.4717C20.9521 20.5037 20.9521 20.5357 20.9601 20.5677C20.9601 20.8397 20.8401 20.9597 20.5681 20.9597H19.3841C19.1601 20.9837 19.0321 20.8557 19.0401 20.6157ZM19.6801 20.2477C19.6801 20.2717 19.6801 20.2957 19.6801 20.3277H20.3281C20.3201 20.1437 20.3841 20.0077 20.5601 19.9357C20.7601 19.8557 20.9681 19.7757 21.1681 19.6877C21.2881 19.6237 21.4401 19.6397 21.5441 19.7357C21.5681 19.7517 21.5921 19.7757 21.6081 19.7917C21.7601 19.6397 21.9041 19.4957 22.0561 19.3437C21.8801 19.1197 21.8801 19.0637 22.0081 18.7997C22.0801 18.6477 22.1441 18.4877 22.1921 18.3277C22.2321 18.1677 22.3681 18.0637 22.5361 18.0637C22.5521 18.0637 22.5761 18.0637 22.5921 18.0557V17.4077C22.4081 17.4157 22.2801 17.3597 22.2081 17.1837C22.1281 16.9757 22.0401 16.7677 21.9521 16.5597C21.8881 16.4397 21.9121 16.2957 22.0081 16.1917C22.0241 16.1677 22.0481 16.1437 22.0561 16.1357C21.9041 15.9837 21.7521 15.8317 21.6081 15.6797C21.5041 15.8157 21.3201 15.8557 21.1681 15.7757C20.9761 15.6877 20.7761 15.6077 20.5681 15.5277C20.4321 15.4877 20.3361 15.3597 20.3361 15.2157C20.3361 15.1917 20.3361 15.1597 20.3361 15.1357H19.6881C19.6961 15.3197 19.6321 15.4557 19.4561 15.5277C19.2481 15.6077 19.0481 15.6957 18.8401 15.7837C18.7201 15.8477 18.5761 15.8237 18.4721 15.7277C18.4481 15.7117 18.4241 15.6877 18.4161 15.6797C18.2641 15.8317 18.1121 15.9837 17.9601 16.1357C18.0961 16.2397 18.1361 16.4237 18.0561 16.5757C17.9681 16.7677 17.8881 16.9677 17.8161 17.1597C17.7761 17.3037 17.6401 17.3997 17.4881 17.3997C17.4641 17.3997 17.4401 17.3997 17.4161 17.3997V18.0477C17.6081 18.0397 17.7361 18.1037 17.8081 18.2877C17.8881 18.4877 17.9681 18.6877 18.0561 18.8797C18.1201 18.9997 18.1041 19.1517 18.0081 19.2557C17.9921 19.2797 17.9681 19.3037 17.9601 19.3117C18.1121 19.4637 18.2641 19.6157 18.4081 19.7677C18.5201 19.6477 18.6561 19.5917 18.8241 19.6637C19.0321 19.7517 19.2401 19.8397 19.4481 19.9197C19.5921 19.9837 19.6801 20.1037 19.6801 20.2477ZM20.0161 16.1117C20.9121 16.1117 21.6321 16.8477 21.6321 17.7437C21.6321 18.6397 20.8961 19.3597 20.0001 19.3597C19.1041 19.3597 18.3841 18.6317 18.3841 17.7357C18.3841 16.8397 19.1201 16.1117 20.0161 16.1117ZM20.0081 18.7117C20.5441 18.7117 20.9841 18.2797 20.9841 17.7437C20.9841 17.2077 20.5521 16.7677 20.0161 16.7677C19.4801 16.7677 19.0401 17.1997 19.0401 17.7357C19.0321 18.2717 19.4641 18.7037 20.0081 18.7117ZM21.9521 20.9837C22.4881 20.9837 22.9281 21.4157 22.9281 21.9517C22.9281 22.4877 22.4961 22.9277 21.9601 22.9277C21.4241 22.9277 20.9841 22.4957 20.9841 21.9597C20.9841 21.4157 21.4161 20.9837 21.9521 20.9837ZM21.9521 22.2797C22.1281 22.2797 22.2801 22.1357 22.2801 21.9597C22.2801 21.7837 22.1361 21.6317 21.9601 21.6317C21.7841 21.6317 21.6401 21.7677 21.6321 21.9437C21.6241 22.1277 21.7681 22.2717 21.9521 22.2797ZM22.8401 20.4077C23.8641 19.3197 24.1761 17.7517 23.6481 16.3597C23.6321 16.3117 23.6081 16.2637 23.5921 16.2157C23.5361 16.0717 23.6001 15.9117 23.7281 15.8397C24.1121 15.6157 24.4961 15.3997 24.8801 15.1837C25.0321 15.0957 25.2241 15.1517 25.3121 15.3037C25.3201 15.3197 25.3281 15.3357 25.3361 15.3517C25.5441 15.7997 25.6881 16.2717 25.7601 16.7597C25.8081 17.0797 25.8321 17.4077 25.8481 17.5997C25.8241 19.3117 25.2801 20.6797 24.1841 21.8157C24.0001 22.0077 23.8081 22.0077 23.6321 21.8077C23.3681 21.5037 23.0961 21.2077 22.8321 20.9037C22.6881 20.7357 22.6881 20.5757 22.8401 20.4077ZM23.9201 21.1437C25.2961 19.6077 25.4801 17.4477 24.8721 15.9357C24.7121 16.0237 24.5601 16.1117 24.4001 16.2077C24.3681 16.2237 24.3441 16.2397 24.3121 16.2637C24.8241 17.7757 24.5121 19.4397 23.4961 20.6637C23.6321 20.8237 23.7761 20.9837 23.9201 21.1437ZM23.5761 15.1437C23.0401 15.1437 22.6001 14.7117 22.6001 14.1757C22.6001 13.6397 23.0321 13.1997 23.5681 13.1997C24.1041 13.1997 24.5441 13.6317 24.5441 14.1677C24.5441 14.7037 24.1121 15.1357 23.5761 15.1437ZM23.5761 13.8477C23.4001 13.8477 23.2481 13.9917 23.2481 14.1677C23.2481 14.3437 23.3921 14.4957 23.5681 14.4957H23.5761C23.7521 14.4957 23.8961 14.3517 23.8961 14.1677C23.8961 13.9917 23.7521 13.8477 23.5761 13.8477ZM21.9441 13.9517C21.8161 14.1677 21.6881 14.2157 21.4561 14.1197C20.8881 13.8877 20.2801 13.7997 19.6721 13.8637C18.1441 14.0317 17.0641 14.8237 16.4321 16.2157C16.3521 16.3997 16.2881 16.5917 16.2401 16.7917C16.1681 17.0317 16.0241 17.1277 15.7761 17.0637C15.3841 16.9597 14.9921 16.8637 14.6001 16.7597C14.4241 16.7277 14.3041 16.5597 14.3361 16.3837C14.3361 16.3677 14.3441 16.3517 14.3521 16.3277C14.8641 14.4237 16.0161 13.0637 17.8401 12.3197C19.3521 11.7037 20.8801 11.7437 22.3921 12.3917C22.5361 12.4477 22.6241 12.5837 22.6241 12.7357C22.6081 12.7917 22.5841 12.8557 22.5521 12.9117C22.3361 13.2637 22.1441 13.6077 21.9441 13.9517ZM15.0561 16.2077C15.2561 16.2637 15.4561 16.3117 15.6721 16.3677C16.0801 15.1597 16.8321 14.2477 17.9601 13.6797C19.0961 13.1117 20.2721 13.0477 21.4881 13.4397C21.5921 13.2557 21.7041 13.0637 21.8081 12.8797C19.1041 11.8317 15.8721 13.3437 15.0561 16.2077Z" fill="black"/>
</svg>
