<svg width="40" height="40" viewBox="0 0 40 40" fill="none" xmlns="http://www.w3.org/2000/svg">
<path fill-rule="evenodd" clip-rule="evenodd" d="M33.4489 17.1516C32.4809 17.5196 31.5129 17.8956 30.5369 18.2556C30.3929 18.3116 30.3609 18.3756 30.3689 18.5276C30.3849 19.0396 30.4009 19.5516 30.3689 20.0636C30.3529 20.2876 30.4089 20.3756 30.6169 20.4476C31.6089 20.8156 32.6009 21.1916 33.5849 21.5676C33.6249 21.5836 33.6649 21.6076 33.7209 21.6316C33.5689 22.1996 33.4089 22.7596 33.2569 23.3276C33.1849 23.5756 33.1129 23.8236 33.0489 24.0796C33.0169 24.2156 32.9529 24.2476 32.8249 24.2236C32.1289 24.1116 31.4329 24.0076 30.7369 23.8956C30.3689 23.8396 30.0009 23.7756 29.6329 23.7196C29.5369 23.6876 29.4329 23.7356 29.3929 23.8316C29.1289 24.3116 28.8649 24.7836 28.5769 25.2476C28.4969 25.3756 28.4969 25.4556 28.5929 25.5756C29.2649 26.3916 29.9289 27.2076 30.5929 28.0236C30.6329 28.0716 30.6729 28.1276 30.6969 28.1596L28.8009 30.0636C27.9129 29.3356 26.9929 28.5916 26.0729 27.8396C25.9689 27.9036 25.8729 27.9596 25.7609 28.0316C25.6169 27.8076 25.4649 27.5756 25.3129 27.3436C25.5689 27.1436 25.8089 26.9596 26.0649 26.7596C26.9529 27.4876 27.8409 28.2236 28.7129 28.9356C29.0089 28.6476 29.2969 28.3676 29.5929 28.0716C28.8729 27.1996 28.1369 26.3116 27.4009 25.4156C27.5369 25.2396 27.6729 25.0796 27.8009 24.9036C28.2489 24.3036 28.6169 23.6476 28.8889 22.9596C28.9129 22.8476 29.0329 22.7756 29.1449 22.7996C29.1529 22.7996 29.1529 22.7996 29.1609 22.8076C30.1689 22.9596 31.1769 23.1116 32.1769 23.2716C32.3369 23.2956 32.4009 23.2636 32.4409 23.1036C32.5129 22.7836 32.6009 22.4716 32.6809 22.1356C32.6169 22.1036 32.5529 22.0716 32.4889 22.0476C31.5289 21.6796 30.5769 21.3116 29.6169 20.9596C29.4809 20.9036 29.4409 20.8476 29.4649 20.7036C29.5849 19.7996 29.6169 18.8876 29.4649 17.9756C29.4409 17.8316 29.4809 17.7756 29.6089 17.7276C30.5529 17.3756 31.4969 17.0076 32.4409 16.6476C32.5129 16.6156 32.5849 16.5836 32.6809 16.5516C32.5849 16.1916 32.4969 15.8316 32.3929 15.4716C32.3849 15.4316 32.2729 15.3996 32.2249 15.4076C31.3929 15.5356 30.5529 15.6796 29.7209 15.8156C29.6649 15.8236 29.6169 15.8316 29.5609 15.8396C29.3609 15.8636 29.1289 15.9596 28.9849 15.8876C28.8489 15.8156 28.8009 15.5676 28.7209 15.3916C28.3609 14.6556 27.9529 13.9436 27.4009 13.3036C28.1369 12.4076 28.8649 11.5276 29.5849 10.6476C29.2969 10.3596 29.0089 10.0716 28.7129 9.77565C27.8489 10.4876 26.9609 11.2156 26.0649 11.9596C25.8889 11.8236 25.7129 11.6876 25.5449 11.5516C24.9529 11.1116 24.3049 10.7516 23.6169 10.4716C23.4809 10.4156 23.4329 10.3516 23.4569 10.2076C23.6089 9.19965 23.7609 8.19165 23.9209 7.19165C23.9449 7.03965 23.9289 6.95965 23.7609 6.92765C23.4409 6.85565 23.1209 6.76765 22.7769 6.67965C22.6089 7.11965 22.4489 7.54365 22.2809 7.96765C22.0569 8.55965 21.8249 9.14365 21.6089 9.74365C21.5529 9.89565 21.4889 9.91965 21.3289 9.89565C20.4249 9.75165 19.5209 9.78365 18.6249 9.89565C18.4889 9.91165 18.4249 9.88765 18.3769 9.75165C18.0249 8.80765 17.6569 7.86365 17.2969 6.91965C17.2649 6.84765 17.2409 6.77565 17.2009 6.67965C16.8409 6.77565 16.4809 6.86365 16.1289 6.96765C16.0809 7.00765 16.0569 7.07165 16.0569 7.13565C16.1849 7.97565 16.3289 8.81565 16.4649 9.65565C16.4969 9.83965 16.5209 10.0236 16.5609 10.2076C16.5849 10.3436 16.5449 10.4156 16.4169 10.4876C15.7689 10.8316 15.1369 11.1916 14.4969 11.5516C14.2889 11.6716 14.1129 11.8396 13.9049 11.9996C13.0249 11.2716 12.1369 10.5436 11.2729 9.82365L10.3929 10.6956C11.0969 11.5516 11.8329 12.4396 12.5689 13.3356L12.3609 13.5996C11.8329 14.2636 11.4009 14.9996 11.0889 15.7836C11.0329 15.9356 10.9529 15.9676 10.8009 15.9436C9.79288 15.7756 8.77688 15.6076 7.76888 15.4396C7.64088 15.4156 7.57688 15.4396 7.54488 15.5756C7.47288 15.9036 7.37688 16.2316 7.28888 16.5836C8.36888 16.9996 9.44088 17.4076 10.5209 17.8236C10.4969 18.0876 10.4729 18.3436 10.4409 18.5996C10.3529 19.3116 10.4249 20.0236 10.5449 20.7276C10.5689 20.8876 10.5289 20.9436 10.3849 20.9996C9.42488 21.3596 8.47288 21.7276 7.51288 22.0956C7.45688 22.1196 7.40088 22.1436 7.32888 22.1756C7.42488 22.5356 7.51287 22.8956 7.61687 23.2556C7.62487 23.2876 7.73688 23.3276 7.79288 23.3196C8.72088 23.1756 9.64088 23.0236 10.5689 22.8716C11.0329 22.7916 11.0329 22.7836 11.2249 23.1996C11.6009 23.9916 12.0249 24.7516 12.6169 25.4236C11.8809 26.3196 11.1449 27.2076 10.4329 28.0716L11.3049 28.9436C12.1689 28.2316 13.0569 27.5036 13.9449 26.7676C14.2649 27.0076 14.5769 27.2396 14.9129 27.4796C14.7689 27.7036 14.6249 27.9276 14.4649 28.1676C14.2889 28.0556 14.1209 27.9516 13.9529 27.8396C13.0329 28.5916 12.1209 29.3356 11.2249 30.0636L9.32088 28.1516C9.38488 28.0716 9.47288 27.9596 9.56088 27.8556C10.1849 27.0876 10.8089 26.3276 11.4329 25.5676C11.5209 25.4636 11.5209 25.3916 11.4489 25.2716C11.1609 24.7916 10.8889 24.3036 10.6009 23.8236C10.5529 23.7596 10.4809 23.7276 10.4009 23.7276C9.35288 23.8876 8.31288 24.0476 7.26488 24.2236C7.06488 24.2556 6.98487 24.2236 6.93687 24.0156C6.74487 23.2636 6.52888 22.5116 6.32888 21.7596C6.32088 21.7196 6.31287 21.6876 6.29688 21.6316C6.84088 21.4236 7.38488 21.2156 7.92088 21.0156C8.44088 20.8156 8.96088 20.6156 9.48888 20.4236C9.61688 20.3756 9.65687 20.3196 9.65687 20.1756C9.64887 19.6236 9.64087 19.0716 9.65687 18.5196C9.65687 18.3676 9.58488 18.3436 9.48088 18.3036C8.48088 17.9196 7.48088 17.5436 6.48088 17.1596C6.42488 17.1356 6.36887 17.1116 6.29688 17.0876C6.37687 16.7916 6.45687 16.5116 6.53687 16.2236C6.68087 15.6956 6.82488 15.1756 6.96088 14.6476C6.99288 14.5116 7.05688 14.4796 7.18488 14.4956C7.88888 14.6076 8.59287 14.7196 9.29687 14.8316C9.66487 14.8876 10.0329 14.9436 10.4009 15.0076C10.4889 15.0316 10.5849 14.9836 10.6169 14.8956C10.8809 14.4236 11.1449 13.9516 11.4249 13.4956C11.5129 13.3516 11.5209 13.2716 11.4089 13.1356C10.7369 12.3276 10.0809 11.5196 9.42488 10.7036C9.38488 10.6556 9.34488 10.5996 9.31288 10.5676C9.94488 9.93565 10.5689 9.31165 11.2169 8.66365C11.2489 8.68765 11.3049 8.72765 11.3689 8.77565C12.1849 9.43965 13.0009 10.1036 13.8169 10.7756C13.9209 10.8636 13.9929 10.8636 14.1129 10.7916C14.5849 10.5036 15.0649 10.2316 15.5449 9.96765C15.6409 9.91165 15.6809 9.86365 15.6649 9.75165C15.4969 8.70365 15.3369 7.64765 15.1609 6.59965C15.1369 6.43165 15.1529 6.35165 15.3369 6.30365C16.1049 6.10365 16.8729 5.88765 17.6489 5.67965C17.6889 5.67165 17.7209 5.66365 17.7609 5.65565C17.9689 6.20765 18.1769 6.75165 18.3849 7.29565C18.5769 7.80765 18.7769 8.31165 18.9609 8.82365C19.0169 8.98365 19.1049 8.99965 19.2569 8.99965C19.7929 8.98365 20.3209 8.99165 20.8569 8.99965C20.9929 8.99965 21.0409 8.95965 21.0809 8.83965C21.4489 7.85565 21.8249 6.87165 22.2009 5.89565C22.2329 5.81565 22.2649 5.73565 22.3049 5.63965C22.6169 5.72765 22.9129 5.80765 23.2169 5.88765C23.7289 6.03165 24.2409 6.17565 24.7529 6.30365C24.8889 6.33565 24.9209 6.39965 24.8969 6.52765C24.7449 7.48765 24.5929 8.44765 24.4409 9.40765C24.3609 9.87165 24.3609 9.86365 24.7689 10.0876C25.1609 10.3036 25.5369 10.5356 25.9129 10.7756C26.0409 10.8556 26.1209 10.8556 26.2409 10.7596C27.0489 10.0956 27.8569 9.43165 28.6729 8.77565C28.7289 8.72765 28.7849 8.68765 28.8489 8.63965C29.4889 9.27965 30.1049 9.90365 30.7449 10.5436C30.7129 10.5916 30.6729 10.6476 30.6249 10.7036C29.9609 11.5196 29.2969 12.3356 28.6249 13.1516C28.5289 13.2716 28.5289 13.3436 28.6089 13.4796C28.8969 13.9436 29.1609 14.4236 29.4249 14.8956C29.4649 14.9916 29.5689 15.0396 29.6649 15.0076C30.7129 14.8396 31.7689 14.6716 32.8169 14.5036C32.9609 14.4796 33.0409 14.4876 33.0889 14.6556C33.2969 15.4476 33.5209 16.2316 33.7449 17.0476C33.6249 17.0796 33.5369 17.1196 33.4489 17.1516ZM14.9369 24.4396C13.7849 23.2236 13.1289 21.7836 13.0089 20.1196C12.7289 16.4076 15.2889 13.1756 18.9929 12.6236C22.4889 12.0796 25.8329 14.2636 26.7449 17.6796C27.5209 20.5916 26.7289 23.0716 24.4729 25.0956C24.0169 25.5036 23.7289 26.0156 23.7449 26.6556C23.7529 26.9916 23.7449 27.3196 23.7449 27.6876H24.4169C24.4249 27.7676 24.4249 27.8316 24.4249 27.8956C24.4249 28.7436 24.4249 29.5916 24.4249 30.4316C24.4329 30.5516 24.3849 30.6636 24.2969 30.7436C24.0889 30.9356 23.8809 31.1356 23.6889 31.3516C23.6169 31.4316 23.5769 31.5356 23.5689 31.6476C23.5529 32.0556 23.5609 32.4636 23.5609 32.8636C23.5609 33.0076 23.5289 33.0716 23.3689 33.0716C21.1129 33.0636 18.8649 33.0636 16.6089 33.0716C16.4649 33.0716 16.4249 33.0236 16.4249 32.8876C16.4329 32.4716 16.4329 32.0476 16.4169 31.6316C16.4089 31.5276 16.3689 31.4316 16.3049 31.3516C16.0969 31.1276 15.8729 30.9196 15.6569 30.6956C15.6089 30.6476 15.5769 30.5836 15.5689 30.5116C15.5609 29.5756 15.5689 28.6476 15.5689 27.7116C15.5769 27.6876 15.5769 27.6636 15.5849 27.6396H16.2249C16.2889 26.7596 16.3049 25.9116 15.6649 25.2156C15.4329 24.9596 15.1849 24.7036 14.9369 24.4396ZM17.2729 32.1916H22.7289C22.7369 32.1276 22.7369 32.0796 22.7369 32.0396C22.7369 31.6716 22.7689 31.7196 22.4169 31.7196C20.8409 31.7196 19.2569 31.7196 17.6809 31.7196C17.2329 31.7116 17.2329 31.7116 17.2729 32.1916ZM16.3929 28.6876C16.4089 28.9596 16.4009 29.2316 16.4009 29.5036C16.4009 30.2556 16.4009 30.2556 16.9529 30.7756C17.0169 30.8316 17.1049 30.8716 17.1929 30.8716C19.0649 30.8796 20.9369 30.8796 22.8089 30.8716C22.8729 30.8716 22.9369 30.8556 22.9929 30.8236C23.1369 30.7116 23.2729 30.5836 23.4089 30.4556C23.3929 30.4316 23.3769 30.3996 23.3609 30.3756H20.3209V29.5436H23.6009C23.6009 29.2236 23.5929 28.9276 23.6009 28.6396C23.6089 28.4956 23.5529 28.4556 23.4169 28.4556C22.8809 28.4636 22.3529 28.4556 21.8169 28.4556C20.0889 28.4556 18.3529 28.4556 16.6169 28.4556C16.4489 28.4636 16.3849 28.5116 16.3929 28.6876ZM16.2969 24.6876C16.8089 25.2796 17.0969 25.9676 17.0809 26.7676C17.0809 26.9916 17.0889 27.2236 17.0729 27.4476C17.0649 27.6076 17.1129 27.6556 17.2729 27.6556C18.1689 27.6476 19.0729 27.6476 19.9689 27.6476C20.8809 27.6476 21.7929 27.6476 22.7049 27.6556C22.8649 27.6556 22.9129 27.6076 22.9049 27.4476C22.8969 27.1516 22.9049 26.8476 22.8969 26.5516C22.8809 25.6556 23.2809 24.9516 23.9209 24.3836C25.8009 22.7196 26.5289 20.6556 26.0169 18.2076C25.3289 14.9276 22.0089 12.8236 18.7369 13.5036C15.6969 14.1436 13.5289 17.0156 13.8089 20.1276C13.9129 21.4876 14.4649 22.7756 15.3769 23.7836C15.6809 24.0956 16.0169 24.3676 16.2969 24.6876ZM18.1849 18.7676C18.5929 18.7756 18.9849 18.9356 19.2889 19.2236C19.4809 19.4236 19.7689 19.5116 20.0409 19.4476C20.2089 19.4156 20.3849 19.3756 20.4409 19.1756C20.4729 19.1276 20.5129 19.0956 20.5529 19.0716C21.1209 18.6316 21.9049 18.6156 22.4889 19.0236C22.7369 19.2076 22.9529 19.4396 23.1849 19.6476C22.9769 19.8476 22.7929 20.0316 22.5529 20.2636C22.4489 20.1356 22.3369 19.9836 22.2089 19.8556C21.8169 19.4636 21.3849 19.4556 20.9769 19.8316C20.3049 20.4476 19.3929 20.4556 18.7209 19.8556C18.3209 19.5036 17.8809 19.5116 17.4969 19.8956C17.3849 20.0076 17.2809 20.1276 17.1449 20.2796C17.0409 20.1596 16.9529 20.0556 16.8649 19.9676C16.7689 19.8716 16.6729 19.7836 16.5689 19.6956C17.0009 19.1596 17.4649 18.7436 18.1849 18.7676Z" fill="#FF161F"/>
</svg>
