<svg width="35" height="35" viewBox="0 0 35 35" fill="none" xmlns="http://www.w3.org/2000/svg">
<path fill-rule="evenodd" clip-rule="evenodd" d="M34.6595 4.35095C34.3722 5.28324 33.9678 6.17363 33.4677 7.01165C33.3613 7.2002 33.191 7.34686 32.9995 7.44113C32.3929 7.72396 31.7544 7.94394 31.0947 8.06965C30.9776 8.0906 30.8712 8.14297 30.7648 8.19535C30.5201 8.35248 30.4456 8.66673 30.6052 8.90766C30.6797 9.02289 30.7967 9.10669 30.9351 9.13812C31.3288 9.21144 31.7225 9.26382 32.1056 9.32667C32.1375 9.33715 32.1694 9.33715 32.2333 9.33715C32.212 9.4 32.1907 9.45237 32.1588 9.50475C31.7864 10.1437 31.4139 10.7722 31.0415 11.4112C30.9883 11.495 30.9138 11.5579 30.818 11.5893C30.1583 11.9036 29.4559 12.1131 28.7323 12.2074C28.4876 12.2388 28.2429 12.2702 27.9981 12.3226C27.7108 12.3854 27.5299 12.6578 27.5937 12.9406C27.6257 13.0977 27.7321 13.2234 27.8704 13.2968C28.1471 13.412 28.4238 13.5063 28.7111 13.5901C28.9026 13.6425 29.0941 13.6844 29.3176 13.7263C29.2538 13.7996 29.2006 13.8624 29.1474 13.9253C28.5408 14.6166 27.8385 15.2137 27.0617 15.6956C26.5509 16.0203 25.9869 16.2508 25.4017 16.3765C25.0505 16.4498 24.6993 16.4708 24.3482 16.4393C23.9225 16.4079 23.6352 16.565 23.4224 16.9317C22.7946 17.9897 22.1455 19.0267 21.5283 20.0847C21.3686 20.3571 20.6025 20.4513 20.2939 20.4932C20.3258 20.4304 19.9959 20.378 20.0172 20.3256C21.0494 18.4296 22.1987 16.5965 23.4756 14.8471C24.0715 14.0405 24.7951 13.2758 25.4123 12.4902C25.4655 12.4273 25.5187 12.3645 25.5719 12.2912C25.7528 12.0712 26.2742 11.6941 26.1253 11.5369C25.955 11.3589 25.8911 11.3903 25.6677 11.5369C25.3484 11.7464 25.0399 11.9664 24.7313 12.1969C24.0183 12.7416 23.3479 13.3282 22.6988 13.9462C22.486 14.1453 22.2732 14.3338 22.0284 14.5538C21.9965 14.4386 21.9646 14.3652 21.9433 14.271C21.7198 13.2863 21.8369 12.2597 22.2625 11.3484C22.5711 10.6675 22.9861 10.0285 23.4756 9.46285C23.4969 9.43142 23.5182 9.4 23.5288 9.36857C23.5501 9.37905 23.5607 9.37905 23.582 9.38952C23.6033 9.45237 23.6246 9.51522 23.6459 9.57808C23.7523 9.95518 23.9332 10.3113 24.1673 10.6256C24.2843 10.8037 24.4972 10.8875 24.71 10.8351C24.9334 10.8141 25.1037 10.6361 25.125 10.4266C25.1569 10.1228 25.1782 9.81901 25.1888 9.50475C25.2101 8.90766 25.3272 8.32105 25.5187 7.76586C25.6038 7.51446 25.7635 7.29448 25.9763 7.13735C26.5403 6.68692 27.1362 6.26791 27.7534 5.88033C27.8172 5.83843 27.881 5.807 27.9555 5.7651C28.0087 6.01651 28.0619 6.25744 28.1152 6.48789C28.1471 6.63454 28.1896 6.77072 28.2429 6.9069C28.3067 7.13735 28.5302 7.29448 28.7643 7.28401C29.009 7.27353 29.2218 7.09545 29.275 6.85452C29.3921 6.43551 29.4985 6.01651 29.6368 5.60797C29.7326 5.35657 29.8497 5.10516 29.9774 4.86423C30.0518 4.71758 30.1795 4.59188 30.3285 4.51855C31.3926 3.92146 32.5632 3.51293 33.7763 3.30343C34.1806 3.2301 34.585 3.1882 35 3.1882C34.8829 3.60721 34.7765 3.98432 34.6595 4.35095ZM17.2079 20.399C17.0377 20.7551 16.8674 21.1218 16.6865 21.4674C16.5163 21.7817 16.2502 22.0436 15.931 22.2112C15.4628 22.4626 15.0052 22.7245 14.537 22.9863C14.5157 22.9968 14.4838 23.0073 14.4519 23.0282C14.2603 22.7768 14.0794 22.5254 13.8773 22.2531C14.9946 21.6141 16.0906 20.9751 17.2079 20.3361C17.1973 20.3466 17.2079 20.378 17.2079 20.399ZM11.3021 18.9324C13.6644 17.5707 16.0161 16.2089 18.3891 14.8366C18.5913 15.0985 18.7935 15.3499 19.0063 15.6223C16.6333 16.9945 14.271 18.3563 11.898 19.7285C11.7065 19.4667 11.5149 19.2048 11.3021 18.9324ZM20.0598 8.04869C19.9853 8.10107 19.9108 8.15345 19.8257 8.19535C16.1119 10.259 12.3981 12.3331 8.67373 14.3967C8.41834 14.5433 8.15231 14.6795 7.88628 14.8366C7.54576 14.4071 7.20524 13.9881 6.86473 13.5691C6.87537 13.5482 6.89665 13.5272 6.90729 13.5063C7.47127 13.0454 7.84371 12.4064 7.98205 11.6941C8.2268 10.4894 7.67345 8.79244 6.1092 8.14297C4.89611 7.62969 3.50211 7.89157 2.55505 8.80291C1.44837 9.87138 1.26747 11.5684 2.14004 12.8359C2.4912 13.3491 2.89557 13.831 3.28929 14.3233C6.39651 18.2201 9.50374 22.1169 12.611 26.0032C12.9196 26.3908 13.2281 26.7679 13.5367 27.1555C13.9411 27.6583 14.2603 28.2344 14.4625 28.842C14.5583 29.1562 14.6221 29.481 14.6541 29.8057C14.6647 29.9105 14.686 30.0152 14.6966 30.12C14.7498 30.3923 15.0159 30.5704 15.2925 30.518C15.3138 30.518 15.3245 30.5075 15.3351 30.5075C15.4522 30.4761 15.5586 30.4237 15.665 30.3714C18.9744 28.3182 22.2731 26.2651 25.5719 24.2119C26.0082 23.9605 26.3913 23.6253 26.6892 23.2273C27.3384 22.3159 27.4128 20.9646 26.7424 19.9695C26.636 19.8124 26.5083 19.6552 26.4019 19.4981C26.9233 19.3095 27.4448 19.1315 27.9768 18.9429C27.9981 18.9639 28.0194 18.9848 28.03 19.0058C28.7643 20.0742 29.0303 21.2579 28.7643 22.515C28.5195 23.7091 27.7853 24.7357 26.7424 25.3747C25.3484 26.2546 23.9438 27.124 22.5392 27.9935C19.1978 30.0676 15.8565 32.1417 12.5152 34.2158C10.2699 35.6613 7.25845 35.0538 5.77932 32.8435C5.48137 32.4035 5.26855 31.9217 5.13021 31.4084C4.74713 29.5438 5.22598 27.9411 6.66254 26.6422C6.70511 26.6003 6.75831 26.5689 6.82216 26.5165C7.15204 26.925 7.47127 27.3335 7.80115 27.7421C7.65217 27.8887 7.51384 28.0249 7.38614 28.1716C6.8328 28.7582 6.55613 29.5333 6.61998 30.3295C6.6519 31.0732 6.92857 31.796 7.40742 32.3721C7.67345 32.6969 8.01397 32.9483 8.39705 33.1159C8.91847 33.3463 9.48246 33.4511 10.0571 33.4301C11.4404 33.3568 12.6216 32.4035 12.9728 31.0837C13.2494 30.1514 13.0579 29.1562 12.462 28.3811C11.9512 27.6897 11.3979 27.0193 10.8552 26.3489C8.69501 23.6358 6.53485 20.9227 4.36405 18.2096C3.32121 16.9002 2.26774 15.5908 1.21426 14.2814C0.895024 13.8834 0.628995 13.4434 0.40553 12.9825C0.0118068 12.155 -0.0520403 11.296 0.0330891 10.4056C0.0969362 9.70378 0.352324 9.02289 0.746048 8.43628C1.18234 7.80777 1.77824 7.29448 2.48056 6.9488C4.50238 5.92223 6.51357 4.87471 8.54603 3.85861C10.7913 2.72729 13.0366 1.61692 15.2819 0.506548C15.7927 0.234193 16.3567 0.0665891 16.9419 0.014213C17.6974 -0.0486382 18.453 0.0980147 19.1234 0.433221C20.1662 0.956981 20.9856 1.69025 21.4431 2.75872C22.039 4.16239 21.9433 5.53465 21.1665 6.865C20.8792 7.29448 20.5067 7.71349 20.0598 8.04869ZM20.0917 3.76434C19.7831 2.53874 18.7403 1.60644 17.2718 1.57502C16.7717 1.57502 16.2822 1.69025 15.8352 1.9207C13.4197 3.13582 11.0148 4.35095 8.60988 5.56607C8.25872 5.74415 7.90756 5.92223 7.5564 6.10031C7.27973 6.22601 7.15204 6.54027 7.26909 6.8231C7.31165 6.92785 7.39678 7.01165 7.49255 7.0745C7.60961 7.14783 7.71602 7.23163 7.81179 7.31543C8.88655 8.1744 9.52502 9.26382 9.65271 10.6361C9.674 10.8665 9.68464 11.097 9.7272 11.317C9.75913 11.5055 9.9081 11.6417 10.0996 11.6731C10.3018 11.7255 10.4721 11.6417 10.6423 11.5474C11.9725 10.8037 13.292 10.0704 14.6221 9.32667C15.9736 8.57246 17.3144 7.81824 18.6764 7.06403C19.6554 6.51932 20.1662 5.70225 20.2407 4.46617C20.1875 4.33 20.1556 4.03669 20.0917 3.76434Z" fill="white"/>
</svg>
