<svg width="110" height="180" viewBox="0 0 110 180" fill="none" xmlns="http://www.w3.org/2000/svg">
<path fill-rule="evenodd" clip-rule="evenodd" d="M95 180C91.0218 180 87.2064 178.42 84.3934 175.607C81.5803 172.794 80 168.978 80 165V15C80 11.0218 81.5803 7.20642 84.3934 4.39337C87.2064 1.58033 91.0218 0 95 0C98.9782 0 102.794 1.58033 105.607 4.39337C108.42 7.20642 110 11.0218 110 15V165C110 168.978 108.42 172.794 105.607 175.607C102.794 178.42 98.9782 180 95 180ZM15 180C11.0218 180 7.20642 178.42 4.39337 175.607C1.58033 172.794 0 168.978 0 165V115C0 111.022 1.58033 107.206 4.39337 104.393C7.20642 101.58 11.0218 100 15 100C18.9782 100 22.7936 101.58 25.6066 104.393C28.4197 107.206 30 111.022 30 115V165C30 168.978 28.4197 172.794 25.6066 175.607C22.7936 178.42 18.9782 180 15 180Z" fill="#000000"/>
</svg>
