<svg width="190" height="180" viewBox="0 0 190 180" fill="none" xmlns="http://www.w3.org/2000/svg">
<path fill-rule="evenodd" clip-rule="evenodd" d="M175 180C171.022 180 167.206 178.42 164.393 175.607C161.58 172.794 160 168.978 160 165V115C160 111.022 161.58 107.206 164.393 104.393C167.206 101.58 171.022 100 175 100C178.978 100 182.794 101.58 185.607 104.393C188.42 107.206 190 111.022 190 115V165C190 168.978 188.42 172.794 185.607 175.607C182.794 178.42 178.978 180 175 180ZM95 180C91.0218 180 87.2064 178.42 84.3934 175.607C81.5803 172.794 80 168.978 80 165V15C80 11.0218 81.5803 7.20642 84.3934 4.39337C87.2064 1.58033 91.0218 0 95 0C98.9782 0 102.794 1.58033 105.607 4.39337C108.42 7.20642 110 11.0218 110 15V165C110 168.978 108.42 172.794 105.607 175.607C102.794 178.42 98.9782 180 95 180ZM15 180C11.0218 180 7.20645 178.42 4.3934 175.607C1.58036 172.794 0 168.978 0 165V75C0 71.0218 1.58036 67.2064 4.3934 64.3934C7.20645 61.5803 11.0218 60 15 60C18.9782 60 22.7936 61.5803 25.6066 64.3934C28.4196 67.2064 30 71.0218 30 75V165C30 168.978 28.4196 172.794 25.6066 175.607C22.7936 178.42 18.9782 180 15 180Z" fill="black"/>
</svg>
