<svg width="11" height="18" viewBox="0 0 11 18" fill="none" xmlns="http://www.w3.org/2000/svg">
<g clip-path="url(#clip0_1772_25)">
<path fill-rule="evenodd" clip-rule="evenodd" d="M9.5 18C8.67 18 8 17.33 8 16.5V1.5C8 0.67 8.67 0 9.5 0C10.33 0 11 0.67 11 1.5V16.5C11 17.33 10.33 18 9.5 18ZM1.5 18C0.67 18 0 17.33 0 16.5V11.5C0 10.67 0.67 10 1.5 10C2.33 10 3 10.67 3 11.5V16.5C3 17.33 2.33 18 1.5 18Z" fill="white"/>
</g>
<defs>
<clipPath id="clip0_1772_25">
<rect width="11" height="18" fill="white"/>
</clipPath>
</defs>
</svg>
