<svg width="500" height="500" viewBox="0 0 500 500" fill="none" xmlns="http://www.w3.org/2000/svg">
<g clip-path="url(#clip0_504_51)">
<path fill-rule="evenodd" clip-rule="evenodd" d="M357.049 128.953C296.03 74.8875 203.955 74.8744 142.937 128.939L80.3613 66.3644C176.012 -22.1215 323.986 -22.1215 419.637 66.3644L357.049 128.953ZM143.953 371.903C204.641 424.794 295.384 424.821 356.073 371.93L418.674 434.531C323.314 521.816 176.685 521.829 81.3376 434.531L143.953 371.903Z" fill="#291212"/>
<path fill-rule="evenodd" clip-rule="evenodd" d="M371.061 357.061C424.823 296.373 425.087 204.971 371.905 143.953L434.533 81.3257C522.122 177.002 521.819 324.303 433.636 419.636L371.061 357.061ZM128.952 357.048L66.3644 419.636C-21.8191 324.303 -22.1226 177.015 65.4669 81.3257L128.069 143.927C74.8737 204.945 75.1906 296.359 128.952 357.048Z" fill="#292929"/>
</g>
<defs>
<clipPath id="clip0_504_51">
<rect width="500" height="500" fill="white"/>
</clipPath>
</defs>
</svg>
