<svg width="631" height="631" viewBox="0 0 631 631" fill="none" xmlns="http://www.w3.org/2000/svg">
<g clip-path="url(#clip0_504_73)">
<path fill-rule="evenodd" clip-rule="evenodd" d="M450.596 162.738C373.59 94.5081 257.391 94.4915 180.386 162.722L101.416 83.7519C222.127 -27.9173 408.871 -27.9173 529.582 83.7519L450.596 162.738ZM181.668 469.342C258.257 536.091 372.774 536.124 449.364 469.376L528.366 548.378C408.022 658.532 222.977 658.549 102.648 548.378L181.668 469.342Z" fill="#F6DEDF"/>
<path fill-rule="evenodd" clip-rule="evenodd" d="M468.279 450.611C536.127 374.023 536.46 258.674 469.344 181.669L548.381 102.633C658.919 223.376 658.536 409.27 547.248 529.58L468.279 450.611ZM162.738 450.595L83.7518 529.58C-27.5357 409.27 -27.9187 223.393 82.6192 102.633L161.623 181.636C94.4907 258.64 94.8906 374.005 162.738 450.595Z" fill="white"/>
</g>
<defs>
<clipPath id="clip0_504_73">
<rect width="631" height="631" fill="white"/>
</clipPath>
</defs>
</svg>
