<svg width="25" height="25" viewBox="0 0 25 25" fill="none" xmlns="http://www.w3.org/2000/svg">
<path fill-rule="evenodd" clip-rule="evenodd" d="M22.3196 13.3967C22.3196 13.6885 22.3272 13.9721 22.3174 14.2557C22.2935 15.0396 22.2848 15.8243 22.2261 16.6054C22.175 17.2906 21.9184 17.9247 21.6106 18.5326C20.9152 19.9441 19.7528 21.0708 18.3213 21.7209C17.5641 22.0832 16.7362 22.2733 15.897 22.2776C15.1008 22.2764 14.3048 22.3067 13.5086 22.3131C12.0797 22.324 10.6505 22.327 9.22161 22.3349C8.5432 22.3389 7.86478 22.3516 7.18626 22.3505C7.13873 22.3441 7.09056 22.3566 7.05217 22.3854C7.01379 22.4142 6.98829 22.457 6.98118 22.5045C6.76157 23.2163 6.32058 23.8392 5.72254 24.2823C5.28553 24.6132 4.77781 24.8381 4.23931 24.9392C3.70081 25.0404 3.14622 25.015 2.61917 24.8651C2.09212 24.7153 1.60698 24.445 1.20192 24.0756C0.796851 23.7062 0.482906 23.2477 0.284786 22.7362C-0.552494 20.6637 0.732022 18.3618 2.92657 17.9381C3.75807 17.775 4.62044 17.9167 5.35619 18.3376C6.09195 18.7584 6.65201 19.4301 6.9341 20.2302C7.03642 20.5242 7.03772 20.5312 7.3473 20.4755C8.99315 20.1802 10.2424 19.3207 11.0425 17.8399C11.3906 17.1856 11.5831 16.4596 11.6048 15.7185C11.6118 15.5465 11.6271 15.3757 11.6393 15.1938H13.4081C13.433 17.2761 12.7374 19.0602 11.2056 20.5387C11.2784 20.544 11.315 20.5504 11.3517 20.5496C13.0073 20.5362 14.6631 20.5293 16.3183 20.4985C16.5488 20.495 16.7804 20.384 17.0066 20.3095C18.1973 19.915 19.1433 19.2019 19.799 18.1221C20.1405 17.5867 20.3685 16.9867 20.4688 16.3594C20.5072 15.9806 20.525 15.5999 20.5221 15.2191C20.5362 14.6391 20.5416 14.0585 20.5503 13.4785C20.5514 13.4567 20.5471 13.4344 20.5449 13.4012H17.8526C19.0541 11.9076 20.2317 10.4431 21.4235 8.96108C21.6116 9.18657 21.7812 9.38572 21.9454 9.58933C22.936 10.8203 23.9259 12.0528 24.9151 13.2868C24.9417 13.3156 24.97 13.3427 24.9999 13.3681V13.3967H22.3196ZM3.55148 19.6566C2.6283 19.6606 1.84539 20.4539 1.82256 21.4163C1.80081 22.3166 2.54783 23.2487 3.59628 23.1865C4.5884 23.2673 5.32249 22.3155 5.35783 21.5762C5.37717 21.3285 5.34455 21.0795 5.26207 20.8452C5.17959 20.6109 5.04907 20.3965 4.8789 20.2158C4.70873 20.035 4.50267 19.8919 4.27397 19.7956C4.04527 19.6993 3.79899 19.652 3.55094 19.6567L3.55148 19.6566ZM21.9227 7.10518C21.2328 7.20308 20.5294 7.09642 19.8994 6.7984C19.2694 6.50037 18.7404 6.02403 18.3778 5.42825C18.0152 4.83247 17.8348 4.14336 17.8591 3.44608C17.8833 2.7488 18.111 2.0739 18.5141 1.50481C18.9172 0.935709 19.478 0.49735 20.1272 0.243898C20.7764 -0.00955286 21.4855 -0.0669847 22.1669 0.0786976C22.8483 0.22438 23.4722 0.566791 23.9614 1.06362C24.4506 1.56045 24.7837 2.18991 24.9195 2.87423C24.9532 3.04213 24.9739 3.21177 25 3.38151V3.73429C24.9554 3.99703 24.9304 4.26433 24.863 4.5201C24.5129 5.85271 23.2863 6.92552 21.9227 7.10518ZM21.4356 1.79031C20.9685 1.79674 20.5222 1.98491 20.1912 2.315C19.8602 2.64508 19.6704 3.09118 19.6621 3.55888C19.6479 4.50964 20.4471 5.40226 21.441 5.3169C22.4175 5.41685 23.1602 4.42123 23.1982 3.70413C23.2123 3.46156 23.1774 3.21863 23.0957 2.98983C23.014 2.76103 22.8871 2.55105 22.7226 2.37241C22.5581 2.19377 22.3594 2.05013 22.1383 1.95005C21.9172 1.84996 21.6782 1.79549 21.4356 1.78988V1.79031ZM13.3063 9.8244C12.765 9.82092 12.2238 9.82212 11.6823 9.82146C11.666 9.81934 11.6499 9.8157 11.6343 9.81058V8.03797H13.3944C13.4003 8.07338 13.4042 8.10907 13.4062 8.1449C13.4068 8.66622 13.4062 9.18701 13.4076 9.70768C13.4079 9.7802 13.3982 9.82538 13.3063 9.8244ZM11.6318 11.6109H13.3951V13.3899H11.6317V11.6111L11.6318 11.6109ZM13.4112 4.46772V6.2351H11.6257V4.46544H8.93639C10.1348 2.97593 11.3104 1.51473 12.5139 0.0189034C13.7123 1.50787 14.8899 2.97125 16.0675 4.43462C16.0595 4.44627 16.0515 4.4564 16.0435 4.46729H13.4111L13.4112 4.46772ZM6.62289 11.5796C6.19533 12.0078 5.78137 12.4217 5.3586 12.8453C4.69747 12.1828 4.02417 11.5086 3.33097 10.8147C3.27225 10.8822 3.22332 10.9472 3.1659 11.0041C2.59286 11.5714 2.01864 12.1376 1.44328 12.7027C1.28854 12.8538 1.27897 12.8561 1.12217 12.7062C0.801289 12.4005 0.487908 12.0861 0.170394 11.7763C0.116025 11.724 0.0568698 11.6775 0 11.6275V11.6002C0.68077 10.9106 1.36151 10.2215 2.0422 9.53293C1.37651 8.86635 0.70234 8.19128 0.0196848 7.50772C0.442457 7.08525 0.855335 6.67324 1.26332 6.26646C1.93902 6.94708 2.61069 7.62291 3.28856 8.30582C3.9997 7.5933 4.68269 6.90984 5.37915 6.21126C5.80116 6.64308 6.21078 7.06326 6.64127 7.50499C5.95231 8.20413 5.2828 8.88464 4.60885 9.56875C5.28346 10.2428 5.95817 10.9164 6.62278 11.5796H6.62289Z" fill="white"/>
</svg>
