<?xml version="1.0" encoding="utf-8"?>
<!-- Generator: Adobe Illustrator 26.0.1, SVG Export Plug-In . SVG Version: 6.00 Build 0)  -->
<svg version="1.1" id="Слой_1" xmlns="http://www.w3.org/2000/svg" xmlns:xlink="http://www.w3.org/1999/xlink" x="0px" y="0px"
	 viewBox="0 0 500 500" style="enable-background:new 0 0 500 500;" xml:space="preserve">
<style type="text/css">
	.st0{fill-rule:evenodd;clip-rule:evenodd;fill:#000000;}
</style>
<path id="Прямоугольник_1_копия" class="st0" d="M354.6,165.5l-43.2,173.3c-1.2,4.4-5.9,7-10.3,5.8
	c-1-0.3-1.9-0.7-2.7-1.3L244.2,302l-18.9,18.9c-2.4,4.2-7.7,5.8-11.9,3.4c-1.4-0.8-2.6-2-3.4-3.4l-27.3-54.6c-0.3-0.3-0.6-0.7-0.9-1
	l-44.8-15c-3.2-0.1-6.1-2.1-7.2-5.2c-1.5-4.4,0.8-9.2,5.2-10.7c0.5-0.2,0.9-0.3,1.4-0.4l208.4-79.6c4.1-1.6,8.7,0.5,10.3,4.6
	C355.8,161.2,355.7,163.5,354.6,165.5z M216.9,299l8-19.7c0.5-1.2,1.2-2.2,2.2-3.1c0.1-0.2,0.2-0.3,0.3-0.5l28.5-38.5l-56.4,26.8
	L216.9,299z M188.1,250.5c0.5,0.2,0.9,0.4,1.4,0.6l86.5-41c4.1-2.2,9.2-0.7,11.4,3.5c1.5,2.7,1.3,6.1-0.4,8.7l-43.8,59l55.5,42.2
	l37-148.5l-174.4,66.6L188.1,250.5z"/>
</svg>
