<svg width="40" height="40" viewBox="0 0 40 40" fill="none" xmlns="http://www.w3.org/2000/svg">
<path fill-rule="evenodd" clip-rule="evenodd" d="M31.3327 27.7918C31.541 28.0002 31.5827 28.2918 31.416 28.5418C31.2077 28.8752 30.791 28.9168 30.4993 28.6668C30.4577 28.6252 30.4577 28.6252 30.416 28.5835C29.7493 27.9168 29.041 27.2085 28.3743 26.5418L28.3327 26.5002C27.291 27.2085 26.2077 27.4585 24.9993 27.2085C23.9993 27.0002 23.2077 26.4585 22.6243 25.6252C21.4577 23.9585 21.666 21.7085 23.1243 20.3335C24.5827 18.9585 26.8743 18.8335 28.416 20.0835C29.2493 20.7502 29.791 21.6252 29.916 22.7085C30.0827 23.7918 29.791 24.7918 29.166 25.6668C29.2077 25.6668 29.2077 25.7085 29.2077 25.7085C29.916 26.4168 30.6243 27.1252 31.3327 27.7918ZM28.791 22.2918C28.4993 21.5418 28.041 20.9585 27.3743 20.5835C27.1243 20.4585 26.8744 20.3335 26.5827 20.2918C26.3744 20.2502 26.1244 20.2502 25.916 20.2085C25.4994 20.2085 25.1243 20.2918 24.7493 20.4585C24.1243 20.7502 23.6244 21.1668 23.291 21.7502C23.1244 22.0002 22.9993 22.2918 22.9577 22.5835C22.8743 23.0418 22.8743 23.5002 22.9577 23.9585C23.041 24.3752 23.2077 24.7502 23.4577 25.0835C23.7493 25.5002 24.166 25.8335 24.666 26.0418C24.8744 26.1252 25.0827 26.2085 25.291 26.2502C25.6244 26.3335 25.916 26.3335 26.2493 26.2918C26.416 26.2918 26.541 26.2502 26.7077 26.2085C27.041 26.1252 27.3743 25.9585 27.666 25.7502C27.791 25.6668 27.9577 25.5418 28.1243 25.5418C28.2493 25.5418 28.2493 25.4585 28.291 25.3752C28.291 25.2502 28.3327 25.1668 28.416 25.0835C28.666 24.7502 28.8327 24.4168 28.9577 24.0002C28.9993 23.7918 29.041 23.5835 29.041 23.3752C28.9577 23.0002 28.916 22.6252 28.791 22.2918ZM21.9993 19.2085C21.9577 19.2502 21.9577 19.2502 21.9577 19.3335C21.9577 19.6252 21.9577 19.9168 21.9577 20.2085C21.9577 20.2502 21.9577 20.2502 21.916 20.2918C21.6243 20.6668 21.3744 21.1252 21.2077 21.5835C21.2077 21.5835 21.2077 21.5835 21.166 21.6252C21.0827 21.5002 21.041 21.4168 20.9994 21.3335C20.9577 21.2085 20.9577 21.0835 20.916 21.0002C20.916 20.9585 20.916 20.9168 20.916 20.8752C20.916 20.3752 20.916 19.8752 20.916 19.3752C20.916 19.2502 20.9577 19.0835 20.9994 18.9585C21.041 18.7502 21.166 18.6252 21.291 18.5002C21.8743 18.0418 22.291 17.5002 22.4993 16.7502C22.541 16.5418 22.5827 16.3335 22.5827 16.1252C22.5827 15.5002 22.5827 14.8752 22.5827 14.2502C22.5827 13.6252 22.3743 13.0418 21.9993 12.5418C21.5827 11.9585 20.9993 11.5835 20.3327 11.4168C20.1243 11.3752 19.916 11.3752 19.7494 11.3335C19.4994 11.3335 19.2077 11.3335 18.9577 11.3752C18.7493 11.4168 18.5827 11.5002 18.3743 11.5835C17.4993 11.9585 16.9577 12.6252 16.7077 13.5418C16.6243 13.7502 16.6244 14.0002 16.6244 14.2085C16.6244 14.8335 16.6244 15.5002 16.6244 16.1252C16.6244 16.6668 16.8327 17.1668 17.0827 17.6252C17.291 17.9585 17.6243 18.2502 17.916 18.5002C18.041 18.5835 18.1243 18.7085 18.166 18.8752C18.166 18.9168 18.2077 18.9585 18.2077 19.0418C18.2493 19.2085 18.2493 19.3335 18.2493 19.5002C18.2493 19.9585 18.2493 20.4168 18.2493 20.8335C18.2493 20.9585 18.2077 21.1252 18.166 21.2502C18.1243 21.4168 17.9994 21.5835 17.8744 21.7085C17.7077 21.8752 17.4993 21.8752 17.291 21.9585C17.2493 21.9585 17.2077 21.9585 17.166 21.9585C16.5827 21.9585 15.9577 21.9585 15.3743 21.9585C14.7493 21.9585 14.166 22.1668 13.666 22.5418C13.0827 22.9585 12.7077 23.5418 12.541 24.2502C12.4993 24.4585 12.4577 24.6668 12.4577 24.9168C12.4577 25.4168 12.4577 25.9168 12.4577 26.3752C12.4577 26.5002 12.5827 26.6252 12.7077 26.6252C14.3743 26.6252 15.9993 26.6252 17.666 26.6252C19.166 26.6252 20.666 26.6252 22.166 26.6252C22.2077 26.6252 22.2494 26.6252 22.2494 26.6668C22.6244 27.0418 22.9993 27.3752 23.4577 27.6252C19.8743 27.6252 16.291 27.6252 12.7077 27.6252C12.041 27.6252 11.541 27.1668 11.416 26.5418C11.416 26.5002 11.416 26.4585 11.416 26.4585C11.416 25.8752 11.416 25.3335 11.416 24.7502C11.416 24.6252 11.4577 24.5418 11.4577 24.4168C11.541 23.6252 11.8743 22.9585 12.3743 22.3752C12.9993 21.6252 13.8327 21.1668 14.791 21.0002C14.9993 20.9585 15.2493 20.9585 15.4577 20.9585C16.041 20.9585 16.5827 20.9585 17.166 20.9585H17.2077C17.2077 20.9168 17.2077 20.9168 17.2077 20.8752C17.2077 20.3752 17.2077 19.8335 17.2077 19.3335C17.2077 19.2918 17.2077 19.2502 17.166 19.2502C16.3327 18.5835 15.791 17.7502 15.6243 16.7085C15.5827 16.5002 15.5827 16.2918 15.5827 16.0835C15.5827 15.5002 15.5827 14.9168 15.5827 14.3335C15.5827 12.4585 16.9577 10.7918 18.8327 10.4168C18.9993 10.3752 19.2077 10.3752 19.3743 10.3335C19.416 10.3335 19.416 10.3335 19.4577 10.3335C19.5827 10.3335 19.7077 10.3335 19.8327 10.3335C19.9577 10.3335 20.041 10.3752 20.166 10.3752C20.9577 10.5002 21.666 10.7918 22.291 11.3335C23.041 12.0002 23.4577 12.7918 23.6244 13.7918C23.666 13.9585 23.666 14.1668 23.666 14.3335C23.666 14.9168 23.666 15.5002 23.666 16.0418C23.5827 17.3335 23.041 18.4168 21.9993 19.2085Z" fill="white"/>
</svg>
