<svg width="40" height="40" viewBox="0 0 40 40" fill="none" xmlns="http://www.w3.org/2000/svg">
<path fill-rule="evenodd" clip-rule="evenodd" d="M29.8572 24.9999C29.5532 26.7119 28.5452 27.8319 26.9212 28.4079C26.6652 28.4959 26.3772 28.5199 26.1052 28.5759C26.0652 28.5839 26.0332 28.5999 25.9932 28.6079H25.2412C25.0572 28.5759 24.8732 28.5439 24.6892 28.4959C24.0412 28.3519 23.4332 28.0559 22.9132 27.6319C22.8332 27.5679 22.7292 27.5359 22.6252 27.5359C19.1692 27.5279 15.7212 27.5279 12.2652 27.5279C11.8252 27.5279 11.6172 27.3359 11.6172 26.8879C11.6172 24.2239 11.6172 21.5519 11.6172 18.8879C11.6172 17.4879 11.6172 16.0879 11.6172 14.6879C11.6172 14.3199 11.6572 13.9599 11.8732 13.6479C11.9612 13.5119 12.0652 13.3919 12.1772 13.2799C12.9852 12.4719 13.7932 11.6639 14.6012 10.8479C14.8812 10.5679 15.2412 10.3759 15.6252 10.2959H25.2412C25.5372 10.4319 25.6412 10.6639 25.6412 10.9919C25.6332 13.9199 25.6332 16.8479 25.6332 19.7759V19.9839C25.9612 20.0319 26.2812 20.0479 26.5852 20.1279C27.7932 20.3919 28.8252 21.1759 29.4012 22.2639C29.8732 23.1039 30.0332 24.0719 29.8572 24.9999ZM14.8332 12.1439C14.5852 12.3999 14.3612 12.6159 14.1452 12.8399C13.9292 13.0559 13.7052 13.2799 13.4732 13.5119H14.8412V12.1439H14.8332ZM24.5612 11.5759V11.3919H15.9132V11.5919C15.9132 12.3999 15.9132 13.1999 15.9132 14.0079C15.9132 14.3759 15.6972 14.5999 15.3292 14.5999C14.5212 14.5999 13.7052 14.5999 12.8972 14.5999H12.7132V26.4559H21.8892C21.7452 26.1039 21.6012 25.7519 21.4572 25.3919H20.7212C18.9612 25.3919 17.2092 25.3919 15.4492 25.3919C15.2652 25.3919 15.0972 25.3519 14.9692 25.1999C14.8252 25.0479 14.7932 24.8239 14.8892 24.6319C14.9932 24.4079 15.1772 24.3119 15.4252 24.3119C17.3292 24.3119 19.2252 24.3119 21.1212 24.3119H21.3212C21.3692 23.9439 21.4092 23.5919 21.4572 23.2399H18.9692C17.7932 23.2399 16.6252 23.2399 15.4492 23.2399C15.2652 23.2399 15.0972 23.1999 14.9692 23.0559C14.8252 22.9039 14.7932 22.6799 14.8812 22.4879C14.9692 22.2799 15.1852 22.1519 15.4092 22.1679C17.5132 22.1679 19.6252 22.1679 21.7372 22.1679C21.8492 22.1759 21.9532 22.1199 22.0092 22.0239C22.5532 21.1519 23.4012 20.5039 24.3932 20.2079C24.5292 20.1679 24.5612 20.1119 24.5612 19.9759C24.5612 17.1839 24.5612 14.3839 24.5612 11.5759ZM25.6412 21.1039C23.8892 21.1039 22.4252 22.5519 22.4252 24.2879C22.4172 26.0719 23.8492 27.5279 25.6332 27.5359C25.6412 27.5359 25.6412 27.5359 25.6492 27.5359C27.4252 27.5359 28.8572 26.0799 28.8572 24.2879C28.8572 22.5599 27.3852 21.1039 25.6412 21.1039ZM25.5212 25.7359C25.2492 25.9999 24.9612 25.9999 24.6892 25.7439C24.3452 25.4079 24.0092 25.0719 23.6812 24.7359C23.4412 24.4879 23.4332 24.1599 23.6572 23.9439C23.8812 23.7279 24.1932 23.7439 24.4412 23.9759C24.6572 24.1839 24.8652 24.4079 25.0972 24.6479C25.3852 24.3599 25.6492 24.0879 25.9212 23.8239C26.2252 23.5199 26.5372 23.2079 26.8412 22.9039C27.0412 22.7119 27.2572 22.6719 27.4732 22.7839C27.6812 22.8879 27.8012 23.0639 27.7692 23.2879C27.7452 23.4319 27.6812 23.5679 27.5852 23.6799C26.9052 24.3599 26.2092 25.0479 25.5212 25.7359ZM21.8572 21.1039C19.7132 21.1039 17.5692 21.1039 15.4252 21.1039C15.0652 21.1039 14.8412 20.8799 14.8492 20.5279C14.8572 20.0319 14.8412 19.5359 14.8892 19.0479C14.9692 18.1679 15.3772 17.3519 16.0332 16.7599C16.3292 16.4879 16.6652 16.2639 16.9932 16.0079C16.2172 15.1359 16.2972 13.7999 17.1692 13.0239C17.2172 12.9759 17.2732 12.9359 17.3292 12.8959C18.1452 12.2799 19.3052 12.3199 20.0332 12.9599C20.7692 13.6079 21.1772 14.8639 20.2572 16.0319C21.2332 16.5679 21.9372 17.3199 22.2652 18.3839C22.4012 18.8399 22.4572 19.3199 22.4332 19.7919C22.4252 20.0399 22.4332 20.2959 22.4332 20.5439C22.4492 20.8399 22.2172 21.0879 21.9212 21.1039C21.8892 21.1039 21.8732 21.1039 21.8572 21.1039ZM18.6332 13.5279C18.0332 13.5359 17.5452 14.0079 17.5212 14.6079C17.5132 15.1599 18.0332 15.6719 18.6252 15.6719C19.2172 15.6719 19.6972 15.1999 19.7052 14.5999C19.7052 14.0159 19.2252 13.5279 18.6332 13.5279ZM19.9052 17.0879C18.9372 16.5439 17.9612 16.6239 17.0652 17.2719C16.1372 17.9439 15.8252 18.9039 15.9292 20.0239H21.3372C21.4332 18.7519 21.0332 17.7279 19.9052 17.0879Z" fill="black"/>
</svg>
