<svg xmlns="http://www.w3.org/2000/svg" width="17.94" height="18.031" viewBox="0 0 17.94 18.031">
  <defs>
    <style>
      .cls-1 {
        fill: #fff;
        fill-rule: evenodd;
      }
    </style>
  </defs>
  <path id="Фигура_1166" data-name="Фигура 1166" class="cls-1" d="M1617.98,66.015a0.543,0.543,0,0,1,.03-0.077l1.53-4.562a0.161,0.161,0,0,0-.01-0.151,8.6,8.6,0,0,1-1.09-2.938,9.068,9.068,0,0,1-.13-1.875,8.8,8.8,0,0,1,6.52-8.158,8.823,8.823,0,0,1,2.99-.269,8.81,8.81,0,0,1,7.85,6.776,7.885,7.885,0,0,1,.21,1.365,8.785,8.785,0,0,1-7.91,9.384,8.928,8.928,0,0,1-1.48.022,8.68,8.68,0,0,1-3.56-1.034,0.186,0.186,0,0,0-.16-0.015l-4.71,1.509Zm2.28-2.251c0.04-.012.07-0.017,0.09-0.025,0.64-.2,1.28-0.408,1.91-0.613,0.26-.081.51-0.161,0.76-0.244a0.1,0.1,0,0,1,.1.013,0.159,0.159,0,0,0,.05.035,7.286,7.286,0,0,0,3.29,1.119,7.047,7.047,0,0,0,1.36-.007,7.314,7.314,0,0,0,6.6-6.92,7.037,7.037,0,0,0-.19-2.045,7.219,7.219,0,0,0-2.77-4.2,7.244,7.244,0,0,0-4.82-1.428,7,7,0,0,0-1.44.235,7.342,7.342,0,0,0-4.62,3.746,7.182,7.182,0,0,0-.79,3.011,6.982,6.982,0,0,0,.15,1.823,7.193,7.193,0,0,0,1.19,2.728,0.106,0.106,0,0,1,.02.13c-0.27.815-.55,1.629-0.82,2.444C1620.31,63.625,1620.29,63.686,1620.26,63.764Zm2.45-9.132a2.42,2.42,0,0,1,.56-1.609c0.1-.123.22-0.238,0.33-0.349a0.841,0.841,0,0,1,.72-0.217c0.13,0.015.25,0.021,0.37,0.024a0.338,0.338,0,0,1,.27.133,0.859,0.859,0,0,1,.13.261c0.1,0.25.19,0.5,0.28,0.747,0.12,0.331.25,0.66,0.37,0.99a0.445,0.445,0,0,1-.02.373,2.4,2.4,0,0,1-.4.54c-0.07.072-.14,0.142-0.21,0.212-0.01.015-.03,0.029-0.04,0.045a0.28,0.28,0,0,0-.06.361c0.06,0.1.11,0.2,0.17,0.3a6.384,6.384,0,0,0,.94,1.237,5.8,5.8,0,0,0,1.61,1.152c0.1,0.047.19,0.1,0.29,0.141a0.884,0.884,0,0,0,.09.038,0.294,0.294,0,0,0,.34-0.076c0.07-.08.15-0.16,0.22-0.242,0.19-.216.37-0.432,0.56-0.65a0.3,0.3,0,0,1,.38-0.115,1.893,1.893,0,0,1,.24.1l1.35,0.713c0.08,0.04.15,0.082,0.23,0.123,0.04,0.022.07,0.043,0.11,0.065a0.263,0.263,0,0,1,.13.245,2.452,2.452,0,0,1-.13.76,1.21,1.21,0,0,1-.4.595,2.631,2.631,0,0,1-1.06.556c-0.06.013-.11,0.016-0.16,0.024a1.756,1.756,0,0,0-.18.028,1.429,1.429,0,0,1-.62-0.009,5,5,0,0,1-.77-0.236c-0.4-.154-0.79-0.31-1.18-0.482a6.53,6.53,0,0,1-1.71-1.149,10.506,10.506,0,0,1-1.86-2.25c-0.14-.228-0.29-0.448-0.42-0.687a4.314,4.314,0,0,1-.42-1.155A3.152,3.152,0,0,1,1622.71,54.633Z" transform="translate(-1617.97 -47.969)"/>
</svg>
