<svg width="40" height="40" viewBox="0 0 40 40" fill="none" xmlns="http://www.w3.org/2000/svg">
<path fill-rule="evenodd" clip-rule="evenodd" d="M27.983 20.1923C27.935 21.0483 27.727 21.8883 27.375 22.6643C26.519 24.5763 24.847 26.0163 22.831 26.5763C22.439 26.6883 22.039 26.7603 21.631 26.8003C21.239 26.8403 20.839 26.8483 20.447 26.8163C19.447 26.7523 18.471 26.4643 17.583 25.9843C17.543 25.9603 17.495 25.9603 17.455 25.9683C16.199 26.3763 14.935 26.7763 13.679 27.1763C13.663 27.1843 13.647 27.1843 13.623 27.1923C13.631 27.1683 13.639 27.1443 13.639 27.1283C14.047 25.9043 14.463 24.6883 14.871 23.4643C14.887 23.4243 14.879 23.3763 14.855 23.3443C14.167 22.1763 13.823 20.8403 13.879 19.4803C13.999 16.3923 16.119 13.7363 19.103 12.9363C19.495 12.8323 19.895 12.7603 20.295 12.7283C20.695 12.6883 21.103 12.6883 21.503 12.7203C24.559 12.9683 27.111 15.1683 27.807 18.1603C27.895 18.5203 27.943 18.8883 27.975 19.2563C27.999 19.5843 28.007 19.8883 27.983 20.1923ZM26.655 18.4403C26.343 17.0883 25.551 15.8883 24.431 15.0643C23.319 14.2323 21.943 13.8243 20.559 13.9203C20.167 13.9443 19.783 14.0083 19.407 14.1123C17.807 14.5443 16.455 15.6403 15.703 17.1203C14.703 19.0643 14.879 21.4083 16.151 23.1923C16.175 23.2243 16.183 23.2643 16.167 23.2963C15.943 23.9523 15.727 24.6003 15.503 25.2563C15.487 25.3043 15.471 25.3523 15.447 25.4163C15.479 25.4083 15.495 25.4003 15.519 25.3923C16.031 25.2323 16.543 25.0643 17.055 24.9043C17.255 24.8403 17.463 24.7763 17.663 24.7123C17.687 24.7043 17.719 24.7043 17.743 24.7203C17.759 24.7283 17.767 24.7363 17.783 24.7523C18.575 25.2563 19.479 25.5683 20.415 25.6483C20.783 25.6803 21.143 25.6803 21.511 25.6403C21.919 25.6003 22.319 25.5203 22.711 25.3923C25.047 24.6483 26.679 22.5363 26.807 20.0883C26.839 19.5283 26.791 18.9763 26.655 18.4403ZM24.175 22.8083C23.927 23.0163 23.631 23.1683 23.319 23.2563C23.279 23.2643 23.231 23.2723 23.191 23.2723C23.143 23.2803 23.095 23.2803 23.047 23.2963C22.887 23.3283 22.719 23.3283 22.551 23.2883C22.335 23.2403 22.135 23.1763 21.927 23.0963C21.615 22.9763 21.295 22.8483 20.983 22.7123C20.479 22.4803 20.015 22.1683 19.607 21.7923C19.031 21.2643 18.527 20.6563 18.119 19.9843C18.007 19.8003 17.887 19.6243 17.783 19.4323C17.623 19.1443 17.511 18.8323 17.447 18.5043C17.415 18.3603 17.407 18.2243 17.407 18.0803C17.399 17.6083 17.559 17.1523 17.855 16.7923C17.935 16.6963 18.023 16.6003 18.119 16.5123C18.271 16.3683 18.487 16.3043 18.703 16.3363C18.799 16.3523 18.895 16.3523 18.999 16.3523C19.087 16.3523 19.167 16.3923 19.215 16.4563C19.263 16.5203 19.303 16.5923 19.327 16.6643C19.399 16.8643 19.471 17.0643 19.551 17.2643C19.647 17.5283 19.751 17.7923 19.847 18.0563C19.887 18.1523 19.879 18.2643 19.831 18.3523C19.743 18.5123 19.631 18.6563 19.503 18.7843C19.447 18.8403 19.391 18.8963 19.335 18.9523C19.319 18.9603 19.311 18.9763 19.303 18.9923C19.223 19.0643 19.199 19.1843 19.263 19.2803C19.303 19.3603 19.351 19.4403 19.399 19.5203C19.607 19.8803 19.863 20.2163 20.159 20.5123C20.535 20.8963 20.967 21.2083 21.447 21.4403C21.527 21.4803 21.599 21.5203 21.679 21.5523C21.703 21.5603 21.727 21.5763 21.751 21.5843C21.847 21.6243 21.959 21.6003 22.023 21.5203C22.087 21.4563 22.143 21.3923 22.207 21.3283C22.359 21.1523 22.503 20.9843 22.647 20.8083C22.711 20.7043 22.839 20.6643 22.951 20.7123C23.015 20.7363 23.079 20.7603 23.143 20.7923C23.503 20.9843 23.871 21.1763 24.231 21.3683C24.295 21.4003 24.351 21.4323 24.415 21.4643C24.447 21.4803 24.471 21.4963 24.503 21.5123C24.575 21.5523 24.615 21.6243 24.615 21.7123C24.607 21.9203 24.575 22.1283 24.511 22.3203C24.439 22.5203 24.327 22.6803 24.175 22.8083Z" fill="black"/>
</svg>
