<svg width="24" height="25" viewBox="0 0 24 25" fill="none" xmlns="http://www.w3.org/2000/svg">
<path fill-rule="evenodd" clip-rule="evenodd" d="M22.9673 13.3731C22.4402 13.3731 21.9238 13.3731 21.3967 13.3731C21.3859 13.3731 21.3644 13.3839 21.3537 13.3839C21.472 13.6876 21.6011 13.9913 21.7194 14.295C21.7409 14.3709 21.7409 14.4469 21.7409 14.5228C21.6656 14.5228 21.5903 14.5119 21.515 14.4902C20.3102 13.8937 19.1053 13.2972 17.9113 12.7007C17.8467 12.6681 17.7929 12.6247 17.6961 12.5597C17.7606 12.4946 17.8252 12.4403 17.9005 12.3861C19.1161 11.7787 20.3317 11.1714 21.5473 10.564C21.6118 10.5423 21.6764 10.5315 21.7409 10.5423C21.7517 10.6074 21.7517 10.6833 21.7302 10.7484C21.6118 11.0629 21.4827 11.3774 21.3429 11.7028H22.3218V4.4577H15.7813V5.20607C15.7813 5.70499 15.7813 6.19306 15.7813 6.69197C15.7813 7.0282 15.5984 7.22343 15.2541 7.22343C14.0063 7.23427 12.7692 7.22343 11.5213 7.23427C10.779 7.23427 10.0368 7.23427 9.29449 7.23427C8.77813 7.23427 8.60601 7.07158 8.60601 6.56182V0.661604C8.60601 0.260303 8.69207 0.140998 9.04706 0H15.394C15.6844 0.119306 15.792 0.325379 15.792 0.639913C15.7813 1.33406 15.7813 2.03904 15.7813 2.77657H16.061C18.3738 2.77657 20.6974 2.77657 23.0103 2.77657C23.6773 2.77657 24 3.10195 24 3.7744C24 6.61605 24 9.46855 24 12.3102C23.9892 13.0477 23.6773 13.3731 22.9673 13.3731ZM14.1031 1.68113H10.2519V5.55315H14.1031V1.68113ZM8.59525 11.4317C8.59525 10.7918 8.59525 10.141 8.59525 9.50108C8.59525 9.0564 8.76737 8.88286 9.20843 8.87202C11.1986 8.87202 13.1995 8.87202 15.1896 8.87202C15.5769 8.87202 15.7705 9.0564 15.7705 9.44685C15.7705 11.4751 15.7705 13.4924 15.7705 15.5206C15.7705 15.9111 15.5769 16.0954 15.1896 16.0954C13.1887 16.0954 11.1878 16.0954 9.18691 16.0954C8.79964 16.0954 8.60601 15.9111 8.60601 15.5206C8.60601 14.8807 8.60601 14.2516 8.60601 13.6117C8.60601 13.5358 8.59525 13.449 8.59525 13.3623H1.66741V20.5748H2.6571C2.52801 20.2603 2.39892 19.9566 2.28059 19.6529C2.26983 19.5879 2.25908 19.5228 2.25908 19.4469C2.33438 19.436 2.40968 19.4469 2.47423 19.4685C3.68983 20.0651 4.90542 20.6725 6.12102 21.2798C6.18557 21.3015 6.2286 21.3557 6.26087 21.4208C6.23935 21.4859 6.18557 21.5401 6.12102 21.5618C4.89467 22.18 3.67907 22.7874 2.45271 23.3948C2.38817 23.4165 2.32362 23.4165 2.25908 23.4165C2.25908 23.3514 2.25908 23.2863 2.28059 23.2104C2.39892 22.8959 2.52801 22.5813 2.66786 22.256C2.0762 22.256 1.50605 22.2343 0.946661 22.256C0.398028 22.2777 0 21.898 0 21.3015C0 18.4165 0 15.5315 0 12.6356C0 12.0282 0.365756 11.6703 0.957419 11.6811C3.39937 11.692 5.84133 11.6811 8.28328 11.6811H8.60601L8.59525 11.4317ZM10.2627 14.4252H14.1031V10.5531H10.2627V14.4252ZM9.2407 17.7657C11.2308 17.7657 13.221 17.7549 15.2219 17.7657C15.5769 17.7657 15.7705 17.961 15.7705 18.3297C15.7705 20.3471 15.7705 22.3644 15.7705 24.3818C15.7705 24.6963 15.6522 24.8915 15.3832 25H9.03631C8.68131 24.859 8.59525 24.7397 8.59525 24.3384V18.4382C8.59525 17.9284 8.74586 17.7657 9.2407 17.7657ZM10.2627 23.308H14.1031V19.436H10.2627V23.308Z" fill="white"/>
</svg>
