<?xml version="1.0" encoding="utf-8"?>
<!-- Generator: Adobe Illustrator 26.0.1, SVG Export Plug-In . SVG Version: 6.00 Build 0)  -->
<svg version="1.1" id="Слой_1" xmlns="http://www.w3.org/2000/svg" xmlns:xlink="http://www.w3.org/1999/xlink" x="0px" y="0px"
	 viewBox="0 0 500 500" style="enable-background:new 0 0 500 500;" xml:space="preserve">
<style type="text/css">
	.st0{fill-rule:evenodd;clip-rule:evenodd;fill:#000000;}
</style>
<path id="Фигура_1093_копия" class="st0" d="M295,315h-90c-38.8,0-50-13-50-41v-48c0-28,11.2-41,50-41h90
	c38.8,0,50,13,50,41v48C345,302,333.8,315,295,315z M329,226c0-19.9-7.5-25-34-25h-90c-26.5,0-34,5.1-34,25v48c0,19.9,7.5,25,34,25
	h90c26.5,0,34-5.1,34-25V226z M277,254.4c-2.5,1.3-5,2.6-7.6,3.8c-7,3.6-14.1,7.1-21.1,10.7c-3.7,1.9-7.4,3.8-11.1,5.6
	c-1.8,1-4,1-5.9,0.1c-2-0.9-3.3-2.9-3.3-5.2c0-6.4,0-12.8,0-19.2v-1.1c0-6.7,0-13.3,0-19.9c-0.1-1.7,0.6-3.3,1.8-4.4
	c1.9-1.9,4.7-2.3,7.1-1.2c1.6,0.8,3.2,1.6,4.8,2.4c4.6,2.3,9.2,4.6,13.8,6.9c7.1,3.6,14.3,7.2,21.4,10.8c2.9,1.4,4.2,4.9,2.8,7.9
	C279.2,252.9,278.2,253.8,277,254.4z"/>
</svg>
