<?xml version="1.0" encoding="utf-8"?>
<!-- Generator: Adobe Illustrator 26.0.1, SVG Export Plug-In . SVG Version: 6.00 Build 0)  -->
<svg version="1.1" id="Слой_1" xmlns="http://www.w3.org/2000/svg" xmlns:xlink="http://www.w3.org/1999/xlink" x="0px" y="0px"
	 viewBox="0 0 500 500" style="enable-background:new 0 0 500 500;" xml:space="preserve">
<style type="text/css">
	.st0{fill-rule:evenodd;clip-rule:evenodd;fill:#ff161f;}
</style>
<path id="Фигура_1169" class="st0" d="M388.2,271.8c0,5.9-2.9,8.9-8.8,8.9c-10.8,0-21.6,0.1-32.4,0c-1.4-0.2-2.6,0.7-2.9,2.1
	c-1.6,4.3-3.4,8.4-5.1,12.9c3.1,3.1,6.3,6.3,9.5,9.5c5,5,10.1,10.1,15.1,15.1c3.5,3.6,3.6,8,0.1,11.5
	c-10.7,10.7-21.3,21.4-32.1,32.1c-3.5,3.5-7.9,3.4-11.5-0.1c-7.6-7.6-15.2-15.1-22.7-22.8c-0.6-0.6-1.1-1.3-1.6-2
	c-5,2-9.6,3.7-14,5.7c-0.7,0.6-1.1,1.5-1.1,2.4c-0.1,10.7-0.1,21.4-0.1,32.1c0,6.2-2.9,9.1-9.1,9.1c-14.5,0-29,0-43.4,0
	c-5.9,0-8.9-3-8.9-8.8c0-10.8-0.1-21.6,0.1-32.4c0.2-1.4-0.7-2.6-2.1-2.9c-4.3-1.6-8.4-3.3-12.9-5.1c-3.3,3.3-6.6,6.7-10,10.1
	c-4.9,4.9-9.8,9.9-14.8,14.8c-3.4,3.3-7.8,3.4-11.1,0.1c-10.8-10.8-21.7-21.6-32.4-32.4c-3.3-3.4-3.1-7.8,0.3-11.3
	c7.6-7.7,15.3-15.3,22.9-22.9c0.6-0.5,1.2-0.9,1.8-1.3c-2-5.1-3.8-9.7-5.7-14.1c-0.6-0.7-1.5-1.1-2.4-1.1
	c-10.7-0.1-21.4-0.1-32.1-0.1c-6.2,0-9.1-2.9-9.1-9.1c0-14.5,0-29,0-43.4c0-5.9,3-8.9,8.8-8.9c10.8,0,21.6,0,32.4,0.1
	c1.4,0.2,2.6-0.7,2.9-2.1c1.6-4.2,3.3-8.4,5.1-12.9c-2.5-2.5-5.2-5.1-7.9-7.8c-5.6-5.6-11.2-11.2-16.8-16.8c-3.5-3.6-3.6-8-0.1-11.5
	c10.7-10.7,21.4-21.4,32.1-32.1c3.5-3.5,7.9-3.4,11.5,0.1c7.7,7.6,15.3,15.2,22.9,22.9c0.5,0.6,1,1.2,1.4,1.8
	c5.1-2,9.6-3.8,14.1-5.7c0.7-0.6,1.1-1.5,1.1-2.4c0.1-10.7,0.1-21.4,0.1-32.2c0-6.2,2.9-9.1,9.1-9.1h43.4c5.9,0,8.9,3,8.9,8.8
	c0,10.8,0,21.6-0.1,32.4c0,1.7,0.6,2.3,2.1,2.9c4.2,1.6,8.4,3.3,13,5.2c2.1-2.2,4.4-4.5,6.7-6.8c6-6,12-12,18-18
	c3.4-3.3,7.8-3.4,11.1-0.1c10.9,10.8,21.7,21.6,32.4,32.4c3.4,3.4,3.2,7.8-0.3,11.3c-7.6,7.7-15.2,15.3-22.9,22.9
	c-0.6,0.5-1.2,1-1.8,1.4c2,5,3.7,9.5,5.7,14c0.6,0.7,1.5,1.1,2.4,1.1c10.7,0.1,21.4,0,32.1,0c6.2,0,9.1,2.9,9.1,9.1
	C388.2,242.9,388.2,257.3,388.2,271.8z M372.7,234.6c-11,0-21.8,0-32.6,0c-4.7,0-7.3-1.9-8.6-6.4c-2-7.1-4.8-13.9-8.4-20.3
	c-2.4-4.3-2-7.3,1.5-10.8c7.1-7.1,14.1-14.2,21.2-21.2c0.6-0.6,1.2-1.2,1.6-1.7c-7.3-7.3-14.4-14.4-22.1-22.2
	c-0.4,0.8-0.8,1.5-1.3,2.2c-7,7-14,14.1-21,21.1c-3.7,3.7-6.4,3.8-11.2,1.6c-6.4-3-12.8-5.7-19.4-8.1c-5.2-1.9-7.1-3.9-7.1-9.6
	v-31.8h-30.7c0,11,0,21.8,0,32.5c0,4.8-2,7-6.6,8.7c-6.7,2.5-13.4,5.2-19.9,8.2c-4.8,2.2-7.5,2.1-11.2-1.6c-7-7-14-14-21.1-21
	c-0.6-0.6-1.2-1.2-1.6-1.5c-7.3,7.3-14.5,14.4-22,21.9c0.7,0.4,1.3,0.9,1.9,1.4c7.1,7,14.2,14.1,21.2,21.2c3.3,3.3,3.7,6.4,1.5,10.4
	c-3.7,6.5-6.5,13.4-8.5,20.5c-1.3,4.5-3.8,6.4-8.5,6.4h-32.6v30.7h2.8c10,0,20,0,30,0c4.6,0,7.2,1.9,8.4,6.3
	c2,7.2,4.8,14.1,8.5,20.5c2.4,4.1,1.9,7.2-1.5,10.6c-7,7.1-14.1,14.2-21.2,21.2c-0.6,0.5-1.3,1-2,1.3c7.6,7.6,14.8,14.8,22,22.1
	c0.5-0.5,1.1-1.1,1.8-1.7c7.1-7.1,14.1-14.1,21.2-21.2c3.4-3.4,6.3-3.5,10.6-1.5c6.6,3,13.3,5.8,20.1,8.4c4.8,1.8,6.7,3.9,6.7,9.1
	v32.2h30.7V370c0-10,0-20,0-30c0-4.7,1.9-7.2,6.5-8.5c7.1-2,13.9-4.8,20.3-8.4c4.2-2.4,7.3-1.9,10.8,1.6
	c7.1,7.1,14.2,14.1,21.2,21.2c0.6,0.6,1.2,1.2,1.6,1.6c7.3-7.3,14.4-14.4,21.6-21.7c-0.4-0.4-0.9-1-1.5-1.6
	c-7.1-7.1-14.2-14.3-21.4-21.4c-3.4-3.4-3.9-6.4-1.5-10.6c3.6-6.4,6.5-13.2,8.4-20.3c1.3-4.7,3.8-6.6,8.7-6.6c10,0,20,0,30,0h2.5
	L372.7,234.6L372.7,234.6z M249.9,311.4c-33.9-0.1-61.4-27.6-61.3-61.6s27.6-61.4,61.6-61.3c33.9,0.1,61.4,27.6,61.3,61.6
	c0,0,0,0.1,0,0.1C311.3,284.1,283.7,311.5,249.9,311.4z M250,203.9c-25.4,0-46.1,20.6-46.1,46s20.6,46.1,46,46.1s46.1-20.6,46.1-46
	C296.1,224.6,275.5,203.9,250,203.9L250,203.9z"/>
</svg>
