<?xml version="1.0" encoding="utf-8"?>
<!-- Generator: Adobe Illustrator 26.0.1, SVG Export Plug-In . SVG Version: 6.00 Build 0)  -->
<svg version="1.1" id="Слой_1" xmlns="http://www.w3.org/2000/svg" xmlns:xlink="http://www.w3.org/1999/xlink" x="0px" y="0px"
	 viewBox="0 0 500 500" style="enable-background:new 0 0 500 500;" xml:space="preserve">
<style type="text/css">
	.st0{fill-rule:evenodd;clip-rule:evenodd;fill:#ff161f;}
</style>
<path id="Фигура_1176" class="st0" d="M418.1,214.4c-12.1,4.6-24.2,9.3-36.4,13.8c-1.8,0.7-2.2,1.5-2.1,3.4
	c0.2,6.4,0.4,12.8,0,19.2c-0.2,2.8,0.5,3.9,3.1,4.8c12.4,4.6,24.8,9.3,37.1,14c0.5,0.2,1,0.5,1.7,0.8c-1.9,7.1-3.9,14.1-5.8,21.2
	c-0.9,3.1-1.8,6.2-2.6,9.4c-0.4,1.7-1.2,2.1-2.8,1.8c-8.7-1.4-17.4-2.7-26.1-4.1c-4.6-0.7-9.2-1.5-13.8-2.2c-1.2-0.4-2.5,0.2-3,1.4
	c-3.3,6-6.6,11.9-10.2,17.7c-1,1.6-1,2.6,0.2,4.1c8.4,10.2,16.7,20.4,25,30.6c0.5,0.6,1,1.3,1.3,1.7L360,375.8
	c-11.1-9.1-22.6-18.4-34.1-27.8c-1.3,0.8-2.5,1.5-3.9,2.4c-1.8-2.8-3.7-5.7-5.6-8.6c3.2-2.5,6.2-4.8,9.4-7.3
	c11.1,9.1,22.2,18.3,33.1,27.2c3.7-3.6,7.3-7.1,11-10.8c-9-10.9-18.2-22-27.4-33.2c1.7-2.2,3.4-4.2,5-6.4
	c5.6-7.5,10.2-15.7,13.6-24.3c0.3-1.4,1.8-2.3,3.2-2c0.1,0,0.1,0,0.2,0.1c12.6,1.9,25.2,3.8,37.7,5.8c2,0.3,2.8-0.1,3.3-2.1
	c0.9-4,2-7.9,3-12.1c-0.8-0.4-1.6-0.8-2.4-1.1c-12-4.6-23.9-9.2-35.9-13.6c-1.7-0.7-2.2-1.4-1.9-3.2c1.5-11.3,1.9-22.7,0-34.1
	c-0.3-1.8,0.2-2.5,1.8-3.1c11.8-4.4,23.6-9,35.4-13.5c0.9-0.4,1.8-0.8,3-1.2c-1.2-4.5-2.3-9-3.6-13.5c-0.1-0.5-1.5-0.9-2.1-0.8
	c-10.4,1.6-20.9,3.4-31.3,5.1c-0.7,0.1-1.3,0.2-2,0.3c-2.5,0.3-5.4,1.5-7.2,0.6c-1.7-0.9-2.3-4-3.3-6.2c-4.5-9.2-9.6-18.1-16.5-26.1
	c9.2-11.2,18.3-22.2,27.3-33.2c-3.6-3.6-7.2-7.2-10.9-10.9c-10.8,8.9-21.9,18-33.1,27.3c-2.2-1.7-4.4-3.4-6.5-5.1
	c-7.4-5.5-15.5-10-24.1-13.5c-1.7-0.7-2.3-1.5-2-3.3c1.9-12.6,3.8-25.2,5.8-37.7c0.3-1.9,0.1-2.9-2-3.3c-4-0.9-8-2-12.3-3.1
	c-2.1,5.5-4.1,10.8-6.2,16.1c-2.8,7.4-5.7,14.7-8.4,22.2c-0.7,1.9-1.5,2.2-3.5,1.9c-11.3-1.8-22.6-1.4-33.8,0
	c-1.7,0.2-2.5-0.1-3.1-1.8c-4.4-11.8-9-23.6-13.5-35.4c-0.4-0.9-0.7-1.8-1.2-3c-4.5,1.2-9,2.3-13.4,3.6c-0.6,0.5-0.9,1.3-0.9,2.1
	c1.6,10.5,3.4,21,5.1,31.5c0.4,2.3,0.7,4.6,1.2,6.9c0.3,1.7-0.2,2.6-1.8,3.5c-8.1,4.3-16,8.8-24,13.3c-2.6,1.5-4.8,3.6-7.4,5.6
	c-11-9.1-22.1-18.2-32.9-27.2l-11,10.9c8.8,10.7,18,21.8,27.2,33l-2.6,3.3c-6.6,8.3-12,17.5-15.9,27.3c-0.7,1.9-1.7,2.3-3.6,2
	c-12.6-2.1-25.3-4.2-37.9-6.3c-1.6-0.3-2.4,0-2.8,1.7c-0.9,4.1-2.1,8.2-3.2,12.6c13.5,5.2,26.9,10.3,40.4,15.5
	c-0.3,3.3-0.6,6.5-1,9.7c-1.1,8.9-0.2,17.8,1.3,26.6c0.3,2-0.2,2.7-2,3.4c-12,4.5-23.9,9.1-35.9,13.7c-0.7,0.3-1.4,0.6-2.3,1
	c1.2,4.5,2.3,9,3.6,13.5c0.1,0.4,1.5,0.9,2.2,0.8c11.6-1.8,23.1-3.7,34.7-5.6c5.8-1,5.8-1.1,8.2,4.1c4.7,9.9,10,19.4,17.4,27.8
	c-9.2,11.2-18.4,22.3-27.3,33.1l10.9,10.9c10.8-8.9,21.9-18,33-27.2c4,3,7.9,5.9,12.1,8.9c-1.8,2.8-3.6,5.6-5.6,8.6
	c-2.2-1.4-4.3-2.7-6.4-4.1c-11.5,9.4-22.9,18.7-34.1,27.8l-23.8-23.9c0.8-1,1.9-2.4,3-3.7c7.8-9.6,15.6-19.1,23.4-28.6
	c1.1-1.3,1.1-2.2,0.2-3.7c-3.6-6-7-12.1-10.6-18.1c-0.6-0.8-1.5-1.2-2.5-1.2c-13.1,2-26.1,4-39.2,6.2c-2.5,0.4-3.5,0-4.1-2.6
	c-2.4-9.4-5.1-18.8-7.6-28.2c-0.1-0.5-0.2-0.9-0.4-1.6c6.8-2.6,13.6-5.2,20.3-7.7c6.5-2.5,13-5,19.6-7.4c1.6-0.6,2.1-1.3,2.1-3.1
	c-0.1-6.9-0.2-13.8,0-20.7c0-1.9-0.9-2.2-2.2-2.7c-12.5-4.8-25-9.5-37.5-14.3c-0.7-0.3-1.4-0.6-2.3-0.9c1-3.7,2-7.2,3-10.8
	c1.8-6.6,3.6-13.1,5.3-19.7c0.4-1.7,1.2-2.1,2.8-1.9c8.8,1.4,17.6,2.8,26.4,4.2c4.6,0.7,9.2,1.4,13.8,2.2c1.1,0.3,2.3-0.3,2.7-1.4
	c3.3-5.9,6.6-11.8,10.1-17.5c1.1-1.8,1.2-2.8-0.2-4.5c-8.4-10.1-16.6-20.2-24.8-30.4c-0.5-0.6-1-1.3-1.4-1.7
	c7.9-7.9,15.7-15.7,23.8-23.8c0.4,0.3,1.1,0.8,1.9,1.4c10.2,8.3,20.4,16.6,30.6,25c1.3,1.1,2.2,1.1,3.7,0.2
	c5.9-3.6,11.9-7,17.9-10.3c1.2-0.7,1.7-1.3,1.5-2.7c-2.1-13.1-4.1-26.3-6.3-39.4c-0.3-2.1-0.1-3.1,2.2-3.7
	c9.6-2.5,19.2-5.2,28.9-7.8c0.5-0.1,0.9-0.2,1.4-0.3c2.6,6.9,5.2,13.7,7.8,20.5c2.4,6.4,4.9,12.7,7.2,19.1c0.7,2,1.8,2.2,3.7,2.2
	c6.7-0.2,13.3-0.1,20,0c1.7,0,2.3-0.5,2.8-2c4.6-12.3,9.3-24.6,14-36.8c0.4-1,0.8-2,1.3-3.2c3.9,1.1,7.6,2.1,11.4,3.1
	c6.4,1.8,12.8,3.6,19.2,5.2c1.7,0.4,2.1,1.2,1.8,2.8c-1.9,12-3.8,24-5.7,36c-1,5.8-1,5.7,4.1,8.5c4.9,2.7,9.6,5.6,14.3,8.6
	c1.6,1,2.6,1,4.1-0.2c10.1-8.3,20.2-16.6,30.4-24.8c0.7-0.6,1.4-1.1,2.2-1.7c8,8,15.7,15.8,23.7,23.8c-0.4,0.6-0.9,1.3-1.5,2
	c-8.3,10.2-16.6,20.4-25,30.6c-1.2,1.5-1.2,2.4-0.2,4.1c3.6,5.8,6.9,11.8,10.2,17.7c0.5,1.2,1.8,1.8,3,1.4
	c13.1-2.1,26.3-4.2,39.4-6.3c1.8-0.3,2.8-0.2,3.4,1.9c2.6,9.9,5.4,19.7,8.2,29.9C420.3,213.5,419.2,214,418.1,214.4z M186.7,305.5
	c-14.4-15.2-22.6-33.2-24.1-54c-3.5-46.4,28.5-86.8,74.8-93.7c43.7-6.8,85.5,20.5,96.9,63.2c9.7,36.4-0.2,67.4-28.4,92.7
	c-5.7,5.1-9.3,11.5-9.1,19.5c0.1,4.2,0,8.3,0,12.9h8.4c0.1,1,0.1,1.8,0.1,2.6c0,10.6,0,21.2,0,31.7c0.1,1.5-0.5,2.9-1.6,3.9
	c-2.6,2.4-5.2,4.9-7.6,7.6c-0.9,1-1.4,2.3-1.5,3.7c-0.2,5.1-0.1,10.2-0.1,15.2c0,1.8-0.4,2.6-2.4,2.6c-28.2-0.1-56.3-0.1-84.5,0
	c-1.8,0-2.3-0.6-2.3-2.3c0.1-5.2,0.1-10.5-0.1-15.7c-0.1-1.3-0.6-2.5-1.4-3.5c-2.6-2.8-5.4-5.4-8.1-8.2c-0.6-0.6-1-1.4-1.1-2.3
	c-0.1-11.7,0-23.3,0-35c0.1-0.3,0.1-0.6,0.2-0.9h8c0.8-11,1-21.6-7-30.3C192.9,312,189.8,308.8,186.7,305.5L186.7,305.5z
	 M215.9,402.4h68.2c0.1-0.8,0.1-1.4,0.1-1.9c0-4.6,0.4-4-4-4c-19.7,0-39.5,0-59.2,0C215.4,396.4,215.4,396.4,215.9,402.4
	L215.9,402.4z M204.9,358.6c0.2,3.4,0.1,6.8,0.1,10.2c0,9.4,0,9.4,6.9,15.9c0.8,0.7,1.9,1.2,3,1.2c23.4,0.1,46.8,0.1,70.2,0
	c0.8,0,1.6-0.2,2.3-0.6c1.8-1.4,3.5-3,5.2-4.6c-0.2-0.3-0.4-0.7-0.6-1h-38v-10.4H295c0-4-0.1-7.7,0-11.3c0.1-1.8-0.6-2.3-2.3-2.3
	c-6.7,0.1-13.3,0-20,0c-21.6,0-43.3,0-65,0C205.6,355.8,204.8,356.4,204.9,358.6L204.9,358.6z M203.7,308.6c6.4,7.4,10,16,9.8,26
	c0,2.8,0.1,5.7-0.1,8.5c-0.1,2,0.5,2.6,2.5,2.6c11.2-0.1,22.5-0.1,33.7-0.1c11.4,0,22.8,0,34.2,0.1c2,0,2.6-0.6,2.5-2.6
	c-0.1-3.7,0-7.5-0.1-11.2c-0.2-11.2,4.8-20,12.8-27.1c23.5-20.8,32.6-46.6,26.2-77.2c-8.6-41-50.1-67.3-91-58.8
	c-38,8-65.1,43.9-61.6,82.8c1.3,17,8.2,33.1,19.6,45.7C196,301.2,200.2,304.6,203.7,308.6L203.7,308.6z M227.3,234.6
	c5.1,0.1,10,2.1,13.8,5.7c2.4,2.5,6,3.6,9.4,2.8c2.1-0.4,4.3-0.9,5-3.4c0.4-0.6,0.9-1,1.4-1.3c7.1-5.5,16.9-5.7,24.2-0.6
	c3.1,2.3,5.8,5.2,8.7,7.8c-2.6,2.5-4.9,4.8-7.9,7.7c-1.3-1.6-2.7-3.5-4.3-5.1c-4.9-4.9-10.3-5-15.4-0.3c-8.4,7.7-19.8,7.8-28.2,0.3
	c-5-4.4-10.5-4.3-15.3,0.5c-1.4,1.4-2.7,2.9-4.4,4.8c-1.3-1.5-2.4-2.8-3.5-3.9c-1.2-1.2-2.4-2.3-3.7-3.4
	C212.5,239.5,218.3,234.3,227.3,234.6L227.3,234.6z"/>
</svg>
