<?xml version="1.0" encoding="utf-8"?>
<!-- Generator: Adobe Illustrator 26.0.1, SVG Export Plug-In . SVG Version: 6.00 Build 0)  -->
<svg version="1.1" id="Слой_1" xmlns="http://www.w3.org/2000/svg" xmlns:xlink="http://www.w3.org/1999/xlink" x="0px" y="0px"
	 viewBox="0 0 500 500" style="enable-background:new 0 0 500 500;" xml:space="preserve">
<style type="text/css">
	.st0{fill-rule:evenodd;clip-rule:evenodd;fill:#ff161f;}
</style>
<path id="Фигура_1170" class="st0" d="M357.3,287.6c-8.7-0.1-20.9,0-29.6,0h-10.2c-0.3,0-0.6,0-0.9,0H308c-0.1,0-0.3,0-0.4,0
	c-0.1,0-0.2,0-0.3,0H307c-0.3,0-0.6,0-1.1,0h-1.7c-0.2,0-0.5,0-0.8,0h-1.4c-0.3,0-0.6,0-0.9,0h-1.3c-0.2,0-0.3,0-0.5,0h-1.5
	c-0.5,0-1.1,0-1.6,0h-1.8c-0.2,0-0.4,0-0.6,0h-2.1c-0.5,0-1,0-1.5,0h-0.7c-0.8,0-1.5,0-2.4,0c-7.8,0.2-15.6-1.9-22.3-6
	c-8.7-5.3-15.1-12.6-18.2-22.6c-3.6-10.9-2.2-22.7,3.7-32.5c5.4-9.6,14.6-16.6,25.3-19.2c12.1-3.1,23.3-0.8,33.6,6.1
	c11.9,7.8,18.6,21.5,17.5,35.6c0.1,0.6-0.4,1.2-1,1.3c-0.1,0-0.3,0-0.4,0c-5.5,0-11.1,0-16.6,0c-1.1,0-1.5-0.4-1.6-1.5
	c0-2.4-0.3-4.9-0.7-7.3c-1.4-6.9-6.5-12.5-13.2-14.6c-6.3-2.2-12.7-2-18.5,1.7c-7.5,4.8-10.9,11.8-10.1,20.8
	c0.9,10.6,10.2,18.6,20.1,19.1c0.7,0,1.4,0,2.1,0c43.1,0.2-12.2,0.3,30.9,0.5c11.8,0,27.2,0,39,0h2.7v2c0,4.8-0.1,9.6,0.1,14.4
	C359.5,287,359.1,287.6,357.3,287.6z M355.6,250.2c-5.4,0-10.9,0-16.3,0c-0.6,0.1-1.2-0.2-1.3-0.8c0-0.2,0-0.4,0-0.5
	c0.1-4.6-0.4-9.2-1.6-13.7c-4.6-17.7-18.1-31.8-35.7-37.1c-10.5-3.1-21-2.5-31.5,0.7c-9.6,2.9-18.1,8.6-24.4,16.4
	c-5.3,6.4-8.9,14.2-10.3,22.4c-1.3,7.1-1.2,14.3,0.3,21.4c1.3,5.8,3.7,11.3,7,16.3c5.3,8.1,12.8,14.5,21.7,18.3
	c7.2,3.3,15,5,22.8,4.9c32-0.1,36,0,68.1,0c22.9,0-21,0,1.9,0.1h2.3c0,6.2,0,12.1,0,18c-0.2,0.5-0.6,0.8-1.1,1
	c-0.4,0.1-0.8,0.1-1.2,0c-55.4,0-16,0-71.4,0c-15.1,0.2-29.8-4.8-41.7-14c-8.9-6.8-16.4-15-21.4-25.2c-3.4-7-5.9-14.2-6.5-22
	c-0.5-4.9-0.6-9.9-0.4-14.8c0.3-7.6,2.2-15,5.5-21.9c2.3-4.6,4.9-9.1,7.5-13.5c0.9-1.4,2.1-2.7,3.3-3.8c2.2-2.2,4.4-4.4,6.6-6.6
	c6.5-6.5,14.4-10.6,22.8-13.8c11-4.2,22.4-4.9,33.9-3.9c6.8,0.7,13.5,2.5,19.8,5.3c5.9,2.5,11.4,5.8,16.4,9.8
	c3.3,2.8,6.4,5.8,9.1,9.1c2.9,3.4,5.5,7,7.8,10.9c5,8.6,8.1,18.2,8.8,28.1c0.2,2.4,0.3,4.9,0.4,7.3
	C356.9,249.7,356.7,250.2,355.6,250.2L355.6,250.2z M199.7,317.7c-4.5-0.1-9.1-0.1-13.7,0c-1.7,0-2.2-0.5-2.2-2.2
	c0-19.5,0-39-0.1-58.5c0-5.9,0.1-11.8,0-17.7c-0.2-14.1-0.5-28.1-0.6-42.2c0-1.5-0.7-1.7-1.9-1.7c-7.3,0-14.7,0-22,0
	c-1.4,0-2-0.3-1.9-1.8c0.1-4.7,0.1-9.3,0-14c0-1.5,0.6-1.9,1.9-1.9c13.6,0,27.2,0,40.8,0c1.8,0,1.8,0.9,1.8,2.2
	c0,22.6,0,45.2,0,67.8h0c0,22.6,0,45.2,0,67.8C201.8,317.1,201.4,317.7,199.7,317.7z M175.2,208.8c-0.1,24.6-0.1,49.3-0.1,73.9
	c0,11,0,22.1,0.1,33.1c0,1.4-0.4,1.8-1.8,1.8c-4.4-0.1-8.9-0.1-13.3,0c-1.7,0-2.2-0.5-2.2-2.1c0-24.2,0.1-48.5,0-72.7
	c0-5.6-0.1-11.2,0-16.8c0-1.7-0.4-2.3-2.2-2.3c-5.1,0.1-10.3,0-15.4,0.1c-1.5,0-2.1-0.3-2-1.9c0.1-4.9,0-9.9,0-15.2h2.2
	c10.8,0,21.6,0,32.4-0.1C174.6,206.6,175.2,207,175.2,208.8z"/>
</svg>
