<?xml version="1.0" encoding="utf-8"?>
<!-- Generator: Adobe Illustrator 26.0.1, SVG Export Plug-In . SVG Version: 6.00 Build 0)  -->
<svg version="1.1" id="Слой_1" xmlns="http://www.w3.org/2000/svg" xmlns:xlink="http://www.w3.org/1999/xlink" x="0px" y="0px"
	 viewBox="0 0 4179 780.7" style="enable-background:new 0 0 4179 780.7;" xml:space="preserve">
<style type="text/css">
	.st0{fill-rule:evenodd;clip-rule:evenodd;fill:#FF161F;}
	.st1{fill-rule:evenodd;clip-rule:evenodd;}
</style>
<path id="Фигура_1" class="st0" d="M3089.9,640.5c-29.7,63.8-81.1,100-148.1,115.3c-71.9,16.5-139.9,7-201.5-34.8
	c-57-38.7-90.6-93.5-101.5-161.6c-19.9-124.6,59.4-223.7,143.9-258.7c35.9-14.9,73.4-19.6,111.9-17.2c45.7,2.6,89.9,17.3,128,42.6
	c2.2,1.4,4.5,3.6,6.9,2.4c2.7-1.3,1.1-4.6,1.1-7c0.2-10.5,0-20.9-0.1-31.3c0-4.6,2-7.1,6.5-7.1c12.7-0.1,25.4-0.1,38,1
	c0,0,0,0,0,0.1c3.3,1.4,2.6,4.5,2.6,7.1c0.1,36.8,0,73.7,0.3,110.6c0,6-2,8.5-8,8c-11-0.8-22,3-33-0.5c-0.8-0.3-1.6-0.7-2.4-1.2
	l0.1-0.1c-7.4-7.7-14.3-15.7-21.9-23.1c-29.2-28.2-64.4-44.3-104.3-50.2c-41.5-6.2-81.8-2.7-119.1,17.6
	c-55.5,30.2-88,76.8-96.3,139.9c-0.6,4.8-1,9.7-1.5,14.5c-0.9,11.2-0.9,22.4,0,33.6c0,0,0,0.1,0,0.1c5,84.7,75,162.2,158.4,171.5
	c42.1,4.6,83,0.6,121.4-18.7c23-11.5,41.7-28.2,56.4-49.3c3.2-4.6,6.4-9.1,12.4-10.4c0.7,0,1.4-0.1,2.1-0.1c-0.8,0-1.5,0-2.2,0
	c6.2-2.6,12.6-0.9,19-1c8.8-0.1,17.4-0.2,26.1-0.2c2,0,4.7-1.1,6.2,1.5c-0.5,0-1,0-1.5,0c0.5,0,1,0.1,1.6,0.1
	C3092.2,636.4,3090.9,638.4,3089.9,640.5z M2616.1,764.9c-44.7,0.2-89.6,0.8-134.3,1c-12,0.1-12.1,0-12.4-12.3
	c-0.2-9.5-0.1-19-0.2-28.5c0-9.2,0.1-9.3,9.3-9.2c1,0,2,0.1,3,0.2c0.2,0,0.4-0.1,0.5-0.2c9.7-0.1,19.4-0.3,29-0.4
	c9.3,0,11.1-1.7,11-10.7c-0.4-26.9-0.9-54-1.3-80.9c0-0.2,0-0.4,0-0.5c0,0.2,0,0.5,0,0.7c-0.9-7.1-2.3-14-2.5-21.1
	c-0.2-38.1,0.6-76-0.5-114.1c-1.4-52.4-0.5-104.8-1.2-157.2c0.1,0,0.1,0.1,0.2,0.1c0-0.1-0.1-0.1-0.1-0.2l-0.1,0.1
	c-11.5-3.6-23.1-0.8-34.6-1.5c-5.2-0.3-10.4,1.1-15.3-1.4c0-0.3,0-0.6-0.1-1c0,0.3,0,0.6,0,1c-0.5-0.5-1.4-0.8-1.5-1.3
	c-1-13.6-3.8-27.1,1.6-40.4l0.2-0.1c0,0.3,0,0.6,0,1c0-0.3,0-0.6,0.1-1h-0.1c1.2-2.4,3.5-2.7,5.9-2.7h92.6c0,0,0,0.1,0,0.1
	c4.7,1.9,4,6.1,4,10c0.1,28.5,0.3,57.1,0.3,85.6c0,30.4-0.4,60.8,0.3,91.2c1.6,73,0.6,146.2,1.2,219.2c0,8.1,0.8,16.2,1.2,24.1h0
	c14.5,0.1,29.1,0.5,43.6,0.3c6.2,0,8.9,1.9,8.8,8.3c-0.2,10.8,0,21.8,0.2,32.7C2625,761.8,2623,764.9,2616.1,764.9z M416.3,780.7
	V639.4c124.6,0,226.1-101.2,227.6-227.1l140.5,1.6C782.1,617.1,618.1,780.7,416.3,780.7L416.3,780.7z M150.2,367.4L9.6,365.8
	C12.1,163,176,0,377.8,0v141.2C253.1,141.2,151.6,242,150.2,367.4z M365.6,639.4l-1.8,141.2C162.2,778.2,0,612.9,0,409.7h140.6
	C140.6,535.6,240.8,638,365.6,639.4L365.6,639.4z"/>
<path id="Фигура_1_копия" class="st1" d="M4176.9,377.4l-6.3,9.9l-9.9,6.4l-11.7,2.1l-11.7-2.1l-9.2-6.3l-7-9.8
	l-2.1-11.9l2.1-11.9l7-9.8l9-6.3l11.9-2.8l11.9,2.8l9.7,6.3l6.3,9.9l2.1,11.8L4176.9,377.4z M4168,357.3l-4.1-6.5l-6.6-4.3l-8.2-1.9
	l-8,1.9l-6.3,4.4l-4.6,6.5l-1.5,8.2l1.5,8.2l4.6,6.5l6.2,4.3l8.1,1.4l8.3-1.5l6.5-4.2l4.2-6.5l1.5-8.3L4168,357.3z M4153.8,711.6
	v41.8c-1.7,0.6-3.4,1.1-5.2,1.7h-0.1c-1.1,0.4-2.2,0.7-3.3,0.8h-99.1c-0.2,0-0.4,0-0.6,0.1c-0.1,0-0.1,0.1-0.2,0.1v-0.1
	c-13.1,0-26.2,0-39.3,0.2c-5.2,0-7.8-1.8-7.8-7.2c0.2-11.6,0.3-23.2,0.2-34.7c0-4.2,2.3-5.8,6-5.8h13.1c7.9-2.3,16-0.8,24-1
	c5-0.2,6.7-1.2,6.6-6.6c-0.2-37.9,0.5-75.7-0.5-113.5c-0.6-25.1-0.5-50-0.8-75.1c0.1,0.2,0.2,0.3,0.3,0.5c0-0.1,0-0.2,0-0.3
	c-4.3-39.6-39.8-74.5-80.4-79.1c-49.5-5.7-94.3,25.2-106.7,73.6c-0.3,1.4-0.5,2.8-0.6,4.2c-0.1,0.3-0.2,0.6-0.2,0.9
	c0,30.4,0,60.8-0.1,91.2c0.1,35,0.2,70,0.2,105c0.1,0.1,0.1,0.3,0.2,0.4c15,0.1,29.9,0.4,44.9,0.2c5.7,0,8.1,2,7.6,7.1
	c0.1,0.4,0.2,0.9,0.2,1.4c0.6,12.1,0.6,24.1-0.2,36.2c-0.1,0.1-0.2,0.1-0.2,0.2c0.1,1.6-1,2.2-2.2,2.8c-0.2,0-0.5,0-0.7,0
	c-9,1.9-18.2,0.6-27.4,0.8c-16,0.3-32.1,0-48.2,0c-0.1,0-0.2,0-0.3,0.1l-0.1,0v0c0,0,0,0-0.1,0c-22.7,0-45.3,0.2-67.8,0.2
	c-3,0-6.9,0.8-7.4-4.1c0-0.4,0-0.7,0-1.1c-1.3-12.3-1.8-24.7,0-37c0-0.4,0-0.8,0-1.3c1.7-4,5.2-4,8.8-4c14.2,0,28.4-0.2,42.7-0.3
	l0.1,0.1c-0.1,0.2-0.2,0.5-0.4,0.7c0.2-0.1,0.4-0.3,0.6-0.4c0.1-0.2,0.2-0.3,0.2-0.5c-0.1,0.1-0.3,0.2-0.5,0.3
	c0.1-3.2,0.4-6.5,0.3-9.7c-0.4-52.5-0.8-104.9-1.3-157.3h0.1c0.1,0.1,0.1,0.3,0.2,0.4v-0.2c-0.7-11.8,0.6-23.6-2.2-35.2
	c-16.3-68.9-95.3-95.6-152.3-51.4c-20.2,15.6-32.8,36-36.2,61.6c-0.9,23.7-0.8,47.4,0,71.1c0.2,35.2,0.4,70.5,0.5,105.8
	c0.1,0.6,0.1,1.3,0.1,1.9c0.9,3.8,0.6,7.7,0.8,11.6c0.1,0.5,0,1,0.1,1.5c14.7,0,29.4,0,44.1,0.2c2.7,0,5.7-0.8,6.9,2.9h-0.3
	c0.2,0.1,0.3,0.2,0.4,0.3l0.5,6.5c0,0.2,0,0.5,0,0.8c1.5,10.5,1.5,21.2,0,31.8c0,0.4,0,0.9,0,1.3c0,0.4,0,0.8-0.2,1.1c0,0,0,0,0,0
	c0,3.4-2.5,3.6-5,3.6c-47.1,0.2-94.2,0.3-141.2,0.6c-5.1,0-8.8-0.8-8.2-7.1c0-0.6,0-1.1,0-1.6c0,0.6,0,1.2,0,1.7
	c-2.2-10.3-0.9-20.6-0.8-31c0.2,1,0.1,2,0.2,3.1c-0.1-1.1,0-2.1-0.1-3.2c0-7.1,2.1-9.4,9.2-9.5c12-0.2,24.1-0.6,36-0.1
	c5.6,0.2,7.4-1.1,7.4-7.1c-0.4-44.5-0.3-88.9-0.4-133.3c-0.1-0.4-0.1-0.8-0.1-1.3v1.3c-0.5-0.8-0.8-1.6-1-2.5V459.5h0.1
	c0,0.1,0,0.2,0.1,0.2c0,0,0-0.1,0-0.1c0-3.9-0.4-7.8,0-11.7c0.3-3.9-0.9-6.9-4.1-9c-0.1,0-0.1-0.1-0.2-0.1
	c-13.6,0.1-27.2,0.3-40.8,0.4c-3.8,0-7-0.7-6.6-5.6c-0.2-2.1-0.1-4.3-0.2-6.4c0,2-0.1,4-0.1,6c-2.4-8.2-0.5-16.5-1-24.8
	c-0.3-4.8,0-9.7,0.2-14.6v0.1c0.5,3.8,0.8,7.7,0.8,11.6c0-1.2,0-2.4,0-3.7c0-2.5,0.5-5.1-0.5-7.5c-0.7-4.3,0.7-7.3,5.2-8.4
	c0.9-0.1,1.8-0.2,2.6-0.3c-1,0-2,0-3,0c0.5-0.4,1.2-0.7,1.8-0.9h86.8c-0.9,0.2-1.9,0.3-2.8,0.4c1.2,0,2.5,0,3.7-0.1
	c7.2,0.6,8.4,4.9,8.2,11.3c-0.4,13,0,25.9,0.1,38.9c0,1.6-1.3,4.2,1,4.8c2.1,0.6,3-1.6,4.1-3.1c15.3-22.2,36-36.8,61.1-45.3
	c8.6-2.9,17.4-4.8,26.4-5.6c2.9-0.3,5.9-0.4,8.8-0.5h-9.1c8.3-2.1,16.9-2.1,25.2,0h-8.6c2.9,0.1,5.9,0.1,8.8,0.5
	c44.3,5,75.9,29.2,99.8,65.3c1.7,2.5,3.1,5.1,4.9,8.1c12.7-18.4,26.8-34.8,43.9-48.6c63.5-51.6,179.4-32.5,209.5,71.1
	c2.4,7.8,3.9,15.7,4.5,23.8l-0.1-0.1c2.8,5.5,2.4,11.6,2.4,17.5c0.2,11.7,0.1,23.4,0.1,35.1c0,0.2,0,0.3,0,0.5
	c0.5,0.7,0.8,1.4,0.9,2.2V645c0.1,18.8,0.4,37.6,0.3,56.4c0,4.8,1.2,6.6,6.2,6.4c12-0.3,24,0,36.1-0.2
	C4147.4,707.6,4151,708.5,4153.8,711.6z M3859.6,709.1L3859.6,709.1C3859.6,709.1,3859.6,709.1,3859.6,709.1
	C3859.6,709.1,3859.6,709.1,3859.6,709.1z M3608.3,384.8h-0.7C3607.8,384.7,3608.1,384.7,3608.3,384.8L3608.3,384.8z M3482.2,654.7
	l-17,32.2l-23.2,28l-27.9,23.2l-32.1,17.1l-35.2,10.9l-38.1,4.1l-38.1-4.1l-35.2-10.9l-32.1-17.1l-27.9-23.2l-23.2-28l-17-32.2
	l-10.8-35.4l-4.1-38.2l4.1-38.2l10.8-35.4l17-32.2l23.2-28l27.9-23.3l32.1-17.1l35.2-10.9l38.1-4.1l38.1,4.1l35.2,10.9l32.1,17.1
	l27.9,23.3l23.2,28l17,32.2l10.8,35.4l4.1,38.2l-4.1,38.2L3482.2,654.7z M3442.2,553.3l-7.9-25.8l-12.2-23.1l-16.7-20.2l-20.3-16.9
	l-23-12.3l-25.7-7.9l-27.7-3l-27.7,3l-25.7,7.9l-23,12.3l-20.3,16.9l-16.7,20.2l-12.2,23.1l-7.9,25.8l-3,27.8l3,27.8l7.9,25.8
	l12.2,23.1l16.7,20.2l20.3,16.9l23,12.3l25.8,8l27.6,3l27.6-3l25.8-8l23-12.3l20.3-16.9l16.7-20.2l12.2-23.1l7.9-25.8l3-27.8
	L3442.2,553.3z M2455.3,663l-17,32.2l-23.1,28l-28,23.3l-32.7,17.1l-35.1,10.8l-38.1,4.1l-38.1-4.1l-35.2-10.9l-32.1-17.1
	l-27.9-23.2l-23.2-28l-17-32.2l-10.8-35.4l-4.1-38.2l4.1-38.2l10.8-35.4l17.1-32.2l23.2-28l27.9-23.3l32.1-17.1l35.2-10.9l38.1-4.1
	l38.1,4.1l35.1,10.8l32.7,17.1l28,23.3l23.1,28l17,32.2l10.9,35.4l4.1,38.2l-4.1,38.2L2455.3,663z M2415.3,561.6l-7.9-25.7
	l-12.3-23.1l-16.9-20.5l-20.1-16.7l-23.4-12.2l-25.9-8l-27.7-3l-27.6,3l-25.7,7.9l-23.1,12.3l-20.3,16.9l-16.7,20.2l-12.2,23.1
	l-7.9,25.8l-3,27.8l3,27.8l7.9,25.8l12.2,23.1l16.7,20.2l20.3,16.9l23,12.3l25.8,8l27.6,3l27.6-3l25.9-8l23.4-12.2l20.1-16.7
	l16.9-20.5l12.3-23.1l7.9-25.7l3-27.8L2415.3,561.6z M2053.9,629.5c0,0.1,0,0.2,0,0.3v2.5c-0.1,0.2,0,0.3-0.1,0.5
	c0.7,7.3,1.1,14.5-2.1,21.3c-0.1,0.3,0,0.6-0.1,0.8c-6.7,46.4-31.9,78.9-73.9,98.4c-13.1,6.1-26.7,11.4-41.3,13c-0.3,0-0.6,0-1,0.1
	c-17.1,3.4-34.3,6.4-51.6,1.2c-0.2,0-0.4,0-0.6-0.1l-0.1-0.1c-27.3-3.5-50.3-14.7-66.5-38c-0.1,0-0.1,0-0.1,0c0,0.1,0.1,0.1,0.1,0.2
	c-4.3,2.4-3.2,6.7-3.3,10.4c0,6.9,0.3,13.8,0.2,20.7c-0.1,4.1-1.4,8.3-6.2,8.8c-13.7,1.3-27.4,1.6-41-0.5l0.1-0.1
	c-2.7-1.5-2.4-4.2-2.4-6.7c-0.1-37-0.3-74.2-0.4-111.2c0-2.2-0.6-4.7,1.7-6.3c0,0.4,0,0.8,0,1.2c0-0.4,0.1-0.9,0.1-1.3
	c0,0,0,0,0.1,0c-0.1,0-0.1,0-0.2,0c0.6-3.1,2.9-3.9,5.6-4c10.3-0.1,20.6-0.2,31-0.2c2.2,0,4.1,0.3,5.1,2.7c0,0,0.1,0,0.1,0
	c1.6,5.8,2.7,11.6,4.7,17.2c12.5,34.9,38.2,54.3,73.9,58.9c32.2,4.1,62.5-3.6,88.4-24.1c38.6-30.4,36.1-96.5-4.6-124.3
	c-21.7-14.8-46.3-22.3-71.3-29.4c-26.8-7.5-53.9-14.2-78.8-27.5c-27.7-14.8-50.1-34.9-57.7-66.6c-13.9-57.8,9.1-135.2,94.7-155
	c2.9-0.7,5.9-1.1,8.8-1.7c13.1-4.6,27.3-4.6,40.4-0.2c28.6,4.7,53.5,16.6,73.5,38.1c0,0,0,0,0,0c0-0.1,0-0.1,0-0.2
	c2.9-5.6,2.7-11.5,2.1-17.5c-0.5-5.7-0.6-11.4-0.5-17.1c0-2.4,0.8-5.1,3.9-5.8v0.1c0,0.1,0,0.2,0,0.3c0-0.1,0.1-0.2,0.1-0.2
	c0.5-0.1,1-0.1,1.6-0.1c-0.5,0-1.1,0-1.6,0c2-2.2,4.8-1.3,7.1-1.2c11.1,0.8,22.2-2.1,33.2,0.8c-0.8,0-1.6,0-2.4,0
	c0.8,0,1.6,0.1,2.5,0.1c1.3,0.7,2.5,1.3,2.8,2.9c0,0,0,0.1,0,0.1c1.6,1.7,1.1,3.7,1.1,5.7v93c0,2,0.8,4.2-1.2,5.8
	c-0.3,0-0.5,0-0.8,0.1c0.3,0,0.5,0,0.8,0c-1.5,2.3-4.1,2.2-6.2,2.2c-12.4,0.3-24.8,0.2-37.2,0.2c-1.9,0-4.2-0.2-5.3-2.5h0
	c-12.6-29.5-34.2-48.6-65.8-54.6c-32.3-6.2-62.1-0.3-84.8,25.3c-16.3,18.4-20.9,41.1-17,65.1c2.9,18,13.9,30.9,29.2,40.3
	c19.7,12.2,41.8,18.1,63.7,24.4c31.4,9,63,17.7,91.5,34.7c29.4,17.5,49.7,41.6,55.4,76.5V607c4.1,7.2,2.4,15,2.4,22.6
	C2053.9,629.6,2053.9,629.6,2053.9,629.5L2053.9,629.5z M1713.7,731.3v34.6c-0.1,0.1-0.2,0.2-0.2,0.4c0.1-0.1,0.2-0.1,0.2-0.2
	c0.5,5.2-3.1,5.4-6.8,5.4c-16.4,0-32.9,0.1-49.3,0.2c-28.4,0.2-56.9,0.3-85.3,0.5c-8.3,0-10.1-1.7-9.9-10.2
	c0.2-10.9-1.3-21.8,0.2-32.7c0.2-1.3,0.1-2.7,1.1-3.7c0,0,0,0,0-0.1v0c0,0,0-0.1,0-0.1c-0.1-0.4,0.1-0.8,0.5-1c0.1,0,0.2,0,0.2-0.1
	c3.5-2.9,7.7-2.8,12-2.8c6.5,0,12.9,0,19.3,0.1c2.8,0,5.5,0,7.1-2.9c0,0.1,0.1,0.1,0.1,0.2c0-0.1,0-0.2,0-0.2
	c-22.8-31.2-45.5-62.3-68.6-93.8c-22.4,31.7-44.4,62.8-66.4,93.8c0,0.1,0,0.1-0.1,0.2c1.5,4.4,5.6,3.1,8.7,3.4
	c6.6,0.7,13.1-0.5,19.8-0.2c10.4,0.5,11.2,0.7,10.4,11.5c0,0.2,0,0.3,0.1,0.5v31.9c0,0.1-0.1,0.2-0.1,0.2c1.2,6.1-2.8,6.2-7.1,6.2
	c-27.2,0.2-54.5,0.6-81.7,0.8c-18,0.1-36,0.2-54.1,0.2c-7.7,0-9.6-1.8-9.6-9.2c0-10.5-0.1-20.8,0-31.3c0-8.1,1.5-9.6,9.8-9.7
	c14.3-0.1,28.4-0.2,42.7-0.2c0.1,0,0.2-0.1,0.2-0.1c24.9-32.5,47.1-66.9,70.9-100.2c6.8-9.4,13.2-18.9,20.1-28.3
	c4.5-6,4.5-11.5,0-17.7c-29.4-40.7-58.6-81.5-87.8-122.3c-3.9-5.4-8.5-7.8-15.2-7.6c-11.5,0.4-23.1,0.2-34.6,0.3
	c-3.4,0-6.6,0-7.8-4.1c0-0.3,0-0.5,0-0.8c-2-8-0.8-16.2-0.8-24.3c0-4.8-1.7-9.9,0.9-14.6c0-0.3,0-0.6,0-0.9c1.2-2.1,3.3-2.8,5.5-3
	c0.2,0,0.3,0,0.5,0c0.4-0.3,0.9-0.5,1.5-0.6c28.2,0.2,56.3-1.2,84.5-0.2c0,0,0,0.1,0,0.1c0,0,0-0.1,0.1-0.1
	c17.7,0,35.5-0.2,53.2-0.2c1.3,0,2.6,0.1,3.5,1c0.1,0,0.1,0,0.2,0c3,1.7,2.4,4.7,2.4,7.3c0.2,10.6,0.2,21.1,0.3,31.7
	c0,3.3,0,6.6-4.3,7.3h0.1c-11.5,1.9-23.2,1.1-34.8,1.2v0c0,0-0.1,0-0.1,0c5.4,10.6,12.9,19.7,19.4,29.4
	c16.1,23.8,32.5,47.3,49.3,71.8c23-33.8,44.2-67.9,66.5-102.6c-11.7,0-22.5-0.2-33.2,0c-5.4,0.1-7.5-2.4-7.5-7.5
	c0-10.7,0.3-21.4,0-32c-0.2-6.2,2.4-8.2,8.3-8.1c13.9,0.2,27.8,0,41.7,0c0.1,0,0.2,0,0.3,0c1.5-0.7,3.2-1,4.9-0.8
	c29.8,0,59.4-0.2,89.2-0.3c1.8,0,3.8-0.5,5.3,1.1c0.2,0.1,0.3,0.1,0.5,0.2c1.3,0.4,1.3,1.6,1.6,2.6c0,1,0,2,0,3.1
	c1.3,11.7,1.3,23.4,0,35.1c0,0.9,0,1.8,0,2.7c-0.7,2.1-2.2,2.7-4.2,2.9c-1.1,0.1-2.3,0.1-3.4,0.1c1.1,0,2.2,0.1,3.2,0.1
	c-8.2,2.3-16.4,0.7-24.7,0.9c-6.2,0.3-12.5,0-18.7-0.1c0.7-0.3,1.4-0.5,2.2-0.7c-0.7,0.1-1.3,0.2-2,0.5l-0.2,0.2
	c-3.9,0.7-6.4,3.2-8.6,6.4c-28.8,41.7-57.7,83.3-86.5,124.9c-3.8,5.5-4.1,10.2,0,15.7c31,42.4,61.9,84.9,92.7,127.4
	c0,0,0.1,0.1,0.1,0.1h44.1c2,0,4.2-0.8,5.8,1.1l-0.1,0.1c-0.3,0-0.6,0-0.9,0c0.3,0,0.6,0.1,0.9,0.1
	C1715.2,724,1714.1,727.7,1713.7,731.3L1713.7,731.3z M1296,773v-0.3c0.5-0.6,0.5-1.4,0-2v-0.3c0,0-0.1,0-0.1,0
	c0,0.1,0.1,0.1,0.1,0.2v2C1296,772.7,1296,772.8,1296,773c-1.9-0.1-3.8,0-5.5,0.1c-2.2,0.1-4.4,0.1-6.7,0.2h6.8
	c-7.9,2.4-16,0.9-24,1c-17.6,0.3-35.1,0-52.6,0v-0.1c0.3-0.1,0.5-0.2,0.8-0.4c-0.3,0.1-0.6,0.1-0.9,0.2c-18,0.1-36,0.3-54.1,0.4
	c-0.3,0.1-0.7,0.2-1,0.3h1.1c-1.3,1.3-3,1.1-4.6,1.1c-33.6,0-67.1,0.2-100.7,0.2c-1.1,0-2.2-0.3-3.5-0.4l0.1-0.1
	c0.6-0.2,1.1-0.5,1.7-0.6c-0.6,0.1-1.2,0.2-1.8,0.3c-24.2,0.1-48.3,0.2-72.6,0.3c-7.9,0-9.7-1.5-9.6-9.1c0-11.8,0.4-23.6,0.7-35.3
	c0.1,0,0.2-0.1,0.2-0.1c1-3.2,3.9-3.4,6.4-3.5c12.4-0.3,24.9-0.7,37.3-0.3c5.9,0.2,9.6-0.8,9.9-7.3v-24.7c-0.3-0.8-0.9-1.7-0.9-2.6
	V583.6c0-18.1-0.2-36.2-0.3-54.2c-0.1-0.2,0-0.3-0.1-0.5v0.4c-1.2-1.3-1.1-3-1.1-4.6c0-34.4-0.2-68.7-0.2-103.1
	c0.1-0.9,0.2-1.8,0.4-2.7h0.1c-0.1-25.9-0.2-51.8-0.3-77.6c0,0,0.1,0.1,0.1,0.1c0,0,0-0.1,0-0.1c-1.1-0.8-2.3-1.3-3.6-1.4l0.1,0.1
	h-44.9c-2.8,0-5.2-2.3-5.2-5.1c0,0,0,0,0,0v-35.1c0-2.6,2-4.7,4.6-4.7c0,0,0.1,0,0.1,0h20.6c0.3-0.1,0.5-0.2,0.8-0.4
	c1.4,0.1,2.8,0.2,4.1,0.1c56.7,0.1,113.4-0.2,170.1-0.8c37.7-0.4,75.4-0.1,113.1-0.5c9-0.1,12.2,2.9,12.2,12c0.1,29,0.1,58,0.1,87.1
	c0,4.5-1.3,7-6.3,7c-0.3,0-0.6,0-0.9,0.1c2.8,0,5.6,0,8.4,0c-5.4,2.8-11.3,2.6-17,2.9c-8.7,0.4-17.5,0.1-26.2-0.9
	c-5.6-0.8-6.8-3.2-6.8-8.1c0.2-17.8,0-35.6,0-53.4l0,0c-54.5,0.4-109,0.9-163.5,1.1c-5.2,0-5.9,2.3-5.9,6.6
	c0.2,36.6,0.3,73.3,0.3,109.9c0,2.2-0.1,4.5-0.2,6.7c-0.4-3.5-0.7-7-0.7-10.6c0,3.1,0,6.2,0,9.2c0,0.7,0.2,1.4,0.6,2l0.5,37.4
	c0.1,0.1,0.2,0.1,0.3,0.2c11.1,1.5,22.1,0.4,33.2,0.4c41.7,0,83.3-0.1,124.9-0.2c3,0,6-0.3,9-0.5c3.1-0.3,6-0.2,7.5,3.2h-0.2
	c0.1,0.4,0,0.9,0.1,1.3v-1.2c4.1,15.7,4.7,31.6,0,47.3v-1.6c-0.1,0.5,0,0.9-0.1,1.4v0.2c0,0-0.1,0-0.1,0.1c0.1,0,0.2,0,0.3,0.1
	c-1.9,3.3-5.1,2.7-8,2.7c-44.4,0.1-88.8,0.2-133.2,0.4c-7.6,0-15.2,0.8-22.8,0.8c-5.9,0-8.2,2.5-8.2,8.5c0.2,32.5,0,65,0.3,97.5
	c0.2,18.6-0.6,37.1,0.8,55.6c0.5,6.1,2.4,8.8,8.6,8.8c46.5-0.2,93.1-0.3,139.6-0.4c2.3-0.1,4.6-0.4,6.9-0.8
	c8.1-0.9,12.1-5.3,12-13.2c0-19-0.2-38.1-0.2-57.1c0-2.9-0.7-6.2,2.8-7.9c0.1,0.3,0.1,0.5,0.1,0.8v-1h1.3l2.4-0.3
	c14.5-1.5,28.9-2.3,43.3,0.4l0.2-0.2c0.1,0.1,0,0.2,0.1,0.3v-0.3c4,1.8,2.7,5.5,2.7,8.5c0.2,25.7,0.2,51.4,0.4,77.2
	c0,10.5,0.6,20.8,0.8,31.3c0,3.3,0.5,7.1-3.8,8.5L1296,773L1296,773z M1075,465.2c0-0.3,0-0.6,0-0.9
	C1075.1,464.6,1075.1,464.9,1075,465.2L1075,465.2z M414.1,141.2L415.7,0c202.2,2.4,364.9,167.2,364.9,370H640.1
	C640.1,244.7,539.4,142.7,414.1,141.2z"/>
</svg>
