<?xml version="1.0" encoding="utf-8"?>
<!-- Generator: Adobe Illustrator 26.0.1, SVG Export Plug-In . SVG Version: 6.00 Build 0)  -->
<svg version="1.1" id="Слой_1" xmlns="http://www.w3.org/2000/svg" xmlns:xlink="http://www.w3.org/1999/xlink" x="0px" y="0px"
	 viewBox="0 0 500 500" style="enable-background:new 0 0 500 500;" xml:space="preserve">
<style type="text/css">
	.st0{fill-rule:evenodd;clip-rule:evenodd;fill:#000000;}
</style>
<path id="Фигура_1166" class="st0" d="M349.8,252.4c-0.6,10.7-3.2,21.2-7.6,30.9c-10.7,23.9-31.6,41.9-56.8,48.9
	c-4.9,1.4-9.9,2.3-15,2.8c-4.9,0.5-9.9,0.6-14.8,0.2c-12.5-0.8-24.7-4.4-35.8-10.4c-0.5-0.3-1.1-0.3-1.6-0.2
	c-15.7,5.1-31.5,10.1-47.2,15.1c-0.2,0.1-0.4,0.1-0.7,0.2c0.1-0.3,0.2-0.6,0.2-0.8c5.1-15.3,10.3-30.5,15.4-45.8
	c0.2-0.5,0.1-1.1-0.2-1.5c-8.6-14.6-12.9-31.3-12.2-48.3c1.5-38.6,28-71.8,65.3-81.8c4.9-1.3,9.9-2.2,14.9-2.6
	c5-0.5,10.1-0.5,15.1-0.1c38.2,3.1,70.1,30.6,78.8,68c1.1,4.5,1.7,9.1,2.1,13.7C350,244.8,350.1,248.6,349.8,252.4z M333.2,230.5
	c-3.9-16.9-13.8-31.9-27.8-42.2c-13.9-10.4-31.1-15.5-48.4-14.3c-4.9,0.3-9.7,1.1-14.4,2.4c-20,5.4-36.9,19.1-46.3,37.6
	c-12.5,24.3-10.3,53.6,5.6,75.9c0.3,0.4,0.4,0.9,0.2,1.3c-2.8,8.2-5.5,16.3-8.3,24.5c-0.2,0.6-0.4,1.2-0.7,2
	c0.4-0.1,0.6-0.2,0.9-0.3c6.4-2,12.8-4.1,19.2-6.1c2.5-0.8,5.1-1.6,7.6-2.4c0.3-0.1,0.7-0.1,1,0.1c0.2,0.1,0.3,0.2,0.5,0.4
	c9.9,6.3,21.2,10.2,32.9,11.2c4.6,0.4,9.1,0.4,13.7-0.1c5.1-0.5,10.1-1.5,15-3.1c29.2-9.3,49.6-35.7,51.2-66.3
	C335.5,244.1,334.9,237.2,333.2,230.5L333.2,230.5z M302.2,285.1c-3.1,2.6-6.8,4.5-10.7,5.6c-0.5,0.1-1.1,0.2-1.6,0.2
	c-0.6,0.1-1.2,0.1-1.8,0.3c-2,0.4-4.1,0.4-6.2-0.1c-2.7-0.6-5.2-1.4-7.8-2.4c-3.9-1.5-7.9-3.1-11.8-4.8c-6.3-2.9-12.1-6.8-17.2-11.5
	c-7.2-6.6-13.5-14.2-18.6-22.6c-1.4-2.3-2.9-4.5-4.2-6.9c-2-3.6-3.4-7.5-4.2-11.6c-0.4-1.8-0.5-3.5-0.5-5.3
	c-0.1-5.9,1.9-11.6,5.6-16.1c1-1.2,2.1-2.4,3.3-3.5c1.9-1.8,4.6-2.6,7.3-2.2c1.2,0.2,2.4,0.2,3.7,0.2c1.1,0,2.1,0.5,2.7,1.3
	c0.6,0.8,1.1,1.7,1.4,2.6c0.9,2.5,1.8,5,2.8,7.5c1.2,3.3,2.5,6.6,3.7,9.9c0.5,1.2,0.4,2.6-0.2,3.7c-1.1,2-2.5,3.8-4.1,5.4
	c-0.7,0.7-1.4,1.4-2.1,2.1c-0.2,0.1-0.3,0.3-0.4,0.5c-1,0.9-1.3,2.4-0.5,3.6c0.5,1,1.1,2,1.7,3c2.6,4.5,5.8,8.7,9.5,12.4
	c4.7,4.8,10.1,8.7,16.1,11.6c1,0.5,1.9,1,2.9,1.4c0.3,0.1,0.6,0.3,0.9,0.4c1.2,0.5,2.6,0.2,3.4-0.8c0.8-0.8,1.5-1.6,2.3-2.4
	c1.9-2.2,3.7-4.3,5.5-6.5c0.8-1.3,2.4-1.8,3.8-1.2c0.8,0.3,1.6,0.6,2.4,1c4.5,2.4,9.1,4.8,13.6,7.2c0.8,0.4,1.5,0.8,2.3,1.2
	c0.4,0.2,0.7,0.4,1.1,0.6c0.9,0.5,1.4,1.4,1.4,2.5c-0.1,2.6-0.5,5.2-1.3,7.6C305.5,281.5,304.1,283.5,302.2,285.1z"/>
</svg>
