<?xml version="1.0" encoding="utf-8"?>
<!-- Generator: Adobe Illustrator 26.0.1, SVG Export Plug-In . SVG Version: 6.00 Build 0)  -->
<svg version="1.1" id="Слой_1" xmlns="http://www.w3.org/2000/svg" xmlns:xlink="http://www.w3.org/1999/xlink" x="0px" y="0px"
	 viewBox="0 0 500 500" style="enable-background:new 0 0 500 500;" xml:space="preserve">
<style type="text/css">
	.st0{fill-rule:evenodd;clip-rule:evenodd;fill:#000000;}
</style>
<path id="Фигура_1179" class="st0" d="M255.1,81.1c1.9,0.6,3.7,1.4,5.4,2.3c3.9,2.5,5.7,6.4,5.7,10.9
	c0.1,12.7,0.1,25.5,0,38.2c0.2,6-3.8,11.4-9.7,12.9c-5.6,1.6-11.6-0.9-14.4-6c-1.2-2.2-1.8-4.6-1.8-7.1c-0.2-12.6-0.1-25.2-0.1-37.8
	c0-7.3,4.9-12.3,10.7-13.2c0.2-0.1,0.3-0.2,0.5-0.3L255.1,81.1L255.1,81.1z M84.6,247.7c0.6-1.8,1.3-3.6,2.2-5.3
	c2.5-4,6.4-5.8,11.1-5.8c12.9-0.1,25.7-0.1,38.6,0c7.1,0,13,5.7,13,12.9c0,6-4,11.2-9.9,12.6c-1.5,0.3-2.9,0.5-4.4,0.5
	c-12.1,0-24.1-0.1-36.1,0.1c-7.5,0.1-12.9-4.1-14.3-10.8c0-0.1-0.1-0.2-0.2-0.3L84.6,247.7L84.6,247.7z M162.5,248.9
	c0.2-49.2,40.4-90.1,91.3-90.1c49.2,0,90.3,40.9,90.3,90.2c0.2,50.1-40.3,91-90.4,91.2c-50.1,0.2-91-40.3-91.2-90.4
	C162.5,249.5,162.5,249.2,162.5,248.9L162.5,248.9z M318.1,249.8c0.2-35.5-28.7-64.8-64-65.1c-35.8-0.4-65.1,28.2-65.6,64
	c-0.4,35.8,28.2,65.1,64,65.6c35.8,0.4,65.1-28.2,65.6-64C318.1,250.1,318.1,250,318.1,249.8L318.1,249.8z M389.5,262.5
	c-6.3,0-12.6,0.1-18.9,0c-8.4-0.1-14.1-6.4-13.4-14.5c0.5-6.4,6.1-11.4,13.1-11.5c12.9-0.1,25.8-0.1,38.8,0c7.1,0,12.9,5.7,13,12.9
	c0,5.9-4,11.1-9.7,12.6c-1.4,0.4-2.8,0.5-4.2,0.5C401.8,262.6,395.6,262.5,389.5,262.5L389.5,262.5z M240.2,385.2
	c0-6.2-0.1-12.3,0-18.5c0.1-9.7,8.7-15.9,17.6-12.7c5.1,1.9,8.5,6.8,8.4,12.3c0.1,12.8,0.1,25.7,0,38.5c0.1,7.2-5.6,13.1-12.8,13.2
	c-3.9,0.1-7.5-1.6-10.1-4.5c-2.2-2.5-3.3-5.8-3.2-9.1C240.2,398,240.2,391.6,240.2,385.2L240.2,385.2z M401,326
	c0,11.1-10.5,17.5-19.1,12.6c-11.4-6.4-22.7-13-34-19.6c-4.9-2.8-7.4-8.4-6.1-13.9c1.2-5.5,5.9-9.7,11.5-10.2
	c2.6-0.3,5.2,0.3,7.4,1.6c11.4,6.5,22.8,13.1,34.2,19.7C398.4,318.2,400.8,321.9,401,326L401,326z M344.4,115.1
	c-0.7,2.1-1.1,4.4-2.2,6.3c-6.3,11.2-12.8,22.4-19.3,33.5c-3.5,5.9-10.1,8.2-16.1,5.7c-6.1-2.5-9.6-8.9-7.8-15
	c0.9-2.5,2-4.9,3.5-7.2c5.6-9.8,11.3-19.7,17-29.5c4.3-7.4,13.3-9.2,19.8-3.9C342.5,107.5,344,110.9,344.4,115.1L344.4,115.1z
	 M330.2,397.1c-4.2-0.1-8-2.5-10-6.1c-6.7-11.4-13.3-22.8-19.9-34.3c-3.4-6.3-1.1-14.1,5.2-17.5c6.1-3.3,13.7-1.2,17.3,4.7
	c4.8,8,9.4,16,14,24.1c1.9,3.3,3.9,6.6,5.8,10C347.2,386.7,340.9,397.1,330.2,397.1L330.2,397.1z M401,173.2
	c-0.3,4.1-2.6,7.8-6.3,9.7c-11.4,6.6-22.8,13.2-34.2,19.7c-6.3,3.4-14.1,1.1-17.5-5.2c-3.3-6.1-1.2-13.7,4.7-17.3
	c7.9-4.7,15.9-9.2,23.8-13.8c3.4-2,6.8-4,10.2-5.9C390.4,155.6,401,161.9,401,173.2L401,173.2z M118.7,340.2
	c-5.9,0.1-11.1-3.7-12.7-9.4c-1.6-5.9,1-12.1,6.3-15c11-6.3,22.1-12.7,33.1-19c8.5-4.9,18.7,0.1,19.7,9.9c0.6,5.4-1.9,9.7-6.6,12.5
	c-5.4,3.2-10.8,6.2-16.2,9.4c-5.7,3.3-11.3,6.6-17.1,9.7c-2.1,0.9-4.2,1.8-6.4,2.4C118.8,340.5,118.8,340.4,118.7,340.2L118.7,340.2
	z M176.6,397.1c-11-0.1-17.3-10.5-12.6-19c6.4-11.5,13.1-22.9,19.8-34.3c3.7-6.1,11.7-8.1,17.8-4.4c4,2.4,6.4,6.9,6.2,11.6
	c-0.2,2-0.7,4-1.7,5.8c-6.3,11.2-12.7,22.3-19.2,33.4C184.4,394.7,180.5,397.1,176.6,397.1L176.6,397.1z M105.5,172.7
	c0.1-10.8,10.5-17,19-12.3c11.5,6.4,22.9,13.1,34.3,19.8c6.1,3.7,8.1,11.6,4.5,17.7c-3.7,6.1-11.6,8.1-17.7,4.5
	c-11.1-6.4-22.2-12.7-33.2-19.1C107.9,180.7,105.6,176.8,105.5,172.7L105.5,172.7z M162.5,114.7c0.1-5.9,4.2-11.1,10-12.4
	c5.5-1.4,11.3,1.2,14.4,6.6c5.1,8.7,10.1,17.5,15.1,26.2c1.3,2.3,2.7,4.6,4,7c3.6,6.2,1.6,14.1-4.6,17.7c-6.2,3.6-14.1,1.6-17.7-4.6
	c0-0.1-0.1-0.1-0.1-0.2c-6.4-11.1-12.9-22.2-19.2-33.3c-1.2-2-1.6-4.5-2.4-6.7C162.1,114.8,162.3,114.7,162.5,114.7L162.5,114.7z"/>
</svg>
