<?xml version="1.0" encoding="utf-8"?>
<!-- Generator: Adobe Illustrator 26.0.1, SVG Export Plug-In . SVG Version: 6.00 Build 0)  -->
<svg version="1.1" id="Слой_1" xmlns="http://www.w3.org/2000/svg" xmlns:xlink="http://www.w3.org/1999/xlink" x="0px" y="0px"
	 viewBox="0 0 500 500" style="enable-background:new 0 0 500 500;" xml:space="preserve">
<style type="text/css">
	.st0{fill-rule:evenodd;clip-rule:evenodd;fill:#000000;}
</style>
<path id="Фигура_677_копия" class="st0" d="M344.2,291.4c-0.8,11.3-2.1,14-2.1,14c-4.1,18.3-18.4,32.5-36.6,36.6
	c0,0-2.7,1.3-14,2.1c-8.1,0.6-20,0.7-41.5,0.8c-21.5,0-33.4-0.2-41.5-0.8c-11.3-0.8-14-2.1-14-2.1c-18.3-4.1-32.5-18.4-36.6-36.6
	c0,0-1.3-2.7-2.1-14c-0.6-8.1-0.8-20-0.8-41.5s0.2-33.4,0.8-41.5c0.8-11.3,2.1-14,2.1-14c4.1-18.3,18.4-32.5,36.6-36.6
	c0,0,2.7-1.3,14-2.1c8.1-0.6,20-0.7,41.5-0.8c21.5,0,33.4,0.2,41.5,0.8c11.3,0.8,14,2.1,14,2.1c18.3,4.1,32.5,18.4,36.6,36.6
	c0,0,1.3,2.7,2.1,14c0.6,8.1,0.7,20,0.8,41.5C345,271.5,344.8,283.4,344.2,291.4L344.2,291.4L344.2,291.4z M325.4,197.6
	c-2.7-11.4-11.6-20.3-23-23c0,0-2.7-2.6-52.3-2.7c-49.6,0.1-52.3,2.7-52.3,2.7c-11.4,2.7-20.3,11.6-23,23c0,0-2.6,2.7-2.7,52.3
	c0.1,49.6,2.7,52.3,2.7,52.3c2.7,11.4,11.6,20.3,23,23c0,0,2.7,2.6,52.3,2.7c49.6-0.1,52.3-2.7,52.3-2.7c5.6-1.3,10.7-4.2,14.8-8.3
	c4.1-4.1,6.9-9.2,8.3-14.8c0,0,2.6-2.7,2.7-52.3C328,200.3,325.4,197.6,325.4,197.6L325.4,197.6L325.4,197.6z M300.7,210.7
	c-6.4,0-11.5-5.1-11.5-11.5c0-6.4,5.1-11.5,11.5-11.5c6.4,0,11.5,5.1,11.5,11.5C312.2,205.6,307.1,210.7,300.7,210.7L300.7,210.7
	L300.7,210.7z M250,298.9c-27.1,0-49-21.9-49-49c0-27.1,21.9-49,49-49c27.1,0,49,21.9,49,49c0,0,0,0,0,0
	C299,277,277.1,298.9,250,298.9C250,298.9,250,298.9,250,298.9L250,298.9L250,298.9z M250,218.2c-17.5,0-31.7,14.2-31.7,31.7
	c0,17.5,14.2,31.7,31.7,31.7c17.5,0,31.7-14.2,31.7-31.7c0,0,0,0,0,0C281.7,232.4,267.5,218.3,250,218.2
	C250,218.2,250,218.2,250,218.2L250,218.2z"/>
</svg>
