<?xml version="1.0" encoding="utf-8"?>
<!-- Generator: Adobe Illustrator 26.0.1, SVG Export Plug-In . SVG Version: 6.00 Build 0)  -->
<svg version="1.1" id="Слой_1" xmlns="http://www.w3.org/2000/svg" xmlns:xlink="http://www.w3.org/1999/xlink" x="0px" y="0px"
	 viewBox="0 0 500 500" style="enable-background:new 0 0 500 500;" xml:space="preserve">
<style type="text/css">
	.st0{fill-rule:evenodd;clip-rule:evenodd;fill:#000000;}
</style>
<path id="Фигура_1167" class="st0" d="M263.5,336.4c0.2-0.8,0.4-1.7,0.5-2.5c0-20.8-0.3-41.6-0.1-62.4
	c0.1-5.1,0.9-10.2,2.5-15c3-9.4,11.1-13.7,23.3-13.2c8.1,0.3,14.4,5.6,16.7,14.1c0.8,2.6,1.2,5.3,1.3,8c0.1,21.1,0.1,42.2,0.1,63.3
	v7.8h39.1c0-6.5,0-12.8,0-19c0-22.5,0.5-45.1-0.4-67.6c-0.6-16.8-7.7-31.1-23.8-38.1c-16-6.9-32.3-6.8-47.2,3.7
	c-4.3,3-7.8,7-12,10.8v-14.9h-37.1v125H263.5L263.5,336.4z M162.8,336.3h38.9V211.3h-38.9V336.3z M182.1,148.6
	c-11.9,0.2-22.8,8.5-23.2,23.5c-0.4,12.4,10.8,23.2,23.2,23.3c12.5,0,23.4-11.1,23.3-23.7C205.1,158.9,194.8,148.7,182.1,148.6z"/>
</svg>
