<?xml version="1.0" encoding="utf-8"?>
<!-- Generator: Adobe Illustrator 26.0.1, SVG Export Plug-In . SVG Version: 6.00 Build 0)  -->
<svg version="1.1" id="Слой_1" xmlns="http://www.w3.org/2000/svg" xmlns:xlink="http://www.w3.org/1999/xlink" x="0px" y="0px"
	 viewBox="0 0 784.5 780.7" style="enable-background:new 0 0 784.5 780.7;" xml:space="preserve">
<style type="text/css">
	.st0{fill-rule:evenodd;clip-rule:evenodd;fill:#FF161F;}
	.st1{fill-rule:evenodd;clip-rule:evenodd;}
</style>
<path id="Фигура_1" class="st0" d="M416.3,780.7V639.4c124.6,0,226.1-101.2,227.6-227.1l140.5,1.6
	C782.1,617.1,618.1,780.7,416.3,780.7L416.3,780.7z M150.2,367.4L9.6,365.8C12.1,163,176,0,377.8,0v141.2
	C253.1,141.2,151.6,242,150.2,367.4z M365.6,639.4l-1.8,141.2C162.2,778.2,0,612.9,0,409.7h140.6C140.6,535.6,240.8,638,365.6,639.4
	L365.6,639.4z"/>
<path id="Фигура_1_копия" class="st1" d="M414.1,141.2L415.7,0c202.2,2.4,364.9,167.2,364.9,370H640.1
	C640.1,244.7,539.4,142.7,414.1,141.2z"/>
</svg>
