<?xml version="1.0" encoding="utf-8"?>
<!-- Generator: Adobe Illustrator 26.0.1, SVG Export Plug-In . SVG Version: 6.00 Build 0)  -->
<svg version="1.1" id="Слой_1" xmlns="http://www.w3.org/2000/svg" xmlns:xlink="http://www.w3.org/1999/xlink" x="0px" y="0px"
	 viewBox="0 0 500 500" style="enable-background:new 0 0 500 500;" xml:space="preserve">
<style type="text/css">
	.st0{fill-rule:evenodd;clip-rule:evenodd;fill:#000000;}
</style>
<path id="Фигура_1177" class="st0" d="M393.9,392.4V405h-51.4v-54.6H161.6c-5.3,0-5.3,0-5.3,5.4c0,14.7,0,29.4,0,44.1v5.1
	h-50.2v-12.2h37.6c0.1-2,0.2-3.5,0.2-5.1c0-13.3,0-26.7,0-40c0-7.2,2.6-9.8,9.9-9.8c10.3,0,20.7-0.2,31,0.1c4.1,0.1,5.2-1.3,4.9-5.1
	c-0.2-4.1-0.2-8.2,0-12.2c0.2-5.3,2.9-8,8.2-8.1c7.8-0.1,15.5-0.1,23.3,0c2.4,0,3.3-0.9,4.5-3c2.4-4.4,5.6-8.5,8.4-12.7
	c0.8-1.3,1.9-2.7,1.9-4.1c0.2-5.8,0.2-11.7,0-17.6c0-1.2-1-3.1-1.9-3.4c-17.4-5.3-29.9-16.2-38.3-32.7c-5.3,12.3-14.1,17.9-27.1,15
	c-9.5-2.1-15.3-9.8-16-20.4h10.8c2.6,2.8,4.4,6,7.1,7.7c4.4,2.6,9.9,0.4,12-4.1c2.3-4.9,0.6-10.2-4.2-12.4
	c-6.9-3.2-13.9-6.2-20.8-9.5c-13.8-6.6-20.5-19.7-18.4-35.8c1.6-12.8,12.7-24.2,26.3-26.7c8.2-1.6,16.8-0.1,23.9,4.3
	c1.9-5.2,1.4-6.4-3.2-8.1c-9.3-3.3-9.5-3.6-9.5-13.3c0-4.9,0-9.8,0-14.7c0.1-6.9,2.5-9.3,9.4-9.3c22.7,0,45.5,0,68.2,0
	c19.7,0,39.5,0,59.2,0c7.9,0,10.1,2.3,10.1,10.2c0,5.7-0.2,11.4,0.1,17.2c0.2,4.7-1.9,7.5-6.1,8.9c-0.6,0.2-1.3,0.5-1.9,0.7
	c-6.4,2.3-6.4,2.3-5.3,9.3c4.3-1.6,8.6-3.8,13.1-4.8c16.2-3.8,32.7,5.2,38.3,20.9c5.6,16-1.4,33.6-16.3,40.9
	c-6.6,3.2-13.4,6.1-20.1,9.1c-4.9,2.2-7.4,6-6.7,10.4c0.6,4.2,4,7.4,8.3,7.8c4.2,0.6,7.8-1.9,9.9-6.7c0.4-1,1.3-1.8,2.3-2.1
	c3.4-0.2,6.8-0.1,10.1-0.1c0.8,9.1-5.7,17.7-15.1,20.6c-11,3.4-19.5-1.2-28-15.4c-0.6,1-1.1,1.8-1.6,2.7c-8,14.9-19.9,25-36,30
	c-2.9,0.9-3.9,2.1-3.8,5.1c0.2,5.3-0.1,10.6,0.2,15.9c0.1,1.6,1.2,3.3,2.2,4.8c2.7,4.2,5.8,8.1,8.1,12.4c1.1,2.1,2,3.1,4.4,3.1
	c7.8-0.1,15.5-0.1,23.3,0c6.9,0,9.6,2.6,9.7,9.6c0.1,5,0,10.1,0,15.6c1.7,0.1,3.2,0.2,4.6,0.2c9.3,0,18.5,0,27.8,0
	c7.3,0,10.1,2.7,10.1,10.1c0.1,13.1,0,26.1,0,39.2v5.3H393.9L393.9,392.4z M190.1,177.5c-0.1-1.5-0.7-2.9-1.6-4.1
	c-6.5-9.3-19.4-11.5-28.7-5c-9.3,6.5-11.5,19.4-5,28.7c2.1,3,5,5.4,8.4,6.9c8.8,4.1,17.7,8.1,27,12.3
	C190.2,203.5,190.3,190.5,190.1,177.5z M309.8,183.9c0.3,11,0.7,22.1,1.1,33.7c3.3-1.9,5.8-3.6,8.5-4.8c6.3-2.9,12.7-5.6,18.9-8.5
	c10.3-4.8,15-15.2,11.6-25.7c-3.2-9.9-13-15.3-24-13.5c-7.3,1.2-11.2,6.8-15.3,11.9C309.4,178.5,309.8,181.6,309.8,183.9
	L309.8,183.9z M297.5,214.6c0-20.7,0-41.4,0-62.1c0-10.9,0-10.9,10.3-14.7c0.4-0.1,0.8-0.2,1.1-0.4c0.8-0.9,2.1-1.9,2.1-3
	c0.3-3.2,0.1-6.5,0.1-10H189.4c-1,12.5-2.6,13.9,11.7,14.7c0.4,0,0.8,0,1.2,0h48.2c-0.1,2.4-0.1,4.9,0,7.3c0.4,3.8-0.8,5.2-4.9,5.1
	c-12.8-0.3-25.6,0-38.4-0.2c-3.8-0.1-4.8,1.2-4.8,4.9c0.2,9.8,0,19.6,0.1,29.4c0.1,11.4-0.3,22.9,0.8,34.2
	c2.1,21.9,22.8,43.3,52,41.1C279,259.3,297.5,239.2,297.5,214.6L297.5,214.6z M252.3,277.2c0-1.2-1.2-2.3-1.8-3.4
	c-0.7,1.2-2,2.3-2,3.5c-0.2,7.2-0.3,14.4,0,21.6c0.1,3-0.8,4.7-3.6,5.9c-3.2,1.2-5.7,3.4-6.6,7.3h23.8c0.3-0.5,0.6-0.9,0.9-1.4
	c-2.4-2-4.5-4.5-7.1-5.9s-3.6-3-3.5-6C252.5,291.7,252.5,284.4,252.3,277.2L252.3,277.2z M299.8,325.8c-0.1-0.3-0.2-0.5-0.3-0.8
	c-1.5-0.1-3.2-0.3-5-0.3c-27.3,0-54.7,0-82,0c-11.7,0-12,0.3-10.2,12.1c0.2,0.4,0.4,0.7,0.7,1h86.2
	C301.1,337.8,301.1,337.8,299.8,325.8L299.8,325.8z M203.8,389.8h-11.2V378h11.2V389.8z M229.9,389.8h-11.4V378h11.4L229.9,389.8
	L229.9,389.8z M256.1,389.7h-11.5v-11.6h11.5V389.7z M282.2,389.8h-11.3v-11.6h11.3V389.8z M308.3,389.8h-11.3v-11.6h11.3V389.8z"/>
</svg>
