<?xml version="1.0" encoding="utf-8"?>
<!-- Generator: Adobe Illustrator 26.0.1, SVG Export Plug-In . SVG Version: 6.00 Build 0)  -->
<svg version="1.1" id="Слой_1" xmlns="http://www.w3.org/2000/svg" xmlns:xlink="http://www.w3.org/1999/xlink" x="0px" y="0px"
	 viewBox="0 0 499.9 500" style="enable-background:new 0 0 499.9 500;" xml:space="preserve">
<style type="text/css">
	.st0{fill-rule:evenodd;clip-rule:evenodd;fill:#000000;}
</style>
<path id="Фигура_1178" class="st0" d="M393.9,288.8c-21.7,25-43.6,49.8-65.4,74.8c-10.9,12.5-24.8,18.1-41.2,18.1
	c-29.8,0-59.6,0-89.5-0.1c-3-0.2-5.9,1-7.8,3.3c-3.2,3.6-6.8,6.9-10.2,10.3c-4.1,4-7.6,4.1-11.7,0.2c-19.3-18.7-38.5-37.4-57.7-56.1
	c-4.9-4.8-4.5-7.5,0.4-12.4c13.5-13.1,26.8-26.4,40.1-39.8c16.1-16.2,35.6-23.6,58.3-22.1c5.6,0.4,11,2.3,16.6,3.3
	c7.3,1.3,14.7,3.1,22,3.4c15.2,0.5,30.3,0,45.5,0.2c14.4,0.1,25.1,10.6,25.1,24.3c-0.1,13.6-10.8,24.4-24.9,24.7
	c-10.7,0.2-21.3,0.1-32,0.1c-1.4,0-2.8,0.2-4.3,0.3c0,0.5-0.1,1-0.1,1.4c1.2,0.3,2.4,0.4,3.6,0.5c11.5,0,23,0.1,34.5-0.2
	c11.8-0.2,22.7-9,24.9-20.7c1.1-6,4-11.6,8.3-16c9.3-10,18.2-20.4,27.2-30.6c8.6-9.8,25.3-11.1,35.3-2.7
	C401.4,261.8,403.1,278.3,393.9,288.8z M383.6,262.6c-5.9-5.2-14.3-4.3-20,2.1c-9.3,10.6-18.8,21.1-28.1,31.8
	c-1.7,2-2.8,4.4-3.4,6.9c-3.9,16.3-13.5,28-30,30.3c-15.5,2.1-31.5,1.2-47.3,1c-5.2-0.1-8.5-4.3-9.7-9.5c-2.1-8.8,3.8-16,13.4-16.2
	c11.5-0.2,23,0,34.5-0.1c7.8-0.1,13.2-5.4,13.2-12.7s-5.3-12.3-13.3-12.3c-15.3-0.1-30.7,0.4-46-0.2c-8.3-0.4-16.5-1.8-24.4-4.1
	c-20.1-5.8-39.2-4.1-55.2,9.4c-16.1,13.6-30.6,29.1-46,44l52.6,51.4c2.7-2.6,5.3-5.3,7.7-8.2c4.2-5.4,9.6-6.8,16.2-6.7
	c28.5,0.3,57-0.3,85.5,0.3c16.5,0.4,29.1-5.4,39.7-18c19.9-23.5,40.4-46.5,60.7-69.7C389.5,275.7,389.4,267.8,383.6,262.6z
	 M350,197.9c-4.9,0.8-9.6,5.7-9.6,10.6c0,1.4,1.3,3,2.2,4.3c9.6,13.9,2,32.5-14.9,36c-5.5,1.1-10-1.1-14.3-4.3
	c-7.1-5.3-14.9-2-16.4,6.7c-2,11.7-7,16-18.9,16.1c-1.5,0-3,0-4.5,0c-12.6-0.1-17.4-4.2-19.5-16.6c-1.3-7.8-9.1-11.1-15.5-6.7
	c-10.8,7.4-16.9,6.8-26.3-2.5c-1.1-1.1-2.1-2.1-3.2-3.2c-7.4-7.6-8.2-14.6-2-23.2c2.9-4,4-7.2,1.6-12c-1.7-3.3-3.4-4.7-6.8-5.2
	c-6.2-0.8-12.6-2.2-15.1-8.9c-3.2-8.1-3.2-17.2,0.1-25.3c2.5-6.4,8.6-7.8,14.7-8.8c7.6-1.2,11-9.2,6.6-15.5
	c-7.4-10.6-6.8-17,2.5-26.3c4.5-4.5,8.6-9.5,16.3-10.2c4.1,2.1,8.3,3.9,12.1,6.3c5.7,3.6,13.9,0.5,15-6.1
	c2.2-13.6,6.6-17.4,20.2-17.4c1.7,0,3.3,0,5,0c10.3,0.1,16,4.2,17.3,14.1c0.8,6.2,3.4,9.7,9.2,10.8c1.8,0.3,3.6,0,5.3-0.7
	c2.8-1.4,5.2-3.7,8.1-4.8c10-4,16.2,2.4,22.5,8.6c5.5,5.5,8.3,11.7,5.2,19.4c-0.7,1.9-1.7,3.6-3.1,5.1c-3.4,3.6-3.5,7-1.3,11.6
	c1.6,3.4,3.3,4.7,6.8,5.2c13.1,2,17,6.7,17,20v3.5C366.1,190.9,362.1,195.8,350,197.9z M345.6,166.5c-7.6-0.8-10.8-4.4-14.2-11.3
	c-4.7-9.6-4.3-16.8,2.8-24.2c1.1-1.2,2.1-4.1,1.5-4.8c-2.9-3.6-6-7.3-9.9-9.6c-1.4-0.8-5.5,1.5-7.6,3.2c-5.8,4.9-11.4,6.3-18,1.6
	c-1.4-1-2.9-1.6-4.6-1.9c-6.3-1.1-8.7-5.1-9.6-11c-1.8-11.9-0.5-10.5-12.5-10.8c-4.9-0.1-7.6,1.2-7.8,6.5
	c-0.4,8.5-3.4,15.2-13.1,16.5c-1.1,0.3-2.2,0.8-3.2,1.5c-5.3,3.5-10,2.5-15-1.2c-9.5-7.1-7.5-6.7-16.1,1.3c-3.7,3.4-4.5,6.4-0.9,10
	c6.4,6.6,7.9,13.5,2.2,21.3c-0.7,1-1.1,2.1-1.2,3.2c-1,6-4.9,8.4-10.7,9.3c-12.2,1.9-10.8,0.2-11.1,12.7c-0.1,4.7,1.3,7.1,6.3,7.5
	c7.6,0.7,13.1,2.8,16.7,11.7c4,9.8,4.1,16.8-3,24.2c-2.7,2.8-2,5.3,0.8,7.6c1.2,0.9,2.1,2.1,3.2,3.2c5.3,5.3,5.6,5.7,11.4,0.8
	c6.4-5.4,12-5.1,19.9-2.2c9.8,3.6,13.7,9.2,14.1,18.8c0.1,1.5,1.2,4.1,2.1,4.1c4.7,0.5,9.7,1,14.3,0.1c1.5-0.3,2.9-4.6,3.1-7.1
	c0.5-7.9,3.3-13.4,11.8-14.7c1.6-0.4,3.2-1.1,4.5-2.1c5-3.3,9.4-2.5,14.2,1c10,7.3,7.8,8,18-2.1c2.4-2.4,2.9-5,0.5-7.4
	c-7.4-7.5-7.8-14.9-3.1-24.6c3.2-6.7,6.5-10.2,13.8-11.1c8.8-1,8.8-1.4,8.8-10.2C354.2,167.9,354.2,167.4,345.6,166.5L345.6,166.5z
	 M275.1,218.8c-23.4-0.6-42.3-19.9-41.9-42.8c0.4-23.3,19.8-42.2,42.8-41.8c23.2,0.3,42.3,19.9,41.8,42.8
	C317.4,200.1,297.8,219.3,275.1,218.8z M276.1,146.2c-16.7-0.3-30.6,13-30.9,29.7c-0.3,16.7,13,30.6,29.7,30.9c0.2,0,0.4,0,0.6,0
	c16.4,0.2,30.2-13.5,30.4-30C306,160.1,292.7,146.5,276.1,146.2L276.1,146.2z M275.4,201.9c-13.8-0.1-25.5-12.1-25.3-25.8
	c0.3-13.7,11.9-25.1,25.5-25c13.8,0.1,25.5,12,25.2,25.7C300.6,190.5,289,201.9,275.4,201.9L275.4,201.9z M275.6,163.1
	c-7.4,0-13.3,5.9-13.4,13.3c0,7.4,5.9,13.4,13.3,13.4c7.4,0,13.4-5.9,13.4-13.3C288.9,169.2,283,163.2,275.6,163.1L275.6,163.1z"/>
</svg>
