<?xml version="1.0" encoding="utf-8"?>
<!-- Generator: Adobe Illustrator 26.0.1, SVG Export Plug-In . SVG Version: 6.00 Build 0)  -->
<svg version="1.1" id="Слой_1" xmlns="http://www.w3.org/2000/svg" xmlns:xlink="http://www.w3.org/1999/xlink" x="0px" y="0px"
	 viewBox="0 0 500 500" style="enable-background:new 0 0 500 500;" xml:space="preserve">
<style type="text/css">
	.st0{fill-rule:evenodd;clip-rule:evenodd;fill:#000000;}
</style>
<path id="Фигура_1178_копия" class="st0" d="M268.5,371C211.9,371,166,325.2,166,268.5c0-56.6,45.8-102.5,102.5-102.5
	c7.7,0,15.5,0.9,23,2.6c-23.3,22-24.3,58.7-2.3,82c21.6,22.8,57.4,24.3,80.8,3.4c0.7,4.8,1,9.7,1,14.5
	C371,325.1,325.1,371,268.5,371z M331,284c-40.3,0-73-32.7-73-73c0-10.3,2.2-20.5,6.4-29.9c-48.3,2.2-85.6,43.2-83.3,91.5
	s43.2,85.6,91.5,83.3c42.3-2,77.2-34,82.7-76.1C347.5,282.6,339.3,284,331,284z M186,161l-8-28l-28-8l28-8l8-28l8,28l28,8l-28,8
	L186,161z M134,205l-8,28l-8-28l-28-8l28-8l8-28l8,28l28,8L134,205z"/>
</svg>
