<?xml version="1.0" encoding="utf-8"?>
<!-- Generator: Adobe Illustrator 26.0.1, SVG Export Plug-In . SVG Version: 6.00 Build 0)  -->
<svg version="1.1" id="Слой_1" xmlns="http://www.w3.org/2000/svg" xmlns:xlink="http://www.w3.org/1999/xlink" x="0px" y="0px"
	 viewBox="0 0 300 300" style="enable-background:new 0 0 300 300;" xml:space="preserve">
<style type="text/css">
	.st0{fill-rule:evenodd;clip-rule:evenodd;fill:#666666;}
</style>
<path id="Эллипс_6_копия_111" class="st0" d="M0,15C0,6.7,6.7,0,15,0s15,6.7,15,15s-6.7,15-15,15S0,23.3,0,15z M10,75
	c0-8.3,6.7-15,15-15s15,6.7,15,15s-6.7,15-15,15S10,83.3,10,75L10,75z M30,135c0-8.3,6.7-15,15-15c8.3,0,15,6.7,15,15s-6.7,15-15,15
	S30,143.3,30,135L30,135z M75,200c-8.3,0-15-6.7-15-15c0-8.3,6.7-15,15-15s15,6.7,15,15S83.3,200,75,200L75,200z M115,240
	c-8.3,0-15-6.7-15-15c0-8.3,6.7-15,15-15s15,6.7,15,15S123.3,240,115,240L115,240z M165,270c-8.3,0-15-6.7-15-15s6.7-15,15-15
	s15,6.7,15,15S173.3,270,165,270L165,270z M225,290c-8.3,0-15-6.7-15-15c0-8.3,6.7-15,15-15s15,6.7,15,15S233.3,290,225,290L225,290
	z M270,285c0-8.3,6.7-15,15-15l0,0c8.3,0,15,6.7,15,15s-6.7,15-15,15l0,0C276.7,300,270,293.3,270,285z"/>
</svg>
