<?xml version="1.0" encoding="utf-8"?>
<!-- Generator: Adobe Illustrator 26.0.1, SVG Export Plug-In . SVG Version: 6.00 Build 0)  -->
<svg version="1.1" id="Слой_1" xmlns="http://www.w3.org/2000/svg" xmlns:xlink="http://www.w3.org/1999/xlink" x="0px" y="0px"
	 viewBox="0 0 480 480" style="enable-background:new 0 0 480 480;" xml:space="preserve">
<style type="text/css">
	.st0{fill-rule:evenodd;clip-rule:evenodd;fill:#666666;}
</style>
<path id="Эллипс_6_копия_112" class="st0" d="M465,30c-8.3,0-15-6.7-15-15s6.7-15,15-15s15,6.7,15,15S473.3,30,465,30z
	 M405,40c-8.3,0-15-6.7-15-15s6.7-15,15-15s15,6.7,15,15C420,33.3,413.3,40,405,40L405,40z M345,60c-8.3,0-15-6.7-15-15
	s6.7-15,15-15s15,6.7,15,15S353.3,60,345,60z M285,80c-8.3,0-15-6.7-15-15s6.7-15,15-15s15,6.7,15,15S293.3,80,285,80L285,80z
	 M235,110c-8.3,0-15-6.7-15-15s6.7-15,15-15s15,6.7,15,15S243.3,110,235,110L235,110z M185,150c-8.3,0-15-6.7-15-15s6.7-15,15-15
	s15,6.7,15,15S193.3,150,185,150L185,150z M135,200c-8.3,0-15-6.7-15-15s6.7-15,15-15s15,6.7,15,15C150,193.3,143.3,200,135,200
	L135,200z M95,250c-8.3,0-15-6.7-15-15s6.7-15,15-15s15,6.7,15,15C110,243.3,103.3,250,95,250L95,250z M65,300c-8.3,0-15-6.7-15-15
	s6.7-15,15-15s15,6.7,15,15C80,293.3,73.3,300,65,300L65,300z M60,345c0,8.3-6.7,15-15,15s-15-6.7-15-15s6.7-15,15-15
	S60,336.7,60,345z M40,405c0,8.3-6.7,15-15,15s-15-6.7-15-15s6.7-15,15-15C33.3,390,40,396.7,40,405L40,405z M30,465
	c0,8.3-6.7,15-15,15s-15-6.7-15-15s6.7-15,15-15C23.3,450,30,456.7,30,465L30,465z"/>
</svg>
