<?xml version="1.0" encoding="utf-8"?>
<!-- Generator: Adobe Illustrator 26.0.1, SVG Export Plug-In . SVG Version: 6.00 Build 0)  -->
<svg version="1.1" id="Слой_1" xmlns="http://www.w3.org/2000/svg" xmlns:xlink="http://www.w3.org/1999/xlink" x="0px" y="0px"
	 viewBox="0 0 300 300" style="enable-background:new 0 0 300 300;" xml:space="preserve">
<style type="text/css">
	.st0{fill-rule:evenodd;clip-rule:evenodd;fill:#666666;}
</style>
<path id="Эллипс_6_копия_111" class="st0" d="M300,285c0,8.3-6.7,15-15,15s-15-6.7-15-15s6.7-15,15-15S300,276.7,300,285
	z M290,225c0,8.3-6.7,15-15,15s-15-6.7-15-15s6.7-15,15-15S290,216.7,290,225L290,225z M270,165c0,8.3-6.7,15-15,15
	c-8.3,0-15-6.7-15-15s6.7-15,15-15S270,156.7,270,165L270,165z M225,100c8.3,0,15,6.7,15,15c0,8.3-6.7,15-15,15s-15-6.7-15-15
	S216.7,100,225,100L225,100z M185,60c8.3,0,15,6.7,15,15c0,8.3-6.7,15-15,15s-15-6.7-15-15S176.7,60,185,60L185,60z M135,30
	c8.3,0,15,6.7,15,15s-6.7,15-15,15s-15-6.7-15-15S126.7,30,135,30L135,30z M75,10c8.3,0,15,6.7,15,15c0,8.3-6.7,15-15,15
	s-15-6.7-15-15S66.7,10,75,10L75,10z M30,15c0,8.3-6.7,15-15,15l0,0C6.7,30,0,23.3,0,15S6.7,0,15,0l0,0C23.3,0,30,6.7,30,15z"/>
</svg>
