<?xml version="1.0" encoding="utf-8"?>
<!-- Generator: Adobe Illustrator 26.0.1, SVG Export Plug-In . SVG Version: 6.00 Build 0)  -->
<svg version="1.1" id="Слой_1" xmlns="http://www.w3.org/2000/svg" xmlns:xlink="http://www.w3.org/1999/xlink" x="0px" y="0px"
	 viewBox="0 0 480 480" style="enable-background:new 0 0 480 480;" xml:space="preserve">
<style type="text/css">
	.st0{fill-rule:evenodd;clip-rule:evenodd;fill:#666666;}
</style>
<path id="Эллипс_6_копия_112" class="st0" d="M15,450c8.3,0,15,6.7,15,15s-6.7,15-15,15s-15-6.7-15-15
	C0,456.7,6.7,450,15,450z M75,440c8.3,0,15,6.7,15,15s-6.7,15-15,15s-15-6.7-15-15C60,446.7,66.7,440,75,440L75,440z M135,420
	c8.3,0,15,6.7,15,15s-6.7,15-15,15s-15-6.7-15-15S126.7,420,135,420z M195,400c8.3,0,15,6.7,15,15s-6.7,15-15,15s-15-6.7-15-15
	S186.7,400,195,400L195,400z M245,370c8.3,0,15,6.7,15,15s-6.7,15-15,15s-15-6.7-15-15S236.7,370,245,370L245,370z M295,330
	c8.3,0,15,6.7,15,15s-6.7,15-15,15s-15-6.7-15-15S286.7,330,295,330L295,330z M345,280c8.3,0,15,6.7,15,15s-6.7,15-15,15
	s-15-6.7-15-15C330,286.7,336.7,280,345,280L345,280z M385,230c8.3,0,15,6.7,15,15s-6.7,15-15,15s-15-6.7-15-15
	C370,236.7,376.7,230,385,230L385,230z M415,180c8.3,0,15,6.7,15,15s-6.7,15-15,15s-15-6.7-15-15C400,186.7,406.7,180,415,180
	L415,180z M420,135c0-8.3,6.7-15,15-15s15,6.7,15,15s-6.7,15-15,15S420,143.3,420,135z M440,75c0-8.3,6.7-15,15-15s15,6.7,15,15
	s-6.7,15-15,15C446.7,90,440,83.3,440,75L440,75z M450,15c0-8.3,6.7-15,15-15s15,6.7,15,15s-6.7,15-15,15C456.7,30,450,23.3,450,15
	L450,15z"/>
</svg>
