<?xml version="1.0" encoding="utf-8"?>
<!-- Generator: Adobe Illustrator 26.0.1, SVG Export Plug-In . SVG Version: 6.00 Build 0)  -->
<svg version="1.1" id="Слой_1" xmlns="http://www.w3.org/2000/svg" xmlns:xlink="http://www.w3.org/1999/xlink" x="0px" y="0px"
	 viewBox="0 0 480 480" style="enable-background:new 0 0 480 480;" xml:space="preserve">
<style type="text/css">
	.st0{fill-rule:evenodd;clip-rule:evenodd;fill:#666666;}
</style>
<path id="Эллипс_6_копия_112" class="st0" d="M480,465c0,8.3-6.7,15-15,15s-15-6.7-15-15s6.7-15,15-15S480,456.7,480,465
	z M405,440c8.3,0,15,6.7,15,15c0,8.3-6.7,15-15,15s-15-6.7-15-15S396.7,440,405,440L405,440z M360,435c0,8.3-6.7,15-15,15
	s-15-6.7-15-15s6.7-15,15-15S360,426.7,360,435z M285,400c8.3,0,15,6.7,15,15s-6.7,15-15,15s-15-6.7-15-15S276.7,400,285,400
	L285,400z M235,370c8.3,0,15,6.7,15,15s-6.7,15-15,15s-15-6.7-15-15S226.7,370,235,370L235,370z M185,330c8.3,0,15,6.7,15,15
	s-6.7,15-15,15s-15-6.7-15-15S176.7,330,185,330L185,330z M135,280c8.3,0,15,6.7,15,15c0,8.3-6.7,15-15,15s-15-6.7-15-15
	S126.7,280,135,280L135,280z M95,230c8.3,0,15,6.7,15,15c0,8.3-6.7,15-15,15s-15-6.7-15-15S86.7,230,95,230L95,230z M65,180
	c8.3,0,15,6.7,15,15c0,8.3-6.7,15-15,15s-15-6.7-15-15S56.7,180,65,180L65,180z M45,150c-8.3,0-15-6.7-15-15s6.7-15,15-15
	s15,6.7,15,15S53.3,150,45,150z M40,75c0,8.3-6.7,15-15,15c-8.3,0-15-6.7-15-15s6.7-15,15-15S40,66.7,40,75L40,75z M30,15
	c0,8.3-6.7,15-15,15C6.7,30,0,23.3,0,15S6.7,0,15,0S30,6.7,30,15L30,15z"/>
</svg>
