<?xml version="1.0" encoding="utf-8"?>
<!-- Generator: Adobe Illustrator 26.0.1, SVG Export Plug-In . SVG Version: 6.00 Build 0)  -->
<svg version="1.1" id="Слой_1" xmlns="http://www.w3.org/2000/svg" xmlns:xlink="http://www.w3.org/1999/xlink" x="0px" y="0px"
	 viewBox="0 0 300 300" style="enable-background:new 0 0 300 300;" xml:space="preserve">
<style type="text/css">
	.st0{fill-rule:evenodd;clip-rule:evenodd;fill:#666666;}
</style>
<path id="Эллипс_6_копия_111" class="st0" d="M15,270c8.3,0,15,6.7,15,15s-6.7,15-15,15s-15-6.7-15-15
	C0,276.7,6.7,270,15,270z M10,225c0-8.3,6.7-15,15-15s15,6.7,15,15s-6.7,15-15,15S10,233.3,10,225L10,225z M30,165
	c0-8.3,6.7-15,15-15s15,6.7,15,15s-6.7,15-15,15C36.7,180,30,173.3,30,165L30,165z M75,100c8.3,0,15,6.7,15,15s-6.7,15-15,15
	s-15-6.7-15-15C60,106.7,66.7,100,75,100L75,100z M115,60c8.3,0,15,6.7,15,15s-6.7,15-15,15s-15-6.7-15-15C100,66.7,106.7,60,115,60
	L115,60z M165,30c8.3,0,15,6.7,15,15s-6.7,15-15,15s-15-6.7-15-15S156.7,30,165,30L165,30z M225,10c8.3,0,15,6.7,15,15
	s-6.7,15-15,15s-15-6.7-15-15C210,16.7,216.7,10,225,10L225,10z M285,0L285,0c8.3,0,15,6.7,15,15s-6.7,15-15,15l0,0
	c-8.3,0-15-6.7-15-15S276.7,0,285,0z"/>
</svg>
