<?xml version="1.0" encoding="utf-8"?>
<!-- Generator: Adobe Illustrator 26.0.1, SVG Export Plug-In . SVG Version: 6.00 Build 0)  -->
<svg version="1.1" id="Слой_1" xmlns="http://www.w3.org/2000/svg" xmlns:xlink="http://www.w3.org/1999/xlink" x="0px" y="0px"
	 viewBox="0 0 480 480" style="enable-background:new 0 0 480 480;" xml:space="preserve">
<style type="text/css">
	.st0{fill-rule:evenodd;clip-rule:evenodd;fill:#666666;}
</style>
<path id="Эллипс_6_копия_112" class="st0" d="M0,15C0,6.7,6.7,0,15,0s15,6.7,15,15s-6.7,15-15,15S0,23.3,0,15z M75,40
	c-8.3,0-15-6.7-15-15c0-8.3,6.7-15,15-15s15,6.7,15,15S83.3,40,75,40L75,40z M120,45c0-8.3,6.7-15,15-15s15,6.7,15,15s-6.7,15-15,15
	S120,53.3,120,45z M195,80c-8.3,0-15-6.7-15-15s6.7-15,15-15s15,6.7,15,15S203.3,80,195,80L195,80z M245,110c-8.3,0-15-6.7-15-15
	s6.7-15,15-15s15,6.7,15,15S253.3,110,245,110L245,110z M295,150c-8.3,0-15-6.7-15-15s6.7-15,15-15s15,6.7,15,15S303.3,150,295,150
	L295,150z M345,200c-8.3,0-15-6.7-15-15c0-8.3,6.7-15,15-15s15,6.7,15,15S353.3,200,345,200L345,200z M385,250c-8.3,0-15-6.7-15-15
	c0-8.3,6.7-15,15-15s15,6.7,15,15S393.3,250,385,250L385,250z M415,300c-8.3,0-15-6.7-15-15c0-8.3,6.7-15,15-15s15,6.7,15,15
	S423.3,300,415,300L415,300z M435,330c8.3,0,15,6.7,15,15s-6.7,15-15,15s-15-6.7-15-15S426.7,330,435,330z M440,405
	c0-8.3,6.7-15,15-15c8.3,0,15,6.7,15,15s-6.7,15-15,15S440,413.3,440,405L440,405z M450,465c0-8.3,6.7-15,15-15c8.3,0,15,6.7,15,15
	s-6.7,15-15,15S450,473.3,450,465L450,465z"/>
</svg>
