<?xml version="1.0" encoding="utf-8"?>
<!-- Generator: Adobe Illustrator 26.0.1, SVG Export Plug-In . SVG Version: 6.00 Build 0)  -->
<svg version="1.1" id="Слой_1" xmlns="http://www.w3.org/2000/svg" xmlns:xlink="http://www.w3.org/1999/xlink" x="0px" y="0px"
	 viewBox="0 0 300 300" style="enable-background:new 0 0 300 300;" xml:space="preserve">
<style type="text/css">
	.st0{fill-rule:evenodd;clip-rule:evenodd;fill:#666666;}
</style>
<path id="Эллипс_6_копия_111" class="st0" d="M285,30c-8.3,0-15-6.7-15-15s6.7-15,15-15s15,6.7,15,15S293.3,30,285,30z
	 M290,75c0,8.3-6.7,15-15,15s-15-6.7-15-15s6.7-15,15-15S290,66.7,290,75L290,75z M270,135c0,8.3-6.7,15-15,15s-15-6.7-15-15
	s6.7-15,15-15C263.3,120,270,126.7,270,135L270,135z M225,200c-8.3,0-15-6.7-15-15s6.7-15,15-15s15,6.7,15,15
	C240,193.3,233.3,200,225,200L225,200z M185,240c-8.3,0-15-6.7-15-15s6.7-15,15-15s15,6.7,15,15C200,233.3,193.3,240,185,240
	L185,240z M135,270c-8.3,0-15-6.7-15-15s6.7-15,15-15s15,6.7,15,15S143.3,270,135,270L135,270z M75,290c-8.3,0-15-6.7-15-15
	s6.7-15,15-15s15,6.7,15,15C90,283.3,83.3,290,75,290L75,290z M15,300L15,300c-8.3,0-15-6.7-15-15s6.7-15,15-15l0,0
	c8.3,0,15,6.7,15,15S23.3,300,15,300z"/>
</svg>
