<?xml version="1.0" encoding="utf-8"?>
<!-- Generator: Adobe Illustrator 26.0.1, SVG Export Plug-In . SVG Version: 6.00 Build 0)  -->
<svg version="1.1" id="Слой_1" xmlns="http://www.w3.org/2000/svg" xmlns:xlink="http://www.w3.org/1999/xlink" x="0px" y="0px"
	 viewBox="0 0 3789.8 3789.8" style="enable-background:new 0 0 3789.8 3789.8;" xml:space="preserve">
<style type="text/css">
	.st0{fill-rule:evenodd;clip-rule:evenodd;}
	.st1{fill-rule:evenodd;clip-rule:evenodd;fill:#FF161F;}
</style>
<path id="Эллипс_1_копия_2" class="st0" d="M2706.3,977.4c-462.5-409.8-1160.4-409.9-1622.9-0.1L609.1,503
	c725-670.7,1846.6-670.7,2571.6,0L2706.3,977.4z M1091.1,2818.9c460,400.9,1147.8,401.1,1607.8,0.2l474.5,474.5
	c-722.8,661.6-1834.2,661.7-2556.9,0L1091.1,2818.9z"/>
<path id="Эллипс_1_копия_2-2" class="st1" d="M2812.5,2706.4c407.5-460,409.5-1152.8,6.4-1615.3l474.7-474.7
	c663.9,725.2,661.6,1841.7-6.8,2564.3L2812.5,2706.4z M977.4,2706.3L503,3180.7c-668.4-722.6-670.7-1839-6.8-2564.3l474.5,474.5
	C567.5,1553.4,569.9,2246.3,977.4,2706.3L977.4,2706.3z"/>
</svg>
