<?xml version="1.0" encoding="utf-8"?>
<!-- Generator: Adobe Illustrator 26.0.1, SVG Export Plug-In . SVG Version: 6.00 Build 0)  -->
<svg version="1.1" id="Слой_1" xmlns="http://www.w3.org/2000/svg" xmlns:xlink="http://www.w3.org/1999/xlink" x="0px" y="0px"
	 viewBox="0 0 3786.8 3786.8" style="enable-background:new 0 0 3786.8 3786.8;" xml:space="preserve">
<style type="text/css">
	.st0{fill-rule:evenodd;clip-rule:evenodd;}
	.st1{fill-rule:evenodd;clip-rule:evenodd;fill:#FF161F;}
</style>
<path id="Эллипс_1" class="st0" d="M1818.4,670.9C1201.6,708.2,708,1201.6,670.7,1818.4H0C38.4,831.5,831.5,38.4,1818.4,0
	V670.9z M1978.4,3115.1c608.8-41.8,1095.3-528,1137-1136.8h671c-43.2,978.9-829.1,1764.8-1808,1808V3115.1z"/>
<path id="Эллипс_1_копия" class="st1" d="M3116,1818.4C3079,1205,2590.5,713.7,1978.4,671.7V0.4
	c982.3,43.4,1770.1,834.5,1808.4,1818H3116z M1818.4,3115.9v670.9C834.8,3748.5,43.8,2960.7,0.4,1978.4h671
	C713.3,2590.5,1205,3078.8,1818.4,3115.9z"/>
</svg>
