<?xml version="1.0" encoding="utf-8"?>
<!-- Generator: Adobe Illustrator 26.0.1, SVG Export Plug-In . SVG Version: 6.00 Build 0)  -->
<svg version="1.1" id="Слой_1" xmlns="http://www.w3.org/2000/svg" xmlns:xlink="http://www.w3.org/1999/xlink" x="0px" y="0px"
	 viewBox="0 0 3290.7 724" style="enable-background:new 0 0 3290.7 724;" xml:space="preserve">
<style type="text/css">
	.st0{fill-rule:evenodd;clip-rule:evenodd;}
	.st1{fill-rule:evenodd;clip-rule:evenodd;fill:#FF161F;}
</style>
<path id="Фигура_1179" class="st0" d="M3175.5,192.9c-39.7,89.8-96,167.2-172.1,229.9c-14.4,11.9-30.3,21.8-47.2,29.7
	c-41.2,19.2-84.6,32.2-128.5,43.4c-60.1,15.3-121,26.4-182.2,36c-52.6,8.2-105.4,16-158.2,22.9c-51.5,6.7-103.2,12.1-154.9,17.6
	c-47.7,5.1-95.4,9.9-143.2,14.3c-38.5,3.6-77,6.5-115.5,9.6c-43.2,3.4-86.3,6.8-129.5,10.1c-21.9,1.7-43.9,3.3-65.8,4.7
	c-53.2,3.3-106.4,6.5-159.6,9.5c-58.6,3.4-117.1,6.8-175.6,10.1c-29.3,1.6-58.6,3.1-87.9,4.3c-77.9,3.3-155.8,6.4-233.8,9.5
	c-91.9,3.5-183.8,6.9-275.7,10.1c-48,1.7-95.9,3.1-143.9,4.2c-79.3,1.9-158.6,3.8-237.9,5.3c-140.6,2.6-281.2,5-421.9,7.1
	c-40,0.6-80,0.6-120,0.8c-6.5,0-13.1-0.4-18.8-0.5c-1.4-2.4-2.6-3.5-2.6-4.7C0.3,633,0.1,599,0,565c0-3.2,0.6-6.5,1.1-10.4
	c7.4-3.3,14.7-1.8,21.8-1.7c64,1.1,127.9,2.9,191.9,3.6c163.3,1.8,326.6,4.1,489.9,4.6c170.6,0.5,341.3-0.2,511.9-2
	c131.3-1.4,262.6-4.5,393.8-8.2c103.9-2.9,207.8-7.3,311.7-11.9c69.9-3.1,139.8-7.1,209.6-11.8c70.5-4.7,140.9-9.8,211.3-16.4
	c71.6-6.7,143.1-14.5,214.6-23.4c88.6-11.2,176.7-25.3,263.3-47.4c33.6-8.5,66.7-18.5,98.9-31.6c21.6-8.8,42.2-19.9,61.4-33.1
	c72.6-49.9,135.9-109.4,187.1-181.3c2.3-3.2,4.9-6.3,10.2-13.1C3176.8,187.8,3176.5,190.5,3175.5,192.9z"/>
<path id="Фигура_1179_копия" class="st1" d="M158.7,724c6.6-0.8,13.1-2.2,19.7-2.4c89.3-1.9,178.6-3.5,267.8-5.4
	c105.9-2.3,211.8-4.6,317.8-7.1c68-1.6,135.9-3.4,203.8-5.4c59.3-1.8,118.5-4.2,177.8-6.4c37.9-1.4,75.9-2.9,113.9-4.5
	c75.9-3.1,151.8-5.8,227.7-9.6c85.2-4.2,170.3-9.4,255.4-14.3c51.9-3,103.8-6,155.6-9.5c45.2-3.1,90.4-6.8,135.5-10.3
	c39.9-3.1,79.7-6.1,119.5-9.5c35.8-3.1,71.6-6.6,107.4-10.1c31.2-3,62.3-6.1,93.4-9.5c39.7-4.4,79.5-8.7,119.1-13.7
	c44.2-5.7,88.5-11.7,132.6-18.4c97.5-14.8,194.5-31.7,289.1-60.1c22.9-6.9,45.4-15.3,67.8-23.9c28.2-10.9,53.3-26.9,76.6-46.3
	c68.5-57.2,121.9-126.3,162.9-205.3c38-73.2,63.6-150.7,80.3-231.4c1.4-7.1,3.4-14.1,6-20.9c2.6,7.4,1.9,15,1.9,22.4
	c0,225.9,0.1,451.7,0,677.6c0,8,0.2,16,0.3,24L158.7,724L158.7,724z"/>
</svg>
